/* XPM */
static char *door411703585273[] = {
/* columns rows colors chars-per-pixel */
"64 64 214 2 ",
"   c None",
".  c #020101",
"X  c #0C0101",
"o  c #070807",
"O  c #0A0907",
"+  c #0C0C0A",
"@  c #130101",
"#  c #1C0202",
"$  c #160807",
"%  c #1B0807",
"&  c #130D0B",
"*  c #1A0E0B",
"=  c #0E100D",
"-  c #11120E",
";  c #151511",
":  c #1D1611",
">  c #1A1C16",
",  c #230202",
"<  c #2C0202",
"1  c #260A09",
"2  c #270907",
"3  c #340202",
"4  c #3B0302",
"5  c #3B0907",
"6  c #330C0A",
"7  c #3C0B0A",
"8  c #330907",
"9  c #25100D",
"0  c #3D110D",
"q  c #35100D",
"w  c #271A15",
"e  c #331914",
"r  c #3C1A15",
"t  c #361410",
"y  c #26241D",
"u  c #3B221C",
"i  c #312C23",
"p  c #430303",
"a  c #4B0303",
"s  c #4C0807",
"d  c #420B0A",
"f  c #4C0B09",
"g  c #470806",
"h  c #530505",
"j  c #5B0404",
"k  c #5B0908",
"l  c #47120F",
"z  c #51120F",
"x  c #421A15",
"c  c #471A15",
"v  c #591A15",
"b  c #630303",
"n  c #6B0404",
"m  c #680908",
"M  c #720605",
"N  c #7C0707",
"B  c #740D0B",
"V  c #7B0808",
"C  c #681714",
"Z  c #7B1915",
"A  c #7A100E",
"S  c #45231C",
"D  c #54221C",
"F  c #6F221B",
"G  c #5B2B23",
"H  c #772921",
"J  c #70342A",
"K  c #8F0A09",
"L  c #850707",
"P  c #960A08",
"I  c #9A0808",
"U  c #8C110E",
"Y  c #90110F",
"T  c #841915",
"R  c #981C18",
"E  c #A40B0A",
"W  c #AB0808",
"Q  c #B90707",
"!  c #B40909",
"~  c #BA0B0B",
"^  c #B20707",
"/  c #BC110F",
"(  c #A91714",
")  c #B71714",
"_  c #87221C",
"`  c #99211C",
"'  c #A0231D",
"]  c #8E352C",
"[  c #8D342A",
"{  c #CD0C0C",
"}  c #C60909",
"|  c #D70C0C",
" . c #C7100F",
".. c #C31312",
"X. c #CA1A17",
"o. c #D31512",
"O. c #E40D0D",
"+. c #EC0E0E",
"@. c #FD0C0C",
"#. c #E6100E",
"$. c #FA100F",
"%. c #E31312",
"&. c #ED1211",
"*. c #EC1816",
"=. c #F21313",
"-. c #FF1413",
";. c #FE1C1B",
":. c #FF1817",
">. c #D2221D",
",. c #C7261F",
"<. c #E2211D",
"1. c #FF211D",
"2. c #C92B24",
"3. c #D72D25",
"4. c #CA3329",
"5. c #D83028",
"6. c #E62C26",
"7. c #FE2423",
"8. c #F12B25",
"9. c #FF2925",
"0. c #FF2D2A",
"q. c #F22623",
"w. c #E9342B",
"e. c #FE322C",
"r. c #FF3027",
"t. c #EE3A32",
"y. c #FF3632",
"u. c #FF3B35",
"i. c #FF3D3A",
"p. c #DC4439",
"a. c #EE473B",
"s. c #FF433C",
"d. c #FF493D",
"f. c #FF4136",
"g. c #FF4641",
"h. c #FF4B44",
"j. c #FF4F4B",
"k. c #FF5145",
"l. c #FF544C",
"z. c #FE5C4D",
"x. c #FF5652",
"c. c #FF5C53",
"v. c #FF5D5A",
"b. c #FF604E",
"n. c #FF6255",
"m. c #FF635C",
"M. c #FF6A5B",
"N. c #FF6C63",
"B. c #FF6F6A",
"V. c #FF7264",
"C. c #FF7B66",
"Z. c #FF746B",
"A. c #FF7A6D",
"S. c #FF7771",
"D. c #FF7D74",
"F. c #FF856F",
"G. c #FF8574",
"H. c #FF847A",
"J. c #FF8B7D",
"K. c #FF8C75",
"L. c #FF927D",
"P. c #FF8C83",
"I. c #FF8780",
"U. c #FF9485",
"Y. c #FF9489",
"T. c #FF9B8C",
"R. c #FF9980",
"E. c #FF9F91",
"W. c #FFA28C",
"Q. c #FFA98F",
"!. c #FFA385",
"~. c #FFA494",
"^. c #FFAA95",
"/. c #FFA799",
"(. c #FFAC9B",
"). c #FFB394",
"_. c #FFB49C",
"`. c #FFBB9D",
"'. c #FFB997",
"]. c #FFADA0",
"[. c #FFB4A2",
"{. c #FFBBA4",
"}. c #FFBBAA",
"|. c #FFC9A7",
" X c #FFC4AB",
".X c #FFCDAD",
"XX c #FFC0A2",
"oX c #FFD4AB",
"OX c #FFC6B1",
"+X c #FFCBB4",
"@X c #FFCEB9",
"#X c #FFD4B4",
"$X c #FFD3BC",
"%X c #FFDCBB",
"&X c #FFDCB5",
"*X c #FFE3BC",
"=X c #FFE9BC",
"-X c moccasin",
";X c #FFD9C3",
":X c #FFE3C4",
">X c #FFEBCB",
",X c #FFEDC3",
"<X c #FFF3CB",
"1X c #FFF3C6",
"2X c #FFECD2",
"3X c #FFF5D4",
"4X c #FFFAD3",
"5X c #FFFBDB",
"6X c #FFF2D8",
"7X c #FFF6E4",
"8X c #FFFEE4",
"9X c #FFFFEA",
"0X c #FFFFF4",
"qX c #FFFFFE",
/* pixels */
"                                                                                                                                ",
"                                                                                                                                ",
"                                                                                                                                ",
"                                                                                                                                ",
"                                                                                                                                ",
"                                                                                                                                ",
"                                                                                                                                ",
"                                                                                                                                ",
"                                                                                                                                ",
"                                                                                                                                ",
"                                                                                                                                ",
"                                                            y = -                                                               ",
"                                                          . > & . . .         @                                                 ",
"                                                  . . . o X X X @ @ X X + o                                                     ",
"                                              . . . . . . k h $ @ , 1 , @ X X       .                                           ",
"                                          . . . . . . . X , q w % 1 6 , # @ X X a h . # # .                                     ",
"                                        . . . @ # 4 4 , # , e S 2 # , # # @ @ % @ @ . . . . .                                   ",
"                                      . . , , p a n b 3 8 r u H c f h 3 a 5 , < @ @ X . . . .                                   ",
"                                    . . # h , 3 3 p 4 p v G F 3.2.>...V U K N n 4 @ @ X . . . .                                 ",
"                                  . . . , a h 4 h N ~ >.3.5.w.e.e.r.1.%.&.{ } Q L j 7 % X . . .                                 ",
"                                . . X , < j K N ! $.@.7.u.y.f.f.e.1.1.-.$.$.+.| Q } B 4 # @ . . .     X                         ",
"                            . . X @ @ 8 5 a { =.$.:.:.9.s.s.k.l.f.e.1.:.1.:.:.+.O.| P m a < # X . . X @ @                       ",
"                        . . . X X $ % 4 s M +.@.;.;.1.0.d.k.c.m.n.b.d.e.r.1.1.1.1.-.@.^ h j j @ X X @ @ X                       ",
"                          # @ # @ # 8 V O.=.;.;.7.7.9.u.g.N.V.A.F.F.V.k.d.f.r.r.1.-.$.{ ! E a @ @ @ X @ @                       ",
"                        X 4 a 4 # 3 p W :.1.9.e.y.y.i.j.m.D.J.U.K.K.K.C.b.k.k.d.9.;.:.-.+.I h < # # @ X @                       ",
"                      X @ @ 3 , , 4 N %.1.0.y.h.g.h.x.x.Z.G.T.^.Q.).'.!.C.M.M.z.u.7.:.:.=./ B f 7 d % @ ,       o               ",
"                              X p I { ;.;.e.i.l.c.m.B.N.D.J.~.).`.oXoX'.L.F.V.z.h.u.7.;.;.;.( B f 2 $ @ @ O                     ",
"                            . @ j P O.;.0.y.s.c.M.N.B.D.U.^.`.{.|.-X=XoX).L.K.n.x.c.i.0.0.1.o.Y B d $ $ % O                     ",
"                            , , j P =.7.y.u.j.v.V.A.D.U._.#X#X&X=X=X-X&X'.J.U.D.N.N.z.h.9.7.;...A 6 O $ # # #                   ",
"                        o . @ @ 5 ! 9.0.e.i.j.v.A.W.Q.`.oX>X3X4X5X<X<X1X|.!.U.L.K.V.x.s.y.9.;...A % o X p                       ",
"                        y ; @ 2 T 8.i.i.e.i.j.N.T.'.XXoX>X5X0X0X8X9X8X5X<X,X&X`.^.T.U.M.m.n.h.5.( 7 @ @ #                       ",
"                          . , f ) u.s.h.h.g.x.S.^.|.%X*X4X9XqXqXqXqXqX0X8X<X#X|.[.`.^.J.A.V.n.t.4.H 6 # . .                     ",
"                          . @ 3 ^ 8.s.h.h.c.S.T.[.oX*X1X5X0XqXqXqXqXqXqX9X*X#X+X{.`.^.U.K.C.n.d.w.F t @ . .                     ",
"                        . X @ a  .e.g.h.h.v.E./._.}.-X4X9XqXqXqXqXqXqXqX0X>X+X|.XX`.Q.P.G.n.c.z.a.[ S y >                       ",
"                        . X @ p ..8.h.m.m.N.Y./.{.}.#X3X0XqXqXqXqXqXqXqX0X5X%X.X[.[.I.B.V.k.h.s.p.G t : =                       ",
"                        o @ @ ; D 2.s.z.V.S.Y./.{. X$X8X0XqXqXqXqXqXqXqX0X8X3X$XOX].I.N.l.y.0.;.>.C < . O   ,                   ",
"                      i w @ X = e 2.u.h.j.N.D.P.~.(.%X3X9XqXqXqXqXqXqXqX0X9X8X2X$X/.D.v.g.0.7.-.| L , X ;                       ",
"                      + O @ X X , ,.y.s.x.N.D.I.Y.[.$X>X3X9XqXqXqXqXqX0X9X7X2X#X[.H.N.g.u.0.;.&.~ m # # . . . .                 ",
"                        . @ @ , a / 8.u.j.N.S.S.D.}.{. X%X<X8X0XqXqXqX0X3X:X+X{.E.S.v.g.i.7.:.o.m f # . . . .                   ",
"                      . . @ @ @ # b { q.g.j.x.N.D.E.Y.E.{.*X4X8X0X0X0X9X3X;X$X}.].H.N.g.u.9.-.E a < # . . X                     ",
"                        . @ @ # X p K %.;.i.j.v.H.Y.E.E.}.;X5X5X7X6X9X8X5X;XOX[./.H.V.k.e.0.&.N p < , @ @ @                     ",
"                        X X 3 4 X 4 j Q +.7.s.v.B.I.P.Y.].;X:X3X:X2X>X>X6X;XOX].(.H.m.z.y.9.( k 4 4 , @ ,                       ",
"                        . X , 3 @ 3 a n ~ =.0.x.x.H.H.P.Y.}.@X+XOX;XOX+X;X@X}.~.U.V.c.l.u.>.C z 5 # , @ X                       ",
"                        . @ @ M j @ 4 j j I 7.j.N.Z.D.H.Y.Y./.}.;X@X}.}.(.(.T.Z.V.M.n.h.t.T z l 2 X . . . .                     ",
"                          X X , , X 3 p a M %.g.z.m.Z.D.J.P.Y.~.[.].(.].(.H.B.j.k.M.b.p.4.C z 0 $ . . . .                       ",
"                          . X O . @ 4 . # s _ t.d.l.x.M.m.N.D.U.E.Y.D.H.G.V.c.u.s.z.z.] D z 0 9 $ . @ #                         ",
"                            . O . . X . o d H 3.e.s.s.i.g.l.N.Z.Z.A.B.G.N.z.h.e.0.5.] J D 6 9 z d . X                           ",
"                            . X . O . . O x H ( 3.0.0.7.u.g.j.l.x.j.l.n.h.i.s.6.) R D G i X X 1 - . . .                         ",
"                              . . . . . O : g g T E ..*.0.y.0.7.e.y.s.d.f.8.6.' v x x e ; . . o . . .                           ",
"                                . . . X a X @ 4 4 < 5 U ( ~ O.=.<.>.t.a.w.,.` C l e 9 - o . = . .   o +                         ",
"                                  . O - < X # < 4 . . , 4 a n K C H _ ] H _ C f 3 r ; + . . w ;       +                         ",
"                                    ; > . . . . , . . $ . # # 2 w r x G D D 5 p 3 % = - X . O                                   ",
"                                      . . . . . X 3 @ ; o . . + e e * 9 y ; . . 2 X O &                                         ",
"                                          . . . . $ o o X X . . % w . o + O . # a                                               ",
"                                            . . . . . . . . . . + + . . . . . X                                                 ",
"                                                . . . . . . . . . . . o . + o                                                   ",
"                                                    . . . . . . . o   O o y                                                     ",
"                                                        . . .   + ;                                                             ",
"                                                                                                                                ",
"                                                                                                                                ",
"                                                                                                                                ",
"                                                                                                                                ",
"                                                                                                                                ",
"                                                                                                                                "
};
