/* XPM */
static char *door431703585273[] = {
/* columns rows colors chars-per-pixel */
"64 64 213 2 ",
"   c None",
".  c #030100",
"X  c #0B0101",
"o  c #070807",
"O  c #0A0807",
"+  c #0C0C0A",
"@  c #130201",
"#  c #1B0202",
"$  c #140807",
"%  c #130D0A",
"&  c #1C0D0A",
"*  c #12110E",
"=  c #151511",
"-  c #1A1511",
";  c #1A1B16",
":  c #1C1F18",
">  c #171814",
",  c #230202",
"<  c #2C0303",
"1  c #2C0D0B",
"2  c #250B09",
"3  c #340303",
"4  c #3A0303",
"5  c #330807",
"6  c #310D0A",
"7  c #3C0B0A",
"8  c #22100D",
"9  c #35110E",
"0  c #211A14",
"q  c #271E19",
"w  c #2A1713",
"e  c #3D1E19",
"r  c #351A16",
"t  c #23241C",
"y  c #2F201A",
"u  c #33241D",
"i  c #3B251E",
"p  c #322A22",
"a  c #430303",
"s  c #4A0404",
"d  c #450C09",
"f  c #550504",
"g  c #5E0403",
"h  c #540D0B",
"j  c #550906",
"k  c #47110E",
"l  c #551713",
"z  c #431A15",
"x  c #6B0606",
"c  c #660807",
"v  c #640B0A",
"b  c #650908",
"n  c #760606",
"m  c #7C0606",
"M  c #730B09",
"N  c #7B0C0B",
"B  c #60100E",
"V  c #6A1814",
"C  c #741A15",
"Z  c #741310",
"A  c #43211B",
"S  c #4B211B",
"D  c #54221C",
"F  c #5A231C",
"G  c #78231C",
"H  c #64251E",
"J  c #462B23",
"K  c #6A2D24",
"L  c #840808",
"P  c #8C0A09",
"I  c #8A0707",
"U  c #950909",
"Y  c #9B0B0A",
"T  c #9C0708",
"R  c #98110F",
"E  c #881C18",
"W  c #971613",
"Q  c #A30C0B",
"!  c #A80909",
"~  c #BB0B0A",
"^  c #A31614",
"/  c #B61815",
"(  c #80241D",
")  c #90251F",
"_  c #AD221E",
"`  c #B8231D",
"'  c #982922",
"]  c #8C3229",
"[  c #882620",
"{  c #A72C25",
"}  c #B32923",
"|  c #AD3B31",
" . c #BB342B",
".. c #C60B0B",
"X. c #CB0A0A",
"o. c #D60B0B",
"O. c #CC1412",
"+. c #C11815",
"@. c #D41311",
"#. c #DC1817",
"$. c #E30D0D",
"%. c #E50B0A",
"&. c #FF0D0C",
"*. c #F50D0D",
"=. c #EB100F",
"-. c #F10F10",
";. c #E31312",
":. c #EE1613",
">. c #F51212",
",. c #FD1414",
"<. c #FF1917",
"1. c #F41C1B",
"2. c #FF1D1B",
"3. c #D1211D",
"4. c #E1211E",
"5. c #FF221F",
"6. c #C92A24",
"7. c #D82A24",
"8. c #CE332C",
"9. c #D83930",
"0. c #E42F27",
"q. c #EB2B25",
"w. c #FF2422",
"e. c #FF2A26",
"r. c #F32E28",
"t. c #FE2D2A",
"y. c #F42D27",
"u. c #E4332C",
"i. c #EB342D",
"p. c #F3322B",
"a. c #FF332C",
"s. c #FF3027",
"d. c #FF3632",
"f. c #FF3A34",
"g. c #FF3D3A",
"h. c #F03C33",
"j. c #E83B32",
"k. c #FF433C",
"l. c #F6463B",
"z. c #FF4541",
"x. c #FF4B44",
"c. c #FF4D4A",
"v. c #FF5246",
"b. c #FF534B",
"n. c #FF5A4E",
"m. c #FF5653",
"M. c #FF5C53",
"N. c #FF5E59",
"B. c #FF604F",
"V. c #FF6155",
"C. c #FF645B",
"Z. c #FF6C5D",
"A. c #FF6562",
"S. c #FF6D64",
"D. c #FF6F6A",
"F. c #FF7465",
"G. c #FF746B",
"H. c #FF7A6C",
"J. c #FF7C74",
"K. c #FF7B76",
"L. c #FF8374",
"P. c #FF837A",
"I. c #FF8D7B",
"U. c #FF8872",
"Y. c #FF957E",
"T. c #FF8780",
"R. c #FF8B83",
"E. c #FF9484",
"W. c #FF9A85",
"Q. c #FF948B",
"!. c #FF9B8B",
"~. c #FF9C92",
"^. c #FFA38D",
"/. c #FFA98E",
"(. c #FFA294",
"). c #FFAA94",
"_. c #FFA798",
"`. c #FFAB9C",
"'. c #FFB59C",
"]. c #FFBA9D",
"[. c #FFB697",
"{. c #FFAFA2",
"}. c #FFB2A2",
"|. c #FFBBA4",
" X c #FFBBAB",
".X c #FFB6A8",
"XX c #FFC4A5",
"oX c #FFC4AB",
"OX c #FFCBAC",
"+X c #FFD2AD",
"@X c #FFC5B2",
"#X c #FFC9B3",
"$X c #FFD3B3",
"%X c #FFDBB5",
"&X c #FFD3BC",
"*X c #FFDBBB",
"=X c #FFE2BC",
"-X c #FFE8BE",
";X c #FFDFC4",
":X c #FFE2C2",
">X c #FFEBC4",
",X c #FFE6CA",
"<X c #FFEBC8",
"1X c #FFF4CB",
"2X c #FFFBCF",
"3X c #FFF5D3",
"4X c #FFFED4",
"5X c #FFF6D9",
"6X c #FFFDDB",
"7X c #FFFEE4",
"8X c #FFFEEA",
"9X c #FFFFF4",
"0X c #FFFFFE",
/* pixels */
"                                                                                                                                ",
"                                                                                                                                ",
"                                                                                                                                ",
"                                                                                                                                ",
"                                                                                                                                ",
"                                                                                                                                ",
"                                                                                                                                ",
"                                                                                                                                ",
"                                                                                                                                ",
"                                                                                                                                ",
"                                                            : % X . .                                                           ",
"                                                            * O X X . X X                                                       ",
"                                                    . . . . . . . X X X O X .                                                   ",
"                                            X . . . . . . . O $ . X $ @ . X . X                                                 ",
"                                            . . . . . . X X l V X $ 9 , @ . X < . #   .     .                                   ",
"                                        . . . . . @ X @ , < r y @ , 5 3 < . . . . 3 f . , @ .                                   ",
"                                      . . X 3 X . # , # 9 e A A 1 < < , < # . O @ X @ . . X . .                                 ",
"                                  . . . X 3 s . X 4 f < z S S l C k k a a j s < @ . . . . @ X .                                 ",
"                                . . . . 3 4 X # 3 4 T R E G G ( 3.` ^ Q n m m f 5 X O & X # # . . .                             ",
"                              . . . . . . @ j x U L %.<.q.0.i.j.h.a.5.,.=.;.~ I L 4 6 2 @ , , @ . X .                           ",
"                            . . . o O $ , a ~ $.X.,.<.2.a.k.b.v.k.f.s.<.5.5.&.$.X.Y ~ g @ @ # X . . X                           ",
"                        . . . . o + X O 4 c U >.<.2.w.w.g.k.n.M.v.v.f.5.5.5.,.,.>.:.&.! < , # @ . X .                           ",
"                          . . . X * . @ c / @.,.w.w.w.t.f.n.S.S.Z.F.B.a.a.s.5.5.e.<.o.~ M s < < X . X                           ",
"                          < , a X X # f O.t.t.e.d.t.g.z.b.F.L.L.Y.U.H.V.l.k.f.k.a.<.*.o.Q L 3 # # X . .                         ",
"                            2 & . @ s P a.g.k.k.k.g.z.c.C.K.E.!./.^.W.W.F.n.v.v.d.w.,.>.=.$.g # @ X X X                         ",
"                            . @ # g T ;.a.k.M.V.n.n.m.N.G.U.^.'.[.XXOX'.Y.H.Z.n.d.e.2.<.,.$.N < < @ , @                         ",
"                            . , a n *.2.d.b.M.Z.S.Z.D.G.I.Q.).|.XX+X-X*X'.I.F.M.x.f.w.5.,.,...M s # @ .                         ",
"                            3 3 a X.&.e.k.x.M.F.U.F.H.!._.XXXXOX=X-X>X-XXXE.U.S.b.b.x.e.,.,.>.Y a , @ .                         ",
"                          X s 1 4 L >.d.k.z.N.U.Y.Y./.].|.*X,X5X3X3X2X>XXX!.L.H.V.n.n.k.5.,.,.@.n 3 @ .                         ",
"                        % @ , X 4 ! 2.a.k.x.C.!.).[.XX+X>X5X8X9X9X6X4X2X%X'.).J.F.V.n.k.e.<.<.>.L 4 X . . 3   X                 ",
"                        p . + : F r.g.x.k.g.N.!.XX+X%X-X3X9X0X0X0X9X9X8X1X1X*XXX].I.Y.F.v.k.k.y.) l 5 X . a                     ",
"                          , < * F u.k.v.c.c.G.!.XX-X4X4X6X0X0X0X0X0X0X9X7X6X-X+XXX/.Y.I.H.V.n.x. .G l X . # .                   ",
"                          . X . Z i.k.v.n.H.E.).XX>X4X4X8X0X0X0X0X0X0X0X8X1X%X$XXX).Y.I.H.Z.B.v.l._ D + . . .                   ",
"                        . . . X W p.k.v.N.P.^.`.|.$X4X6X9X0X0X0X0X0X0X0X9X1X%XOX].).W.U.Z.Z.B.v.l.| K w : :                     ",
"                        . . X O l u.v.Z.F.E._.'.OXOX:X6X9X0X0X0X0X0X0X0X9X4X%XXX|.).R.F.n.n.k.k.9.] A > = O                     ",
"                        . . % t u } k.C.H.P.W._.OX%X*X5X9X0X0X0X0X0X0X0X7X6X1X*X.X'.R.C.x.k.g.y.+.v % o . o                     ",
"                      t . . + ; u ) k.k.C.G.L.T.(.XX=X3X9X0X0X0X0X0X0X0X7X6X1X=X@X`.P.A.z.t.2.:...v & X . +                     ",
"                      + . . . & l 6.a.k.m.G.P.T.~._.oX$X3X8X9X0X0X0X9X8X1X>XOXOX~.K.m.g.d.w.2.,.O.N # X @                       ",
"                      . . o . X 1 G 7.k.N.S.A.K.}.{.(.|.*X:X5X6X0X9X8X3X$XoX~.`.Q.D.c.d.t.t.,.o.I , . . X 3                     ",
"                      . . . . . O 3 W 4.g.c.m.A.P.Q.R.(. X#X1X5X7X7X6X;X@X.X`.~.~.D.z.d.t.2.1.~ s @ . . +                       ",
"                      . . . 4 X X 4 v / w.g.c.A.P.Q.~.~..X&X:X<X;X3X<X,X X}.`.Q.Q.S.c.d.5.>.;.Q 4 @ . .                         ",
"                      . . X a X . 3 M P #.e.z.C.P.R.T.~..X@X&X;X@X,X#X@X@X{.~.R.K.C.b.d.w.$.X.P 4 # . . @ @                     ",
"                      . . . < a # X a c T 1.d.c.K.K.K.T.`.oX#X@X@X@X~.}..X{.Q.J.G.b.x.k.p.@.! c , 3 . X @ #                     ",
"                        . . , s < X 3 n N ;.t.c.c.S.K.P.Q._.`..XoX_.Q.Q.~.~.E.C.x.v.x.g.p./ x , . . . @ .                       ",
"                        . . X X X 3 < 3 < n 4.d.x.m.S.S.G.P.E.`.{.Q.T.R.P.G.N.g.d.k.k.a.0.W f @ . . . . . .                     ",
"                            . . . < # X X 5 6.f.z.b.m.M.N.D.G.P.E.K.G.G.D.b.f.t.t.k.h.8.} C 3 . . . . . .                       ",
"                              . @ @ . X X r ' 6.d.k.z.z.b.N.C.D.G.C.N.b.k.g.f.t.1.r.8.] H 5 X # . . X X                         ",
"                              X . . o O O q e [ 7.u.r.f.x.v.V.M.c.k.g.k.k.a.t.4./ R E J p O @ f X . X .                         ",
"                                . . . . = q - F E r N 7.i.f.f.f.t.t.a.t.p.3.} C v v 7 = t + . X . . .                           ",
"                                . . . 5 2 + O & $ X a k G W @.Q R / } ' ' V l k 6 1 & o o o . . .                               ",
"                                      X . . . . X @ # % & , s , 1 k w i D 0 ; & . + O o . . + :                                 ",
"                                    t   . X @ . . X , @ @ @ X $ w 8 ; u r > = % . O + o .   * t                                 ",
"                                          . . @ 3 . . % X @ X X 1 8 = e > * o . . o o o X                                       ",
"                                          . .   , % * = . X X O % % o % + =   3                                                 ",
"                                            .       = + . X . X & & o . o O                                                     ",
"                                                        X       & $ .   . . .                                                   ",
"                                                      o       +                                                                 ",
"                                                                  $                                                             ",
"                                                                $ +                                                             ",
"                                                                  +                                                             ",
"                                                                                                                                ",
"                                                                                                                                ",
"                                                                                                                                ",
"                                                                                                                                "
};
