/* XPM */
static char *door421703585273[] = {
/* columns rows colors chars-per-pixel */
"64 64 201 2 ",
"   c None",
".  c #020101",
"X  c #0B0101",
"o  c #070806",
"O  c #0A0807",
"+  c #0C0C0A",
"@  c #070C0A",
"#  c #130101",
"$  c #1B0101",
"%  c #120806",
"&  c #190807",
"*  c #140D0B",
"=  c #1D0C0A",
"-  c #0F100D",
";  c #13130F",
":  c #19130F",
">  c #141511",
",  c #1A1A15",
"<  c #1A1814",
"1  c #230202",
"2  c #2B0202",
"3  c #290A07",
"4  c #250B09",
"5  c #330303",
"6  c #3C0303",
"7  c #3E0807",
"8  c #320B0A",
"9  c #3B0C0A",
"0  c #26130F",
"q  c #3A110E",
"w  c #231511",
"e  c #2A1A15",
"r  c #3A1511",
"t  c #341A15",
"y  c #1E211A",
"u  c #23231D",
"i  c #33221B",
"p  c #392921",
"a  c #2F3227",
"s  c #440303",
"d  c #4C0404",
"f  c #4D0C09",
"g  c #550505",
"h  c #5C0505",
"j  c #5D0E0C",
"k  c #47110E",
"l  c #50110E",
"z  c #471B16",
"x  c #551713",
"c  c #630505",
"v  c #680908",
"b  c #730606",
"n  c #7D0605",
"m  c #720B09",
"M  c #751411",
"N  c #751D18",
"B  c #681814",
"V  c #44221C",
"C  c #4F241D",
"Z  c #50211A",
"A  c #64231D",
"S  c #75241E",
"D  c #7B221C",
"F  c #4D2B22",
"G  c #890707",
"H  c #850D0B",
"J  c #8A0808",
"K  c #9B0C0A",
"L  c #950A09",
"P  c #8C1915",
"I  c #9C1411",
"U  c #9F1F19",
"Y  c #A50909",
"T  c #AD0909",
"R  c #A20505",
"E  c #BE0707",
"W  c #B80D0C",
"Q  c #AE110F",
"!  c #A71916",
"~  c #B71916",
"^  c #99241E",
"/  c #84231D",
"(  c #B2221C",
")  c #8C2C25",
"_  c #932B22",
"`  c #9D372E",
"'  c #81382D",
"]  c #A82A22",
"[  c #A7362C",
"{  c #B93129",
"}  c #CD0E0D",
"|  c #C30C0C",
" . c #D40C0C",
".. c #DA0D0D",
"X. c #CF100E",
"o. c #CB1412",
"O. c #D31110",
"+. c #DF1A18",
"@. c #E90D0C",
"#. c #F90D0D",
"$. c #E7120F",
"%. c #E51311",
"&. c #E81916",
"*. c #F51312",
"=. c #FE1514",
"-. c #FE1C1B",
";. c #F81916",
":. c #D4241F",
">. c #FE211E",
",. c #CA2E26",
"<. c #D42923",
"1. c #DC342D",
"2. c #EB2C26",
"3. c #E52621",
"4. c #FE2422",
"5. c #F12B25",
"6. c #FE2A25",
"7. c #FE2D2A",
"8. c #F32E28",
"9. c #E6332B",
"0. c #F2342D",
"q. c #FE322C",
"w. c #FF3026",
"e. c #EF3831",
"r. c #FF3532",
"t. c #FE3B35",
"y. c #FF3E3A",
"u. c #E9453A",
"i. c #FF433C",
"p. c #FF4541",
"a. c #FF4C44",
"s. c #FF4E4A",
"d. c #FF5245",
"f. c #FF534C",
"g. c #FF594E",
"h. c #FF5551",
"j. c #FF5C54",
"k. c #FF5E59",
"l. c #FF6155",
"z. c #FF645B",
"x. c #FF6B5D",
"c. c #FF715E",
"v. c #FF6562",
"b. c #FF6D64",
"n. c #FF6F69",
"m. c #FF7566",
"M. c #FF736A",
"N. c #FF7B6D",
"B. c #FF7867",
"V. c #FF7D74",
"C. c #FF7F79",
"Z. c #FF806D",
"A. c #FF8374",
"S. c #FF847B",
"D. c #FF8B7C",
"F. c #FF927E",
"G. c #FF8D83",
"H. c #FF9283",
"J. c #FF9B85",
"K. c #FF958A",
"L. c #FF9A8C",
"P. c #FF9D91",
"I. c #FFA48E",
"U. c #FFA495",
"Y. c #FFAC94",
"T. c #FFA698",
"R. c #FFAB9B",
"E. c #FFB296",
"W. c #FFB49C",
"Q. c #FFBC9E",
"!. c #FFAFA0",
"~. c #FFB4A3",
"^. c #FFBDA3",
"/. c #FFBAAA",
"(. c #FFC3A5",
"). c #FFC3AC",
"_. c #FFC9AB",
"`. c #FFD1AE",
"'. c #FFC5B3",
"]. c #FFCCB3",
"[. c #FFCEBA",
"{. c #FFD4B3",
"}. c #FFD9B6",
"|. c #FFD4BC",
" X c #FFDBBB",
".X c #FFE1BB",
"XX c #FFDCC3",
"oX c #FFE5C4",
"OX c #FFECC3",
"+X c #FFE4C9",
"@X c #FFEBCC",
"#X c #FFF3CB",
"$X c #FFF9CD",
"%X c #FFF0C6",
"&X c #FFF4D3",
"*X c #FFFBD4",
"=X c #FFFBDA",
"-X c #FFFEE3",
";X c #FFFEEB",
":X c #FFFFF3",
">X c #FFFFFE",
/* pixels */
"                                                                                                                                ",
"                                                                                                                                ",
"                                                                                                                                ",
"                                                                                                                                ",
"                                                                                                                                ",
"                                                                                                                                ",
"                                                                                                                                ",
"                                                                                                                                ",
"                                                                                                                                ",
"                                                                                                                                ",
"                                                            ,                                                                   ",
"                                                            u >                                                                 ",
"                                                        X o X o . . . .         X                                               ",
"                                                . . . . X # 1 # # # % # o o                                                     ",
"                                            $ X . . . . . 6 H r # 1 q 2 # X X $       .                                         ",
"                                          . . . . . . . $ 2 r t 1 3 7 6 $ # # $ $ c $ # 2 . .                                   ",
"                                      . . . . . . 1 1 X 1 8 V C 8 1 d 6 1 & # $ # $ . . X . .                                   ",
"                                    . . . s 1 # X 5 s $ t V i A N 5 g f c f 5 3 $ # X . . . .                                   ",
"                                  . . . # $ $ 1 $ s v l D S S ] :.( ~ H I Q n 6 1 # & & . . . .   X #                           ",
"                                . . . . # 5 c g g n E &.2.2.e.q.w.w.>.@.$. .R Y b 5 k 3 $ X . X X # #                           ",
"                              . . o . & 6 h W K Y @.=.4.t.t.a.a.i.w.>.=.=.;. . .T K L 7 1 $ # # # # X #                         ",
"                          . . . . X X 1 g c W *.=.-.>.>.t.i.g.j.a.i.6.>.>.=.=.*.} %.@.R 6 2 1 # # # # #                         ",
"                        . . . . X = & 5 n J %.=.4.4.7.4.y.f.x.z.z.x.d.w.6.w.>.>.6.=.#.E v s s 5 # # # #                         ",
"                          5 1 5 # $ 2 b $.;.4.4.4.4.r.y.a.b.N.A.A.A.m.j.i.i.q.q.w.=.#.} T G h 2 $ # # X X                       ",
"                          2 s g # 6 d H >.6.q.r.t.r.p.h.z.C.G.L.J.F.F.F.x.d.d.i.q.>.=.=.*.} v $ $ $ $ # X                       ",
"                          2 $ # $ 7 m  .4.t.a.g.a.a.s.h.n.D.I.W.E.E.Q.E.Z.c.x.x.r.4.-.=.=...G d 5 1 2 # #                       ",
"                        X # # # 1 G ..-.4.t.a.l.z.j.k.v.S.G.U.(._.`..X_.J.A.c.l.p.r.7.-.=.*.} H h $ X # X                       ",
"                      # # X $ 1 d T *.>.q.y.s.l.m.x.M.G.L.^.^.)..X.X%X.XQ.F.Z.z.h.s.p.4.=.-.%.K c 1 # # X                       ",
"                          X 2 f s K =.4.r.y.f.b.Z.A.F.Y.W.}.oXOX&X$XOXoX(.F.A.M.l.z.f.i.>.=.;...L 6 # # X                       ",
"                          . . # 5 ! 4.7.7.p.j.N.I.I.Q._. X=X*X-X;X-X$X#X`.Y.J.N.B.l.g.i.q.-.=.*.K 5 $ # $ s                     ",
"                          < . 0 x 9.a.p.y.p.k.D.Y.Q._.{.OX;X>X>X>X:X:X;X*X#X{.(.Q.J.F.B.j.f.i.6.( j 7 # # 6 X                   ",
"                          . 1 8 _ e.s.a.f.y.v.K.E.{..X$X=X>X>X>X>X>X>X>X-X$X}._.Q.E.J.D.B.x.l.a.,._ j # . . .                   ",
"                          . X $ M 2.i.d.f.k.A.Y.Q..X$X$X-X>X>X>X>X>X>X>X-XOX_._.(.Y.J.F.N.c.l.d.9.] Z & . .                     ",
"                        . . X 1 o.q.p.d.f.b.K.T.(.}..X*X;X>X>X>X>X>X>X>X;X$X{.(.Q.E.J.A.B.x.l.g.u.` V e u ,                     ",
"                        . . X 3 Q 2.a.j.x.A.U.R.^.).`.=X>X>X>X>X>X>X>X>X:X=X}.^.W.T.D.M.x.g.i.a.e.` t < <                       ",
"                        . X 4 i Z ,.i.g.N.S.G.U._..X X&X>X>X>X>X>X>X>X>X-X=X#XXX^.~.G.z.d.t.t.5.o.P 8 . .                       ",
"                      a o X = 0 i ` t.i.k.n.C.K.U._.@X*X;X>X>X>X>X>X>X>X;X-X=X@X'.U.V.v.p.7.7.*...H 7 X O o #                   ",
"                      + . X # 1 k { q.i.z.M.A.G.L.~.). X=X;X>X>X>X>X>X:X=X&XoX_.U.C.z.p.r.r.-.=.%.b 5 2 2 # X                   ",
"                      . . X # 2 s ^ w.t.h.n.M.n.G.!.!.~..X@X;X:X>X>X>X-XoX|.^.~.P.C.h.y.r.4.=.@.J 6 4 # 1 #                     ",
"                      . . X # # # d o.>.r.s.h.v.C.K.K.T.).|.=X=X-X:X;X-XXX|.).~.T.C.h.y.7.4.-.| g 2 # & #                       ",
"                      . . X $ # # s v  .4.r.s.v.S.K.P.!.!.XX@X=X@X&X&X@XXX'.~.T.P.C.z.p.7.4.*.Y d 2 $ % X                       ",
"                      . . X d 2 # s h n ..4.p.v.V.G.K.G.!.XX+X@X|.+XXXXXXX'.!.T.L.V.j.i.6.;.o.J d 5 X . 1 1                     ",
"                        . . 1 5 1 1 d h Y -.r.s.v.C.C.G.K./.[.XX/.[././.[.'.T.K.F.B.l.a.w.&.I j 5 $ . . X                       ",
"                        . . $ b g X 5 h b W -.r.j.n.V.S.G.P.~.'.[.~.P.!.!.T.L.z.g.j.j.i.e.! c 9 X . . . . .                     ",
"                          . # 1 1 $ 1 2 s b &.y.g.j.M.M.n.S.H.~./.R.P.P.L.V.M.a.f.f.d.i.1.D f 3 + . . . . .                     ",
"                          . X # X 2 1 . X k _ y.i.s.h.l.v.b.S.S.L.S.N.S.N.k.a.r.i.i.u.[ / l 8 = o . X X                         ",
"                          + % & X X o . . t ) <.0.i.a.a.a.l.b.M.M.n.z.x.f.i.i.q.>.,.[ ' x 3 % 8 % . X #                         ",
"                            & # . . o o @ e Z _ 9.0.7.y.i.d.f.f.a.a.s.g.i.r.q.2.! M D F i o o 1 % o .                           ",
"                              . . . . . ; y o r P M ! +.0.q.7.-.6.7.q.i.2.:.] N k k x e , . . . . . o .                         ",
"                                . . . $ 3 o . . X o 1 M P W } O.~ ! 3.{ ) D x r 8 z t * + . . . . .   o                         ",
"                                . . o = X . $ X o . 1 & & 1 d g l B z V F i , : $ 8 - @ . . < ;       o o                       ",
"                                  . > - . . X . . . . X . . . O : t w i p e , X . . - < . X                                     ",
"                                    + . . . . . 1 1 . + . . . . > w > > > > . . X . . +                                         ",
"                                        . . . . # # o - . X . o * : . . + > . 5 s                                               ",
"                                            . . . . . . X X . . 4 w o o o o .                                                   ",
"                                                    . . . . . . . o       . .                                                   ",
"                                                      o                                                                         ",
"                                                                & *                                                             ",
"                                                                  >                                                             ",
"                                                                                                                                ",
"                                                                                                                                ",
"                                                                                                                                ",
"                                                                                                                                ",
"                                                                                                                                "
};
