/* XPM */
static char *door391703585272[] = {
/* columns rows colors chars-per-pixel */
"64 64 212 2 ",
"   c None",
".  c #010100",
"X  c #0B0202",
"o  c #070806",
"O  c #0A0907",
"+  c #0C0C0A",
"@  c #130201",
"#  c #1B0202",
"$  c #140907",
"%  c #130D0B",
"&  c #1D0D0B",
"*  c #0F100D",
"=  c #13110E",
"-  c #1D120E",
";  c #151511",
":  c #161814",
">  c #1A1B15",
",  c #1C1713",
"<  c #240202",
"1  c #2B0202",
"2  c #260D0B",
"3  c #350202",
"4  c #3A0202",
"5  c #340B09",
"6  c #3E0C0A",
"7  c #390807",
"8  c #22110E",
"9  c #36110E",
"0  c #231A15",
"q  c #2A1B16",
"w  c #221713",
"e  c #321411",
"r  c #391D18",
"t  c #23221B",
"y  c #29241C",
"u  c #39221C",
"i  c #2D2B22",
"p  c #430303",
"a  c #4B0403",
"s  c #450807",
"d  c #530404",
"f  c #5C0505",
"g  c #510906",
"h  c #580A08",
"j  c #4B110E",
"k  c #43130F",
"l  c #57110E",
"z  c #421E18",
"x  c #471A15",
"c  c #581B17",
"v  c #630505",
"b  c #670807",
"n  c #720606",
"m  c #7C0606",
"M  c #7B0B08",
"N  c #621B16",
"B  c #47211B",
"V  c #54221C",
"C  c #5A241D",
"Z  c #61201B",
"A  c #78241D",
"S  c #572A22",
"D  c #543128",
"F  c #71332A",
"G  c #840706",
"H  c #8A0808",
"J  c #880807",
"K  c #920707",
"L  c #9A0B0A",
"P  c #9E0707",
"I  c #8E1510",
"U  c #AD0A0A",
"Y  c #A70A09",
"T  c #B40B0A",
"R  c #BC0B0B",
"E  c #B71714",
"W  c #A71F1B",
"Q  c #8B231E",
"!  c #9B231E",
"~  c #B9231E",
"^  c #8D2822",
"/  c #923028",
"(  c #BA2C25",
")  c #BC2620",
"_  c #A9342B",
"`  c #AC3C32",
"'  c #C40B0B",
"]  c #CC0C0B",
"[  c #D40C0B",
"{  c #DB0C0B",
"}  c #CC1C19",
"|  c #D81715",
" . c #D6140E",
".. c #E60E0E",
"X. c #F60F0F",
"o. c #F0110F",
"O. c #E61514",
"+. c #F41312",
"@. c #FE1414",
"#. c #FF1A16",
"$. c #FF1C1B",
"%. c #F11A19",
"&. c #EA110E",
"*. c #D3211E",
"=. c #CC221D",
"-. c #FE211C",
";. c #FF1F20",
":. c #CB2B24",
">. c #DC2F27",
",. c #D42A23",
"<. c #DB3229",
"1. c #CD3B31",
"2. c #E62D26",
"3. c #FF2423",
"4. c #FF2A25",
"5. c #FE2D2A",
"6. c #F02F29",
"7. c #FE332D",
"8. c #F8352D",
"9. c #FF3532",
"0. c #FE3A34",
"q. c #FF3D39",
"w. c #F13C33",
"e. c #EC3830",
"r. c #E84A3E",
"t. c #FF4337",
"y. c #FE423B",
"u. c #FF483E",
"i. c #F04239",
"p. c #EF4D41",
"a. c #FF4441",
"s. c #FF4B44",
"d. c #FF4E4A",
"f. c #FF5146",
"g. c #FF534B",
"h. c #FF5A4E",
"j. c #FF5C53",
"k. c #FF5F5B",
"l. c #FF6255",
"z. c #FF6A56",
"x. c #FF635B",
"c. c #FF6A5D",
"v. c #FF735D",
"b. c #FF6B63",
"n. c #FF6760",
"m. c #FF7265",
"M. c #FF756B",
"N. c #FF7A6C",
"B. c #FF7E67",
"V. c #FF7B73",
"C. c #FF836C",
"Z. c #FF8C6E",
"A. c #FF8273",
"S. c #FF837A",
"D. c #FF897C",
"F. c #FF8875",
"G. c #FF927D",
"H. c #FF9377",
"J. c #FF8E82",
"K. c #FF9384",
"L. c #FF9A85",
"P. c #FF958A",
"I. c #FF9C8D",
"U. c #FF9E92",
"Y. c #FFA384",
"T. c #FFA18C",
"R. c #FFAF8F",
"E. c #FFA394",
"W. c #FFAC95",
"Q. c #FFAB9C",
"!. c #FFA59A",
"~. c #FFB496",
"^. c #FFB59C",
"/. c #FFBE9F",
"(. c #FFAFA0",
"). c #FFB5A2",
"_. c #FFBDA3",
"`. c #FFBAA8",
"'. c #FFCA9E",
"]. c #FFC29F",
"[. c #FFC4A2",
"{. c #FFCAA6",
"}. c #FFC3AB",
"|. c #FFCEAD",
" X c #FFD3AC",
".X c #FFDCAB",
"XX c #FFCCB4",
"oX c #FFCEB9",
"OX c #FFC4B1",
"+X c #FFD3B2",
"@X c #FFD4BC",
"#X c #FFDCBB",
"$X c #FFDBB2",
"%X c #FFE8B7",
"&X c #FFF2BD",
"*X c #FFDCC3",
"=X c #FFD6C1",
"-X c #FFE5C3",
";X c #FFEAC3",
":X c #FFE6CC",
">X c #FFEBCA",
",X c #FFF5CD",
"<X c #FFF9CF",
"1X c #FFE8D1",
"2X c #FFF5D6",
"3X c #FFF3DB",
"4X c #FFFADB",
"5X c #FFF8D2",
"6X c #FFFEE3",
"7X c #FFFEEC",
"8X c #FFFFF3",
"9X c #FFFFFE",
/* pixels */
"                                                                                                                                ",
"                                                                                                                                ",
"                                                                                                                                ",
"                                                                                                                                ",
"                                                                                                                                ",
"                                                                                                                                ",
"                                                                                                                                ",
"                                                                                                                                ",
"                                                                                                                                ",
"                                                                                                                                ",
"                                                                    X                                                           ",
"                                                                              X                                                 ",
"                                                            i : o           # # .                                               ",
"                                                      . . . = o . . . . .       . .                                             ",
"                                                  . . . # 1 . . . . X @ . . . # @ . @   .                                       ",
"                                            . X . . @ . < 1 O O . o X # . . X 4 f . 4 1 .                                       ",
"                                      @ # @ < < < < 1 1 @ X 5 y + $ < @ @ @ X # @ . . X . .                                     ",
"                                      X # < < 1 3 1 < < 1 a ~ A l K d d a 3 4 4 < X . . . .                                     ",
"                                    . . # 4 4 3 4 3 4 1 e V <.>.} { T T L M m v f 4 @ . . . .                                   ",
"                                  . . @ 4 3 4 4 4 d b T ,.>.8.7.4.$.@.@.&.{ [ K m v a # X . . .                                 ",
"                                  . . # p v 4 f Y U O.;.7.0.0.0.4.-.-.@.@.@.o.' R L M g < @ . . .                               ",
"                                . . X # d Y G ' X.@.@.4.q.t.t.y.0.4.4.$.#.$.#.@.@. .K n 1 < < . . .                             ",
"                            . . . . 1 4 g T [ ] ..#.$.3.u.f.h.l.j.y.7.7.7.3.-.-.#.@.] J K n a . X X                             ",
"                        . . . . X 1 h G U { { X.$.5.5.9.g.c.b.m.c.c.g.u.t.0.7.7.-.$.@.+.{ n a < @ X .                           ",
"                            X @ 3 3 m ] ..o.-.-.4.5.9.a.j.M.S.A.C.A.C.z.h.f.f.t.9.3.$.#...G s 5 5 # o                           ",
"                          d b d 4 p G { +.-.4.7.y.a.d.j.n.S.K.L.Y.Y.Y.Z.v.z.z.h.a.5.3.3.;.| A x N 9 o # o                       ",
"                            4 3 3 J ' X.@.-.7.y.j.x.k.k.V.D.I.W.~.'.'.Y.C.B.B.l.d.a.0.5.9.5.) C V r % + O                       ",
"                            < 3 a P @.$.#.3.0.s.j.m.M.M.K.I.E.~.[..X{.R.G.H.F.N.M.b.g.d.y.9.2.! C r > > ; 1                     ",
"                          # 1 d d R @.#.;.9.u.d.z.N.B.D.W./.{./..X.X X{.~.Y.K.D.D.V.n.g.s.y.5.! c q : - 7                       ",
"                          < 4 4 G &.#.$.;.9.d.j.m.A.G.L.[. X&X&X%X%X$X$X XW.W.L.G.K.M.j.s.y.5.=.c 2 O # @ . X                   ",
"                        6 k s a T $.4.9.4.9.a.k.N.I.~.~.$X<X6X7X4X7X4X4X,X-X+X/.[._.K.N.N.z.u.6.I 4 1 < . X $                   ",
"                        4 3 1 d  .5.9.q.q.a.d.b.D.~.[. X>X8X9X9X9X9X9X8X6X;X#X|.}.}.).T.K.N.g.y.,.b 3 @ . X X                   ",
"                          X $ p U $.7.0.y.a.k.M.I.).|.%X,X8X9X9X9X9X9X9X7X>X#X+XXX}.).W.L.B.g.t.<.c 1 . . .                     ",
"                          . X 4 Y @.5.y.y.d.b.J.E.Q.{.&X6X9X9X9X9X9X9X9X8X2X*XXXXX`.).E.A.c.h.s._ C B 0 o O y                   ",
"                        o . X 4 ] 3.0.g.d.j.M.U.Q.Q._.2X8X9X9X9X9X9X9X9X9X7X3X@XoX(.U.J.j.d.f.s.1.N B o . @ <                   ",
"                        O o . 7 =.6.q.d.g.x.M.P.E.).+X4X8X9X9X9X9X9X9X9X9X8X7X:X`.U.S.V.g.q.5.3. .f O . . .                     ",
"                        t > . . j E 0.y.a.d.M.J.K.).:X2X7X9X9X9X9X9X9X9X9X8X7X-X).U.V.k.q.9.3.%.J p @ + . . . .                 ",
"                        o . . . 3 U 9.y.y.d.M.S.P.(.@X-X4X8X9X9X9X9X9X9X8X7X4X#X!.J.V.j.q.4.3.O.a X 1 # . . .                   ",
"                        . . # # 1 ] $.0.q.g.b.J.I.Q.+XXX#X6X8X9X9X9X9X9X8X4X*XXX(.V.M.b.q.;.$.M X X X $ . .                     ",
"                        . . X # 4 m O.$.5.9.d.b.V.U.Q.^.}.-X6X8X9X9X9X9X7X2X*XoX(.U.V.d.d.5.@.f . X . . X X                     ",
"                        . . . . X g L %.3.5.d.b.V.P.U.(.`.:X4X6X6X6X8X8X7X3X=XoX`.U.S.j.s.9.E 1 X X X . 1 #                     ",
"                          . . @ . < v R O.4.q.j.M.V.U.(.Q.XX-X:X-X:X:X7X8X3XoX).).K.M.j.u.2.c $ X @ @ . . .                     ",
"                          . . 4 @ < p n Y %.q.d.n.V.P.U.E.`.XXoXoX1X*X1X:X=X`.E.Q.K.m.g.t.W r , X X X . . .                     ",
"                          . . @ 1 # 1 p m R 5.d.m.V.S.K.P.E.U.Q.`.oXoXoX`.U.K.K.I.F.c.u.2.Q r 0 X . . . .                       ",
"                          . . . d 3 1 a 7 h *.d.c.m.M.V.V.V.K.P.!.).Q.Q.P.K.S.c.m.z.h.r.Q C q , # . # @ .                       ",
"                            . X X . # 1 5 e ^ a.f.x.k.x.n.k.V.S.D.J.D.J.A.b.l.s.g.s.p.` k q 0 k a . @ X                         ",
"                              X # . & 2 8 B S _ i.s.d.q.q.d.d.x.x.x.n.V.b.g.g.y.6.:./ F % % - 0 & . . .                         ",
"                                . . + ; * u D c W } 5.;.5.9.5.9.a.d.j.m.h.t.q.w.( Q S i $ X . + o . X .                         ",
"                                . . * + + w e j h ' ' +.3.3.3.3.0.y.h.j.s.<.,.( A S u - # o . . . . *                           ",
"                                  + ; + + 2 # $ # n a v E ' +.+.2.2.e.p.1.` A j j q q o . = ; .     ; >                         ",
"                                  . . : + 3 X . . X . # s f L Y :.( ^ ` / B 9 @ . + > + . # =                                   ",
"                              + +   . o . . . . . . . X X @ @ 6 C z e u u + X o X # X o . o                                     ",
"                                O       . . . . . < 4 # # X . . - 0 . . : o . < @ 4 @ .                                         ",
"                                            . . . X # . . X . . o = . . . . . @ @ #     t                                       ",
"                                              . . . . + . . . . . . . . . o . . .                                               ",
"                                                  . . . . . . . . o . . X t ;                                                   ",
"                                                    * . . . . . + > . O % ;                                                     ",
"                                                            . O * :                                                             ",
"                                                                                                                                ",
"                                                                                                                                ",
"                                                                                                                                ",
"                                                                                                                                ",
"                                                                                                                                ",
"                                                                                                                                "
};
