/* XPM */
static char *door141703585269[] = {
/* columns rows colors chars-per-pixel */
"64 64 203 2 ",
"   c None",
".  c #010100",
"X  c #0D0101",
"o  c #070807",
"O  c #0A0807",
"+  c #0C0C0A",
"@  c #130101",
"#  c #1B0101",
"$  c #130807",
"%  c #1D0C0A",
"&  c #170B09",
"*  c #0F100D",
"=  c #12120E",
"-  c #151611",
";  c #1D1410",
":  c #181A14",
">  c #1C1E18",
",  c #240202",
"<  c #2B0202",
"1  c #230E0B",
"2  c #2C0B09",
"3  c #270807",
"4  c #330202",
"5  c #3C0303",
"6  c #350B09",
"7  c #3F0908",
"8  c #261410",
"9  c #2A1612",
"0  c #271C16",
"q  c #3D1A15",
"w  c #361A15",
"e  c #1F201A",
"r  c #22231C",
"t  c #2B221B",
"y  c #262720",
"u  c #430404",
"i  c #4C0404",
"p  c #4E0907",
"a  c #550505",
"s  c #5C0303",
"d  c #560A09",
"f  c #4E120F",
"g  c #461713",
"h  c #571915",
"j  c #640505",
"k  c #6A0505",
"l  c #660A08",
"z  c #7B0606",
"x  c #7A0909",
"c  c #7D100C",
"v  c #621814",
"b  c #781813",
"n  c #40201A",
"m  c #7F261E",
"M  c #5D2D25",
"N  c #423127",
"B  c #722D25",
"V  c #773B31",
"C  c #564032",
"Z  c #860909",
"A  c #8E0A0A",
"S  c #830404",
"D  c #930B0A",
"F  c #9B0908",
"G  c #970708",
"H  c #97100E",
"J  c #9F1411",
"K  c #A30A09",
"L  c #AC0B0B",
"P  c #AB0101",
"I  c #B40B0B",
"U  c #BB0A0A",
"Y  c #BB0404",
"T  c #AA110E",
"R  c #BA100F",
"E  c #A71513",
"W  c #B91815",
"Q  c #93231C",
"!  c #AF221D",
"~  c #842821",
"^  c #972B23",
"/  c #883F34",
"(  c #93392E",
")  c #A63229",
"_  c #C50C0C",
"`  c #CA0B0B",
"'  c #D40C0C",
"]  c #DA0D0D",
"[  c #C51A17",
"{  c #D61B1A",
"}  c #D61916",
"|  c #E20E0E",
" . c #F70A09",
".. c #E31111",
"X. c #EB1313",
"o. c #EB1E1B",
"O. c #F51312",
"+. c #FE1414",
"@. c #FF1C1C",
"#. c #F91B19",
"$. c #C4231E",
"%. c #DE251F",
"&. c #EB211E",
"*. c #FA211E",
"=. c #CB2C24",
"-. c #C72923",
";. c #D63027",
":. c #E92A25",
">. c #F32522",
",. c #FF2323",
"<. c #FE2A26",
"1. c #FF2C2A",
"2. c #E5342C",
"3. c #F4332A",
"4. c #FD332C",
"5. c #FF3432",
"6. c #FF3B34",
"7. c #FF3C3B",
"8. c #F63730",
"9. c #944337",
"0. c #A54135",
"q. c #B54437",
"w. c #D94438",
"e. c #E6493C",
"r. c #FF443C",
"t. c #FF443B",
"y. c #B75345",
"u. c #D15143",
"i. c #FF4542",
"p. c #FF4B44",
"a. c #FF4C4B",
"s. c #FF5447",
"d. c #FF544B",
"f. c #FF5B4D",
"g. c #FF5453",
"h. c #FF5C53",
"j. c #FF5C5B",
"k. c #EA4D41",
"l. c #FF6455",
"z. c #FF625C",
"x. c #FF6B5C",
"c. c #FF6562",
"v. c #FF6B64",
"b. c #FF6E6A",
"n. c #FF7564",
"m. c #FF756B",
"M. c #FF7B6C",
"N. c #FF7671",
"B. c #FF7B74",
"V. c #FF7D78",
"C. c #FF816E",
"Z. c #FF8473",
"A. c #FF837B",
"S. c #FF8B7C",
"D. c #FF8975",
"F. c #FF927F",
"G. c #FF8780",
"H. c #FF8C82",
"J. c #FF9485",
"K. c #FF9689",
"L. c #FF9C8B",
"P. c #FF9B86",
"I. c #FF9E93",
"U. c #FFA08E",
"Y. c #FFA392",
"T. c #FFAB95",
"R. c #FFAC9A",
"E. c #FFA698",
"W. c #FFB197",
"Q. c #FFB29B",
"!. c #FFB99E",
"~. c #FFB4A2",
"^. c #FFBBA3",
"/. c #FFBCA9",
"(. c #FFC4A4",
"). c #FFC4AC",
"_. c #FFCAAA",
"`. c #FFC8A7",
"'. c #FFD3AB",
"]. c #FFDDAD",
"[. c #FFCCB3",
"{. c #FFCCB8",
"}. c #FFD4B4",
"|. c #FFDAB3",
" X c #FFDBBD",
".X c #FFD6BA",
"XX c #FFE4BB",
"oX c #FFEBBE",
"OX c #FFDFC2",
"+X c #FFE3C3",
"@X c #FFEBC5",
"#X c #FFECCB",
"$X c #FFF0C9",
"%X c #FFF7C9",
"&X c #FFEDD2",
"*X c #FFF6D3",
"=X c #FFFCD5",
"-X c #FFFBDE",
";X c #FFF5DB",
":X c #FFFDE3",
">X c #FFFEEC",
",X c #FFFFF3",
"<X c #FFFFFE",
/* pixels */
"                                                                                                                                ",
"                                                                                                                                ",
"                                                                                                                                ",
"                                                                                                                                ",
"                                                                                                                                ",
"                                                                                                                                ",
"                                                                                                                                ",
"                                                                                                                                ",
"                                                                                                                                ",
"                                                                                                                                ",
"                                                                  X X                                                           ",
"                                                                    X @ X @                                                     ",
"                                                              .     X X # , # #                                                 ",
"                                                    5 # @ @ @ X . # @ X @ 5 , , X                                               ",
"                                                  X @ X X @ @ @ # u 4 # X u 4 # @ X                                             ",
"                                                  . . # # X X @ , 4 # # @ X X . X X @                                           ",
"                                                5 s < @ # , , @ # 5 @ # X X X . . X X X     .                                   ",
"                                          . X # S  .P u a z j k D U z u < i 4 . . . # 6     : *                                 ",
"                                          < , @ 4 U z x U ] _ X.+.+.+...I ] K s 5 X # < X . * .                                 ",
"                                      X < , # i d U ` ] +.@.,.@.,.,.@.@.@.+.O.| G 5 , # # X . . .   @                           ",
"                                    X @ < # i K I X.+.@.,.,.,.,.<.<.,.<.<.@.+.@.*.[ H b g @ . . # i @                           ",
"                                  X @ , < j ` | @.@.,.@.,.,.,.1.1.1.5.5.5.1.i.t.6.6.3.=.g , # X < 5 %                           ",
"                              . X @ # 7 k ] +.+.,.@.,.,.,.1.1.7.i.i.i.7.6.7.h.s.t.t.t.e.^ q 3 , 4 X @                           ",
"                              X # , , i '  .+.+.@.,.,.1.7.i.i.a.g.g.g.g.j.z.v.l.l.l.x.f.2.~ v q 8 X @ X                         ",
"                            . . , a a j ] +.@.*.,.<.1.7.a.g.j.g.j.b.c.v.V.V.B.M.M.x.f.s.6.;.) M 3 @ X O                         ",
"                            . X < i j F +.@.<.1.4.5.7.g.j.b.N.b.N.N.B.H.J.J.P.T.S.h.h.s.l.h.y.9.q 1 @ &                         ",
"                          . # 4 i s K X.+.@.<.5.7.i.g.c.b.V.B.V.V.V.K.Y.^.Q.T.Q.Y.S.m.M.M.n.u.9.V M q 8     r y                 ",
"                        . . X p G G | +.+.*.1.7.a.j.b.B.B.V.B.B.V.I.R.(.XX|.}..X.X^.J.n.l.s.w.0.9.V B w *   =                   ",
"                        . . X 5 A U O.+.@.*.7.i.g.c.B.A.G.G.A.A.T.(.].oX$X*X-X-X*X X).P.C.l.k.) ( B q $ . . X                   ",
"                      . . . @ p D U | +.@.<.7.d.z.N.G.G.J.Y.T.`.'.#X*X>X>X,X>X>X:X+X XQ.C.l.t.w.~ g 3 O o . .                   ",
"                    . . < # 3 D F L O.@.@.1.7.g.b.m.A.L.Q.'.].$X:X>X<X<X<X<X,X>X:X#X.XY.n.r.4.2.Q p # + . . .                   ",
"                    . . , 5 # Z ` | +.*.1.6.i.z.m.V.T._.XX=X-X,X<X<X<X<X<X<X<X:X;X&X_.W.D.f.t.o.W k < . , 4 X                   ",
"                    . . . @ 8 c  .+.*.4.6.r.z.z.M.J.`.#X=X>X<X<X<X<X<X<X<X<X<X>X&X{.R.L.m.p.1.X.T l 4 X # X .                   ",
"                  . . . . . , Z Y _ O.4.t.f.x.M.B.T.'.=X:X<X<X<X<X<X<X<X<X<X<X,X&X).E.m.d.1.@.] _ D 6 . . . .                   ",
"                  . . . . . 7 A F T #.4.f.n.Z.S.P._.XX:X<X<X<X<X<X<X<X<X<X<X>X-X+X).Y.b.p.1.*...] R u . . . . .                 ",
"                    . . . + 3 l T W <.t.s.x.M.F.W.|.*X,X<X<X<X<X<X<X<X<X<X<X>X&X).U.J.B.j.t.>.} U l < X . . . .                 ",
"                    . . . o $ p J R *.<.t.h.M.J.!.XX-X,X<X<X<X<X<X<X<X<X<X>X*X).~.Y.K.N.f.t.8.} K 4 . . . . . .                 ",
"                      . . . . a K ` +.*.4.s.x.S.^.@X=X:X>X<X<X<X<X<X>X;X;X&X@X).R.R.P.Z.f.t.3.&.K 4 . . . . . .                 ",
"                      . . . X d I L | +.4.r.l.S.^.XX@X%X=X:X>X,X>X;X&X&XOXOXOX[.R.K.J.D.s.6.t.%.Z u # . . . . .                 ",
"                        . . # d A Y O.*.6.p.p.Z.!.|.|.$X%X=X=X#XOX[.[.{./.[..X X).L.m.j.r.6.8.$.f $ . . . . . .                 ",
"                          . . # 4 F _ &.4.p.l.D.W._.|.XXoX XOX).R.E.~./.^.).^./.^.H.v.p.6.4.;.^ 0 + . . . . . .                 ",
"                          . # , # i T $.4.t.h.M.P.(._.`.(.!._.E.V.G.I.~./.~.~.Q.E.S.g.6.1.&.! m % . . : - . . .                 ",
"                            u z @ # ~ ;.4.6.s.v.S.Y.W.Y.Y.Q.Y.N.N.V.G.I.K.H.Y.L.S.M.d.1.&.W h w @ X . o + . .                   ",
"                            # i # X g H [ 2.r.M.C.B.S.J.G.V.m.c.B.N.B.N.b.m.S.Z.B.l.r.>.E h 8 w % X . . . . .                   ",
"                            = 0 X . @ # d $.t.l.l.M.C.m.c.c.v.c.c.c.c.c.c.g.j.x.l.p.t.{ b v 9 9 1 , . . . . .                   ",
"                            & w $ X , X 9 ~ w.s.l.l.x.v.a.a.g.g.j.g.a.a.g.a.d.a.p.3.$.b q w 9 ; o . . . . .                     ",
"                              $ % X $ = t N 9.e.f.s.i.7.7.7.a.a.a.i.i.i.7.5.5.6.t.2.v 1 % 1 ; e - . . . .                       ",
"                                . . + r y y C 9.q.^ -.<.<.5.7.7.7.7.7.5.<.,.#.[ $.~ q 0 % # * + - . . .                         ",
"                                  . + = - 0 0 g q o < D A K { { ,.>.>.>.W ..D 6 2 9 ; = + . . . . . o .                         ",
"                                    . . . . X X X . . # # < i a L c E J 3 a u X O = * * + . . . .   + =                         ",
"                                  o + = . . , , 5 # # @ X @ X 5 p 2 d % X X < X o + = > + . X                                   ",
"                                e + - r . . @ X u , @ X , # X # $ $ $ + . X 5 @ . . + : +                                       ",
"                                        . . . . . , , @ u 5 X @ O o o o . + . . . . + +                                         ",
"                                          . . . . X X X @ # X @ O % O o . . . # # .                                             ",
"                                            . X . . . . . X X X X 2 X . . . . , X         +                                     ",
"                                              . . . . . . . . X O o . . X # .   .         =                                     ",
"                                                . . . . . . . . . . . .       o                                                 ",
"                                                      . . . . . .                                                               ",
"                                                                . o                                                             ",
"                                                                o o                                                             ",
"                                                                                                                                ",
"                                                                                                                                ",
"                                                                                                                                ",
"                                                                                                                                "
};
