/* XPM */
static char *door581703585275[] = {
/* columns rows colors chars-per-pixel */
"64 64 213 2 ",
"   c None",
".  c #020101",
"X  c #0B0201",
"o  c #070806",
"O  c #0A0806",
"+  c #0B0C09",
"@  c #130101",
"#  c #1B0202",
"$  c #120907",
"%  c #110D0A",
"&  c #1D0B09",
"*  c #1B0807",
"=  c #0E100D",
"-  c #13110E",
";  c #141511",
":  c #1B1612",
">  c #1B1915",
",  c #230302",
"<  c #2C0202",
"1  c #230806",
"2  c #240D0B",
"3  c #2D0C0A",
"4  c #330403",
"5  c #3B0403",
"6  c #370C09",
"7  c #28110E",
"8  c #3D110D",
"9  c #35100D",
"0  c #231612",
"q  c #2A1611",
"w  c #241C17",
"e  c #3A1C16",
"r  c #341915",
"t  c #1F211B",
"y  c #33231C",
"u  c #3E251D",
"i  c #2B261F",
"p  c #312D23",
"a  c #430404",
"s  c #4A0505",
"d  c #430807",
"f  c #4E0807",
"g  c #470D0B",
"h  c #540404",
"j  c #5B0404",
"k  c #5F0E09",
"l  c #47110E",
"z  c #50100D",
"x  c #4A1B16",
"c  c #5C1512",
"v  c #561A15",
"b  c #630505",
"n  c #6B0404",
"m  c #6D0A09",
"M  c #750505",
"N  c #7A0404",
"B  c #740B0A",
"V  c #790808",
"C  c #681915",
"Z  c #781814",
"A  c #64120F",
"S  c #5C231D",
"D  c #6F201A",
"F  c #4B2B23",
"G  c #582820",
"H  c #762B23",
"J  c #633229",
"K  c #830A09",
"L  c #8A0404",
"P  c #930A09",
"I  c #9B0D0C",
"U  c #8F100D",
"Y  c #841D18",
"T  c #9A1E18",
"R  c #97130F",
"E  c #A20A09",
"W  c #AB0C0C",
"Q  c #AA0000",
"!  c #B40A0A",
"~  c #BC0505",
"^  c #AB1916",
"/  c #B91412",
"(  c #9E231E",
")  c #B1231E",
"_  c #A6221D",
"`  c #9E2A23",
"'  c #8C3229",
"]  c #AD3128",
"[  c #C20C0C",
"{  c #C70202",
"}  c #DC0E0E",
"|  c #DB0707",
" . c #C0100F",
".. c #C51614",
"X. c #DA1211",
"o. c #E30E0E",
"O. c #F30000",
"+. c #F00E0E",
"@. c #E2100E",
"#. c #E21212",
"$. c #ED1413",
"%. c #E91D1A",
"&. c #F31514",
"*. c #FD1414",
"=. c #FF1A17",
"-. c #FE1C1B",
";. c #F31B1A",
":. c #DE241E",
">. c #C2201B",
",. c #E3211D",
"<. c #FE211E",
"1. c #CC2B24",
"2. c #C42D26",
"3. c #CD322A",
"4. c #DA3029",
"5. c #D4362D",
"6. c #D52620",
"7. c #EC2E28",
"8. c #E42924",
"9. c #FE2422",
"0. c #FF2A25",
"q. c #FE2D2A",
"w. c #F42C27",
"e. c #EE342C",
"r. c #FF332D",
"t. c #FF3431",
"y. c #FF3B34",
"u. c #FF3E39",
"i. c #F33E32",
"p. c #E93930",
"a. c #FF433C",
"s. c #FF493F",
"d. c #DE4E41",
"f. c #FF4641",
"g. c #FF4B44",
"h. c #FF4C49",
"j. c #FF5246",
"k. c #FF544C",
"l. c #FF5A4D",
"z. c #F75145",
"x. c #FF5651",
"c. c #FF5D54",
"v. c #FF5D5A",
"b. c #FF6357",
"n. c #FF645C",
"m. c #FF6A5D",
"M. c #FF6560",
"N. c #FF6B63",
"B. c #FF6F68",
"V. c #FF7265",
"C. c #FF736A",
"Z. c #FF7B6C",
"A. c #FF7964",
"S. c #FF7C72",
"D. c #FF7F7A",
"F. c #FF7570",
"G. c #FF8474",
"H. c #FF847B",
"J. c #FF8C7B",
"K. c #FF8876",
"L. c #FF917D",
"P. c #FF8D82",
"I. c #FF9384",
"U. c #FF9B85",
"Y. c #FF9389",
"T. c #FF9A8C",
"R. c #FF9D91",
"E. c #FFA28B",
"W. c #FFA387",
"Q. c #FFA493",
"!. c #FFAB94",
"~. c #FFA699",
"^. c #FFAC9C",
"/. c #FFB39C",
"(. c #FFBC9C",
"). c #FFB296",
"_. c #FFACA0",
"`. c #FFB3A4",
"'. c #FFBBA3",
"]. c #FFBCAC",
"[. c #FFB7AA",
"{. c #FFBFB0",
"}. c #FFC39E",
"|. c #FFC3AC",
" X c #FFCBAC",
".X c #FFC3A3",
"XX c #FFD6AC",
"oX c #FFD9AF",
"OX c #FFCAB5",
"+X c #FFC9B6",
"@X c #FFD4B3",
"#X c #FFD4BC",
"$X c #FFDBBB",
"%X c #FFDDB3",
"&X c #FFE3BD",
"*X c #FFE7B9",
"=X c #FFDBC2",
"-X c #FFE2C3",
";X c #FFEAC3",
":X c #FFE4C9",
">X c #FFEACD",
",X c #FFF5CD",
"<X c #FFF9CD",
"1X c #FFF0C7",
"2X c #FFF2D4",
"3X c #FFFCD4",
"4X c #FFF5D9",
"5X c #FFFDDC",
"6X c #FFF7E3",
"7X c #FFFEE3",
"8X c #FFFEEC",
"9X c #FFFFF3",
"0X c #FFFFFE",
/* pixels */
"                                                                                                                                ",
"                                                                                                                                ",
"                                                                                                                                ",
"                                                                                                                                ",
"                                                                                                                                ",
"                                                                                                                                ",
"                                                                                                                                ",
"                                                                                                                                ",
"                                                                                                                                ",
"                                                                                                                                ",
"                                                                                                                                ",
"                                                  . X   Q N                                                                     ",
"                                                  @ X X | O.4 . . O i + o X       .                                             ",
"                                              . . X . X j n @ X . o + . X X o +   . X X       o                                 ",
"                                      O . . o . . . . . X # , 5 @ X . . N ~ 8 2 @ , ~ L { O.8 =                                 ",
"                                    . O . X . . . X X X , 4 3 1 < # & & U } z 4 s < { N n E 0 X                                 ",
"                                      . . X . . X < # 5 a 5 f g h v G v 9 g 7 1 @ . @ @ X O . . X                               ",
"                                      @ . X X . @ 4 5 b m V [ Y ) 3.] T A c 9 , * 2 & % ; o X . . . X   o                       ",
"                                      X @ X # < h j j m I / w.p.e.a.a.w.%.^ A Z C r : > > o . X X . X .                         ",
"                                    O $ , , s n h V E X.&.-.y.h.s.j.b.a.9.9.,.7.] H u i - X . X @ X . . .                       ",
"                              F   . ; t 2 Z B ! [ #.-.q.9.t.l.v.c.b.b.g.t.u.f.a.u.e.` y O X @ X X . . . .                       ",
"                              $ . O + r S ( [ &.-.9.t.t.f.h.V.F.S.S.N.x.x.b.N.x.g.u.7.C < @ X X . X . . . .                     ",
"                              . . > p J ` 4.q.<.-.t.u.f.v.N.P.Y.Y.P.S.M.M.S.S.V.v.h.i...[ a . X X X X . . .                     ",
"                                X $ H d.z.g.a.q.t.f.h.v.M.P.R.R._.^.T.R.P.H.S.V.n.h.h.0.X.f & o # # . . . . +                   ",
"                              X X X ' j.l.l.j.g.u.v.H.H.D.P.R.~._.^.^.`.~.P.I.S.M.h.f.q.7...C r & X . X . + -                   ",
"                              @ @ d 3.g.b.b.n.C.S.R.[.`._.R._.[.`.`.|.+X^.T.T.H.N.c.f.f.g.u.` x r & ; 2 . . .                   ",
"                            X # f P w.s.c.m.C.P.R.`.].{.+X+X#X=X].OX=X$X|.^.~.J.H.V.c.c.g.f.1.C e > ; o . . .                   ",
"                          h , @ a I 9.y.k.m.H.T._.[.{.+X+X>X2X=XOX-X;X;X@X X X'.!.G.B.c.h.a.y.1.Z q X . o . .                   ",
"                        o @ @ , M X.-.u.g.N.H.R.`.{.].+X#X2X5X7X3X2X<X<X<X*X%XXX(.G.b.b.k.y.y.2.Z l O < < . .                   ",
"                        + X X # K $.9.q.t.b.F.R.[.#X=X=X-X6X8X8X9X8X8X5X5X3X;X@X.XI.G.A.c.j.a.8.Y v 7 f X . .                   ",
"                      2 0 O X 3 ) 0.a.c.y.h.v.Y.+X=X>X>X6X0X0X0X0X0X0X0X0X7X5X<X&X(.).!.J.V.l.t.:.Z q O . . .                   ",
"                    . # X X < m ^ t.a.l.c.M.S.Y.OX:X4X7X0X0X0X0X0X0X0X0X0X8X5X;X$X X'.!.L.m.l.g.2.C r % + O . o =               ",
"                    X   . . 2 j I w.a.k.x.F.Y.Y.OX:X7X8X0X0X0X0X0X0X0X0X0X8X2X$X@X].^.T.K.V.b.s.5.Y x 0 ; + . .                 ",
"                        . . * j  .r.a.g.x.F.Y.R.].OX:X8X0X0X0X0X0X0X0X0X0X8X$X$X@X|.Q.G.Z.V.l.a.3.' F q - ; O .                 ",
"                        . . # h W q.g.n.n.S.H.T.^.^. X1X7X0X0X0X0X0X0X0X9X8X2X@X|.^.P.V.m.n.g.i.:._ l X . X X                   ",
"                        o o X 5 ( q.y.j.N.S.H.R.^./. X&X7X0X0X0X0X0X0X0X9X5X<X X!.Y.S.n.k.f.r.,.W M 6 X @ . +                   ",
"                      X ; ; X @ ^ <.y.y.f.v.C.H.P.T.|.&X3X9X0X0X0X0X0X9X7X4X;X@X/.J.b.c.f.9.*.o.! f 7 , a . .                   ",
"                      @ o . X # n @.r.y.g.v.C.D.P.P.'.*X<X3X9X9X8X7X8X4X-XXX/.W.G.n.g.a.q.<.;.o.[ s a # X . .                   ",
"                      X . . X < a E =.t.u.h.M.B.H.J.E.}.XX%X*X<X3X3X>X X/.Q.U.K.Z.b.f.t.9.*.$./ K s # # . . .                   ",
"                        . . . X < h #.9.9.q.f.k.x.n.G.!.}.}.XX%X*X-X$X/.!.T.U.G.Z.n.f.9.-.*.*.P 3 < < s o . .                   ",
"                        # . . X # 5 E &.-.9.t.f.h.x.V.).(.(.'..X'.'.OX^.W.L.G.A.A.l.a.0.-.*.[ n < # @ @ o . .                   ",
"                      . X . . X . 4 n [ -.9.0.y.g.l.m.U.W.W.W.T.T.I.!.U.L.A.m.b.l.s.y.0.=.o.a b 4 X @ . . . .                   ",
"                            . . . @ f P } &.-.t.f.k.c.Z.L.L.J.Z.Z.K.K.Z.A.l.l.s.a.r.r.0.%.! a < . . X . . . .                   ",
"                            . # X . , m V ! &.t.a.a.f.l.m.Z.Z.V.A.m.m.b.s.a.a.a.q.0.0.=.K 4 4 @ X . . . . . .                   ",
"                              @ X X X # d b W <.r.y.y.y.g.l.b.m.B.l.j.s.r.r.<.<.0.<.,.V # O . . . . . . . .                     ",
"                              . @ @ . . # 5 b T ,.0.r.r.q.r.s.s.k.a.a.r.<.<.=.+.<./ c + . . . . . . . . .                       ",
"                                X X . X X X 9 6 B / &.0.t.y.a.y.y.0.<.<.<.+.} P a * + o . . . . . . . .                         ",
"                                . X . X . . @ X , M V 1.e.r.r.r.0.&.[ R I E 4 , o o X . # # . . . . .                           ",
"                                  X X X o + X . @ # X x H 3.] ) >.B M , , # . X @ X # . O ; X @ . .                             ",
"                                    . < 1 o . @ # . . r u S y e 1 X h , . . X . 4 X , # X - 4 <                                 ",
"                                    . X X = . X . o o y 0 X % X X X @ X X @ X O @ X X X o                                       ",
"                                              . . . . = $ . . X . X . . O X . o . 4 ,                                           ",
"                                                X 4 X . , . . . . . . . . .                                                     ",
"                                                  # % + . . . .                                                                 ",
"                                                    p                                                                           ",
"                                                                                                                                ",
"                                                                                                                                ",
"                                                                                                                                ",
"                                                                                                                                ",
"                                                                                                                                ",
"                                                                                                                                ",
"                                                                                                                                ",
"                                                                                                                                ",
"                                                                                                                                "
};
