/* XPM */
static char *door161703585269[] = {
/* columns rows colors chars-per-pixel */
"64 64 198 2 ",
"   c None",
".  c #010101",
"X  c #0C0101",
"o  c #0B0807",
"O  c #0C0C09",
"+  c #070807",
"@  c #140201",
"#  c #1B0201",
"$  c #140807",
"%  c #1A0807",
"&  c #140D0A",
"*  c #1A0B09",
"=  c #11120E",
"-  c #1C110E",
";  c #151511",
":  c #1B1A14",
">  c #1E1F19",
",  c #1B1612",
"<  c #240202",
"1  c #2B0202",
"2  c #230D0A",
"3  c #2C0C0A",
"4  c #270807",
"5  c #330303",
"6  c #3C0303",
"7  c #340C0A",
"8  c #3F0A09",
"9  c #22120E",
"0  c #3D110E",
"q  c #231511",
"w  c #241B15",
"e  c #2B1C16",
"r  c #2B1511",
"t  c #361D17",
"y  c #22241C",
"u  c #29241B",
"i  c #32231C",
"p  c #3A2D24",
"a  c #332E25",
"s  c #440404",
"d  c #4A0404",
"f  c #4A0B0A",
"g  c #530404",
"h  c #5D0505",
"j  c #590A08",
"k  c #4A100C",
"l  c #461712",
"z  c #571E19",
"x  c #620505",
"c  c #6B0505",
"v  c #660B0A",
"b  c #750606",
"n  c #7A0707",
"m  c #7E0D0C",
"M  c #7C1A16",
"N  c #41231C",
"B  c #57251D",
"V  c #7A251D",
"C  c #74251E",
"Z  c #62241D",
"A  c #4C2A22",
"S  c #5B2B23",
"D  c #463229",
"F  c #59352C",
"G  c #7F3B30",
"H  c #7E3229",
"J  c #8C0707",
"K  c #870A09",
"L  c #870707",
"P  c #9C0909",
"I  c #960808",
"U  c #84120F",
"Y  c #931613",
"T  c #A50505",
"R  c #A50909",
"E  c #AD0A0A",
"W  c #BB0C0C",
"Q  c #B50A0A",
"!  c #A6100E",
"~  c #B91614",
"^  c #88221C",
"/  c #95221D",
"(  c #932A23",
")  c #8D342B",
"_  c #BE2F27",
"`  c #AD3129",
"'  c #C60909",
"]  c #D90A0A",
"[  c #C0100F",
"{  c #C71916",
"}  c #D91312",
"|  c #D21817",
" . c #EC0E0E",
".. c #E50B0B",
"X. c #F40F0F",
"o. c #FF0F0F",
"O. c #EA1313",
"+. c #F41413",
"@. c #FD1414",
"#. c #FE1B1B",
"$. c #F01D1C",
"%. c #FC211E",
"&. c #CD2F28",
"*. c #D52D27",
"=. c #C4332A",
"-. c #CB382D",
";. c #DA342D",
":. c #ED2B25",
">. c #FF2423",
",. c #FE2A25",
"<. c #FF2C2A",
"1. c #F12625",
"2. c #E6352C",
"3. c #F5342C",
"4. c #FE342E",
"5. c #EB3C32",
"6. c #FF3433",
"7. c #FF3B35",
"8. c #FF3D3B",
"9. c #F63A32",
"0. c #8A4135",
"q. c #A04034",
"w. c #DC463B",
"e. c #E84B3E",
"r. c #FF433D",
"t. c #FE4A3F",
"y. c #FF4036",
"u. c #EF4C42",
"i. c #FF4442",
"p. c #FF4C43",
"a. c #FF4D4B",
"s. c #FE5346",
"d. c #FF544B",
"f. c #FF5A4D",
"g. c #FF5452",
"h. c #FF5A53",
"j. c #FF5C5A",
"k. c #FF6254",
"l. c #FF625C",
"z. c #FF6A5C",
"x. c #FF735F",
"c. c #FF6461",
"v. c #FF6C64",
"b. c #FF6B69",
"n. c #FF7465",
"m. c #FF736C",
"M. c #FF7B6B",
"N. c #FF7672",
"B. c #FF7B73",
"V. c #FF7F79",
"C. c #FF8475",
"Z. c #FF857B",
"A. c #FF8A7C",
"S. c #FF907F",
"D. c #FF8D81",
"F. c #FF9485",
"G. c #FF9B85",
"H. c #FF9589",
"J. c #FF9B8B",
"K. c #FF9D91",
"L. c #FFA38D",
"P. c #FFA392",
"I. c #FFAC94",
"U. c #FFAE9A",
"Y. c #FFB49B",
"T. c #FFBA9D",
"R. c #FFB4A2",
"E. c #FFBCA3",
"W. c #FFBCA8",
"Q. c #FFC09F",
"!. c #FFC2A5",
"~. c #FFC4AB",
"^. c #FFCCAE",
"/. c #FFC9A5",
"(. c #FFCDB2",
"). c #FFD4B4",
"_. c #FFDBB4",
"`. c #FFD4B9",
"'. c #FFDBBA",
"]. c #FFE4B5",
"[. c #FFE3BC",
"{. c #FFDEC3",
"}. c #FFE6C3",
"|. c #FFEDC1",
" X c #FFE7C8",
".X c #FFEBCB",
"XX c #FFF1C5",
"oX c #FFF2CD",
"OX c #FFF8CF",
"+X c #FFEDD7",
"@X c #FFF4D2",
"#X c #FFFCD7",
"$X c #FFF7DD",
"%X c #FFFADB",
"&X c #FFFDE3",
"*X c #FFFEEB",
"=X c #FFFFF4",
"-X c #FFFFFE",
/* pixels */
"                                                                                                                                ",
"                                                                                                                                ",
"                                                                                                                                ",
"                                                                                                                                ",
"                                                                                                                                ",
"                                                                                                                                ",
"                                                                                                                                ",
"                                                                                                                                ",
"                                                                                                                                ",
"                                                                                                                                ",
"                                                                        X X                                                     ",
"                                                                        X @ # X                                                 ",
"                                                                .       X @ # @ #                                               ",
"                                                    #           . .     X @ 1 < @ X                                             ",
"                                                    . . X X # @ @ X 6 g @ X # 1 X @ X                                           ",
"                                                  1 < 1 s < < < 1 1 5 < < # @ @ X X X X                                         ",
"                                            X X s ] ' 6 1 1 6 5 6 6 x 5 < # # @ X X X X                                         ",
"                                        X # # # 5 T ' d 6 n P L c P R x g 6 < # X @ @ @ @                                       ",
"                                      X X s s 1 5 c E J W X.@.+.+.@.+.[ W I n 6 < @ X < < X                                     ",
"                                    @ X X < s s x b  .X.@.@.#.#.%.%.>.#.#.+.X.] [ f % @ 2 *                                     ",
"                                X @ X # 5 1 s W ] O.@.#.#.>.>.<.<.<.>.<.<.<.>.,.<.&.V z N 9 @                                   ",
"                                . O & 1 c g Q @.@.#.#.>.>.>.<.<.<.<.<.6.<.<.6.p.7.7.2.-.( 9 $ . # 6     ,                       ",
"                                . . * 6 n Q O.#.#.>.>.<.6.6.6.8.8.i.i.8.8.y.p.p.p.y.t.t.q.B r # % q   X @                       ",
"                              . . 1 h n R $.@.@.>.<.<.6.8.a.g.a.g.c.c.g.g.b.j.h.p.p.f.t.;.V N e > & X X X                       ",
"                            . . X s J Q } ,.,.,.>.<.r.a.g.c.b.b.b.N.b.b.B.A.B.n.k.f.p.7.4._ H D r $ % @ X                       ",
"                          . . X @ g R ] @.>.6.7.8.8.a.j.b.N.V.V.N.N.V.D.J.J.I.L.G.n.i.p.t.s.e.0.A 9 $ @ X   w :                 ",
"                        @ @ . X x R ] +.#.,.7.i.a.g.j.N.V.Z.Z.Z.V.D.K.J.U.!.E.U.J.C.v.h.s.s.e.( S i e q +                       ",
"                        . . . X L  .@.@.#.6.r.d.l.c.b.D.D.D.Z.A.V.K.R./._.[.'._.~.Y.A.n.z.f.e.` H A i q O =                     ",
"                      . . . @ < K  .@.@.>.8.p.h.b.m.D.H.J.L.G.H.L.Q._.].[.OXOXoX'.`.Y.I.C.n.s.=.( Z l 7 O . .                   ",
"                      . X X 2 g Q X.o.#.<.y.g.l.m.Z.J.H.Y.Y.I.!.].|.oX%X&X*X&X&XoX).~.I.M.f.s.=.m k 3 % , * +                   ",
"                    . . # 5 h n ..o.@.>.<.6.g.c.N.H.U.W.`._.XX$X*X=X-X-X=X=X*X&X%X_./.L.M.f.t.:.( l @ X + & +                   ",
"                    . . + * f L  .@.%.8.p.i.g.c.Z.R.`.}.@X*X=X-X-X-X-X-X-X=X*X%X}.`./.L.C.x.f.3.Y s X + . X . .                 ",
"                  . . . + = * E %.<.4.t.s.k.v.v.K.~..X%X=X-X-X-X-X-X-X-X-X-X-X*X X~.P.C.z.d.4.} L b 1 . X 5 . . O               ",
"                  . . . . . < Q X.+.<.p.l.n.B.V.P.W.@X=X-X-X-X-X-X-X-X-X-X-X=X*X$X).J.c.8.4.,. .J b 6 X . @ . .                 ",
"                  . . . . . # c W #.y.x.C.Z.V.D.R.}.%X=X=X-X-X-X-X-X-X-X-X=X&X@X X^.F.f.6.>.>.+.R n d < . X @ .                 ",
"                  . . . + & 2 f { ,.t.z.C.G.G.U.(.@X&X-X-X-X-X-X-X-X-X-X-X=X&X`.E.U.C.l.p.7.<.#.Q b 5 . . . . .                 ",
"                  . . . O & $ 1 ! %.,.t.z.A.A.W.`.+X=X-X-X-X-X-X-X-X-X=X*X&X X~.P.P.C.z.s.y.4.:.U 6 X O + . . . .               ",
"                    . . . X X < E  .,.4.s.v.M.P.W. X&X*X-X=X=X-X-X*X%X.X.X X_.!.K.G.C.z.p.y.4.&.C & . . . . . .                 ",
"                    . . . @ X # n  .#.%.8.h.C.T.^.[..X@X#X#X#X=X$X).}.{.`.).(.W.J.A.M.z.s.7.<.2.^ 4 . . . . . .                 ",
"                      . . @ 1 @ x ' +.%.4.i.M.L.E.^.}.XXXX[.[.'.`.R.R.W.~.(.~.E.P.A.f.r.t.4.3.-.V 6 . . . . . .                 ",
"                      # . @ 5 @ 4 d { 4.t.f.C.L.T.~._.|.].'.E.Y.H.K.K.P.P.W.R.K.H.N.i.4.>.,.:.C y : . . . . . .                 ",
"                        . @ v < & 2 ^ 3.y.t.x.S.Y.T.T./.Y.I.P.A.b.N.H.K.K.P.J.H.Z.z.7.>.#.~ m 8 O ; . . O O .                   ",
"                        X @ h 5 . > B =.2.y.f.M.J.I.G.J.L.Y.F.v.c.c.N.D.D.D.D.C.n.l.y.%.} m v % + . . . ; : .                   ",
"                          . X @ + ; w B ` e.f.M.n.C.D.F.D.Z.l.c.b.j.j.c.c.v.v.v.f.f.5.~ M 3 7 * O . . . . .                     ",
"                            O . . . . # N ( u.s.h.b.M.B.c.c.j.c.c.j.j.a.g.a.i.s.p.p.5.M v 4 $ $ 2 X . . . .                     ",
"                            a o . . X $ 9 t 0.s.h.c.v.j.a.g.a.i.i.i.a.8.6.6.6.i.y.4.*.l f s $ o & X . . .                       ",
"                              $ X @ . = u a G w.e.;.a.i.6.8.8.7.6.8.6.<.<.>.<.6.3.( 7 @ @ % O + + . . X                         ",
"                                @ + : , w a F ) F S &.$.1.<.6.<.<.<.<.#.#.#.~ } / A * X # < . + + + . @                         ",
"                                  + ; = w D p A i q 8 f j E | #.$.@.@.| ..[ d d 4 e u . 1 @ . . . + O .                         ",
"                                    O + + 9 % 3 o @ X # # < s R T ' E s x x < X . + O . . . . . .                               ",
"                                      X @ 6 < s < X @ < @ # @ 1 6 d 6 X X . X . . . . + . . .                                   ",
"                                =   y   X X @ s 6 X @ 1 @ . X . . . . . . # # . . . . = >                                       ",
"                                          . . . 6 5 @ d < . . . . . . . . < @ . . . . .                                         ",
"                                            . . @ @ X @ @ . . . . . . . . . + X . . .                                           ",
"                                              . . . . X X X . . < X . . . . @ 1 # .                                             ",
"                                              X . . X . . . . . X . . . X . . X .                                               ",
"                                                  . . . . . . . . . . . X .                                                     ",
"                                                            . . . .                                                             ",
"                                                                                                                                ",
"                                                                                                                                ",
"                                                                                                                                ",
"                                                                                                                                ",
"                                                                                                                                ",
"                                                                                                                                "
};
