/* XPM */
static char *door231703585270[] = {
/* columns rows colors chars-per-pixel */
"64 64 210 2 ",
"   c None",
".  c #020101",
"X  c #0B0101",
"o  c #090907",
"O  c #0C0C0A",
"+  c #130101",
"@  c #1B0101",
"#  c #1B0807",
"$  c #140C0A",
"%  c #190908",
"&  c #0F100D",
"*  c #11120E",
"=  c #1E110D",
"-  c #151612",
";  c #1D1612",
":  c #1A1A15",
">  c #191B16",
",  c #240101",
"<  c #2B0201",
"1  c #2D0B09",
"2  c #270C0A",
"3  c #330202",
"4  c #3A0202",
"5  c #330B09",
"6  c #3A0C0A",
"7  c #340906",
"8  c #2D110D",
"9  c #26120E",
"0  c #261A15",
"q  c #371713",
"w  c #1F201A",
"e  c #20231C",
"r  c #32241D",
"t  c #392B22",
"y  c #2C2F25",
"u  c #440202",
"i  c #4A0303",
"p  c #420C0A",
"a  c #4C0C0A",
"s  c #520303",
"d  c #5D0404",
"f  c #560907",
"g  c #510B09",
"h  c #5C0C09",
"j  c #44120F",
"k  c #54110E",
"l  c #471914",
"z  c #581713",
"x  c #640404",
"c  c #6A0505",
"v  c #680A08",
"b  c #7B0907",
"n  c #760908",
"m  c #7F130F",
"M  c #641915",
"N  c #751814",
"B  c #6A120F",
"V  c #45231C",
"C  c #6E241D",
"Z  c #7A261E",
"A  c #5C2B23",
"S  c #5B3D32",
"D  c #4E2F26",
"F  c #78362A",
"G  c #6F3229",
"H  c #514537",
"J  c #840606",
"K  c #8B0606",
"L  c #8D0B0A",
"P  c #880A09",
"I  c #9C0606",
"U  c #990909",
"Y  c #931D17",
"T  c #A40707",
"R  c #A30909",
"E  c #AD0B0A",
"W  c #AC0505",
"Q  c #B60C0C",
"!  c #BC0909",
"~  c #B80404",
"^  c #BA100F",
"/  c #AA1512",
"(  c #B81210",
")  c #99221C",
"_  c #A6231E",
"`  c #8B372C",
"'  c #A9352C",
"]  c #CC0000",
"[  c #C50C0B",
"{  c #CE0E0E",
"}  c #DB0D0C",
"|  c #D40808",
" . c #D81A17",
".. c #E40C0C",
"X. c #F30F0F",
"o. c #FC0F0F",
"O. c #FF0404",
"+. c #E91412",
"@. c #E71817",
"#. c #F41414",
"$. c #FD1414",
"%. c #FE1817",
"&. c #FF1C1B",
"*. c #F51918",
"=. c #C1221D",
"-. c #FF211E",
";. c #D63E33",
":. c #DB2621",
">. c #EB2A25",
",. c #FF2423",
"<. c #FE2A26",
"1. c #FF2B2A",
"2. c #EA332D",
"3. c #FF342E",
"4. c #F43129",
"5. c #FF3533",
"6. c #FE3A34",
"7. c #FF3D3A",
"8. c #F63A33",
"9. c #97493B",
"0. c #AF4A3C",
"q. c #E34236",
"w. c #EC493D",
"e. c #FF433B",
"r. c #FD463B",
"t. c #B86F59",
"y. c #DD5646",
"u. c #FF4543",
"i. c #FF4B43",
"p. c #FF4D4B",
"a. c #F64F42",
"s. c #EC5848",
"d. c #FE5246",
"f. c #FF554C",
"g. c #FF594C",
"h. c #FF5553",
"j. c #FF5C52",
"k. c #FF5C5A",
"l. c #FF6355",
"z. c #FF645B",
"x. c #FF6B5C",
"c. c #FF715E",
"v. c #DD7961",
"b. c #FF6563",
"n. c #FF6C63",
"m. c #FF6E6A",
"M. c #FF7265",
"N. c #FF746B",
"B. c #FF7B6C",
"V. c #FF7D65",
"C. c #FF7573",
"Z. c #FF7B74",
"A. c #FF7E79",
"S. c #FE856E",
"D. c #FF8373",
"F. c #FF8B75",
"G. c #FF847D",
"H. c #FF8C7C",
"J. c #FF937D",
"K. c #FF987D",
"L. c #FF8C83",
"P. c #FF8581",
"I. c #FF9383",
"U. c #FF9B85",
"Y. c #FF938B",
"T. c #FF9B8B",
"R. c #FF9C91",
"E. c #FFA28B",
"W. c #FFAA8E",
"Q. c #FFA187",
"!. c #FFA292",
"~. c #FFAB94",
"^. c #FFAC9B",
"/. c #FFB395",
"(. c #FFB59B",
"). c #FFBB9C",
"_. c #FFBD97",
"`. c #FFBBA3",
"'. c #FFB9A7",
"]. c #FFC19B",
"[. c #FFC3A4",
"{. c #FFCCA5",
"}. c #FFC2A9",
"|. c #FFCBB1",
" X c #FFCBB8",
".X c #FFD3B3",
"XX c #FFDAB6",
"oX c #FFDDBC",
"OX c #FFD7BE",
"+X c #FFDAA8",
"@X c #FFEFBA",
"#X c #FFE4BC",
"$X c #FFF4BF",
"%X c #FFDBC3",
"&X c #FFD5C1",
"*X c #FFE3C4",
"=X c #FFECC4",
"-X c #FFEDCE",
";X c #FFE4C9",
":X c #FFF8CC",
">X c #FFF2CA",
",X c #FFF5D4",
"<X c #FFFCD5",
"1X c #FFF5DC",
"2X c #FFFCDB",
"3X c #FFFEE3",
"4X c #FFFEEB",
"5X c #FFF5E3",
"6X c #FFFFF2",
"7X c #FFFFFE",
/* pixels */
"                                                                                                                                ",
"                                                                                                                                ",
"                                                                                                                                ",
"                                                                                                                                ",
"                                                                                                                                ",
"                                                                                                                                ",
"                                                                                                                                ",
"                                                                                                                                ",
"                                                                                                                                ",
"                                                                                                                                ",
"                                                                                                                                ",
"                                                        .                                                                       ",
"                                                , , , u i X X                                                                   ",
"                                              @ , , 4 ] ] < < 3 @ @             . + @                                           ",
"                                                @ , 4 ] ~ < i J 3 < < 3 .   c X . .   ,                                         ",
"                                                3 , < u d 4 3 3 < 4 4 i < @   . . . X , ,                                       ",
"                                              s 7 3 4 3 3 4 4 u u i i u 4 4 @ X . . @ , ,                                       ",
"                                        , @   . < s u u c J d d [ } [ ! I E b x 3 , , , < @                                     ",
"                                        + 3 @ < 4 d f L ..o.#.#.%.%.$.$.$.%.o.} T 3 3 , , <                                     ",
"                                      . 3 W K R c K U ..%.&.,.,.,.,.,.,.-.&.$.$.X.! J u 5 2 u x                                 ",
"                                    . X I O.~ } { *.,.1.1.1.5.6.1.,.1.,.,.,.&.&.$.o.} W x , 4 4 .                               ",
"                                . . > 5 W ..I *.,.1.7.u.u.p.p.p.u.7.5.5.1.1.,.,.&.$.$.} I i , < @       +                       ",
"                              . . . q C =.>.@.1.5.7.u.h.k.k.b.b.m.b.h.u.7.7.e.6.1.<.,.$...J 3 3 d <   . .                       ",
"                            . . . < g ) 4.e.u.5.u.u.h.b.m.C.C.C.C.C.C.b.p.h.f.p.u.e.1.$.o.[ U v 7 . . .                         ",
"                          . . . + i _ 2.6.i.f.e.p.k.m.C.m.C.C.A.C.C.C.C.Z.b.j.h.g.i.1.%.%.#.} n 3 . . .                         ",
"                        . O . @ < i ) 8.u.f.j.h.b.L.Y.L.P.Z.Z.A.A.P.C.P.P.Z.n.z.z.j.5.,.&.%.Q d 4 + . .                         ",
"                      X 1 $ @ , < s P 2.k.n.z.n.P.Y.Y.R.T.T.H.H.P.A.P.L.L.L.G.N.n.j.u.3.,.%...b h , . . .                       ",
"                      . < @ 3 4 i n ( 2.g.x.m.Z.L.Y.R.!.!.~.~.J.Y.T.Y.Y.!.(.T.Z.x.z.g.r.e.5.>./ ) z u X .                       ",
"                      . O X < 3 c } &.1.p.k.m.G.Y.R.R.R.!.).).{.]._.(.^.(.}.`.~.J.J.S.x.c.l.a.q.Z V 8 . .                       ",
"                  * O . O X 1 < i W &.7.u.h.Z.R.^.'.'.|..X{.+X@X$X@X=X#X#X=X=XXX~.Q.K.F.V.l.g.w.C V 0 * w >   > -               ",
"                  . + + . @ 4 < a [ -.i.p.m.T. X&X;X-X1X3X3X<X4X4X<X3X3X3X<X:X#X{.W.U.J.c.g.d.w.` S t ; 0 =                     ",
"                  - e ; # j A S 9.q.g.j.f.n.^.%X5X6X7X7X7X7X7X7X7X7X6X6X4X2X,XXX].W.J.F.l.g.i.a.' A l # 4 ,                     ",
"                  . o . X 2 t H 9.s.x.n.n.T.%X1X5X6X7X7X7X7X7X7X7X7X7X7X6X3X<X.X).Q.D.z.i.i.e. .v 7 < 4 X o o                   ",
"                . . . . X X # t 0.s.c.H.U.`.*X5X2X4X6X7X7X7X7X7X7X7X7X7X7X6X<X*X}.~.F.f.e.3.<.[ d g 4 @ . + X .                 ",
"                . . . . . . : H v.F.F.U.(.`.*X1X3X7X7X7X7X7X7X7X7X7X7X7X7X6X,XoX|.`.I.l.i.,.%.+.L v x + X . . .                 ",
"                o o O O * > y H t.S.K.~.`.[.%X2X6X7X7X7X7X7X7X7X7X7X7X7X7X6X1XoXXXE.V.f.i.3.&.$.! x < @ @ . o X                 ",
"                O & : & O O - t F y.c.F.U.E.}.%X4X7X7X7X7X7X7X7X7X7X7X7X6X4X,X[.W.F.z.i.e.e.<.+.L d 7 4 # . . X                 ",
"                . . . . . . . q V 0.g.c.D.I.^.~.&X5X4X4X6X6X3X4X6X6X3X2X:X>X=X/.S.M.g.u.e.6.<.,./ g f 4 . . .                   ",
"                  . . X . . X 1 C ) w.l.V.N.Z.T. X'.|.OX%XoXXX=X-X-X=X=X=XXXXX[.D.j.f.i.7.3.,.*.L 6 p , . .                     ",
"                  . . < , + . + 7 i  .3.i.f.M.G.I.L.Y.~.(.`.`.}.}.}.[.{.].[.{./.D.g.r.d.5.3.2.) a 5 7 + . .                     ",
"                    . + , . . # , 6 E -.e.g.n.V.I.U.~.!.~.T.Q.U.T./.).)./.W.W.U.F.l.3.3.<.,. .z p 6 0 O . .                     ",
"                      . X . . X , 7 m >.e.r.j.k.B.I.T.D.D.A.H.H.S.E./.W.W.T.J.D.M.l.6.&.%. .[ U 7 5 ; - . .                     ",
"                        . . . . 5 B C ' 8.r.g.f.x.B.N.M.N.C.N.Z.n.D.J.E.F.V.M.x.g.d.6.%.#.b 4 x 3 + . . O .                     ",
"                          . . O = 8 j N  .3.r.r.i.r.f.z.n.z.k.k.n.n.M.V.z.g.x.x.d.d.e.@.P g i < < + . . . .   . o               ",
"                            & - : 8 k B / @.:.4.5.3.r.u.f.p.u.u.p.g.j.h.u.7.d.d.i.r.;.k 2 7 4 < , X . . .                       ",
"                            o o . $ j k n L T #.&.&.,.<.<.1.1.3.1.3.<.<.,.<.3.r.r.;.G l 6 3 2 # @ . . . .                       ",
"                      O O     . . . + < u f n ( [ o.$.%.$.&.&.-.&.,.&.$.%.&.+.:.;.q.C l j @ # . . . . .                         ",
"                                . . + , 4 g i n J } X.#.o.$.$.$.$.$.*.^ @.R J m F 9.M q 8 . . . . . .                           ",
"                                    . , < 1 < u d c T T [ Q } R J E L v b x d < q V q ; - . . . . .                             ",
"                                    + @ 3 < , < u i s d c u b s 3 v f f u 4 < < , ; q ; O . . . .                               ",
"                                    < < c 3 , X . + < u s 4 3 < @ 7 4 4 , , 1 , @ 5 Y r O . .                                   ",
"                                        < < + . X . . + < < , + . X @ < , , < , X X 9 w >                                       ",
"                                          < @ + < . . . . @ , , , + , < , , < 3 + . . .                                         ",
"                                            + . + . . . . . . + , 3 n u , , < i < + o                                           ",
"                                                . . . . . . . . . X @ , , , , , < , +     * *                                   ",
"                                                    . . . . . . . . . . . . X X                                                 ",
"                                                          . .       . . . .                                                     ",
"                                                                                                                                ",
"                                                                                                                                ",
"                                                                                                                                ",
"                                                                                                                                ",
"                                                                                                                                ",
"                                                                                                                                ",
"                                                                                                                                "
};
