/* XPM */
static char *door71703585268[] = {
/* columns rows colors chars-per-pixel */
"64 64 211 2 ",
"   c None",
".  c #020101",
"X  c #0C0100",
"o  c #070807",
"O  c #0A0807",
"+  c #0C0C0A",
"@  c #130101",
"#  c #1B0202",
"$  c #1C0806",
"%  c #120C0A",
"&  c #1A0D0A",
"*  c #0F110D",
"=  c #11120E",
"-  c #19130F",
";  c #141511",
":  c #171813",
">  c #1B1914",
",  c #230202",
"<  c #2C0202",
"1  c #230B09",
"2  c #2B0D0A",
"3  c #270907",
"4  c #330303",
"5  c #3B0303",
"6  c #330C0A",
"7  c #3A0B09",
"8  c #2D110E",
"9  c #22110E",
"0  c #34100E",
"q  c #261914",
"w  c #331511",
"e  c #3E1411",
"r  c #3D1914",
"t  c #3A1E18",
"y  c #23231C",
"u  c #2D231C",
"i  c #3B2019",
"p  c #3F2620",
"a  c #2C2F25",
"s  c #410303",
"d  c #4B0303",
"f  c #4D0D0B",
"g  c #530505",
"h  c #5B0505",
"j  c #520D0B",
"k  c #46130D",
"l  c #431915",
"z  c #401F19",
"x  c #4A1713",
"c  c #531D18",
"v  c #571713",
"b  c #6C0505",
"n  c #670807",
"m  c #7C0606",
"M  c #750B0A",
"N  c #720807",
"B  c #6B120F",
"V  c #6E1814",
"C  c #681612",
"Z  c #731D17",
"A  c #6C231D",
"S  c #76201B",
"D  c #6B2A22",
"F  c #7F3027",
"G  c #712821",
"H  c #850505",
"J  c #8C0707",
"K  c #850909",
"L  c #840C0A",
"P  c #940A09",
"I  c #9C0909",
"U  c #980707",
"Y  c #85110E",
"T  c #90110F",
"R  c #841915",
"E  c #981512",
"W  c #AA0909",
"Q  c #B30E0D",
"!  c #AF100E",
"~  c #B3100E",
"^  c #B81713",
"/  c #88231E",
"(  c #99221C",
")  c #93241D",
"_  c #AC251F",
"`  c #872B22",
"'  c #9E3D32",
"]  c #9C2721",
"[  c #A42A23",
"{  c #B82D25",
"}  c #BE322A",
"|  c #A13229",
" . c #C40C0C",
".. c #CA0B0B",
"X. c #D40D0D",
"o. c #DB0C0C",
"O. c #CE110F",
"+. c #C71715",
"@. c #D51412",
"#. c #D91A17",
"$. c #E90E0E",
"%. c #F40C0C",
"&. c #FD0808",
"*. c #EA1917",
"=. c #F51514",
"-. c #FE1413",
";. c #FF1C1B",
":. c #F01918",
">. c #C1221D",
",. c #D5211B",
"<. c #FD201E",
"1. c #CD2A24",
"2. c #C52822",
"3. c #DA2E27",
"4. c #DC362E",
"5. c #CD3B31",
"6. c #E52A25",
"7. c #FF2423",
"8. c #FE2A25",
"9. c #FF2D2B",
"0. c #F32924",
"q. c #FD322D",
"w. c #F3382D",
"e. c #E43D34",
"r. c #FF3433",
"t. c #FF3B34",
"y. c #FF3C3A",
"u. c #E73129",
"i. c #FF443C",
"p. c #FB453B",
"a. c #E8483D",
"s. c #EB4F41",
"d. c #FF4442",
"f. c #FF4B44",
"g. c #FF4E4A",
"h. c #FF5246",
"j. c #FF534C",
"k. c #FF5A4D",
"l. c #FF5552",
"z. c #FF5B53",
"x. c #FF5D5A",
"c. c #FF6053",
"v. c #FF645B",
"b. c #FF6A5C",
"n. c #FF6661",
"m. c #FF6C63",
"M. c #FF6F69",
"N. c #FF7365",
"B. c #FF756B",
"V. c #FF7B6D",
"C. c #FF7C72",
"Z. c #FF7670",
"A. c #FF846D",
"S. c #FF896E",
"D. c #FF8274",
"F. c #FF847B",
"G. c #FF8B7C",
"H. c #FF8C76",
"J. c #FF927C",
"K. c #FF9B7A",
"L. c #FFA17F",
"P. c #FF8D82",
"I. c #FF9385",
"U. c #FF9B86",
"Y. c #FF958A",
"T. c #FF9B8C",
"R. c #FF9E90",
"E. c #FFA18A",
"W. c #FFA989",
"Q. c #FFA393",
"!. c #FFA995",
"~. c #FFA599",
"^. c #FFAA9A",
"/. c #FFB495",
"(. c #FFB39F",
"). c #FFBC99",
"_. c #FFB3A2",
"`. c #FFBBA5",
"'. c #FFBDAA",
"]. c #FFC19C",
"[. c #FFC2A3",
"{. c #FFC2AD",
"}. c #FFCBAE",
"|. c #FFCDA3",
" X c #FFD9AD",
".X c #FFC6B1",
"XX c #FFCBB2",
"oX c #FFCCB8",
"OX c #FFD3B6",
"+X c #FFDDB3",
"@X c #FFD4BB",
"#X c #FFDBBC",
"$X c #FFE5BC",
"%X c #FFDCC3",
"&X c #FFE3C3",
"*X c #FFE9C5",
"=X c #FFE5CA",
"-X c #FFECCB",
";X c #FFF3CB",
":X c #FFF9C7",
">X c #FFEED1",
",X c #FFEEDD",
"<X c #FFF2D1",
"1X c #FFFBD5",
"2X c #FFF6DA",
"3X c #FFFCDD",
"4X c #FFFCE3",
"5X c #FFFEED",
"6X c #FFF5E2",
"7X c #FFFFF4",
"8X c #FFFFFE",
/* pixels */
"                                                                                                                                ",
"                                                                                                                                ",
"                                                                                                                                ",
"                                                                                                                                ",
"                                                                                                                                ",
"                                                                                                                                ",
"                                                                                                                                ",
"                                                                                                                                ",
"                                                                                                                                ",
"                                                                                                                                ",
"                                                                                                                                ",
"                                                                                                                                ",
"                                                  X X @ @ X X                                                                   ",
"                                            X       X X , d $ # X < b s                                                         ",
"                                                    X @ @ , 2 8 # # h <                                                         ",
"                                      . . . . < < . X # # , l z , # , , , #           . ,   .                                   ",
"                                . . . . . . . < < . # , 6 r z z 3 < 4 , , , , @   . . . X   .                                   ",
"                              . . . . . . X X X @ , , < r i i z x 5 , s b < , , X X @ X . . . X                                 ",
"                            . . . . . . X # # , , b g B ( ) ( ] *.X.K W W d d 4 , @ @ @ . . X X                                 ",
"                          . . . . X X @ X # < b H J X.#.q.t.y.r.8.7.;.;.=.$.X.m b 5 # # X 4 s X                                 ",
"                          . . . X @ X X X @ m %.&.=.;.7.y.f.f.y.t.8.7.7.;.7.-.$.o.U 5 1 $ X @ X X                               ",
"                          X X X X X @ # # s ..-.;.7.r.r.f.l.j.l.d.d.r.r.9.7.<.;.=.X.H H d # # @ @                               ",
"                        . , @ @ @ @ , < n J $.;.9.r.r.r.d.z.z.v.x.x.l.d.y.9.9.7.;.=.=.$.b , # @ 6 <                             ",
"                    o   . @ @ X # < 5 d H =.:.7.9.r.y.y.g.n.n.M.B.Z.M.l.l.l.d.d.t.9.;.%.K < , 1 1 @                             ",
"                        X X @ @ @ , N ..O.;.7.7.r.y.d.l.n.M.B.B.C.F.C.Z.n.n.x.l.l.f.9.<.=.Q h < < @                             ",
"                      X @ @ @ X # 4 g  .-.;.7.9.y.d.l.l.M.Z.C.F.F.P.F.P.Z.M.M.n.n.z.f.q.8.#.s , , # X X                         ",
"                      . . . X # < s m X.;.;.7.y.d.d.g.x.B.C.G.P.Y.T.Y.R.~.Y.F.F.C.B.N.b.z.w.^ 5 @ @ & 2                         ",
"                      . . . . , 4 h W -.;.7.r.d.g.j.l.n.G.G.I.I.Y.~.R.^.~.Y.Y.Y.R.Q.U.C.N.h.u.B j < @ w                         ",
"                      . . . . # < d o.-.7.r.d.d.l.z.b.N.D.I.Y.R.^._..X%X%X.X'.'.(.(.T.D.c.c.f.[ c 1 # d                         ",
"              o o     o o . O , 5 h  .;.8.t.g.g.z.m.V.V.I.T.!.'.&X>X,X4X%X%X&X%X{.^.U.D.N.c.p.1.x $ # 4                         ",
"                    . . o o O 6 j Y :.;.8.y.d.l.m.B.D.G.E./.+X<X7X7X7X5X2X4X4X>X%X{.!.D.G.N.f.3.A v < .                         ",
"                    . . . o % 6 f Y #.;.9.y.l.n.B.D.G.E./.+X4X8X8X8X8X8X7X5X4X1X;XOX!.G.A.v.i.q.1.{ M , .   .                   ",
"                    . . . O % 6 k k ^ <.r.h.c.B.J.J.E.W.|.3X8X8X8X8X8X8X8X7X4X3X;XXXE.V.n.z.f.q.2.A r # . . X X                 ",
"                    . . . . O 2 7 0 C 6.i.k.N.A.J.E.W.].-X5X5X8X8X8X8X8X8X8X5X1X-X.XP.G.M.j.d.q.] D p u % 6 r y                 ",
"                    . . . # % 0 k 0 V 6.t.h.b.S.K.W.].+X4X7X7X8X8X8X8X8X8X8X5X1X%X_.T.F.v.d.y.r.3.` 8 : O @                     ",
"                    . . o % = 8 k r Z 0.t.p.b.S.K.W. X:X3X7X8X8X8X8X8X8X8X8X4X*X`.Q.I.D.N.g.r.<.#.C @ . o .                     ",
"              + O   . + * * * 8 l e x ,.8.t.z.V.L.).+X:X4X7X8X8X8X8X8X8X8X7X7X=X{.(.G.B.n.d.r.=.P g # X % o                     ",
"                    . . . O + 8 k e v +.8.t.j.B.S.].$X:X;X5X8X8X8X8X8X8X8X7X4X>X{.^.C.N.l.d.7.=.P s # @ @ X                     ",
"                      . . . 9 6 0 e v E +.0.y.v.D.). XOX%X2X7X8X8X8X8X8X7X2X&X#X(.I.D.V.l.d.7.X.H 5 # X . X                     ",
"                      . . . . O $ 6 g W Q :.q.j.V.U.(.`.%X>X4X7X8X8X7X8X7X2XOXOX_.Y.G.V.v.j.9.Q N < # @ X @ @                   ",
"                        . . . . X , N ^ Q @.8.h.b.C.Q.`.oX=X6X6X,X4X4X7X7X4X&X@X`.E.C.n.z.h.6.U N 6 @ @ @ @ @                   ",
"                        . . . . O @ f T U ~ <.p.b.A.U.(.'.@X>X%X.X=X2X2X>X;X;X}.(.G.C.m.z.f.^ m g # X X < @                     ",
"                        . . . . X @ 6 L U ~ O.p.N.V.G.T.^._..X'..XoX%X=X%XOX[.E.J.G.D.N.v.p.+.g , @ X @ # X                     ",
"                        . . . . . 4 j N U P >.a.k.c.V.A.P.P.P.^._._.'..X{.'.^.J.V.C.D.B.c.4.P # @ @ @ @ .                       ",
"                        . . . . . s , 3 d Y 5.a.h.k.c.b.b.l.B.P.R.~.^.Q.T.U.U.A.D.V.b.h.a.' V , $ @ # # .                       ",
"                        . . . . X , < X < / | 5.p.h.h.p.9.r.d.g.v.Z.G.D.D.B.D.N.N.c.h.p._ D x 5 @ @ @ X .                       ",
"                        .   . . . . X X 8 D / _ 4.r.9.-.-.;.7.q.i.z.z.B.B.z.c.b.p.i.4.1.V w - X O o . .                         ",
"                              X X X . @ = q c S S 2.<.-.-.;.-.<.t.d.h.b.b.f.p.f.i.w.( V e & O . = = .                           ",
"                              . . . * : ; y q t q z ~ %.-.;.-.-.q.r.h.c.h.p.i.u.[ ` w 8 q * . . . o                             ",
"                              .     o * : + = : * @ b m J O.%.=.8.u.5.s.a.{ } j $ w + + + ; + .                                 ",
"                                      . . . o . . . # X . d H Y ( / v F A Z C # . , # . . % %                                   ",
"                                      . . . . . . @ 4 @ , < X # 8 i X & u 1 , & . s 5 = ;                                       ",
"                                  > :   . . . . . . @ X # g . X 9 q . @ C $ @ s , X . - a       ;                               ",
"                                        X .   . . . . o . @ . . @ @ . o # . . 4 # ,                                             ",
"                                                . . . o . . . . . . . . . o X .                                                 ",
"                                                  X . . . . . . = y . . . y 9 .                                                 ",
"                                                          . . = + >                                                             ",
"                                                                                                                                ",
"                                                                                                                                ",
"                                                                                                                                ",
"                                                                                                                                ",
"                                                                                                                                ",
"                                                                                                                                ",
"                                                                                                                                "
};
