/* XPM */
static char *door381703585272[] = {
/* columns rows colors chars-per-pixel */
"64 64 212 2 ",
"   c None",
".  c #020101",
"X  c #0B0101",
"o  c #070807",
"O  c #090907",
"+  c #0C0C0A",
"@  c #140202",
"#  c #1C0101",
"$  c #120907",
"%  c #130C0A",
"&  c #180807",
"*  c #0F130F",
"=  c #12110E",
"-  c #1C110E",
";  c #141511",
":  c #1B1C17",
">  c #1B1B15",
",  c #240101",
"<  c #2C0101",
"1  c #2C0D0B",
"2  c #250A08",
"3  c #320101",
"4  c #3C0202",
"5  c #350807",
"6  c #3F0807",
"7  c #340908",
"8  c #3B0B09",
"9  c #28100D",
"0  c #33130F",
"q  c #291612",
"w  c #341F19",
"e  c #371814",
"r  c #26221B",
"t  c #3D221B",
"y  c #282820",
"u  c #430202",
"i  c #4C0202",
"p  c #4D0907",
"a  c #450B09",
"s  c #480B09",
"d  c #530303",
"f  c #5C0303",
"g  c #5C0B0A",
"h  c #530B09",
"j  c #461612",
"k  c #4D1B16",
"l  c #491915",
"z  c #561E19",
"x  c #5A1914",
"c  c #49140F",
"v  c #630504",
"b  c #6C0404",
"n  c #650908",
"m  c #740505",
"M  c #7B0505",
"N  c #7C0807",
"B  c #7D0D09",
"V  c #60120F",
"C  c #691A15",
"Z  c #781814",
"A  c #77120F",
"S  c #59231C",
"D  c #76211B",
"F  c #6D211A",
"G  c #4C2A22",
"H  c #6B2B22",
"J  c #662720",
"K  c #782B23",
"L  c #840505",
"P  c #8A0606",
"I  c #840909",
"U  c #8D0807",
"Y  c #9D0606",
"T  c #930908",
"R  c #981714",
"E  c #811512",
"W  c #A20909",
"Q  c #AC0A09",
"!  c #A90707",
"~  c #B30B0A",
"^  c #BB0B0A",
"/  c #AB110F",
"(  c #A5140E",
")  c #B81311",
"_  c #82231D",
"`  c #B7231E",
"'  c #A5261F",
"]  c #8A2A23",
"[  c #95342B",
"{  c #962E26",
"}  c #AB2A23",
"|  c #A52922",
" . c #BB362D",
".. c #B42D26",
"X. c #C30C0B",
"o. c #CB0B0B",
"O. c #D40C0C",
"+. c #DD0D0C",
"@. c #CB1615",
"#. c #DF1211",
"$. c #DA1A16",
"%. c #E50E0D",
"&. c #E90E0E",
"*. c #F20E0E",
"=. c #ED1413",
"-. c #E71614",
";. c #F41212",
":. c #FE1414",
">. c #FE1916",
",. c #FF1C1C",
"<. c #F41A19",
"1. c #C7241E",
"2. c #D2211C",
"3. c #E5231E",
"4. c #FE211E",
"5. c #C62D25",
"6. c #D62C25",
"7. c #D1352C",
"8. c #C83B31",
"9. c #E82C25",
"0. c #FF2422",
"q. c #FE2C26",
"w. c #FF2C2A",
"e. c #E8352D",
"r. c #F5332C",
"t. c #FE332D",
"y. c #FB392F",
"u. c #EB3931",
"i. c #FF3632",
"p. c #FE3B35",
"a. c #FF3D3A",
"s. c #F53E35",
"d. c #FF433C",
"f. c #FC493F",
"g. c #F7463A",
"h. c #E9473B",
"j. c #FF4541",
"k. c #FF4B44",
"l. c #FF4E4B",
"z. c #FF5145",
"x. c #FF534A",
"c. c #FF5A4E",
"v. c #FF5B54",
"b. c #FF5C59",
"n. c #FF635B",
"m. c #FF6A5D",
"M. c #FF6354",
"N. c #FF705D",
"B. c #FF6C63",
"V. c #FF6360",
"C. c #FF7365",
"Z. c #FF746B",
"A. c #FF7B6C",
"S. c #FF7771",
"D. c #FF7C73",
"F. c #FF836F",
"G. c #FF8066",
"H. c #FF8373",
"J. c #FF847A",
"K. c #FF8A7C",
"L. c #FF8A74",
"P. c #FF957B",
"I. c #FF8C82",
"U. c #FF9284",
"Y. c #FF958A",
"T. c #FF9A8B",
"R. c #FF9E82",
"E. c #FF9F94",
"W. c #FFA68C",
"Q. c #FFAC8D",
"!. c #FFA393",
"~. c #FFAB96",
"^. c #FFAD9B",
"/. c #FFA79C",
"(. c #FFB39D",
"). c #FFBA9C",
"_. c #FFB692",
"`. c #FFB6A4",
"'. c #FFBBA4",
"]. c #FFBDA9",
"[. c #FFC49E",
"{. c #FFC4A3",
"}. c #FFCBA4",
"|. c #FFC2AC",
" X c #FFCEAF",
".X c #FFD3A7",
"XX c #FFD9AC",
"oX c #FFCBB3",
"OX c #FFD3B3",
"+X c #FFD5B9",
"@X c #FFDBBB",
"#X c #FFD9B1",
"$X c #FFE1AF",
"%X c #FFE2B5",
"&X c #FFE4BE",
"*X c #FFEDBC",
"=X c #FFDCC2",
"-X c #FFE3C4",
";X c #FFE5CA",
":X c #FFEBCA",
">X c #FFE8C2",
",X c #FFF2CE",
"<X c #FFF6C8",
"1X c #FFECD4",
"2X c #FFF4D4",
"3X c #FFFAD4",
"4X c #FFF4DA",
"5X c #FFFCDD",
"6X c #FFFDE4",
"7X c #FFFEEC",
"8X c #FFFFF4",
"9X c #FFFFFE",
/* pixels */
"                                                                                                                                ",
"                                                                                                                                ",
"                                                                                                                                ",
"                                                                                                                                ",
"                                                                                                                                ",
"                                                                                                                                ",
"                                                                                                                                ",
"                                                                                                                                ",
"                                                                                                                                ",
"                                                                                                                                ",
"                                                                                                                                ",
"                                                                  X         #                                                   ",
"                                                                            3 X .                                               ",
"                                            , < , < X X . X y = . . . X @     . .                                               ",
"                                      , < < < 3 3 3 < 3 i 4 , @ X o % . o . X # . @ <                                           ",
"                                          , 3 3 3 3 3 4 b u < 3 < , 2 < @ @ @ v # @ f # X                                       ",
"                                          X < 3 3 3 3 4 < @ & 0 4 p i i 3 < , # @ X < 3 #                                       ",
"                                        . X < 3 4 3 3 4 3 d E w n N N P v f u < # @ < 3 3 #                                     ",
"                                    . . , 3 3 3 d u u f d E 6.| @.-.^ ~ T Y L v d u u u 3 < #                                   ",
"                                    . , i 4 u u u u T o.2.e.t.y.q.>.:.;.%.%.X.Y m d i u 4 4 <             O                     ",
"                                  X , i b i 3 u M Q #.<.y.p.y.y.y.4.,.>.>.:.&.O.X.( B i u u 4 < X                               ",
"                                # 3 4 4 b m i T +.:.:.w.p.d.p.d.p.q.0.4.,.,.:.:.:.-.W v f i s 6 $ .                             ",
"                              , 3 3 3 , p Q ~ X.;.:.,.i.k.x.c.v.z.d.p.w.w.0.4.4.4.=.X.) X.g a a 7 $ o X                         ",
"                          . # 3 3 < 5 h U ^ O.;.,.4.w.i.v.n.B.C.C.v.z.f.d.p.p.q.q.4.q.4.) a 2 6 6 & O X                         ",
"                          # 4 3 # @ m ^ ~ o.>.4.q.a.p.a.n.Z.D.H.F.F.C.M.M.z.z.z.d.w.0.0.$.h e z V 1 $ @ $                       ",
"                          d v i X # W ^ %.>.0.q.p.d.k.l.n.K.U.R.Q.R.P.G.N.N.N.n.l.i.w.w.w.5.H G _ c 1 # $ $   :                 ",
"                        < 4 d f u P %.&.:.,.q.p.c.M.n.b.Z.U.T.~.(._._.P.N.A.G.B.b.l.d.k.j.s...K K S q - -                       ",
"                      < 3 < 4 u v Q &.:.,.4.t.f.x.m.J.Z.I.Y.~.~.[..X[.Q.P.L.H.K.J.D.n.n.x.k.u.{ H H G w c 3                     ",
"                      3 3 < 3 u m O.:.:.,.w.k.z.M.A.F.K.E.~.).).}..X}.[.).Q.R.!.Y.K.D.V.n.z.u.] H H e 7 v   .                   ",
"                      3 3 3 4 d Y *.:.,.0.w.k.v.m.F.L.P.).#X#X*X$X$X%X@X X).^.!.W.U.K.A.n.f.w.9.D x < # , X X                   ",
"                    < < 4 p c v O.:.,.0.w.i.j.v.Z.U.W.Q..X3X3X6X5X5X6X8X1X@X#X X X'.E.W.K.n.d.y.R i 3 # @ X                     ",
"                    < # < 5 5 d =.4.t.t.i.j.x.b.A.W.).[.&X7X8X9X8X9X9X9X6X:X-X@X@XoX'.(.W.A.z.p.1.d < @ @ @                     ",
"                    @   . . , b &.:.0.t.p.d.v.V.J.(.}.%X*X7X9X9X9X9X9X9X8X2X@X@X=XOX|.(.T.C.z.p.' 6 < @ . .                     ",
"                      . . . X f X.:.0.i.p.k.b.D.U.~.{.%X5X9X9X9X9X9X9X9X8X6X;X+XoX|.`.W.F.n.x.g.{ S z 8 , c x <                 ",
"                      O o . X f ;.,.w.p.k.b.b.J.T.!.).:X7X9X9X9X9X9X9X9X9X9X4X;X=X]./.D.n.v.c.d.7.x a 4 3 4 u ,                 ",
"                      o o . X m <.w.i.a.j.v.B.I.!.!.#X3X7X9X9X9X9X9X9X9X9X9X7X;X`.Y.I.B.x.a.w.q.~ M 4 3 3 3 < X                 ",
"                      . o ; . u ( -.w.a.a.k.V.J.I.`.-X2X6X8X9X9X9X9X9X9X9X8X7X-X^.Y.S.b.j.i.w.<.M i u 3 3 3 <                   ",
"                      . . . . @ f +.0.d.p.j.B.J.I./.+X>X3X7X9X9X9X9X9X9X9X5X,X;X/.I.S.v.a.w.w.$.u u f 3 3 3 #                   ",
"                      . . . . . f &.4.w.p.l.n.K.Y./. X+X&X6X8X9X9X9X9X9X8X4X@X@X`.Y.D.b.a.w.4.I @ # 3 3 3 3                     ",
"                      . . . . X b O.:.4.0.w.j.Z.J.E.(.`.|.,X6X8X9X9X9X9X8X6X=X@X].T.S.b.l.w.=.v # # < < d <                     ",
"                      . . . . X < P o.<.,.0.j.B.S.I.E./.].=X4X6X7X7X8X9X9X5X=XoXoXY.I.Z.z.y.R 5 @ < 4 , , ,                     ",
"                      . . . . . X i W ;.,.0.a.b.Z.I.Y.E.`.+X;X=X=X1X6X7X7X1X=X|.^.Y.J.n.p.9.F 9 < 3 < X . X                     ",
"                      . . . . @ @ 3 L Q +.,.i.j.n.D.Y.!.!.`.`.].oX1X;X;X=X|.].(.^.U.C.x.t.` J j 3 < X . . .                     ",
"                        . . . . 4 8 f P Q #.t.l.m.D.J.Y.Y.E.T.^.].].oXoX`.T.Y.K.K.L.m.s.6.` D l # X @ @ .                       ",
"                          . . . 7 s d b m ( r.l.n.B.Z.Z.S.Z.I.I.E.E.W./.Y.I.K.n.C.m.M.7.} _ S 9 @ . # #                         ",
"                          . . X < # # p V Z  .k.c.n.n.b.B.b.D.Z.D.Z.S.K.H.A.C.z.z.g.h. .K l q ; , X . .                         ",
"                            o & < . o 0 z C [ 8.g.k.d.a.d.j.l.j.v.b.C.A.n.c.x.y.r.e.8.[ 2 * r : o . X .                         ",
"                              . . o + = q C K D ` 3.0.0.i.t.w.i.j.x.n.C.m.f.d.d.6.} ] z $ o o O o . .                           ",
"                              X . . ; = = l C A n W @.;.q.,.4.w.f.f.c.N.k.y.9.3.` ] S 5 $ = . . . O :                           ",
"                                . o * + ; 1 6 4 @ d h m ^ ;.;.4.y.q.y.f.h.7.5.U C C z 3 3 0 = .     :                           ",
"                                  . . = O , , X X , # @ a I T / ` } }  .| g f i 4 5 z 5 3 5 #                                   ",
"                                *   . . . . . . . . . O # # @ 8 C S 1 0 r O X X , 3 @ X .                                       ",
"                                        . . . . . . 3 < X @ . . = : X X o . . X 3 i X   ;                                       ",
"                                            . . . . @ X . + . . . o . . . . . X .                                               ",
"                                              X X . . . . . . . . . . o . = . X .                                               ",
"                                                  . . . . . . . @ + . . @ w *                                                   ",
"                                                X       . . . O - : . o * %                                                     ",
"                                                              + o . . . .                                                       ",
"                                                                                                                                ",
"                                                                                                                                ",
"                                                                                                                                ",
"                                                                                                                                ",
"                                                                                                                                ",
"                                                                                                                                "
};
