/* XPM */
static char *door181703585269[] = {
/* columns rows colors chars-per-pixel */
"64 64 207 2 ",
"   c None",
".  c #010101",
"X  c #0B0101",
"o  c #070807",
"O  c #090907",
"+  c #0C0C0A",
"@  c #060B09",
"#  c #130201",
"$  c #1C0101",
"%  c #150907",
"&  c #0F100D",
"*  c #15110E",
"=  c #141612",
"-  c #1B1A15",
";  c #191813",
":  c #230101",
">  c #2B0201",
",  c #2B0A08",
"<  c #340101",
"1  c #3D0101",
"2  c #380C0A",
"3  c #2B120F",
"4  c #37110D",
"5  c #251814",
"6  c #381914",
"7  c #2E221C",
"8  c #3E201A",
"9  c #2B2D23",
"0  c #430201",
"q  c #4B0202",
"w  c #4C0907",
"e  c #4B0D0B",
"r  c #420D0B",
"t  c #540202",
"y  c #5B0202",
"u  c #5B0B09",
"i  c #580A08",
"p  c #4E110D",
"a  c #58120F",
"s  c #441511",
"d  c #4A1511",
"f  c #521511",
"g  c #551914",
"h  c #5B1A15",
"j  c #630505",
"k  c #6C0404",
"l  c #6E0A09",
"z  c #740404",
"x  c #7D0404",
"c  c #780A08",
"v  c #67110E",
"b  c #74100D",
"n  c #671814",
"m  c #7B1D17",
"M  c #49241E",
"N  c #5E231C",
"B  c #54231D",
"V  c #6B221C",
"C  c #62231C",
"Z  c #78251E",
"A  c #582A22",
"S  c #7B2922",
"D  c #830404",
"F  c #8B0505",
"G  c #880908",
"H  c #940505",
"J  c #9C0606",
"K  c #9C0909",
"L  c #960A08",
"P  c #86100E",
"I  c #8A1E19",
"U  c #881A16",
"Y  c #9D1A16",
"T  c #A30606",
"R  c #AA0606",
"E  c #AD0D0C",
"W  c #BC0B0A",
"Q  c #B70808",
"!  c #BB110E",
"~  c #B41A16",
"^  c #A91E18",
"/  c #8C271F",
"(  c #9A241D",
")  c #A8271F",
"_  c #8E2921",
"`  c #802720",
"'  c #952A22",
"]  c #9A2821",
"[  c #A72A23",
"{  c #B62C22",
"}  c #CB0303",
"|  c #C50A0A",
" . c #CB0C0C",
".. c #D30C0C",
"X. c #DA0C0B",
"o. c #C5110F",
"O. c #C41C18",
"+. c #DA1615",
"@. c #EC0F0F",
"#. c #E50909",
"$. c #F30C0C",
"%. c #FB0A0A",
"&. c #EA1413",
"*. c #F41313",
"=. c #FD1414",
"-. c #FE1C1C",
";. c #F81B19",
":. c #CF201C",
">. c #D8221D",
",. c #FE211E",
"<. c #CB2B25",
"1. c #C52C22",
"2. c #D52B26",
"3. c #C9332A",
"4. c #DB322A",
"5. c #E22C25",
"6. c #EB2B25",
"7. c #FF2423",
"8. c #FF2926",
"9. c #FF2C2B",
"0. c #F52A23",
"q. c #EB342C",
"w. c #E6362E",
"e. c #FE322D",
"r. c #F6342D",
"t. c #EC3D31",
"y. c #FF3432",
"u. c #FE3B34",
"i. c #FF3D3A",
"p. c #F23C34",
"a. c #EF4036",
"s. c #FD4136",
"d. c #FF433C",
"f. c #FF493E",
"g. c #FF503E",
"h. c #FF4644",
"j. c #FF4C44",
"k. c #FF4D4B",
"l. c #FF5346",
"z. c #FF544B",
"x. c #FF594D",
"c. c #FF5452",
"v. c #FF5B54",
"b. c #FF5C5A",
"n. c #FF635C",
"m. c #FF6B5E",
"M. c #FF6456",
"N. c #FF6463",
"B. c #FF6C63",
"V. c #FF6D6C",
"C. c #FF7365",
"Z. c #FF736B",
"A. c #FF7C6A",
"S. c #FF7965",
"D. c #FF7371",
"F. c #FF7C72",
"G. c #FF866F",
"H. c #FF8375",
"J. c #FF847A",
"K. c #FF8B7B",
"L. c #FF927E",
"P. c #FF8D85",
"I. c #FF9483",
"U. c #FF9A85",
"Y. c #FF948A",
"T. c #FF9D8B",
"R. c #FF9C90",
"E. c #FFA38C",
"W. c #FFA48A",
"Q. c #FFA592",
"!. c #FFA993",
"~. c #FFAD99",
"^. c #FFB397",
"/. c #FFB49C",
"(. c #FFB99C",
"). c #FFB6A1",
"_. c #FFBBA4",
"`. c #FFBFA9",
"'. c #FFC49E",
"]. c #FFC3A3",
"[. c #FFC4AA",
"{. c #FFCCAD",
"}. c #FFC8A2",
"|. c #FFD0AE",
" X c #FFDAAE",
".X c #FFCCB2",
"XX c #FFC7B3",
"oX c #FFD4B4",
"OX c #FFDAB4",
"+X c #FFDABC",
"@X c #FFD5BB",
"#X c #FFE9B5",
"$X c #FFE0B3",
"%X c #FFDCC3",
"&X c #FFE4C2",
"*X c #FFEBCC",
"=X c #FFEAC3",
"-X c #FFF4CD",
";X c #FFEDD3",
":X c #FFF3D4",
">X c #FFFCD3",
",X c #FFFCDC",
"<X c #FFFAE4",
"1X c #FFFEEB",
"2X c #FFF5E5",
"3X c #FFFFF4",
"4X c #FFFFFE",
/* pixels */
"                                                                                                                                ",
"                                                                                                                                ",
"                                                                                                                                ",
"                                                                                                                                ",
"                                                                                                                                ",
"                                                                                                                                ",
"                                                                                                                                ",
"                                                                                                                                ",
"                                                                                                                                ",
"                                                                                                                                ",
"                                                                                                                                ",
"                                                                  X           X                                                 ",
"                                                    X :           .         . . #                                               ",
"                                                    . .           . .     . . > #                                               ",
"                                                    0 # : < : <   . . w 1 . . X . .                                             ",
"                                        0 1 0 1 1 x #.D y x y D D k 1 # : # X . . . < 1                                         ",
"                                        > 1 1 1 1 x } R z z F R } Q | G j j 1 : # X < 0 1                                       ",
"                                          1 z q q y D R R T  .#.#...$.$.W T j q 1 0 t 0 1 1                                     ",
"                                          q k l H H Q @.$.*.=.=.;.=.=.=.@.%.| H x k z t k v 1                                   ",
"                                        X : H H T | X.=.-.=.-.-.-.-.-.-.7.=.*.W E ~ U v U U 1                                   ",
"                                    X . 0 z T ....=.=.=.-.-.7.8.9.9.9.8.8.8.7.8.r.6.) / Z n q 1         5                       ",
"                                  ; + < k X.$.=.-.-.7.7.9.9.9.y.y.y.9.9.9.9.y.i.d.d.0.<.( U b w < # %                           ",
"                                . $ t z W %.=.-.7.8.9.9.i.k.k.k.k.k.k.k.i.i.h.h.d.d.u.s.5./ s f e 5 =                           ",
"                              . : 0 T @.0.-.7.7.9.9.i.k.c.b.N.N.N.N.V.b.v.n.n.l.l.d.f.u.>.m 5 4 f r                             ",
"                            . : 1 t J @.,.e.d.u.y.i.k.N.N.D.D.D.V.V.V.Z.J.K.H.B.m.l.u.e.6.) Z M g p X         +                 ",
"                          . $ 1 t F | *.-.u.h.l.h.k.N.V.D.D.F.F.F.F.J.K.I.I.T.I.H.m.l.u.u.w.[ B s v 2 O % #                     ",
"                        $ X 0 0 q W =.=.e.d.j.v.b.b.V.P.J.J.K.J.P.J.E.E.E.^.(.E.L.K.m.h.u.e.5.U 3 a 4 + @                       ",
"                        X < q j j X.=.=.9.h.v.n.Z.D.F.Y.E.U.W.U.P.Y.^.'.}.(.].(.!.W.m.x.x.u.r.Y 4 e e % .                       ",
"                      . : q q t J $.=.-.u.z.n.V.J.P.Y.R.Q./.(.W.(.}.'. XOXOXOXOX|.!.K.S.S.l.g.3.n e 0 : . .   o                 ",
"                    . . t c 1 j ..=.=.7.i.c.n.D.P.Y.R.`.oX.X(.'.#X#X-X,X,X,X>X>X=X{.W.G.S.l.s.u.[ i w u % = O .                 ",
"                    $ X 1 j q y | =.-.7.y.h.b.F.Y.`.@X*X:X,X2X<X3X1X3X3X1X,X>X-XOX}.W.L.S.M.f.p._ V h < . o . o                 ",
"                  . . , f u q l +.8.u.l.v.v.b.F.).;X2X1X3X4X4X4X4X4X4X4X3X1X,X#X{.(.W.K.m.M.f.u.] g w 1 $ . . + :               ",
"                  . . , g a L W w.f.l.M.S.J.F.R.XX<X3X3X4X4X4X4X4X4X4X4X4X4X1X*X[.Q.Y.F.v.d.u.,.E y 0 1 1 1 0 1 1               ",
"                . . X < $ : } %.*.e.j.M.J.T.T.).%X;X3X4X4X4X4X4X4X4X4X4X4X3X,X:X@X~.H.v.u.7.-.=. .Q t 0 0 q y 0 >               ",
"                . . . X . . 1 k  .j.G.K.!.Q./.XX;X<X4X4X4X4X4X4X4X4X4X4X4X3X;X*X@X(.I.v.7.-.=.=.&.F q z t 0 q t $               ",
"                . . . o o O @ - ( l.A.U.~.).`.+X:X,X3X4X4X4X4X4X4X4X4X4X4X3X;XoX_.U.H.M.d.e.,.*.| H 0 t 0 0 1 < .               ",
"                . . . & + O o @ d q.f.m.I.Q.`.%X:X<X4X4X4X4X4X4X4X4X4X3X1X,X&X/.!.Y.C.x.l.u.u.5.~ G 0 1 1 0 1 : .               ",
"                  . . . . . . . < >.d.x.m.J.Q.)..X;X2X1X3X3X3X4X3X,X,X:X&X=X&X/.U.I.m.z.j.d.e.<.V , > > 1 1 < . .               ",
"                  . . . . . . X > ~ 9.u.x.C.U.~.(..X+X<X;X-X>X<X*XOXoX+XOXoX[._.I.C.n.l.f.s.e.<.M = . X < < X . .               ",
"                    . . + . X X . j X.,.e.k.Z.T.~.`.+X+XOXOX.X[.[.).~.(.[.[.`.].U.n.l.u.9.e.e.2.S 5 . < 1 : . . .               ",
"                    X . . : $ . . < G r.i.x.H.T./.(..XoXOX_.!.Q.Q.Q.!.Q.).).~.T.K.n.d.y.9.8.2.C A M r 1 : . . .                 ",
"                        . < w X . % h 3.f.v.S.U.E.~.(.(.(.E.I.H.F.Y.E.T.E.Y.J.F.C.n.e.8.;.+.P ; 6 d f > . . . .                 ",
"                          . , o . ; M / 4.j.n.H.I.I.K.J.I.I.H.N.B.Z.H.K.K.J.C.B.n.x.u.;...z 1 < 1 1 : . . & @                   ",
"                            . . = 9 6 C / p.z.v.N.S.S.F.K.F.n.b.b.b.N.Z.Z.n.v.v.x.j.w.Y t 2 0 0 1 : . . . . .                   ",
"                            + . O O o s N _ a.j.c.n.n.B.N.c.k.N.b.k.k.k.h.i.i.j.f.s.t.O.t 0 t > # # . . . o O                   ",
"                          9 - . . . . X 2 u >.r.j.c.v.k.h.h.h.k.h.h.i.i.y.7.y.h.s.r.{ ) k 1 $ . . X X . . .                     ",
"                                . . X o 4 C <.{ [ w.i.y.y.i.y.y.y.y.9.7.7.-.-.7.3.( Z a y < . . . . . . X                       ",
"                                # X o o - M ` Z V Y O.&.-.7.-.-.-.7.7.-.;... .o.m N N w 0 < X . . . .                           ",
"                                  O @ O - 7 B C I g , j W O.&.+.*.=.+.@.Q t t u f N N k F 1 # . .                               ",
"                                  o O + 5 * 5 6 e > . X > 1 K c W | z F H q 1 1 0 w h u t 1 1 > X                               ",
"                                        r $ < # $ : . . . X : > q < $ > 1 < 1 > : > > : > > <                                   ",
"                                          # $ % . # $ X . . . . . X X X X # # # . . . . ;                                       ",
"                              o               $ # . t w . . . . . . . . $ $ . o o . . . 9                                       ",
"                                                X . $ # . . . . . . . . X X . . . . .                                           ",
"                                                      . . . . . . . . . . . X . . .                                             ",
"                                                          . . $ $ . . . . . # X >                                               ",
"                                                                .   . . .                                                       ",
"                                                                                                                                ",
"                                                                                                                                ",
"                                                                                                                                ",
"                                                                                                                                ",
"                                                                                                                                ",
"                                                                                                                                ",
"                                                                                                                                "
};
