/* XPM */
static char *door201703585270[] = {
/* columns rows colors chars-per-pixel */
"64 64 209 2 ",
"   c None",
".  c #020000",
"X  c #0B0201",
"o  c #070807",
"O  c #0B0807",
"+  c #0C0D0A",
"@  c #130101",
"#  c #1B0202",
"$  c #1C0807",
"%  c #130D0B",
"&  c #1C0C0A",
"*  c #100807",
"=  c #0F100D",
"-  c #12110E",
";  c #1C120E",
":  c #151511",
">  c #171914",
",  c #1B1A15",
"<  c #1E1F18",
"1  c #230302",
"2  c #2B0202",
"3  c #250B0A",
"4  c #2A0C0A",
"5  c #320303",
"6  c #3C0404",
"7  c #340B0A",
"8  c #360C0A",
"9  c #2A110E",
"0  c #241612",
"q  c #241A14",
"w  c #2E1813",
"e  c #361C17",
"r  c #38120E",
"t  c #23221B",
"y  c #2A211A",
"u  c #33221C",
"i  c #3C241D",
"p  c #3B2A22",
"a  c #430303",
"s  c #4B0404",
"d  c #4D0C0A",
"f  c #520404",
"g  c #5D0505",
"h  c #580B09",
"j  c #46120F",
"k  c #451511",
"l  c #561B16",
"z  c #640505",
"x  c #6C0707",
"c  c #690D0B",
"v  c #7D0707",
"b  c #750B0A",
"n  c #770807",
"m  c #61150F",
"M  c #661D18",
"N  c #791915",
"B  c #43231C",
"V  c #4D201A",
"C  c #54251E",
"Z  c #5D221C",
"A  c #67251E",
"S  c #76241D",
"D  c #59372C",
"F  c #572821",
"G  c #762F26",
"H  c #850707",
"J  c #8C0C0B",
"K  c #820808",
"L  c #9A0808",
"P  c #960505",
"I  c #84130F",
"U  c #891A16",
"Y  c #971916",
"T  c #9E1713",
"R  c #A50B0B",
"E  c #AB0909",
"W  c #BB0C0C",
"Q  c #B10909",
"!  c #B91613",
"~  c #AA1915",
"^  c #82211C",
"/  c #9B221A",
"(  c #A8221D",
")  c #BC221E",
"_  c #B5221D",
"`  c #862F26",
"'  c #A82E27",
"]  c #BB3C31",
"[  c #B82B25",
"{  c #C90A0A",
"}  c #D60D0D",
"|  c #DC0C0C",
" . c #D30202",
".. c #CE120F",
"X. c #C61A17",
"o. c #D81715",
"O. c #ED0C0C",
"+. c #E10707",
"@. c #FF0E0E",
"#. c #F40909",
"$. c #E51212",
"%. c #EC1312",
"&. c #E31917",
"*. c #E31B19",
"=. c #F51413",
"-. c #FD1414",
";. c #FF1C1B",
":. c #FA1918",
">. c #D8221E",
",. c #C8211D",
"<. c #E7231E",
"1. c #FF211D",
"2. c #F0231F",
"3. c #CB3127",
"4. c #CC312A",
"5. c #D0322A",
"6. c #EE2722",
"7. c #FF2524",
"8. c #FE2A26",
"9. c #FF2C2B",
"0. c #F32824",
"q. c #E8332B",
"w. c #FF322D",
"e. c #FF3432",
"r. c #FF3B35",
"t. c #FF3C3A",
"y. c #E73B31",
"u. c #A6473A",
"i. c #FF443D",
"p. c #FC463A",
"a. c #FF4543",
"s. c #FF4B43",
"d. c #FF4C4B",
"f. c #ED5244",
"g. c #FF5145",
"h. c #FF534B",
"j. c #FE5A4E",
"k. c #FF5552",
"l. c #FF5C54",
"z. c #FF5E5A",
"x. c #E84F43",
"c. c #C06C57",
"v. c #FF6255",
"b. c #FF6459",
"n. c #FF695C",
"m. c #FF705E",
"M. c #FF6562",
"N. c #FF6B63",
"B. c #FF6E6D",
"V. c #FF7264",
"C. c #FF746C",
"Z. c #FF7A6C",
"A. c #FA7964",
"S. c #FF7371",
"D. c #FF7B73",
"F. c #FF7C78",
"G. c #FF816F",
"H. c #FF8275",
"J. c #FF847B",
"K. c #FF8B7C",
"L. c #FF927D",
"P. c #FF8D83",
"I. c #FF8F89",
"U. c #FF9483",
"Y. c #FF9B83",
"T. c #FF958C",
"R. c #FF9C8B",
"E. c #FF9C91",
"W. c #FFA387",
"Q. c #FFA38D",
"!. c #FFA987",
"~. c #FFA592",
"^. c #FFAB94",
"/. c #FFAB9B",
"(. c #FFB595",
"). c #FFB39B",
"_. c #FFBB9B",
"`. c #FFB5A2",
"'. c #FFBCA3",
"]. c #FFBFA9",
"[. c #FFC2A3",
"{. c #FFCCA5",
"}. c #FFC6AB",
"|. c #FFCCAD",
" X c #FFD1AE",
".X c #FFDDAE",
"XX c #FFCCB3",
"oX c #FFD3B3",
"OX c #FFD6BA",
"+X c #FFDCBB",
"@X c #FFD9B3",
"#X c #FFE4B2",
"$X c #FFEABD",
"%X c #FFDCC3",
"&X c #FFE5C5",
"*X c #FFEBC3",
"=X c #FFE4CA",
"-X c #FFEBCC",
";X c #FFF3CC",
":X c #FFF1C6",
">X c #FFEED3",
",X c #FFF3D3",
"<X c #FFF2D9",
"1X c #FFFBDC",
"2X c #FFFED5",
"3X c #FFFDE4",
"4X c #FFFEEC",
"5X c #FFFFF3",
"6X c #FFFFFE",
/* pixels */
"                                                                                                                                ",
"                                                                                                                                ",
"                                                                                                                                ",
"                                                                                                                                ",
"                                                                                                                                ",
"                                                                                                                                ",
"                                                                                                                                ",
"                                                                                                                                ",
"                                                                                                                                ",
"                                                                                                                                ",
"                                                                X . .                                                           ",
"                                                                # X . X .                                                       ",
"                                                      .         # X . X . X . .                                                 ",
"                                                      X . .   . X . X X @ @ X . 1                                               ",
"                                                    #.R X 2 5 X @ X . . 5 a . X @ @ X                                           ",
"                                              .      .+.2 2 2 @ 6 2 1 X X @ . . X . X                                           ",
"                                              5 . . # 2 2 5 s H L E H z z z a @ X X . X                                         ",
"                                            6 2 @ . 1 v Q L W O.| #.| | |  .| n a # # X X                                       ",
"                                        X 6 # X 6 f J | -.O.%.-.-.-.-.-.-.-.O.Q n f d & X r q     .                             ",
"                                      . @ a 6 a R } O.-.-.;.;.;.7.;.;.;.;.;.=.%.~ Y U l w l 3 .   X X     o                     ",
"                                  t X @ # g W W =.-.;.;.;.7.7.7.7.7.9.7.7.;.;.;.<.>.( M l w o . X X @                           ",
"                                . O @ 5 1 { @.@.7.7.7.9.e.9.e.t.t.e.e.e.w.9.9.e.w.8.,.N M r 3 5 * X . %                         ",
"                              . . X # S T %.-.;.9.9.9.a.k.k.z.z.z.k.k.d.a.e.r.i.t.w.9.,.I m h 7 * * O @                         ",
"                            . X @ @ 2 X.w.e.w.9.e.e.d.k.M.B.B.S.B.M.M.z.l.l.z.h.s.s.8.7.&.J d 3 * O X                           ",
"                          . . . @ 1 s ..e.i.i.i.t.d.M.N.S.B.S.S.S.S.B.C.C.D.C.N.n.h.i.8.*.I m 3 * O . .                         ",
"                          . . X @ z { 0.i.a.h.j.d.M.F.F.B.B.S.J.F.F.K.T.K.J.H.L.G.h.s.w.7.o.b 7 # @ X .                         ",
"                        # @ . X # 6 $.7.i.v.b.N.M.B.I.I.U.P.K.K.F.J.U.R.R.U.Y.Q.K.n.g.e.8.;.E g # @ @ . .                       ",
"                      . . . 1 1 6 f $.7.i.h.M.S.J.I.T.T.R.^.(.!.~.E.^.).'.^.W.Y.L.A.j.p.r.e.>./ 1 X X . . .                     ",
"                      . 5 . X # g } ;.9.i.b.C.D.P.E.E.E./._._._._._._.{.{.[._.(.(.Q.V.n.v.h.p.3.Z $ . . . . +                   ",
"                    . o # . = $ g $.;.7.a.z.D.J.I./.`.'.+X+X{..X#X$X#X*X-X;X$X@X|.[.Y.G.m.j.r.q.G 0 - 9 7 o t =                 ",
"                    . . 2 . o 7 n o.;.8.e.l.N.E.XX%X=X<X1X4X3X4X1X5X1X3X3X2X:X+X|.(.Y.A.v.v.g.p.] B t B 5 . o o                 ",
"                  . + < q @ 1 A ` x.h.l.h.z.F./.>X5X6X6X6X6X6X6X6X6X6X4X4X1X*XoX_.W.K.A.v.j.s.y.' V 9 * . . . o o               ",
"                  . . : > o $ F u.j.b.C.J.J./.XX<X5X6X6X6X6X6X6X6X6X6X6X6X5X,X|._.T.C.N.s.r.1.*./ & . . . . . . .               ",
"                . . . . . . X 5 S f.V.Z.U.Q.XX=X3X5X6X6X6X6X6X6X6X6X6X6X6X4X,XOXXX~.Z.h.e.8.-.-.Q 4 1 X X . X . .               ",
"                . . . . . . $ 3 G G.Y.W.W.'.}.=X3X5X6X6X6X6X6X6X6X6X6X6X6X4X,X*XOX~.K.v.w.;.-.:.| b X . # # 1 @ @               ",
"                . . o o + + q u D c.W.^._.oXOX1X4X5X6X6X6X6X6X6X6X6X6X6X6X4X>XOX'.U.V.h.t.9.;.-.! 7 . X @ . . . .               ",
"              . . . + = + + - ; u u.n.L.R.'.%X=X<X5X6X6X6X6X6X6X6X6X6X5X4X4X<X|.U.Z.b.s.i.p.9.8.! # . . . . . .                 ",
"                . . . . . . . . k 3.g.m.A.U.'.'.XX=X4X4X6X6X6X6X3X4X3X-X&X&X+X}.H.Z.b.h.r.p.e.6.( q . . . . . .                 ",
"                . . . . . . X @ $ S 5.j.C.U.^./.}.].OXOX%X=X=X&X*X+X X.X+X$XoX'.L.v.v.g.p.e.8.) e , + . . . . .                 ",
"                  . . . . X @ X X 3 J 0.a.b.C.J.E./.'._.[.}.[.[.[._.).[.|.}.[.'.L.v.i.p.w.e.w._ q < o . . . . .                 ",
"                  . . . 1 s # X X # b 2.r.j.n.U.R.).).}._.^.Y.U.~.^.)._.}._.~.U.K.n.r.w.7.8.<.) Z t = . . . . .                 ",
"                    . . . 2 X . X 9 B ' p.l.V.H.K.Q.~.Q.U.K.U.K.R.W./.~.R.U.H.N.n.h.w.:.;.*.a 3 k q , : . . .                   ",
"                      . . . . X - y u C 5.i.l.V.G.L.H.H.U.H.H.C.D.K.U.K.D.C.Z.n.v.j.e.;.%.x X @ 5 % o o . . : o                 ",
"                          . . + y i B u S q.i.j.j.b.v.V.H.C.z.k.l.z.N.C.C.N.N.v.j.g.w.>.x 2 X X X . . . . . - +                 ",
"                            . - ; & w y y ^ 0.e.i.s.s.k.k.d.d.d.k.h.a.d.k.h.s.s.p.r.y.A . . # # . . . . . .                     ",
"                        , , . X . . o % ; h ! 2.r.e.i.a.t.t.a.d.a.t.e.9.9.9.1.e.p.4.[ F O X X . . . X . .                       ",
"                        <     . . . . X @ 9 k k ,.9.7.7.7.7.7.7.7.7.7.7.2.;.=.X.u.D C Z O . . . . . X .                         ",
"                              . X . . o ; ; 0 w b Y o.-.:.;.;.;.-.1.7.:.E } H 3 i i q q o . . . . . O                           ",
"                              O     . o % ; 0 3 9 j d H J %.o.%.} ..X.W a n 6 1 ; y y 3 . . . . .                               ",
"                                      % - & % ; % $ @ @ 6 v z P v f h K # 2 # X . : p N @ . . .                                 ",
"                                      r 5 a & o @ @ X X @ # a 5 6 1 # # O X . . . o : q . .                                     ",
"                                          @ X . X X X @ @ @ @ X X @ X X . . X . o o . .                                         ",
"                                            # @ . 1 # X X X X X X X . 6 2 . # # @ . .                                           ",
"                                  -           X . X X . . X X . X . . # # . . * @                                               ",
"                                                  . . . . . . . X . . . . . .                                                   ",
"                                                        . . @ @ . . . . . . .                                                   ",
"                                                              @ . . . .     .                                                   ",
"                                                                      .                                                         ",
"                                                                                                                                ",
"                                                                                                                                ",
"                                                                                                                                ",
"                                                                                                                                ",
"                                                                                                                                ",
"                                                                                                                                "
};
