/* XPM */
static char *door41703585267[] = {
/* columns rows colors chars-per-pixel */
"64 64 202 2 ",
"   c None",
".  c #020000",
"X  c #0B0101",
"o  c #070807",
"O  c #0B0807",
"+  c #0C0C0A",
"@  c #130202",
"#  c #1B0202",
"$  c #140906",
"%  c #190807",
"&  c #130C09",
"*  c #1A0C0A",
"=  c #0F100D",
"-  c #12110E",
";  c #151511",
":  c #1C1612",
">  c #1A1A15",
",  c #240202",
"<  c #2B0303",
"1  c #260A09",
"2  c #330403",
"3  c #3B0404",
"4  c #330C0A",
"5  c #3C0B0A",
"6  c #33100D",
"7  c #231F19",
"8  c #291814",
"9  c #321F19",
"0  c #391713",
"q  c #27110D",
"w  c #24241C",
"e  c #29211A",
"r  c #33201A",
"t  c #2A2A22",
"y  c #2D3026",
"u  c #342D24",
"i  c #430404",
"p  c #4A0505",
"a  c #4B0C0B",
"s  c #4A0905",
"d  c #5B0404",
"f  c #550605",
"g  c #4C120F",
"h  c #421411",
"j  c #461B16",
"k  c #571411",
"l  c #5A1915",
"z  c #650B0A",
"x  c #6A0907",
"c  c #760606",
"v  c #7B0505",
"b  c #750B0A",
"n  c #7C0F0B",
"m  c #691411",
"M  c #761714",
"N  c #4A231D",
"B  c #56231D",
"V  c #68241D",
"C  c #7F211C",
"Z  c #642C23",
"A  c #772721",
"S  c #69392E",
"D  c #850909",
"F  c #890707",
"G  c #930909",
"H  c #9D0B0B",
"J  c #900606",
"K  c #91110F",
"L  c #881512",
"P  c #921512",
"I  c #9B1311",
"U  c #AA0B0B",
"Y  c #B40A0A",
"T  c #BB0D0C",
"R  c #AE110F",
"E  c #AB1614",
"W  c #B81714",
"Q  c #98221D",
"!  c #AE211B",
"~  c #BF221E",
"^  c #832B24",
"/  c #9C2C25",
"(  c #932822",
")  c #943027",
"_  c #A72923",
"`  c #BF2620",
"'  c #AE352B",
"]  c #C80B0B",
"[  c #C3100F",
"{  c #C51814",
"}  c #D41816",
"|  c #E50E0E",
" . c #EE0E0E",
".. c #FB0F0F",
"X. c #EA100F",
"o. c #E51A17",
"O. c #ED1D1B",
"+. c #E81413",
"@. c #F41414",
"#. c #FE1515",
"$. c #FE1D1C",
"%. c #F61A19",
"&. c #D9231E",
"*. c #C7211D",
"=. c #FE201D",
"-. c #E4221C",
";. c #C92621",
":. c #C92D26",
">. c #D82D26",
",. c #C73229",
"<. c #DC3029",
"1. c #CF3930",
"2. c #FE2423",
"3. c #FE2A25",
"4. c #FE2D2B",
"5. c #F42824",
"6. c #EA322A",
"7. c #FE322C",
"8. c #F7362E",
"9. c #E33930",
"0. c #FF3433",
"q. c #F43930",
"w. c #FF3B35",
"e. c #FF3C3A",
"r. c #D94438",
"t. c #FF4036",
"y. c #FF433C",
"u. c #F54538",
"i. c #EA483A",
"p. c #FF4442",
"a. c #FF4B43",
"s. c #FF4D4B",
"d. c #FF5346",
"f. c #FF534C",
"g. c #FF5B4E",
"h. c #FF5551",
"j. c #FF5C53",
"k. c #FF5C59",
"l. c #FF6255",
"z. c #FF645B",
"x. c #FF6B5E",
"c. c #FF6462",
"v. c #FF6B62",
"b. c #FF6D68",
"n. c #FF7265",
"m. c #FF746B",
"M. c #FF796D",
"N. c #FF7C73",
"B. c #FF7671",
"V. c #FF8375",
"C. c #FF847A",
"Z. c #FF8C7C",
"A. c #FF927F",
"S. c #FF8C82",
"D. c #FF9482",
"F. c #FF9A85",
"G. c #FF9489",
"H. c #FF9B8B",
"J. c #FF9C91",
"K. c #FFA28E",
"L. c #FFA98F",
"P. c #FFA494",
"I. c #FFAC95",
"U. c #FFAC9A",
"Y. c #FFB396",
"T. c #FFB39C",
"R. c #FFBA9C",
"E. c #FFB897",
"W. c #FFB4A2",
"Q. c #FFBDA4",
"!. c #FFBCAA",
"~. c #FFC59E",
"^. c #FFC3A6",
"/. c #FFC5AC",
"(. c #FFCBAC",
"). c #FFCEA3",
"_. c #FFD4AD",
"`. c #FFCBB4",
"'. c #FFC7B5",
"]. c #FFD2B3",
"[. c #FFDCB3",
"{. c #FFD3B8",
"}. c #FFDBB8",
"|. c #FFE3BB",
" X c #FFEBBD",
".X c #FFE0B5",
"XX c #FFD9C3",
"oX c #FFE2C4",
"OX c #FFEBC2",
"+X c #FFE9CA",
"@X c #FFF4C6",
"#X c #FFF6CC",
"$X c #FFFCCA",
"%X c #FFECD4",
"&X c #FFF2D5",
"*X c #FFFCD2",
"=X c #FFF4DC",
"-X c #FFFCDE",
";X c #FFFDE5",
":X c #FFFEEA",
">X c #FFFFF4",
",X c #FFFFFE",
/* pixels */
"                                                                                                                                ",
"                                                                                                                                ",
"                                                                                                                                ",
"                                                                                                                                ",
"                                                                                                                                ",
"                                                                                                                                ",
"                                                                                                                                ",
"                                                                                                                                ",
"                                                                                                                                ",
"                                                                                                                                ",
"                                                                O . . X                                                         ",
"                                                                  . . X X &                                                     ",
"                                                            y     . X . . O .     .                                             ",
"                                      . . . . . . . . X X . o X d < a 2 X . X . . .                                             ",
"                                      . . . @ . . . . < i . . o 5 5 4 1 . . . . . . X     .                                     ",
"                                      . . . . . . . . . . . O - * 1 % $ . X X . . . @ i X . X                                   ",
"                                  . . . . . # # . . . . . . : t ; O $ 4 # . . . . . X X . .                                     ",
"                                . . . . . . < < . X @ @ 2 5 V ) M z b p # < @ . . . . . . . .                                   ",
"                              . . . . . . . . # f @ f 3 ! :.>.q.5.%.@.U F G d 2 , . . . 2 , . .                                 ",
"                              . . . . . . . . X G v [ &.q.t.y.y.0.$.#...#.| ] H x # . . < 2 X .     .                           ",
"                            . . . . . X X , d v F %.2.0.y.s.s.f.y.2.2.2.$.#.$.| Y c d p @ X # . . . .                           ",
"                            . . . . . . # J ] ..O.2.4.0.d.f.l.h.s.p.w.0.4.4.$.#... .| x < @ . . . . X                           ",
"                            . . . X . X 2 G ..2.4.e.0.p.j.z.B.m.b.h.s.s.s.w.4.2.=.#. .v 3 @ X . . X .                           ",
"                          < X . . . . 3 d U 2.4.e.w.w.h.v.B.N.C.N.N.b.k.k.p.e.w.0.2.$.@.c # $ % X . .                           ",
"                        O X . . . . X d } $.4.0.0.e.s.s.k.N.S.S.S.S.G.B.B.c.z.f.a.0.3.$.T 2 3 < X X X #                         ",
"                        @ . . . . # x [ $.2.4.0.0.p.s.k.B.S.S.G.P.J.J.J.N.B.n.v.l.p.0.3.5.T D 2 X . , d                         ",
"                        . . . . . i U ..$.4.0.0.p.s.c.c.C.S.G.J.P.J.U.J.S.m.m.M.v.j.d.a.0.+.c , % O $ <                         ",
"                        . o . . X i Y #.2.0.0.p.s.c.b.B.S.G.H.P.U.U.W.W.K.Z.Z.Z.V.N.m.x.p.2.W p < & h 6                         ",
"                      . . o . . , x  .=.0.w.p.p.c.B.B.b.G.H.P.U.Q././.{.W.U.P.L.D.C.M.z.z.a.5.E < O * X                         ",
"                  w   . + - - ; 6 R #.2.y.s.f.z.B.C.C.C.F.P.T._.}.OXOX+X_.T.Q.I.A.Z.n.v.j.d.4.I 1 $ . .                         ",
"                    - . + ; > > 7 *.#.2.y.f.h.m.C.S.G.G.Y.}.OX;X-X:X;X:X&X X}.(.^.U.Z.A.C.x.g.i.^ q O . . .                     ",
"                    . @ . o - > r ;.2.4.a.h.c.S.G.J.P.!.oX-X>X:X>X,X,X>X-X*X$X.X(.Y.D.A.C.m.x.d.9.l : & X , ,                   ",
"                    . . . X : > j &.7.t.d.v.C.F.K.Y.T.^.OX:X,X>X>X,X,X,X>X;X*X@X[.R.D.V.M.m.z.d.' B 8 - , p                     ",
"                    . . . . O : j Q 7.w.l.n.C.F.L.Y.~._.#X>X,X,X,X,X,X,X,X:X*X X[.Y.A.V.M.M.z.d.r.S u > ; w                     ",
"                  . . . . . . - e Z q.w.g.n.Z.D.Y.E.).OX;X,X,X,X,X,X,X,X,X>X;X X(.I.F.M.l.v.j.a.r.Z B : + =                     ",
"                  . . . . - 8 7 e ^ 8.t.a.z.C.F.L.R..X*X:X>X,X,X,X,X,X,X,X,X>X@X_.Y.F.n.l.h.e.7.E 5 g * . .                     ",
"                = - - . = ; e 7 7 V 6.7.t.g.m.D.F.Y. X*X;X>X,X,X,X,X,X,X,X,X>X*X}.U.A.n.k.p.4.4.U < # . . .                     ",
"                  * &   . . O 7 e B <.7.w.g.m.B.V.Y.[.@X;X>X,X,X,X,X,X,X>X>X;X+X].D.C.j.p.e.0.2.F # % X . O O                   ",
"                        . . . : 0 j ^ >.7.0.k.b.V.K.~.}.oX;X>X,X,X,X>X>X>X-X}.].!.Z.v.z.a.p.4.%.d % $ , . . X                   ",
"                          . . X & 0 L R #.$.0.d.M.D.K.Q.`.%X;X:X,X>X>X>X>X&X+X{.W.Z.v.k.f.w.3.o.f % X X < @                     ",
"                          . . . X % 2 D } #.3.d.V.A.L.R.(.|.=X;X=X;X:X;X;X+X`.Q.U.C.z.z.h.e.$.W 3 # . . X X                     ",
"                          . . X . @ # b { X.@.0.n.A.A.E.W.`.oX%X`.XX%X%X+X`.W.K.G.Z.m.x.a.2.#.T 2 # X . . .                     ",
"                          . . X . @ d n { T | 3.y.n.A.L.I.T.!.`.'.!.'.XX'.Q.I.D.A.A.V.m.d.$.] p # X X X . .                     ",
"                          . . . X . X p G H Y =.t.l.n.A.F.S.S.G.!.!.W.W.!.I.P.M.V.m.n.j.d.5.c , @ . # X . .                     ",
"                          . . . . X 2 < d c L ,.u.y.g.n.j.f.h.B.G.S.D.J.S.M.Z.d.l.l.g.t.y.<.b < X . . . . .                     ",
"                          . . . . X 3 @ # m / _ ,.0.y.y.e.e.y.e.c.k.l.V.n.j.l.y.y.g.w.7.>._ 4 * X . . . .                       ",
"                          O O O X # @ @ X B / ) ' 6.8.7.3.7.3.3.p.y.j.l.x.a.y.t.t.t.7.:.B 6 X = + . . .                         ",
"                                . . o o : N Z V V _ &.} =.2.=.3.0.0.d.g.g.t.w.=.7.-.&.Q r * . . . . .                           ",
"                                X . . . ; w q h h k E U W { -.3.8.7.t.d.0.5.O.+.} K p 4 w - . . . .                             ",
"                                . .   . o O . # @ # 3 M P E W ;.W :.~ ,.<.+.U D d < < % O o . .                                 ",
"                                .     ; . . . . . o 4 m k L P P P Q x z C I b 4 . . g 0 .                                       ",
"                                          . . . . . 1 m g l l d i a < X & 3 2 $ p @ % w       t                                 ",
"                                          X X . . . & 8 * * 4 < X o X . . , @ @ d # #     X                                     ",
"                                          # X . . . + + . o & & X = . . . ; . @                                                 ",
"                                                  . O o . . O & + w .         <                                                 ",
"                                                        . . . & $ o                                                             ",
"                                                                                                                                ",
"                                                  -                                                                             ",
"                                                                                                                                ",
"                                                                                                                                ",
"                                                                                                                                ",
"                                                                                                                                ",
"                                                                                                                                ",
"                                                                                                                                "
};
