/* XPM */
static char *door371703585272[] = {
/* columns rows colors chars-per-pixel */
"64 64 212 2 ",
"   c None",
".  c #030101",
"X  c #0B0101",
"o  c #080907",
"O  c #0C0C0A",
"+  c #050806",
"@  c #130202",
"#  c #1B0202",
"$  c #140C0A",
"%  c #1B0C0A",
"&  c #160806",
"*  c #0F100D",
"=  c #11110E",
"-  c #1C100D",
";  c #141511",
":  c #1B1511",
">  c #171813",
",  c #1A1A15",
"<  c #1C1E18",
"1  c #230303",
"2  c #2A0302",
"3  c #250806",
"4  c #270D0A",
"5  c #340303",
"6  c #3B0303",
"7  c #380D0B",
"8  c #22110D",
"9  c #2C100D",
"0  c #34100D",
"q  c #2F1511",
"w  c #231915",
"e  c #281A15",
"r  c #361E18",
"t  c #1F211B",
"y  c #29221C",
"u  c #35231C",
"i  c #3A2C23",
"p  c #2C3027",
"a  c #420404",
"s  c #4B0404",
"d  c #4D0A08",
"f  c #460A07",
"g  c #530505",
"h  c #530D0B",
"j  c #5A0606",
"k  c #44100D",
"l  c #4F110E",
"z  c #421B16",
"x  c #421814",
"c  c #5C1C17",
"v  c #6C0606",
"b  c #650807",
"n  c #7B0707",
"m  c #7D0807",
"M  c #750807",
"N  c #6A1915",
"B  c #7C1814",
"V  c #46231D",
"C  c #5B231C",
"Z  c #6E241E",
"A  c #60261F",
"S  c #79241E",
"D  c #492B23",
"F  c #5A2921",
"G  c #45332A",
"H  c #672821",
"J  c #762620",
"K  c #6A352B",
"L  c #753C31",
"P  c #7C362C",
"I  c #890707",
"U  c #840908",
"Y  c #8A0B09",
"T  c #9B0A09",
"R  c #950B0B",
"E  c #93110D",
"W  c #861915",
"Q  c #971815",
"!  c #85100A",
"~  c #AC0B0A",
"^  c #B50A0A",
"/  c #BD0B0B",
"(  c #9C231E",
")  c #84241F",
"_  c #AC231D",
"`  c #8C2A23",
"'  c #912720",
"]  c #8F3228",
"[  c #AB2D26",
"{  c #BE352C",
"}  c #AF3129",
"|  c #C60D0D",
" . c #CA0D0D",
".. c #D20C0C",
"X. c #D9100E",
"o. c #CF1413",
"O. c #C61815",
"+. c #DD1010",
"@. c #DB1B17",
"#. c #E90D0D",
"$. c #F80F0F",
"%. c #EE120F",
"&. c #E21313",
"*. c #EB1212",
"=. c #EE1C1B",
"-. c #F31010",
";. c #FE1414",
":. c #F41B19",
">. c #FF1C1B",
",. c #FF1817",
"<. c #CE221F",
"1. c #FF201B",
"2. c #C72A24",
"3. c #D4332B",
"4. c #D4352D",
"5. c #E92D28",
"6. c #FF2423",
"7. c #FF2925",
"8. c #FF2D2A",
"9. c #F42622",
"0. c #FF322D",
"q. c #F2362E",
"w. c #FF3531",
"e. c #FF3A35",
"r. c #FF3D3B",
"t. c #F83A35",
"y. c #E8372F",
"u. c #AC4035",
"i. c #CF4136",
"p. c #EC4239",
"a. c #E54136",
"s. c #FD4137",
"d. c #FF423C",
"f. c #FD493F",
"g. c #FF4642",
"h. c #FF4C44",
"j. c #FF4D4A",
"k. c #FE5146",
"l. c #FF544B",
"z. c #FF5B4F",
"x. c #F35347",
"c. c #FF5C53",
"v. c #FF5E5A",
"b. c #FF5650",
"n. c #EA5043",
"m. c #FF6356",
"M. c #FF645B",
"N. c #FF6A5D",
"B. c #FF6C64",
"V. c #FF6E68",
"C. c #FF7365",
"Z. c #FF746B",
"A. c #FF7A6D",
"S. c #FF7966",
"D. c #FF7C72",
"F. c #FF7672",
"G. c #FF826E",
"H. c #FF8374",
"J. c #FF857B",
"K. c #FF8B7B",
"L. c #FF8E75",
"P. c #FF947D",
"I. c #FF987D",
"U. c #FF8C82",
"Y. c #FF8780",
"T. c #FF9384",
"R. c #FF9C85",
"E. c #FF9589",
"W. c #FF9A8C",
"Q. c #FF9D91",
"!. c #FFA38D",
"~. c #FFA789",
"^. c #FFA493",
"/. c #FFAA95",
"(. c #FFAC9B",
"). c #FFB896",
"_. c #FFB49C",
"`. c #FFBC99",
"'. c #FFB592",
"]. c #FFB5A3",
"[. c #FFBCA4",
"{. c #FFBDA9",
"}. c #FFC49D",
"|. c #FFC3AD",
" X c #FFCAAD",
".X c #FFCAA2",
"XX c #FFD4A9",
"oX c #FFCAB4",
"OX c #FFCAB5",
"+X c #FFD2B5",
"@X c #FFDEB2",
"#X c #FFD4BB",
"$X c #FFDCBB",
"%X c #FFE3BF",
"&X c #FFE7B5",
"*X c #FFDDC4",
"=X c #FFE4C5",
"-X c #FFEAC5",
";X c #FFE6CB",
":X c #FFEBCD",
">X c #FFFECE",
",X c #FFF6C7",
"<X c #FFEDD2",
"1X c #FFF5D4",
"2X c #FFFCD3",
"3X c #FFFDDB",
"4X c #FFF7DF",
"5X c #FFFDE4",
"6X c #FFFEED",
"7X c #FFF6E4",
"8X c #FFFFF4",
"9X c #FFFFFE",
/* pixels */
"                                                                                                                                ",
"                                                                                                                                ",
"                                                                                                                                ",
"                                                                                                                                ",
"                                                                                                                                ",
"                                                                                                                                ",
"                                                                                                                                ",
"                                                                                                                                ",
"                                                                                                                                ",
"                                                                                                                                ",
"                                                                                                                                ",
"                                                                  #           .                                                 ",
"                                                                      .   g 2 . .                                               ",
"                                                            p ; . .   . . X . . .                                               ",
"                                                    . X X . > o . . & . . . # @ . @                                             ",
"                                              . . . . # a . . . . . & # @ & 6 a . 2 5 .                                         ",
"                                            X X X X X X @ # & # 1 % # a @ @ @ @ X X X . .                                       ",
"                                        . . X . X . X X X n l c E d v g 5 2 5 @ X X X . .                                       ",
"                                    . . . X . . X @ 2 2 a / 2.[ :... .| U n j 5 # @ # @ @ .                                     ",
"                                  X . @ 2 X . @ 1 v T ~ o.8.0.0.w.1.;.;.*.X.T n a 2 2 # @ X . .                                 ",
"                              . X . @ 2 1 X . 1 g o.&.;.0.e.0.e.e.0.>.>.>.,.&. .| ! a 1 # @ X .                                 ",
"                            . . . . X # g 5 a T #.;.>.8.e.e.d.d.f.w.7.6.6.6.>.,.>.@.M a f 4 - % . +                             ",
"                                . . . X b Y I / $.;.>.8.f.h.l.l.d.r.e.8.8.8.6.>.7.:.@.O.W 9 8 - O O O                           ",
"                            . . . X 2 a U ^ ^ %.;.6.7.e.z.M.N.B.B.l.h.g.d.r.e.0.7.7.0.9.N k 9 8 % $ .                           ",
"                          . . X . 2 U E T %.;.1.7.0.e.r.v.Z.A.D.H.A.N.m.m.k.l.l.r.8.8.8.2.W V u e $ @ # #   $ ,                 ",
"                            # 1 X 6 I I  .;.1.1.e.d.g.j.c.J.U.!.T.~.L.N.N.N.S.G.v.e.e.e.d.4.K L i 8 1 3 @ . $ <                 ",
"                          j s 1 a n ~ ..-.>.1.w.k.c.v.v.F.T.R./.!./.~.G.S.G.L.H.B.c.l.c.c.h.4.K G u e , & @ :                   ",
"                            . . 6 I ..;.,.1.8.s.z.N.F.D.J.W.^./.`.}.'.~.I.I.!./.W.K.D.C.M.m.p.L G G p C 6 # X                   ",
"                            X X g ..$.;.>.1.w.l.M.G.T.K.!./._._.}.}.}. X}.).[.]./.Q.T.J.S.l.s.{ D i w 7 2 + X                   ",
"                          . X 1 v $.;.,.6.7.r.m.N.G.L.P._. XXXXXXX@X@X-X$X X|._._.^.Q.T.S.k.w.5.z 8 X X & @ .                   ",
"                          4 3 s ^ -.,.>.7.w.r.c.S.K.R.~..X&X,X>X>X2X5X8X3X:X:X-X%X[.[.[.R.M.f.t.W 1 . @ # X .                   ",
"                        . 1 @ 5 ..;.6.7.8.e.j.c.Z.P.'.`.&X2X5X8X8X8X9X9X6X1X-X-X=X#XoX|./.Z.h.0.W . X @ @ X .                   ",
"                        . . X s #.;.>.6.w.r.j.M.A.!.}.}.&X5X8X9X9X9X9X9X8X3X:X-X*X*X|.{.W.B.f.q.c 3 # . . X X                   ",
"                        . X @ a ..,.>.7.w.r.b.V.Y.W.)..X,X8X9X9X9X9X9X9X8X8X7X:X<X*X{.^.D.m.l.p.F r 8 X & x 7                   ",
"                      . X . X g #.,.6.0.r.j.b.V.Y.W.`.&X2X8X9X9X9X9X9X9X9X9X6X;X*X(.(.F.M.v.c.d.<.W & X X @ X                   ",
"                      . X + X g *.1.8.0.t.j.v.F.T.!.+X,X5X9X9X9X9X9X9X9X9X9X6X:X{.Q.Y.V.j.e.e.5.v 6 X X . . . .                 ",
"                      . X $ $ s R =.6.8.w.d.c.F.W./.$X>X3X9X9X9X9X9X9X9X9X8X6X=X{.Q.F.v.g.w.w.*.s X X X . . .                   ",
"                      . . X X X 6 | >.7.8.g.c.Z.E.(.+X-X2X8X9X9X9X9X9X9X9X7X=X$X^.Q.F.j.r.w.0.^ 2 2 1 . . . .                   ",
"                      . . X . X s  .,.6.8.d.c.Z.E.(.|.+X-X5X9X9X9X9X9X9X8X4X=X#X].Q.F.j.r.8.>.I 1 . . . . . .                   ",
"                      . . X . X a | ,.>.>.7.g.Z.J.Q.[.|.+X1X6X9X8X9X9X9X8X5X*X*X{.Q.D.V.j.6.| g X X @ X 2 @ .                   ",
"                      . . . . X 5 n &.,.,.6.r.B.J.U.(.(.{.;X7X6X6X5X8X8X8X7X=XOX{.E.J.D.M.y.b 2 X X @ X @ . .                   ",
"                      . . . . . @ 5 R %.,.,.e.c.V.U.^.(.].*X;X<X:X3X7X8X7X*XOX{.(.E.J.C.h.2.N 3 X . . . . . .                   ",
"                        . . . . X @ g ~ X.6.8.l.Z.T.Q.^.].OX{.|.OX:X<X*X#X{.].].(.!.C.c.y.2.J $ . X X . . . .                   ",
"                        . . . . 5 6 a v I @.6.j.C.D.U.E.Q.^.(./.[.{.|.|./.E.T.T.K.H.N.f.` J J % X . 1 1 . .                     ",
"                          . . . 2 a 1 5 h ( 8.l.M.B.S.Z.Z.Z.K.J.W.W./.W./.A.C.M.A.N.n.} S F z & g # X X . .                     ",
"                            . . 2 5 # 8 q J { x.m.N.N.c.j.b.N.M.A.Z.A.H.J.N.N.m.x.f.i.Z N V y : 1 @ . . .                       ",
"                            . . X . X q r r L u.y.j.g.e.w.h.r.g.z.c.C.H.C.k.z.k.4.[ } A 2 o : : . . . .                         ",
"                              X . . + w r i G F ` @.>.>.6.8.7.w.g.h.c.N.m.d.d.t.[ H H 0 X . . . . + .                           ",
"                                . . ; < > e r z B Y / &.:.,.>.6.f.d.k.m.m.p.2.o.' F u X @ ; . . . > y                           ",
"                                  . ; * < % 4 % 7 6 j M / *.-.:.0.3.i.n.a.Q N b h e e . & $ +                                   ",
"                                * o + O O & h & X # 2 3 k b n E _ ' ) ] ` d g 4 @ & = . o .                                     ",
"                                , o . . . . . . . X X o 5 a 5 a B C 3 0 z @ @ X % j # . =                                       ",
"                                          . . . . . @ s 5 @ . X k : X X . . . o . # . > t                                       ",
"                                + +         . . . . . # . . . . . . . . . o + . .                                               ",
"                                                . . + + . . + + . . . . . u $                                                   ",
"                                                    . . . . . . - , . . . q @                                                   ",
"                                                          . . = O > . + O                                                       ",
"                                                              *       . .                                                       ",
"                                                                                                                                ",
"                                                                                                                                ",
"                                                                                                                                ",
"                                                                                                                                ",
"                                                                                                                                ",
"                                                                                                                                "
};
