/* XPM */
static char *door591703585275[] = {
/* columns rows colors chars-per-pixel */
"64 64 210 2 ",
"   c None",
".  c #020100",
"X  c #0B0202",
"o  c #070807",
"O  c #090907",
"+  c #0B0C09",
"@  c #130202",
"#  c #1B0302",
"$  c #140906",
"%  c #180906",
"&  c #120E0B",
"*  c #1C0D0A",
"=  c #13110E",
"-  c #1A120E",
";  c #1A1511",
":  c #171813",
">  c #230302",
",  c #2B0303",
"<  c #2C0907",
"1  c #240B09",
"2  c #2C0B09",
"3  c #250807",
"4  c #320302",
"5  c #3C0403",
"6  c #320907",
"7  c #360B09",
"8  c #22110E",
"9  c #29130F",
"0  c #3B110D",
"q  c #31120E",
"w  c #221B15",
"e  c #231E18",
"r  c #291612",
"t  c #3D1612",
"y  c #331C16",
"u  c #24241C",
"i  c #2C241C",
"p  c #430404",
"a  c #4C0404",
"s  c #480A09",
"d  c #530303",
"f  c #5A0505",
"g  c #520C0B",
"h  c #5C0F0D",
"j  c #43120E",
"k  c #4A120F",
"l  c #471A15",
"z  c #5A1511",
"x  c #610303",
"c  c #6B0504",
"v  c #6B0907",
"b  c #6B0A09",
"n  c #630C0B",
"m  c #730505",
"M  c #7A0909",
"N  c #661A16",
"B  c #751C16",
"V  c #67100E",
"C  c #4D241D",
"Z  c #54221B",
"A  c #72221C",
"S  c #572C24",
"D  c #6A3229",
"F  c #8B0505",
"G  c #870C0B",
"H  c #8D0808",
"J  c #840707",
"K  c #940A09",
"L  c #881C17",
"P  c #9D1915",
"I  c #9A1210",
"U  c #A30A0A",
"Y  c #AB0909",
"T  c #B90909",
"R  c #A9110F",
"E  c #B1100F",
"W  c #A41411",
"Q  c #A61A15",
"!  c #B91815",
"~  c #9D271F",
"^  c #A5231E",
"/  c #B7231D",
"(  c #932C23",
")  c #9A3026",
"_  c #A92620",
"`  c #BB2B24",
"'  c #B82923",
"]  c #BD332B",
"[  c #BC3C30",
"{  c #AD3028",
"}  c #C30302",
"|  c #CC0909",
" . c #DB0000",
".. c #DA0E0D",
"X. c #D8100F",
"o. c #C91917",
"O. c #DB1614",
"+. c #EF0000",
"@. c #FB0908",
"#. c #E21414",
"$. c #EC1313",
"%. c #F41413",
"&. c #FF1212",
"*. c #FE1817",
"=. c #FE1C1B",
"-. c #F41C19",
";. c #C8221E",
":. c #EE201F",
">. c #FB221E",
",. c #CB2923",
"<. c #D62B25",
"1. c #D7322A",
"2. c #EA2A24",
"3. c #E32C25",
"4. c #F22622",
"5. c #FF2522",
"6. c #F62822",
"7. c #FE2A25",
"8. c #FF2D2A",
"9. c #F52E28",
"0. c #ED342C",
"q. c #FF322D",
"w. c #FF382F",
"e. c #F4342D",
"r. c #EF3E34",
"t. c #FF3532",
"y. c #FF3B34",
"u. c #FF3E3B",
"i. c #DB4B3E",
"p. c #FF443D",
"a. c #FF473B",
"s. c #FF4542",
"d. c #FE4C43",
"f. c #FF4E49",
"g. c #FF534B",
"h. c #FF594F",
"j. c #FF5547",
"k. c #FF5451",
"l. c #FF5B53",
"z. c #FF5D5A",
"x. c #E34F43",
"c. c #FF6154",
"v. c #FF635B",
"b. c #FF6B5E",
"n. c #FF6D63",
"m. c #FF6E69",
"M. c #FF6761",
"N. c #FF7364",
"B. c #FF746B",
"V. c #FF7B6C",
"C. c #FF7C73",
"Z. c #FF7B75",
"A. c #FF8474",
"S. c #FF847A",
"D. c #FF8B7C",
"F. c #FF8976",
"G. c #FF927D",
"H. c #FF8C83",
"J. c #FF8781",
"K. c #FF9386",
"L. c #FF9B86",
"P. c #FF9489",
"I. c #FF9C8C",
"U. c #FF9C91",
"Y. c #FFA48E",
"T. c #FFAA8E",
"R. c #FFA394",
"E. c #FFAB94",
"W. c #FFA499",
"Q. c #FFAA9C",
"!. c #FFB295",
"~. c #FFB29D",
"^. c #FFBB9B",
"/. c #FFAEA2",
"(. c #FFB4A4",
"). c #FFBCA4",
"_. c #FFBCAB",
"`. c #FFB7A8",
"'. c #FFC4A2",
"]. c #FFCBA5",
"[. c #FFC4AD",
"{. c #FFCBAC",
"}. c #FFD3AC",
"|. c #FFDAAE",
" X c #FFCBB4",
".X c #FFC7B4",
"XX c #FFD3B3",
"oX c #FFDAB3",
"OX c #FFD8BC",
"+X c #FFE4B6",
"@X c #FFE8BC",
"#X c #FFE7BE",
"$X c #FFF4BF",
"%X c #FFDDC3",
"&X c #FFE2C4",
"*X c #FFEDC4",
"=X c #FFEBCD",
"-X c #FFE3C8",
";X c #FFF3C4",
":X c #FFF2CC",
">X c #FFFCCD",
",X c #FFEED2",
"<X c #FFF4D3",
"1X c #FFFBD3",
"2X c #FFFCDD",
"3X c #FFF4D8",
"4X c #FFFEE4",
"5X c #FFFFEB",
"6X c #FFFFF3",
"7X c #FFFFFE",
/* pixels */
"                                                                                                                                ",
"                                                                                                                                ",
"                                                                                                                                ",
"                                                                                                                                ",
"                                                                                                                                ",
"                                                                                                                                ",
"                                                                                                                                ",
"                                                                                                                                ",
"                                                                                                                                ",
"                                                                                O                                               ",
"                                                                . . X                                                           ",
"                                                  . . . }  .      X e + . @ @                                                   ",
"                                                . . X . Y  ., . . o - . . X X                                                   ",
"                                      X     . . . . . . # 4 . . X . . . d m $ O &     x a  .                                    ",
"                                      . . . . . . . . . . # 1 6 4 . X . F @.c # 3 . } +.} +.s +                                 ",
"                                    . . . . . . . . . . X > 0 1 , 9 e * p c 7 3 d X d F 4 c 1 o                                 ",
"                                      . o @ . . . > > , d 5 5 g n l C N 2 3 1 # @ . . X . . . . . . . X                         ",
"                                u     @ . . . . X 3 a f v M W ` ` ` ] B g k 7 , . # < X & o . . . . . X                         ",
"                                    . @ # # @ > 4 d m M M R <.r.0.y.u.o.#.R g h N t t ; ; o . . . . . . O                       ",
"                                    = & < 4 a H M J U E #.%.u.g.s.s.g.y.t.%.<.<.,.N y w & X . . X . o . o                       ",
"                              < X . ; e * V U T ..$.=.5.t.y.l.v.l.h.g.s.t.8.t.t.3.' N y $ . X X . . o . . .                     ",
"                            . X . X * y Z ^ 4.*.*.5.t.t.s.k.B.C.B.M.k.d.s.f.k.s.p.t.,.k X . . . . . . . . .                     ",
"                              . . w S D { 9.q.5.=.t.u.u.k.m.P.P.H.H.Z.z.k.v.M.v.f.p.9.U H s . . X . . . . . .                   ",
"                              . X # S i.d.p.y.5.q.s.f.z.m.S.U.U.U.U.H.J.Z.m.M.z.l.f.t.=.$.b * $ 3 , X . . . O o                 ",
"                              . X # S x.h.h.h.s.g.n.J.J.J.J.W./.W.U.U.Q.P.C.B.m.v.g.u.t.:.P z r r 2 X . . . O O                 ",
"                            @ @ # q ] a.l.c.N.N.S.R.Q.W./.(./.`.(.W.(._.R.H.S.n.z.v.s.s.u.e.^ z t t ; - # . .                   ",
"                          d > 5 , b 3.s.l.v.V.P.U./.(.`._..X.X[._._.OX.X).I.K.C.V.N.k.g.s.u.' N r ; ; o . . .                   ",
"                        . , # > p Y -.y.f.c.C.P.W.(.`._.OX,X,X%X X%X%XoX{.^.^.!.G.V.v.l.s.s.0.,.L ; O . . . .                   ",
"                        o . X 1 x X.*.8.s.z.Z.I.W.`.[..X%X3X3X2X:X*X:X;X;X|.].'.T.F.v.j.h.y.8.>.Q 2 X . @ X X .                 ",
"                          . X > G -.7.7.t.v.Z.R.[. X%X%X,X4X4X5X5X2X4X2X1X+X|.^.T.G.A.N.c.p.t.2.P 0 - 7 p # .                   ",
"                        u + % t _ t.p.p.t.k.S./.%X%X3X,X4X7X7X7X7X7X6X6X6X1X>X@XoX!.L.L.A.N.j.q./ z 8 j X . . O                 ",
"                        . . 5 h _ y.d.g.f.z.J.Q._.=X4X6X7X7X7X7X7X7X7X7X7X2X1X@XXX'.E.Y.F.V.h.d.1.h 8 & o o .   O +             ",
"                        . X # p E q.s.d.g.B.H.R..X%X3X6X7X7X7X7X7X7X7X7X7X4X1XoX).(.R.K.A.N.c.a.[ L 0 = + + o                   ",
"                        . X X a o.t.p.g.v.Z.U.Q.).[.&X4X6X7X7X7X7X7X7X7X7X2X&XXX).~.I.F.V.b.v.a.[ ) D w + = :                   ",
"                        . . @ a Y 7.f.h.B.J.H.W.`.`.XX1X5X7X7X7X7X7X7X7X7X4X*XXX'.E.D.B.l.c.h.y.<.~ C . . . o                   ",
"                      + o . . 2 ;.q.p.j.N.S.H.R.Q.(.{.*X4X7X7X7X7X7X7X7X7X2X*X{.R.K.C.k.d.d.8.-.X.M % . . . +                   ",
"                      + : + . 2 Q 0.t.p.d.v.B.J.K.R.XX;X4X7X7X7X7X7X7X6X2X1X:X{.T.D.b.g.s.8.=.&.Y f % % > .                     ",
"                    @ $ $ . X 4 c O.q.p.g.z.C.S.H.L.).+X>X4X6X6X6X6X5X<X*XoX].R.D.N.d.y.t.5.%.@.T 5 4 , p .                     ",
"                    . . @ . . , x K >.t.s.v.v.m.D.P.E.}.$X+X;X1X4X2X2XOX'.E.I.D.A.c.s.t.5.=.%...K 5 # > X .                     ",
"                        . . . X , v | >.8.u.u.k.z.n.D.^.|.].oX;X:X<X&X).~.R.I.D.V.b.d.t.7.=.*.U g a > , . .                     ",
"                      > X . . . X d F $.5.7.u.p.k.v.C.^.].'.].}.{.{..XQ.R.I.G.A.N.b.a.8.5.*.%.H 4 > p p . .                     ",
"                      . . . . X . > f X.&.=.8.t.p.l.N.E.!.!.E.R.P.R.[.I.L.D.C.b.c.j.a.8.=...J v > @ X . . .                     ",
"                            . . . X 4 F | &.=.t.d.c.N.G.G.L.A.A.S.F.A.V.V.b.c.a.a.a.w.w.*.Y 5 > X X . . .                       ",
"                            X X X o X 5 M } O.q.a.d.d.n.F.A.V.b.N.N.v.v.h.p.a.q.w.q.w.:.R b 4 > X . . . .                       ",
"                            X X . . > > , f W 8.w.t.a.d.l.v.c.c.l.d.j.d.t.q.>.>.>.q.2.I g % @ > X . . . .                       ",
"                            . . # . . . X , B ' 3.q.q.t.q.y.j.h.a.q.a.w.>.7.*.%.O.;.A 8 @ X @ . . . . .                         ",
"                              @ 5 . . X X . q 0 n ! >.7.q.y.y.w.a.7.7.7.7.$.#.K f 0 8 8 @ @ $ . . . .                           ",
"                                  . . . . . X . . a K / 0.w.q.q.7.O.o.! o.K c a , $ $ X p # . . . .                             ",
"                                    % X o o . X # , X r ( ` ( { Q v a X 5 # X @ , 7 $ . 2 8 . . .                               ",
"                                    5 7 = O . . X . = u C C i j d < 5 . . . . . p > 4 @ . = * @                                 ",
"                                      X   . . @ . o O u w & & > X * , . . . . . @ X 4 @ . o                                     ",
"                                            . X . . X w 1 . . @ X + . . o O . . # # .                                           ",
"                                                , > . . X . X X . X . o X .     p d                                             ",
"                                                # @ . . X . . . .                                                               ",
"                                                        . . . X .                                                               ",
"                                                              . .                                                               ",
"                                                                                                                                ",
"                                                                                                                                ",
"                                                                                                                                ",
"                                                                                                                                ",
"                                                                                                                                ",
"                                                                                                                                ",
"                                                                                                                                ",
"                                                                                                                                "
};
