/* XPM */
static char *door311703585271[] = {
/* columns rows colors chars-per-pixel */
"64 64 208 2 ",
"   c None",
".  c #020101",
"X  c #0C0101",
"o  c #0A0807",
"O  c #0B0C0A",
"+  c #060907",
"@  c #120101",
"#  c #1B0202",
"$  c #190906",
"%  c #150C0A",
"&  c #1C0B09",
"*  c #110907",
"=  c #0F110E",
"-  c #12120E",
";  c #1D120F",
":  c #141410",
">  c #1C1B15",
",  c #191914",
"<  c #230202",
"1  c #2B0302",
"2  c #240C0A",
"3  c #2B0C0A",
"4  c #2B0806",
"5  c #340303",
"6  c #3C0303",
"7  c #310A09",
"8  c #3B0C0A",
"9  c #3F0807",
"0  c #22100D",
"q  c #2B120E",
"w  c #38110E",
"e  c #231611",
"r  c #2B1510",
"t  c #2A1D17",
"y  c #3A1A15",
"u  c #1F211B",
"i  c #2A231C",
"p  c #20221B",
"a  c #37231C",
"s  c #440404",
"d  c #4B0404",
"f  c #430D0B",
"g  c #530404",
"h  c #5B0505",
"j  c #580B08",
"k  c #4D100D",
"l  c #57120F",
"z  c #481915",
"x  c #541C17",
"c  c #591B16",
"v  c #561A16",
"b  c #640505",
"n  c #6C0606",
"m  c #640E0C",
"M  c #730606",
"N  c #7C0606",
"B  c #7B0F0C",
"V  c #6A1D18",
"C  c #751412",
"Z  c #4B211A",
"A  c #40211A",
"S  c #542C23",
"D  c #742B22",
"F  c #7B372D",
"G  c #830909",
"H  c #8C0A09",
"J  c #880707",
"K  c #9B0C0A",
"L  c #940808",
"P  c #90100F",
"I  c #8E1814",
"U  c #971714",
"Y  c #A40909",
"T  c #AC0B0A",
"R  c #A80707",
"E  c #B10A09",
"W  c #BB0C0C",
"Q  c #BC100F",
"!  c #AE1513",
"~  c #A41916",
"^  c #B91615",
"/  c #A3100B",
"(  c #99221C",
")  c #A5221D",
"_  c #892A22",
"`  c #97372D",
"'  c #983A30",
"]  c #BE372D",
"[  c #B83F33",
"{  c #B12822",
"}  c #CC0E0D",
"|  c #D30C0B",
" . c #DD0E0E",
".. c #CD1412",
"X. c #D31211",
"o. c #DD1816",
"O. c #EB0E0E",
"+. c #E2110E",
"@. c #F2110F",
"#. c #EC1515",
"$. c #F51313",
"%. c #FE1313",
"&. c #F41817",
"*. c #FC1916",
"=. c #FD1C1B",
"-. c #F11A19",
";. c #E9241E",
":. c #FF211E",
">. c #C62822",
",. c #D72823",
"<. c #D33129",
"1. c #D6372F",
"2. c #EB2A24",
"3. c #FF2423",
"4. c #F42B26",
"5. c #FF2B26",
"6. c #FF2C2A",
"7. c #F32623",
"8. c #FF322D",
"9. c #F6322C",
"0. c #FF3432",
"q. c #FF3B35",
"w. c #FF3D3A",
"e. c #EA3B31",
"r. c #954034",
"t. c #B1473A",
"y. c #C64539",
"u. c #FF423C",
"i. c #F84A3F",
"p. c #E84137",
"a. c #DE5042",
"s. c #FF4542",
"d. c #FF4C44",
"f. c #FF4C4B",
"g. c #E75748",
"h. c #FF5146",
"j. c #FF544B",
"k. c #FF5A4E",
"l. c #FF5452",
"z. c #FF5C54",
"x. c #FF5C5A",
"c. c #FF6354",
"v. c #FF645C",
"b. c #FF695C",
"n. c #FF715F",
"m. c #FF6562",
"M. c #FF6C63",
"N. c #FF6F69",
"B. c #FF7265",
"V. c #FF756B",
"C. c #FF7A6D",
"Z. c #FF7966",
"A. c #FF7771",
"S. c #FF7D72",
"D. c #FF846F",
"F. c #FF8475",
"G. c #FF847A",
"H. c #FF8B7C",
"J. c #FF937E",
"K. c #FF8D82",
"L. c #FF9484",
"P. c #FF9984",
"I. c #FF9589",
"U. c #FF9D8C",
"Y. c #FF9F92",
"T. c #FFA287",
"R. c #FFA38B",
"E. c #FFAD8F",
"W. c #FFB08E",
"Q. c #FFA393",
"!. c #FFAA95",
"~. c #FFAD9A",
"^. c #FFA798",
"/. c #FFB393",
"(. c #FFB29C",
"). c #FFBC97",
"_. c #FFB7A2",
"`. c #FFBBA4",
"'. c #FFBAA9",
"]. c #FFC59C",
"[. c #FFD49E",
"{. c #FFC2A4",
"}. c #FFCBAE",
"|. c #FFC8AB",
" X c #FFD2A8",
".X c #FFCEB3",
"XX c #FFCEB8",
"oX c #FFD3B3",
"OX c #FFD6BA",
"+X c #FFDBBC",
"@X c #FFD8B5",
"#X c #FFE4B9",
"$X c #FFDFC3",
"%X c #FFE5C5",
"&X c #FFEBC5",
"*X c #FFE5CA",
"=X c #FFECCC",
"-X c #FFF4C3",
";X c #FFF2CC",
":X c #FFEBD2",
">X c #FFF2D4",
",X c #FFFBD3",
"<X c #FFF7DA",
"1X c #FFFCDB",
"2X c #FFFDE4",
"3X c #FFFEEA",
"4X c #FFFEF3",
"5X c #FFFFFE",
/* pixels */
"                                                                                                                                ",
"                                                                                                                                ",
"                                                                                                                                ",
"                                                                                                                                ",
"                                                                                                                                ",
"                                                                                                                                ",
"                                                                                                                                ",
"                                                                                                                                ",
"                                                                                                                                ",
"                                                                                                                                ",
"                                                                                                                                ",
"                                                                .                                                               ",
"                                                  # < # X . 1 s . .     .                                                       ",
"                                                  # 6 # X X # < . . 6 g . .         #                                           ",
"                                                    # X @ @ @ @ @ X X # X . #   .                                               ",
"                                                  X X X X @ @ @ X X @ @ < X < 5 .                                               ",
"                                                . @ < @ @ @ $ @ X . . X @ X . . . .                                             ",
"                                            X X X @ b 1 # h 1 < s # . < d < # X . . .       -                                   ",
"                                      X X X X < # 6 } N n ..! ! ..K G T E R J 5 X . . X     @                                   ",
"                                    X @ @ X # h b R %.-.7.3.6.6.3.5.3.=.$. .| Y B c c $ ; e @ X                                 ",
"                                X X @ X # 6 g N | %.=.3.3.6.8.q.0.q.6.0.6.:.=.2.4.2.<.z t q @ @ X                               ",
"                              X @ X # X 1 M M K =.:.3.6.6.0.u.f.s.j.f.s.s.s.s.s.q.8.1.{ c 2 @ @ # @ x a X                       ",
"                            X @ @ X # # 6 b Y +.3.6.6.6.w.f.l.z.l.l.l.l.x.m.V.c.d.u.i.1._ f 1 # < X e o                         ",
"                          @ @ X @ @ < s n H X.=.6.6.0.s.z.x.x.M.m.m.m.x.m.m.V.C.M.b.z.d.<.~ 8 t e X . .                         ",
"                        X X @ X @ # 6 b M +.=.6.6.w.f.x.m.m.M.N.N.N.m.N.G.A.A.S.G.F.b.f.i.e.D z & X 1 #                         ",
"                      X @ @ @ # # < g b T $.:.6.w.f.x.x.N.A.A.S.S.N.G.I.K.I.S.K.I.H.B.v.k.d.t.B 1 1 h # :                       ",
"                      @ X @ X # # < b G } =.6.w.l.x.m.m.C.H.F.F.G.F.I.U._.`.Y.Y.^.~.!.P.J.Z.t.l f 4 # + -                       ",
"                      X . . @ # # 5 n N X.:.0.l.m.N.m.m.G.G.F.H.T.W.!.`..XOXXX'..X%X~.R.J.F.g.<.' Z % = ,                       ",
"                        . @ < # # g N Y $.3.s.l.m.N.Z.V.A.H.P.T.].oX X%X>X1X>X:X>X$X~.Q.H.J.C.a.r.x ; O +                       ",
"                      . . s 6 # < n H T &.8.f.l.m.A.F.S.F.L.T.). X<X3X3X2X3X3X3X2X*X`.U.H.F.B.1.D w e % + O o   O               ",
"                    . . . X # # 1 n L  .=.q.l.m.N.A.G.F.P./.].[.>X5X5X5X4X5X3X3X2X=X.XL.C.B.j.4.~ z 0 0 q & <                   ",
"                    X . . . X < g / } $.3.f.m.V.A.A.L.T.).#X#X1X5X5X5X5X5X5X5X4X3X=X_.L.B.l.u.=...k q 2 f 1 .                   ",
"                  . . . . . @ 1 d G ! -.6.f.b.V.C.F.L.!.#X1X3X4X5X5X5X5X5X5X5X4X2XOX^.K.v.x.h.o.M 8 4 X - o .                   ",
"                  . . . . X @ 1 d H @.=.6.s.m.B.V.F.W.].<X5X5X5X5X5X5X5X5X5X5X4X2X*XR.G.b.j.d.6.K $ $ & @ # &                   ",
"                . . . . + o < 3 d H *.=.6.u.b.D.F.L.).;X3X5X5X5X5X5X5X5X5X5X5X4X*X_.U.K.N.u.0.3.T < # # @ @ # X                 ",
"              . . . . . + o 2 7 f P *.=.8.u.c.F.P./.#X1X3X5X5X5X5X5X5X5X5X5X4X:X'.U.K.G.M.s.0.*.H # X # # X X . +               ",
"              + + . . . + o 2 7 k ~ 3.3.3.u.b.F.H.{.,X,X3X4X5X5X5X5X5X5X5X4X2XoX!.I.K.A.M.k.u.8.~ < # 5 d . . .                 ",
"                  . . . . o $ 4 f P *.=.3.u.b.S.K.oX&X;X,X3X5X5X5X5X5X5X5X2X>X.X!.Y.K.A.z.d.q.9._ r < # # . . .                 ",
"                  . . . . . o 7 G X.$.%.5.q.k.M.U.oX#X%X;X1X3X5X5X5X3X4X3X<X,X%X_.^.^.G.k.u.8.>.Z y 7 X . . X X                 ",
"                    . + . . . 6 n G } *.=.6.w.j.L.`.oX+X&X,X1X3X4X<X,X2X<X;X;X$XOX(.U.Z.h.q.8.{ a t & @ @ @ @                   ",
"                    + + . X . 1 5 j T -.3.6.q.j.F./.{.oX+X+X-X,X*X@X&X+X+XOXoX}..XT.C.k.u.8.5.>.Z t k h # X .                   ",
"                    X . . . . @ 1 m ^ 3.3.6.8.u.B.T./.{. X{.@X}.!.(..X'._.~.U.U.J.H.z.u.q.3.^ f r r x w X X                     ",
"                      . . . . . 2 V ( >.7.8.q.h.b.D.J.W.!./.R.G.L.L.Q.Q.K.G.G.F.Z.B.d.q.8.o.b @ # < @ $ X - >                   ",
"                        . . . + e V ( ( ,.q.u.u.k.n.D.J.L.B.c.z.S.V.V.S.C.M.D.b.b.b.d.q.9.I 1 . @ @ X X .   >                   ",
"                          . o - : q V ) ) >.p.i.c.c.n.Z.j.w.w.f.z.k.z.v.b.v.v.k.j.i.u.8.;.V @ X # # . .                         ",
"                        : O X . . < f v V t.y.g.k.c.k.i.0.q.q.q.s.s.d.d.j.j.d.h.i.q.8.;.~ 6 # @ X X . .                         ",
"                        >   O O . X X < e F r.t.p.k.u.5.=.6.6.6.q.w.u.u.8.q.5.8.u.8.;.( f # X % O . .                           ",
"                              # . . o @ O S F _ ` <.9.*.@.*.*.=.6.6.8.0.3.=.%.%.;.>.( y e X . . o .                             ",
"                                  . o . - i q y x C ! .. .@.O.@.=.:.*.:.-.#.O. .U I z , : . . . .                               ",
"                                . + p o + + . . . # 5 b H W X.W Q ! T Q G E T K d k t x 2 . .                                   ",
"                                      : . . . . X @ @ # 5 s G N n h N M d g j f # O u i # . .                                   ",
"                                    a a . . . . X @ @ @ # # 1 5 s s s 5 7 1 # # @ . O : + .                                     ",
"                                        X . . . . . X X < # 6 . @ - X X * @ @ d 1 o . .                                         ",
"                                              . . . . . . . X . . O . . . . . s 6 X .                                           ",
"                                                . . . . . . . o . . . . . . . . .         :                                     ",
"                                                    . . . . X # . . . . . . . .                                                 ",
"                                                      . . . . . . . .                                                           ",
"                                                          . .                                                                   ",
"                                                                                                                                ",
"                                                                                                                                ",
"                                                                                                                                ",
"                                                                                                                                ",
"                                                                                                                                ",
"                                                                                                                                "
};
