/* XPM */
static char *door441703585273[] = {
/* columns rows colors chars-per-pixel */
"64 64 208 2 ",
"   c None",
".  c #020000",
"X  c #0B0101",
"o  c #070807",
"O  c #0B0807",
"+  c #0D0D0A",
"@  c #130202",
"#  c #1C0202",
"$  c #120C0A",
"%  c #1C0B0A",
"&  c #190806",
"*  c #13120E",
"=  c #1A110D",
"-  c #191410",
";  c #1C1A15",
":  c #161813",
">  c #240302",
",  c #2B0303",
"<  c #230C0A",
"1  c #2B0C0A",
"2  c #280907",
"3  c #330303",
"4  c #3D0303",
"5  c #3B0907",
"6  c #350C0A",
"7  c #24120E",
"8  c #31100E",
"9  c #241511",
"0  c #241A15",
"q  c #2B1F19",
"w  c #2A1914",
"e  c #3B1511",
"r  c #311A15",
"t  c #391D18",
"y  c #2B241D",
"u  c #37221B",
"i  c #33372B",
"p  c #420404",
"a  c #4B0304",
"s  c #440806",
"d  c #430C0A",
"f  c #480C0B",
"g  c #520505",
"h  c #5D0505",
"j  c #540D0A",
"k  c #46110E",
"l  c #55120F",
"z  c #4B1C17",
"x  c #481814",
"c  c #581915",
"v  c #630606",
"b  c #670907",
"n  c #6D0606",
"m  c #730D0C",
"M  c #7C0B09",
"N  c #780606",
"B  c #661713",
"V  c #7A1D18",
"C  c #5C251E",
"Z  c #46251D",
"A  c #63221C",
"S  c #6F251F",
"D  c #79231D",
"F  c #482A22",
"G  c #5F3127",
"H  c #763027",
"J  c #820606",
"K  c #8C0B09",
"L  c #880808",
"P  c #970505",
"I  c #930909",
"U  c #9E0C0C",
"Y  c #9E0707",
"T  c #8B110F",
"R  c #891815",
"E  c #941916",
"W  c #951D19",
"Q  c #A60B0B",
"!  c #B30A0A",
"~  c #BD0D0C",
"^  c #B90707",
"/  c #AB100F",
"(  c #A71814",
")  c #A91413",
"_  c #B61614",
"`  c #84251E",
"'  c #9B231D",
"]  c #BD221D",
"[  c #B7271F",
"{  c #A9241F",
"}  c #932A23",
"|  c #992A24",
" . c #93372D",
".. c #B92A24",
"X. c #CB0C0C",
"o. c #C30A0A",
"O. c #D40E0D",
"+. c #DB0D0D",
"@. c #C3100F",
"#. c #C61916",
"$. c #DF1A17",
"%. c #E90B0A",
"&. c #F70E0D",
"*. c #F9110F",
"=. c #E91515",
"-. c #F51413",
";. c #FD1414",
":. c #F51917",
">. c #FF1816",
",. c #FF1C1B",
"<. c #F41E1D",
"1. c #DF201B",
"2. c #EF231F",
"3. c #FE211E",
"4. c #CE2923",
"5. c #D62D26",
"6. c #DA2822",
"7. c #C9342B",
"8. c #DD352E",
"9. c #D13930",
"0. c #C83E33",
"q. c #EE2B25",
"w. c #E52823",
"e. c #FF2422",
"r. c #FD2825",
"t. c #FE2D2B",
"y. c #F12D27",
"u. c #E4342D",
"i. c #EA352D",
"p. c #FE322C",
"a. c #F2352D",
"s. c #E73D33",
"d. c #FF3432",
"f. c #FF3B35",
"g. c #FF3D3A",
"h. c #FF433C",
"j. c #FF4B3E",
"k. c #E94639",
"l. c #FF4642",
"z. c #FF4B43",
"x. c #FF4D49",
"c. c #FF5244",
"v. c #FF534C",
"b. c #FF5A4D",
"n. c #FF5752",
"m. c #FF5C54",
"M. c #FF5D59",
"N. c #FF6254",
"B. c #FF645A",
"V. c #FF6B5C",
"C. c #FF6857",
"Z. c #FF6761",
"A. c #FF6C63",
"S. c #FF6F6A",
"D. c #FF7363",
"F. c #FF736B",
"G. c #FF7A6C",
"H. c #FF7A67",
"J. c #FF7670",
"K. c #FF7C74",
"L. c #FF7E78",
"P. c #FF8575",
"I. c #FF847A",
"U. c #FF8B7C",
"Y. c #FF8975",
"T. c #FF917C",
"R. c #FF8C83",
"E. c #FF9282",
"W. c #FF9A84",
"Q. c #FF958B",
"!. c #FF9B8D",
"~. c #FF9C91",
"^. c #FFA28D",
"/. c #FFA493",
"(. c #FFA993",
"). c #FFA799",
"_. c #FFAB9B",
"`. c #FFB195",
"'. c #FFB49D",
"]. c #FFBA9F",
"[. c #FFB4A2",
"{. c #FFBCA4",
"}. c #FFBBA8",
"|. c #FFC2A5",
" X c #FFC4AB",
".X c #FFCCAC",
"XX c #FFD0AD",
"oX c #FFCDB2",
"OX c #FFD4B4",
"+X c #FFDBB6",
"@X c #FFD5B9",
"#X c #FFDABA",
"$X c #FFE3BB",
"%X c #FFDEC0",
"&X c #FFEAC4",
"*X c #FFECCA",
"=X c #FFE1C1",
"-X c #FFF2CB",
";X c #FFF9CE",
":X c #FFF4C7",
">X c #FFF2D2",
",X c #FFFAD4",
"<X c #FFFEDC",
"1X c #FFF6DD",
"2X c #FFFDE3",
"3X c #FFFFEC",
"4X c #FFFFF3",
"5X c #FFFFFE",
/* pixels */
"                                                                                                                                ",
"                                                                                                                                ",
"                                                                                                                                ",
"                                                                                                                                ",
"                                                                                                                                ",
"                                                                                                                                ",
"                                                                                                                                ",
"                                                                                                                                ",
"                                                                                                                                ",
"                                                                                                                                ",
"                                                            : +                                                                 ",
"                                                          . + . . .                                                             ",
"                                                    . . . . . X . . X . +               X                                       ",
"                                            . . . . . . . . & 5 # O = X . .             . X                                     ",
"                                          . . . . . . X . . e W s X % @ X . . .         X X .                                   ",
"                                        . . X X . X X . X & r 0 X > # p 3 % . . . . 3 X X # X .                                 ",
"                                    . . . X N # X X # # w e z z k d 5 3 , 6 X X X . X X . X X .                                 ",
"                                  . . . . , a X O # b j x z z z B V c v 4 f 4 @ # X X X X X . X X                               ",
"                                . . . . X > . @ > g ^ @.V V c S R [ ' o.Q J N a # X O - o . . . X                               ",
"                            . . . . . . X X 1 I I K %.;.q.w.8.k.a.p.q.;.-.-.X.K v > < , X . X . . .                             ",
"                          . . . . O * $ # l U -.-.=.,.e.d.g.b.v.j.h.p.>.3.;.*.%.! L L P 3 X . X X .                             ",
"                        o . . . * + X O , M ! =.3.e.3.t.f.l.V.B.m.C.h.e.3.3.3.;.-.2.&.%.a , X , X . .                           ",
"                          # X , O + X X d #.6.r.e.e.d.d.l.B.G.D.G.H.m.h.h.p.p.p.f.3.%.! N p 3 . X X .                           ",
"                          > , a X X @ d _ t.f.f.d.d.x.n.Z.A.I.P.T.W.P.G.C.j.h.j.h.e.*.O.o.I s @ # X .                           ",
"                            . X X X 3 ) u.h.c.z.z.g.n.x.F.P.W.^.(.(.).^.Y.V.b.b.h.e.>.-.&.O.b > # X . .                         ",
"                            @ @ X # I =.g.N.V.V.N.n.v.M.F.I./.].|.{.OXoX/.P.D.b.f.3.,.>.*.*.M 3 > X X @                         ",
"                            @ 3 , h X.,.h.N.D.H.D.D.A.K.U.^.{. XoX#X$X@X'.W.P.N.z.d.t.,.*.;.o.M j # X .                         ",
"                          . h a # Y ;.e.z.n.D.P.U.U.!.{.{.OX&XOX&X;X-X*X|.^.I.G.m.x.h.t.>.;.-.~ p > # .                         ",
"                          . , > X n ;.t.x.v.G.W.(.`.`.{.#X*X<X<X2X<X,X1X#X).T.K.N.x.v.f.p.>.;.@.h , X . .                       ",
"                          X 3 < 1 ) r.f.g.n.G.`.].|..XOX*X1X4X5X5X3X<X<X&X{.'.Y.A.D.N.z.r.;.>.$.L s X . .     X                 ",
"                      i + X 9 y C q.h.z.g.n.I.(.|.+X&X:X,X4X5X5X5X5X4X4X2X;X$X.X].W.Y.G.b.h.f.p.] l 2 X . 3 >                   ",
"                        X , # q Z 7.h.c.v.F.E.!..X,X<X<X3X5X5X5X5X5X5X5X3X<X*X.X|.^.Y.Y.D.b.c.c.7.z Z % X X @                   ",
"                      . X X X 2 ` 8.h.b.B.U.^.(.@X;X<X2X4X5X5X5X5X5X5X5X4X,X$XXX|.^.T.Y.D.C.N.j.k.D x = X . .                   ",
"                      . X X @ @ D a.h.v.G.^.!._. XOX>X2X4X5X5X5X5X5X5X5X4X;X$X.X|.^.T.Y.V.C.b.j.k. .G y = ; ;                   ",
"                      X . X @ @ F 0.c.m.P.Q.~.[.#XoX+X<X5X5X5X5X5X5X5X5X4X,X$X|.{./.W.S.z.v.j.f.9.H F 0 * +                     ",
"                      . . . ; 0 u  .h.v.A.U.R.[.OX+X#X>X4X5X5X5X5X5X5X5X4X<X:X|.}./.R.n.h.j.t.3.#.x % O X o                     ",
"                      + . o : y C ' f.j.B.K.L.Q./. X#X>X3X5X5X5X5X5X5X3X<X;X:X@X}.Q.L.x.l.f.3.;.! p & X . +   X                 ",
"                      O X . . 6 S | a.j.V.F.I.R.!.[. X#X>X2X2X3X5X5X4X1X$X.X X X[.S.Z.f.t.e.,.-.! n 4 X X                       ",
"                      . % . . X 9 C 5.h.M.S.F.L.~./.[.}..X#X>X<X2X2X<X#X].'././.~.S.x.t.e.e.:.+.L & @ X .                       ",
"                      . . . . . X 6 E 1.d.l.n.S.L.R.Q.).[. X*X>X*X:X*X.X_.).!.Q.R.J.g.d.d.3.-./ g @ . . .                       ",
"                      . . @ 4 . X a K _ 3.f.v.S.R.R.R.Q.}.}.@X@X.X#X%X[.~._.~.Q.K.Z.g.d.r.:.O.L , X . . .                       ",
"                      . . X 3 # X 2 v Q ;.t.g.M.K.I.R.Q.}. X@XoX[.{.}.)._.~.Q.L.Z.n.x.f.,.O.! N > . . . .                       ",
"                      . . . > v X @ 3 J @.3.d.Z.F.F.K.Q.).}.@X}.[._.~.)._.~.R.Z.M.x.l.g.r.O.Y 4 # , . . X @                     ",
"                      . . . , , X @ , g J :.e.g.n.B.S.K.R.).[._._.R.K.R.R.R.F.l.z.z.f.a.5._ a . @ @ . . X X                     ",
"                        . . X . # , X 3 3 L <.d.z.n.m.Z.M.K.R././.R.K.F.Z.M.x.t.d.p.p.y.4.{ 6 . . . . . .                       ",
"                          . . . X , @ # @ 5 4.f.l.z.v.v.v.Z.D.K.I.J.Z.B.n.g.d.e.,.t.y.w...A @ . . . . .                         ",
"                            o . X # X @ < z ` ..i.g.z.h.v.m.m.N.A.n.v.l.h.p.e.;.;.q.5.} C % X . . . . .                         ",
"                            + . . X X X % t t V | | u.h.v.v.v.c.x.g.d.d.d.e.,.:.X.Q B t y + X > X . . X                         ",
"                                . . & X 9 r r A A e T 6.s.h.f.f.t.r.:.w.r.#.#.( m h X O ; * @ # . . . .                         ",
"                                . . 3 5 0 $ O r 1 3 s k ` ..] T / ) m V E l x f , , X o + . . . .                               ",
"                                .     X X . . . @ # # 7 9 # # # , 1 1 z e = = $ O @ X . . . . +                                 ",
"                                        . X X . . # > @ @ @ X @ & % % 9 - $ + o . # @ o o   + y                                 ",
"                                          X     > . . . . . . @ % o O * * + + O .                                               ",
"                                          .               X . . O O O 8 + +                                                     ",
"                                                          X   . o O . . o +     @                                               ",
"                                                                @ +   . . .                                                     ",
"                                                                                                                                ",
"                                                              +                                                                 ",
"                                                                  +                                                             ",
"                                                                  O                                                             ",
"                                                                                                                                ",
"                                                                                                                                ",
"                                                                                                                                ",
"                                                                                                                                "
};
