/* XPM */
static char *tile0041703409407[] = {
/* columns rows colors chars-per-pixel */
"64 64 219 2 ",
"   c None",
".  c #8E4EBD",
"X  c #9B6DBB",
"o  c #9C71BA",
"O  c #A074B9",
"+  c #892DD7",
"@  c #9639DB",
"#  c #9237D9",
"$  c #9345CA",
"%  c #9B49D5",
"&  c #A05ECC",
"*  c #A04ED2",
"=  c #A354D5",
"-  c #A75FD7",
";  c #A55FDD",
":  c #A95EDE",
">  c #9E6BC4",
",  c #9E66CF",
"<  c #9D6ACC",
"1  c #9E71C3",
"2  c #9F66D4",
"3  c #9E69D2",
"4  c #9F64D9",
"5  c #A26AC5",
"6  c #A166CC",
"7  c #A36BCB",
"8  c #A96BCE",
"9  c #AB74CC",
"0  c #AA7BCB",
"q  c #AC7DC6",
"w  c #B47ACB",
"e  c #A465D3",
"r  c #A965D6",
"t  c #A36BD3",
"y  c #AA6BD2",
"u  c #A463DB",
"i  c #AA64DC",
"p  c #AD6CDB",
"a  c #A669D9",
"s  c #B26CDE",
"d  c #B36AD6",
"f  c #AC73D4",
"g  c #AD72DF",
"h  c #B374D5",
"j  c #B57BD3",
"k  c #B472DD",
"l  c #BA7DDA",
"z  c #A65FE3",
"x  c #AB5EE4",
"c  c #A65DEA",
"v  c #AB5DEC",
"b  c #B25CEE",
"n  c #AF5DF2",
"m  c #B458F1",
"M  c #A661E1",
"N  c #AC65E3",
"B  c #AD69E6",
"V  c #AE62EA",
"C  c #A667E6",
"Z  c #B364E2",
"A  c #B26CE4",
"S  c #B46BEB",
"D  c #BB6AED",
"F  c #B464EA",
"G  c #B673E5",
"H  c #BB74E4",
"J  c #B779E4",
"K  c #BE7FE3",
"L  c #BC75EB",
"P  c #B763F4",
"I  c #B964F4",
"U  c #BB6DF3",
"Y  c #BD72F2",
"T  c #BD7BF2",
"R  c #C27EE4",
"E  c #C177ED",
"W  c #C47BEE",
"Q  c #C173F3",
"!  c #C47BF3",
"~  c #C87FF4",
"^  c #C97AF9",
"/  c #C67FF8",
"(  c #A982CA",
")  c #BD94CA",
"_  c #B983D4",
"`  c #BA84DB",
"'  c #BE8BDC",
"]  c #B98DD5",
"[  c #BA93DD",
"{  c #BD89E7",
"}  c #C082DE",
"|  c #C08BD9",
" . c #C29CD2",
".. c #C994DC",
"X. c #C29CDB",
"o. c #C192DE",
"O. c #CCA5DD",
"+. c #CCAADE",
"@. c #C7A7DC",
"#. c #C385E5",
"$. c #C38CE4",
"%. c #C486EC",
"&. c #C984ED",
"*. c #C38CEC",
"=. c #CB8CEE",
"-. c #CA8EE2",
";. c #D08DEE",
":. c #C694E5",
">. c #CB95E6",
",. c #C39BE1",
"<. c #CE9CE2",
"1. c #C593EB",
"2. c #CD93EC",
"3. c #CD9BEC",
"4. c #D097E7",
"5. c #D393EB",
"6. c #D59BED",
"7. c #D99FED",
"8. c #C684F3",
"9. c #CB84F4",
"0. c #C68DF1",
"q. c #CB8CF3",
"w. c #CC8BF9",
"e. c #C785F9",
"r. c #D18CF8",
"t. c #CE94F3",
"y. c #CF95F4",
"u. c #D394F5",
"i. c #D59BF4",
"p. c #DB9BF5",
"a. c #D293F9",
"s. c #D59CFA",
"d. c #DA9DFC",
"f. c #D891F8",
"g. c #E09DFF",
"h. c #CCABE2",
"j. c #CDA3E0",
"k. c #D2A3E6",
"l. c #D3ACE5",
"z. c #D3A3EC",
"x. c #D9A4ED",
"c. c #D6ACEC",
"v. c #DCACED",
"b. c #D5B2E5",
"n. c #D8B6E5",
"m. c #DCBCE6",
"M. c #D6B5EA",
"N. c #DEB5EB",
"B. c #DDBCED",
"V. c #D5A4F5",
"C. c #DAA4F5",
"Z. c #D5ADF3",
"A. c #DBABF4",
"S. c #D6A3FB",
"D. c #DBA2FC",
"F. c #D7AAF9",
"G. c #DCACFA",
"H. c #DCB2F5",
"J. c #DEBDF3",
"K. c #DEB3FA",
"L. c #DFBBFC",
"P. c #E2B3EC",
"I. c #E2BCEE",
"U. c #E0A3FB",
"Y. c #E3ACFA",
"T. c #E1A9F6",
"R. c #E1B4F5",
"E. c #E3BCF5",
"W. c #ECBCF5",
"Q. c #E2B5FC",
"!. c #EAB3FB",
"~. c #E3BAFD",
"^. c #E9BDFB",
"/. c #E8B6F4",
"(. c #F0BEFA",
"). c #DAC4E3",
"_. c #DCC2EF",
"`. c #DCCDE9",
"'. c #DDC3F3",
"]. c #DBC9F2",
"[. c #E2C6EC",
"{. c #E4CCED",
"}. c #E9CDEF",
"|. c #E5D2EC",
" X c #EAD5EF",
".X c #EADCED",
"XX c #E1D4E7",
"oX c #E3C3F4",
"OX c #EAC4F6",
"+X c #E5CBF3",
"@X c #EACCF5",
"#X c #E6C4FB",
"$X c #EAC5FB",
"%X c #E7C9FB",
"&X c #EACBFA",
"*X c #F1CEF6",
"=X c #F3CCFA",
"-X c #F9CDFB",
";X c #E5D2F2",
":X c #ECD4F5",
">X c #EDDBF4",
",X c #ECD3FA",
"<X c #F4D3F6",
"1X c #F2DCF6",
"2X c #F4D3FA",
"3X c #FAD2FC",
"4X c #F4DDFA",
"5X c #EEE3F2",
"6X c #F3E4F5",
"7X c #F1ECF4",
"8X c #F5E2F9",
"9X c #FBE4FC",
"0X c #F6EAF9",
"qX c #FCECFD",
"wX c #F9EAF6",
"eX c #FCFBF6",
"rX c #F6F2F9",
"tX c #FCF4FC",
"yX c #FDFCFC",
/* pixels */
"                                                                                                                                ",
"                          < V v c v c i                                                                                         ",
"                          < x m m x x u                                                                                         ",
"                              : L P.P.P. .6 a a y 5         O 8 y y y y y y 8 y 8 8 O                                           ",
"                              u %.9XqXqXO.u z x M 6         5 x x V x x F x x x x i 5                                           ",
"                              u L N.[.:XM.:.<.k.>.$.j     w } W ! W ! ! W W W W ! W R w                                         ",
"                              u P %.3.R.%X,X9X9X<XR.H x b s u.D.D.d.D.D.D.D.U.d.D.D.d.G : x 6                                   ",
"                              > A 9.q.Q.$X,X8X9X XR.{ x F s s.D.Z.c.c.c.v.c.c.v.c.c.V.J V V 8                                   ",
"                                  i U q.H.%X&X:X:X@XR.C.C.T.$X&X4X4X9X4X8X4X4X4X4X4X1XR.C.a.q.p i e                             ",
"                                  V I 8.F.%X$X&X&X2XOX/.W.OX2X>XwXtXtXqXqXtXqXtXqXtXwX@XQ.c.i.s v V r                           ",
"                                  c P 9.p.~.$X$X&X&XOX$X#X#X%X,XqX7X>X:X>X,X>X,X,X,X,X,X$X,X@Xz.r.q.%.7                         ",
"                                  v P 9.7.E.#X$X$X$X$X%X%X$X+X{.rX0X+X%X#X&X%X%X%X%X%X,X1XqX9XoXQ.F.w.i <                       ",
"                                  v I ;.M.OX%X&X=X%X:X X+X#X X.XtXrX;X,X%X%X#X#X%X%X%X,X,X9X8X+XB.H.6.A g                       ",
"                                  : L Y.&X9X>X%X%X@X8XtX;X].0XyXyXyXtX8XI.~.#XL.~.%X%X%X%X%X%X,X2X9X@Xi.q.a                     ",
"                                  r { E.1XqX1X#X%X+X8XqX+X].9XrXyXyXrX8XJ.L.L.L.L.#X%X#X%X#X%X&X,XqX1Xn.>.N                     ",
"                              o h u.Z.4X:X:X+XL.L.~.'.+X'.J.+X{.rX7X`.].L.~.~.L.~.~.~.~.~.#X#X%X,X,X,X4X@Xu.{ 5                 ",
"                              6 G z.B.0X>XoX#X~.~.~.~.L.~.Q.L.[.tX6X'.~.~.~.~.~.~.~.~.~.~.~.~.#X%X&X,XqX1Xz.W M                 ",
"                              H %.I.{.4X,X%X~.~.~.~.~.~.~.~.L.oX1X:XL.Q.~.Q.~.~.~.~.~.~.~.~.~.$X#X#X&X4X1XE.&.x                 ",
"                          t p u.I.9X8X@X#X~.~.~.~.~.~.~.~.~.~.~.oXJ.L.~.~.~.L.~.~.~.~.~.~.~.~.~.~.E.#X%X:XqX6.v                 ",
"                          M V c.[.9X1X%X~.Q.Q.Q.L.K.K.L.Q.Q.Q.Q.~.L.~.~.~.~.~.~.Q.~.~.~.~.~.~.~.~.~.~.#X&X9Xz.Z h               ",
"                          v S <X6X@XOXJ.H.F.S.V.S.F.V.S.F.S.S.F.~.~.Q.~.~.~.~.~.~.~.L.~.~.~.~.~.~.~.~.~.E.@XR.p.#.3             ",
"                          - f <X8X%X#X~.G.D.D.D.d.S.S.S.D.S.S.F.Q.~.~.~.~.~.~.~.~.L.L.~.~.~.~.~.~.~.~.~.~.+XJ.x.W i             ",
"                          -.<.<X:X%X~.H.G.D.s.a.a.a.a.a.r.y.S.S.G.G.G.K.~.~.~.~.Q.L.L.L.~.A.G.K.G.~.~.!.^.OX+X@X;.:             ",
"                      6 f A.E.,X&XL.K.V.D.D.t.{ %.%.%.%.%.*.s.S.D.C.V.G.K.~.~.~.~.L.L.~.!.F.V.z.A.^.Q.^.~.E.:XqXz.;             ",
"                      u A E.:X&XOXH.G.i.a.u.z.M.b.M.M.M.b.l.3.s.a.s.D.S.K.Q.~.~.~.~.~.K.A.{ l P.R.Q.Q.~.~.E.@X1Xk.J j           ",
"                      z G <X9X:XE.V.u.=.8.*.B.tXtXtXtXtXyX8X:.8.e.w.d.S.V.K.~.~.L.~.~.A.4.# . <X>XV.Z.Q.~.~.E.E.T.d.h >         ",
"                      u A 3X9X@X~.D.u.1.*.[ ).yXyXyXyXyXyX0X@.*.{ :.D.d.D.G.~.~.~.G.F.y.W @ $ }.@XC.U.!.~.~.~.~.K.p.H z         ",
"                      u G @X>XH.C.q.k.;X>X>X7XyXyXyXyXyXeXeX>X>X>X_.:.u.D.Y.!.^.~.F.S.w.Q @ @ 6 f w.w.2.i.!.~.~.Q.Y.E m         ",
"                      u A $X&XA.u.#.h.tXeXeXeXyXyXyXeXtXyXeXyXyXyX|.' q.s.G.K.~.Q.F.S.w.Q # + + % ~ 8.8.t.~.~.~.L.Q.Y x         ",
"                      h R $X=XV.V.O.).yXeXeX6X}.@X;X}.}.}..XrXyXyX5Xh.k.{ y.F.G.~.F.S.w.9.= * = d 5.2.9.r.C.R.~.~.Q.L x         ",
"                  1 < 6.!.OXW.1.k.9XtXyXrXtX+.r p r i p t ( 6XyXyXyXtX@X*.a.D.G.~.F.S.r.2.s.V.~.$X$XG.8.8.#.k.~.~.Q.J z         ",
"                  a C p.W.%X~.1.h.tXrX5X1X1X@.6 r r r r 3 0  X1X>X7XyX:X0.a.D.G.~.F.d.q.:.Z.M.@X&X;X_.X.,.X.k.Q.J.R.` p         ",
"                  r v U.%X~.Q.*.l.tXXXq k 9                 0 h h @.rX:X%.u.D.Y.~.F.S.z.z.1XtXtXtXtXrX0X0X8Xm.:.i.~.Y.T.j O     ",
"                  r x C.%X^.R.*.h.tX_.i c u                 3 v c _ tX:X9.a.C.G.Q.G.C.W./.wXyXyXyXyXyXyXyXyXm.` k.E./.!.H 6     ",
"                  u V C.^.C.c.n.n.b.h.                        3 e ] b.k.T r.C.G.Q.i.p.C.7.l.n.M.M.n.[.tXyXeX.Xn._..XoXQ.5.#.    ",
"                  i v p.K.=.:.wX[.> >                               2 B r W D.d.d.w.^ A > a x x M i { tXyXyXtXtXyXtX{.E.E.A.s i ",
"                  u n i.Q.q.0.'.n.7                                 5 g r W U.q.L S A 9   f a a a e ] [.@X@X+X{.6XeX.X@X{.B.S v ",
"                  i n p.Q.%.! C 1                                       M ! g.#.i x 6                 t i N F a h.eXeXeXtX1XA x ",
"                  u b p.Q.q.^ P 3                                       M D W l                       a u c v e O.tXtXtXtX1X9 e ",
"                  i v p.Q.0.^ b a                                       e x e                                   )  .X.X.X. .    ",
"                  i v p.Q.0.^ x e                                                                                 6 z e u >     ",
"                  u v p.!.A.6.s e                                                                                               ",
"                u x i.^.=X(.s a                                                                                                 ",
"                i V p.#X=X%Xf 7                                                                                                 ",
"              a Q 9.G.L.R.E.-Xv.i c i                                                                                           ",
"          < G ! f.C.R.L.E.~.OXI.V.x.z.o.                                                                                        ",
"          M U 9.T.^.oX~.E.~.L.oX2X-X3X>.                                                                                        ",
"        5 ~ u.!.~.E.%X$X>.2.Q.J.J.OX&X=X..5                                                                                     ",
"        ; q.7.E.~.J.@X$X;.9.T.!.~.#X=X<X>.:                                                                                     ",
"        x Y.K.E.%X,X1XW.H F 9.7.R.~.#X@X5.x                                                                                     ",
"        A L.'.$X=X,XP.x.0 t L 9.U.F.D.E.k.R _                                                                                   ",
"    3 A 8.~.$X3X3X2X` 7     6 S e.q.&.x.OX-X4.6                                                                                 ",
"    z F q.#XOXW.W./._ >     X A ^ ^ ^ f.OX<X5.:                                                                                 ",
"    m E Y.*X..B B p             N n n U v.2X5.:                                                                                 ",
"    c E (.>.|                         G 7.2Xu.c                                                                                 ",
"    M W -Xe                             4.3X5.x                                                                                 ",
"    x D x.X                             ..v.W x                                                                                 ",
"    r c i                                 u u e                                                                                 ",
"                                                                                                                                ",
"                                                                                                                                ",
"                                                                                                                                ",
"                                                                                                                                ",
"                                                                                                                                ",
"                                                                                                                                "
};
