/* XPM */
static char *dc3fc0829bad4a62d1f8add34a8c0ec7TWP6h7WiCmvaulyi[] = {
/* columns rows colors chars-per-pixel */
"64 64 222 2 ",
"   c None",
".  c #8E4EBD",
"X  c #9C6EBC",
"o  c #9E72BB",
"O  c #892DD7",
"+  c #9639DB",
"@  c #9237D9",
"#  c #9345CA",
"$  c #9B49D5",
"%  c #A05ECC",
"&  c #A04ED2",
"*  c #A55FDD",
"=  c #A95DDD",
"-  c #A457D6",
";  c #9E6AC5",
":  c #9E66CF",
">  c #9D6ACB",
",  c #9F71C6",
"<  c #9F66D3",
"1  c #9E69D3",
"2  c #9F64D9",
"3  c #A26AC4",
"4  c #A166CC",
"5  c #A36BCC",
"6  c #A96BCF",
"7  c #AB74CC",
"8  c #AA7BCB",
"9  c #AC7DC6",
"0  c #B479CB",
"q  c #A465D3",
"w  c #A864D7",
"e  c #A46BD4",
"r  c #AA6AD2",
"t  c #A463DB",
"y  c #AA64DB",
"u  c #AC6CDA",
"i  c #A668D9",
"p  c #B16BDD",
"a  c #B36AD6",
"s  c #AC72D4",
"d  c #AD72DF",
"f  c #B374D5",
"g  c #B57BD3",
"h  c #B472DD",
"j  c #BA7DDA",
"k  c #A75EE4",
"l  c #AB5EE4",
"z  c #A65DEA",
"x  c #AB5DEC",
"c  c #B25CEE",
"v  c #AF5DF2",
"b  c #B257F4",
"n  c #B458F1",
"m  c #A561E2",
"M  c #AC65E3",
"N  c #AE6BE4",
"B  c #AE62E9",
"V  c #A667E6",
"C  c #B364E2",
"Z  c #B26CE4",
"A  c #B061E9",
"S  c #B56BEC",
"D  c #BB6BED",
"F  c #B866EA",
"G  c #B673E5",
"H  c #BB73E4",
"J  c #B779E4",
"K  c #BE7FE3",
"L  c #BC74EB",
"P  c #B763F4",
"I  c #B964F4",
"U  c #BC6DF2",
"Y  c #BD72F2",
"T  c #BE7BF2",
"R  c #C27EE4",
"E  c #C177ED",
"W  c #C47BEE",
"Q  c #C173F1",
"!  c #C47BF3",
"~  c #C87FF4",
"^  c #C57DF8",
"/  c #C97AF9",
"(  c #A982CA",
")  c #BD95CA",
"_  c #B983D4",
"`  c #BA84DB",
"'  c #BE8BDC",
"]  c #BA8DD5",
"[  c #BD97D7",
"{  c #BE89E7",
"}  c #C082DE",
"|  c #C08BD9",
" . c #C39DD2",
".. c #C392DD",
"X. c #C29CDB",
"o. c #C994DC",
"O. c #CDA5DD",
"+. c #CCACDE",
"@. c #C7A7DC",
"#. c #C385E5",
"$. c #C38CE4",
"%. c #C485EC",
"&. c #C984ED",
"*. c #C38CEC",
"=. c #CB8BEE",
"-. c #CA8DE2",
";. c #D08DEE",
":. c #C694E5",
">. c #CB95E6",
",. c #C39BE1",
"<. c #CD9BE3",
"1. c #CC92EC",
"2. c #CD9BEC",
"3. c #C593EB",
"4. c #D194E7",
"5. c #D393EC",
"6. c #D59DEB",
"7. c #C684F3",
"8. c #CB83F4",
"9. c #C68DF1",
"0. c #CB8CF3",
"q. c #CC8BF9",
"w. c #C785F9",
"e. c #D28CF5",
"r. c #D18AF8",
"t. c #CE94F3",
"y. c #CF95F4",
"u. c #D394F5",
"i. c #D49BF4",
"p. c #DB9BF5",
"a. c #D293F9",
"s. c #D59CFA",
"d. c #DA9DFC",
"f. c #D891F8",
"g. c #E09DFF",
"h. c #CCABE2",
"j. c #CDA3E0",
"k. c #D2A3E6",
"l. c #D3ACE5",
"z. c #D3A3EC",
"x. c #D9A4ED",
"c. c #D6ACEC",
"v. c #DBACED",
"b. c #DAA1E7",
"n. c #D5B2E5",
"m. c #D8B6E5",
"M. c #DCBCE6",
"N. c #D6B5EA",
"B. c #DEB5EB",
"V. c #DDBCED",
"C. c #D5A5F5",
"Z. c #DAA4F5",
"A. c #D5ACF3",
"S. c #DBABF5",
"D. c #D6A3FB",
"F. c #DAA2FB",
"G. c #D7AAF9",
"H. c #DCACFA",
"J. c #DCB2F5",
"K. c #DEBDF3",
"L. c #DEB3FA",
"P. c #DFBBFC",
"I. c #E2B3EC",
"U. c #E2BCEE",
"Y. c #E0A3FB",
"T. c #E3ACFA",
"R. c #E1A9F6",
"E. c #E1B4F5",
"W. c #E8B7F5",
"Q. c #E3BCF5",
"!. c #ECBCF4",
"~. c #E2B5FC",
"^. c #EAB4FB",
"/. c #E3BAFD",
"(. c #E9BDFB",
"). c #F1BEF9",
"_. c #DAC4E3",
"`. c #DCC2EF",
"'. c #DCCDE9",
"]. c #DDC3F3",
"[. c #DBC9F2",
"{. c #E2C6EC",
"}. c #E4CCED",
"|. c #E9CDEF",
" X c #E5D2EC",
".X c #EAD5EF",
"XX c #EADCED",
"oX c #E1D4E7",
"OX c #E3C3F4",
"+X c #EAC4F5",
"@X c #E5CBF3",
"#X c #EACCF5",
"$X c #E6C4FB",
"%X c #EAC5FB",
"&X c #E7C9FB",
"*X c #EBCBFA",
"=X c #F3CEF6",
"-X c #F3CCFA",
";X c #F9CDFB",
":X c #E5D2F2",
">X c #ECD4F5",
",X c #EDDBF4",
"<X c #ECD3FA",
"1X c #F3D3F6",
"2X c #F2DCF6",
"3X c #F3D3FB",
"4X c #FAD2FC",
"5X c #F5DFF9",
"6X c #F4DDFA",
"7X c #EEE3F2",
"8X c #F3E4F5",
"9X c #F1ECF4",
"0X c #F5E2F9",
"qX c #FBE4FC",
"wX c #F6EAF9",
"eX c #FDEEFE",
"rX c #FCEAFC",
"tX c #F9EAF6",
"yX c #FCFBF6",
"uX c #F6F2F9",
"iX c #FCF4FC",
"pX c #FDFCFC",
/* pixels */
"                                                                                                                                ",
"                          > B x x x l t                                                                                         ",
"                          > l n n l l t                                                                                         ",
"                              k L I.B.B. .5 i w q X         o 6 r r r r r 6 6 r 6 6 o                                           ",
"                              2 #.qXeXrXO.t m k k 4         5 k l l l l l l l l l y 3                                           ",
"                              t L B.{.>XN.:.<.k.>.$.g     0 } W ! W W W W W W ! ! W R 0                                         ",
"                              t I %.>.Q.*X<XqXrX>XE.H l l p u.F.F.F.F.F.F.F.F.F.F.F.d.h = k 4                                   ",
"                              ; Z 7.t.~.%X<X6XqX.XQ.K A B Z s.H.A.c.c.c.c.c.c.c.c.A.C.J B B 6                                   ",
"                                  M U 9.S.*X#X>X>X*XE.Z.Z.S.+X*X5X5X5X0X0X5X5X5X5X0X2XE.F.a.9.u y q                             ",
"                                  k P 7.Z.%X%X*X*X3X+XQ.Q.+X3X2XwXiXeXeXeXeXeXeXeXwXrX#XQ.c.i.C x k q                           ",
"                                  l P 8.Z.(.$X*X*X*X%X%X$X$X&X<XiXwX,X>X>X>X>X>X>X<X<X#X*X>X#Xz.a.0.%.5                         ",
"                                  x P 8.C.Q.$X%X%X%X*X#X%X%X@X:XiXwX@X&X*X*X*X*X*X&X&X<X2XrXqXOXL.D.q.m >                       ",
"                                  l I =.c.OX@X%X%X*X>X:X#X$X.XXXiXuX:X#X%X$X$X$X$X&X&X<X<XqX6X@XK.J.2.Z d                       ",
"                                  k L T.*XqX2X&X*X@X0XiX:X[.wXiXpXpXiX0XOXQ./.K.Q.$X&X&X&X*X#X<X3XqX=Xi.0.t                     ",
"                                  y K Q.,XrX2X&X&X@X0XeX@X[.wXiXpXpXiX6XK.P.P././.$X%X$X%X%X&X<X2XrX,Xn.1.M                     ",
"                              X g t.S.5X,X:X$XK./.K.OX@XQ.Q.OX XiX9X'.OX/./././././././././.OX&X#X<X<X6X#X2.{ ;                 ",
"                              : G z.V.rX,X@X$XQ././.Q.P.Q./.P.OXiX8X].Q././././././././././.Q.$X%X%X<XeX2Xc.W m                 ",
"                              J %.U.}.5X>X$X(././././././././.OX2X>XQ././././././././././././.$X%X$X*X5X>XOX&.l                 ",
"                          5 u u.I.rX0X#X$X/./././././././././.Q.Q.K.P././././././././././././././.Q.+X$X>XrX6.l                 ",
"                          m N x.{.qX2X&X(.~.~.~.L.L.L.~.~.~.~.~.Q./././././././././././././././././.Q.$X#XqXz.C f               ",
"                          x S =X8X#X+XQ.L.C.C.C.C.C.C.C.Z.C.C.G./././././././././././././././././././.Q.Q.@XE.p.#.>             ",
"                          * f 1X0X*X$XQ.H.F.F.F.F.F.F.F.F.F.D.C.^./././.Q./././././.P./././././././././.(.@XK.x.W t             ",
"                          -.<.3X<X$XQ.J.H.F.s.a.a.a.a.a.a.y.D.C.H.H.H.L./././././.P.P././.L.H.H.L./././.(.OX@X#X;.=             ",
"                      > s S.Q.<X#XK.L.C.F.F.t.#.%.%.%.%.%.*.s.D.F.F.C.H././././././.P./.~.D.Z.z.S.^.(././.Q.>XrXz.*             ",
"                      t Z Q.#X<X$XJ.H.i.a.u.z.n.n.n.n.n.n.l.2.u.s.s.F.H.L.~./././.Q.Q.~.S.K K B.Q.~.~./.Q.Q.#X2Xc.J g           ",
"                      t Z 3XqX:XQ.Z.i.&.8.*.V.iXiXpXpXpXpX0X:.w.w.q.d.F.Z.L./././././.S.u.# . >X<XC.S././.Q.Q.Q.H.d.g 3         ",
"                      t Z 3XrX#X/.F.i.$.*.[ _.pXpXpXpXpXpXwX,.*.{ 3.d.F.F.H././././.~.S.e.+ # |.>XC.Y.~.^./././.H.p.H k         ",
"                      t G #X>XJ.C.=.z.>X>X,X9XpXpXpXpXpXyXyX,X,X:XV.:.u.F.H./././.H.G.u.! + @ % s q.q.t.i.^././.~.T.Y x         ",
"                      t Z +X*XS.i.#.h.iXyXyXyXpXpXpXpXpXpXyXpXpXpX:X' 9.F.T./.(./.G.D.q.Q @ O O $ ~ w.w.t.^./././.^.Y k         ",
"                      f K %X*XC.C.j._.iXyXyX2X|.|.|.|.|.|..XiXpXpX7Xh.z.i.D.~.^./.H.D.q.! - & - a 4.1.8.e.F.E.Q./.~.L k         ",
"                  o 5 6.^.%XQ.3.z.qXiXiXiXiX+.q y y u u e ( 8XpXpXpXiX#X*.t.C.H./.G.D.q.8.s.Z.^.(.+XJ.7.7.$.z.Q.Q.~.J k         ",
"                  e V p.(.+X(.*.l.iXuX8X2X2X@.q w w w q < 8 |.2X2X9XiX:X*.y.D.H./.A.F.e.9.A.N.@X>X:X`.,.,.X.k.E.Q.~.` u         ",
"                  w x Z.%X$X~.*.l.yXoX9 h 7                 9 f f  .iX>X*.a.F.H./.A.D.r.1.,XwXiXiXiXuXwX0X0XM.$.C.^.T.R._ X     ",
"                  q l Z.*X/.E.3.h.iX{.t x t                 1 x x ' iX>X9.a.F.H./.G.D.0.:.0XpXpXpXpXpXpXpXpXM.' z.Q.W.^.H q     ",
"                  t x Z.(.Z.x.m.m.n.O.                        < q ] n.z.%.a.F.H./.G.C.z.z.l.N.N.N.N.{.iXpXyX.Xm.{.:XOX^.1.#.    ",
"                  t x i.L.=.:.tX{.5 ;                               < N 8.a.F.H./.H.Z.!.W.u k k k * ' iXpXpXpXpXyXiX@XQ.Q.H.u t ",
"                  y v i.~.0.9.`.n.5                                 ; d T q.Z.S.~.Z.i.Z.x.s t w t q ] {.@X@X#X@X7XiXXX|. XV.Z c ",
"                  t v p.~.=.^ V ,                                       y %.F.Z.F.1.7.S u             r y M B q +.yXyXiXpX2Xp l ",
"                  t c p.~.=./ v q                                       w W F.F.d.q.^ Z ;             q t l k q O.iXiXiXiX2X7 q ",
"                  t x p.~.9./ c q                                       t ! Y.=.L S Z 7                         )  .X.X.X.[     ",
"                  t x p.~.9.^ C q                                       m ! g.R = k 4                             4 * q q ;     ",
"                  t x p.^.S.p.C q                                       k F &.j                                                 ",
"                  t l i.(.;X!.u q                                       k c y                                                   ",
"                  y B i.$X-X+Xs e                                       < k q                                                   ",
"                5 Y / F./.+XQ.W.z.e m e                                                                                         ",
"                t Q 8.S.P.Q.Q.;Xv.t z t                                                                                         ",
"            > G E u.Z.E.P.Q.Q.OXU.Z.x.x...>                                                                                     ",
"            m U 8.R.(.Q.Q.(.Q.K.$X3X3X3X:.q                                                                                     ",
"          s B Q 1.H.Q.OXQ.~.L.Q.+X*X*X3X<.f                                                                                     ",
"        3 L ~ u.~.^.Q.#X%X>.1.E.Q.Q.$X<X-X).o.>                                                                                 ",
"        y U =.z.(.Q.K.<X%X=.8.R.~.Q.$X*X3X=X>.*                                                                                 ",
"        k 8.T.~.Q.*X<X>X!.H F 0.i.Q.Q.(.#X1X4.l                                                                                 ",
"        k =././.(.*X<X1X!.p A / u.^.Q.(.*X3X4.=                                                                                 ",
"        Z t.Q.].$X*X3XI.b.8 e L 8.F.S.S.Q.#Xx.} _                                                                               ",
"    1 Z 7.i./.*X4X4X3X` 5     4 S w.7.&.x.Q.+X;X>.:                                                                             ",
"    k F 9.C.$XQ.W.!.W._ ;     X N ^ / / f.T.(.1X4.=                                                                             ",
"    x Q T.%X1X<.N B u             y v v Y 8.c.3X5.=                                                                             ",
"    x Q ^.+X4X>.t m q             q k m Y 8.c.3X5.k                                                                             ",
"    z E ).c.:.|                         G D z.4Xu.z                                                                             ",
"    = W ;X:.q                             t 4.4X5.k                                                                             ",
"    k D x...X                             3 o.v.&.k                                                                             ",
"    k b t                                     t x k                                                                             ",
"    q x t                                     t y q                                                                             ",
"                                                                                                                                "
};
