/* XPM */
static char *tile0031703409407[] = {
/* columns rows colors chars-per-pixel */
"64 64 219 2 ",
"   c None",
".  c #8E4EBD",
"X  c #9B6DBB",
"o  c #9C71BA",
"O  c #A074B9",
"+  c #892DD7",
"@  c #9639DB",
"#  c #9237D9",
"$  c #9345CA",
"%  c #9B49D5",
"&  c #A05ECC",
"*  c #A04ED2",
"=  c #A55FDD",
"-  c #A95EDD",
";  c #A457D6",
":  c #9E6BC4",
">  c #9E66CF",
",  c #9D6ACB",
"<  c #9E71C3",
"1  c #9F66D4",
"2  c #9E69D2",
"3  c #9F64D9",
"4  c #A16BC5",
"5  c #A166CC",
"6  c #A36BCC",
"7  c #A96BCE",
"8  c #AB74CC",
"9  c #AA7BCB",
"0  c #AC7DC6",
"q  c #B47ACB",
"w  c #A465D3",
"e  c #A965D6",
"r  c #A36BD4",
"t  c #AA6BD2",
"y  c #A463DB",
"u  c #AA64DC",
"i  c #AD6CDB",
"p  c #A669D9",
"a  c #B16BDD",
"s  c #B36AD6",
"d  c #AC73D4",
"f  c #AC71DD",
"g  c #B373D5",
"h  c #B57BD3",
"j  c #B472DD",
"k  c #BA7DDA",
"l  c #A65EE4",
"z  c #AB5EE4",
"x  c #A65DEA",
"c  c #AB5DEC",
"v  c #B25CEE",
"b  c #AF5DF2",
"n  c #B257F4",
"m  c #B458F1",
"M  c #A562E2",
"N  c #AC65E3",
"B  c #AD69E6",
"V  c #AE62E9",
"C  c #A667E6",
"Z  c #B364E2",
"A  c #B26CE4",
"S  c #B061E9",
"D  c #B46BEB",
"F  c #BB6BED",
"G  c #B866EA",
"H  c #B673E5",
"J  c #BB74E4",
"K  c #B779E4",
"L  c #BE7FE3",
"P  c #BC74EB",
"I  c #B763F4",
"U  c #B964F4",
"Y  c #BC6DF2",
"T  c #BD72F2",
"R  c #BD7BF2",
"E  c #C27EE4",
"W  c #C177ED",
"Q  c #C47BEE",
"!  c #C173F1",
"~  c #C47BF3",
"^  c #C87FF4",
"/  c #C57DF8",
"(  c #C97AF9",
")  c #A982CA",
"_  c #BD94CA",
"`  c #B983D4",
"'  c #BA84DB",
"]  c #BE8BDC",
"[  c #B98DD5",
"{  c #BA93DD",
"}  c #BD89E7",
"|  c #C082DE",
" . c #C08BD9",
".. c #C29CD2",
"X. c #C392DD",
"o. c #C29CDB",
"O. c #C994DC",
"+. c #CCA5DD",
"@. c #CCAADE",
"#. c #C7A7DC",
"$. c #C385E5",
"%. c #C38CE4",
"&. c #C486EC",
"*. c #C984ED",
"=. c #C38CEC",
"-. c #CB8BEE",
";. c #CA8EE2",
":. c #D08DEE",
">. c #C694E5",
",. c #CB95E6",
"<. c #C39BE1",
"1. c #CD9BE3",
"2. c #CD92EC",
"3. c #CD9BEC",
"4. c #C593EB",
"5. c #D194E7",
"6. c #D393EC",
"7. c #D59DEB",
"8. c #C684F3",
"9. c #CB83F4",
"0. c #C68DF1",
"q. c #CB8CF3",
"w. c #CC8BF9",
"e. c #C785F9",
"r. c #D18CF8",
"t. c #CE94F2",
"y. c #CF95F4",
"u. c #D394F5",
"i. c #D49BF4",
"p. c #DB9BF5",
"a. c #D293F9",
"s. c #D59CFA",
"d. c #DA9DFC",
"f. c #D891F8",
"g. c #E09DFF",
"h. c #CCABE2",
"j. c #CDA3E0",
"k. c #D2A3E6",
"l. c #D3ACE5",
"z. c #D3A3EC",
"x. c #D9A4ED",
"c. c #D6ACEC",
"v. c #DBACED",
"b. c #D5B2E5",
"n. c #D8B6E5",
"m. c #DCBCE6",
"M. c #D6B5EA",
"N. c #DEB5EB",
"B. c #DDBCED",
"V. c #D5A5F5",
"C. c #DAA4F5",
"Z. c #D5ADF3",
"A. c #DBABF4",
"S. c #D6A3FB",
"D. c #DBA2FC",
"F. c #D7AAF9",
"G. c #DCACFA",
"H. c #DCB2F5",
"J. c #DEBDF3",
"K. c #DEB3FA",
"L. c #DFBBFC",
"P. c #E2B3EC",
"I. c #E2BCEE",
"U. c #E0A3FB",
"Y. c #E3ACFA",
"T. c #E1A9F6",
"R. c #E1B4F5",
"E. c #E8B7F5",
"W. c #E3BCF5",
"Q. c #ECBCF4",
"!. c #E2B5FC",
"~. c #EAB4FB",
"^. c #E3BAFD",
"/. c #E9BDFB",
"(. c #F1BEF9",
"). c #DAC4E3",
"_. c #DCC2EF",
"`. c #DCCDE9",
"'. c #DDC3F3",
"]. c #DBC9F2",
"[. c #E2C6EC",
"{. c #E4CCED",
"}. c #E9CDEF",
"|. c #E5D2EC",
" X c #EAD5EF",
".X c #EADCED",
"XX c #E1D4E7",
"oX c #E3C3F4",
"OX c #EAC4F5",
"+X c #E5CBF3",
"@X c #EACCF5",
"#X c #E6C4FB",
"$X c #EAC5FB",
"%X c #E7C9FB",
"&X c #EBCBFA",
"*X c #F3CEF6",
"=X c #F3CCFA",
"-X c #F9CDFB",
";X c #E5D2F2",
":X c #ECD4F5",
">X c #EDDBF4",
",X c #ECD3FA",
"<X c #F3D3F6",
"1X c #F2DCF6",
"2X c #F3D3FB",
"3X c #FAD2FC",
"4X c #F4DDFA",
"5X c #EEE3F2",
"6X c #F3E4F5",
"7X c #F1ECF4",
"8X c #F5E2F9",
"9X c #FBE4FC",
"0X c #F6EAF9",
"qX c #FCECFD",
"wX c #F9EAF6",
"eX c #FCFBF6",
"rX c #F6F2F9",
"tX c #FCF4FC",
"yX c #FDFCFC",
/* pixels */
"                                                                                                                                ",
"                          , V c c c V y                                                                                         ",
"                          , z m m z z y                                                                                         ",
"                              - H P.P.P...6 p u e <         o 7 t t t t t t 7 t 7 7 O                                           ",
"                              y &.9XqXqX#.y l l l 5         6 - z z z z Z z z z z u 4                                           ",
"                              y P N.[.,XM.,.1.k.,.%.h     q | Q ~ Q ^ ~ Q ~ Q Q Q Q E q                                         ",
"                              y I &.,.^.OX,X9X9X:XE.J z z a f.d.D.D.D.U.D.D.U.g.D.D.d.H - l 6                                   ",
"                              : A ^ y.!.$X,X4X9X XP.} z S A d.G.Z.c.c.c.c.c.c.c.c.Z.V.K V S 7                                   ",
"                                  u Y -.Z.%X&X:X:X&XR.C.C.T.$X&X4X6X4X8X8X4X4X4X4X8X1XH.D.a.0.i M w                             ",
"                                  V U e.A.$X&X$X&X2XOXR./.oX=X1XqXqXqXqXtXqXqXtXqXqXqX@XR.c.i.Z v N e                           ",
"                                  x U 9.C.^.OX&X&X=XOX$X$X#X%X,XtX0X>X:X>X,X,X1X,X,X,X:X%X2X@Xz.u.9.*.6                         ",
"                                  c I 9.i.W.#X$X&XOX&X%XOX$X+X|.rX0X+X%X&X%X%X%X%X%X%X:X1XqX9XoX!.F.q.M ,                       ",
"                                  c U -.M.oX%X&X$X%X:X;X+X#X:X.XtXrX;X:X$X#X#X#X%X%X%X,X,X9X4X+XB.H.3.A f                       ",
"                                  - P Y.=X9X>X%X&X@X8XtX|.].0XeXyXyXtX8XoXL.^.L.^.%X%X%X%X%X%X,X2X9X<Xi.q.p                     ",
"                                  i L W.1XqX1X#X%X+X8XtX{.].0XtXeXyXrX8X'.L.L.L.L.#X%X#X&X%X%X,X2XqX1XM.,.N                     ",
"                              o g y.A.4X>X;X%XL.^.'.oXoX'.^.oX|.rX7X`.].L.^.^.L.^.^.^.L.^.^.#X#X%X,X,X1X@Xu.$.4                 ",
"                              6 H z.B.qX>X+X^.^.^.^.^.^.^.^.L._.tX6X'.^.^.^.^.!.^.^.^.^.^.^.^.#X%X%X,XqX1Xz.E M                 ",
"                              J &.B.{.4X:X#X#X^.^.^.^.^.^.^.^.oX1X:XL.^.^.^.^.^.^.^.^.^.^.^.^.$X#X#X&X9X1XW.*.c                 ",
"                          r i u.E.qX6X@X#X^.^.^.^.^.^.^.^.^.^.^.W.'.L.^.^.^.^.^.^.^.^.^.^.^.^.^.#X^.oX$X,XqX7.z                 ",
"                          l B x.[.8X1X#X^.!.K.!.K.L.K.!.R.!.!.K.^.L.^.!.^.^.L.^.^.^.^.^.^.^.^.^.^.^.^.#X&X9Xz.Z g               ",
"                          c D <X6X@XOXJ.K.V.F.V.F.F.V.V.F.S.S.F.!.^.^.^.^.^.^.^.^.^.L.^.^.^.^.^.^.^.^.^.oX@XR.d.$.r             ",
"                          = g <X6X%X#X^.G.D.D.D.D.D.S.S.D.D.S.F.!.^.^.^.^.^.^.^.^.L.L.^.^.^.!.^.!.^.^.^.^.@XI.C.Q u             ",
"                          ;.1.<X,X#X^.H.G.D.s.w.a.w.a.a.y.w.S.S.G.G.G.K.^.^.^.^.^.L.L.K.^.!.G.K.K.^.^.~.~.oX+XOX:.-             ",
"                      , d A.W.,X@X^.K.V.D.D.t.=.&.&.&.&.&.=.s.S.D.C.V.G.K.^.^.^.^.L.L.^.!.C.V.z.A.!.^.^.W.oX:XqX7.=             ",
"                      y D W.:X@X%XH.G.u.a.u.z.M.M.M.M.l.b.z.z.y.a.s.D.F.K.!.^.^.L.^.^.^.A.L E N.W.G.!.^.^.W.%X1Xl.H h           ",
"                      l H <X9X:XW.Z.i.*.e.=.B.tXtXtXyXtXyX8X<.e.e.w.d.S.V.G.^.^.^.L.^.A.2.$ . :X:XV.A.^./.W.R.J.A.d.g :         ",
"                      y A <X9X@X!.D.i.%.=.{ ).yXyXyXyXyXyX7Xj.%.} >.d.d.d.G.^./.!.G.G.y.~ @ $ @X:XC.U.!.^.!.^.^.!.C.J l         ",
"                      y J @X>XH.C.0.z.:X>X.X7XyXyXyXyXyXyXeX.X>X>X_.>.u.D.Y./.^.^.F.S.w.! @ @ & t r.r.t.C.!.!.L.!.T.! n         ",
"                      y A OX=XZ.i.} h.tXeXeXeXyXyXyXyXyXyXeXyXyXeX X} 0.s.F.!.!.!.F.S.w.! # + + % ^ e.8.3.!./.^.^.!.T z         ",
"                      j E $X&XV.i.j.).eXeXtX6X}.}.:X}.@X}..XrXyXyX5X@.z.%.y.S.G.^.F.S.q.9.; % ; s 5.2.9.r.C.!.^.^.!.P l         ",
"                  < 6 7.~.OXOX4.k.9XtXyXeXtX@.w u e e t r ) 6XyXyXyXtX+X=.a.D.K.^.F.D.r.2.s.V.~./.$XH.8.e.%.k.^.J.!.K l         ",
"                  r C s./.OX^.-.h.tXrX6X>X1X#.w e e u e > 9 :X1X1X7XeX:X0.a.D.G.^.F.d.0.>.Z.M.%X:X:X].{ o.o.z.K.R.!.' i         ",
"                  e c p.OXoXK.=.l.tXXX0 j 8                 9 g g ..tX:X&.u.D.Y.^.F.S.z.z.1XtXtXtXtXrX0X0X8Xm.>.V.!.T.T.h X     ",
"                  e S T.&X^.!.>.h.tX_.u x y                 1 x c [ tX;X8.u.C.G.!.G.C.Q.E.wXyXyXyXyXyXyXyXyXm.' 3.W.E.~.J 7     ",
"                  y c C.^.C.C.n.n.b.h.                        r w [ b.z.R r.C.G.!.i.p.C.7.l.M.N.M.n.[.tXeXeX>Xn.[..XoX!.6.$.    ",
"                  u v i.!.0.>.wX[.: :                               1 B e Q U.d.d.w.~ A 4 i l l M u } tXyXyXtXtXyXtX}.J.W.A.i u ",
"                  u b i.K.q.0._.n.6                                 4 f e Q D.q.P F H 8   d y u u r [ @X}.+X@X+X6XtX.X}.}.J.Z c ",
"                  u b i.!.-.^ C <                                       M ^ g.E - M >                 w u B N w @.yXeXyXyX>Xa c ",
"                  y v p.!.0.( I 2                                       l F *.k                       w y x z e @.tXtXtXtX1X8 w ",
"                  y b p.K.-.( v w                                       w l w                                   _ ..o.o.o...    ",
"                  y c d.Y.0.^ z w                                                                                 5 - w y :     ",
"                  y V p.~.A.p.Z w                                                                                               ",
"                  u V i./.-XQ.f w                                                                                               ",
"                  u z p.#X=X$Xd r                                                                                               ",
"                6 T / D.L.oXoXR.z.r M r                                                                                         ",
"                y ! e.A.L.W.Q.-Xv.u x w                                                                                         ",
"            , H W p.C.I.L.^.L.OXP.C.C.x.{ ,                                                                                     ",
"            M Y 9.Y.E.J.^.^.L.L.OX3X<X2X,.e                                                                                     ",
"          i Z ! 2.Y.W.oX^.K.A.^.W.&X=X<X1.g                                                                                     ",
"        6 H ^ u.!.^.^.%XOX,.2.R.W.J.%X,X=X(.O.4                                                                                 ",
"        - ! q.z.R.^.W.,XOX-.9.Y.W.L.#X=X*X-X,.;                                                                                 ",
"        l 9.Y.R.W.&X:X,X(.J G 9.i.^.^.$X@X<X5.z                                                                                 ",
"        l -.^.^.^.=X,X4XQ.s z ( u.!.W.^.OX*X5.-                                                                                 ",
"        A t.^.oX#X&X2XP.x.0 w W 9.D.G.C.W.@Xx.| `                                                                               ",
"    2 A ^ i.^.%X3X<X<X` 6     w D 9.8.*.x.W.OX-X,.1                                                                             ",
"    M Y 0.V.oXW.Q.Q.E.` :     X A ^ ( ( f.Y./.<X5.u                                                                             ",
"    n ! Y.OX<XO.B S i             u b b ! 9.M.2X6.-                                                                             ",
"    x W ~.*X3X1.y M y             w M M T ( A.3X6.l                                                                             ",
"    x W (.v.,.]                         H F x.3Xu.x                                                                             ",
"    - Q -X,.w                             y 5.3X6.l                                                                             ",
"    l F x.X.X                             4 O.v.Q l                                                                             ",
"    z b u                                     y v l                                                                             ",
"    e c y                                     y u w                                                                             ",
"                                                                                                                                "
};
