/* XPM */
static char *ezgif_com_crop__43_1703536158[] = {
/* columns rows colors chars-per-pixel */
"88 64 21 1 ",
"  c None",
". c #331A19",
"X c #3C1E2B",
"o c #4D2D2C",
"O c #452432",
"+ c #4F2A3A",
"@ c #5C3747",
"# c #442B61",
"$ c #7C5969",
"% c #CE2038",
"& c #8A0B41",
"* c #331685",
"= c #432792",
"- c #5F4181",
"; c #9E7688",
": c #97828A",
"> c #97828B",
", c #BEACB3",
"< c #C1C1C1",
"1 c #DADADA",
"2 c white",
/* pixels */
"                            22222222222222222222222222222222222222222222                ",
"                      22222222222222222222222222222222222222222222222222222222          ",
"                 222222222222222222222222222222222222222222222222222222222222222222     ",
"             222222222222222222222222222222222222222222222222222222222222222222222222   ",
"          22222222222222222222222222222222222222222222222222222222222222222222222222    ",
"       2222222222222222222222222222222222222222222222222222222222222222222222222222     ",
"    222222222222222222222222222222222222222222222222222222222222222222222222222222      ",
" 22222222222222222222222222222222222222222222222222222222222222222222222222222222       ",
"22222222222222222222222222222222222222222222222222222222222222222222222222222222        ",
"2222222222222222222222222222222222222222222222222222222222222222222222222222222         ",
"2222222222222             2222222222222222222222222222222222222222222222222222          ",
"2                                 2222222222222222222222222222222222222222222           ",
"                                        222222222222222222222222222222222222            ",
"                                                  2222222222222222222222222             ",
"                                                      22222222222222222222              ",
"                                                          222222222222222               ",
"                                                             22222222222                ",
"                                                               22222222                 ",
"                                                                222222                  ",
"                                                   OO+            222                   ",
"                                                 OOOO++          =1<                    ",
"                                                OOOO+++         ==*                     ",
"                                              OOOOO++++        ;;*                      ",
"                                            OOOOOO++++        ;;;;                      ",
"                                           OOOOOO++++       ;;;;$$                      ",
"                                          OOOOOO++++       ;;;;$$$                      ",
"                                        OOOOOOO++++      @@@;;$$                        ",
"                                       OOOOOOO++++      @@@@@$$$                        ",
"                                      OOOOOOOX+++      @@@XXXX$                         ",
"                                     OOOOOOXXX++      @@@XXXXX                          ",
"                                    OOOOOOXXXXXX   %%                                   ",
"                                   OOOOOXXXXXXXX&&&%%%%                                 ",
"                                   XXXXXXXX :XX&&&&%%%%%%                               ",
"                                    XXXX    :&&&&&&&&&&%%&                              ",
"                                            ,&&&&XX@@@@&&&&&&                           ",
"                                            ::&&&&XX@@@@@&&&&                           ",
"                                            :,:&&.:XX@X@@@@%%                           ",
"                                            :,,::..XXX@@@@@&%%                          ",
"                                            ::,,::.X@@@@@@@X%%                          ",
"                                             :,,::..XX@@@@XX&%%%                        ",
"                                             ::,,::X@@@@@XXX&&%%%%                      ",
"                                              ::,,,XX@XXXXX&&&&%%%%%%                   ",
"                                               ::,,XXXXXXXX&&&&&&&%%%%%%%               ",
"                                                :::;$XXXXXX  &&&&&&&&%%%%%%%%%%%        ",
"                                                 ::;$$XXXX:       &&&&&&&&&&&%          ",
"                                                  ;;$$$X:,::                            ",
"                                                  ;$$$X:,,,:                            ",
"                                                  ;$$$,::,,,                            ",
"                                                 ;;$:::.::,,                            ",
"                                                #$$$###----##########--------           ",
"                                                #$$###########################          ",
"                                                .ooooo..::,,,,                          ",
"                                               .ooooo...::,,,,                          ",
"                                              oooooo....::,,,,,                         ",
"                                              oooo.......::,,,,,                        ",
"                                              oooo.......:::,,,,                        ",
"                                              ooo........:::,,,,,                       ",
"                                             ooo..........:::,,,,,                      ",
"                                             oo...........::::,,,,,                     ",
"                                             oo............::::,,,,,,                   ",
"                                             o..............:::::,,,,,                  ",
"                                              ...............:::::,,,,,                 ",
"                                              ................:::::,,,,,,               ",
"                                               ................::::::,,,,,,,            "
};
