/* XPM */
static char *ezgif_com_rotate1703258832[] = {
/* columns rows colors chars-per-pixel */
"64 64 21 1 ",
"  c None",
". c #331A19",
"X c #341A25",
"o c #3C1E2B",
"O c #4D2D2C",
"+ c #452432",
"@ c #4F2A3A",
"# c #5C3747",
"$ c #442B61",
"% c #7C5969",
"& c red",
"* c #CE2038",
"= c #8A0B41",
"- c #8A767E",
"; c #331685",
": c #432792",
"> c #5F4181",
", c #9E7688",
"< c #97828A",
"1 c #97828B",
"2 c #BEACB3",
/* pixels */
"                                                                ",
"                                                                ",
"                                                                ",
"                                                                ",
"                                                                ",
"                                                                ",
"                                                                ",
"                             ++@                                ",
"                           ++++@@                               ",
"                          ++++@@@                               ",
"                        +++++@@@@                               ",
"                      ++++++@@@@                                ",
"                     ++++++@@@@                                 ",
"                    ++++++@@@@                                  ",
"                  +++++++@@@@                                   ",
"                 +++++++@@@@                                    ",
"                +++++++ooo@                                     ",
"               ++++++ooo-o                                      ",
"              ++++++ooo-&o   *****    ****                      ",
"             +++++oooo-12o==**=*==************                  ",
"             ooooooo  12oo==*===oooo======*******               ",
"              oooo    ==o==*==ooo####=====********              ",
"                     *=====<<oooo####=======***                 ",
"                    ****==<<<<oooo####=========                 ",
"                    *=XX12222<<<1o####                          ",
"                   *=XX.1222222<1oo####                         ",
"                   XX##..<1222221oo####                         ",
"                   X######11<2222ooo##o                         ",
"                   XXXX###X..<222oooooo                         ",
"                   XXXXXXXX22.<2%%oooo                          ",
"                    XXXXXXX,,;:,,,%1                            ",
"                     XXXX%%%%;,,%%$>>>>>>>                      ",
"                          %%%<%%$$$$$$$$>>>>>>>>>>>>            ",
"                            <<<.11<<<   $$$$$$$$$$$>>>>>>>>     ",
"                            OO..1<<22             $$$$$$$$$     ",
"                            OO..1<222                           ",
"                           OO..211222                           ",
"                           OO..<12222                           ",
"                          OOO.2<12222                           ",
"                         OOOO.<<12222                           ",
"                        OOOOO.<<<2222                           ",
"                        OOOOO<<<<2222                           ",
"                       OOOO.O<<<<22221                          ",
"                       OOOO.<<<<<<22211                         ",
"                       OOO..<<<<<<<222<<                        ",
"                      OOOO..<<<<<<<<222<1                       ",
"                      ..O....<11<<<<<<2211                      ",
"                       .......11<<<<<<<221                      ",
"                        .......1<<<<<1111                       ",
"                        ........<<<<<11                         ",
"                        ...........<<<1                         ",
"                         .............                          ",
"                          ...........                           ",
"                             ........                           ",
"                             .......                            ",
"                                                                ",
"                                                                ",
"                                                                ",
"                                                                ",
"                                                                ",
"                                                                ",
"                                                                ",
"                                                                ",
"                                                                "
};
