/* XPM */
static char *ezgif_com_crop__18_1703261056[] = {
/* columns rows colors chars-per-pixel */
"64 64 20 1 ",
"  c None",
". c #331A19",
"X c #3C1E2B",
"o c #4D2D2C",
"O c #452432",
"+ c #4F2A3A",
"@ c #5C3747",
"# c #442B61",
"$ c #7C5969",
"% c red",
"& c #CE2038",
"* c #8A0B41",
"= c #8A767E",
"- c #331685",
"; c #432792",
": c #5F4181",
"> c #9E7688",
", c #97828A",
"< c #97828B",
"1 c #BEACB3",
/* pixels */
"                                                                ",
"                                                                ",
"                                                                ",
"                                                                ",
"               *&    *&&&                                       ",
"               *&&&  **&&&                                      ",
"               *&&&&  *&&&                                      ",
"               *&&&&&&**&&&   +OO                               ",
"                *&&&&&*&&&&& ++OOOO                             ",
"                **&&&*&*&&&& +++OOOO                            ",
"                **&&&**&*&&&&++++OOOOO                          ",
"                 **&&&****&&& ++++OOOOOO                        ",
"                  **&&&*&**&&& ++++OOOOOO                       ",
"                  ***&&**&**&&& ++++OOOOOO                      ",
"                   ***&&*****&&&&++++OOOOOOO                    ",
"                    ****&******&&&++++OOOOOOO                   ",
"                      ***&&*****&& +XXXOOOOOOO                  ",
"                       **********&& X=XXXOOOOOO                 ",
"   ::                   **********&&X%=XXXOOOOOO                ",
"   #:::                   *****&&&**X1<=XXXXOOOOO               ",
"    #::::                  ***&&&&&*XX1,*&XXXXXXX               ",
"     ###:::                  ************** XXXX                ",
"        ##:::         @@@@@@@@@X,,,,,,,.,,X                     ",
"          ##:::      @@@@@@@@@@X,,,1111.11X@                    ",
"            ##:::   @@@@XXXXXXXX,,,1111.,,X@@                   ",
"              ##::: XX@@@XXXXXXX,,,1111.,,>XX@@                 ",
"                ##::XXX@XXX     ,,11111.,,>XXX@@                ",
"                 ###XXXXXXX     ,,1111.,, $$XXX@@               ",
"                   ###XXXX$>   ,,,1111.,,   XXX@@@              ",
"                     ###X$$>>  ,,,1111.,     XX@@@              ",
"                       ##$$$>;;,,,,,11.1     XXX@@@             ",
"                        ,##$$-;;.......,      XXX@@             ",
"                        ,,,,,---;......       XX>>X             ",
"                        ,,,,,,,--;11...,      X>$$X             ",
"                         ,,,,,,,--,,111,,     >>$$              ",
"                          ,,,,,,,,,,1111,     >>$               ",
"                           ,,,,,,,,,,,,111   >>$$               ",
"                            ,,,...........   >$$$               ",
"                             ......ooooooo   $$ $$              ",
"                            1....oooooooooo    $                ",
"                            1...oooooooooooo                    ",
"                             ...oo..o.ooooooo                   ",
"                             ..ooo....oooooooo                  ",
"                             ..oooo.....oooooo                  ",
"                              ..ooo.....oooooo                  ",
"                              ...ooooo...ooo..                  ",
"                               ..ooo.oo.......                  ",
"                               ...oooo.......                   ",
"                                ...o...o.....                   ",
"                                ...ooooo.....                   ",
"                                 ..oo........                   ",
"                                 ...oo......                    ",
"                                  ..o.......                    ",
"                                  ..o.......                    ",
"                                   ........                     ",
"                                   ........                     ",
"                                    .....                       ",
"                                                                ",
"                                                                ",
"                                                                ",
"                                                                ",
"                                                                ",
"                                                                ",
"                                                                "
};
