/* XPM */
static char *tile0021703409406[] = {
/* columns rows colors chars-per-pixel */
"64 64 217 2 ",
"   c None",
".  c #8E4EBD",
"X  c #9B6DBB",
"o  c #9C71BA",
"O  c #A074B9",
"+  c #892DD7",
"@  c #9639DB",
"#  c #9237D9",
"$  c #9345CA",
"%  c #9B49D5",
"&  c #A05ECC",
"*  c #A04ED2",
"=  c #A55FDD",
"-  c #A95EDD",
";  c #A457D6",
":  c #9E6BC4",
">  c #9E66CF",
",  c #9C6ACC",
"<  c #9E71C3",
"1  c #9F66D4",
"2  c #9E69D2",
"3  c #A16BC5",
"4  c #A166CC",
"5  c #A36BCC",
"6  c #A96BCE",
"7  c #AB74CC",
"8  c #AA7BCB",
"9  c #AC7DC6",
"0  c #B47ACB",
"q  c #A465D4",
"w  c #A964D7",
"e  c #A36BD4",
"r  c #AA6BD2",
"t  c #A463DB",
"y  c #AA64DC",
"u  c #AD6CDB",
"i  c #A669D9",
"p  c #B16BDD",
"a  c #B36AD6",
"s  c #AC73D4",
"d  c #AC71DD",
"f  c #B373D5",
"g  c #B57BD3",
"h  c #B472DD",
"j  c #BA7DDA",
"k  c #A65EE4",
"l  c #AB5EE4",
"z  c #A65DEA",
"x  c #AB5DEC",
"c  c #B25CEE",
"v  c #AF5DF2",
"b  c #B057F6",
"n  c #A562E2",
"m  c #AB64E3",
"M  c #AD69E6",
"N  c #AE62E9",
"B  c #A667E6",
"V  c #B364E2",
"C  c #B26CE4",
"Z  c #B061E9",
"A  c #B56BEC",
"S  c #BB6BED",
"D  c #B866EA",
"F  c #B673E5",
"G  c #BB74E4",
"H  c #B779E4",
"J  c #BE7FE3",
"K  c #BC74EB",
"L  c #B763F4",
"P  c #B964F4",
"I  c #BD6DF3",
"U  c #BD72F2",
"Y  c #BD7BF2",
"T  c #C27EE4",
"R  c #C177ED",
"E  c #C47BEE",
"W  c #C173F1",
"Q  c #C47BF3",
"!  c #C87FF4",
"~  c #C57DF8",
"^  c #C97AF9",
"/  c #A982CA",
"(  c #BD94CA",
")  c #B983D4",
"_  c #BA84DB",
"`  c #BE8BDC",
"'  c #B98DD5",
"]  c #BA93DD",
"[  c #BD89E7",
"{  c #C082DE",
"}  c #C08BD9",
"|  c #C19DD2",
" . c #C392DD",
".. c #C994DC",
"X. c #C29CDB",
"o. c #CCAADE",
"O. c #CBA7DD",
"+. c #C385E5",
"@. c #C38CE4",
"#. c #C485EC",
"$. c #C984ED",
"%. c #C38CEC",
"&. c #CB8BEE",
"*. c #CA8EE2",
"=. c #D08DEE",
"-. c #C694E5",
";. c #CB95E6",
":. c #C39BE1",
">. c #CD9BE3",
",. c #CC92EC",
"<. c #CD9BEC",
"1. c #C593EB",
"2. c #D194E7",
"3. c #D393EC",
"4. c #D59DEB",
"5. c #C684F3",
"6. c #CB83F4",
"7. c #C68DF1",
"8. c #CB8CF3",
"9. c #CC8BF9",
"0. c #C785F9",
"q. c #D28CF5",
"w. c #D18AF8",
"e. c #CE94F3",
"r. c #CF95F4",
"t. c #D394F5",
"y. c #D49BF4",
"u. c #DB9BF5",
"i. c #D293F9",
"p. c #D59CFA",
"a. c #DA9DFC",
"s. c #D891F8",
"d. c #E09DFF",
"f. c #CCABE2",
"g. c #CDA3E0",
"h. c #D2A3E6",
"j. c #D3ACE5",
"k. c #D3A3EC",
"l. c #D9A4ED",
"z. c #D6ACEC",
"x. c #DBACED",
"c. c #D5B2E5",
"v. c #D8B6E5",
"b. c #DCBCE6",
"n. c #D6B5EA",
"m. c #DFB5EC",
"M. c #DDBCED",
"N. c #D5A5F5",
"B. c #DBA3F5",
"V. c #D5ACF3",
"C. c #DBABF5",
"Z. c #D6A3FB",
"A. c #DAA2FB",
"S. c #D7AAF9",
"D. c #DCACFA",
"F. c #DCB2F5",
"G. c #DEBDF3",
"H. c #DEB3FA",
"J. c #DFBBFC",
"K. c #E2B3EC",
"L. c #E2BCEE",
"P. c #E0A3FB",
"I. c #E3ACFA",
"U. c #E1A9F6",
"Y. c #E1B4F6",
"T. c #E8B7F5",
"R. c #E3BCF5",
"E. c #ECBCF4",
"W. c #E2B5FC",
"Q. c #EAB4FB",
"!. c #E3BAFD",
"~. c #E9BDFB",
"^. c #F1BEF9",
"/. c #DAC4E3",
"(. c #DCC2EF",
"). c #DCCDE9",
"_. c #DDC3F3",
"`. c #DBC9F2",
"'. c #E2C6EC",
"]. c #E4CCED",
"[. c #E9CDEF",
"{. c #E5D2EC",
"}. c #E9D5EF",
"|. c #EADCED",
" X c #E1D4E7",
".X c #E3C3F4",
"XX c #EAC4F5",
"oX c #E5CBF3",
"OX c #EACBF5",
"+X c #E6C4FB",
"@X c #EAC4FB",
"#X c #E7C9FB",
"$X c #EBCBFA",
"%X c #F3CEF6",
"&X c #F3CCFA",
"*X c #F9CDFB",
"=X c #E5D2F2",
"-X c #EBD4F5",
";X c #EDDBF4",
":X c #ECD3FA",
">X c #F3D3F6",
",X c #F2DCF6",
"<X c #F3D3FB",
"1X c #FAD2FC",
"2X c #F4DDFA",
"3X c #EEE3F2",
"4X c #F3E4F5",
"5X c #F1ECF4",
"6X c #F5E2F9",
"7X c #FBE4FC",
"8X c #F6EAF9",
"9X c #FCECFD",
"0X c #F9EAF6",
"qX c #FCFBF6",
"wX c #F6F2F9",
"eX c #FCF4FC",
"rX c #FDFCFC",
/* pixels */
"                                                                                                                                ",
"                                                                                                                                ",
"                                                                                                                                ",
"                                > N x z N t                 o 6 r r r r r r 6 r 6 6 O                                           ",
"                                    K K.m.m.5 i i 3         5 - l l l l V l l l l - 3                                           ",
"                                    #.7X9X9Xt n k 4       0 { E Q E Q Q E Q E E Q E T 0                                         ",
"                                    K m.'.-X-.>.h.+.g l l p s.a.A.A.A.P.A.A.P.d.A.A.a.F - k 5                                   ",
"                                    P #.;.!.<X7X9XY.j c Z C a.D.C.z.z.z.z.z.z.z.z.z.S.H N Z 6                                   ",
"                                    C 5.q.W.:X2X7XR.J B.B.U.@X$X2X2X6X2X2X2X2X2X2X2X,XY.B.i.7.u y q                             ",
"                                      k L 5.@X@X#X&XoXT.E.R.<X,X0XeX9XeXeXwX9XeX9XeX9XOXT.V.y.V x m w                           ",
"                                      l L ^ ~.+X$X$XXX+X@X+X#X:XwX8X;X:X-X:X:X,X;X;X:XOX$X$XOXk.q.9.#.6                         ",
"                                      x L 6.!.+X@XXX#X$X@X@XoX=XeX5XoX#X$X#X#X#X#X#X#X:X,X9X7X.XJ.A.8.n ,                       ",
"                                  x S &.n..X#X$X$X$X=X=XoX+X}.|.eXwX-X:X+X+X#X+X+X#X#X:X:X7X6XoXM.F.<.C d                       ",
"                                  n W I.$X7X,X#X$XOX7XeX{.`.8XqXrXqXeX6X.XJ.!.J.!.+X#X#X#X#X#X$X<X7X>Xu.8.q                     ",
"                                  w J R.,X9X,X+X#XoX6X9XoX`.8XeXrXrXwX6X_.J.J.J.J.+X#X+X$X#X#X:X<X9X;Xc.2.m                     ",
"                              o f t.V.2X;X-X+X_.J.J..XoXG.J..X].wX5X)._.J.!.J.!.!.!.!.!.!.!.+X#X#X:X:X2XOXt.[ 3                 ",
"                              5 F k.M.9X;XoX+X!.!.!.J.J.!.!.J.'.wX4X_.J.!.!.!.!.!.!.!.!.!.!.!.+X#X$X:X9X,Xz.E n                 ",
"                              G #.M.].2X:X.X~.!.!.!.!.!.!.W.J..X2X-XJ.Q.!.!.!.!.!.!.!.!.!.!.!.+X+X+X$X6X>XR.$.l                 ",
"                          e u t.T.9X4XOX+X!.!.!.~.!.!.!.!.!.~.!..XG.J.!.!.!.!.H.!.!.!.!.!.!.J.!.!.+X+X+X-X9X4.x                 ",
"                          n M l.'.6X,X+X~.W.H.H.H.J.H.H.W.W.H.J.!.J.!.!.!.!.!.!.!.!.!.!.!.!.!.!.!.!.!.+X$X7X4.V f               ",
"                          z C >X4XOXoXR.H.Z.Z.S.Z.N.N.S.B.Z.Z.S.!.!.W.!.!.!.J.!.!.!.J.!.!.!.!.!.!.!.!.!.R.OXY.a.+.2             ",
"                          w p >X4X@X+X!.D.Z.Z.Z.Z.Z.Z.Z.Z.Z.Z.S.W.!.!.!.!.!.!.!.J.J.J.!.!.!.~.Q.!.!.~.!.!.oXM.l.E y             ",
"                          *.>.>X:X+X!.F.D.Z.p.i.i.i.i.i.i.i.Z.Z.D.D.D.H.!.!.!.!.!.J.J.!.!.C.D.H.H.!.!.W.~.oX.XOX=.-             ",
"                      > s C.R.:XOXJ.W.N.a.Z.,.#.#.#.#.5.#.@.p.Z.A.B.N.D.W.!.!.W.J.J.J.!.!.A.N.k.C.Q.!.!.!.R.>X9Xk.=             ",
"                      t C R.-X:X#XF.D.y.i.t.z.c.z.c.c.n.c.j.<.p.i.p.A.Z.H.W.!.!.J.!.!.J.C.J j K.R.Y.Y.!.!.R.OX,Xh.H g           ",
"                      k C 1X7XOXR.B.y.#.0.%.M.eXrXeXrXeXrX6X-.0.0.9.a.Z.N.H.!.!.!.!.!.C.2.# . >X:XN.C.W.!.!.R.G.C.a.f :         ",
"                      t C 2X0XOXQ.A.y.@.[ ] /.rXrXrXrXrXrX5XO.[ [ -.A.a.A.D.!.!.!.!.J.D.q.@ $ [.-XB.P.W.Q.W.!.!.Y.u.G k         ",
"                      t F OX>XF.N.7.k.-X;X;X5XrXrXrXrXrXqXqX;X;X;X(.-.t.A.D.Q.!.!.D.S.r.E @ @ 4 s 6.9.e.N.W.!.J.W.I.W v         ",
"                      t C XX&XV.t.+.f.eXqXqXqXrXrXrXrXrXqXqXrXrXqX{.] &.A.W.!.!.W.S.Z.9.U # + + % ! 5.5.e.Q.!.!.!.W.U l         ",
"                      h T @X$XN.N.g./.qXqXeX4X[.OX=X[.[.OX|.eXrXrX3Xf.k.p.A.W.Q.!.D.p.9.Q ; * ; a 3.e.6.q.D.H.!.!.W.K k         ",
"                  < 5 4.Q.XXXX1.k.7XwXrXqXeXo.q u w w u e / 4XrXrXrXeXoX[ e.Z.D.W.S.Z.q.0.p.N.Q.~.+XC.5.8.@.k.~.R.W.H k         ",
"                  e B p.~.XX!.&.f.eXwX4X;X,XO.4 w w w w > 8 }.,X2X5XrX-X1.r.A.H.!.S.B.8.8.V.n.oX#X=X(.g.:.] h.Y.F.W._ u         ",
"                  w c B.XX!.Y.%.j.rX X9 h 7                 8 f f ( eX=X%.i.A.D.!.N.Z.9.,.;XwXeXeXrXwX8X6X6Xb.@.N.W.U.U.) O     ",
"                  6 l P.$X!.W.1.f.eX'.t z t                 2 x x ` eX-X%.i.D.D.W.S.Z.9.;.0XrXrXrXrXrXrXrXrXb.` k.R.T.Q.j ;     ",
"                  t x B.!.B.z.n.c.c.f.                        2 e ' c.k.#.s.A.D.!.S.B.k.k.c.n.n.n.n.'.eXqXqX}.v.).=X.XQ.,.+.    ",
"                  t N y.W.&.-.0X'.5 :                               1 M 5.s.A.D.W.D.B.E.T.w k k k t @.eXrXrXrXrXqXeXoXR.R.H.y y ",
"                  y v y.H.9.&.(.c.3                                 3 d Y q.B.C.W.u.p.P.4.s y i y q ' .X[.OXoXoX3XqX|.OX].G.C c ",
"                  t v u.W.%.Q B <                                       y #.A.Z.Z.,.5.A w             r y m N q f.qXqXqXqX,XV l ",
"                  t c u.W.&.Q L 1                                       w E a.B.Z.9.5.V 3             e t N l w g.eXeXeXeX,X7 q ",
"                  y v u.W.&.^ c q                                       w Q d.&.K A C 7                         | | X.X.X.|     ",
"                  t x d.I.&.Q c q                                       n Q d.T - k 5                             4 - q t :     ",
"                  y N p.Q.V.u.p q                                       k S $.j                                                 ",
"                  t l u.~.&X^.d q                                       k c y                                                   ",
"                  m N y.+X&XXXs e                                       q l q                                                   ",
"                5 Y ~ A.!..XR.T.k.e n e                                                                                         ",
"                t Q 5.C.J.G.E.1Xx.t z y                                                                                         ",
"            , H R s.B.Y.J.!.!..XL.l.l.l. .,                                                                                     ",
"            n I 6.U.E.G.R.!.!.!.+X&X<X<X;.q                                                                                     ",
"          u N R ,.I.R._.!.H.H.Y.!.$X<X<X>.f                                                                                     ",
"        3 K ! t.W.Q.!.OX@X;.,.Y.G.R.oX$X&X^...3                                                                                 ",
"        - W &.k.!.!.G.:X^.&.6.I.!.G.+X:X%X*X2.-                                                                                 ",
"        l ! I.G.R.OXOX:X^.G D 8.y.!.J.~.OX>X2.-                                                                                 ",
"        k &.!.!.!.$X<X,XE.a c Q t.Q.!.~.XX<X2.-                                                                                 ",
"        C ,.!._.@X&X:XK.l.9 i K 6.A.C.B.T.OXl.{ )                                                                               ",
"    2 C 5.y.!.@X1X<X<X) 5     4 C 0.#.$.k..XXX*X;.>                                                                             ",
"    n P 8.N.+XR.E.E.T.) :     X C ^ ^ ^ s.I.E.<X3.y                                                                             ",
"    x W I.XX>X..m Z u             y v v W 6.n.<X3.-                                                                             ",
"    x W Q.%X1X>.t n t             q n n U ^ C.1X3.k                                                                             ",
"    l R ^.z.;.`                         F S l.1Xt.z                                                                             ",
"    - E *X;.q                             t 2.1X3.k                                                                             ",
"    k S l...X                             3 ..x.E k                                                                             ",
"    N b t                                     t c n                                                                             ",
"    q x t                                     t y q                                                                             ",
"                                                                                                                                "
};
