/* XPM */
static char *tile0061703409407[] = {
/* columns rows colors chars-per-pixel */
"64 64 217 2 ",
"   c None",
".  c #8E4EBD",
"X  c #9B6DBB",
"o  c #9C71BA",
"O  c #A074B9",
"+  c #8C2CD9",
"@  c #852DD5",
"#  c #9338D6",
"$  c #9135DB",
"%  c #9639DB",
"&  c #9549CB",
"*  c #9041C8",
"=  c #9B49D5",
"-  c #A05ECC",
";  c #A04ED2",
":  c #A55FDD",
">  c #A95EDE",
",  c #A457D6",
"<  c #9E6BC4",
"1  c #9E66CF",
"2  c #9D6ACC",
"3  c #9E71C3",
"4  c #9F66D4",
"5  c #9E69D2",
"6  c #9F64D9",
"7  c #A26AC5",
"8  c #A166CC",
"9  c #A36BCB",
"0  c #A96BCE",
"q  c #AB74CC",
"w  c #AA7BCB",
"e  c #AC7DC6",
"r  c #B47ACB",
"t  c #A465D3",
"y  c #A965D6",
"u  c #A36BD3",
"i  c #AA6BD2",
"p  c #A463DB",
"a  c #AA64DC",
"s  c #AD6CDB",
"d  c #A669D9",
"f  c #B36AD6",
"g  c #B26CDE",
"h  c #AC72D3",
"j  c #AD72DF",
"k  c #B374D5",
"l  c #B57BD3",
"z  c #B472DD",
"x  c #BA7DDA",
"c  c #A65FE3",
"v  c #AB5EE4",
"b  c #A65DEA",
"n  c #AB5DEC",
"m  c #B25CEE",
"M  c #AF5DF2",
"N  c #B458F1",
"B  c #A661E1",
"V  c #AC65E3",
"C  c #AD69E6",
"Z  c #AE62EA",
"A  c #A667E6",
"S  c #B364E2",
"D  c #B26CE4",
"F  c #B46BEB",
"G  c #BB6AED",
"H  c #B464EA",
"J  c #B673E5",
"K  c #BB74E4",
"L  c #B779E4",
"P  c #BE7FE3",
"I  c #BC75EB",
"U  c #B763F4",
"Y  c #B964F4",
"T  c #BB6DF3",
"R  c #BD72F2",
"E  c #BD7BF2",
"W  c #C27EE4",
"Q  c #C177ED",
"!  c #C47BEE",
"~  c #C173F3",
"^  c #C47BF3",
"/  c #C87FF3",
"(  c #C97AF9",
")  c #C67FF8",
"_  c #A982CA",
"`  c #BD94CA",
"'  c #B983D4",
"]  c #BA84DB",
"[  c #BE8BDC",
"{  c #B98DD5",
"}  c #BA93DD",
"|  c #BD89E7",
" . c #C082DE",
".. c #C08BD9",
"X. c #C29CD2",
"o. c #C994DC",
"O. c #C29CDB",
"+. c #C192DE",
"@. c #CCA5DD",
"#. c #CCAADE",
"$. c #C7A7DC",
"%. c #C385E5",
"&. c #C38CE4",
"*. c #C486EC",
"=. c #C984ED",
"-. c #C38CEC",
";. c #CB8CEE",
":. c #CA8EE2",
">. c #D08DEE",
",. c #C694E5",
"<. c #CB95E6",
"1. c #CE9CE2",
"2. c #CD93EB",
"3. c #CD9BEC",
"4. c #C595E7",
"5. c #D393EB",
"6. c #D59BED",
"7. c #D59BEA",
"8. c #C683F3",
"9. c #CB84F4",
"0. c #C68DF1",
"q. c #CB8CF3",
"w. c #CB8BF9",
"e. c #C785F9",
"r. c #D18CF8",
"t. c #CE94F3",
"y. c #CF95F4",
"u. c #D394F5",
"i. c #D59BF4",
"p. c #DB9BF5",
"a. c #D293F9",
"s. c #D59CFA",
"d. c #DA9DFC",
"f. c #D891F8",
"g. c #E09DFF",
"h. c #CCABE2",
"j. c #CDA3E0",
"k. c #D2A3E6",
"l. c #D3ACE5",
"z. c #D3A3EC",
"x. c #D9A4ED",
"c. c #D6ACEC",
"v. c #DCACED",
"b. c #D5B2E5",
"n. c #D8B6E5",
"m. c #DCBCE6",
"M. c #D6B4E9",
"N. c #DEB5EC",
"B. c #DDBCED",
"V. c #D5A4F4",
"C. c #DBA4F5",
"Z. c #D6ACF3",
"A. c #DBABF4",
"S. c #D6A3FB",
"D. c #DBA2FB",
"F. c #D7AAF9",
"G. c #DCACFA",
"H. c #DCB3F4",
"J. c #DEBEF4",
"K. c #DEB3FB",
"L. c #DFBBFC",
"P. c #E2B3EC",
"I. c #E2BCEE",
"U. c #E3ACFA",
"Y. c #E1A6F8",
"T. c #E1B4F5",
"R. c #E3BCF4",
"E. c #ECBCF5",
"W. c #E3B5FC",
"Q. c #EBB2FC",
"!. c #E3BAFD",
"~. c #E8BCFA",
"^. c #E8B6F4",
"/. c #F0BEFA",
"(. c #DAC4E3",
"). c #DEC8EC",
"_. c #DDC4F2",
"`. c #DBC9F2",
"'. c #E2C6ED",
"]. c #E4CBED",
"[. c #E9CDEF",
"{. c #E5D2EC",
"}. c #EAD5EF",
"|. c #EADBEB",
" X c #E1D4E7",
".X c #E2C3F4",
"XX c #EAC4F6",
"oX c #E5CBF3",
"OX c #EBCCF5",
"+X c #E6C4FB",
"@X c #EAC5FB",
"#X c #E7C9FB",
"$X c #EACBFA",
"%X c #F1CEF6",
"&X c #F3CCFA",
"*X c #F9CDFB",
"=X c #E4D2F0",
"-X c #ECD5F5",
";X c #EDDBF4",
":X c #ECD3FA",
">X c #F4D3F6",
",X c #F2DCF6",
"<X c #F4D3FA",
"1X c #FAD2FC",
"2X c #F4DEFA",
"3X c #EEE3F2",
"4X c #F3E4F5",
"5X c #F1EDF5",
"6X c #F5E2F9",
"7X c #FBE4FC",
"8X c #F6EBF9",
"9X c #FCECFD",
"0X c #F9EAF6",
"qX c #FCFBF6",
"wX c #F6F1F8",
"eX c #FCF4FC",
"rX c #FDFCFC",
/* pixels */
"                                                                                                                                ",
"                          2 Z n n n n p                                                                                         ",
"                          2 v N m v v :                                                                                         ",
"                              > I v.P.P.X.9 d a i 7         O 0 i i i i i i 0 i 0 0 O                                           ",
"                              p *.9X9X9X@.p p v B 8         9 > v v S v S v v v v > 7                                           ",
"                              p I N.'.-Xb.,.1.7.<.&.l     r  .! ^ ! ^ ^ ! ^ ! ! ! ! W r                                         ",
"                              p Y *.3.T.$X:X7X9X-X^.K v v g f.d.d.S.S.D.d.D.Y.d.D.D.d.J > v 8                                   ",
"                              < D 8.w.W.@X:X2X7X}.T.P Z H D s.F.A.c.c.c.A.c.c.v.c.c.F.L Z Z 0                                   ",
"                                  V T 0.A.$X$X:X-X$XT.C.C.T.@X$X2X2X2X7X2X2X2X2X2X2X,XT.D.u.0.s a t                             ",
"                                  c Y 8.A.@X#X@X$X<XE.R.^.~.<X,X0XeX9X9XeX9X9XeX9XeX9XoXT.v.i.C n Z y                           ",
"                                  v Y 9.V.~.@X#X$X$X+XXXXX+X#X-XeXwX;X-X:X,X;X;X;X;X:X$X$X-XOXV.r.q.*.9                         ",
"                                  M Y 9.i.R.+X@X@X$X$X$X@X@X#X=XeX8X`.#X#X@X#X#X#X#X$X:X>X9X7X.XW.F.w.a 2                       ",
"                                  v Y q.M..X#X#X&X$X-X{.#X+X{.|.eX8X=X:X+X+X+X+X+X#X#X:X:X7X2XoXB.H.7.D j                       ",
"                                  v I U.&X7X,X#X@XoX7XeX=X`.0XqXrXrXeX6X.XL.L.L.!.+X#X#X#X#X#X:X<X7X%Xi.q.d                     ",
"                                  y | ~.;X9X,X+X#XoX6X9X].`.6XqXrXrXwX6X_.L.L.!.!.+X#X+X+X@X#X:X2X9X-XM.<.V                     ",
"                              o k t.c.2X-X-X+X_.!.L._.oX_.!..X].wX5X X_.L.!.!.L.!.!.+X:XeX8X:X;X#X:X:X6XOXu.| 7                 ",
"                              8 J z.B.7X;XoX+X!.!.!.!.!.!.!.L._.eX4X_.!.!.!.!.W.!.L.+X|.eXwXOX@X#X#X:X9X>Xc.! B                 ",
"                              L *.I.+X-XwX8X:X-X!.!.!.!.!.!.!..X,X-XL.W.!.!.!.!.!.!.`.qXrXrX6X.X+X+X$X2X,XR.=.v                 ",
"                          u s u.P.9X+X|.eX8X:X+X!.!.!.!.!.!.!.!.J.J.L.!.!.!.!.!.!.!._.eXrXqX2XJ.!.!.XX@X-X9X7.n                 ",
"                          c C x.'.7X_.eXrXqX2X_.K.K.W.W.T.W.W.L.!.!.!.!.!.!.!.L.!.!.!._.eX3X!.!.!.!.!.+X$X7Xz.S k               ",
"                          v F -X,X[.R.{.wX5X`.!.S.F.V.F.F.S.S.F.!.!.!.!.!.!.!.!.L.!.!..X,X-X!.~.!.!.!.!.R.oXT.p.%.u             ",
"                          : s >X6X#X!..X3X:X!.!.S.S.S.S.D.S.S.S.W.!.!.!.!.!.!.!.W.L.L.!.!.!.!.!.!.!.!.W.~.OXJ.x.! p             ",
"                          :.1.>X;X+X!.A.G.S.s.a.a.a.a.w.a.y.S.S.G.G.G.K.!.!.!.!.!.L.L.L.!.G.G.G.K.!.!.~.!..XoXOX>.>             ",
"                      2 s T.E.:X$XL.W.V.D.S.t.*.*.*.*.*.*.-.S.S.D.C.V.F.!.K.!.!.!.L.L.W.W.A.C.C.V.A.A.~.!.R.>X9Xz.:             ",
"                      p D ~.-X-X#XH.G.i.f.i.z.b.M.c.b.M.c.l.7.u.f.d.D.F.G.K.!.!.L.!.!.!.A.P W P N.I.R.W.!.R.OX,Xk.L l           ",
"                      c D 2X7XoXR.V.i.=.e.-.B.eXeXrXrXeXrX6X,.0.e.w.d.S.C.H.!.!.!.L.!.A.u.P x | N.R.T.K.!.!.R.J.U.d.k 2         ",
"                      p D 1X9XOX!.D.i.&.| } (.rXrXrXrXrXrX5X$.-.| 4.s.d.D.G.!.~.!.G.F.i.^ * . . -X-X>XV.W.!.!.!.A.C.K c         ",
"                      p J OX-XH.C.-.z.-X;X|.wXrXrXrXrXrXqXqX;X;X;X).,.a.D.U.~.!.W.F.S.q.~ # & & [.OX-XC.i.W.!.!.T.U.~ N         ",
"                      p D @X$XA.u.%.h.eXqXrXqXrXrXrXrXrXrXqXrXrXrX{.| 0.s.F.W.W.!.F.d.w.^ % $ $ - q h r.2.W.!.!.!.W.R v         ",
"                      k W @X&XV.V.j.(.qXqXqX,X[.[.-X[.oXoX|.eXrXqX3X#.z.-.t.F.G.!.F.S.w.e.# + + + = = / r.A.T.!.L.T.I v         ",
"                  3 2 6.Q.XX~.4.z.7XeXrXeXeX#.y a y y i u _ 4XrXrXrXwX$X-.a.D.G.!.F.S.r.2.# + + @ = = / 8.&.z.!.!.W.L c         ",
"                  d A p.~.OX~.-.h.eXwX3X;X,X$.8 y y a y u w {.,X4X5XqX-X0.u.D.U.W.F.S.q.<.; ; ; ; f f 5.,.O.k.T.L.T.] s         ",
"                  y m C.OX!.W.-.l.rX Xe z q                 w k k X.qX-X=.r.D.U.!.F.D.x.z.,X9XeXeXeXwX8X8X6Xm.&.V.T.U.C.' O     ",
"                  0 v C.@X!.W.4.h.eX'.p b p                 t b n [ eX-X8.a.F.A.W.F.V.E.^.0XrXrXrXrXrXrXrXeXm.[ z.R.^.Q.z t     ",
"                  p m C.+XC.x.M.M.b.h.                        u t { b.z.E r.C.A.W.i.p.C.6.l.n.M.M.M.].eXrXqX-Xn.).-X'.~.5.%.    ",
"                  p n i.K.;.,.0X'.2 <                               4 A y ^ Y.d.d.w.) D < s V v Z p | eXrXqXrXrXrXeXoXR.R.A.s a ",
"                  a M i.W.0.q._.b.9                                 7 j y ! Y.q.I F D q   h p a d 8 { oXoXOXoX].4XqX|.[.].J.S n ",
"                  p M p.W.*.^ A O                                       c ^ d.W > V 8                 i a V Z p $.rXrXrXrX,Xg n ",
"                  p m p.W.q.( m 4                                       v G / x                       t p v v y @.eXeXeXeX,Xq y ",
"                  p M p.K.2.( U t                                       4 v t                                   X.X.O.O.O.X.    ",
"                  p n p.W.q.) v d                                                                                 8 : p p <     ",
"                  p Z p.W.C.i.S t                                                                                               ",
"                : v p.!.*XE.C 4                                                                                                 ",
"                V S i.+X<XXXh q                                                                                                 ",
"              d Q 9.A.L.R.R.*Xv.p b p                                                                                           ",
"          2 J ! f.Y.T.L.R.!.XXI.C.x.x.+.                                                                                        ",
"          p T 9.U.!.R.!.!.!.L.+X<X>X1X<.                                                                                        ",
"        9 ( f.W.T.R.#X@X<.<.T.R.R.+X$X&Xo.7                                                                                     ",
"        p 9.z.!.R.J.:X@X;.9.U.^.K.+X$X>X<.>                                                                                     ",
"        v U.T.~.#X:X>XE.K H q.i.~.!.XX$X5.v                                                                                     ",
"        D !._.@X&X<X^.k.q i I / D.A.C.R.k.W '                                                                                   ",
"    5 D 8.!.#X1X<X>X] 8     9 F e.q.9.x.XX*X1.8                                                                                 ",
"    v U ;.~.XX^.E.E.' <     X D ( ( ( f.XX>X5.>                                                                                 ",
"    n Q U.>Xo.C C s             V M m T c.<X5.>                                                                                 ",
"    A I /.<.[                         J z.1Xu.b                                                                                 ",
"    v ! *Xt                             5.1X5.v                                                                                 ",
"    v G x.X                             o.v.! v                                                                                 ",
"    t n p                                 p p t                                                                                 ",
"                                                                                                                                ",
"                                                                                                                                ",
"                                                                                                                                ",
"                                                                                                                                ",
"                                                                                                                                ",
"                                                                                                                                "
};
