/* XPM */
static char *tile0011703409406[] = {
/* columns rows colors chars-per-pixel */
"64 64 219 2 ",
"   c None",
".  c #8E4EBD",
"X  c #9B6DBB",
"o  c #9C71BA",
"O  c #A074B9",
"+  c #892DD7",
"@  c #9639DB",
"#  c #9237D9",
"$  c #9345CA",
"%  c #9B49D5",
"&  c #A05ECC",
"*  c #A04ED2",
"=  c #A55FDD",
"-  c #A95EDD",
";  c #A457D6",
":  c #9E6BC4",
">  c #9E66CF",
",  c #9D6ACB",
"<  c #9E71C3",
"1  c #9F66D4",
"2  c #9E69D2",
"3  c #9F64D9",
"4  c #A16BC5",
"5  c #A166CC",
"6  c #A36BCC",
"7  c #A96BCE",
"8  c #AB74CC",
"9  c #AA7BCB",
"0  c #AC7DC6",
"q  c #B47ACB",
"w  c #A465D4",
"e  c #A965D6",
"r  c #A36BD4",
"t  c #AA6BD2",
"y  c #A463DB",
"u  c #AA64DC",
"i  c #AD6CDB",
"p  c #A669D9",
"a  c #B16BDD",
"s  c #B36AD6",
"d  c #AC73D4",
"f  c #AC71DD",
"g  c #B373D5",
"h  c #B57BD3",
"j  c #B472DD",
"k  c #BA7DDA",
"l  c #A65EE4",
"z  c #AB5EE4",
"x  c #A65DEA",
"c  c #AB5DEC",
"v  c #B25CEE",
"b  c #AF5DF2",
"n  c #B257F4",
"m  c #B458F1",
"M  c #A562E2",
"N  c #AC65E3",
"B  c #AD69E6",
"V  c #AE62E9",
"C  c #A667E6",
"Z  c #B364E2",
"A  c #B26CE4",
"S  c #B061E9",
"D  c #B56BEC",
"F  c #BB6BED",
"G  c #B866EA",
"H  c #B673E5",
"J  c #BB74E4",
"K  c #B779E4",
"L  c #BE7FE3",
"P  c #BC74EB",
"I  c #B763F4",
"U  c #B964F4",
"Y  c #BC6DF2",
"T  c #BD72F2",
"R  c #BD7BF2",
"E  c #C27EE4",
"W  c #C177ED",
"Q  c #C47BEE",
"!  c #C173F1",
"~  c #C47BF3",
"^  c #C87FF4",
"/  c #C57DF8",
"(  c #C97AF9",
")  c #A982CA",
"_  c #BD94CA",
"`  c #B983D4",
"'  c #BA84DB",
"]  c #BE8BDC",
"[  c #B98DD5",
"{  c #BA93DD",
"}  c #BD89E7",
"|  c #C082DE",
" . c #C08BD9",
".. c #C29CD2",
"X. c #C392DD",
"o. c #C29CDB",
"O. c #C994DC",
"+. c #CCA5DD",
"@. c #CCAADE",
"#. c #C7A7DC",
"$. c #C385E5",
"%. c #C38CE4",
"&. c #C485EC",
"*. c #C984ED",
"=. c #C38CEC",
"-. c #CB8BEE",
";. c #CA8EE2",
":. c #D08DEE",
">. c #C694E5",
",. c #CB95E6",
"<. c #C39BE1",
"1. c #CD9BE3",
"2. c #CC92EC",
"3. c #CD9BEC",
"4. c #C593EB",
"5. c #D194E7",
"6. c #D393EC",
"7. c #D59DEB",
"8. c #C684F3",
"9. c #CB83F4",
"0. c #C68DF1",
"q. c #CB8CF3",
"w. c #CC8BF9",
"e. c #C785F9",
"r. c #D28CF5",
"t. c #D18AF8",
"y. c #CE94F3",
"u. c #CF95F4",
"i. c #D394F5",
"p. c #D49BF4",
"a. c #DB9BF5",
"s. c #D293F9",
"d. c #D59CFA",
"f. c #DA9DFC",
"g. c #D891F8",
"h. c #E09DFF",
"j. c #CCABE2",
"k. c #CDA3E0",
"l. c #D2A3E6",
"z. c #D3ACE5",
"x. c #D3A3EC",
"c. c #D9A4ED",
"v. c #D6ACEC",
"b. c #DBACED",
"n. c #D5B2E5",
"m. c #D8B6E5",
"M. c #DCBCE6",
"N. c #D6B5EA",
"B. c #DEB5EB",
"V. c #DDBCED",
"C. c #D5A5F5",
"Z. c #DAA4F5",
"A. c #D5ACF3",
"S. c #DBABF5",
"D. c #D6A3FB",
"F. c #DAA2FB",
"G. c #D7AAF9",
"H. c #DCACFA",
"J. c #DCB2F5",
"K. c #DEBDF3",
"L. c #DEB3FA",
"P. c #DFBBFC",
"I. c #E2B3EC",
"U. c #E2BCEE",
"Y. c #E0A3FB",
"T. c #E3ACFA",
"R. c #E1A9F6",
"E. c #E1B4F5",
"W. c #E8B7F5",
"Q. c #E3BCF5",
"!. c #ECBCF4",
"~. c #E2B5FC",
"^. c #EAB4FB",
"/. c #E3BAFD",
"(. c #E9BDFB",
"). c #F1BEF9",
"_. c #DAC4E3",
"`. c #DCC2EF",
"'. c #DCCDE9",
"]. c #DDC3F3",
"[. c #DBC9F2",
"{. c #E2C6EC",
"}. c #E4CCED",
"|. c #E9CDEF",
" X c #E5D2EC",
".X c #EAD5EF",
"XX c #E7D9EB",
"oX c #E3C3F4",
"OX c #EAC4F5",
"+X c #E5CBF3",
"@X c #EACCF5",
"#X c #E6C4FB",
"$X c #EAC5FB",
"%X c #E7C9FB",
"&X c #EBCBFA",
"*X c #F3CEF6",
"=X c #F3CCFA",
"-X c #F9CDFB",
";X c #E5D2F2",
":X c #ECD4F5",
">X c #EDDBF4",
",X c #ECD3FA",
"<X c #F3D3F6",
"1X c #F2DCF6",
"2X c #F3D3FB",
"3X c #FAD2FC",
"4X c #F4DDFA",
"5X c #EEE3F2",
"6X c #F3E4F5",
"7X c #F1ECF4",
"8X c #F5E2F9",
"9X c #FBE4FC",
"0X c #F6EAF9",
"qX c #FCECFD",
"wX c #F9EAF6",
"eX c #FCFBF6",
"rX c #F6F2F9",
"tX c #FCF4FC",
"yX c #FDFCFC",
/* pixels */
"                                                                                                                                ",
"                          , V c c c c y                                                                                         ",
"                          , z m m z z y                                                                                         ",
"                              - P I.I.I...6 p p t 4         o 7 t t t t t t 7 t 7 7 O                                           ",
"                              y &.9XqXqX+.w l l l 5         6 z z z z z Z z z z z - 4                                           ",
"                              y P B.{.:XN.,.1.l.,.%.h     q | Q ^ ~ Q ~ Q ~ Q Q ^ Q E q                                         ",
"                              y U &.,./.OX,X9X9X@XW.J z z a g.f.F.f.D.F.F.F.Y.f.F.D.f.H - z 5                                   ",
"                              : B 8.s.~.#X,X4X9X.XU.L S S A d.H.A.b.v.v.A.v.b.b.v.v.G.K V V 7                                   ",
"                                  Z Y -.A.&X,X:X:X&XE.Z.Z.S.$X&X4X4X8X4X4X8X4X8X4X4X1XJ.Z.i.0.i M w                             ",
"                                  M I 8.S.$X$X%X&X2XOXW.(.!.<X1XwXtXtXqXtXqXqXqXqXtXqX@X~.b.p.N v N e                           ",
"                                  c I 9.C.(.#X$X&X&XOX$X$X#X%X:XrXrX>X:X1X>X,X>X,X>X>X%X$X,X@Xx.s.9.&.6                         ",
"                                  c I 9.p.Q.#X$X&X&X%X%XOX$X%X;XtX0X+X#X$X%X%X$X%X%X%X,X1XqX9XoXE.D.w.u ,                       ",
"                                  c U -.A.+X+X%X$XOX:X;X+X#X.XXXtX0X;X:XOX#X%X#X%X%X%X,X,X9X8X+X`.J.7.A f                       ",
"                                  - W T.=X9X1X%X&X@X9XtX;X[.0XeXyXyXtX8X]./.P.P./.#X%X%X%X%X&X&X2X9X*XC.q.p                     ",
"                                  u } Q.:XqX1X%X%X%X8XqX+X[.0XrXyXyXrX8X].P.P.P.P.#X%X#X$X#X%X,X4X9X:Xn.,.N                     ",
"                              o h q.b.4X1X;X#XP.P.].].+XK.oXoX}.rX7X'.[./.P././././././.#XP.#X%X%X,X,X4X@Xi.} 4                 ",
"                              6 H x.V.9X>X+X#XP./././.P.~./.P.{.tX6X]./.~././././././././././.$X%X%X,XqX1Xv.E M                 ",
"                              J &.V.}.8X,X#X(././././././././.Q.1X,XK././././././././././././.$X#X$X&X8X<XQ.*.c                 ",
"                          r i i.W.qX6X@X#X/././.~./././././././.K.K.P./././.~././././././././././.#X#XOX:XqX7.c                 ",
"                          l B c.{.8X1X#X/.P.~.L.P.P.~.~.~.~.~.P././././././.P./.P.~./././././././././.#X&X9X7.A g               ",
"                          x A <X1X@X%XQ.H.Z.G.C.C.D.G.C.G.D.D.G.P./././././././././.P./././././././././.Q.@XE.a.$.2             ",
"                          e a <X8X%X#X/.T.D.D.D.D.D.D.D.F.D.D.D.~././././././././.P.P./././././././././.Q.%XQ.c.Q u             ",
"                          ;.1.<X>X#XQ.J.F.D.d.s.i.s.s.w.s.u.D.D.H.H.H.E././././.~.P.P././.H.H.H.H././.^.(.oX+XOX:.-             ",
"                      , d S.Q.,X&XP.~.C.F.D.y.&.&.&.&.&.&.=.D.D.F.Z.D.G.P.~./././.P.P.P.~.S.Z.x.S././.(./.Q.:XqXx.=             ",
"                      y A Q.:X,X%XJ.H.p.s.i.x.z.N.N.z.N.v.z.3.i.s.f.D.C.L.~./././.Q./.P.S.L E B.Q.L.~.Q./.Q.@X<Xl.K h           ",
"                      l A 3X9X@XQ.C.p.*.e.&.V.yXtXyXyXtXyX8X>.q.e.w.f.Z.D.L./././././.S.y.$ . .X:XC.S.~././.Q.K.S.f.g :         ",
"                      y A 4XwX@X~.F.p.%.4.{ '.yXyXyXyXyXyX7X#.=.} 4.D.f.D.H./././.~./.H.t.@ $ *X@XC.Y.^.~./././.E.a.J l         ",
"                      y H @X<XJ.Z.q.l.:X:XXX7XyXyXyXyXyXeXeX>X>X>XV.>.i.F.T.^././.H.G.u.~ @ # & d w.w.i.C.~././.~.T.! n         ",
"                      y A OX=XA.p.} j.rXeXyXeXyXyXyXyXyXeXeXyXyXeX;X} 0.F.T./././.G.D.w.! # + + % ^ 8.8.y.~./.P./.~.T l         ",
"                      j E $X&XC.p.k._.eXeXeX1X}.@X;X|.|.@XXXrXyXeX5X@.x.d.D.^./.~.G.d.w.~ ; * * s 6.2.9.t.S.W././.~.P z         ",
"                  < 6 7.^.OXOX4.l.9XtXyXeXtX@.t i e u i r ) 6XyXyXyXtX+X} u.D.H./.G.D.r.e.d.C.^.(.$XL.8.8.%.l./.Q.~.K l         ",
"                  r C d.(.OX/.-.j.tXrX6X<X>X#.w e e e e 5 9 .X1X8X7XeX:X4.u.F.E./.G.Z.q.-.A.N.%X,X;X`.<.>.o.l.L.K.~.' i         ",
"                  e c Y.%X(.E.=.z.eX X0 j 8                 9 g g _ rX>X-.s.D.H.~.G.D.t.,.1XtXtXtXtXrX0X8X8XM.%.C.~.R.R.h O     ",
"                  7 z Z.$X/.E.>.j.tX`.y x y                 2 c c ] rX:X0.s.F.H./.G.d.w.,.0XyXyXyXyXyXyXyXyXM.] l.Q.!.^.J w     ",
"                  p c Z.#XZ.c.N.N.n.j.                        2 r [ n.x.*.g.F.H./.G.C.c.l.z.N.N.N.N.{.yXeXeX.Xm.`.>XoX~.6.$.    ",
"                  y b p.L.-.,.wX{.5 :                               1 B 8.s.Z.H./.F.Z.!.W.i l l z u } tXyXyXyXyXeXtX}.Q.Q.S.i u ",
"                  u b a.L.q.0.].m.6                                 5 f R w.Z.S.~.C.a.Z.a.d e p p w [ +X|.+XOX+X6XeXXX.X}.K.B v ",
"                  y b p.L.-.~ C o                                       u &.F.Z.D.2.~ D t             t u N N p #.yXyXtXyX1Xa z ",
"                  y b a.L.q.( b 2                                       e Q Y.f.f.w./ A :             w M c l w +.tXtXtXtX1X8 e ",
"                  p v a.~.y.( v p                                       e ~ Y.-.P D A 8                         ....o.o.o...    ",
"                  y v a.T.0./ Z w                                       M ~ h.E - M 5                             5 = w y :     ",
"                  p V f.~.S.a.Z w                                       z G *.k                                                 ",
"                  y V p.(.-X!.f w                                       l v e                                                   ",
"                  u S p.#X=XOXd r                                       1 z p                                                   ",
"                6 T ( F./.Q.OXW.l.r M r                                                                                         ",
"                p ! 8.S.P.K.Q.-Xb.M x e                                                                                         ",
"            , H W a.Z.K.P.Q.Q.#XQ.a.c.c.{ ,                                                                                     ",
"            M Y 9.Y.(.Q.P./.Q.P.oX3X3X2X,.w                                                                                     ",
"          i B W -.S./.]./.T.J./.OX%X&X<Xl.g                                                                                     ",
"        4 F ^ a.~.~.#X&XOX,.2.E.Q.K.#X<X=X!.O.4                                                                                 ",
"        u ! -.C.(.Q.K.%XOX-.9.T.E./.#X&X=X3X,.-                                                                                 ",
"        l ^ T.~.W.%X%X1X).J G 9.C././.(.OX<X5.z                                                                                 ",
"        l -./.P.(.&X,X<X!.s v ~ i.^././.OX<X5.-                                                                                 ",
"        A 2.Q.oX#X,X2XI.c.0 p P 9.Y.S.S.W.@Xc.| `                                                                               ",
"    2 A / p.Q.%X3X3X<X' 5     5 A e.8.*.c.oXOX-X,.1                                                                             ",
"    C U q.C.#XQ.W.!.!.` :     X B ~ ( ( g.T.Q.3X6.e                                                                             ",
"    c ! T.OX<X1.B B i             u b b ! 9.N.2X6.-                                                                             ",
"    c W ^.OX3X1.y l w             w M M T ( S.3X6.l                                                                             ",
"    c W ).b.,.]                         H F c.3Xi.x                                                                             ",
"    u W -X,.w                             y 5.3X6.l                                                                             ",
"    z F c.O.X                             4 O.c.Q l                                                                             ",
"    V n y                                     p v V                                                                             ",
"    w x y                                     y y w                                                                             ",
"                                                                                                                                "
};
