/* XPM */
static char *tile0051703409407[] = {
/* columns rows colors chars-per-pixel */
"64 64 217 2 ",
"   c None",
".  c #8E4EBD",
"X  c #9B6DBB",
"o  c #9C71BA",
"O  c #A074B9",
"+  c #8C2CD9",
"@  c #852DD5",
"#  c #9338D6",
"$  c #9135DB",
"%  c #9639DB",
"&  c #9549CB",
"*  c #9041C8",
"=  c #9B49D5",
"-  c #A05ECC",
";  c #A04ED2",
":  c #A55FDD",
">  c #A95EDE",
",  c #A457D6",
"<  c #9E6BC4",
"1  c #9E66CF",
"2  c #9D6ACC",
"3  c #9E71C3",
"4  c #9F66D4",
"5  c #9E69D2",
"6  c #9F64D9",
"7  c #A26AC5",
"8  c #A166CC",
"9  c #A36BCB",
"0  c #A96BCE",
"q  c #AB74CC",
"w  c #AA7BCB",
"e  c #AC7DC6",
"r  c #B47ACB",
"t  c #A465D3",
"y  c #A965D6",
"u  c #A36BD3",
"i  c #AA6BD2",
"p  c #A463DB",
"a  c #AA64DC",
"s  c #AD6CDB",
"d  c #A669D9",
"f  c #B36AD6",
"g  c #B26CDE",
"h  c #AC72D3",
"j  c #AD72DF",
"k  c #B374D5",
"l  c #B57BD3",
"z  c #B472DD",
"x  c #BA7DDA",
"c  c #A65FE3",
"v  c #AB5EE4",
"b  c #A65DEA",
"n  c #AB5DEC",
"m  c #B25CEE",
"M  c #AF5DF2",
"N  c #B458F1",
"B  c #A661E1",
"V  c #AC65E3",
"C  c #AD69E6",
"Z  c #AE62EA",
"A  c #A667E6",
"S  c #B364E2",
"D  c #B26CE4",
"F  c #B46BEB",
"G  c #BB6AED",
"H  c #B464EA",
"J  c #B673E5",
"K  c #BB74E4",
"L  c #B779E4",
"P  c #BE7FE3",
"I  c #BC75EB",
"U  c #B763F4",
"Y  c #B964F4",
"T  c #BB6DF3",
"R  c #BD72F2",
"E  c #BD7BF2",
"W  c #C27EE4",
"Q  c #C177ED",
"!  c #C47BEE",
"~  c #C173F3",
"^  c #C47BF3",
"/  c #C87FF3",
"(  c #C97AF9",
")  c #C67FF8",
"_  c #A982CA",
"`  c #BD94CA",
"'  c #B983D4",
"]  c #BA84DB",
"[  c #BE8BDC",
"{  c #B98DD5",
"}  c #BA93DD",
"|  c #BD89E7",
" . c #C082DE",
".. c #C08BD9",
"X. c #C29CD2",
"o. c #C994DC",
"O. c #C29CDB",
"+. c #C192DE",
"@. c #CCA5DD",
"#. c #CCAADE",
"$. c #C7A7DC",
"%. c #C385E5",
"&. c #C38CE4",
"*. c #C486EC",
"=. c #C984ED",
"-. c #C38CEC",
";. c #CB8CEE",
":. c #CA8EE2",
">. c #D08DEE",
",. c #C694E5",
"<. c #CB95E6",
"1. c #CE9CE2",
"2. c #CD93EB",
"3. c #CD9BEC",
"4. c #C595E7",
"5. c #D393EB",
"6. c #D59BED",
"7. c #D59BEA",
"8. c #C683F3",
"9. c #CB84F4",
"0. c #C68DF1",
"q. c #CB8CF3",
"w. c #CB8BF9",
"e. c #C785F9",
"r. c #D18CF8",
"t. c #CE94F3",
"y. c #CF95F4",
"u. c #D394F5",
"i. c #D59BF4",
"p. c #DB9BF5",
"a. c #D293F9",
"s. c #D59CFA",
"d. c #DA9DFC",
"f. c #D891F8",
"g. c #E09DFF",
"h. c #CCABE2",
"j. c #CDA3E0",
"k. c #D2A3E6",
"l. c #D3ACE5",
"z. c #D3A3EC",
"x. c #D9A4ED",
"c. c #D6ACEC",
"v. c #DCACED",
"b. c #D5B2E5",
"n. c #D8B6E5",
"m. c #DCBCE6",
"M. c #D6B4E9",
"N. c #DEB5EC",
"B. c #DDBCED",
"V. c #D5A4F5",
"C. c #DBA4F5",
"Z. c #D6ACF3",
"A. c #DBABF4",
"S. c #D6A3FB",
"D. c #DBA2FC",
"F. c #D7AAF9",
"G. c #DCACFA",
"H. c #DCB3F4",
"J. c #DEBDF3",
"K. c #DEB3FA",
"L. c #DFBBFC",
"P. c #E2B3EC",
"I. c #E2BCEE",
"U. c #E3ACFA",
"Y. c #E1A6F8",
"T. c #E1B4F5",
"R. c #E3BCF4",
"E. c #ECBCF5",
"W. c #E2B5FC",
"Q. c #EBB2FC",
"!. c #E3BAFD",
"~. c #E8BCFB",
"^. c #E8B6F4",
"/. c #F0BEFA",
"(. c #DAC4E3",
"). c #DEC8EC",
"_. c #DDC3F3",
"`. c #DBC9F2",
"'. c #E2C6EC",
"]. c #E4CCED",
"[. c #E9CDEF",
"{. c #E5D2EC",
"}. c #EAD5EF",
"|. c #EADCED",
" X c #E1D4E7",
".X c #E3C3F4",
"XX c #EAC4F6",
"oX c #E5CBF3",
"OX c #EACCF5",
"+X c #E6C4FB",
"@X c #EAC5FB",
"#X c #E7C9FB",
"$X c #EACBFA",
"%X c #F1CEF6",
"&X c #F3CCFA",
"*X c #F9CDFB",
"=X c #E4D2F0",
"-X c #ECD4F5",
";X c #EDDBF4",
":X c #ECD3FA",
">X c #F4D3F6",
",X c #F2DCF6",
"<X c #F4D3FA",
"1X c #FAD2FC",
"2X c #F4DDFA",
"3X c #EEE3F2",
"4X c #F3E4F5",
"5X c #F1ECF4",
"6X c #F5E2F9",
"7X c #FBE4FC",
"8X c #F6EAF9",
"9X c #FCECFD",
"0X c #F9EAF6",
"qX c #FCFBF6",
"wX c #F6F2F9",
"eX c #FCF4FC",
"rX c #FDFCFC",
/* pixels */
"                                                                                                                                ",
"                          2 Z n n n n p                                                                                         ",
"                          2 v N N v v p                                                                                         ",
"                              > K P.P.P.X.9 d a i 3         o 0 i i i f i i 0 i 0 0 O                                           ",
"                              p %.7X9X9X@.t B v c 8         9 > v v S v V v v v v > 7                                           ",
"                              p E N.'.:XM.,.1.7.<.%.l     r  .! ^ ! ^ ^ ! ^ ! ! ^ ! W r                                         ",
"                              p U *.<.!.#X<X2X9X-XT.K v v g f.d.d.D.D.D.d.D.Y.d.d.D.d.K > c 9                                   ",
"                              < D / t.W.+X:X2X0X}.R.W S H D s.F.A.c.c.c.Z.c.c.v.M.Z.V.L Z Z 0                                   ",
"                                  V T -.H.#X$X:X-X$XT.C.Y.A.@X$X2X2X6X2X6X2X6X6X2X6X,XT.D.a.;.s a t                             ",
"                                  B Y 8.C.@X@X#X$X>XXXR.E.~.>X,X0XeX9XeX9X9X9X9X9XwX8X$X^.Z.i.V n Z y                           ",
"                                  n m 9.C.~.+X#X$X&XXX@X+X+X#X:XwX5X;X:X-X,X:X,X:X;X:X$X#X%X$Xz.r.q.*.9                         ",
"                                  M Y 9.V.R.~.@X@X@X@X#X@X@XoX}.wX8XoX#X#X#X#X#X#X$X$X:X,X8X7X+XW.F.w.a 2                       ",
"                                  n Y >.M..X#X#X$X$X-X}.oX+X}.|.eXwX-X:X+X+X#X+X#X#X#X:X:X7X6XoXB.H.6.C z                       ",
"                                  B Q U.$X7X,X#X#XoX6XeX=X`.8XwXrXrXeX6X_.L.L.L.L.+X#X#X$X$X$X$X<X7X%XV.q.d                     ",
"                                  y P R.,X9X,X+X#XoX6X9X=X`.8XwXrXrXwX2X_.L.L.!.L.+X#X+X+X+X#X:X,X9X-Xn.<.V                     ",
"                              o k u.Z.2X;X-XoXL.!.L..XoXJ.!..X{.wX5X X_.!.!.!.L.!.!.!.!.L.+X.X#X#X:X:X2XOXu.| 7                 ",
"                              8 J z.B.9X;XoX~.L.!.W.!.!.!.!.K.'.wX4XJ.!.W.!.!.!.!.!.!.!.!.!.!.@X+X#X:X9X;Xc.! a                 ",
"                              L *.I.].6X:X.X~.!.!.!.!.!.!.!.!..X2X-XJ.!.!.!.!.!.!.!.!.!.!.!.!.+X@X+X$X2X>XR.=.n                 ",
"                          u s u.P.9X6XoX+XW.!.!.W.!.!.!.!.!.!.!.R._.L.!.!.!.!.!.!.!.!.!.!.!.!.!.!.!.+X#X-X9X7.n                 ",
"                          v C x.'.7X,X+X!.L.W.L.L.K.L.L.T.W.W.L.!.!.!.!.!.!.!.!.!.!.!.!.!.!.!.!.!.!.~.+X$X7Xx.S k               ",
"                          n F >X4XoXXXJ.G.F.S.V.S.F.V.V.A.S.S.F.L.!.!.!.!.!.!.W.!.L.L.!.!.!.!.!.!.!.!.!.R.[.H.p.%.u             ",
"                          : h >X4X$X+X!.U.S.D.S.S.D.S.D.D.S.S.F.W.!.W.!.!.!.!.L.!.L.L.!.!.!.~.W.!.!.!.!.~.$XR.x.! p             ",
"                          :.1.>X<X.X!.H.G.D.s.a.a.a.a.w.a.a.s.S.G.G.G.W.!.!.L.!.!.L.L.!.!.A.A.A.K.!.~.!.!..XoXOX>.>             ",
"                      2 h A.R.:X$XL.K.V.D.S.t.*.*.*.*.8.| -.S.S.D.C.V.F.!.W.!.!.!.L.L.W.W.G.C.C.V.Z.A.Q.!.I.>X9X7.:             ",
"                      p D R.-X$X#XK.G.u.a.u.z.b.M.M.l.M.b.l.3.i.a.d.D.S.K.W.!.!.L.!.!.!.A.W P P N.R.R.W.!.R.OX<Xl.L l           ",
"                      c J >X7X-XR.A.i.*.8.-.B.eXeXrXrXeXrX6X,.e.e.w.d.D.V.K.!.!.!.!.!.Z.u.P P | N.P.R.K.~.!.R.J.A.d.k 8         ",
"                      p J 1X8X$XW.D.i.&.-.} ).rXrXrXrXrXrX8XO.-.| 4.s.d.D.G.!.!.!.G.F.y.^ * . . -X-X>XV.W.!.!.!.U.C.K v         ",
"                      p D OX,XH.V.q.k.-X;X|.5XrXrXrXrXrXqXrX3X;X;X).,.u.D.U.Q.~.W.F.S.t.~ # & & [.-XOXV.V.W.!.L.W.U.T n         ",
"                      p D @X&XA.i.%.#.eXqXqXqXrXrXrXrXrXqXqXqXrXqX-X[ q.s.G.L.W.!.F.s.w.~ % $ $ - 0 h r.t.W.!.!.!.W.R v         ",
"                      k W @X$XV.i.j.(.wXqXqX,X[.[.-X[.OX[.;XwXrXqX3Xh.k.| y.F.G.!.F.D.w.9.# + + + = = / r.C.^.!.!.W.I c         ",
"                  3 2 6.Q.XXE.4.z.9XwXrXrXeX#.t a y y i u _ 4XrXrXrXeXOX-.a.D.G.W.F.s.r.2.# + + @ = = / 8.&.z.!.!.W.L B         ",
"                  d A p.E.#X~.-.h.eXwX4X,X,X$.8 y y a y 2 w -X,X;X5XrX-X0.a.D.G.!.F.S.w.,., ; ; , f f 5.O.O.k.T.L.T.] s         ",
"                  y m C.#X!.W.-.l.rX Xe z q                 w k k X.wX;X*.a.D.G.W.F.F.x.z.;XwXeXwXeXeX8X4X6XB.&.V.R.U.Y.r O     ",
"                  0 v C.#X!.T.4.h.eX).a b p                 t b b [ eX-X9.a.D.A.!.S.C.E.^.7XrXrXrXrXrXrXrXrXm.[ 3.R.R.Q.K t     ",
"                  p m C.~.C.C.n.b.b.h.                        u t { b.z.E r.C.A.W.V.p.C.6.b.n.M.M.n.].eXrXqX-Xn.'.;X.X^.5.%.    ",
"                  a n i.W.;.,.0X'.9 <                               4 C y ! Y.d.d.9.) D 7 s c v v p | eXrXqXrXrXqXeX[.L.R.A.s a ",
"                  a M i.W.8.q.).b.9                                 7 j y ^ Y.q.I G D q   h d a d t { oXoXoX.XoX3XqX|.}.].J.C N ",
"                  p M p.K.;.^ A 3                                       B ^ d.W > c 9                 i a V S d h.eXqXeXrX,Xg v ",
"                  p m p.W.;.( M 4                                       c G / x                       t p n v t #.eXeXeXeX,Xq d ",
"                  d M p.W.t.( m t                                       t v t                                   ` X.O.O.O.X.    ",
"                  p n p.W.e.^ v d                                                                                 8 : p p <     ",
"                  p Z p.Q.A.p.g t                                                                                               ",
"                p n i.~.&XE.J 5                                                                                                 ",
"                a H i.~.>XXXh u                                                                                                 ",
"              a ! 8.A.L.R.R.*Xv.p b d                                                                                           ",
"          2 J E f.Y.T.L.R.~..XR.i.x.x.+.                                                                                        ",
"          B T 9.Y.R.R.!.!.!.L..X1X<X1X<.                                                                                        ",
"        7 / u.Q.!.!.OX@X<.<.T.R.R.+X$X&Xo.7                                                                                     ",
"        p 8.C.~.R.J.:X@X;.9.U.^.!.+X$X>X5.,                                                                                     ",
"        v U.T.R.+X:X-XE.K H ;.i.!.!.@XOX5.v                                                                                     ",
"        D !..X+X$X<XP.x.w i Q / D.G.C.R.k. .'                                                                                   ",
"    5 D 8.L.@X1X1X>X[ 8     8 H 9.8.=.C.XX*X1.8                                                                                 ",
"    v H q.~.E.E.E.^.{ <     X C / ( ( f.XX>X5.>                                                                                 ",
"    n ~ U.>XO.C C s             B M N R c.<X5.>                                                                                 ",
"    b Q /.<...                        J 6.1Xu.b                                                                                 ",
"    a ! *Xt                             7.1X5.v                                                                                 ",
"    v G x.X                             o.v.! v                                                                                 ",
"    y n p                                 p p t                                                                                 ",
"                                                                                                                                ",
"                                                                                                                                ",
"                                                                                                                                ",
"                                                                                                                                ",
"                                                                                                                                ",
"                                                                                                                                "
};
