/* XPM */
static char *tile0001703321277[] = {
/* columns rows colors chars-per-pixel */
"64 64 5 1 ",
"  c None",
". c #262B44",
"X c #3A4466",
"o c #5A6988",
"O c #8B9BB4",
/* pixels */
"                                                                ",
"                                                                ",
"                                                                ",
"                                                                ",
"                                                                ",
"                                                                ",
"                                                                ",
"                                                                ",
"                                                                ",
"                                                                ",
"                                                                ",
"                                                                ",
"                                                                ",
"                                                                ",
"                                                                ",
"                                                                ",
"                                                                ",
"                                                                ",
"                      oo    oo    oo    oo                      ",
"                      oo    oo    oo    oo                      ",
"                oo    ..XX  ..XXXX..  oo..    oo                ",
"                oo    ..XX  ..XXXX..  oo..    oo                ",
"                ..XX  ....XX........XX....  oo..                ",
"                ..XX  ....XX........XX....  oo..                ",
"            OO  ....XX........XXXX........XX....  OO            ",
"            OO  ....XX........XXXX........XX....  OO            ",
"            XXoo........      ooXX      ........XXOO            ",
"            XXoo........      ooXX      ........XXOO            ",
"            ooXX....          ooXX          ....OOXX            ",
"            ooXX....          ooXX          ....OOXX            ",
"            ooXXOO        ooooXXXXXXXX        OOXX..            ",
"            ooXXOO        ooooXXXXXXXX        OOXX..            ",
"            ooooXXoo  OO  XXXXXXXXXXXX  OO  OOOOXX..            ",
"            ooooXXoo  OO  XXXXXXXXXXXX  OO  OOOOXX..            ",
"            ooooXXXXooOOoo....OOoo....OOXXooXXXX....            ",
"            ooooXXXXooOOoo....OOoo....OOXXooXXXX....            ",
"              ooooXXXXXXXXooooXXXXooooXXXXXXXX....              ",
"              ooooXXXXXXXXooooXXXXooooXXXXXXXX....              ",
"                ooXXXXXXXXXX........XXXXXXXX....                ",
"                ooXXXXXXXXXX........XXXXXXXX....                ",
"                  ooXXXXXX..ooooXX............                  ",
"                  ooXXXXXX..ooooXX............                  ",
"                          ..XX........                          ",
"                          ..XX........                          ",
"                            ........                            ",
"                            ........                            ",
"                                                                ",
"                                                                ",
"                                                                ",
"                                                                ",
"                                                                ",
"                                                                ",
"                                                                ",
"                                                                ",
"                                                                ",
"                                                                ",
"                                                                ",
"                                                                ",
"                                                                ",
"                                                                ",
"                                                                ",
"                                                                ",
"                                                                ",
"                                                                "
};
