/* XPM */
static char *result[] = {
/* columns rows colors chars-per-pixel */
"63 64 7 1 ",
"  c #2F2E2F",
". c #564064",
"X c #85578E",
"o c #BE9BB0",
"O c #3E2F5A",
"+ c #39314B",
"@ c white",
/* pixels */
"                                                               ",
"                                                               ",
"........................      XXXXXXXXXXXXXXXX      ooooooooooo",
"........................      XXXXXXXXXXXXXXXX      ooooooooooo",
"..........OO..............  XXXXXXXXXXXX..XXXXXX  XX....XXXXXXX",
"..........OO..............  XXXXXXXXXXXX..XXXXXX  XX....XXXXXXX",
"OOOO..OOOOOOOO..OOOOOO....  XXXX....XX........XX  OOOO....XX..X",
"OOOO..OOOOOOOO..OOOOOO....  XXXX....XX........XX  OOOO....XX..X",
"OOOOOOOOOO++OOOOOOOO++++..  XXOOOO..............    OOOO.......",
"OOOOOOOOOO++OOOOOOOO++++..  XXOOOO..............    OOOO.......",
"++++++++++++++++++++++++++  OOOOOOOOOOOO....OOOO        OOOO..O",
"++++++++++++++++++++++++++  OOOOOOOOOOOO....OOOO        OOOO..O",
"++++++++++++++++++++++++      OOOOOOOOOOOOOOOO              OOO",
"++++++++++++++++++++++++      OOOOOOOOOOOOOOOO              OOO",
"                                                               ",
"                                                               ",
"......      XXXXXXXXXXXXXXXXXXXXXXXXXXXXXX      XXXXXXXXXXXXXXX",
"......      XXXXXXXXXXXXXXXXXXXXXXXXXXXXXX      XXXXXXXXXXXXXXX",
"........  XXXXXXXXXXXXXXXXXXXX....XXXXXXXXXX  XXXXXXXXXXXX....X",
"........  XXXXXXXXXXXXXXXXXXXX....XXXXXXXXXX  XXXXXXXXXXXX....X",
"..OO....  XXXX....XX......XX........XX..XXXX  XXXX..XX.........",
"..OO....  XXXX....XX......XX........XX..XXXX  XXXX..XX.........",
"OOOO++..  XXOO........OO......OOOOOO....OOXX  XXOO........OOOO.",
"OOOO++..  XXOO........OO......OOOOOO....OOXX  XXOO........OOOO.",
"OO++++++  OOOOOO....OOOOOO............OOOOOO  OOOOOO....OOOO...",
"OO++++++  OOOOOO....OOOOOO............OOOOOO  OOOOOO....OOOO...",
"++++++++  OOOOOOOOOOOOOOOOOOOOOO....OOOOOOOO  OOOOOOOOOOOOOOOOO",
"++++++++  OOOOOOOOOOOOOOOOOOOOOO....OOOOOOOO  OOOOOOOOOOOOOOOOO",
"++++++      OOOOOOOOOOOOOOOOOOOOOOOOOOOOOO      OOOOOOOOOOOOOOO",
"++++++      OOOOOOOOOOOOOOOOOOOOOOOOOOOOOO      OOOOOOOOOOOOOOO",
"                                                               ",
"                                                               ",
"XXXXXXXXXXXXXXXXXXXX      XXXXXXXXXXXXXXXXXXXXXXXX      XXXXXXX",
"XXXXXXXXXXXXXXXXXXXX      XXXXXXXXXXXXXXXXXXXXXXXX      XXXXXXX",
"XXXXXXXXXXXXXX..XXXXXX  XXXXXXXXXXXX..XXXXXXXXXXXXXX  XXXXXX..X",
"XXXXXXXXXXXXXX..XXXXXX  XXXXXXXXXXXX..XXXXXXXXXXXXXX  XXXXXX..X",
"..XX......XX......XXXX  XXXX....XX........XX....XXXX  XXXX.....",
"..XX......XX......XXXX  XXXX....XX........XX....XXXX  XXXX.....",
"..........OO........XX  XX..........OO....OO......XX  XX....OO.",
"..........OO........XX  XX..........OO....OO......XX  XX....OO.",
"....OOOO....OO......OO  OO........OOOO......OO....OO  OO......O",
"....OOOO....OO......OO  OO........OOOO......OO....OO  OO......O",
"..OOOO......OOOO..OOOO  OOOO..OOOOOO....OO......OOOO  OOOO.....",
"..OOOO......OOOO..OOOO  OOOO..OOOOOO....OO......OOOO  OOOO.....",
"OOOOOOOO..OOOOOOOOOOOO  OOOOOOOOOOOOOOOOOOOO..OOOOOO  OOOOOO..O",
"OOOOOOOO..OOOOOOOOOOOO  OOOOOOOOOOOOOOOOOOOO..OOOOOO  OOOOOO..O",
"OOOOOOOOOOOOOOOOOOOO      OOOOOOOOOOOOOOOOOOOOOOOO      OOOOOOO",
"OOOOOOOOOOOOOOOOOOOO      OOOOOOOOOOOOOOOOOOOOOOOO      OOOOOOO",
"                                                               ",
"                                                               ",
"XXXXXXXXXX      XXXXXXXXXXXXXXXXXXXXXXXX      XXXXXXXXXXXXXXXXX",
"XXXXXXXXXX      XXXXXXXXXXXXXXXXXXXXXXXX      XXXXXXXXXXXXXXXXX",
"XXXXXXXXXXXX  XXXXXXXXXXXX..XXXXXX..XXXXXX  XXXXXXXXXXXXXXXX..X",
"XXXXXXXXXXXX  XXXXXXXXXXXX..XXXXXX..XXXXXX  XXXXXXXXXXXXXXXX..X",
"..XX....XXXX  XXXX....XX......XX......XXXX  XXXX....XX.........",
"..XX....XXXX  XXXX....XX......XX......XXXX  XXXX....XX.........",
"OO......OOXX  XXOO............OO......OOXX  XXOO............OO.",
"OO......OOXX  XXOO............OO......OOXX  XXOO............OO.",
"......OOOOOO  OOOOOO..OOOO..........OOOOOO  OOOOOO........OOOO.",
"......OOOOOO  OOOOOO..OOOO..........OOOOOO  OOOOOO........OOOO.",
"OO..OOOOOOOO  OOOOOOOOOOOOOOOOOO..OOOOOOOO  OOOOOOOO..OOOOOOOOO",
"OO..OOOOOOOO  OOOOOOOOOOOOOOOOOO..OOOOOOOO  OOOOOOOO..OOOOOOOOO",
"  OOOOOOOO      OOOOOOOOOOOOOOOOOOOOOOOO      OOOOOOOOOOOOOOOO ",
"  OOOOOOOO      OOOOOOOOOOOOOOOOOOOOOOOO      OOOOOOOOOOOOOOOO "
};
