/* XPM */
static char *result[] = {
/* columns rows colors chars-per-pixel */
"64 64 6 1 ",
"  c #2F2E2F",
". c #564064",
"X c #3E2F5A",
"o c #39314B",
"O c #85578E",
"+ c white",
/* pixels */
"                                                                ",
"                                                                ",
"........................      ............................      ",
"........................      ............................      ",
"..........XX..............  ............XX......XX..........  ..",
"..........XX..............  ............XX......XX..........  ..",
"XXXX..XXXXXXXX..XXXXXX....  ....XXXX..XXXXXX..XXXXXXXXXXXX..  ..",
"XXXX..XXXXXXXX..XXXXXX....  ....XXXX..XXXXXX..XXXXXXXXXXXX..  ..",
"XXXXXXXXXXooXXXXXXXXoooo..  ..ooooXXXXXXXXXXXXXXXXXXXXooXXXX  XX",
"XXXXXXXXXXooXXXXXXXXoooo..  ..ooooXXXXXXXXXXXXXXXXXXXXooXXXX  XX",
"oooooooooooooooooooooooooo  ooooooooooooXXXXoooooooooooooooo  XX",
"oooooooooooooooooooooooooo  ooooooooooooXXXXoooooooooooooooo  XX",
"oooooooooooooooooooooooo      oooooooooooooooooooooooooooo      ",
"oooooooooooooooooooooooo      oooooooooooooooooooooooooooo      ",
"                                                                ",
"                                                                ",
"......      ..............................      ................",
"......      ..............................      ................",
"........  ....................XXXX..........  ............XXXX..",
"........  ....................XXXX..........  ............XXXX..",
"..XX....  ....XXXX..XXXXXX..XXXXXXXX..XX....  ....XX..XXXXXXXXXX",
"..XX....  ....XXXX..XXXXXX..XXXXXXXX..XX....  ....XX..XXXXXXXXXX",
"XXXXoo..  ..ooXXXXXXXXooXXXXXXXXXXXXXXXXoo..  ..ooXXXXXXXXooooXX",
"XXXXoo..  ..ooXXXXXXXXooXXXXXXXXXXXXXXXXoo..  ..ooXXXXXXXXooooXX",
"XXoooooo  ooooooXXXXooooooXXXXXXXXXXXXoooooo  ooooooXXXXooooXXXX",
"XXoooooo  ooooooXXXXooooooXXXXXXXXXXXXoooooo  ooooooXXXXooooXXXX",
"oooooooo  ooooooooooooooooooooooXXXXoooooooo  oooooooooooooooooo",
"oooooooo  ooooooooooooooooooooooXXXXoooooooo  oooooooooooooooooo",
"oooooo      oooooooooooooooooooooooooooooo      oooooooooooooooo",
"oooooo      oooooooooooooooooooooooooooooo      oooooooooooooooo",
"                                                                ",
"                                                                ",
"OOOOOOOOOOOOOOOOOOOO      OOOOOOOOOOOOOOOOOOOOOOOO      OOOOOOOO",
"OOOOOOOOOOOOOOOOOOOO      OOOOOOOOOOOOOOOOOOOOOOOO      OOOOOOOO",
"OOOOOOOOOOOOOO..OOOOOO  OOOOOOOOOOOO..OOOOOOOOOOOOOO  OOOOOO..OO",
"OOOOOOOOOOOOOO..OOOOOO  OOOOOOOOOOOO..OOOOOOOOOOOOOO  OOOOOO..OO",
"..OO......OO......OOOO  OOOO....OO........OO....OOOO  OOOO......",
"..OO......OO......OOOO  OOOO....OO........OO....OOOO  OOOO......",
"..........XX........OO  OO..........XX....XX......OO  OO....XX..",
"..........XX........OO  OO..........XX....XX......OO  OO....XX..",
"....XXXX....XX......XX  XX........XXXX......XX....XX  XX......XX",
"....XXXX....XX......XX  XX........XXXX......XX....XX  XX......XX",
"..XXXX......XXXX..XXXX  XXXX..XXXXXX....XX......XXXX  XXXX......",
"..XXXX......XXXX..XXXX  XXXX..XXXXXX....XX......XXXX  XXXX......",
"XXXXXXXX..XXXXXXXXXXXX  XXXXXXXXXXXXXXXXXXXX..XXXXXX  XXXXXX..XX",
"XXXXXXXX..XXXXXXXXXXXX  XXXXXXXXXXXXXXXXXXXX..XXXXXX  XXXXXX..XX",
"XXXXXXXXXXXXXXXXXXXX      XXXXXXXXXXXXXXXXXXXXXXXX      XXXXXXXX",
"XXXXXXXXXXXXXXXXXXXX      XXXXXXXXXXXXXXXXXXXXXXXX      XXXXXXXX",
"                                                                ",
"                                                                ",
"OOOOOOOOOO      OOOOOOOOOOOOOOOOOOOOOOOO      OOOOOOOOOOOOOOOOOO",
"OOOOOOOOOO      OOOOOOOOOOOOOOOOOOOOOOOO      OOOOOOOOOOOOOOOOOO",
"OOOOOOOOOOOO  OOOOOOOOOOOO..OOOOOO..OOOOOO  OOOOOOOOOOOOOOOO..OO",
"OOOOOOOOOOOO  OOOOOOOOOOOO..OOOOOO..OOOOOO  OOOOOOOOOOOOOOOO..OO",
"..OO....OOOO  OOOO....OO......OO......OOOO  OOOO....OO..........",
"..OO....OOOO  OOOO....OO......OO......OOOO  OOOO....OO..........",
"XX......XXOO  OOXX............XX......XXOO  OOXX............XX..",
"XX......XXOO  OOXX............XX......XXOO  OOXX............XX..",
"......XXXXXX  XXXXXX..XXXX..........XXXXXX  XXXXXX........XXXX..",
"......XXXXXX  XXXXXX..XXXX..........XXXXXX  XXXXXX........XXXX..",
"XX..XXXXXXXX  XXXXXXXXXXXXXXXXXX..XXXXXXXX  XXXXXXXX..XXXXXXXXXX",
"XX..XXXXXXXX  XXXXXXXXXXXXXXXXXX..XXXXXXXX  XXXXXXXX..XXXXXXXXXX",
"  XXXXXXXX      XXXXXXXXXXXXXXXXXXXXXXXX      XXXXXXXXXXXXXXXX  ",
"  XXXXXXXX      XXXXXXXXXXXXXXXXXXXXXXXX      XXXXXXXXXXXXXXXX  "
};
