/* XPM */
static char *result[] = {
/* columns rows colors chars-per-pixel */
"64 64 7 1 ",
"  c #2F2E2F",
". c #BE9BB0",
"X c #85578E",
"o c #564064",
"O c #3E2F5A",
"+ c #39314B",
"@ c white",
/* pixels */
"                                                                ",
"                                                                ",
"........................XX  XX..............................XX  ",
"........................XX  XX..............................XX  ",
"XXXXXXXXXXooXXXXXXXXXXXX..  ..XXXXXXXXXXooXXXXXXooXXXXXXXXXX..  ",
"XXXXXXXXXXooXXXXXXXXXXXX..  ..XXXXXXXXXXooXXXXXXooXXXXXXXXXX..  ",
"ooooXXooooooooXXooooooXXXX  XXXXooooXXooooooXXooooooooXXooXXXX  ",
"ooooXXooooooooXXooooooXXXX  XXXXooooXXooooooXXooooooooXXooXXXX  ",
"ooooooooooOOooooooooOOOOXX  XXOOOOooooooooooooooooooooooooooXX  ",
"ooooooooooOOooooooooOOOOXX  XXOOOOooooooooooooooooooooooooooXX  ",
"OOOOOOOOOOOOOOOOOOOOOOOOOO  OOOOOOOOOOOOooooOOOOOOOOOOoooooooo  ",
"OOOOOOOOOOOOOOOOOOOOOOOOOO  OOOOOOOOOOOOooooOOOOOOOOOOoooooooo  ",
"OOOOOOOOOOOOOOOOOOOOOOOO      OOOOOOOOOOOOOOOOOOOOOOOOOOooooOO  ",
"OOOOOOOOOOOOOOOOOOOOOOOO      OOOOOOOOOOOOOOOOOOOOOOOOOOooooOO  ",
"                                                                ",
"                                                                ",
"XXXXXX      XXXXXXXXXXXXXXXXXXXXXXXXXXXXXXXXXXXXXXXXXXXXXXXXoo  ",
"XXXXXX      XXXXXXXXXXXXXXXXXXXXXXXXXXXXXXXXXXXXXXXXXXXXXXXXoo  ",
"XXXXXXXX  XXXXXXXXXXXXXXXXXXXXooooXXXXXXXXXXXXXXXXXXXXXXXXXXXX  ",
"XXXXXXXX  XXXXXXXXXXXXXXXXXXXXooooXXXXXXXXXXXXXXXXXXXXXXXXXXXX  ",
"XXooXXXX  XXXXooooXXooooooXXooooooooXXooXXXXooXXXXooXXooooXXXX  ",
"XXooXXXX  XXXXooooXXooooooXXooooooooXXooXXXXooXXXXooXXooooXXXX  ",
"ooooOOXX  XXOOooooooooOOooooooOOOOOOooooooooooooooooooooXXooXX  ",
"ooooOOXX  XXOOooooooooOOooooooOOOOOOooooooooooooooooooooXXooXX  ",
"ooOOOOOO  OOOOOOooooOOOOOOooooooooooooOOOOooooOOooOOoooooooooo  ",
"ooOOOOOO  OOOOOOooooOOOOOOooooooooooooOOOOooooOOooOOoooooooooo  ",
"OOOOOOOO  OOOOOOOOOOOOOOOOOOOOOOooooOOOOOOOOOOOOOOOOOOoooooooo  ",
"OOOOOOOO  OOOOOOOOOOOOOOOOOOOOOOooooOOOOOOOOOOOOOOOOOOoooooooo  ",
"OOOOOO      OOOOOOOOOOOOOOOOOOOOOOOOOOOOOOOOOOOOOOOOOOOOooooOO  ",
"OOOOOO      OOOOOOOOOOOOOOOOOOOOOOOOOOOOOOOOOOOOOOOOOOOOooooOO  ",
"                                                                ",
"                                                                ",
"oooooooooooooooooooo      XXXXXXXXXXXXXXXXXXXXXXXXXXXXXXXXXXoo  ",
"oooooooooooooooooooo      XXXXXXXXXXXXXXXXXXXXXXXXXXXXXXXXXXoo  ",
"ooooooooooooooOOoooooo  XXXXXXXXXXXXooXXXXXXXXXXXXXXXXXXXXXXXX  ",
"ooooooooooooooOOoooooo  XXXXXXXXXXXXooXXXXXXXXXXXXXXXXXXXXXXXX  ",
"OOooOOOOOOooOOOOOOoooo  XXXXooooXXooooooooXXooooXXXXXXooXXXXXX  ",
"OOooOOOOOOooOOOOOOoooo  XXXXooooXXooooooooXXooooXXXXXXooXXXXXX  ",
"OOOOOOOOOOOOOOOOOOOOoo  XXooooooooooOOooooOOooooooXXooXXooXXXX  ",
"OOOOOOOOOOOOOOOOOOOOoo  XXooooooooooOOooooOOooooooXXooXXooXXXX  ",
"OOOO++++OOOO++OOOOOO++  OOooooooooOOOOooooooOOooooooooooooooXX  ",
"OOOO++++OOOO++OOOOOO++  OOooooooooOOOOooooooOOooooooooooooooXX  ",
"OO++++OOOOOO++++OO++++  OOOOooOOOOOOooooOOooooooOOOOoooooooooo  ",
"OO++++OOOOOO++++OO++++  OOOOooOOOOOOooooOOooooooOOOOoooooooooo  ",
"++++++++OO++++++++++++  OOOOOOOOOOOOOOOOOOOOooOOOOOOOOoooooooo  ",
"++++++++OO++++++++++++  OOOOOOOOOOOOOOOOOOOOooOOOOOOOOoooooooo  ",
"++++++++++++++++++++      OOOOOOOOOOOOOOOOOOOOOOOOOOOOOOooooOO  ",
"++++++++++++++++++++      OOOOOOOOOOOOOOOOOOOOOOOOOOOOOOooooOO  ",
"                                                                ",
"                                                                ",
"oooooooooo      XXXXXXXXXXXXXXXXXXXXXXXXXXXXXXXXXXXXXXXXXXXXoo  ",
"oooooooooo      XXXXXXXXXXXXXXXXXXXXXXXXXXXXXXXXXXXXXXXXXXXXoo  ",
"oooooooooooo  XXXXXXXXXXXXooXXXXXXooXXXXXXXXXXXXXXXXXXXXXXXXXX  ",
"oooooooooooo  XXXXXXXXXXXXooXXXXXXooXXXXXXXXXXXXXXXXXXXXXXXXXX  ",
"ooooOOOOoooo  XXXXooooXXooooooXXooooooXXXXXXXXXXooooXXXXooXXXX  ",
"ooooOOOOoooo  XXXXooooXXooooooXXooooooXXXXXXXXXXooooXXXXooXXXX  ",
"OOOOOOOO++oo  XXOOooooooooooooOOooooooooXXooXXooooooooooXXXXXX  ",
"OOOOOOOO++oo  XXOOooooooooooooOOooooooooXXooXXooooooooooXXXXXX  ",
"OOOOOO++++++  OOOOOOooOOOOooooooooooOOooooooooooOOooooooooooXX  ",
"OOOOOO++++++  OOOOOOooOOOOooooooooooOOooooooooooOOooooooooooXX  ",
"++OO++++++++  OOOOOOOOOOOOOOOOOOooOOOOOOOOOOOOOOOOOOoooooooooo  ",
"++OO++++++++  OOOOOOOOOOOOOOOOOOooOOOOOOOOOOOOOOOOOOoooooooooo  ",
"++++++++++      OOOOOOOOOOOOOOOOOOOOOOOOOOOOOOOOOOOOOOOOooooOO  ",
"++++++++++      OOOOOOOOOOOOOOOOOOOOOOOOOOOOOOOOOOOOOOOOooooOO  "
};
