/* XPM */
static char *result[] = {
/* columns rows colors chars-per-pixel */
"63 64 7 1 ",
"  c #2F2E2F",
". c #BE9BB0",
"X c #85578E",
"o c #564064",
"O c #3E2F5A",
"+ c #39314B",
"@ c white",
/* pixels */
"                                                               ",
"                                                               ",
"............      XXXXXX      XXXXXXXXXXXXXXXX      ...........",
"............      XXXXXX      XXXXXXXXXXXXXXXX      ...........",
"XXXXXXXXooooXX  XXXXXXXXXX  XXXXXXXXXXXXooXXXXXX  XXooooXXXXXXX",
"XXXXXXXXooooXX  XXXXXXXXXX  XXXXXXXXXXXXooXXXXXX  XXooooXXXXXXX",
"XXooooooooOOOO  ooooooXXXX  XXXXooooXXooooooooXX  OOOOooooXXooX",
"XXooooooooOOOO  ooooooXXXX  XXXXooooXXooooooooXX  OOOOooooXXooX",
"ooooooooOOOO    ooooOOOOXX  XXOOOOoooooooooooooo    OOOOooooooo",
"ooooooooOOOO    ooooOOOOXX  XXOOOOoooooooooooooo    OOOOooooooo",
"OOooOOOO        OOOOOOOOOO  OOOOOOOOOOOOooooOOOO        OOOOooO",
"OOooOOOO        OOOOOOOOOO  OOOOOOOOOOOOooooOOOO        OOOOooO",
"OOOO              OOOOOO      OOOOOOOOOOOOOOOO              OOO",
"OOOO              OOOOOO      OOOOOOOOOOOOOOOO              OOO",
"                                                               ",
"                                                               ",
"XXXXXX      XXXXXXXXXXXXXXXXXXXXXXXXXXXXXX      XXXXXXXXXXXXXXX",
"XXXXXX      XXXXXXXXXXXXXXXXXXXXXXXXXXXXXX      XXXXXXXXXXXXXXX",
"XXXXXXXX  XXXXXXXXXXXXXXXXXXXXooooXXXXXXXXXX  XXXXXXXXXXXXooooX",
"XXXXXXXX  XXXXXXXXXXXXXXXXXXXXooooXXXXXXXXXX  XXXXXXXXXXXXooooX",
"XXooXXXX  XXXXooooXXooooooXXooooooooXXooXXXX  XXXXooXXooooooooo",
"XXooXXXX  XXXXooooXXooooooXXooooooooXXooXXXX  XXXXooXXooooooooo",
"ooooOOXX  XXOOooooooooOOooooooOOOOOOooooOOXX  XXOOooooooooOOOOo",
"ooooOOXX  XXOOooooooooOOooooooOOOOOOooooOOXX  XXOOooooooooOOOOo",
"ooOOOOOO  OOOOOOooooOOOOOOooooooooooooOOOOOO  OOOOOOooooOOOOooo",
"ooOOOOOO  OOOOOOooooOOOOOOooooooooooooOOOOOO  OOOOOOooooOOOOooo",
"OOOOOOOO  OOOOOOOOOOOOOOOOOOOOOOooooOOOOOOOO  OOOOOOOOOOOOOOOOO",
"OOOOOOOO  OOOOOOOOOOOOOOOOOOOOOOooooOOOOOOOO  OOOOOOOOOOOOOOOOO",
"OOOOOO      OOOOOOOOOOOOOOOOOOOOOOOOOOOOOO      OOOOOOOOOOOOOOO",
"OOOOOO      OOOOOOOOOOOOOOOOOOOOOOOOOOOOOO      OOOOOOOOOOOOOOO",
"                                                               ",
"                                                               ",
"oooooooooooooooooooo      XXXXXXXXXXXXXXXXXXXXXXXX      XXXXXXX",
"oooooooooooooooooooo      XXXXXXXXXXXXXXXXXXXXXXXX      XXXXXXX",
"ooooooooooooooOOoooooo  XXXXXXXXXXXXooXXXXXXXXXXXXXX  XXXXXXooX",
"ooooooooooooooOOoooooo  XXXXXXXXXXXXooXXXXXXXXXXXXXX  XXXXXXooX",
"OOooOOOOOOooOOOOOOoooo  XXXXooooXXooooooooXXooooXXXX  XXXXooooo",
"OOooOOOOOOooOOOOOOoooo  XXXXooooXXooooooooXXooooXXXX  XXXXooooo",
"OOOOOOOOOOOOOOOOOOOOoo  XXooooooooooOOooooOOooooooXX  XXooooOOo",
"OOOOOOOOOOOOOOOOOOOOoo  XXooooooooooOOooooOOooooooXX  XXooooOOo",
"OOOO++++OOOO++OOOOOO++  OOooooooooOOOOooooooOOooooOO  OOooooooO",
"OOOO++++OOOO++OOOOOO++  OOooooooooOOOOooooooOOooooOO  OOooooooO",
"OO++++OOOOOO++++OO++++  OOOOooOOOOOOooooOOooooooOOOO  OOOOooooo",
"OO++++OOOOOO++++OO++++  OOOOooOOOOOOooooOOooooooOOOO  OOOOooooo",
"++++++++OO++++++++++++  OOOOOOOOOOOOOOOOOOOOooOOOOOO  OOOOOOooO",
"++++++++OO++++++++++++  OOOOOOOOOOOOOOOOOOOOooOOOOOO  OOOOOOooO",
"++++++++++++++++++++      OOOOOOOOOOOOOOOOOOOOOOOO      OOOOOOO",
"++++++++++++++++++++      OOOOOOOOOOOOOOOOOOOOOOOO      OOOOOOO",
"                                                               ",
"                                                               ",
"oooooooooo      XXXXXXXXXXXXXXXXXXXXXXXX      XXXXXXXXXXXXXXXXX",
"oooooooooo      XXXXXXXXXXXXXXXXXXXXXXXX      XXXXXXXXXXXXXXXXX",
"oooooooooooo  XXXXXXXXXXXXooXXXXXXooXXXXXX  XXXXXXXXXXXXXXXXooX",
"oooooooooooo  XXXXXXXXXXXXooXXXXXXooXXXXXX  XXXXXXXXXXXXXXXXooX",
"OOooOOOOoooo  XXXXooooXXooooooXXooooooXXXX  XXXXooooXXooooooooo",
"OOooOOOOoooo  XXXXooooXXooooooXXooooooXXXX  XXXXooooXXooooooooo",
"OOOOOOOO++oo  XXOOooooooooooooOOooooooOOXX  XXOOooooooooooooOOo",
"OOOOOOOO++oo  XXOOooooooooooooOOooooooOOXX  XXOOooooooooooooOOo",
"OOOOOO++++++  OOOOOOooOOOOooooooooooOOOOOO  OOOOOOooooooooOOOOo",
"OOOOOO++++++  OOOOOOooOOOOooooooooooOOOOOO  OOOOOOooooooooOOOOo",
"++OO++++++++  OOOOOOOOOOOOOOOOOOooOOOOOOOO  OOOOOOOOooOOOOOOOOO",
"++OO++++++++  OOOOOOOOOOOOOOOOOOooOOOOOOOO  OOOOOOOOooOOOOOOOOO",
"++++++++++      OOOOOOOOOOOOOOOOOOOOOOOO      OOOOOOOOOOOOOOOO ",
"++++++++++      OOOOOOOOOOOOOOOOOOOOOOOO      OOOOOOOOOOOOOOOO "
};
