/* XPM */
static char *result[] = {
/* columns rows colors chars-per-pixel */
"64 64 6 1 ",
"  c #2F2E2F",
". c #564064",
"X c #3E2F5A",
"o c #39314B",
"O c #85578E",
"+ c white",
/* pixels */
"                                                                ",
"                                                                ",
"........................      ............................      ",
"........................      ............................      ",
"..........XX..............  ............XX......XX..........  ..",
"..........XX..............  ............XX......XX..........  ..",
"XXXX..XXXXXXXX..XXXXXX....  ....XXXX..XXXXXX..XXXXXXXXXXXX..  ..",
"XXXX..XXXXXXXX..XXXXXX....  ....XXXX..XXXXXX..XXXXXXXXXXXX..  ..",
"XXXXXXXXXXooXXXXXXXXoooo..  ..ooooXXXXXXXXXXXXXXXXXXXXooXXXX  XX",
"XXXXXXXXXXooXXXXXXXXoooo..  ..ooooXXXXXXXXXXXXXXXXXXXXooXXXX  XX",
"oooooooooooooooooooooooooo  ooooooooooooXXXXoooooooooooooooo  oo",
"oooooooooooooooooooooooooo  ooooooooooooXXXXoooooooooooooooo  oo",
"oooooooooooooooooooooooo      oooooooooooooooooooooooooooo      ",
"oooooooooooooooooooooooo      oooooooooooooooooooooooooooo      ",
"                                                                ",
"                                                                ",
"......      ..............................      ................",
"......      ..............................      ................",
"........  ....................XXXX..........  ............XXXX..",
"........  ....................XXXX..........  ............XXXX..",
"..XX....  ....XXXX..XXXXXX..XXXXXXXX..XX....  ....XX..XXXXXXXXXX",
"..XX....  ....XXXX..XXXXXX..XXXXXXXX..XX....  ....XX..XXXXXXXXXX",
"XXXXoo..  ..ooXXXXXXXXooXXXXXXXXXXXXXXXXoo..  ..ooXXXXXXXXooooXX",
"XXXXoo..  ..ooXXXXXXXXooXXXXXXXXXXXXXXXXoo..  ..ooXXXXXXXXooooXX",
"XXoooooo  ooooooXXXXooooooXXXXXXXXXXXXoooooo  ooooooXXXXooooXXXX",
"XXoooooo  ooooooXXXXooooooXXXXXXXXXXXXoooooo  ooooooXXXXooooXXXX",
"oooooooo  ooooooooooooooooooooooXXXXoooooooo  oooooooooooooooooo",
"oooooooo  ooooooooooooooooooooooXXXXoooooooo  oooooooooooooooooo",
"oooooo      oooooooooooooooooooooooooooooo      oooooooooooooooo",
"oooooo      oooooooooooooooooooooooooooooo      oooooooooooooooo",
"                                                                ",
"                                                                ",
"OOOOOOOOOOOOOOOOOOOO      ........................      ........",
"OOOOOOOOOOOOOOOOOOOO      ........................      ........",
"OOOOOOOOOOOOOO..OOOOOO  ............XX..............  ......XX..",
"OOOOOOOOOOOOOO..OOOOOO  ............XX..............  ......XX..",
"..OO......OO......OOOO  ....XXXX..XXXXXXXX..XXXX....  ....XXXXXX",
"..OO......OO......OOOO  ....XXXX..XXXXXXXX..XXXX....  ....XXXXXX",
"..........XX........OO  ..XXXXXXXXXXooXXXXXXXXXXXX..  ..XXXXXXXX",
"..........XX........OO  ..XXXXXXXXXXooXXXXXXXXXXXX..  ..XXXXXXXX",
"....XXXX....XX......XX  ooXXXXXXXXooooXXXXXXXXXXXXoo  ooXXXXXXXX",
"....XXXX....XX......XX  ooXXXXXXXXooooXXXXXXXXXXXXoo  ooXXXXXXXX",
"..XXXX......XXXX..XXXX  ooooXXooooooXXXXooXXXXXXoooo  ooooXXXXXX",
"..XXXX......XXXX..XXXX  ooooXXooooooXXXXooXXXXXXoooo  ooooXXXXXX",
"XXXXXXXX..XXXXXXXXXXXX  ooooooooooooooooooooXXoooooo  ooooooXXoo",
"XXXXXXXX..XXXXXXXXXXXX  ooooooooooooooooooooXXoooooo  ooooooXXoo",
"XXXXXXXXXXXXXXXXXXXX      oooooooooooooooooooooooo      oooooooo",
"XXXXXXXXXXXXXXXXXXXX      oooooooooooooooooooooooo      oooooooo",
"                                                                ",
"                                                                ",
"OOOOOOOOOO      OOOOOOOOOOOOOOOOOOOOOOOO      ..................",
"OOOOOOOOOO      OOOOOOOOOOOOOOOOOOOOOOOO      ..................",
"OOOOOOOOOOOO  OOOOOOOOOOOO..OOOOOO..OOOOOO  ................XX..",
"OOOOOOOOOOOO  OOOOOOOOOOOO..OOOOOO..OOOOOO  ................XX..",
"..OO....OOOO  OOOO....OO......OO......OOOO  ....XXXX..XXXXXXXXXX",
"..OO....OOOO  OOOO....OO......OO......OOOO  ....XXXX..XXXXXXXXXX",
"XX......XXOO  OOXX............XX......XXOO  ..ooXXXXXXXXXXXXooXX",
"XX......XXOO  OOXX............XX......XXOO  ..ooXXXXXXXXXXXXooXX",
"......XXXXXX  XXXXXX..XXXX..........XXXXXX  ooooooXXXXXXXXooooXX",
"......XXXXXX  XXXXXX..XXXX..........XXXXXX  ooooooXXXXXXXXooooXX",
"XX..XXXXXXXX  XXXXXXXXXXXXXXXXXX..XXXXXXXX  ooooooooXXoooooooooo",
"XX..XXXXXXXX  XXXXXXXXXXXXXXXXXX..XXXXXXXX  ooooooooXXoooooooooo",
"  XXXXXXXX      XXXXXXXXXXXXXXXXXXXXXXXX      oooooooooooooooooo",
"  XXXXXXXX      XXXXXXXXXXXXXXXXXXXXXXXX      oooooooooooooooooo"
};
