/* XPM */
static char *result[] = {
/* columns rows colors chars-per-pixel */
"64 64 6 1 ",
"  c #2F2E2F",
". c #564064",
"X c #85578E",
"o c #3E2F5A",
"O c #39314B",
"+ c white",
/* pixels */
"                                                                ",
"                                                                ",
"  ..XXXXXXXXXXXXXXXXXXXX      ............................      ",
"  ..XXXXXXXXXXXXXXXXXXXX      ............................      ",
"  XXXXXXXX..XXXXXXXXXXXXXX  ............oo......oo..........  ..",
"  XXXXXXXX..XXXXXXXXXXXXXX  ............oo......oo..........  ..",
"  XXXX........XX......XXXX  ....oooo..oooooo..oooooooooooo..  ..",
"  XXXX........XX......XXXX  ....oooo..oooooo..oooooooooooo..  ..",
"  XX................ooooXX  ..OOOOooooooooooooooooooooOOoooo  oo",
"  XX................ooooXX  ..OOOOooooooooooooooooooooOOoooo  oo",
"  ..XX....oooooooooooooooo  OOOOOOOOOOOOooooOOOOOOOOOOOOOOOO  OO",
"  ..XX....oooooooooooooooo  OOOOOOOOOOOOooooOOOOOOOOOOOOOOOO  OO",
"  oo....oooooooooooooooo      OOOOOOOOOOOOOOOOOOOOOOOOOOOO      ",
"  oo....oooooooooooooooo      OOOOOOOOOOOOOOOOOOOOOOOOOOOO      ",
"                                                                ",
"                                                                ",
"  ..XXXXXXXXXXXXXXXXXXXXXXXXXXXXXXXXXXXXXX      ................",
"  ..XXXXXXXXXXXXXXXXXXXXXXXXXXXXXXXXXXXXXX      ................",
"  XXXXXXXXXXXXXXXXXXXXXXXXXXXX....XXXXXXXXXX  ............oooo..",
"  XXXXXXXXXXXXXXXXXXXXXXXXXXXX....XXXXXXXXXX  ............oooo..",
"  XXXX......XX....XX......XX........XX..XXXX  ....oo..oooooooooo",
"  XXXX......XX....XX......XX........XX..XXXX  ....oo..oooooooooo",
"  XX..XX..............oo......oooooo....ooXX  ..OOooooooooOOOOoo",
"  XX..XX..............oo......oooooo....ooXX  ..OOooooooooOOOOoo",
"  XX..........oo....oooooo............oooooo  OOOOOOooooOOOOoooo",
"  XX..........oo....oooooo............oooooo  OOOOOOooooOOOOoooo",
"  ..XX......oooooooooooooooooooo....oooooooo  OOOOOOOOOOOOOOOOOO",
"  ..XX......oooooooooooooooooooo....oooooooo  OOOOOOOOOOOOOOOOOO",
"  oo....oooooooooooooooooooooooooooooooooo      OOOOOOOOOOOOOOOO",
"  oo....oooooooooooooooooooooooooooooooooo      OOOOOOOOOOOOOOOO",
"                                                                ",
"                                                                ",
"  ..XXXXXXXXXXXXXXXX      XXXXXXXXXXXXXXXXXXXXXXXX      XXXXXXXX",
"  ..XXXXXXXXXXXXXXXX      XXXXXXXXXXXXXXXXXXXXXXXX      XXXXXXXX",
"  XXXXXXXXXXXX..XXXXXX  XXXXXXXXXXXX..XXXXXXXXXXXXXX  XXXXXX..XX",
"  XXXXXXXXXXXX..XXXXXX  XXXXXXXXXXXX..XXXXXXXXXXXXXX  XXXXXX..XX",
"  XXXXXX..XX......XXXX  XXXX....XX........XX....XXXX  XXXX......",
"  XXXXXX..XX......XXXX  XXXX....XX........XX....XXXX  XXXX......",
"  XXXX....oo........XX  XX..........oo....oo......XX  XX....oo..",
"  XXXX....oo........XX  XX..........oo....oo......XX  XX....oo..",
"  XX..XX....oo......oo  oo........oooo......oo....oo  oo......oo",
"  XX..XX....oo......oo  oo........oooo......oo....oo  oo......oo",
"  XX........oooo..oooo  oooo..oooooo....oo......oooo  oooo......",
"  XX........oooo..oooo  oooo..oooooo....oo......oooo  oooo......",
"  ..XX....oooooooooooo  oooooooooooooooooooo..oooooo  oooooo..oo",
"  ..XX....oooooooooooo  oooooooooooooooooooo..oooooo  oooooo..oo",
"  oo..oooooooooooooo      oooooooooooooooooooooooo      oooooooo",
"  oo..oooooooooooooo      oooooooooooooooooooooooo      oooooooo",
"                                                                ",
"                                                                ",
"  ..XXXXXXXXXXXXXXXXXXXXXXXXXXXXXXXXXXXX      XXXXXXXXXXXXXXXXXX",
"  ..XXXXXXXXXXXXXXXXXXXXXXXXXXXXXXXXXXXX      XXXXXXXXXXXXXXXXXX",
"  XXXXXX..XXXXXXXXXXXXXXXX..XXXXXX..XXXXXX  XXXXXXXXXXXXXXXX..XX",
"  XXXXXX..XXXXXXXXXXXXXXXX..XXXXXX..XXXXXX  XXXXXXXXXXXXXXXX..XX",
"  XXXXXXXX..XXXXXX....XX......XX......XXXX  XXXX....XX..........",
"  XXXXXXXX..XXXXXX....XX......XX......XXXX  XXXX....XX..........",
"  XX......XXooXXoo............oo......ooXX  XXoo............oo..",
"  XX......XXooXXoo............oo......ooXX  XXoo............oo..",
"  ..........oooooooo..oooo..........oooooo  oooooo........oooo..",
"  ..........oooooooo..oooo..........oooooo  oooooo........oooo..",
"  oo......oooooooooooooooooooooo..oooooooo  oooooooo..oooooooooo",
"  oo......oooooooooooooooooooooo..oooooooo  oooooooo..oooooooooo",
"                                                                ",
"                                                                "
};
