/* XPM */
static char *result[] = {
/* columns rows colors chars-per-pixel */
"64 64 7 1 ",
"  c #2F2E2F",
". c #85578E",
"X c #BE9BB0",
"o c #564064",
"O c #3E2F5A",
"+ c #39314B",
"@ c white",
/* pixels */
"                                                                ",
"                                                                ",
"  ..XXXXXXXXXXXXXXXXXXXX..  ..XXXXXXXXXXXXXXXXXXXXXXXXXXXX..  ..",
"  ..XXXXXXXXXXXXXXXXXXXX..  ..XXXXXXXXXXXXXXXXXXXXXXXXXXXX..  ..",
"  XX....................XX  XX..........oo......oo........XX  XX",
"  XX....................XX  XX..........oo......oo........XX  XX",
"  ....oooooooo..oooooo....  ....oooo..oooooo..oooooooooooo..  ..",
"  ....oooooooo..oooooo....  ....oooo..oooooo..oooooooooooo..  ..",
"  ..ooooooooooooooooOOOO..  ..OOOOooooooooooooooooooooOOoooo  oo",
"  ..ooooooooooooooooOOOO..  ..OOOOooooooooooooooooooooOOoooo  oo",
"  oo..ooooOOOOOOOOOOOOOOOO  OOOOOOOOOOOOooooOOOOOOOOOOOOOOOO  OO",
"  oo..ooooOOOOOOOOOOOOOOOO  OOOOOOOOOOOOooooOOOOOOOOOOOOOOOO  OO",
"  OOooooOOOOOOOOOOOOOOOO      OOOOOOOOOOOOOOOOOOOOOOOOOOOO      ",
"  OOooooOOOOOOOOOOOOOOOO      OOOOOOOOOOOOOOOOOOOOOOOOOOOO      ",
"                                                                ",
"                                                                ",
"  oo......................................      ................",
"  oo......................................      ................",
"  ............................oooo..........  ............oooo..",
"  ............................oooo..........  ............oooo..",
"  ....oooooo..oooo..oooooo..oooooooo..oo....  ....oo..oooooooooo",
"  ....oooooo..oooo..oooooo..oooooooo..oo....  ....oo..oooooooooo",
"  ..oo..ooooooooooooooOOooooooOOOOOOooooOO..  ..OOooooooooOOOOoo",
"  ..oo..ooooooooooooooOOooooooOOOOOOooooOO..  ..OOooooooooOOOOoo",
"  ..ooooooooooOOooooOOOOOOooooooooooooOOOOOO  OOOOOOooooOOOOoooo",
"  ..ooooooooooOOooooOOOOOOooooooooooooOOOOOO  OOOOOOooooOOOOoooo",
"  oo..ooooooOOOOOOOOOOOOOOOOOOOOooooOOOOOOOO  OOOOOOOOOOOOOOOOOO",
"  oo..ooooooOOOOOOOOOOOOOOOOOOOOooooOOOOOOOO  OOOOOOOOOOOOOOOOOO",
"  OOooooOOOOOOOOOOOOOOOOOOOOOOOOOOOOOOOOOO      OOOOOOOOOOOOOOOO",
"  OOooooOOOOOOOOOOOOOOOOOOOOOOOOOOOOOOOOOO      OOOOOOOOOOOOOOOO",
"                                                                ",
"                                                                ",
"  oo................      oooooooooooooooooooooooo      oooooooo",
"  oo................      oooooooooooooooooooooooo      oooooooo",
"  ............oo......  ooooooooooooOOoooooooooooooo  ooooooOOoo",
"  ............oo......  ooooooooooooOOoooooooooooooo  ooooooOOoo",
"  ......oo..oooooo....  ooooOOOOooOOOOOOOOooOOOOoooo  ooooOOOOOO",
"  ......oo..oooooo....  ooooOOOOooOOOOOOOOooOOOOoooo  ooooOOOOOO",
"  ....ooooOOoooooooo..  ooOOOOOOOOOO++OOOOOOOOOOOOoo  ooOOOOOOOO",
"  ....ooooOOoooooooo..  ooOOOOOOOOOO++OOOOOOOOOOOOoo  ooOOOOOOOO",
"  ..oo..ooooOOooooooOO  ++OOOOOOOO++++OOOOOOOOOOOO++  ++OOOOOOOO",
"  ..oo..ooooOOooooooOO  ++OOOOOOOO++++OOOOOOOOOOOO++  ++OOOOOOOO",
"  ..ooooooooOOOOooOOOO  ++++OO++++++OOOO++OOOOOO++++  ++++OOOOOO",
"  ..ooooooooOOOOooOOOO  ++++OO++++++OOOO++OOOOOO++++  ++++OOOOOO",
"  oo..ooooOOOOOOOOOOOO  ++++++++++++++++++++OO++++++  ++++++OO++",
"  oo..ooooOOOOOOOOOOOO  ++++++++++++++++++++OO++++++  ++++++OO++",
"  OOooOOOOOOOOOOOOOO      ++++++++++++++++++++++++      ++++++++",
"  OOooOOOOOOOOOOOOOO      ++++++++++++++++++++++++      ++++++++",
"                                                                ",
"                                                                ",
"  oo....................................      oooooooooooooooooo",
"  oo....................................      oooooooooooooooooo",
"  ......oo................oo......oo......  ooooooooooooooooOOoo",
"  ......oo................oo......oo......  ooooooooooooooooOOoo",
"  ........oo......oooo..oooooo..oooooo....  ooooOOOOooOOOOOOOOOO",
"  ........oo......oooo..oooooo..oooooo....  ooooOOOOooOOOOOOOOOO",
"  ....oooo..OO..OOooooooooooooOOooooooOO..  oo++OOOOOOOOOOOO++OO",
"  ....oooo..OO..OOooooooooooooOOooooooOO..  oo++OOOOOOOOOOOO++OO",
"  ..ooooooooOOOOOOOOooOOOOooooooooooOOOOOO  ++++++OOOOOOOO++++OO",
"  ..ooooooooOOOOOOOOooOOOOooooooooooOOOOOO  ++++++OOOOOOOO++++OO",
"  oo..ooooOOOOOOOOOOOOOOOOOOOOOOooOOOOOOOO  ++++++++OO++++++++++",
"  oo..ooooOOOOOOOOOOOOOOOOOOOOOOooOOOOOOOO  ++++++++OO++++++++++",
"  OOooOOOOOOOOOOOOOOOOOOOOOOOOOOOOOOOOOO      ++++++++++++++++++",
"  OOooOOOOOOOOOOOOOOOOOOOOOOOOOOOOOOOOOO      ++++++++++++++++++"
};
