/* XPM */
static char *result[] = {
/* columns rows colors chars-per-pixel */
"64 64 6 1 ",
"  c #2F2E2F",
". c #564064",
"X c #85578E",
"o c #3E2F5A",
"O c #39314B",
"+ c white",
/* pixels */
"                                                                ",
"                                                                ",
"  ..XXXXXXXXXXXXXXXXXXXX      ............................      ",
"  ..XXXXXXXXXXXXXXXXXXXX      ............................      ",
"  XXXXXXXX..XXXXXXXXXXXXXX  ............oo......oo..........  ..",
"  XXXXXXXX..XXXXXXXXXXXXXX  ............oo......oo..........  ..",
"  XXXX........XX......XXXX  ....oooo..oooooo..oooooooooooo..  ..",
"  XXXX........XX......XXXX  ....oooo..oooooo..oooooooooooo..  ..",
"  XX................ooooXX  ..OOOOooooooooooooooooooooOOoooo  oo",
"  XX................ooooXX  ..OOOOooooooooooooooooooooOOoooo  oo",
"  ..XX....oooooooooooooooo  OOOOOOOOOOOOooooOOOOOOOOOOOOOOOO  OO",
"  ..XX....oooooooooooooooo  OOOOOOOOOOOOooooOOOOOOOOOOOOOOOO  OO",
"  oo....oooooooooooooooo      OOOOOOOOOOOOOOOOOOOOOOOOOOOO      ",
"  oo....oooooooooooooooo      OOOOOOOOOOOOOOOOOOOOOOOOOOOO      ",
"                                                                ",
"                                                                ",
"  ..XXXXXXXXXXXXXXXXXXXXXXXXXXXXXXXXXXXXXX      ................",
"  ..XXXXXXXXXXXXXXXXXXXXXXXXXXXXXXXXXXXXXX      ................",
"  XXXXXXXXXXXXXXXXXXXXXXXXXXXX....XXXXXXXXXX  ............oooo..",
"  XXXXXXXXXXXXXXXXXXXXXXXXXXXX....XXXXXXXXXX  ............oooo..",
"  XXXX......XX....XX......XX........XX..XXXX  ....oo..oooooooooo",
"  XXXX......XX....XX......XX........XX..XXXX  ....oo..oooooooooo",
"  XX..XX..............oo......oooooo....ooXX  ..OOooooooooOOOOoo",
"  XX..XX..............oo......oooooo....ooXX  ..OOooooooooOOOOoo",
"  XX..........oo....oooooo............oooooo  OOOOOOooooOOOOoooo",
"  XX..........oo....oooooo............oooooo  OOOOOOooooOOOOoooo",
"  ..XX......oooooooooooooooooooo....oooooooo  OOOOOOOOOOOOOOOOOO",
"  ..XX......oooooooooooooooooooo....oooooooo  OOOOOOOOOOOOOOOOOO",
"  oo....oooooooooooooooooooooooooooooooooo      OOOOOOOOOOOOOOOO",
"  oo....oooooooooooooooooooooooooooooooooo      OOOOOOOOOOOOOOOO",
"                                                                ",
"                                                                ",
"  ..XXXXXXXXXXXXXXXX      ........................      ........",
"  ..XXXXXXXXXXXXXXXX      ........................      ........",
"  XXXXXXXXXXXX..XXXXXX  ............oo..............  ......oo..",
"  XXXXXXXXXXXX..XXXXXX  ............oo..............  ......oo..",
"  XXXXXX..XX......XXXX  ....oooo..oooooooo..oooo....  ....oooooo",
"  XXXXXX..XX......XXXX  ....oooo..oooooooo..oooo....  ....oooooo",
"  XXXX....oo........XX  ..ooooooooooOOoooooooooooo..  ..oooooooo",
"  XXXX....oo........XX  ..ooooooooooOOoooooooooooo..  ..oooooooo",
"  XX..XX....oo......oo  OOooooooooOOOOooooooooooooOO  OOoooooooo",
"  XX..XX....oo......oo  OOooooooooOOOOooooooooooooOO  OOoooooooo",
"  XX........oooo..oooo  OOOOooOOOOOOooooOOooooooOOOO  OOOOoooooo",
"  XX........oooo..oooo  OOOOooOOOOOOooooOOooooooOOOO  OOOOoooooo",
"  ..XX....oooooooooooo  OOOOOOOOOOOOOOOOOOOOooOOOOOO  OOOOOOooOO",
"  ..XX....oooooooooooo  OOOOOOOOOOOOOOOOOOOOooOOOOOO  OOOOOOooOO",
"  oo..oooooooooooooo      OOOOOOOOOOOOOOOOOOOOOOOO      OOOOOOOO",
"  oo..oooooooooooooo      OOOOOOOOOOOOOOOOOOOOOOOO      OOOOOOOO",
"                                                                ",
"                                                                ",
"  ..XXXXXXXXXXXXXXXXXXXXXXXXXXXXXXXXXXXX      ..................",
"  ..XXXXXXXXXXXXXXXXXXXXXXXXXXXXXXXXXXXX      ..................",
"  XXXXXX..XXXXXXXXXXXXXXXX..XXXXXX..XXXXXX  ................oo..",
"  XXXXXX..XXXXXXXXXXXXXXXX..XXXXXX..XXXXXX  ................oo..",
"  XXXXXXXX..XXXXXX....XX......XX......XXXX  ....oooo..oooooooooo",
"  XXXXXXXX..XXXXXX....XX......XX......XXXX  ....oooo..oooooooooo",
"  XXXX....XXooXXoo............oo......ooXX  ..OOooooooooooooOOoo",
"  XXXX....XXooXXoo............oo......ooXX  ..OOooooooooooooOOoo",
"  XX........oooooooo..oooo..........oooooo  OOOOOOooooooooOOOOoo",
"  XX........oooooooo..oooo..........oooooo  OOOOOOooooooooOOOOoo",
"  ..XX....oooooooooooooooooooooo..oooooooo  OOOOOOOOooOOOOOOOOOO",
"  ..XX....oooooooooooooooooooooo..oooooooo  OOOOOOOOooOOOOOOOOOO",
"  oo..oooooooooooooooooooooooooooooooooo      OOOOOOOOOOOOOOOOOO",
"  oo..oooooooooooooooooooooooooooooooooo      OOOOOOOOOOOOOOOOOO"
};
