/* XPM */
static char *result[] = {
/* columns rows colors chars-per-pixel */
"63 59 6 1 ",
"  c #2F2E2F",
". c #85578E",
"X c #BE9BB0",
"o c #564064",
"O c #3E2F5A",
"+ c white",
/* pixels */
"                                                               ",
"                                                               ",
"  ..XXXXXXXXXXXXXXXXXXXX..  ..XXXXXXXXXXXXXXXXXXXXXXXXXXXXXX.. ",
"  ..XXXXXXXXXXXXXXXXXXXX..  ..XXXXXXXXXXXXXXXXXXXXXXXXXXXXXX.. ",
"  XX....................XX  XX..........oo......oo..........XX ",
"  XX....................XX  XX..........oo......oo..........XX ",
"  ....oooooooo..oooooo....  ....oooo..oooooo..oooooooo..oo.... ",
"  ....oooooooo..oooooo....  ....oooo..oooooo..oooooooo..oo.... ",
"  ..ooooooooooooooooOOOO..  ..OOOOoooooooooooooooooooooooooo.. ",
"  ..ooooooooooooooooOOOO..  ..OOOOoooooooooooooooooooooooooo.. ",
"  oo..ooooOOOOOOOOOOOOOOOO  OOOOOOOOOOOOooooOOOOOOOOOOoooooooo ",
"  oo..ooooOOOOOOOOOOOOOOOO  OOOOOOOOOOOOooooOOOOOOOOOOoooooooo ",
"  OOooooOOOOOOOOOOOOOOOO      OOOOOOOOOOOOOOOOOOOOOOOOOOooooOO ",
"  OOooooOOOOOOOOOOOOOOOO      OOOOOOOOOOOOOOOOOOOOOOOOOOooooOO ",
"                                                               ",
"                                                               ",
"  oo........................................................oo ",
"  oo........................................................oo ",
"  ............................oooo............................ ",
"  ............................oooo............................ ",
"  ....oooooo..oooo..oooooo..oooooooo..oo....oo....oo..oooo.... ",
"  ....oooooo..oooo..oooooo..oooooooo..oo....oo....oo..oooo.... ",
"  ..oo..ooooooooooooooOOooooooOOOOOOoooooooooooooooooooo..oo.. ",
"  ..oo..ooooooooooooooOOooooooOOOOOOoooooooooooooooooooo..oo.. ",
"  ..ooooooooooOOooooOOOOOOooooooooooooOOOOooooOOooOOoooooooooo ",
"  ..ooooooooooOOooooOOOOOOooooooooooooOOOOooooOOooOOoooooooooo ",
"  oo..ooooooOOOOOOOOOOOOOOOOOOOOooooOOOOOOOOOOOOOOOOOOoooooooo ",
"  oo..ooooooOOOOOOOOOOOOOOOOOOOOooooOOOOOOOOOOOOOOOOOOoooooooo ",
"  OOooooOOOOOOOOOOOOOOOOOOOOOOOOOOOOOOOOOOOOOOOOOOOOOOOOooooOO ",
"  OOooooOOOOOOOOOOOOOOOOOOOOOOOOOOOOOOOOOOOOOOOOOOOOOOOOooooOO ",
"                                                               ",
"                                                               ",
"  oo................      ..................................oo ",
"  oo................      ..................................oo ",
"  ............oo......  ............oo........................ ",
"  ............oo......  ............oo........................ ",
"  ......oo..oooooo....  ....oooo..oooooooo..oooo......oo...... ",
"  ......oo..oooooo....  ....oooo..oooooooo..oooo......oo...... ",
"  ....ooooOOoooooooo..  ..ooooooooooOOooooOOoooooo..oo..oo.... ",
"  ....ooooOOoooooooo..  ..ooooooooooOOooooOOoooooo..oo..oo.... ",
"  ..oo..ooooOOooooooOO  OOooooooooOOOOooooooOOoooooooooooooo.. ",
"  ..oo..ooooOOooooooOO  OOooooooooOOOOooooooOOoooooooooooooo.. ",
"  ..ooooooooOOOOooOOOO  OOOOooOOOOOOooooOOooooooOOOOoooooooooo ",
"  ..ooooooooOOOOooOOOO  OOOOooOOOOOOooooOOooooooOOOOoooooooooo ",
"  oo..ooooOOOOOOOOOOOO  OOOOOOOOOOOOOOOOOOOOooOOOOOOOOoooooooo ",
"  oo..ooooOOOOOOOOOOOO  OOOOOOOOOOOOOOOOOOOOooOOOOOOOOoooooooo ",
"  OOooOOOOOOOOOOOOOO      OOOOOOOOOOOOOOOOOOOOOOOOOOOOOOooooOO ",
"  OOooOOOOOOOOOOOOOO      OOOOOOOOOOOOOOOOOOOOOOOOOOOOOOooooOO ",
"                                                               ",
"                                                               ",
"  oo........................................................oo ",
"  oo........................................................oo ",
"  ......oo................oo......oo.......................... ",
"  ......oo................oo......oo.......................... ",
"  ........oo......oooo..oooooo..oooooo..oo......oooo....oo.... ",
"  ........oo......oooo..oooooo..oooooo..oo......oooo....oo.... ",
"  ..oooooo..OO..OOooooooooooooOOoooooooooooo..oooooooooo...... ",
"  ..oooooo..OO..OOooooooooooooOOoooooooooooo..oooooooooo...... ",
"  ooooooooooOOOOOOOOooOOOOooooooooooOOOOooOOooooOOoooooooooooo "
};
