/* XPM */
static char *result[] = {
/* columns rows colors chars-per-pixel */
"64 64 7 1 ",
"  c #2F2E2F",
". c #BE9BB0",
"X c #85578E",
"o c #564064",
"O c #3E2F5A",
"+ c #39314B",
"@ c white",
/* pixels */
"                                                                ",
"                                                                ",
"............      XXXXXX      XXXXXXXXXXXXXXXX      ............",
"............      XXXXXX      XXXXXXXXXXXXXXXX      ............",
"XXXXXXXXooooXX  XXXXXXXXXX  XXXXXXXXXXXXooXXXXXX  XXooooXXXXXXXX",
"XXXXXXXXooooXX  XXXXXXXXXX  XXXXXXXXXXXXooXXXXXX  XXooooXXXXXXXX",
"XXooooooooOOOO  ooooooXXXX  XXXXooooXXooooooooXX  OOOOooooXXooXX",
"XXooooooooOOOO  ooooooXXXX  XXXXooooXXooooooooXX  OOOOooooXXooXX",
"ooooooooOOOO    ooooOOOOXX  XXOOOOoooooooooooooo    OOOOoooooooo",
"ooooooooOOOO    ooooOOOOXX  XXOOOOoooooooooooooo    OOOOoooooooo",
"OOooOOOO        OOOOOOOOOO  OOOOOOOOOOOOooooOOOO        OOOOooOO",
"OOooOOOO        OOOOOOOOOO  OOOOOOOOOOOOooooOOOO        OOOOooOO",
"OOOO              OOOOOO      OOOOOOOOOOOOOOOO              OOOO",
"OOOO              OOOOOO      OOOOOOOOOOOOOOOO              OOOO",
"                                                                ",
"                                                                ",
"XXXXXX      XXXXXXXXXXXXXXXXXXXXXXXXXXXXXX      XXXXXXXXXXXXXXXX",
"XXXXXX      XXXXXXXXXXXXXXXXXXXXXXXXXXXXXX      XXXXXXXXXXXXXXXX",
"XXXXXXXX  XXXXXXXXXXXXXXXXXXXXooooXXXXXXXXXX  XXXXXXXXXXXXooooXX",
"XXXXXXXX  XXXXXXXXXXXXXXXXXXXXooooXXXXXXXXXX  XXXXXXXXXXXXooooXX",
"XXooXXXX  XXXXooooXXooooooXXooooooooXXooXXXX  XXXXooXXoooooooooo",
"XXooXXXX  XXXXooooXXooooooXXooooooooXXooXXXX  XXXXooXXoooooooooo",
"ooooOOXX  XXOOooooooooOOooooooOOOOOOooooOOXX  XXOOooooooooOOOOoo",
"ooooOOXX  XXOOooooooooOOooooooOOOOOOooooOOXX  XXOOooooooooOOOOoo",
"ooOOOOOO  OOOOOOooooOOOOOOooooooooooooOOOOOO  OOOOOOooooOOOOoooo",
"ooOOOOOO  OOOOOOooooOOOOOOooooooooooooOOOOOO  OOOOOOooooOOOOoooo",
"OOOOOOOO  OOOOOOOOOOOOOOOOOOOOOOooooOOOOOOOO  OOOOOOOOOOOOOOOOOO",
"OOOOOOOO  OOOOOOOOOOOOOOOOOOOOOOooooOOOOOOOO  OOOOOOOOOOOOOOOOOO",
"OOOOOO      OOOOOOOOOOOOOOOOOOOOOOOOOOOOOO      OOOOOOOOOOOOOOOO",
"OOOOOO      OOOOOOOOOOOOOOOOOOOOOOOOOOOOOO      OOOOOOOOOOOOOOOO",
"                                                                ",
"                                                                ",
"XXXXXXXXXXXXXXXXXXXX      XXXXXXXXXXXXXXXXXXXXXXXX      oooooooo",
"XXXXXXXXXXXXXXXXXXXX      XXXXXXXXXXXXXXXXXXXXXXXX      oooooooo",
"XXXXXXXXXXXXXXooXXXXXX  XXXXXXXXXXXXooXXXXXXXXXXXXXX  ooooooOOoo",
"XXXXXXXXXXXXXXooXXXXXX  XXXXXXXXXXXXooXXXXXXXXXXXXXX  ooooooOOoo",
"ooXXooooooXXooooooXXXX  XXXXooooXXooooooooXXooooXXXX  ooooOOOOOO",
"ooXXooooooXXooooooXXXX  XXXXooooXXooooooooXXooooXXXX  ooooOOOOOO",
"ooooooooooOOooooooooXX  XXooooooooooOOooooOOooooooXX  ooOOOOOOOO",
"ooooooooooOOooooooooXX  XXooooooooooOOooooOOooooooXX  ooOOOOOOOO",
"ooooOOOOooooOOooooooOO  OOooooooooOOOOooooooOOooooOO  ++OOOOOOOO",
"ooooOOOOooooOOooooooOO  OOooooooooOOOOooooooOOooooOO  ++OOOOOOOO",
"ooOOOOooooooOOOOooOOOO  OOOOooOOOOOOooooOOooooooOOOO  ++++OOOOOO",
"ooOOOOooooooOOOOooOOOO  OOOOooOOOOOOooooOOooooooOOOO  ++++OOOOOO",
"OOOOOOOOooOOOOOOOOOOOO  OOOOOOOOOOOOOOOOOOOOooOOOOOO  ++++++OO++",
"OOOOOOOOooOOOOOOOOOOOO  OOOOOOOOOOOOOOOOOOOOooOOOOOO  ++++++OO++",
"OOOOOOOOOOOOOOOOOOOO      OOOOOOOOOOOOOOOOOOOOOOOO      ++++++++",
"OOOOOOOOOOOOOOOOOOOO      OOOOOOOOOOOOOOOOOOOOOOOO      ++++++++",
"                                                                ",
"                                                                ",
"XXXXXXXXXX      XXXXXXXXXXXXXXXXXXXXXXXX      oooooooooooooooooo",
"XXXXXXXXXX      XXXXXXXXXXXXXXXXXXXXXXXX      oooooooooooooooooo",
"XXXXXXXXXXXX  XXXXXXXXXXXXooXXXXXXooXXXXXX  ooooooooooooooooOOoo",
"XXXXXXXXXXXX  XXXXXXXXXXXXooXXXXXXooXXXXXX  ooooooooooooooooOOoo",
"ooXXooooXXXX  XXXXooooXXooooooXXooooooXXXX  ooooOOOOooOOOOOOOOOO",
"ooXXooooXXXX  XXXXooooXXooooooXXooooooXXXX  ooooOOOOooOOOOOOOOOO",
"OOooooooOOXX  XXOOooooooooooooOOooooooOOXX  oo++OOOOOOOOOOOO++OO",
"OOooooooOOXX  XXOOooooooooooooOOooooooOOXX  oo++OOOOOOOOOOOO++OO",
"ooooooOOOOOO  OOOOOOooOOOOooooooooooOOOOOO  ++++++OOOOOOOO++++OO",
"ooooooOOOOOO  OOOOOOooOOOOooooooooooOOOOOO  ++++++OOOOOOOO++++OO",
"OOooOOOOOOOO  OOOOOOOOOOOOOOOOOOooOOOOOOOO  ++++++++OO++++++++++",
"OOooOOOOOOOO  OOOOOOOOOOOOOOOOOOooOOOOOOOO  ++++++++OO++++++++++",
"  OOOOOOOO      OOOOOOOOOOOOOOOOOOOOOOOO      ++++++++++++++++++",
"  OOOOOOOO      OOOOOOOOOOOOOOOOOOOOOOOO      ++++++++++++++++++"
};
