/* XPM */
static char *result[] = {
/* columns rows colors chars-per-pixel */
"63 64 7 1 ",
"  c #2F2E2F",
". c #564064",
"X c #85578E",
"o c #BE9BB0",
"O c #3E2F5A",
"+ c #39314B",
"@ c white",
/* pixels */
"                                                               ",
"                                                               ",
"........................      XXXXXXXXXXXXXXXX      ooooooooooo",
"........................      XXXXXXXXXXXXXXXX      ooooooooooo",
"..........OO..............  XXXXXXXXXXXX..XXXXXX  XX....XXXXXXX",
"..........OO..............  XXXXXXXXXXXX..XXXXXX  XX....XXXXXXX",
"OOOO..OOOOOOOO..OOOOOO....  XXXX....XX........XX  OOOO....XX..X",
"OOOO..OOOOOOOO..OOOOOO....  XXXX....XX........XX  OOOO....XX..X",
"OOOOOOOOOO++OOOOOOOO++++..  XXOOOO..............    OOOO.......",
"OOOOOOOOOO++OOOOOOOO++++..  XXOOOO..............    OOOO.......",
"++++++++++++++++++++++++++  OOOOOOOOOOOO....OOOO        OOOO..O",
"++++++++++++++++++++++++++  OOOOOOOOOOOO....OOOO        OOOO..O",
"++++++++++++++++++++++++      OOOOOOOOOOOOOOOO              OOO",
"++++++++++++++++++++++++      OOOOOOOOOOOOOOOO              OOO",
"                                                               ",
"                                                               ",
"......      XXXXXXXXXXXXXXXXXXXXXXXXXXXXXX      XXXXXXXXXXXXXXX",
"......      XXXXXXXXXXXXXXXXXXXXXXXXXXXXXX      XXXXXXXXXXXXXXX",
"........  XXXXXXXXXXXXXXXXXXXX....XXXXXXXXXX  XXXXXXXXXXXX....X",
"........  XXXXXXXXXXXXXXXXXXXX....XXXXXXXXXX  XXXXXXXXXXXX....X",
"..OO....  XXXX....XX......XX........XX..XXXX  XXXX..XX.........",
"..OO....  XXXX....XX......XX........XX..XXXX  XXXX..XX.........",
"OOOO++..  XXOO........OO......OOOOOO....OOXX  XXOO........OOOO.",
"OOOO++..  XXOO........OO......OOOOOO....OOXX  XXOO........OOOO.",
"OO++++++  OOOOOO....OOOOOO............OOOOOO  OOOOOO....OOOO...",
"OO++++++  OOOOOO....OOOOOO............OOOOOO  OOOOOO....OOOO...",
"++++++++  OOOOOOOOOOOOOOOOOOOOOO....OOOOOOOO  OOOOOOOOOOOOOOOOO",
"++++++++  OOOOOOOOOOOOOOOOOOOOOO....OOOOOOOO  OOOOOOOOOOOOOOOOO",
"++++++      OOOOOOOOOOOOOOOOOOOOOOOOOOOOOO      OOOOOOOOOOOOOOO",
"++++++      OOOOOOOOOOOOOOOOOOOOOOOOOOOOOO      OOOOOOOOOOOOOOO",
"                                                               ",
"                                                               ",
"XXXXXXXXXXXXXXXXXXXX      XXXXXXXXXXXXXXXXXXXXXXXX      .......",
"XXXXXXXXXXXXXXXXXXXX      XXXXXXXXXXXXXXXXXXXXXXXX      .......",
"XXXXXXXXXXXXXX..XXXXXX  XXXXXXXXXXXX..XXXXXXXXXXXXXX  ......OO.",
"XXXXXXXXXXXXXX..XXXXXX  XXXXXXXXXXXX..XXXXXXXXXXXXXX  ......OO.",
"..XX......XX......XXXX  XXXX....XX........XX....XXXX  ....OOOOO",
"..XX......XX......XXXX  XXXX....XX........XX....XXXX  ....OOOOO",
"..........OO........XX  XX..........OO....OO......XX  ..OOOOOOO",
"..........OO........XX  XX..........OO....OO......XX  ..OOOOOOO",
"....OOOO....OO......OO  OO........OOOO......OO....OO  ++OOOOOOO",
"....OOOO....OO......OO  OO........OOOO......OO....OO  ++OOOOOOO",
"..OOOO......OOOO..OOOO  OOOO..OOOOOO....OO......OOOO  ++++OOOOO",
"..OOOO......OOOO..OOOO  OOOO..OOOOOO....OO......OOOO  ++++OOOOO",
"OOOOOOOO..OOOOOOOOOOOO  OOOOOOOOOOOOOOOOOOOO..OOOOOO  ++++++OO+",
"OOOOOOOO..OOOOOOOOOOOO  OOOOOOOOOOOOOOOOOOOO..OOOOOO  ++++++OO+",
"OOOOOOOOOOOOOOOOOOOO      OOOOOOOOOOOOOOOOOOOOOOOO      +++++++",
"OOOOOOOOOOOOOOOOOOOO      OOOOOOOOOOOOOOOOOOOOOOOO      +++++++",
"                                                               ",
"                                                               ",
"XXXXXXXXXX      XXXXXXXXXXXXXXXXXXXXXXXX      .................",
"XXXXXXXXXX      XXXXXXXXXXXXXXXXXXXXXXXX      .................",
"XXXXXXXXXXXX  XXXXXXXXXXXX..XXXXXX..XXXXXX  ................OO.",
"XXXXXXXXXXXX  XXXXXXXXXXXX..XXXXXX..XXXXXX  ................OO.",
"..XX....XXXX  XXXX....XX......XX......XXXX  ....OOOO..OOOOOOOOO",
"..XX....XXXX  XXXX....XX......XX......XXXX  ....OOOO..OOOOOOOOO",
"OO......OOXX  XXOO............OO......OOXX  ..++OOOOOOOOOOOO++O",
"OO......OOXX  XXOO............OO......OOXX  ..++OOOOOOOOOOOO++O",
"......OOOOOO  OOOOOO..OOOO..........OOOOOO  ++++++OOOOOOOO++++O",
"......OOOOOO  OOOOOO..OOOO..........OOOOOO  ++++++OOOOOOOO++++O",
"OO..OOOOOOOO  OOOOOOOOOOOOOOOOOO..OOOOOOOO  ++++++++OO+++++++++",
"OO..OOOOOOOO  OOOOOOOOOOOOOOOOOO..OOOOOOOO  ++++++++OO+++++++++",
"  OOOOOOOO      OOOOOOOOOOOOOOOOOOOOOOOO      +++++++++++++++++",
"  OOOOOOOO      OOOOOOOOOOOOOOOOOOOOOOOO      +++++++++++++++++"
};
