/* XPM */
static char *result[] = {
/* columns rows colors chars-per-pixel */
"64 64 6 1 ",
"  c #2F2E2F",
". c #564064",
"X c #85578E",
"o c #3E2F5A",
"O c #39314B",
"+ c white",
/* pixels */
"                                                                ",
"                                                                ",
"........................      XXXXXXXXXXXXXXXXXXXXXXXXXXXXXX..  ",
"........................      XXXXXXXXXXXXXXXXXXXXXXXXXXXXXX..  ",
"..........oo..............  XXXXXXXXXXXX..XXXXXX..XXXXXXXXXXXX  ",
"..........oo..............  XXXXXXXXXXXX..XXXXXX..XXXXXXXXXXXX  ",
"oooo..oooooooo..oooooo....  XXXX....XX......XX........XX..XXXX  ",
"oooo..oooooooo..oooooo....  XXXX....XX......XX........XX..XXXX  ",
"ooooooooooOOooooooooOOOO..  XXoooo..........................XX  ",
"ooooooooooOOooooooooOOOO..  XXoooo..........................XX  ",
"OOOOOOOOOOOOOOOOOOOOOOOOOO  oooooooooooo....oooooooooo........  ",
"OOOOOOOOOOOOOOOOOOOOOOOOOO  oooooooooooo....oooooooooo........  ",
"OOOOOOOOOOOOOOOOOOOOOOOO      oooooooooooooooooooooooooo....oo  ",
"OOOOOOOOOOOOOOOOOOOOOOOO      oooooooooooooooooooooooooo....oo  ",
"                                                                ",
"                                                                ",
"......      XXXXXXXXXXXXXXXXXXXXXXXXXXXXXXXXXXXXXXXXXXXXXXXX..  ",
"......      XXXXXXXXXXXXXXXXXXXXXXXXXXXXXXXXXXXXXXXXXXXXXXXX..  ",
"........  XXXXXXXXXXXXXXXXXXXX....XXXXXXXXXXXXXXXXXXXXXXXXXXXX  ",
"........  XXXXXXXXXXXXXXXXXXXX....XXXXXXXXXXXXXXXXXXXXXXXXXXXX  ",
"..oo....  XXXX....XX......XX........XX..XXXX..XXXX..XX....XXXX  ",
"..oo....  XXXX....XX......XX........XX..XXXX..XXXX..XX....XXXX  ",
"ooooOO..  XXoo........oo......oooooo....................XX..XX  ",
"ooooOO..  XXoo........oo......oooooo....................XX..XX  ",
"ooOOOOOO  oooooo....oooooo............oooo....oo..oo..........  ",
"ooOOOOOO  oooooo....oooooo............oooo....oo..oo..........  ",
"OOOOOOOO  oooooooooooooooooooooo....oooooooooooooooooo........  ",
"OOOOOOOO  oooooooooooooooooooooo....oooooooooooooooooo........  ",
"OOOOOO      oooooooooooooooooooooooooooooooooooooooooooo....oo  ",
"OOOOOO      oooooooooooooooooooooooooooooooooooooooooooo....oo  ",
"                                                                ",
"                                                                ",
"....................      XXXXXXXXXXXXXXXXXXXXXXXXXXXXXXXXXX..  ",
"....................      XXXXXXXXXXXXXXXXXXXXXXXXXXXXXXXXXX..  ",
"..............oo......  XXXXXXXXXXXX..XXXXXXXXXXXXXXXXXXXXXXXX  ",
"..............oo......  XXXXXXXXXXXX..XXXXXXXXXXXXXXXXXXXXXXXX  ",
"oo..oooooo..oooooo....  XXXX....XX........XX....XXXXXX..XXXXXX  ",
"oo..oooooo..oooooo....  XXXX....XX........XX....XXXXXX..XXXXXX  ",
"oooooooooooooooooooo..  XX..........oo....oo......XX..XX..XXXX  ",
"oooooooooooooooooooo..  XX..........oo....oo......XX..XX..XXXX  ",
"ooooOOOOooooOOooooooOO  oo........oooo......oo..............XX  ",
"ooooOOOOooooOOooooooOO  oo........oooo......oo..............XX  ",
"ooOOOOooooooOOOOooOOOO  oooo..oooooo....oo......oooo..........  ",
"ooOOOOooooooOOOOooOOOO  oooo..oooooo....oo......oooo..........  ",
"OOOOOOOOooOOOOOOOOOOOO  oooooooooooooooooooo..oooooooo........  ",
"OOOOOOOOooOOOOOOOOOOOO  oooooooooooooooooooo..oooooooo........  ",
"OOOOOOOOOOOOOOOOOOOO      oooooooooooooooooooooooooooooo....oo  ",
"OOOOOOOOOOOOOOOOOOOO      oooooooooooooooooooooooooooooo....oo  ",
"                                                                ",
"                                                                ",
"..........      XXXXXXXXXXXXXXXXXXXXXXXXXXXXXXXXXXXXXXXXXXXX..  ",
"..........      XXXXXXXXXXXXXXXXXXXXXXXXXXXXXXXXXXXXXXXXXXXX..  ",
"............  XXXXXXXXXXXX..XXXXXX..XXXXXXXXXXXXXXXXXXXXXXXXXX  ",
"............  XXXXXXXXXXXX..XXXXXX..XXXXXXXXXXXXXXXXXXXXXXXXXX  ",
"....oooo....  XXXX....XX......XX......XXXXXXXXXX....XXXX..XXXX  ",
"....oooo....  XXXX....XX......XX......XXXXXXXXXX....XXXX..XXXX  ",
"ooooooooOO..  XXoo............oo........XX..XX..........XXXXXX  ",
"ooooooooOO..  XXoo............oo........XX..XX..........XXXXXX  ",
"ooooooOOOOOO  oooooo..oooo..........oo..........oo..........XX  ",
"ooooooOOOOOO  oooooo..oooo..........oo..........oo..........XX  ",
"OOooOOOOOOOO  oooooooooooooooooo..oooooooooooooooooo..........  ",
"OOooOOOOOOOO  oooooooooooooooooo..oooooooooooooooooo..........  ",
"OOOOOOOOOO      oooooooooooooooooooooooooooooooooooooooo....oo  ",
"OOOOOOOOOO      oooooooooooooooooooooooooooooooooooooooo....oo  "
};
