/* XPM */
static char *result[] = {
/* columns rows colors chars-per-pixel */
"64 64 7 1 ",
"  c #2F2E2F",
". c #564064",
"X c #85578E",
"o c #BE9BB0",
"O c #3E2F5A",
"+ c #39314B",
"@ c white",
/* pixels */
"                                                                ",
"                                                                ",
"........................      XXXXXXXXXXXXXXXX      oooooooooooo",
"........................      XXXXXXXXXXXXXXXX      oooooooooooo",
"..........OO..............  XXXXXXXXXXXX..XXXXXX  XX....XXXXXXXX",
"..........OO..............  XXXXXXXXXXXX..XXXXXX  XX....XXXXXXXX",
"OOOO..OOOOOOOO..OOOOOO....  XXXX....XX........XX  OOOO....XX..XX",
"OOOO..OOOOOOOO..OOOOOO....  XXXX....XX........XX  OOOO....XX..XX",
"OOOOOOOOOO++OOOOOOOO++++..  XXOOOO..............    OOOO........",
"OOOOOOOOOO++OOOOOOOO++++..  XXOOOO..............    OOOO........",
"++++++++++++++++++++++++++  OOOOOOOOOOOO....OOOO        OOOO..OO",
"++++++++++++++++++++++++++  OOOOOOOOOOOO....OOOO        OOOO..OO",
"++++++++++++++++++++++++      OOOOOOOOOOOOOOOO              OOOO",
"++++++++++++++++++++++++      OOOOOOOOOOOOOOOO              OOOO",
"                                                                ",
"                                                                ",
"......      XXXXXXXXXXXXXXXXXXXXXXXXXXXXXX      XXXXXXXXXXXXXXXX",
"......      XXXXXXXXXXXXXXXXXXXXXXXXXXXXXX      XXXXXXXXXXXXXXXX",
"........  XXXXXXXXXXXXXXXXXXXX....XXXXXXXXXX  XXXXXXXXXXXX....XX",
"........  XXXXXXXXXXXXXXXXXXXX....XXXXXXXXXX  XXXXXXXXXXXX....XX",
"..OO....  XXXX....XX......XX........XX..XXXX  XXXX..XX..........",
"..OO....  XXXX....XX......XX........XX..XXXX  XXXX..XX..........",
"OOOO++..  XXOO........OO......OOOOOO....OOXX  XXOO........OOOO..",
"OOOO++..  XXOO........OO......OOOOOO....OOXX  XXOO........OOOO..",
"OO++++++  OOOOOO....OOOOOO............OOOOOO  OOOOOO....OOOO....",
"OO++++++  OOOOOO....OOOOOO............OOOOOO  OOOOOO....OOOO....",
"++++++++  OOOOOOOOOOOOOOOOOOOOOO....OOOOOOOO  OOOOOOOOOOOOOOOOOO",
"++++++++  OOOOOOOOOOOOOOOOOOOOOO....OOOOOOOO  OOOOOOOOOOOOOOOOOO",
"++++++      OOOOOOOOOOOOOOOOOOOOOOOOOOOOOO      OOOOOOOOOOOOOOOO",
"++++++      OOOOOOOOOOOOOOOOOOOOOOOOOOOOOO      OOOOOOOOOOOOOOOO",
"                                                                ",
"                                                                ",
"....................      XXXXXXXXXXXXXXXXXXXXXXXX      XXXXXXXX",
"....................      XXXXXXXXXXXXXXXXXXXXXXXX      XXXXXXXX",
"..............OO......  XXXXXXXXXXXX..XXXXXXXXXXXXXX  XXXXXX..XX",
"..............OO......  XXXXXXXXXXXX..XXXXXXXXXXXXXX  XXXXXX..XX",
"OO..OOOOOO..OOOOOO....  XXXX....XX........XX....XXXX  XXXX......",
"OO..OOOOOO..OOOOOO....  XXXX....XX........XX....XXXX  XXXX......",
"OOOOOOOOOOOOOOOOOOOO..  XX..........OO....OO......XX  XX....OO..",
"OOOOOOOOOOOOOOOOOOOO..  XX..........OO....OO......XX  XX....OO..",
"OOOO++++OOOO++OOOOOO++  OO........OOOO......OO....OO  OO......OO",
"OOOO++++OOOO++OOOOOO++  OO........OOOO......OO....OO  OO......OO",
"OO++++OOOOOO++++OO++++  OOOO..OOOOOO....OO......OOOO  OOOO......",
"OO++++OOOOOO++++OO++++  OOOO..OOOOOO....OO......OOOO  OOOO......",
"++++++++OO++++++++++++  OOOOOOOOOOOOOOOOOOOO..OOOOOO  OOOOOO..OO",
"++++++++OO++++++++++++  OOOOOOOOOOOOOOOOOOOO..OOOOOO  OOOOOO..OO",
"++++++++++++++++++++      OOOOOOOOOOOOOOOOOOOOOOOO      OOOOOOOO",
"++++++++++++++++++++      OOOOOOOOOOOOOOOOOOOOOOOO      OOOOOOOO",
"                                                                ",
"                                                                ",
"..........      XXXXXXXXXXXXXXXXXXXXXXXX      XXXXXXXXXXXXXXXXXX",
"..........      XXXXXXXXXXXXXXXXXXXXXXXX      XXXXXXXXXXXXXXXXXX",
"............  XXXXXXXXXXXX..XXXXXX..XXXXXX  XXXXXXXXXXXXXXXX..XX",
"............  XXXXXXXXXXXX..XXXXXX..XXXXXX  XXXXXXXXXXXXXXXX..XX",
"OO..OOOO....  XXXX....XX......XX......XXXX  XXXX....XX..........",
"OO..OOOO....  XXXX....XX......XX......XXXX  XXXX....XX..........",
"OOOOOOOO++..  XXOO............OO......OOXX  XXOO............OO..",
"OOOOOOOO++..  XXOO............OO......OOXX  XXOO............OO..",
"OOOOOO++++++  OOOOOO..OOOO..........OOOOOO  OOOOOO........OOOO..",
"OOOOOO++++++  OOOOOO..OOOO..........OOOOOO  OOOOOO........OOOO..",
"++OO++++++++  OOOOOOOOOOOOOOOOOO..OOOOOOOO  OOOOOOOO..OOOOOOOOOO",
"++OO++++++++  OOOOOOOOOOOOOOOOOO..OOOOOOOO  OOOOOOOO..OOOOOOOOOO",
"++++++++++      OOOOOOOOOOOOOOOOOOOOOOOO      OOOOOOOOOOOOOOOO  ",
"++++++++++      OOOOOOOOOOOOOOOOOOOOOOOO      OOOOOOOOOOOOOOOO  "
};
