/* XPM */
static char *result[] = {
/* columns rows colors chars-per-pixel */
"64 64 7 1 ",
"  c #2F2E2F",
". c #BE9BB0",
"X c #85578E",
"o c #564064",
"O c #3E2F5A",
"+ c #39314B",
"@ c white",
/* pixels */
"                                                                ",
"                                                                ",
"............      XXXXXX      XXXXXXXXXXXXXXXXXXXXXXXXXXXX      ",
"............      XXXXXX      XXXXXXXXXXXXXXXXXXXXXXXXXXXX      ",
"XXXXXXXXooooXX  XXXXXXXXXX  XXXXXXXXXXXXooXXXXXXooXXXXXXXXXX  oo",
"XXXXXXXXooooXX  XXXXXXXXXX  XXXXXXXXXXXXooXXXXXXooXXXXXXXXXX  oo",
"XXooooooooOOOO  ooooooXXXX  XXXXooooXXooooooXXooooooooooooXX  oo",
"XXooooooooOOOO  ooooooXXXX  XXXXooooXXooooooXXooooooooooooXX  oo",
"ooooooooOOOO    ooooOOOOXX  XXOOOOooooooooooooooooooooOOoooo  OO",
"ooooooooOOOO    ooooOOOOXX  XXOOOOooooooooooooooooooooOOoooo  OO",
"OOooOOOO        OOOOOOOOOO  OOOOOOOOOOOOooooOOOOOOOOOOOOOOOO  ++",
"OOooOOOO        OOOOOOOOOO  OOOOOOOOOOOOooooOOOOOOOOOOOOOOOO  ++",
"OOOO              OOOOOO      OOOOOOOOOOOOOOOOOOOOOOOOOOOO      ",
"OOOO              OOOOOO      OOOOOOOOOOOOOOOOOOOOOOOOOOOO      ",
"                                                                ",
"                                                                ",
"XXXXXX      XXXXXXXXXXXXXXXXXXXXXXXXXXXXXX      oooooooooooooooo",
"XXXXXX      XXXXXXXXXXXXXXXXXXXXXXXXXXXXXX      oooooooooooooooo",
"XXXXXXXX  XXXXXXXXXXXXXXXXXXXXooooXXXXXXXXXX  ooooooooooooOOOOoo",
"XXXXXXXX  XXXXXXXXXXXXXXXXXXXXooooXXXXXXXXXX  ooooooooooooOOOOoo",
"XXooXXXX  XXXXooooXXooooooXXooooooooXXooXXXX  ooooOOooOOOOOOOOOO",
"XXooXXXX  XXXXooooXXooooooXXooooooooXXooXXXX  ooooOOooOOOOOOOOOO",
"ooooOOXX  XXOOooooooooOOooooooOOOOOOooooOOXX  oo++OOOOOOOO++++OO",
"ooooOOXX  XXOOooooooooOOooooooOOOOOOooooOOXX  oo++OOOOOOOO++++OO",
"ooOOOOOO  OOOOOOooooOOOOOOooooooooooooOOOOOO  ++++++OOOO++++OOOO",
"ooOOOOOO  OOOOOOooooOOOOOOooooooooooooOOOOOO  ++++++OOOO++++OOOO",
"OOOOOOOO  OOOOOOOOOOOOOOOOOOOOOOooooOOOOOOOO  ++++++++++++++++++",
"OOOOOOOO  OOOOOOOOOOOOOOOOOOOOOOooooOOOOOOOO  ++++++++++++++++++",
"OOOOOO      OOOOOOOOOOOOOOOOOOOOOOOOOOOOOO      ++++++++++++++++",
"OOOOOO      OOOOOOOOOOOOOOOOOOOOOOOOOOOOOO      ++++++++++++++++",
"                                                                ",
"                                                                ",
"XXXXXXXXXXXXXXXXXXXX      XXXXXXXXXXXXXXXXXXXXXXXX      XXXXXXXX",
"XXXXXXXXXXXXXXXXXXXX      XXXXXXXXXXXXXXXXXXXXXXXX      XXXXXXXX",
"XXXXXXXXXXXXXXooXXXXXX  XXXXXXXXXXXXooXXXXXXXXXXXXXX  XXXXXXooXX",
"XXXXXXXXXXXXXXooXXXXXX  XXXXXXXXXXXXooXXXXXXXXXXXXXX  XXXXXXooXX",
"ooXXooooooXXooooooXXXX  XXXXooooXXooooooooXXooooXXXX  XXXXoooooo",
"ooXXooooooXXooooooXXXX  XXXXooooXXooooooooXXooooXXXX  XXXXoooooo",
"ooooooooooOOooooooooXX  XXooooooooooOOooooOOooooooXX  XXooooOOoo",
"ooooooooooOOooooooooXX  XXooooooooooOOooooOOooooooXX  XXooooOOoo",
"ooooOOOOooooOOooooooOO  OOooooooooOOOOooooooOOooooOO  OOooooooOO",
"ooooOOOOooooOOooooooOO  OOooooooooOOOOooooooOOooooOO  OOooooooOO",
"ooOOOOooooooOOOOooOOOO  OOOOooOOOOOOooooOOooooooOOOO  OOOOoooooo",
"ooOOOOooooooOOOOooOOOO  OOOOooOOOOOOooooOOooooooOOOO  OOOOoooooo",
"OOOOOOOOooOOOOOOOOOOOO  OOOOOOOOOOOOOOOOOOOOooOOOOOO  OOOOOOooOO",
"OOOOOOOOooOOOOOOOOOOOO  OOOOOOOOOOOOOOOOOOOOooOOOOOO  OOOOOOooOO",
"OOOOOOOOOOOOOOOOOOOO      OOOOOOOOOOOOOOOOOOOOOOOO      OOOOOOOO",
"OOOOOOOOOOOOOOOOOOOO      OOOOOOOOOOOOOOOOOOOOOOOO      OOOOOOOO",
"                                                                ",
"                                                                ",
"XXXXXXXXXX      XXXXXXXXXXXXXXXXXXXXXXXX      XXXXXXXXXXXXXXXXXX",
"XXXXXXXXXX      XXXXXXXXXXXXXXXXXXXXXXXX      XXXXXXXXXXXXXXXXXX",
"XXXXXXXXXXXX  XXXXXXXXXXXXooXXXXXXooXXXXXX  XXXXXXXXXXXXXXXXooXX",
"XXXXXXXXXXXX  XXXXXXXXXXXXooXXXXXXooXXXXXX  XXXXXXXXXXXXXXXXooXX",
"ooXXooooXXXX  XXXXooooXXooooooXXooooooXXXX  XXXXooooXXoooooooooo",
"ooXXooooXXXX  XXXXooooXXooooooXXooooooXXXX  XXXXooooXXoooooooooo",
"OOooooooOOXX  XXOOooooooooooooOOooooooOOXX  XXOOooooooooooooOOoo",
"OOooooooOOXX  XXOOooooooooooooOOooooooOOXX  XXOOooooooooooooOOoo",
"ooooooOOOOOO  OOOOOOooOOOOooooooooooOOOOOO  OOOOOOooooooooOOOOoo",
"ooooooOOOOOO  OOOOOOooOOOOooooooooooOOOOOO  OOOOOOooooooooOOOOoo",
"OOooOOOOOOOO  OOOOOOOOOOOOOOOOOOooOOOOOOOO  OOOOOOOOooOOOOOOOOOO",
"OOooOOOOOOOO  OOOOOOOOOOOOOOOOOOooOOOOOOOO  OOOOOOOOooOOOOOOOOOO",
"  OOOOOOOO      OOOOOOOOOOOOOOOOOOOOOOOO      OOOOOOOOOOOOOOOO  ",
"  OOOOOOOO      OOOOOOOOOOOOOOOOOOOOOOOO      OOOOOOOOOOOOOOOO  "
};
