/* XPM */
static char *result[] = {
/* columns rows colors chars-per-pixel */
"64 64 7 1 ",
"  c #2F2E2F",
". c #BE9BB0",
"X c #85578E",
"o c #564064",
"O c #3E2F5A",
"+ c #39314B",
"@ c white",
/* pixels */
"                                                                ",
"                                                                ",
"............      XXXXXX      XXXXXXXXXXXXXXXXXXXXXXXXXXXX      ",
"............      XXXXXX      XXXXXXXXXXXXXXXXXXXXXXXXXXXX      ",
"XXXXXXXXooooXX  XXXXXXXXXX  XXXXXXXXXXXXooXXXXXXooXXXXXXXXXX  oo",
"XXXXXXXXooooXX  XXXXXXXXXX  XXXXXXXXXXXXooXXXXXXooXXXXXXXXXX  oo",
"XXooooooooOOOO  ooooooXXXX  XXXXooooXXooooooXXooooooooooooXX  oo",
"XXooooooooOOOO  ooooooXXXX  XXXXooooXXooooooXXooooooooooooXX  oo",
"ooooooooOOOO    ooooOOOOXX  XXOOOOooooooooooooooooooooOOoooo  OO",
"ooooooooOOOO    ooooOOOOXX  XXOOOOooooooooooooooooooooOOoooo  OO",
"OOooOOOO        OOOOOOOOOO  OOOOOOOOOOOOooooOOOOOOOOOOOOOOOO  ++",
"OOooOOOO        OOOOOOOOOO  OOOOOOOOOOOOooooOOOOOOOOOOOOOOOO  ++",
"OOOO              OOOOOO      OOOOOOOOOOOOOOOOOOOOOOOOOOOO      ",
"OOOO              OOOOOO      OOOOOOOOOOOOOOOOOOOOOOOOOOOO      ",
"                                                                ",
"                                                                ",
"XXXXXX      XXXXXXXXXXXXXXXXXXXXXXXXXXXXXX      oooooooooooooooo",
"XXXXXX      XXXXXXXXXXXXXXXXXXXXXXXXXXXXXX      oooooooooooooooo",
"XXXXXXXX  XXXXXXXXXXXXXXXXXXXXooooXXXXXXXXXX  ooooooooooooOOOOoo",
"XXXXXXXX  XXXXXXXXXXXXXXXXXXXXooooXXXXXXXXXX  ooooooooooooOOOOoo",
"XXooXXXX  XXXXooooXXooooooXXooooooooXXooXXXX  ooooOOooOOOOOOOOOO",
"XXooXXXX  XXXXooooXXooooooXXooooooooXXooXXXX  ooooOOooOOOOOOOOOO",
"ooooOOXX  XXOOooooooooOOooooooOOOOOOooooOOXX  oo++OOOOOOOO++++OO",
"ooooOOXX  XXOOooooooooOOooooooOOOOOOooooOOXX  oo++OOOOOOOO++++OO",
"ooOOOOOO  OOOOOOooooOOOOOOooooooooooooOOOOOO  ++++++OOOO++++OOOO",
"ooOOOOOO  OOOOOOooooOOOOOOooooooooooooOOOOOO  ++++++OOOO++++OOOO",
"OOOOOOOO  OOOOOOOOOOOOOOOOOOOOOOooooOOOOOOOO  ++++++++++++++++++",
"OOOOOOOO  OOOOOOOOOOOOOOOOOOOOOOooooOOOOOOOO  ++++++++++++++++++",
"OOOOOO      OOOOOOOOOOOOOOOOOOOOOOOOOOOOOO      ++++++++++++++++",
"OOOOOO      OOOOOOOOOOOOOOOOOOOOOOOOOOOOOO      ++++++++++++++++",
"                                                                ",
"                                                                ",
"oooooooooooooooooooo      XXXXXXXXXXXXXXXXXXXXXXXX      XXXXXXXX",
"oooooooooooooooooooo      XXXXXXXXXXXXXXXXXXXXXXXX      XXXXXXXX",
"ooooooooooooooOOoooooo  XXXXXXXXXXXXooXXXXXXXXXXXXXX  XXXXXXooXX",
"ooooooooooooooOOoooooo  XXXXXXXXXXXXooXXXXXXXXXXXXXX  XXXXXXooXX",
"OOooOOOOOOooOOOOOOoooo  XXXXooooXXooooooooXXooooXXXX  XXXXoooooo",
"OOooOOOOOOooOOOOOOoooo  XXXXooooXXooooooooXXooooXXXX  XXXXoooooo",
"OOOOOOOOOOOOOOOOOOOOoo  XXooooooooooOOooooOOooooooXX  XXooooOOoo",
"OOOOOOOOOOOOOOOOOOOOoo  XXooooooooooOOooooOOooooooXX  XXooooOOoo",
"OOOO++++OOOO++OOOOOO++  OOooooooooOOOOooooooOOooooOO  OOooooooOO",
"OOOO++++OOOO++OOOOOO++  OOooooooooOOOOooooooOOooooOO  OOooooooOO",
"OO++++OOOOOO++++OO++++  OOOOooOOOOOOooooOOooooooOOOO  OOOOoooooo",
"OO++++OOOOOO++++OO++++  OOOOooOOOOOOooooOOooooooOOOO  OOOOoooooo",
"++++++++OO++++++++++++  OOOOOOOOOOOOOOOOOOOOooOOOOOO  OOOOOOooOO",
"++++++++OO++++++++++++  OOOOOOOOOOOOOOOOOOOOooOOOOOO  OOOOOOooOO",
"++++++++++++++++++++      OOOOOOOOOOOOOOOOOOOOOOOO      OOOOOOOO",
"++++++++++++++++++++      OOOOOOOOOOOOOOOOOOOOOOOO      OOOOOOOO",
"                                                                ",
"                                                                ",
"oooooooooo      XXXXXXXXXXXXXXXXXXXXXXXX      XXXXXXXXXXXXXXXXXX",
"oooooooooo      XXXXXXXXXXXXXXXXXXXXXXXX      XXXXXXXXXXXXXXXXXX",
"oooooooooooo  XXXXXXXXXXXXooXXXXXXooXXXXXX  XXXXXXXXXXXXXXXXooXX",
"oooooooooooo  XXXXXXXXXXXXooXXXXXXooXXXXXX  XXXXXXXXXXXXXXXXooXX",
"OOooOOOOoooo  XXXXooooXXooooooXXooooooXXXX  XXXXooooXXoooooooooo",
"OOooOOOOoooo  XXXXooooXXooooooXXooooooXXXX  XXXXooooXXoooooooooo",
"OOOOOOOO++oo  XXOOooooooooooooOOooooooOOXX  XXOOooooooooooooOOoo",
"OOOOOOOO++oo  XXOOooooooooooooOOooooooOOXX  XXOOooooooooooooOOoo",
"OOOOOO++++++  OOOOOOooOOOOooooooooooOOOOOO  OOOOOOooooooooOOOOoo",
"OOOOOO++++++  OOOOOOooOOOOooooooooooOOOOOO  OOOOOOooooooooOOOOoo",
"++OO++++++++  OOOOOOOOOOOOOOOOOOooOOOOOOOO  OOOOOOOOooOOOOOOOOOO",
"++OO++++++++  OOOOOOOOOOOOOOOOOOooOOOOOOOO  OOOOOOOOooOOOOOOOOOO",
"++++++++++      OOOOOOOOOOOOOOOOOOOOOOOO      OOOOOOOOOOOOOOOO  ",
"++++++++++      OOOOOOOOOOOOOOOOOOOOOOOO      OOOOOOOOOOOOOOOO  "
};
