/* XPM */
static char *result[] = {
/* columns rows colors chars-per-pixel */
"64 59 6 1 ",
"  c #2F2E2F",
". c #BE9BB0",
"X c #85578E",
"o c #564064",
"O c #3E2F5A",
"+ c white",
/* pixels */
"                                                                ",
"                                                                ",
"........................XX  XX..............................XX  ",
"........................XX  XX..............................XX  ",
"XXXXXXXXXXooXXXXXXXXXXXX..  ..XXXXXXXXXXooXXXXXXooXXXXXXXXXX..  ",
"XXXXXXXXXXooXXXXXXXXXXXX..  ..XXXXXXXXXXooXXXXXXooXXXXXXXXXX..  ",
"ooooXXooooooooXXooooooXXXX  XXXXooooXXooooooXXooooooooXXooXXXX  ",
"ooooXXooooooooXXooooooXXXX  XXXXooooXXooooooXXooooooooXXooXXXX  ",
"ooooooooooOOooooooooOOOOXX  XXOOOOooooooooooooooooooooooooooXX  ",
"ooooooooooOOooooooooOOOOXX  XXOOOOooooooooooooooooooooooooooXX  ",
"OOOOOOOOOOOOOOOOOOOOOOOOOO  OOOOOOOOOOOOooooOOOOOOOOOOoooooooo  ",
"OOOOOOOOOOOOOOOOOOOOOOOOOO  OOOOOOOOOOOOooooOOOOOOOOOOoooooooo  ",
"OOOOOOOOOOOOOOOOOOOOOOOO      OOOOOOOOOOOOOOOOOOOOOOOOOOooooOO  ",
"OOOOOOOOOOOOOOOOOOOOOOOO      OOOOOOOOOOOOOOOOOOOOOOOOOOooooOO  ",
"                                                                ",
"                                                                ",
"XXXXXX      XXXXXXXXXXXXXXXXXXXXXXXXXXXXXXXXXXXXXXXXXXXXXXXXoo  ",
"XXXXXX      XXXXXXXXXXXXXXXXXXXXXXXXXXXXXXXXXXXXXXXXXXXXXXXXoo  ",
"XXXXXXXX  XXXXXXXXXXXXXXXXXXXXooooXXXXXXXXXXXXXXXXXXXXXXXXXXXX  ",
"XXXXXXXX  XXXXXXXXXXXXXXXXXXXXooooXXXXXXXXXXXXXXXXXXXXXXXXXXXX  ",
"XXooXXXX  XXXXooooXXooooooXXooooooooXXooXXXXooXXXXooXXooooXXXX  ",
"XXooXXXX  XXXXooooXXooooooXXooooooooXXooXXXXooXXXXooXXooooXXXX  ",
"ooooOOXX  XXOOooooooooOOooooooOOOOOOooooooooooooooooooooXXooXX  ",
"ooooOOXX  XXOOooooooooOOooooooOOOOOOooooooooooooooooooooXXooXX  ",
"ooOOOOOO  OOOOOOooooOOOOOOooooooooooooOOOOooooOOooOOoooooooooo  ",
"ooOOOOOO  OOOOOOooooOOOOOOooooooooooooOOOOooooOOooOOoooooooooo  ",
"OOOOOOOO  OOOOOOOOOOOOOOOOOOOOOOooooOOOOOOOOOOOOOOOOOOoooooooo  ",
"OOOOOOOO  OOOOOOOOOOOOOOOOOOOOOOooooOOOOOOOOOOOOOOOOOOoooooooo  ",
"OOOOOO      OOOOOOOOOOOOOOOOOOOOOOOOOOOOOOOOOOOOOOOOOOOOooooOO  ",
"OOOOOO      OOOOOOOOOOOOOOOOOOOOOOOOOOOOOOOOOOOOOOOOOOOOooooOO  ",
"                                                                ",
"                                                                ",
"XXXXXXXXXXXXXXXXXXXX      XXXXXXXXXXXXXXXXXXXXXXXXXXXXXXXXXXoo  ",
"XXXXXXXXXXXXXXXXXXXX      XXXXXXXXXXXXXXXXXXXXXXXXXXXXXXXXXXoo  ",
"XXXXXXXXXXXXXXooXXXXXX  XXXXXXXXXXXXooXXXXXXXXXXXXXXXXXXXXXXXX  ",
"XXXXXXXXXXXXXXooXXXXXX  XXXXXXXXXXXXooXXXXXXXXXXXXXXXXXXXXXXXX  ",
"ooXXooooooXXooooooXXXX  XXXXooooXXooooooooXXooooXXXXXXooXXXXXX  ",
"ooXXooooooXXooooooXXXX  XXXXooooXXooooooooXXooooXXXXXXooXXXXXX  ",
"ooooooooooOOooooooooXX  XXooooooooooOOooooOOooooooXXooXXooXXXX  ",
"ooooooooooOOooooooooXX  XXooooooooooOOooooOOooooooXXooXXooXXXX  ",
"ooooOOOOooooOOooooooOO  OOooooooooOOOOooooooOOooooooooooooooXX  ",
"ooooOOOOooooOOooooooOO  OOooooooooOOOOooooooOOooooooooooooooXX  ",
"ooOOOOooooooOOOOooOOOO  OOOOooOOOOOOooooOOooooooOOOOoooooooooo  ",
"ooOOOOooooooOOOOooOOOO  OOOOooOOOOOOooooOOooooooOOOOoooooooooo  ",
"OOOOOOOOooOOOOOOOOOOOO  OOOOOOOOOOOOOOOOOOOOooOOOOOOOOoooooooo  ",
"OOOOOOOOooOOOOOOOOOOOO  OOOOOOOOOOOOOOOOOOOOooOOOOOOOOoooooooo  ",
"OOOOOOOOOOOOOOOOOOOO      OOOOOOOOOOOOOOOOOOOOOOOOOOOOOOooooOO  ",
"OOOOOOOOOOOOOOOOOOOO      OOOOOOOOOOOOOOOOOOOOOOOOOOOOOOooooOO  ",
"                                                                ",
"                                                                ",
"XXXXXXXXXX      XXXXXXXXXXXXXXXXXXXXXXXXXXXXXXXXXXXXXXXXXXXXoo  ",
"XXXXXXXXXX      XXXXXXXXXXXXXXXXXXXXXXXXXXXXXXXXXXXXXXXXXXXXoo  ",
"XXXXXXXXXXXX  XXXXXXXXXXXXooXXXXXXooXXXXXXXXXXXXXXXXXXXXXXXXXX  ",
"XXXXXXXXXXXX  XXXXXXXXXXXXooXXXXXXooXXXXXXXXXXXXXXXXXXXXXXXXXX  ",
"ooXXooooXXXX  XXXXooooXXooooooXXooooooXXooXXXXXXooooXXXXooXXXX  ",
"ooXXooooXXXX  XXXXooooXXooooooXXooooooXXooXXXXXXooooXXXXooXXXX  ",
"OOooooooOOXX  XXOOooooooooooooOOooooooooooooXXooooooooooXXXXXX  ",
"OOooooooOOXX  XXOOooooooooooooOOooooooooooooXXooooooooooXXXXXX  ",
"ooooooOOOOOO  OOOOOOooOOOOooooooooooOOOOooOOooooOOoooooooooooo  "
};
