/* XPM */
static char *result[] = {
/* columns rows colors chars-per-pixel */
"64 64 7 1 ",
"  c #2F2E2F",
". c #BE9BB0",
"X c #85578E",
"o c #564064",
"O c #3E2F5A",
"+ c #39314B",
"@ c white",
/* pixels */
"                                                                ",
"                                                                ",
"............      XXXXXX      XXXXXXXXXXXXXXXXXXXXXXXXXXXXXXoo  ",
"............      XXXXXX      XXXXXXXXXXXXXXXXXXXXXXXXXXXXXXoo  ",
"XXXXXXXXooooXX  XXXXXXXXXX  XXXXXXXXXXXXooXXXXXXooXXXXXXXXXXXX  ",
"XXXXXXXXooooXX  XXXXXXXXXX  XXXXXXXXXXXXooXXXXXXooXXXXXXXXXXXX  ",
"XXooooooooOOOO  ooooooXXXX  XXXXooooXXooooooXXooooooooXXooXXXX  ",
"XXooooooooOOOO  ooooooXXXX  XXXXooooXXooooooXXooooooooXXooXXXX  ",
"ooooooooOOOO    ooooOOOOXX  XXOOOOooooooooooooooooooooooooooXX  ",
"ooooooooOOOO    ooooOOOOXX  XXOOOOooooooooooooooooooooooooooXX  ",
"OOooOOOO        OOOOOOOOOO  OOOOOOOOOOOOooooOOOOOOOOOOoooooooo  ",
"OOooOOOO        OOOOOOOOOO  OOOOOOOOOOOOooooOOOOOOOOOOoooooooo  ",
"OOOO              OOOOOO      OOOOOOOOOOOOOOOOOOOOOOOOOOooooOO  ",
"OOOO              OOOOOO      OOOOOOOOOOOOOOOOOOOOOOOOOOooooOO  ",
"                                                                ",
"                                                                ",
"XXXXXX      XXXXXXXXXXXXXXXXXXXXXXXXXXXXXXXXXXXXXXXXXXXXXXXXoo  ",
"XXXXXX      XXXXXXXXXXXXXXXXXXXXXXXXXXXXXXXXXXXXXXXXXXXXXXXXoo  ",
"XXXXXXXX  XXXXXXXXXXXXXXXXXXXXooooXXXXXXXXXXXXXXXXXXXXXXXXXXXX  ",
"XXXXXXXX  XXXXXXXXXXXXXXXXXXXXooooXXXXXXXXXXXXXXXXXXXXXXXXXXXX  ",
"XXooXXXX  XXXXooooXXooooooXXooooooooXXooXXXXooXXXXooXXooooXXXX  ",
"XXooXXXX  XXXXooooXXooooooXXooooooooXXooXXXXooXXXXooXXooooXXXX  ",
"ooooOOXX  XXOOooooooooOOooooooOOOOOOooooooooooooooooooooXXooXX  ",
"ooooOOXX  XXOOooooooooOOooooooOOOOOOooooooooooooooooooooXXooXX  ",
"ooOOOOOO  OOOOOOooooOOOOOOooooooooooooOOOOooooOOooOOoooooooooo  ",
"ooOOOOOO  OOOOOOooooOOOOOOooooooooooooOOOOooooOOooOOoooooooooo  ",
"OOOOOOOO  OOOOOOOOOOOOOOOOOOOOOOooooOOOOOOOOOOOOOOOOOOoooooooo  ",
"OOOOOOOO  OOOOOOOOOOOOOOOOOOOOOOooooOOOOOOOOOOOOOOOOOOoooooooo  ",
"OOOOOO      OOOOOOOOOOOOOOOOOOOOOOOOOOOOOOOOOOOOOOOOOOOOooooOO  ",
"OOOOOO      OOOOOOOOOOOOOOOOOOOOOOOOOOOOOOOOOOOOOOOOOOOOooooOO  ",
"                                                                ",
"                                                                ",
"oooooooooooooooooooo      XXXXXXXXXXXXXXXXXXXXXXXXXXXXXXXXXXoo  ",
"oooooooooooooooooooo      XXXXXXXXXXXXXXXXXXXXXXXXXXXXXXXXXXoo  ",
"ooooooooooooooOOoooooo  XXXXXXXXXXXXooXXXXXXXXXXXXXXXXXXXXXXXX  ",
"ooooooooooooooOOoooooo  XXXXXXXXXXXXooXXXXXXXXXXXXXXXXXXXXXXXX  ",
"OOooOOOOOOooOOOOOOoooo  XXXXooooXXooooooooXXooooXXXXXXooXXXXXX  ",
"OOooOOOOOOooOOOOOOoooo  XXXXooooXXooooooooXXooooXXXXXXooXXXXXX  ",
"OOOOOOOOOOOOOOOOOOOOoo  XXooooooooooOOooooOOooooooXXooXXooXXXX  ",
"OOOOOOOOOOOOOOOOOOOOoo  XXooooooooooOOooooOOooooooXXooXXooXXXX  ",
"OOOO++++OOOO++OOOOOO++  OOooooooooOOOOooooooOOooooooooooooooXX  ",
"OOOO++++OOOO++OOOOOO++  OOooooooooOOOOooooooOOooooooooooooooXX  ",
"OO++++OOOOOO++++OO++++  OOOOooOOOOOOooooOOooooooOOOOoooooooooo  ",
"OO++++OOOOOO++++OO++++  OOOOooOOOOOOooooOOooooooOOOOoooooooooo  ",
"++++++++OO++++++++++++  OOOOOOOOOOOOOOOOOOOOooOOOOOOOOoooooooo  ",
"++++++++OO++++++++++++  OOOOOOOOOOOOOOOOOOOOooOOOOOOOOoooooooo  ",
"++++++++++++++++++++      OOOOOOOOOOOOOOOOOOOOOOOOOOOOOOooooOO  ",
"++++++++++++++++++++      OOOOOOOOOOOOOOOOOOOOOOOOOOOOOOooooOO  ",
"                                                                ",
"                                                                ",
"oooooooooo      XXXXXXXXXXXXXXXXXXXXXXXXXXXXXXXXXXXXXXXXXXXXoo  ",
"oooooooooo      XXXXXXXXXXXXXXXXXXXXXXXXXXXXXXXXXXXXXXXXXXXXoo  ",
"oooooooooooo  XXXXXXXXXXXXooXXXXXXooXXXXXXXXXXXXXXXXXXXXXXXXXX  ",
"oooooooooooo  XXXXXXXXXXXXooXXXXXXooXXXXXXXXXXXXXXXXXXXXXXXXXX  ",
"OOooOOOOoooo  XXXXooooXXooooooXXooooooXXXXXXXXXXooooXXXXooXXXX  ",
"OOooOOOOoooo  XXXXooooXXooooooXXooooooXXXXXXXXXXooooXXXXooXXXX  ",
"OOOOOOOO++oo  XXOOooooooooooooOOooooooooXXooXXooooooooooXXXXXX  ",
"OOOOOOOO++oo  XXOOooooooooooooOOooooooooXXooXXooooooooooXXXXXX  ",
"OOOOOO++++++  OOOOOOooOOOOooooooooooOOooooooooooOOooooooooooXX  ",
"OOOOOO++++++  OOOOOOooOOOOooooooooooOOooooooooooOOooooooooooXX  ",
"++OO++++++++  OOOOOOOOOOOOOOOOOOooOOOOOOOOOOOOOOOOOOoooooooooo  ",
"++OO++++++++  OOOOOOOOOOOOOOOOOOooOOOOOOOOOOOOOOOOOOoooooooooo  ",
"++++++++++      OOOOOOOOOOOOOOOOOOOOOOOOOOOOOOOOOOOOOOOOooooOO  ",
"++++++++++      OOOOOOOOOOOOOOOOOOOOOOOOOOOOOOOOOOOOOOOOooooOO  "
};
