/* XPM */
static char *result[] = {
/* columns rows colors chars-per-pixel */
"64 59 5 1 ",
"  c #2F2E2F",
". c #564064",
"X c #85578E",
"o c #3E2F5A",
"O c white",
/* pixels */
"                                                                ",
"                                                                ",
"  ..XXXXXXXXXXXXXXXXXXXX      XXXXXXXXXXXXXXXXXXXXXXXXXXXXXX..  ",
"  ..XXXXXXXXXXXXXXXXXXXX      XXXXXXXXXXXXXXXXXXXXXXXXXXXXXX..  ",
"  XXXXXXXX..XXXXXXXXXXXXXX  XXXXXXXXXXXX..XXXXXX..XXXXXXXXXXXX  ",
"  XXXXXXXX..XXXXXXXXXXXXXX  XXXXXXXXXXXX..XXXXXX..XXXXXXXXXXXX  ",
"  XXXX........XX......XXXX  XXXX....XX......XX........XX..XXXX  ",
"  XXXX........XX......XXXX  XXXX....XX......XX........XX..XXXX  ",
"  XX................ooooXX  XXoooo..........................XX  ",
"  XX................ooooXX  XXoooo..........................XX  ",
"  ..XX....oooooooooooooooo  oooooooooooo....oooooooooo........  ",
"  ..XX....oooooooooooooooo  oooooooooooo....oooooooooo........  ",
"  oo....oooooooooooooooo      oooooooooooooooooooooooooo....oo  ",
"  oo....oooooooooooooooo      oooooooooooooooooooooooooo....oo  ",
"                                                                ",
"                                                                ",
"  ..XXXXXXXXXXXXXXXXXXXXXXXXXXXXXXXXXXXXXXXXXXXXXXXXXXXXXXXX..  ",
"  ..XXXXXXXXXXXXXXXXXXXXXXXXXXXXXXXXXXXXXXXXXXXXXXXXXXXXXXXX..  ",
"  XXXXXXXXXXXXXXXXXXXXXXXXXXXX....XXXXXXXXXXXXXXXXXXXXXXXXXXXX  ",
"  XXXXXXXXXXXXXXXXXXXXXXXXXXXX....XXXXXXXXXXXXXXXXXXXXXXXXXXXX  ",
"  XXXX......XX....XX......XX........XX..XXXX..XXXX..XX....XXXX  ",
"  XXXX......XX....XX......XX........XX..XXXX..XXXX..XX....XXXX  ",
"  XX..XX..............oo......oooo......................XX..XX  ",
"  XX..XX..............oo......oooo......................XX..XX  ",
"  XX..........oo....oooooo............oo..oo..oo..............  ",
"  XX..........oo....oooooo............oo..oo..oo..............  ",
"  ..XX......oooooooooooooooooooo....oooooooooooooooooo........  ",
"  ..XX......oooooooooooooooooooo....oooooooooooooooooo........  ",
"  oo....oooooooooooooooooooooooooooooooooooooooooooooooo....oo  ",
"  oo....oooooooooooooooooooooooooooooooooooooooooooooooo....oo  ",
"                                                                ",
"                                                                ",
"  ..XXXXXXXXXXXXXXXX      XXXXXXXXXXXXXXXXXXXXXXXXXXXXXXXXXX..  ",
"  ..XXXXXXXXXXXXXXXX      XXXXXXXXXXXXXXXXXXXXXXXXXXXXXXXXXX..  ",
"  XXXXXXXXXXXX..XXXXXX  XXXXXXXXXXXX..XXXXXXXXXXXXXXXXXXXXXXXX  ",
"  XXXXXXXXXXXX..XXXXXX  XXXXXXXXXXXX..XXXXXXXXXXXXXXXXXXXXXXXX  ",
"  XXXXXX..XX......XXXX  XXXX....XX........XX....XXXXXX..XXXXXX  ",
"  XXXXXX..XX......XXXX  XXXX....XX........XX....XXXXXX..XXXXXX  ",
"  XXXX....oo........XX  XX..........oo....oo......XX..XX..XXXX  ",
"  XXXX....oo........XX  XX..........oo....oo......XX..XX..XXXX  ",
"  XX..XX....oo......oo  oo........oooo......oo..............XX  ",
"  XX..XX....oo......oo  oo........oooo......oo..............XX  ",
"  XX........oooo..oooo  oooo..oooooo....oo......oooo..........  ",
"  XX........oooo..oooo  oooo..oooooo....oo......oooo..........  ",
"  ..XX....oooooooooooo  oooooooooooooooooooo..oooooooo........  ",
"  ..XX....oooooooooooo  oooooooooooooooooooo..oooooooo........  ",
"  oo..oooooooooooooo      oooooooooooooooooooooooooooooo....oo  ",
"  oo..oooooooooooooo      oooooooooooooooooooooooooooooo....oo  ",
"                                                                ",
"                                                                ",
"  ..XXXXXXXXXXXXXXXXXXXXXXXXXXXXXXXXXXXXXXXXXXXXXXXXXXXXXXXX..  ",
"  ..XXXXXXXXXXXXXXXXXXXXXXXXXXXXXXXXXXXXXXXXXXXXXXXXXXXXXXXX..  ",
"  XXXXXX..XXXXXXXXXXXXXXXX..XXXXXX..XXXXXXXXXXXXXXXXXXXXXXXXXX  ",
"  XXXXXX..XXXXXXXXXXXXXXXX..XXXXXX..XXXXXXXXXXXXXXXXXXXXXXXXXX  ",
"  XXXXXXXX..XXXXXX....XX......XX......XX..XXXXXX....XXXX..XXXX  ",
"  XXXXXXXX..XXXXXX....XX......XX......XX..XXXXXX....XXXX..XXXX  ",
"  XX......XXooXXoo............oo............XX..........XXXXXX  ",
"  XX......XXooXXoo............oo............XX..........XXXXXX  ",
"  ..........oooooooo..oooo..........oooo..oo....oo............  "
};
