/* XPM */
static char *result[] = {
/* columns rows colors chars-per-pixel */
"64 64 6 1 ",
"  c #2F2E2F",
". c #BE9BB0",
"X c #85578E",
"o c #564064",
"O c #3E2F5A",
"+ c white",
/* pixels */
"                                                                ",
"                                                                ",
"............      XXXXXX      XXXXXXXXXXXXXXXX      ............",
"............      XXXXXX      XXXXXXXXXXXXXXXX      ............",
"XXXXXXXXooooXX  XXXXXXXXXX  XXXXXXXXXXXXooXXXXXX  XXooooXXXXXXXX",
"XXXXXXXXooooXX  XXXXXXXXXX  XXXXXXXXXXXXooXXXXXX  XXooooXXXXXXXX",
"XXooooooooOOOO  ooooooXXXX  XXXXooooXXooooooooXX  OOOOooooXXooXX",
"XXooooooooOOOO  ooooooXXXX  XXXXooooXXooooooooXX  OOOOooooXXooXX",
"ooooooooOOOO    ooooOOOOXX  XXOOOOoooooooooooooo    OOOOoooooooo",
"ooooooooOOOO    ooooOOOOXX  XXOOOOoooooooooooooo    OOOOoooooooo",
"OOooOOOO        OOOOOOOOOO  OOOOOOOOOOOOooooOOOO        OOOOooOO",
"OOooOOOO        OOOOOOOOOO  OOOOOOOOOOOOooooOOOO        OOOOooOO",
"OOOO              OOOOOO      OOOOOOOOOOOOOOOO              OOOO",
"OOOO              OOOOOO      OOOOOOOOOOOOOOOO              OOOO",
"                                                                ",
"                                                                ",
"XXXXXX      XXXXXXXXXXXXXXXXXXXXXXXXXXXXXX      XXXXXXXXXXXXXXXX",
"XXXXXX      XXXXXXXXXXXXXXXXXXXXXXXXXXXXXX      XXXXXXXXXXXXXXXX",
"XXXXXXXX  XXXXXXXXXXXXXXXXXXXXooooXXXXXXXXXX  XXXXXXXXXXXXooooXX",
"XXXXXXXX  XXXXXXXXXXXXXXXXXXXXooooXXXXXXXXXX  XXXXXXXXXXXXooooXX",
"XXooXXXX  XXXXooooXXooooooXXooooooooXXooXXXX  XXXXooXXoooooooooo",
"XXooXXXX  XXXXooooXXooooooXXooooooooXXooXXXX  XXXXooXXoooooooooo",
"ooooOOXX  XXOOooooooooOOooooooOOOOOOooooOOXX  XXOOooooooooOOOOoo",
"ooooOOXX  XXOOooooooooOOooooooOOOOOOooooOOXX  XXOOooooooooOOOOoo",
"ooOOOOOO  OOOOOOooooOOOOOOooooooooooooOOOOOO  OOOOOOooooOOOOoooo",
"ooOOOOOO  OOOOOOooooOOOOOOooooooooooooOOOOOO  OOOOOOooooOOOOoooo",
"OOOOOOOO  OOOOOOOOOOOOOOOOOOOOOOooooOOOOOOOO  OOOOOOOOOOOOOOOOOO",
"OOOOOOOO  OOOOOOOOOOOOOOOOOOOOOOooooOOOOOOOO  OOOOOOOOOOOOOOOOOO",
"OOOOOO      OOOOOOOOOOOOOOOOOOOOOOOOOOOOOO      OOOOOOOOOOOOOOOO",
"OOOOOO      OOOOOOOOOOOOOOOOOOOOOOOOOOOOOO      OOOOOOOOOOOOOOOO",
"                                                                ",
"                                                                ",
"XXXXXXXXXXXXXXXXXXXX      XXXXXXXXXXXXXXXXXXXXXXXX      XXXXXXXX",
"XXXXXXXXXXXXXXXXXXXX      XXXXXXXXXXXXXXXXXXXXXXXX      XXXXXXXX",
"XXXXXXXXXXXXXXooXXXXXX  XXXXXXXXXXXXooXXXXXXXXXXXXXX  XXXXXXooXX",
"XXXXXXXXXXXXXXooXXXXXX  XXXXXXXXXXXXooXXXXXXXXXXXXXX  XXXXXXooXX",
"ooXXooooooXXooooooXXXX  XXXXooooXXooooooooXXooooXXXX  XXXXoooooo",
"ooXXooooooXXooooooXXXX  XXXXooooXXooooooooXXooooXXXX  XXXXoooooo",
"ooooooooooOOooooooooXX  XXooooooooooOOooooOOooooooXX  XXooooOOoo",
"ooooooooooOOooooooooXX  XXooooooooooOOooooOOooooooXX  XXooooOOoo",
"ooooOOOOooooOOooooooOO  OOooooooooOOOOooooooOOooooOO  OOooooooOO",
"ooooOOOOooooOOooooooOO  OOooooooooOOOOooooooOOooooOO  OOooooooOO",
"ooOOOOooooooOOOOooOOOO  OOOOooOOOOOOooooOOooooooOOOO  OOOOoooooo",
"ooOOOOooooooOOOOooOOOO  OOOOooOOOOOOooooOOooooooOOOO  OOOOoooooo",
"OOOOOOOOooOOOOOOOOOOOO  OOOOOOOOOOOOOOOOOOOOooOOOOOO  OOOOOOooOO",
"OOOOOOOOooOOOOOOOOOOOO  OOOOOOOOOOOOOOOOOOOOooOOOOOO  OOOOOOooOO",
"OOOOOOOOOOOOOOOOOOOO      OOOOOOOOOOOOOOOOOOOOOOOO      OOOOOOOO",
"OOOOOOOOOOOOOOOOOOOO      OOOOOOOOOOOOOOOOOOOOOOOO      OOOOOOOO",
"                                                                ",
"                                                                ",
"XXXXXXXXXX      XXXXXXXXXXXXXXXXXXXXXXXX      XXXXXXXXXXXXXXXXXX",
"XXXXXXXXXX      XXXXXXXXXXXXXXXXXXXXXXXX      XXXXXXXXXXXXXXXXXX",
"XXXXXXXXXXXX  XXXXXXXXXXXXooXXXXXXooXXXXXX  XXXXXXXXXXXXXXXXooXX",
"XXXXXXXXXXXX  XXXXXXXXXXXXooXXXXXXooXXXXXX  XXXXXXXXXXXXXXXXooXX",
"ooXXooooXXXX  XXXXooooXXooooooXXooooooXXXX  XXXXooooXXoooooooooo",
"ooXXooooXXXX  XXXXooooXXooooooXXooooooXXXX  XXXXooooXXoooooooooo",
"OOooooooOOXX  XXOOooooooooooooOOooooooOOXX  XXOOooooooooooooOOoo",
"OOooooooOOXX  XXOOooooooooooooOOooooooOOXX  XXOOooooooooooooOOoo",
"ooooooOOOOOO  OOOOOOooOOOOooooooooooOOOOOO  OOOOOOooooooooOOOOoo",
"ooooooOOOOOO  OOOOOOooOOOOooooooooooOOOOOO  OOOOOOooooooooOOOOoo",
"OOooOOOOOOOO  OOOOOOOOOOOOOOOOOOooOOOOOOOO  OOOOOOOOooOOOOOOOOOO",
"OOooOOOOOOOO  OOOOOOOOOOOOOOOOOOooOOOOOOOO  OOOOOOOOooOOOOOOOOOO",
"                                                                ",
"                                                                "
};
