/* XPM */
static char *ezgif_com_crop__3_1703245904[] = {
/* columns rows colors chars-per-pixel */
"64 64 23 1 ",
"  c None",
". c #331A19",
"X c #341A25",
"o c #3C1E2B",
"O c #4D2D2C",
"+ c #452432",
"@ c #4F2A3A",
"# c #5C3747",
"$ c #442B61",
"% c #745663",
"& c #7C5969",
"* c red",
"= c #CE2038",
"- c #8A0B41",
"; c #8A767E",
": c #331685",
"> c #432792",
", c #5F4181",
"< c #9A7686",
"1 c #9E7688",
"2 c #97828A",
"3 c #97828B",
"4 c #BEACB3",
/* pixels */
"                                                                ",
"                                                                ",
"                                                                ",
"                                                                ",
"                                                                ",
"                                                                ",
"                                                                ",
"                         @++                                    ",
"                        @@++++                                  ",
"                        @@@++++                                 ",
"                        @@@@+++++                               ",
"                         @@@@++++++                             ",
"                          @@@@++++++                            ",
"                           @@@@++++++                           ",
"                            @@@@+++++++                         ",
"                             @@@@+++++++                        ",
"                              @ooo+++++++                       ",
"                               o;ooo++++++                      ",
"                               o*;ooo++++++                     ",
"                               o42;oooo+++++                    ",
"                            ==-oo43  ooooooo                    ",
"                         =====---o--=  oooo                     ",
"                       -------------==                          ",
"                      --###oo222------==                        ",
"                      -###ooo222.22222---                       ",
"                      ####oo2222.222222#X                       ",
"                    #####oo22222.2222###X                       ",
"                   ####oooo24444.4222###X                       ",
"                   o######o44444.4222###X                       ",
"                   oo######2444.44222####X                      ",
"                   ooo####oo244.4222#XX##X                      ",
"                   ooooooooo224.4222XXXXXX                      ",
"                    ooooooo&122.42<%%XXXXX                      ",
"                     ooooo&&122.4<<%%%XXX                       ",
"                      ooo&&&11...<%>%%                          ",
"                       =oo&&&14.<<%:                            ",
"                      ==---&&111<%%444                          ",
"                      =---222&&&>%%4444                         ",
"                     =----222&&&:2224444                        ",
"                     =-  222,$$$2.222444                        ",
"                         4,,,$$2..2222444                       ",
"                        ,,,,$422...2222444                      ",
"                       ,,,$$4422.OO..22244                      ",
"                     ,,,$$44442..OOOO.22244                     ",
"                   ,,,$$4444422..OOOOO..2224                    ",
"                 ,,,$$  444422..OO..OOO...22                    ",
"               ,,,$$   4444422..OO...OOOOO..                    ",
"              ,,$$     444422..OO.O.O.OOOOOOO                   ",
"            ,,,$      444422.OOO....O...OOOOO                   ",
"          ,,,$$       44422.OOOO......O.OOOOO                   ",
"        ,,,$$        44422.OO..OO............                   ",
"        $$$          4422..O.....O...........                   ",
"                    44222...................                    ",
"                    4222...............OO.O.                    ",
"                   422..O.............OO....                    ",
"                   2.44..O...........OO.244.                    ",
"                   .2222................2224                    ",
"                                                                ",
"                                                                ",
"                                                                ",
"                                                                ",
"                                                                ",
"                                                                ",
"                                                                "
};
