/* XPM */
static char *ezgif_com_crop__6_1703245903[] = {
/* columns rows colors chars-per-pixel */
"64 64 23 1 ",
"  c None",
". c #331A19",
"X c #341A25",
"o c #3C1E2B",
"O c #4D2D2C",
"+ c #452432",
"@ c #4F2A3A",
"# c #5C3747",
"$ c #442B61",
"% c #745663",
"& c #7C5969",
"* c red",
"= c #CE2038",
"- c #8A0B41",
"; c #8A767E",
": c #331685",
"> c #432792",
", c #5F4181",
"< c #9A7686",
"1 c #9E7688",
"2 c #97828A",
"3 c #97828B",
"4 c #BEACB3",
/* pixels */
"                                                                ",
"                                                                ",
"                                                                ",
"                                                                ",
"                                                                ",
"                         @++                                    ",
"                        @@++++                                  ",
"                        @@@++++                                 ",
"                        @@@@+++++                               ",
"                         @@@@++++++                             ",
"                          @@@@++++++                            ",
"                           @@@@++++++                           ",
"                            @@@@+++++++                         ",
"                             @@@@+++++++                        ",
"                              @ooo+++++++                       ",
"                               o;ooo++++++                      ",
"                               o*;ooo++++++                     ",
"                               o43;oooo+++++                    ",
"                            ==-oo42  ooooooo                    ",
"                         =====---o--=  oooo                     ",
"                       =========--====                          ",
"                      ==========--=====                         ",
"                      ==-----------=====                        ",
"                     ---##oo2222-----====                       ",
"                     ####oo22222.2222---=                       ",
"                    ###oooo24444.4222###X                       ",
"                   #####o#o44444.4222###X                       ",
"                   #####ooo2444.44222###X                       ",
"                   o#####ooo244.42222###XX                      ",
"                   oo######o224.4222#####X                      ",
"                   ooo####oo222.4222#XX##X                      ",
"                   ooooooooo 22.4222XXXXXX                      ",
"                    ooooooo&1....2<%%XXXXX                      ",
"                     ooooo&&12...<<>%%XXX                       ",
"                      ooo&&&1144<<%:%%4                         ",
"                        oo&&&144<<%%4444                        ",
"                         22&&111>%%22444                        ",
"                         4444&&&:%%222444                       ",
"                        4444,$$$...2222444                      ",
"                        44,,,$$2.OO..22244                      ",
"                        ,,,,$42..OOOO.22244                     ",
"                       ,,,$$422..OOOOO..2224                    ",
"                     ,,,$$4422..OO..OOO...22                    ",
"                   ,,,$$444422..OO...OOOOO..                    ",
"                 ,,,$$  44422..OO.O.O.OOOOOOO                   ",
"               ,,,$$   44442.OOO....O...OOOOO                   ",
"              ,,$$    44422..OOO......O.OOOOO                   ",
"            ,,,$      4442..OOOO.............                   ",
"          ,,,$$      44422.OO..OO............                   ",
"        ,,,$$        4422..O.....O...........                   ",
"        $$$         44222...................                    ",
"                    4222...............OO.O.                    ",
"                   422..O.............OO....                    ",
"                   2.44..O...........OO.244.                    ",
"                   .2222................2224                    ",
"                                                                ",
"                                                                ",
"                                                                ",
"                                                                ",
"                                                                ",
"                                                                ",
"                                                                ",
"                                                                ",
"                                                                "
};
