/* XPM */
static char *ezgif_com_crop__30_1703526766[] = {
/* columns rows colors chars-per-pixel */
"64 64 25 1 ",
"  c None",
". c #331A19",
"X c #341A25",
"o c #3C1E2B",
"O c #4D2D2C",
"+ c #452432",
"@ c #4F2A3A",
"# c #5C3747",
"$ c #442B61",
"% c #745663",
"& c #7C5969",
"* c red",
"= c #CE2038",
"- c #8A0B41",
"; c #8A767E",
": c #331685",
"> c #432792",
", c #5F4181",
"< c #9A7686",
"1 c #9E7688",
"2 c #97828A",
"3 c #97828B",
"4 c #BEACB3",
"5 c #C1C1C1",
"6 c #DADADA",
/* pixels */
"                                                                ",
"                                                                ",
"                                                                ",
"                                                                ",
"                                                                ",
"                                                                ",
"                          @++                                   ",
"                         @@++++                                 ",
"                         @@@++++                                ",
"                         @@@@+++++                              ",
"                          @@@@++++++                            ",
"                           @@@@++++++                           ",
"                            @@@@++++++                          ",
"                             @@@@+++++++                        ",
"                              @@@@+++++++                       ",
"                               @ooo+++++++                      ",
"                                o;ooo++++++                     ",
"                                o*;ooo++++++                    ",
"                                o43;oooo+++++                   ",
"                             ==-oo42--ooooooo                   ",
"                          =====---o-=---oooo                    ",
"                        ====-------------                       ",
"                       =-------------22XXX                      ",
"                       --##ooo222--222XXXX#####                 ",
"                       -###oo2222.2222XXXX######                ",
"                      ####oo22222.2222XXXXX#####                ",
"                     ###oooo24444.42222XXXXXXXX#                ",
"                    #####o#o44444.42222XXXXXXXXX                ",
"                    o#####oo2444.44222--XXXXXXXX                ",
"                    oo######o244.42222--<%%XXXXX                ",
"                    ooo####oo224.4222--<<%%%XXX                 ",
"                    ooooooooo222.4222--<%%%%                    ",
"                     ooooooo&122.42---<<%%:                     ",
"                      ooooo&&1....==>><%%:-                     ",
"                       ooo&&&11...26:::%%---                    ",
"                         oo&&&14426655:--=--                    ",
"                          22&&111>66224--==-                    ",
"                          2224&&&:622224--==                    ",
"                          222,&&&.2222224-                      ",
"                          4,,,$$..OO.22224                      ",
"                         ,,,,$22..OOO..2224                     ",
"                        ,,,$$422..OOOOO.22244                   ",
"                      ,,,$$44422..OOOOOO..2224                  ",
"                    ,,,$$ 444222.OOOOOOOO...22                  ",
"                  ,,,$$   444222.OOOO.OOOOOO..                  ",
"                ,,,$$     444222.OOO....OOOOOO                  ",
"               ,,$$       442222.OOO.....OOOOOO                 ",
"             ,,,$         44222.OOOO......OOOOO                 ",
"           ,,,$$          44222.OOOO........OOO                 ",
"         ,,,$$            44222.OOOO...OOO..OOOO                ",
"         $$$              42222.OOO...........OO                ",
"                          42222.O.O.......OO...O                ",
"                          22222.OOO...O........OO               ",
"                          22222..O.....O........O               ",
"                         222222...................              ",
"                         22222...............OO.O.              ",
"                         222..O.............OO....              ",
"                         2.44..O...........OO.244.              ",
"                         .2222................2224              ",
"                                                                ",
"                                                                ",
"                                                                ",
"                                                                ",
"                                                                "
};
