/* XPM */
static char *ezgif_com_crop__31_1703526766[] = {
/* columns rows colors chars-per-pixel */
"64 64 25 1 ",
"  c None",
". c #331A19",
"X c #341A25",
"o c #3C1E2B",
"O c #4D2D2C",
"+ c #452432",
"@ c #4F2A3A",
"# c #5C3747",
"$ c #442B61",
"% c #745663",
"& c #7C5969",
"* c red",
"= c #CE2038",
"- c #8A0B41",
"; c #8A767E",
": c #331685",
"> c #432792",
", c #5F4181",
"< c #9A7686",
"1 c #9E7688",
"2 c #97828A",
"3 c #97828B",
"4 c #BEACB3",
"5 c #C1C1C1",
"6 c #DADADA",
/* pixels */
"                                                                ",
"                                                                ",
"                                                                ",
"                                                                ",
"                                                                ",
"                                                                ",
"                                                                ",
"                                                                ",
"                         @++                                    ",
"                        @@++++                                  ",
"                        @@@++++                                 ",
"                        @@@@+++++                               ",
"                         @@@@++++++                             ",
"                          @@@@++++++                            ",
"                           @@@@++++++                           ",
"                            @@@@+++++++                         ",
"                             @@@@+++++++                        ",
"                              @ooo+++++++                       ",
"                               o;ooo++++++                      ",
"                               o*;ooo++++++                     ",
"                               o42;oooo+++++                    ",
"                            ==-oo43--ooooooo                    ",
"                         =====---o-=---oooo                     ",
"                       ====-------------                        ",
"                      =-------------22X##                       ",
"                      --##ooo222--222XXX########                ",
"                      -###oo2222.2222XXXXXXX#####               ",
"                     ####oo22222.2222XXXXXXXXXXX#               ",
"                    ###oooo24444.42222XXXXX<%%XXX               ",
"                   #####o#o44444.422222   <<%%%XX               ",
"                   o#####oo2444.44222     <%%%%X                ",
"                   oo######o244.4222    ><<%%                   ",
"                   ooo####oo224.4222  6>>:%%:                   ",
"                   ooooooooo222.4222 665::                      ",
"                    ooooooo&122.42 6665                         ",
"                     ooooo&&1....-6665                          ",
"                      ooo&&&11..66655                           ",
"                        oo&&&14666524                           ",
"                         22&&1>6652224                          ",
"                         222,&:55222224                         ",
"                         2,,,$&&.2222224                        ",
"                        ,,,,$22..OO.22224                       ",
"                       ,,,$$422..OOO..2224                      ",
"                     ,,,$$44422..OOOOO.22244                    ",
"                   ,,,$$ 444422..OOOOOO..2224                   ",
"                 ,,,$$   444222.OOOOOOOO...22                   ",
"               ,,,$$     444222.OOOO.OOOOOO..                   ",
"              ,,$$       444222.OOO....OOOOOO                   ",
"            ,,,$         442222.OOO.....OOOOO                   ",
"          ,,,$$          44222.OOOO......OOO                    ",
"        ,,,$$           422222.OO........OOO                    ",
"        $$$             422222.OO....OOO.OOOO                   ",
"                       422222..O...........OO                   ",
"                       422222..O........O...O                   ",
"                       222222.OO....O.......OO                  ",
"                       22222..O......O.......O                  ",
"                      222222...................                 ",
"                      22222...............OO...                 ",
"                      222..O.............OO....                 ",
"                      2.44..O...........OO.244.                 ",
"                      .2222................2224                 ",
"                                                                ",
"                                                                ",
"                                                                "
};
