/* XPM */
static char *ezgif_com_crop__22_1703342475[] = {
/* columns rows colors chars-per-pixel */
"64 64 22 1 ",
"  c None",
". c #331A19",
"X c #341A25",
"o c #3C1E2B",
"O c #4D2D2C",
"+ c #452432",
"@ c #4F2A3A",
"# c #5C3747",
"$ c #442B61",
"% c #745663",
"& c #7C5969",
"* c red",
"= c #CE2038",
"- c #8A0B41",
"; c #8A767E",
": c #331685",
"> c #432792",
", c #5F4181",
"< c #9E7688",
"1 c #97828A",
"2 c #97828B",
"3 c #BEACB3",
/* pixels */
"                                                                ",
"                                                                ",
"                                                                ",
"                                                                ",
"                                                                ",
"                                                                ",
"                           @++                                  ",
"                          @@++++                                ",
"                          @@@++++                               ",
"                          @@@@+++++                             ",
"                           @@@@++++++                           ",
"                            @@@@++++++                          ",
"                             @@@@++++++                         ",
"                              @@@@+++++++                       ",
"                               @@@@+++++++                      ",
"                                @ooo+++++++                     ",
"                                 o;ooo++++++                    ",
"                                 o*;ooo++++++                   ",
"                                 o32;oooo+++++                  ",
"                            --==-oo31  ooooooo                  ",
"                           =====---o--=  oooo                   ",
"                         ===-==-==--====                        ",
"                        =-------------===                       ",
"                        --##ooo111------==                      ",
"                        -###oo1111.11111X==                     ",
"                       ####oo11111.1111XXXX                     ",
"                       o###oo11111.1111XXX#                     ",
"                       oo###o11333.1111XXX##                    ",
"                       oo####13333.1111XXX##                    ",
"                       oo###o13333.1111XXX###                   ",
"                       oo####o#333.111  XXX##                   ",
"                        o######o13.111  XXX##                   ",
"                        oo####oo11.111  XXXX##                  ",
"                        oooooooo&&....  XXXXX#                  ",
"                         ooooooo&&<.... XXXXXX                  ",
"                          ooooo&&&&3...3 X&&X                   ",
"                            oooo&&&333113 &&X                   ",
"                            11113%%111333& &<                   ",
"                            11113%%.1111333                     ",
"                            1111111...111113                    ",
"                            31131>>>....11113                   ",
"                            33333:::OO...11111                  ",
"                            13>33:1.OOOO.....OO                 ",
"                          $$$$>3331.OOOO...OOOOO                ",
"                      ,,,,,$$$:1333..OOOO...OOOO                ",
"                    ,,,,$$$$$$113331.OOOO....O..                ",
"                ,,,,,,$$$$  1111131...OOO.......                ",
"            ,,,,,,,,$$     11111111.............                ",
"          ,,,,,,$$$$      11111111OO............                ",
"     ,,,,,$$$$$$        111111.O..OO............                ",
"     $$$$$$$            11111.O.......OO........                ",
"     $$$$              111111....OOO..O.........                ",
"                      111111........OO....OO...                 ",
"                      11111..............OO....                 ",
"                      1.33..............OO.133.                 ",
"                      .1111................1113                 ",
"                                                                ",
"                                                                ",
"                                                                ",
"                                                                ",
"                                                                ",
"                                                                ",
"                                                                ",
"                                                                "
};
