/* XPM */
static char *ezgif_com_crop__24_1703342475[] = {
/* columns rows colors chars-per-pixel */
"64 64 22 1 ",
"  c None",
". c #331A19",
"X c #341A25",
"o c #3C1E2B",
"O c #4D2D2C",
"+ c #452432",
"@ c #4F2A3A",
"# c #5C3747",
"$ c #442B61",
"% c #745663",
"& c #7C5969",
"* c red",
"= c #CE2038",
"- c #8A0B41",
"; c #8A767E",
": c #331685",
"> c #432792",
", c #5F4181",
"< c #9E7688",
"1 c #97828A",
"2 c #97828B",
"3 c #BEACB3",
/* pixels */
"                                                                ",
"                                                                ",
"                                                                ",
"                                                                ",
"                                                                ",
"                                                                ",
"                                                                ",
"                           @++                                  ",
"                          @@++++                                ",
"                          @@@++++                               ",
"                          @@@@+++++                             ",
"                           @@@@++++++                           ",
"                            @@@@++++++                          ",
"                             @@@@++++++                         ",
"                              @@@@+++++++                       ",
"                               @@@@+++++++                      ",
"                                @ooo+++++++                     ",
"                                 o;ooo++++++                    ",
"                       --        o*;ooo++++++                   ",
"                       --     ==-o32;oooo+++++                  ",
"                      ---  =====-oo31  ooooooo                  ",
"                      ----======---o--== oooo                   ",
"                      --===----------====                       ",
"                      --ooooooo111.1----==                      ",
"                      -oooooooo111.11111-==                     ",
"                      o###oooo1111.11111X==                     ",
"                      oo###o=11111.1111XXXX                     ",
"                      oo####o11111.1111XXX##                    ",
"                      oo###oo11333.1111XXX####                  ",
"                      oo####o#3333.1111XXXXX##                  ",
"                       o######o133.1111 XXXX###                 ",
"                       oo####oo113.111   XXXX##                 ",
"                       oooooooo&&3.111   XXXXX#                 ",
"                        ooooooo&&<.111   XXXXXX                 ",
"                         ooooo&&&&....    X&&X                  ",
"                           oooo&&&.....    &&X                  ",
"                               3%%11111   & &<                  ",
"                            1113%%333333                        ",
"                            1113331113333                       ",
"                           1111331.1111333                      ",
"                           1111111...111113                     ",
"                           3111111.....11113                    ",
"                           3331111.OO...11111                   ",
"                           3333111.OOOO.....OO                  ",
"                          33333331.OOOO...OOOOO                 ",
"                     1111333333331..OOOO...OOOO                 ",
"                   111111133333311..OOOO....O..                 ",
"                  1111111113333111...OOO.......                 ",
"                 11111111111111111.............                 ",
",,,,,            1111111111111111OO............                 ",
"$$$,,,,,,,,,,,,,,,,,,,,,,,>>>>>>>OO............                 ",
"   $$$$$$$$$$$$$$$$$$$$$$$:::::::.....1O......                  ",
"                                                                ",
"                                                                ",
"                                                                ",
"                                                                ",
"                                                                ",
"                                                                ",
"                                                                ",
"                                                                ",
"                                                                ",
"                                                                ",
"                                                                ",
"                                                                "
};
