/* XPM */
static char *result[] = {
/* columns rows colors chars-per-pixel */
"64 64 6 1 ",
"  c #180E0E",
". c #CC7F00",
"X c #FF9F00",
"o c yellow",
"O c white",
"+ c None",
/* pixels */
"++++++++++++++++++++++++                ++++++++++++++++++++++++",
"++++++++++++++++++++++++                ++++++++++++++++++++++++",
"++++++++++++++++++++++++                ++++++++++++++++++++++++",
"++++++++++++++++++++++++                ++++++++++++++++++++++++",
"++++++++++++++++++++    OOOOOOOOooooOOOO    ++++++++++++++++++++",
"++++++++++++++++++++    OOOOOOOOooooOOOO    ++++++++++++++++++++",
"++++++++++++++++++++    OOOOOOOOooooOOOO    ++++++++++++++++++++",
"++++++++++++++++++++    OOOOOOOOooooOOOO    ++++++++++++++++++++",
"++++++++++++++++    OOOOOOOOXXXXOOOOXXXX....    ++++++++++++++++",
"++++++++++++++++    OOOOOOOOXXXXOOOOXXXX....    ++++++++++++++++",
"++++++++++++++++    OOOOOOOOXXXXOOOOXXXX....    ++++++++++++++++",
"++++++++++++++++    OOOOOOOOXXXXOOOOXXXX....    ++++++++++++++++",
"++++++++++++++++    OOOOXXXXOOOOXXXXXXXX....    ++++++++++++++++",
"++++++++++++++++    OOOOXXXXOOOOXXXXXXXX....    ++++++++++++++++",
"++++++++++++++++    OOOOXXXXOOOOXXXXXXXX....    ++++++++++++++++",
"++++++++++++++++    OOOOXXXXOOOOXXXXXXXX....    ++++++++++++++++",
"++++++++++++    OOOOXXXXOOOOooooooooXXXXXXXX....    ++++++++++++",
"++++++++++++    OOOOXXXXOOOOooooooooXXXXXXXX....    ++++++++++++",
"++++++++++++    OOOOXXXXOOOOooooooooXXXXXXXX....    ++++++++++++",
"++++++++++++    OOOOXXXXOOOOooooooooXXXXXXXX....    ++++++++++++",
"++++++++++++    ooooOOOOXXXXoooo....XXXXXXXX....    ++++++++++++",
"++++++++++++    ooooOOOOXXXXoooo....XXXXXXXX....    ++++++++++++",
"++++++++++++    ooooOOOOXXXXoooo....XXXXXXXX....    ++++++++++++",
"++++++++++++    ooooOOOOXXXXoooo....XXXXXXXX....    ++++++++++++",
"++++++++++++    OOOOXXXXoooooooo....XXXXXXXX....    ++++++++++++",
"++++++++++++    OOOOXXXXoooooooo....XXXXXXXX....    ++++++++++++",
"++++++++++++    OOOOXXXXoooooooo....XXXXXXXX....    ++++++++++++",
"++++++++++++    OOOOXXXXoooooooo....XXXXXXXX....    ++++++++++++",
"++++++++++++    ooooXXXXXXXXoooo....XXXXXXXX....    ++++++++++++",
"++++++++++++    ooooXXXXXXXXoooo....XXXXXXXX....    ++++++++++++",
"++++++++++++    ooooXXXXXXXXoooo....XXXXXXXX....    ++++++++++++",
"++++++++++++    ooooXXXXXXXXoooo....XXXXXXXX....    ++++++++++++",
"++++++++++++    ooooXXXXXXXXoooo....XXXXXXXX....    ++++++++++++",
"++++++++++++    ooooXXXXXXXXoooo....XXXXXXXX....    ++++++++++++",
"++++++++++++    ooooXXXXXXXXoooo....XXXXXXXX....    ++++++++++++",
"++++++++++++    ooooXXXXXXXXoooo....XXXXXXXX....    ++++++++++++",
"++++++++++++    ooooXXXXXXXXoooo....XXXXXXXX....    ++++++++++++",
"++++++++++++    ooooXXXXXXXXoooo....XXXXXXXX....    ++++++++++++",
"++++++++++++    ooooXXXXXXXXoooo....XXXXXXXX....    ++++++++++++",
"++++++++++++    ooooXXXXXXXXoooo....XXXXXXXX....    ++++++++++++",
"++++++++++++    ooooXXXXXXXXoooo....XXXXXXXX....    ++++++++++++",
"++++++++++++    ooooXXXXXXXXoooo....XXXXXXXX....    ++++++++++++",
"++++++++++++    ooooXXXXXXXXoooo....XXXXXXXX....    ++++++++++++",
"++++++++++++    ooooXXXXXXXXoooo....XXXXXXXX....    ++++++++++++",
"++++++++++++    ooooXXXXXXXX........XXXXXXXX....    ++++++++++++",
"++++++++++++    ooooXXXXXXXX........XXXXXXXX....    ++++++++++++",
"++++++++++++    ooooXXXXXXXX........XXXXXXXX....    ++++++++++++",
"++++++++++++    ooooXXXXXXXX........XXXXXXXX....    ++++++++++++",
"++++++++++++    ooooXXXXXXXXXXXXXXXXXXXXXXXX....    ++++++++++++",
"++++++++++++    ooooXXXXXXXXXXXXXXXXXXXXXXXX....    ++++++++++++",
"++++++++++++    ooooXXXXXXXXXXXXXXXXXXXXXXXX....    ++++++++++++",
"++++++++++++    ooooXXXXXXXXXXXXXXXXXXXXXXXX....    ++++++++++++",
"++++++++++++++++    ooooXXXXXXXXXXXXXXXX....    ++++++++++++++++",
"++++++++++++++++    ooooXXXXXXXXXXXXXXXX....    ++++++++++++++++",
"++++++++++++++++    ooooXXXXXXXXXXXXXXXX....    ++++++++++++++++",
"++++++++++++++++    ooooXXXXXXXXXXXXXXXX....    ++++++++++++++++",
"++++++++++++++++++++    ................    ++++++++++++++++++++",
"++++++++++++++++++++    ................    ++++++++++++++++++++",
"++++++++++++++++++++    ................    ++++++++++++++++++++",
"++++++++++++++++++++    ................    ++++++++++++++++++++",
"++++++++++++++++++++++++                ++++++++++++++++++++++++",
"++++++++++++++++++++++++                ++++++++++++++++++++++++",
"++++++++++++++++++++++++                ++++++++++++++++++++++++",
"++++++++++++++++++++++++                ++++++++++++++++++++++++"
};
