/* XPM */
static char *tile0031703330337[] = {
/* columns rows colors chars-per-pixel */
"64 60 5 1 ",
"  c None",
". c #181425",
"X c #262B44",
"o c #9E2835",
"O c #F77622",
/* pixels */
"                                                                ",
"                                                                ",
"                                                                ",
"                                                                ",
"                                                                ",
"                                                                ",
"                                                                ",
"                                                                ",
"                                                                ",
"                                                                ",
"                                                                ",
"                                                                ",
"                oo                            oo                ",
"                oo                            oo                ",
"                                                                ",
"                                                                ",
"            ..oo....                        ..oooo..            ",
"            ..oo....                        ..oooo..            ",
"        ......oooo......                ......oooo......        ",
"        ......oooo......                ......oooo......        ",
"      ......oooooooo......            ......oooooooo......      ",
"      ......oooooooo......            ......oooooooo......      ",
"      ..XXXXooOOOOOOXXXX..            ..XXXXOOOOOOooXXXX..      ",
"      ..XXXXooOOOOOOXXXX..            ..XXXXOOOOOOooXXXX..      ",
"        XXXXXXOOOOXXXXXX                XXXXXXOOOOXXXXXX        ",
"        XXXXXXOOOOXXXXXX                XXXXXXOOOOXXXXXX        ",
"            XXXXXXXX                        XXXXXXXX            ",
"            XXXXXXXX                        XXXXXXXX            ",
"                                                                ",
"                                                                ",
"                                oo                              ",
"                                oo                              ",
"                                                                ",
"                                                                ",
"                            ..oo....                            ",
"                            ..oo....                            ",
"                        ......oooo......                        ",
"                        ......oooo......                        ",
"                      ......oooooooo......                      ",
"                      ......oooooooo......                      ",
"                      ..XXXXooOOOOOOXXXX..                      ",
"                      ..XXXXooOOOOOOXXXX..                      ",
"                        XXXXXXOOOOXXXXXX                        ",
"                        XXXXXXOOOOXXXXXX                        ",
"              oo            XXXXXXXX          oo                ",
"              oo            XXXXXXXX          oo                ",
"                                                                ",
"                                                                ",
"            ..oooo..                        ..oooo..            ",
"            ..oooo..                        ..oooo..            ",
"        ......oooo......                ......oooo......        ",
"        ......oooo......                ......oooo......        ",
"      ......oooooooo......            ......oooooooo......      ",
"      ......oooooooo......            ......oooooooo......      ",
"      ..XXXXOOOOOOooXXXX..            ..XXXXOOOOOOooXXXX..      ",
"      ..XXXXOOOOOOooXXXX..            ..XXXXOOOOOOooXXXX..      ",
"        XXXXXXOOOOXXXXXX                XXXXXXOOOOXXXXXX        ",
"        XXXXXXOOOOXXXXXX                XXXXXXOOOOXXXXXX        ",
"            XXXXXXXX                        XXXXXXXX            ",
"            XXXXXXXX                        XXXXXXXX            "
};
