/* XPM */
static char *tile0101703330338[] = {
/* columns rows colors chars-per-pixel */
"64 60 5 1 ",
"  c None",
". c #181425",
"X c #262B44",
"o c #9E2835",
"O c #F77622",
/* pixels */
"        oooo                oooo      oo  oo                    ",
"        oooo                oooo      oo  oo                    ",
"        oooo                oo        oo  oo                    ",
"        oooo                oo        oo  oo                    ",
"        oo                oooo        oo                        ",
"        oo                oooo        oo                        ",
"                          oo                                    ",
"                          oo                                    ",
"                                                                ",
"                                                                ",
"                    oo  oo                          oo          ",
"                    oo  oo                          oo          ",
"          oo      oooo            oo      oo      oooo          ",
"          oo      oooo            oo      oo      oooo          ",
"          oo  oooooooo                    oo  oooooooo          ",
"          oo  oooooooo                    oo  oooooooo          ",
"            oooooooooo              oo      oooooooooo          ",
"            oooooooooo              oo      oooooooooo          ",
"        ..oooo..oooo....          oooo  ..oooo..oooo....        ",
"        ..oooo..oooo....          oooo  ..oooo..oooo....        ",
"      ....OOXXXXXXoo......        oooo....OOXXXXXXoo......      ",
"      ....OOXXXXXXoo......        oooo....OOXXXXXXoo......      ",
"      ..XXXXXXXXXXXXXXXX..          oo..XXXXXXXXXXXXXXXX..      ",
"      ..XXXXXXXXXXXXXXXX..          oo..XXXXXXXXXXXXXXXX..      ",
"        XXXXXXXXXXXXooXX                XXXXXXXXXXXXooXX        ",
"        XXXXXXXXXXXXooXX                XXXXXXXXXXXXooXX        ",
"          ooXXXXXXXX                      ooXXXXXXXX            ",
"          ooXXXXXXXX                      ooXXXXXXXX            ",
"                        oo                                      ",
"                        oo                                      ",
"        oo              oooo      oo    oo                      ",
"        oo              oooo      oo    oo                      ",
"        oooo            oooooo    oo    oooo                    ",
"        oooo            oooooo    oo    oooo                    ",
"        oooo            oooooooooo..    oooo                    ",
"        oooo            oooooooooo..    oooo                    ",
"        oo              ..OOOO..oooo....oo                      ",
"        oo              ..OOOO..oooo....oo                      ",
"                      ......XXXXXXOO......                      ",
"                      ......XXXXXXOO......                      ",
"                      ..XXXXXXXXXXXXXXXX..                      ",
"                      ..XXXXXXXXXXXXXXXX..                      ",
"                    oo  XXXXXXXXXXXXXXXX            oo          ",
"                    oo  XXXXXXXXXXXXXXXX            oo          ",
"          oo      oooo      XXXXXXXX      oo      oooo          ",
"          oo      oooo      XXXXXXXX      oo      oooo          ",
"          oo    oooooo                    oo    oooooo          ",
"          oo    oooooo                    oo    oooooo          ",
"            oooooooooo                      oooooooooo          ",
"            oooooooooo                      oooooooooo          ",
"        ..oooo..OOOO....                ..oooo..OOOO....        ",
"        ..oooo..OOOO....                ..oooo..OOOO....        ",
"      ....OOXXXXXXXX......            ....OOXXXXXXXX......      ",
"      ....OOXXXXXXXX......            ....OOXXXXXXXX......      ",
"      ..XXXXXXXXXXXXXXXX..            ..XXXXXXXXXXXXXXXX..      ",
"      ..XXXXXXXXXXXXXXXX..            ..XXXXXXXXXXXXXXXX..      ",
"        XXXXXXXXXXXXXXXX                XXXXXXXXXXXXXXXX        ",
"        XXXXXXXXXXXXXXXX                XXXXXXXXXXXXXXXX        ",
"            XXXXXXXX                        XXXXXXXX            ",
"            XXXXXXXX                        XXXXXXXX            "
};
