/* XPM */
static char *result[] = {
/* columns rows colors chars-per-pixel */
"64 64 6 1 ",
"  c #180E0E",
". c #CC7F00",
"X c #FF9F00",
"o c yellow",
"O c white",
"+ c None",
/* pixels */
"++++++++++++++++++++++++                ++++++++++++++++++++++++",
"++++++++++++++++++++++++                ++++++++++++++++++++++++",
"++++++++++++++++++++++++                ++++++++++++++++++++++++",
"++++++++++++++++++++++++                ++++++++++++++++++++++++",
"++++++++++++++++        oooooooooooooooo    ++++++++++++++++++++",
"++++++++++++++++        oooooooooooooooo    ++++++++++++++++++++",
"++++++++++++++++        oooooooooooooooo    ++++++++++++++++++++",
"++++++++++++++++        oooooooooooooooo    ++++++++++++++++++++",
"++++++++++++    ooooooooXXXXXXXXXXXXXXXXXXXX    ++++++++++++++++",
"++++++++++++    ooooooooXXXXXXXXXXXXXXXXXXXX    ++++++++++++++++",
"++++++++++++    ooooooooXXXXXXXXXXXXXXXXXXXX    ++++++++++++++++",
"++++++++++++    ooooooooXXXXXXXXXXXXXXXXXXXX    ++++++++++++++++",
"++++++++    ooooXXXXXXXXXXXXXXXXXXXXXXXXXXXX....    ++++++++++++",
"++++++++    ooooXXXXXXXXXXXXXXXXXXXXXXXXXXXX....    ++++++++++++",
"++++++++    ooooXXXXXXXXXXXXXXXXXXXXXXXXXXXX....    ++++++++++++",
"++++++++    ooooXXXXXXXXXXXXXXXXXXXXXXXXXXXX....    ++++++++++++",
"++++    ooooXXXXXXXXXXXXXXXXooooXXXXXXXXXXXXOOOOOOOO    ++++++++",
"++++    ooooXXXXXXXXXXXXXXXXooooXXXXXXXXXXXXOOOOOOOO    ++++++++",
"++++    ooooXXXXXXXXXXXXXXXXooooXXXXXXXXXXXXOOOOOOOO    ++++++++",
"++++    ooooXXXXXXXXXXXXXXXXooooXXXXXXXXXXXXOOOOOOOO    ++++++++",
"++++    ooooXXXXXXXXXXXXooooXXXX....XXXXOOOOOOOO....    ++++++++",
"++++    ooooXXXXXXXXXXXXooooXXXX....XXXXOOOOOOOO....    ++++++++",
"++++    ooooXXXXXXXXXXXXooooXXXX....XXXXOOOOOOOO....    ++++++++",
"++++    ooooXXXXXXXXXXXXooooXXXX....XXXXOOOOOOOO....    ++++++++",
"++++    ooooXXXXXXXXooooXXXXXXXX....OOOOOOOOXXXXOOOO    ++++++++",
"++++    ooooXXXXXXXXooooXXXXXXXX....OOOOOOOOXXXXOOOO    ++++++++",
"++++    ooooXXXXXXXXooooXXXXXXXX....OOOOOOOOXXXXOOOO    ++++++++",
"++++    ooooXXXXXXXXooooXXXXXXXX....OOOOOOOOXXXXOOOO    ++++++++",
"++++    ooooXXXXXXXXXXXXooooXXXXOOOOOOOOXXXXOOOO....    ++++++++",
"++++    ooooXXXXXXXXXXXXooooXXXXOOOOOOOOXXXXOOOO....    ++++++++",
"++++    ooooXXXXXXXXXXXXooooXXXXOOOOOOOOXXXXOOOO....    ++++++++",
"++++    ooooXXXXXXXXXXXXooooXXXXOOOOOOOOXXXXOOOO....    ++++++++",
"++++    ooooXXXXXXXXXXXXooooOOOOOOOOXXXXOOOOXXXX....    ++++++++",
"++++    ooooXXXXXXXXXXXXooooOOOOOOOOXXXXOOOOXXXX....    ++++++++",
"++++    ooooXXXXXXXXXXXXooooOOOOOOOOXXXXOOOOXXXX....    ++++++++",
"++++    ooooXXXXXXXXXXXXooooOOOOOOOOXXXXOOOOXXXX....    ++++++++",
"++++    ooooXXXXXXXXXXXXOOOOOOOO....OOOOXXXXXXXX....    ++++++++",
"++++    ooooXXXXXXXXXXXXOOOOOOOO....OOOOXXXXXXXX....    ++++++++",
"++++    ooooXXXXXXXXXXXXOOOOOOOO....OOOOXXXXXXXX....    ++++++++",
"++++    ooooXXXXXXXXXXXXOOOOOOOO....OOOOXXXXXXXX....    ++++++++",
"++++    ooooXXXXXXXXOOOOOOOOXXXXOOOOXXXXXXXXXXXX....    ++++++++",
"++++    ooooXXXXXXXXOOOOOOOOXXXXOOOOXXXXXXXXXXXX....    ++++++++",
"++++    ooooXXXXXXXXOOOOOOOOXXXXOOOOXXXXXXXXXXXX....    ++++++++",
"++++    ooooXXXXXXXXOOOOOOOOXXXXOOOOXXXXXXXXXXXX....    ++++++++",
"++++    ooooXXXXOOOOOOOOXXXXOOOOXXXXXXXXXXXXXXXX....    ++++++++",
"++++    ooooXXXXOOOOOOOOXXXXOOOOXXXXXXXXXXXXXXXX....    ++++++++",
"++++    ooooXXXXOOOOOOOOXXXXOOOOXXXXXXXXXXXXXXXX....    ++++++++",
"++++    ooooXXXXOOOOOOOOXXXXOOOOXXXXXXXXXXXXXXXX....    ++++++++",
"++++++++    OOOOOOOOXXXXOOOOXXXXXXXXXXXXXXXX....    ++++++++++++",
"++++++++    OOOOOOOOXXXXOOOOXXXXXXXXXXXXXXXX....    ++++++++++++",
"++++++++    OOOOOOOOXXXXOOOOXXXXXXXXXXXXXXXX....    ++++++++++++",
"++++++++    OOOOOOOOXXXXOOOOXXXXXXXXXXXXXXXX....    ++++++++++++",
"++++++++++++    ooooOOOOXXXXXXXXXXXXXXXX....    ++++++++++++++++",
"++++++++++++    ooooOOOOXXXXXXXXXXXXXXXX....    ++++++++++++++++",
"++++++++++++    ooooOOOOXXXXXXXXXXXXXXXX....    ++++++++++++++++",
"++++++++++++    ooooOOOOXXXXXXXXXXXXXXXX....    ++++++++++++++++",
"++++++++++++++++        ................    ++++++++++++++++++++",
"++++++++++++++++        ................    ++++++++++++++++++++",
"++++++++++++++++        ................    ++++++++++++++++++++",
"++++++++++++++++        ................    ++++++++++++++++++++",
"++++++++++++++++++++++++                ++++++++++++++++++++++++",
"++++++++++++++++++++++++                ++++++++++++++++++++++++",
"++++++++++++++++++++++++                ++++++++++++++++++++++++",
"++++++++++++++++++++++++                ++++++++++++++++++++++++"
};
