/* XPM */
static char *result[] = {
/* columns rows colors chars-per-pixel */
"64 64 6 1 ",
"  c #180E0E",
". c #CC7F00",
"X c #FF9F00",
"o c yellow",
"O c white",
"+ c None",
/* pixels */
"++++++++++++++++++++++++                ++++++++++++++++++++++++",
"++++++++++++++++++++++++                ++++++++++++++++++++++++",
"++++++++++++++++++++++++                ++++++++++++++++++++++++",
"++++++++++++++++++++++++                ++++++++++++++++++++++++",
"++++++++++++++++        oooooooooooooooo        ++++++++++++++++",
"++++++++++++++++        oooooooooooooooo        ++++++++++++++++",
"++++++++++++++++        oooooooooooooooo        ++++++++++++++++",
"++++++++++++++++        oooooooooooooooo        ++++++++++++++++",
"++++++++++++    ooooooooXXXXXXXXXXXXXXXXOOOOOOOO    ++++++++++++",
"++++++++++++    ooooooooXXXXXXXXXXXXXXXXOOOOOOOO    ++++++++++++",
"++++++++++++    ooooooooXXXXXXXXXXXXXXXXOOOOOOOO    ++++++++++++",
"++++++++++++    ooooooooXXXXXXXXXXXXXXXXOOOOOOOO    ++++++++++++",
"++++++++    ooooXXXXXXXXXXXXXXXXXXXXOOOOOOOOXXXXOOOO    ++++++++",
"++++++++    ooooXXXXXXXXXXXXXXXXXXXXOOOOOOOOXXXXOOOO    ++++++++",
"++++++++    ooooXXXXXXXXXXXXXXXXXXXXOOOOOOOOXXXXOOOO    ++++++++",
"++++++++    ooooXXXXXXXXXXXXXXXXXXXXOOOOOOOOXXXXOOOO    ++++++++",
"++++    ooooXXXXXXXXXXXXXXXXooooOOOOOOOOXXXXOOOOXXXX....    ++++",
"++++    ooooXXXXXXXXXXXXXXXXooooOOOOOOOOXXXXOOOOXXXX....    ++++",
"++++    ooooXXXXXXXXXXXXXXXXooooOOOOOOOOXXXXOOOOXXXX....    ++++",
"++++    ooooXXXXXXXXXXXXXXXXooooOOOOOOOOXXXXOOOOXXXX....    ++++",
"++++    ooooXXXXXXXXXXXXooooOOOOOOOO....OOOOXXXXXXXX....    ++++",
"++++    ooooXXXXXXXXXXXXooooOOOOOOOO....OOOOXXXXXXXX....    ++++",
"++++    ooooXXXXXXXXXXXXooooOOOOOOOO....OOOOXXXXXXXX....    ++++",
"++++    ooooXXXXXXXXXXXXooooOOOOOOOO....OOOOXXXXXXXX....    ++++",
"++++    ooooXXXXXXXXooooOOOOOOOOXXXXOOOOXXXXXXXXXXXX....    ++++",
"++++    ooooXXXXXXXXooooOOOOOOOOXXXXOOOOXXXXXXXXXXXX....    ++++",
"++++    ooooXXXXXXXXooooOOOOOOOOXXXXOOOOXXXXXXXXXXXX....    ++++",
"++++    ooooXXXXXXXXooooOOOOOOOOXXXXOOOOXXXXXXXXXXXX....    ++++",
"++++    ooooXXXXXXXXOOOOOOOOXXXXOOOO....XXXXXXXXXXXX....    ++++",
"++++    ooooXXXXXXXXOOOOOOOOXXXXOOOO....XXXXXXXXXXXX....    ++++",
"++++    ooooXXXXXXXXOOOOOOOOXXXXOOOO....XXXXXXXXXXXX....    ++++",
"++++    ooooXXXXXXXXOOOOOOOOXXXXOOOO....XXXXXXXXXXXX....    ++++",
"++++    ooooXXXXOOOOOOOOooooOOOOXXXX....XXXXXXXXXXXX....    ++++",
"++++    ooooXXXXOOOOOOOOooooOOOOXXXX....XXXXXXXXXXXX....    ++++",
"++++    ooooXXXXOOOOOOOOooooOOOOXXXX....XXXXXXXXXXXX....    ++++",
"++++    ooooXXXXOOOOOOOOooooOOOOXXXX....XXXXXXXXXXXX....    ++++",
"++++    ooooOOOOOOOOXXXXOOOOXXXXXXXX....XXXXXXXXXXXX....    ++++",
"++++    ooooOOOOOOOOXXXXOOOOXXXXXXXX....XXXXXXXXXXXX....    ++++",
"++++    ooooOOOOOOOOXXXXOOOOXXXXXXXX....XXXXXXXXXXXX....    ++++",
"++++    ooooOOOOOOOOXXXXOOOOXXXXXXXX....XXXXXXXXXXXX....    ++++",
"++++    OOOOOOOOXXXXOOOOooooXXXXXXXX....XXXXXXXXXXXX....    ++++",
"++++    OOOOOOOOXXXXOOOOooooXXXXXXXX....XXXXXXXXXXXX....    ++++",
"++++    OOOOOOOOXXXXOOOOooooXXXXXXXX....XXXXXXXXXXXX....    ++++",
"++++    OOOOOOOOXXXXOOOOooooXXXXXXXX....XXXXXXXXXXXX....    ++++",
"++++    OOOOXXXXOOOOXXXXXXXX........XXXXXXXXXXXXXXXX....    ++++",
"++++    OOOOXXXXOOOOXXXXXXXX........XXXXXXXXXXXXXXXX....    ++++",
"++++    OOOOXXXXOOOOXXXXXXXX........XXXXXXXXXXXXXXXX....    ++++",
"++++    OOOOXXXXOOOOXXXXXXXX........XXXXXXXXXXXXXXXX....    ++++",
"++++++++    OOOOXXXXXXXXXXXXXXXXXXXXXXXXXXXXXXXX....    ++++++++",
"++++++++    OOOOXXXXXXXXXXXXXXXXXXXXXXXXXXXXXXXX....    ++++++++",
"++++++++    OOOOXXXXXXXXXXXXXXXXXXXXXXXXXXXXXXXX....    ++++++++",
"++++++++    OOOOXXXXXXXXXXXXXXXXXXXXXXXXXXXXXXXX....    ++++++++",
"++++++++++++    ooooooooXXXXXXXXXXXXXXXX........    ++++++++++++",
"++++++++++++    ooooooooXXXXXXXXXXXXXXXX........    ++++++++++++",
"++++++++++++    ooooooooXXXXXXXXXXXXXXXX........    ++++++++++++",
"++++++++++++    ooooooooXXXXXXXXXXXXXXXX........    ++++++++++++",
"++++++++++++++++        ................        ++++++++++++++++",
"++++++++++++++++        ................        ++++++++++++++++",
"++++++++++++++++        ................        ++++++++++++++++",
"++++++++++++++++        ................        ++++++++++++++++",
"++++++++++++++++++++++++                ++++++++++++++++++++++++",
"++++++++++++++++++++++++                ++++++++++++++++++++++++",
"++++++++++++++++++++++++                ++++++++++++++++++++++++",
"++++++++++++++++++++++++                ++++++++++++++++++++++++"
};
