/* XPM */
static char *ezgif_com_crop__19_1703261136[] = {
/* columns rows colors chars-per-pixel */
"64 64 19 1 ",
"  c None",
". c #331A19",
"X c #3C1E2B",
"o c #4D2D2C",
"O c #452432",
"+ c #4F2A3A",
"@ c #5C3747",
"# c #442B61",
"$ c #7C5969",
"% c red",
"& c #CE2038",
"* c #8A0B41",
"= c #8A767E",
"- c #331685",
"; c #432792",
": c #5F4181",
"> c #9E7688",
", c #97828A",
"< c #BEACB3",
/* pixels */
"                                                                ",
"                                                                ",
"                                                                ",
"                                                                ",
"                                                                ",
"                                                                ",
"                                      OOOOO+                    ",
"                                    OOOOOOOO+                   ",
"                                  OOOOOOOOO++                   ",
"                                OOOOOOOOO++++                   ",
"                              OOOOOOOOOO++++                    ",
"                            OOOOOOOOOOO+++                      ",
"                          OOOOOOOOOOO++++                       ",
"                         OOOOOOOOOOO+++                         ",
"                        OOOOOOOOOO++++                          ",
"                       OOOOOOOOOOX++=                           ",
"                      OOOOOOOOOXXXX %                           ",
"                      OOOOOOOXXXXX%==                           ",
"                      OOOOXXXXX  X<=X                           ",
"                      XXXXXXX    XXX                            ",
"                       XXXX   &****X**                          ",
"                            &&&&*****&&&                        ",
"                          &&&***********&&                      ",
"                         &***,,,,,,,,.<@@*&                     ",
"                         @@@X,,,<<<<<.<X@@X                     ",
"                        @@@XX,,<<<<<<.<XX@@@                    ",
"                       @@@XXX,,<<<<<,.,XXX@@@                   ",
"                       @@@@XX,,,<<<<,.,>>>$@X                   ",
"                      &XX@@@X,,,<<<<,.,>>$$XX                   ",
"                      &XXX@@@@,,<<<<.< $$$XXX                   ",
"                     &*XXXXXX@,,,;;<.,   XXX                    ",
"                    &&*XXXXXXX,,;;-.<                           ",
"                    &***XXXXX$>;;--.<                           ",
"                    &*****XX$$>>-...,                           ",
"                   &&****** $$$>>...                            ",
"                   &&***** :##$$$...                            ",
"                   &&****:::##,,,<<<                            ",
"                   &&**::::#<,,,,,,,<<                          ",
"                   &**:::##<,,.......,<                         ",
"                   &:::## <,,..ooooooo...                       ",
"                  :::##*  <,..oooooooooooo                      ",
"                :::## &* <,..oo...ooooooo.                      ",
"              :::##   &  ,,..ooo...oooooo.                      ",
"             ::##       <,...oooo...oooo..                      ",
"           :::#         ,,..ooooo....oo..                       ",
"         :::##         <,..oo..oo....oo..                       ",
"       :::##           ,,..oo.o.....oo...                       ",
"       ###            ,,,.oo...oo...o...                        ",
"                      ,,,.ooo......oo...                        ",
"                     ,,,.ooo.oo....o...                         ",
"                     ,,,.oo............                         ",
"                     ,.......o........                          ",
"                      ........o.......                          ",
"                      ...............                           ",
"                      ...............                           ",
"                      ...............                           ",
"                     ...............                            ",
"                     ..............                             ",
"                       ......                                   ",
"                                                                ",
"                                                                ",
"                                                                ",
"                                                                ",
"                                                                "
};
