/* XPM */
static char *ezgif_com_crop__17_1703257642[] = {
/* columns rows colors chars-per-pixel */
"64 64 21 1 ",
"  c None",
". c #331A19",
"X c #341A25",
"o c #3C1E2B",
"O c #4D2D2C",
"+ c #452432",
"@ c #4F2A3A",
"# c #5C3747",
"$ c #442B61",
"% c #7C5969",
"& c red",
"* c #CE2038",
"= c #8A0B41",
"- c #8A767E",
"; c #331685",
": c #432792",
"> c #5F4181",
", c #9E7688",
"< c #97828A",
"1 c #97828B",
"2 c #BEACB3",
/* pixels */
"                                                                ",
"                                                                ",
"                                                                ",
"                                                                ",
"                                                                ",
"                                                                ",
"                                                                ",
"                                @++                             ",
"                               @@++++                           ",
"                               @@@++++                          ",
"                               @@@@+++++                        ",
"                                @@@@++++++                      ",
"                                 @@@@++++++                     ",
"                                  @@@@++++++                    ",
"                                   @@@@+++++++                  ",
"                                    @@@@+++++++                 ",
"                                     @ooo+++++++                ",
"                                      o-ooo++++++               ",
"                      ****    *****   o&-ooo++++++              ",
"                  ************==*=**==o2<-oooo+++++             ",
"               *******======oooo===*==oo21  ooooooo             ",
"              ********=====####ooo==*==o==    oooo              ",
"                 ***=======####oooo<<=====*                     ",
"                 =========####oooo<<<<==****                    ",
"                          ####o<<<<2222<XX=*                    ",
"                         ####oo<<222222<.XX=*                   ",
"                         ####oo<22222<<..##XX                   ",
"                         o##ooo2222<<<######X                   ",
"                         oooooo222<..X###XXXX                   ",
"                          oooo%%2<.22XXXXXXXX                   ",
"                            <%,,,:;,,XXXXXXX                    ",
"                      >>>>>>>$%%,,;%%%%XXXX                     ",
"            >>>>>>>>>>>>$$$$$$$$%%<%%%                          ",
"     >>>>>>>>$$$$$$$$$$$   <<<<<.<<<                            ",
"     $$$$$$$$$             22<<<..OO                            ",
"                           222<<..OO                            ",
"                           222<<2..OO                           ",
"                           2222<<..OO                           ",
"                           2222<<2.OOO                          ",
"                           2222<<<.OOOO                         ",
"                           2222<<<.OOOOO                        ",
"                           2222<<<<OOOOO                        ",
"                          <2222<<<<O.OOOO                       ",
"                         <<222<<<<<<.OOOO                       ",
"                        <<222<<<<<<<..OOO                       ",
"                       <<222<<<<<<<<..OOOO                      ",
"                      <<22<<<<<<<<<....O..                      ",
"                      <22<<<<<<<<<.......                       ",
"                       <<<<<<<<<<.......                        ",
"                         <<<<<<<........                        ",
"                         <<<<...........                        ",
"                          .............                         ",
"                           ...........                          ",
"                           ........                             ",
"                            .......                             ",
"                                                                ",
"                                                                ",
"                                                                ",
"                                                                ",
"                                                                ",
"                                                                ",
"                                                                ",
"                                                                ",
"                                                                "
};
