/* XPM */
static char *tile0111703330338[] = {
/* columns rows colors chars-per-pixel */
"64 60 5 1 ",
"  c None",
". c #181425",
"X c #69202E",
"o c #262B44",
"O c #9E2835",
/* pixels */
"                                                                ",
"                                                                ",
"                                                                ",
"                                                                ",
"                    OO                              OO          ",
"                    OO                              OO          ",
"                  OOOO                            OOOO          ",
"                  OOOO                            OOOO          ",
"                OOOO                            OOOO            ",
"                OOOO                            OOOO            ",
"                OO                              OO              ",
"                OO                              OO              ",
"                  OO                              OO            ",
"                  OO                              OO            ",
"                                                                ",
"                                                                ",
"            ........                        ........            ",
"            ........                        ........            ",
"        ................                ................        ",
"        ................                ................        ",
"      ......oooooooo......            ......oooooooo......      ",
"      ......oooooooo......            ......oooooooo......      ",
"      ..ooooooooooooooooXX            ..oooooooooooooooo..      ",
"      ..ooooooooooooooooXX            ..oooooooooooooooo..      ",
"        ooooooooooooooooOOOO            oooooooooooooooo        ",
"        ooooooooooooooooOOOO            oooooooooooooooo        ",
"            oooooooo      OOOO              oooooooo            ",
"            oooooooo      OOOO              oooooooo            ",
"                            OO                                  ",
"                            OO                                  ",
"                                                                ",
"                                                                ",
"                                                                ",
"                                                                ",
"                            ........                            ",
"                            ........                            ",
"                    OO  ................            OO          ",
"                    OO  ................            OO          ",
"                  OOOO......oooooooo......        OOOO          ",
"                  OOOO......oooooooo......        OOOO          ",
"                OOOO  ..oooooooooooooooo..      OOOO            ",
"                OOOO  ..oooooooooooooooo..      OOOO            ",
"                OO      oooooooooooooooo        OO              ",
"                OO      oooooooooooooooo        OO              ",
"                            oooooooo                            ",
"                            oooooooo                            ",
"                                                                ",
"                                                                ",
"            ........                        ........            ",
"            ........                        ........            ",
"        ................                ................        ",
"        ................                ................        ",
"      ......oooooooo......            ......oooooooo......      ",
"      ......oooooooo......            ......oooooooo......      ",
"      ..oooooooooooooooo..            ..oooooooooooooooo..      ",
"      ..oooooooooooooooo..            ..oooooooooooooooo..      ",
"        oooooooooooooooo                oooooooooooooooo        ",
"        oooooooooooooooo                oooooooooooooooo        ",
"            oooooooo                        oooooooo            ",
"            oooooooo                        oooooooo            "
};
