/* XPM */
static char *tile0081703330337[] = {
/* columns rows colors chars-per-pixel */
"64 60 6 1 ",
"  c None",
". c #181425",
"X c #262B44",
"o c #9E2835",
"O c #F77622",
"+ c #FEE761",
/* pixels */
"              oooooo                          oooooo            ",
"              oooooo                          oooooo            ",
"              oooooooo                        oooooooo          ",
"              oooooooo                        oooooooo          ",
"                oooooo                          oooooo          ",
"                oooooo                          oooooo          ",
"                oooooo                          oooooo          ",
"                oooooo                          oooooo          ",
"          oo      oooo                    oo      oooo          ",
"          oo      oooo                    oo      oooo          ",
"          oo      ooOO                    oo      ooOO          ",
"          oo      ooOO                    oo      ooOO          ",
"          oooo    ooOO                    oooo    ooOO          ",
"          oooo    ooOO                    oooo    ooOO          ",
"          oooooooooooo          oo        oooooooooooo          ",
"          oooooooooooo          oo        oooooooooooo          ",
"          ooooooooOOoo        oooo        ooooooooOOoo          ",
"          ooooooooOOoo        oooo        ooooooooOOoo          ",
"        ..ooOOooOOOOoo..    oooooo      ..ooOOooOOOOoo..        ",
"        ..ooOOooOOOOoo..    oooooo      ..ooOOooOOOOoo..        ",
"      ....ooooOOOO++......oooooooo    ....ooooOOOO++......      ",
"      ....ooooOOOO++......oooooooo    ....ooooOOOO++......      ",
"      ..XXXXOOOO++OOXXXX..oooooo      ..XXXXOOOO++OOXXXX..      ",
"      ..XXXXOOOO++OOXXXX..oooooo      ..XXXXOOOO++OOXXXX..      ",
"        XXXXXX++++XXXXXX  oooooo        XXXXXX++++XXXXXX        ",
"        XXXXXX++++XXXXXX  oooooo        XXXXXX++++XXXXXX        ",
"            XXXXXXXX      oooo      oo      XXXXXXXX            ",
"            XXXXXXXX      oooo      oo      XXXXXXXX            ",
"              oo          OOoo      oo        oo                ",
"              oo          OOoo      oo        oo                ",
"              oooo        OOoo    oooo        oooo              ",
"              oooo        OOoo    oooo        oooo              ",
"              oooooo      oooooooooooo        oooooo            ",
"              oooooo      oooooooooooo        oooooo            ",
"              oooooooo    ooOOoooooooo        oooooooo          ",
"              oooooooo    ooOOoooooooo        oooooooo          ",
"                oooooo  ..ooOOOOooOOoo..        oooooo          ",
"                oooooo  ..ooOOOOooOOoo..        oooooo          ",
"                oooooo......++OOOOoooo....      oooooo          ",
"                oooooo......++OOOOoooo....      oooooo          ",
"          oo      oooo..XXXXOO++OOOOXXXX..oo      oooo          ",
"          oo      oooo..XXXXOO++OOOOXXXX..oo      oooo          ",
"          oo      ooOO  XXXXXX++++XXXXXX  oo      ooOO          ",
"          oo      ooOO  XXXXXX++++XXXXXX  oo      ooOO          ",
"          oooo    ooOO      XXXXXXXX      oooo    ooOO          ",
"          oooo    ooOO      XXXXXXXX      oooo    ooOO          ",
"          oooooooooooo                    oooooooooooo          ",
"          oooooooooooo                    oooooooooooo          ",
"          ooooooooOOoo                    ooooooooOOoo          ",
"          ooooooooOOoo                    ooooooooOOoo          ",
"        ..ooOOooOOOOoo..                ..ooOOooOOOOoo..        ",
"        ..ooOOooOOOOoo..                ..ooOOooOOOOoo..        ",
"      ....ooooOOOO++......            ....ooooOOOO++......      ",
"      ....ooooOOOO++......            ....ooooOOOO++......      ",
"      ..XXXXOOOO++OOXXXX..            ..XXXXOOOO++OOXXXX..      ",
"      ..XXXXOOOO++OOXXXX..            ..XXXXOOOO++OOXXXX..      ",
"        XXXXXX++++XXXXXX                XXXXXX++++XXXXXX        ",
"        XXXXXX++++XXXXXX                XXXXXX++++XXXXXX        ",
"            XXXXXXXX                        XXXXXXXX            ",
"            XXXXXXXX                        XXXXXXXX            "
};
