/* XPM */
static char *tile0091703330337[] = {
/* columns rows colors chars-per-pixel */
"64 60 6 1 ",
"  c None",
". c #181425",
"X c #262B44",
"o c #9E2835",
"O c #F77622",
"+ c #FEE761",
/* pixels */
"          oooo                            oooo                  ",
"          oooo                            oooo                  ",
"          oooo      oo                    oooo      oo          ",
"          oooo      oo                    oooo      oo          ",
"          oooo                  oo        oooo                  ",
"          oooo                  oo        oooo                  ",
"        oooooo      oo      oooo        oooooo      oo          ",
"        oooooo      oo      oooo        oooooo      oo          ",
"        oooooooo    oo    oooooo        oooooooo    oo          ",
"        oooooooo    oo    oooooo        oooooooo    oo          ",
"        oooooooo          oooo          oooooooo                ",
"        oooooooo          oooo          oooooooo                ",
"          oooooo        oooooo            oooooo                ",
"          oooooo        oooooo            oooooo                ",
"          oooooooooo    oooo              oooooooooo            ",
"          oooooooooo    oooo              oooooooooo            ",
"          ooOOoooooooo  oo        oo      ooOOoooooooo          ",
"          ooOOoooooooo  oo        oo      ooOOoooooooo          ",
"        ..ooooOOooOOoo..        oooo    ..ooooOOooOOoo..        ",
"        ..ooooOOooOOoo..        oooo    ..ooooOOooOOoo..        ",
"      ....ooOOooooOO....oo      oooo  ....ooOOooooOO......      ",
"      ....ooOOooooOO....oo      oooo  ....ooOOooooOO......      ",
"      ..XXXXOOooooooXXXX..      oooo  ..XXXXOOooooooXXXX..      ",
"      ..XXXXOOooooooXXXX..      oooo  ..XXXXOOooooooXXXX..      ",
"        XXXXOO++ooooXXXXoo      oooooo  XXXXOO++ooooXXXX        ",
"        XXXXOO++ooooXXXXoo      oooooo  XXXXOO++ooooXXXX        ",
"            XXXXoooooo  oo    oooooooo      XXXXoooooo          ",
"            XXXXoooooo  oo    oooooooo      XXXXoooooo          ",
"                  oooo        oooooooo            oooo          ",
"                  oooo        oooooooo            oooo          ",
"          oo        oo        oooooo      oo        oo          ",
"          oo        oo        oooooo      oo        oo          ",
"          oooo            oooooooooo      oooo                  ",
"          oooo            oooooooooo      oooo                  ",
"          oooo      oo  ooooooooOOoo      oooo      oo          ",
"          oooo      oo  ooooooooOOoo      oooo      oo          ",
"          oooo          ooOOooOOOOoo....  oooo                  ",
"          oooo          ooOOooOOOOoo....  oooo                  ",
"        oooooo      oo....OOOO++OOoo....oooooo      oo          ",
"        oooooo      oo....OOOO++OOoo....oooooo      oo          ",
"        oooooooo    oo..XXOO++++OOXXXXXXoooooooo    oo          ",
"        oooooooo    oo..XXOO++++OOXXXXXXoooooooo    oo          ",
"        oooooooo        XXXX++++OOXXXXXXoooooooo                ",
"        oooooooo        XXXX++++OOXXXXXXoooooooo                ",
"          oooooo            XXXXXXXX      oooooo                ",
"          oooooo            XXXXXXXX      oooooo                ",
"          oooooooooo                      oooooooooo            ",
"          oooooooooo                      oooooooooo            ",
"          ooOOoooooooo                    ooOOoooooooo          ",
"          ooOOoooooooo                    ooOOoooooooo          ",
"        ..ooOOOOooOOoo..                ..ooOOOOooOOoo..        ",
"        ..ooOOOOooOOoo..                ..ooOOOOooOOoo..        ",
"      ....ooOO++OOOO......            ....ooOO++OOOO......      ",
"      ....ooOO++OOOO......            ....ooOO++OOOO......      ",
"      ..XXXXOO++++OOXXXX..            ..XXXXOO++++OOXXXX..      ",
"      ..XXXXOO++++OOXXXX..            ..XXXXOO++++OOXXXX..      ",
"        XXXXOO++++XXXXXX                XXXXOO++++XXXXXX        ",
"        XXXXOO++++XXXXXX                XXXXOO++++XXXXXX        ",
"            XXXXXXXX                        XXXXXXXX            ",
"            XXXXXXXX                        XXXXXXXX            "
};
