/* XPM */
static char *result[] = {
/* columns rows colors chars-per-pixel */
"64 64 5 1 ",
"  c #2F2E2F",
". c #564064",
"X c #3E2F5A",
"o c #39314B",
"O c white",
/* pixels */
"                                                                ",
"                                                                ",
"........................      ............................      ",
"........................      ............................      ",
"..........XX..............  ............XX......XX..........  ..",
"..........XX..............  ............XX......XX..........  ..",
"XXXX..XXXXXXXX..XXXXXX....  ....XXXX..XXXXXX..XXXXXXXXXXXX..  ..",
"XXXX..XXXXXXXX..XXXXXX....  ....XXXX..XXXXXX..XXXXXXXXXXXX..  ..",
"XXXXXXXXXXooXXXXXXXXoooo..  ..ooooXXXXXXXXXXXXXXXXXXXXooXXXX  XX",
"XXXXXXXXXXooXXXXXXXXoooo..  ..ooooXXXXXXXXXXXXXXXXXXXXooXXXX  XX",
"oooooooooooooooooooooooooo  ooooooooooooXXXXoooooooooooooooo  oo",
"oooooooooooooooooooooooooo  ooooooooooooXXXXoooooooooooooooo  oo",
"oooooooooooooooooooooooo      oooooooooooooooooooooooooooo      ",
"oooooooooooooooooooooooo      oooooooooooooooooooooooooooo      ",
"                                                                ",
"                                                                ",
"......      ..............................      ................",
"......      ..............................      ................",
"........  ....................XXXX..........  ............XXXX..",
"........  ....................XXXX..........  ............XXXX..",
"..XX....  ....XXXX..XXXXXX..XXXXXXXX..XX....  ....XX..XXXXXXXXXX",
"..XX....  ....XXXX..XXXXXX..XXXXXXXX..XX....  ....XX..XXXXXXXXXX",
"XXXXoo..  ..ooXXXXXXXXooXXXXXXooooooXXXXoo..  ..ooXXXXXXXXooooXX",
"XXXXoo..  ..ooXXXXXXXXooXXXXXXooooooXXXXoo..  ..ooXXXXXXXXooooXX",
"XXoooooo  ooooooXXXXooooooXXXXXXXXXXXXoooooo  ooooooXXXXooooXXXX",
"XXoooooo  ooooooXXXXooooooXXXXXXXXXXXXoooooo  ooooooXXXXooooXXXX",
"oooooooo  ooooooooooooooooooooooXXXXoooooooo  oooooooooooooooooo",
"oooooooo  ooooooooooooooooooooooXXXXoooooooo  oooooooooooooooooo",
"oooooo      oooooooooooooooooooooooooooooo      oooooooooooooooo",
"oooooo      oooooooooooooooooooooooooooooo      oooooooooooooooo",
"                                                                ",
"                                                                ",
"....................      ........................      ........",
"....................      ........................      ........",
"..............XX......  ............XX..............  ......XX..",
"..............XX......  ............XX..............  ......XX..",
"XX..XXXXXX..XXXXXX....  ....XXXX..XXXXXXXX..XXXX....  ....XXXXXX",
"XX..XXXXXX..XXXXXX....  ....XXXX..XXXXXXXX..XXXX....  ....XXXXXX",
"XXXXXXXXXXooXXXXXXXX..  ..XXXXXXXXXXooXXXXooXXXXXX..  ..XXXXooXX",
"XXXXXXXXXXooXXXXXXXX..  ..XXXXXXXXXXooXXXXooXXXXXX..  ..XXXXooXX",
"XXXXooooXXXXooXXXXXXoo  ooXXXXXXXXooooXXXXXXooXXXXoo  ooXXXXXXoo",
"XXXXooooXXXXooXXXXXXoo  ooXXXXXXXXooooXXXXXXooXXXXoo  ooXXXXXXoo",
"XXooooXXXXXXooooXXoooo  ooooXXooooooXXXXooXXXXXXoooo  ooooXXXXXX",
"XXooooXXXXXXooooXXoooo  ooooXXooooooXXXXooXXXXXXoooo  ooooXXXXXX",
"ooooooooXXoooooooooooo  ooooooooooooooooooooXXoooooo  ooooooXXoo",
"ooooooooXXoooooooooooo  ooooooooooooooooooooXXoooooo  ooooooXXoo",
"oooooooooooooooooooo      oooooooooooooooooooooooo      oooooooo",
"oooooooooooooooooooo      oooooooooooooooooooooooo      oooooooo",
"                                                                ",
"                                                                ",
"..........      ........................      ..................",
"..........      ........................      ..................",
"............  ............XX......XX......  ................XX..",
"............  ............XX......XX......  ................XX..",
"XX..XXXX....  ....XXXX..XXXXXX..XXXXXX....  ....XXXX..XXXXXXXXXX",
"XX..XXXX....  ....XXXX..XXXXXX..XXXXXX....  ....XXXX..XXXXXXXXXX",
"ooXXXXXXoo..  ..ooXXXXXXXXXXXXooXXXXXXoo..  ..ooXXXXXXXXXXXXooXX",
"ooXXXXXXoo..  ..ooXXXXXXXXXXXXooXXXXXXoo..  ..ooXXXXXXXXXXXXooXX",
"XXXXXXoooooo  ooooooXXooooXXXXXXXXXXoooooo  ooooooXXXXXXXXooooXX",
"XXXXXXoooooo  ooooooXXooooXXXXXXXXXXoooooo  ooooooXXXXXXXXooooXX",
"ooXXoooooooo  ooooooooooooooooooXXoooooooo  ooooooooXXoooooooooo",
"ooXXoooooooo  ooooooooooooooooooXXoooooooo  ooooooooXXoooooooooo",
"oooooooooo      oooooooooooooooooooooooo      oooooooooooooooooo",
"oooooooooo      oooooooooooooooooooooooo      oooooooooooooooooo"
};
