/* XPM */
static char *tile0011703321277[] = {
/* columns rows colors chars-per-pixel */
"64 64 6 1 ",
"  c None",
". c #181425",
"X c #262B44",
"o c #3A4466",
"O c #5A6988",
"+ c white",
/* pixels */
"                                                                ",
"                                                                ",
"                                                                ",
"                                                                ",
"                                                                ",
"                                                                ",
"                                                                ",
"                                                                ",
"                                                                ",
"                                                                ",
"                          OO....OOOOOO                          ",
"                          OO....OOOOOO                          ",
"                        OOOOOOOO....oooo                        ",
"                        OOOOOOOO....oooo                        ",
"                        OOOO....XXXXoooo                        ",
"                        OOOO....XXXXoooo                        ",
"                ++++    OOooXXXX....oooo  ++++                  ",
"                ++++    OOooXXXX....oooo  ++++                  ",
"              ++++++    oooo....XXXXooXX    ++++                ",
"              ++++++    oooo....XXXXooXX    ++++                ",
"            ++++++      OOooXXXX....ooXX    ++++                ",
"            ++++++      OOooXXXX....ooXX    ++++                ",
"            ++++        oooo....XXXXooXX      ++++              ",
"            ++++        oooo....XXXXooXX      ++++              ",
"            ++          ooooXXXX....XXXX      ++++              ",
"            ++          ooooXXXX....XXXX      ++++              ",
"            ++            oooo..XXooXX          ++              ",
"            ++            oooo..XXooXX          ++              ",
"            ++            ooooXX..ooXX                          ",
"            ++            ooooXX..ooXX                          ",
"                          OOoo..XXXXXX                          ",
"                          OOoo..XXXXXX                          ",
"                          OOooXX..XXXX                          ",
"                          OOooXX..XXXX                          ",
"                          OOoo..XXXX..                          ",
"                          OOoo..XXXX..                          ",
"                            XXXX..XX                            ",
"                            XXXX..XX                            ",
"                            XXXX....                            ",
"                            XXXX....                            ",
"                          ooOOOOooXX..                          ",
"                          ooOOOOooXX..                          ",
"                          XXooXXXXXX..                          ",
"                          XXooXXXXXX..                          ",
"                            XXXX....                            ",
"                            XXXX....                            ",
"                                                                ",
"                                                                ",
"                                                                ",
"                                                                ",
"                                                                ",
"                                                                ",
"                                                                ",
"                                                                ",
"                                                                ",
"                                                                ",
"                                                                ",
"                                                                ",
"                                                                ",
"                                                                ",
"                                                                ",
"                                                                ",
"                                                                ",
"                                                                "
};
