/* XPM */
static char *door271703585271[] = {
/* columns rows colors chars-per-pixel */
"64 64 210 2 ",
"   c None",
".  c #010000",
"X  c #0C0101",
"o  c #0C0807",
"O  c #0B0C09",
"+  c #130101",
"@  c #1C0202",
"#  c #150907",
"$  c #140C0A",
"%  c #1E0D0A",
"&  c #1E0806",
"*  c #0F100D",
"=  c #13130F",
"-  c #141410",
";  c #1E1511",
":  c #1A1B16",
">  c #240202",
",  c #2B0303",
"<  c #230D0B",
"1  c #280907",
"2  c #330303",
"3  c #3B0303",
"4  c #3D0D0B",
"5  c #360907",
"6  c #27120F",
"7  c #231411",
"8  c #2D1511",
"9  c #271C17",
"0  c #381813",
"q  c #3B130F",
"w  c #2C211B",
"e  c #39251E",
"r  c #282B22",
"t  c #3D2B23",
"y  c #430404",
"u  c #4B0303",
"i  c #460C0A",
"p  c #550505",
"a  c #5A0505",
"s  c #5B0D0C",
"d  c #4D100D",
"f  c #42100D",
"g  c #461814",
"h  c #581714",
"j  c #58100D",
"k  c #630404",
"l  c #6C0605",
"z  c #6C0908",
"x  c #600A08",
"c  c #7D0606",
"v  c #750908",
"b  c #7E110F",
"n  c #771713",
"m  c #6C1A15",
"M  c #59241E",
"N  c #4C241E",
"B  c #6C231C",
"V  c #7E231D",
"C  c #582A22",
"Z  c #563F33",
"A  c #4E2D25",
"S  c #752A22",
"D  c #7F2620",
"F  c #713229",
"G  c #7A4E40",
"H  c #880707",
"J  c #930F0E",
"K  c #970707",
"L  c #89100E",
"P  c #97110F",
"I  c #8D1B17",
"U  c #901613",
"Y  c #A50909",
"T  c #AA0A0A",
"R  c #A20000",
"E  c #B60C0B",
"W  c #BC0C0B",
"Q  c #BA0000",
"!  c #A0110F",
"~  c #BC120E",
"^  c #B91916",
"/  c #B4221D",
"(  c #8C2721",
")  c #832922",
"_  c #943128",
"`  c #A72B23",
"'  c #BD2A23",
"]  c #B62A24",
"[  c #B33029",
"{  c #CA0D0D",
"}  c #C60808",
"|  c #D10808",
" . c #D2110F",
".. c #C51815",
"X. c #D41210",
"o. c #D41815",
"O. c #E60E0E",
"+. c #EE0E0E",
"@. c #EA1313",
"#. c #EA1816",
"$. c #F11513",
"%. c #FF1514",
"&. c #FF1916",
"*. c #FE1C1A",
"=. c #F31C1C",
"-. c #CC221C",
";. c #FE211D",
":. c #DA2C26",
">. c #D82A24",
",. c #C53129",
"<. c #CA392F",
"1. c #D93129",
"2. c #C62E26",
"3. c #E52C26",
"4. c #EA2B24",
"5. c #FE2423",
"6. c #FE2925",
"7. c #FF2C2A",
"8. c #F52724",
"9. c #EC332B",
"0. c #FE332D",
"q. c #FF382F",
"w. c #F5332C",
"e. c #E63930",
"r. c #FF3433",
"t. c #FF3B34",
"y. c #FF3C3A",
"u. c #F13D31",
"i. c #9F4A3D",
"p. c #FD4137",
"a. c #FF433C",
"s. c #FF4A3E",
"d. c #F24037",
"f. c #B84F41",
"g. c #D94E40",
"h. c #FF4544",
"j. c #FF4B43",
"k. c #FF4C4B",
"l. c #FF5246",
"z. c #FF544C",
"x. c #FF5A4C",
"c. c #FF5453",
"v. c #FF5C54",
"b. c #FF5D5B",
"n. c #FF6256",
"m. c #FF645A",
"M. c #FF6A5C",
"N. c #FF6664",
"B. c #FF6B63",
"V. c #FF6D6B",
"C. c #FF7263",
"Z. c #FF746C",
"A. c #FF7B6C",
"S. c #FF7866",
"D. c #FF7471",
"F. c #FF7B73",
"G. c #FF836F",
"H. c #FF8273",
"J. c #FF837B",
"K. c #FF8B7C",
"L. c #FF8A76",
"P. c #FF917C",
"I. c #FF8C83",
"U. c #FF9283",
"Y. c #FF9B85",
"T. c #FF958B",
"R. c #FF9C8C",
"E. c #FF9E92",
"W. c #FFA38B",
"Q. c #FFA58B",
"!. c #FFA494",
"~. c #FFAC94",
"^. c #FFAB9A",
"/. c #FFA59A",
"(. c #FFB39C",
"). c #FFB99B",
"_. c #FFB6A2",
"`. c #FFBAA4",
"'. c #FFBCAB",
"]. c #FFC29F",
"[. c #FFC2A5",
"{. c #FFC4AD",
"}. c #FFCCAC",
"|. c #FFCBA7",
" X c #FFD3AC",
".X c #FFCBB2",
"XX c #FFC7B3",
"oX c #FFD3B4",
"OX c #FFD5BB",
"+X c #FFDBBC",
"@X c #FFDBB6",
"#X c #FFE7BD",
"$X c #FFE5B9",
"%X c #FFDBC2",
"&X c #FFE4C4",
"*X c #FFEBC3",
"=X c #FFEDCD",
"-X c #FFE7C8",
";X c #FFF2C6",
":X c #FFF3CC",
">X c #FFFCCC",
",X c #FFEDD0",
"<X c #FFF6D4",
"1X c #FFF6DA",
"2X c #FFFBDD",
"3X c #FFFCD2",
"4X c #FFFDE3",
"5X c #FFFEEC",
"6X c #FFFFF4",
"7X c #FFFFFE",
/* pixels */
"                                                                                                                                ",
"                                                                                                                                ",
"                                                                                                                                ",
"                                                                                                                                ",
"                                                                                                                                ",
"                                                                                                                                ",
"                                                                                                                                ",
"                                                                                                                                ",
"                                                                                                                                ",
"                                                                                                                                ",
"                                                                                                                                ",
"                                                                                                                                ",
"                                                            .                       .                                           ",
"                                                    .     v X . a E X . X X X       .                                           ",
"                                                  k X . . > . . 2 l + . + > X + @ . . .                                         ",
"                                                    . . . . . . . . + X > 3 + + + X . .                                         ",
"                                      +       X + . X X X + , , > , 3 2 2 3 > X X + X X .                                       ",
"                            -       X 3 , X + X > @ @ p y p l c k l l k k k y > @ @ + X X                                       ",
"                            = *   X # | Q , + + p p p T H Y ~ W K W  .T W Y c k u u > @ + ;                                     ",
"                              X + + + K | u > u Y @.X.=.=.5.r.8.=.5.;.;.&.%.=. .Y y @ @ @ @ X                                   ",
"                              X # 7 < 5 , 3 H E O.5.5.7.y.y.h.k.k.h.y.r.6.7.6.5.5.^ p 4 f > @ + p                               ",
"                                . $ 7 0 4 l @.%.5.7.r.y.h.c.c.c.c.b.b.h.y.0.y.h.h.t.>.V j y > + @ & ,                           ",
"                              . . O 8 g m ..*.0.7.y.k.k.b.b.b.B.N.c.b.c.b.c.z.z.z.k.p.>...a , 1 o - .                           ",
"                            . . O 8 0 m -.8.6.r.h.c.c.b.N.N.V.Z.V.N.N.N.N.F.m.z.v.v.v.7.{ k 3 i , y # X                         ",
"                            . . # q h ^ 8.t.y.h.v.N.V.V.V.D.F.F.J.F.V.V.D.J.F.V.C.F.m.a.5.^ f > y k + X                         ",
"                    o + X . . . 1 4 n -.6.y.k.b.N.F.F.I.J.H.F.F.T.I.I.T.I.T.E.I.H.B.n.v.j.7.^ p , > + X X   + X                 ",
"                        . . . X , i L 1.r.a.v.N.D.F.I.I.I.I.H.H.K.K.!.(.R.!././.K.A.B.B.m.6.%.J 3 > < @ X + + X                 ",
"                      . X + X @ 2 3 Y 5.t.h.b.Z.D.F.F.I.U.Y.R.P.I.!.`.(._._._.{.!.K.G.A.C.a.w.' U 4 & > + X X X                 ",
"                      . . . X , 3 s o.&.7.k.N.D.F.I.T.I.T.E.~.W.(.|.OX%X%XOX%X%XXXR.F.Z.A.m.x.d.' d X > + + + #                 ",
"                    * o . . + > 3 H =.6.y.N.I.T.E./._.^.^.`.].|.=X1X4X4X2X2X2X<X%XR.Y.K.H.M.x.r.:.M 6 j + + 7 w                 ",
"                    . . # < 8 8 j ! #.7.k.F.J.E.'.'.XX.XoX*X#X5X7X7X6X6X6X5X4X4X&X(.T.K.S.z.p.q.' N e g 1 + +                   ",
"              O : : o O 9 C C A F ' >.7.b.K.E.^.XX%X-X,X2X4X6X7X7X7X7X7X7X6X5X<X+X(.P.S.n.h.t.r.3.) % , 3 X X                   ",
"                  o . . $ 9 t A ) ,.e.s.B.R._.`.XX+X=X1X6X7X7X7X7X7X7X7X7X7X7X2XoXW.L.B.z.t.5.*.X.n > 2 @ , @                   ",
"                  . . . X $ t F _ <.a.x.A.!.^._.{.+X2X4X6X7X7X7X7X7X7X7X7X7X7X4X@X~.L.B.M.a.*.%.X.s @ X + , @ X                 ",
"                  . . . # 6 Z G f.g.a.x.H.R.^.'.*X:X2X5X7X7X7X7X7X7X7X7X7X7X4X&X[.^.Y.A.z.6.%.+.} a X 3 2 + . +                 ",
"                O O O . ; 9 t Z f.g.x.M.B.U.~.XX:X:X4X7X7X7X7X7X7X7X7X7X7X6X:X}.(./.L.B.z.h.5.#.~ z . @ + . . .                 ",
"              . - - * . # 7 9 e F [ d.s.s.B.R.oX-X=X4X7X7X6X7X7X7X7X7X6X5X2X;X}.!.U.A.m.x.x.p.;.Y k X + X . . .                 ",
"                    X X o @ < e C [ q.p.a.c.H.^.`.+X1X<X4X4X5X7X6X7X7X2X3X*X*X@X~.K.H.m.j.a.s.e.! 3 + X . . . .                 ",
"                    + @ X + & 6 N [ 0.0.t.j.B.U.R.{.OX&X&X-X<X5X5X4X>X>X;X#X@X XQ.H.m.s.a.y.t.3.^ 2 , 3 . . . .                 ",
"                      , + . + + 1 v #.;.6.6.p.m.Z.!.(.{.oX+X#X*X3X:X X$X#X X[.`.~.B.j.y.a.p.t.2.I y 2 > . . . .                 ",
"                      @ X . . . , z  .0.0.0.t.z.S.J.~.[.}.[.(.).}.[.(.).~.Q.Y.Q.P.x.t.t.r.4.1.` B 8 X . . . . .                 ",
"                        . . . . X 1 ( q.q.p.p.s.M.C.Y.(.~.~.Y.Y.K.W.Q.W.L.P.L.G.S.l.r.6.&.E L U u X . . O . .                   ",
"                          . . . . ; S 1.q.q.s.l.x.n.S.L.P.Y.A.M.B.G.P.P.P.L.A.C.M.x.a.;.%.O.H a 1 . . . O . .                   ",
"                            . . 6 w g / 9.0.q.x.x.x.v.m.A.B.c.n.v.n.C.G.G.S.M.x.x.z.a.;.{ E c > + X . . . . .                   ",
"                            O . # 6 2 j / 4.0.p.a.s.l.l.z.y.h.h.j.z.x.x.v.l.s.j.l.a.u.>.U l a 3 + + X X X . .                   ",
"                            r X + . X + u L 1.q.q.p.s.p.6.;.0.7.y.t.q.q.7.6.6.0.p.e._ ` J a 5 @ + + > X . .                     ",
"                                2 . o X X 1 M / 4.7.0.6.*.*.&.&.;.;.6.6.;.&.&.0.,.[ D ) s , + + X + @ . .                       ",
"                                  . . o o o ; d J ^ @.@.&.@.%.&.%.;.*.+.$.O.W ^ ' ) B d 3 @ X . . . . .                         ",
"                                  . . O o . X X > 3 l K { Y E E { W { Y K c k p n S M , @ + . . . .                             ",
"                                X   + . - X X X X + @ , p 3 @ 2 2 1 3 y 5 2 3 2 , q e 6 . . . . .                               ",
"                                    > ; O . . . X X + 3 y @ + > X o X X > @ X + + X O O . . .                                   ",
"                                      . . . . . . . X , @ + @ + X X X . + X . , u j . . .                                       ",
"                                      . . + > . . . . . . . X + + . . . . . . + 2 3 X   r                                       ",
"                                            + . . . . . . . . . . . . . . . . . .                                               ",
"                                                . . . . . . . . + , . . . . O . .                                               ",
"                                                  . . . . . . . . X . . . . o                                                   ",
"                                                    . . . . . . . . . .                                                         ",
"                                                          . . . .                                                               ",
"                                                                                                                                ",
"                                                                                                                                ",
"                                                                                                                                ",
"                                                                                                                                ",
"                                                                                                                                ",
"                                                                                                                                "
};
