/* XPM */
static char *door521703585274[] = {
/* columns rows colors chars-per-pixel */
"64 64 208 2 ",
"   c None",
".  c #020000",
"X  c #0A0101",
"o  c #070807",
"O  c #090907",
"+  c #0C0D0B",
"@  c #130101",
"#  c #1B0201",
"$  c #130807",
"%  c #130C0A",
"&  c #1D0D0A",
"*  c #0F100D",
"=  c #14120E",
"-  c #1B120E",
";  c #141511",
":  c #1B1510",
">  c #1E1C16",
",  c #220202",
"<  c #2B0302",
"1  c #2F0907",
"2  c #2D0B0A",
"3  c #220E0C",
"4  c #330303",
"5  c #3B0403",
"6  c #3D0908",
"7  c #350908",
"8  c #2A110D",
"9  c #33130F",
"0  c #251E18",
"q  c #281914",
"w  c #3C1612",
"e  c #341612",
"r  c #2B241D",
"t  c #32211A",
"y  c #312821",
"u  c #430303",
"i  c #4B0404",
"p  c #480A07",
"a  c #550505",
"s  c #5C0505",
"d  c #520907",
"f  c #43110E",
"g  c #48120F",
"h  c #491A15",
"j  c #571B17",
"k  c #630505",
"l  c #6B0505",
"z  c #660807",
"x  c #680908",
"c  c #730606",
"v  c #7C0505",
"b  c #740908",
"n  c #780807",
"m  c #651915",
"M  c #7B1B16",
"N  c #741612",
"B  c #49241D",
"V  c #50251E",
"C  c #6B201A",
"Z  c #402C24",
"A  c #562D24",
"S  c #6B2D25",
"D  c #643329",
"F  c #78362C",
"G  c #794337",
"H  c #810505",
"J  c #8D0A0A",
"K  c #940808",
"L  c #9B0606",
"P  c #991714",
"I  c #A40909",
"U  c #AC0A0A",
"Y  c #A30000",
"T  c #B40B0B",
"R  c #AF110D",
"E  c #A11E1A",
"W  c #AB1A16",
"Q  c #B71714",
"!  c #9C241F",
"~  c #87201A",
"^  c #913D32",
"/  c #932B22",
"(  c #B62C25",
")  c #A9342B",
"_  c #C20D0C",
"`  c #CA0C0B",
"'  c #C10403",
"]  c #D50E0E",
"[  c #DB0F0F",
"{  c #C8110F",
"}  c #DE130F",
"|  c #CD1211",
" . c #CB1714",
".. c #D31615",
"X. c #E30D0D",
"o. c #EA0F0F",
"O. c #FC0202",
"+. c #E31111",
"@. c #EB1212",
"#. c #E91B18",
"$. c #F31513",
"%. c #FE1514",
"&. c #FF1C1B",
"*. c #F81917",
"=. c #C9241E",
"-. c #EE211D",
";. c #FF211F",
":. c #F4231E",
">. c #D0322B",
",. c #D43A30",
"<. c #DE2A23",
"1. c #FF2422",
"2. c #FE2A26",
"3. c #FF2C2A",
"4. c #FB2927",
"5. c #FE322E",
"6. c #F4322B",
"7. c #EF3E34",
"8. c #FF3533",
"9. c #FF3B35",
"0. c #FF3D3B",
"q. c #F53A31",
"w. c #EF2924",
"e. c #AE4035",
"r. c #CC4438",
"t. c #FF423B",
"y. c #FF493E",
"u. c #F44638",
"i. c #E6483C",
"p. c #E54D40",
"a. c #FF4441",
"s. c #FF4B44",
"d. c #FF4C49",
"f. c #FF5146",
"g. c #FF544C",
"h. c #FF5B4E",
"j. c #FF5552",
"k. c #FF5C54",
"l. c #FF5C58",
"z. c #EA5144",
"x. c #FF6355",
"c. c #FF635B",
"v. c #FF6B5C",
"b. c #F56C5A",
"n. c #FF715D",
"m. c #FF6460",
"M. c #FF6B62",
"N. c #FF7364",
"B. c #FF756C",
"V. c #FF7A6C",
"C. c #FF7966",
"Z. c #FF7C72",
"A. c #FF826D",
"S. c #FF8375",
"D. c #FF8B75",
"F. c #FF857B",
"G. c #FF8D7C",
"H. c #FF917B",
"J. c #FF9277",
"K. c #FF8D83",
"L. c #FF9483",
"P. c #FF9984",
"I. c #FF9589",
"U. c #FF9C8B",
"Y. c #FFA28C",
"T. c #FFA787",
"R. c #FFA595",
"E. c #FFAA94",
"W. c #FFAE9C",
"Q. c #FFB19C",
"!. c #FFB797",
"~. c #FFB5A3",
"^. c #FFBBA5",
"/. c #FFBCAA",
"(. c #FFC39B",
"). c #FFC4A2",
"_. c #FFCAA5",
"`. c #FFCCAD",
"'. c #FFC7AE",
"]. c #FFDBAE",
"[. c #FFD0AE",
"{. c #FFC7B2",
"}. c #FFCAB3",
"|. c #FFCFB9",
" X c #FFD4B6",
".X c #FFD4BB",
"XX c #FFDCBC",
"oX c #FFD9B4",
"OX c #FFECBC",
"+X c #FFDDC4",
"@X c #FFDFC8",
"#X c #FFECC3",
"$X c #FFE4CD",
"%X c #FFEFC8",
"&X c #FFF4CC",
"*X c #FFF2C4",
"=X c #FFECD2",
"-X c #FFEDD9",
";X c #FFF4D2",
":X c #FFFCD7",
">X c #FFF5DB",
",X c #FFFBDB",
"<X c #FFEDE3",
"1X c #FFFDE4",
"2X c #FFFEEC",
"3X c #FFF7E3",
"4X c #FFFFF4",
"5X c #FFFFFE",
/* pixels */
"                                                                                                                                ",
"                                                                                                                                ",
"                                                                                                                                ",
"                                                                                                                                ",
"                                                                                                                                ",
"                                                                                                                                ",
"                                                                                                                                ",
"                                                                                                                                ",
"                                                                                                                                ",
"                                                    . . . . .       ;                                                           ",
"                                                . . . . . . . . .   +                                                           ",
"                                            . . . . X . . . . . . . .                                                           ",
"                                          . . . . . . . . . . . . . 6 < o   q                                                   ",
"                                      X # . . . @ @ . . X . . . . o e , . o q % .         X                                     ",
"                                      . . . . # # X . 4 Y 4 . X X ; 0 O @ # . 4 @         X %                                   ",
"                                  $ . . . . . < # # # v O.l X 2 8 t t $ # L L u a . .   O y q o                                 ",
"                                % . . . . . . . . # , 4 H 4 6 j N ~ j 3 i @.` # i k , 5 m r $ X                                 ",
"                              O ; o . # @ . X X . X 5 c s c  .E E E ! ! #.4.M 5 ' O.5 H $.i X X .                               ",
"                              . $ o . @ X . # i < 5 H ] T | 3.5.q.u.f.9.q.6.( E =.b O S ~ @ @ # X .                             ",
"                            ; @ X o > % $ @ 4 c ` ] +.3.3.3.a.d.g.M.n.h.y.t.u.f.z.e.F G - . . X X . .                           ",
"                              . . O r t 8 g E +.%.1.3.0.8.8.d.c.M.G.J.N.h.v.C.N.v.x.b.^ , . # , X $ . .                         ",
"                              . : 0 3 t V ! :.%.1.8.8.0.a.t.l.N.S.L.G.B.B.Y.L.D.A.V.n.>.J 4 5 < X X . .                         ",
"                              X $ y Z D ) u.5.2.8.0.0.a.d.l.Z.S.I.R.U.K.^.^.Y.L.A.C.t.%.X.J X . o X . . .                       ",
"                            # u @ e S r.z.h.x.s.d.d.j.m.m.B.I.E.~.{.~.~.@X+XQ.E.D.g.;.%.X.I a @ . X X . .                       ",
"                          . @ # , h F i.x.N.A.S.G.Z.Z.Z.Z.U.R.Q..X~./.-X1X=X.X~.S.x.3.&.$.` U l # @ . o o                       ",
"                            . , u C ! q.v.J.P.Q.E.R.W.U.U.~.W..X{.|.-X2X4X3X+X/.I.j.0.t.8.#.| a u < $ - O                       ",
"                          . . @ i M =.8.N.P.E.~./.W.~./.}.{. X%X.X<X5X4X4X2X@X{.~.F.x.g.t.8.<.C h 1 l @ . .                     ",
"                          . X , a v ..8.c.P.Q.{.{./.{.$X;X>X2X>X,X5X5X5X4X5X3X$X|.K.M.c.f.t.6.( m 4 4 X . .                     ",
"                          X # 4 a n +.3.g.V.E.|.|.+X;X>X,X4X5X5X5X5X5X5X5X5X3X;X.XK.M.x.f.t.7.P 5 < @ . . .                     ",
"                          , p i a v #.1.0.c.I.{.+X=X=X;X,X2X5X5X5X5X5X5X5X5X5X1X.XL.Z.M.x.f.9.W 5 < i 4 & .                     ",
"                        . 4 u i a T ;.1.8.m.F.R.+X-X-X:X1X4X5X5X5X5X5X5X5X5X5X1XXX^.I.V.x.y.t.,.j 1 2 $ X . X .                 ",
"                        X @ 4 d z { 1.5.0.c.B.R.~.+X>X1X2X5X5X5X5X5X5X5X5X5X5X3X+X}.Q.S.v.f.a.) A B e % % : :                   ",
"                      . X @ < u H o.&.8.s.Z.N.B.K.'.:X1X2X5X5X5X5X5X5X5X5X5X1X#X.X`.Q.G.v.f.t.,.D A B - % - &                   ",
"                      X X X < a U @.;.3.a.l.M.V.L.E.XX;X2X5X5X5X5X5X5X5X5X2X;XXX{.^.U.S.x.s.y.u./ w w f % O X     o o           ",
"                      . . . , u b _ &.3.s.c.M.Z.Y.L.W.`.;X4X4X5X5X5X5X5X4X&X+X}.R.U.I.B.f.9.5...J 6 2 1 % X o     o             ",
"                    . . . X # 6 n ` &.8.t.g.x.B.K.Y.E.!.oX1X5X4X4X5X5X5X4X;X XW.I.K.B.j.9.1.%.] b < 1 X X .                     ",
"                    . . . . @ 1 x ` &.3.8.a.g.M.Z.G.L.Y._.;X,X:X2X5X4X1X&X`.(.Y.F.B.l.d.3.&.%.%.T 4 @ # . .                     ",
"                    . @ . . . , k T %.1.3.9.d.l.N.Z.Z.G.E.`.].OX*XOX*X].!.T.P.S.N.j.d.a.3.&.%.[ K # # # X X                     ",
"                    . X X . X # s I %.;.3.8.a.g.x.B.V.G.U.E.!._.)._.(.T.T.J.A.N.x.j.a.8.2.%.%.n 4 # . o O                       ",
"                    . . # < . , c T $.&.3.3.3.0.d.k.M.S.L.U.E.Y.Y.Y.H.J.D.A.v.v.j.g.8.3.&.%.[ k 4 # X .                         ",
"                    . # @ @ . @ 4 i U %.&.3.3.8.a.j.M.V.S.G.I.L.L.L.S.V.C.n.v.g.g.y.5.;.&.$.L k , . . .                         ",
"                        . . , . # , s o.&.1.3.8.9.a.k.m.N.B.S.G.P.H.B.v.c.x.k.s.t.5.3.&.%.` u # # . . .                         ",
"                          X 5 . X @ s ] &.&.1.3.8.t.g.l.c.N.B.Z.S.G.C.x.j.f.s.9.8.3.1.$.I u @ X . . . .                         ",
"                          . . . X # 4 n ` %.&.1.3.t.f.g.l.c.c.m.M.v.g.f.a.9.3.2.3.1.$.K 5 @ . . . . . .                         ",
"                          . . . X X # , K o.@.&.1.2.8.t.s.g.g.h.j.s.9.8.3.2.;.;.;.@.I a i X . . . . . .                         ",
"                            . . . X X @ i z n +.%.&.3.5.0.t.t.s.t.2.1.1.%.&.%.$.} I d , o . . X . . .                           ",
"                            . . . X X X X # p R _ ] *.2.8.8.8.9.2.;.&.%.%.%.%._ U s @ $ . . . i 5 .                             ",
"                            .     . X X X X 4 p s c c W w.4.:.4.%.%.%.%.%.X.] l d , X . X X . , X                               ",
"                              X     X X X X # @ # # @ , h N P Q | R T } _ K 4 , @ X . . . . . .                                 ",
"                                    . X X # < . . . o % = - 8 6 l # # 5 4 s X , , . @ u @ .                                     ",
"                                      . . # l @ . o O = = = 9 $ 4 X X . X @ X . X . . X . .                                     ",
"                                        X . . X . . o q = + * o . . . . . . . . . . . . . . @                                   ",
"                                            @     . + w f * O o . . . . .                                                       ",
"                                                    + % # o                                                                     ",
"                                                    +                                                                           ",
"                                                                                                                                ",
"                                                                                                                                ",
"                                                  =                                                                             ",
"                                                                                                                                ",
"                                                                                                                                ",
"                                                                                                                                ",
"                                                                                                                                ",
"                                                                                                                                ",
"                                                                                                                                "
};
