/* XPM */
static char *door61703585268[] = {
/* columns rows colors chars-per-pixel */
"64 64 211 2 ",
"   c None",
".  c #010101",
"X  c #0B0101",
"o  c #070807",
"O  c #0A0807",
"+  c #0C0C0A",
"@  c #060908",
"#  c #130101",
"$  c #1B0202",
"%  c #150907",
"&  c #1C0807",
"*  c #150D0B",
"=  c #1B0C0A",
"-  c #0F100D",
";  c #13120E",
":  c #1E110E",
">  c #141511",
",  c #1B1B16",
"<  c #191813",
"1  c #220202",
"2  c #2A0303",
"3  c #2B0907",
"4  c #230C0A",
"5  c #2C0B09",
"6  c #330303",
"7  c #3B0303",
"8  c #340907",
"9  c #340E0B",
"0  c #3C0D0B",
"q  c #3F0805",
"w  c #24110E",
"e  c #2B100D",
"r  c #3B110E",
"t  c #241712",
"y  c #2B1612",
"u  c #2B1C15",
"i  c #221D17",
"p  c #341612",
"a  c #3A1A15",
"s  c #311F1A",
"d  c #371813",
"f  c #1F2019",
"g  c #23241C",
"h  c #32211B",
"j  c #3C221C",
"k  c #342821",
"l  c #440303",
"z  c #4A0404",
"x  c #480D0B",
"c  c #520504",
"v  c #5C0C0B",
"b  c #560908",
"n  c #46130F",
"m  c #4B1814",
"M  c #561C17",
"N  c #630606",
"B  c #6A0706",
"V  c #730606",
"C  c #7E0B0A",
"Z  c #760B09",
"A  c #791813",
"S  c #641F1A",
"D  c #49201B",
"F  c #57241C",
"G  c #77221C",
"H  c #542620",
"J  c #6A2E26",
"K  c #7A2922",
"L  c #820707",
"P  c #8C0808",
"I  c #840A09",
"U  c #950A09",
"Y  c #9B0A0A",
"T  c #940606",
"R  c #84100E",
"E  c #8A1714",
"W  c #951815",
"Q  c #99130E",
"!  c #A90B0B",
"~  c #B50D0D",
"^  c #B90A0A",
"/  c #A4100F",
"(  c #B8100E",
")  c #A81A16",
"_  c #BB1514",
"`  c #92241E",
"'  c #9C211B",
"]  c #A1231B",
"[  c #892820",
"{  c #972822",
"}  c #9B352B",
"|  c #A82A23",
" . c #B72923",
".. c #AD322A",
"X. c #BF3129",
"o. c #C60B0B",
"O. c #DC0E0D",
"+. c #DA1515",
"@. c #E50D0D",
"#. c #EE0A0A",
"$. c #F80F0F",
"%. c #E31312",
"&. c #EB1212",
"*. c #F41413",
"=. c #FD1514",
"-. c #F61C1B",
";. c #FF1C1B",
":. c #FC1915",
">. c #D6231D",
",. c #E9221F",
"<. c #FD211E",
"1. c #F6231F",
"2. c #C92923",
"3. c #DA2B25",
"4. c #C5372E",
"5. c #D2392F",
"6. c #EC2D26",
"7. c #FE2423",
"8. c #FE2A26",
"9. c #FF2C2B",
"0. c #F62B27",
"q. c #E2352D",
"w. c #EE342C",
"e. c #FF332D",
"r. c #F6342C",
"t. c #FF3433",
"y. c #F53B33",
"u. c #FF3C34",
"i. c #FF3C3A",
"p. c #F43A35",
"a. c #FF443D",
"s. c #FF4A3E",
"d. c #FB4138",
"f. c #E74D3F",
"g. c #FF4442",
"h. c #FF4B44",
"j. c #FF4E4A",
"k. c #FF544B",
"l. c #FF594E",
"z. c #FF5547",
"x. c #FF5551",
"c. c #FF5C53",
"v. c #FF5E5A",
"b. c #FF604E",
"n. c #FF6356",
"m. c #FF645C",
"M. c #FF6A5D",
"N. c #FF6662",
"B. c #FF6D63",
"V. c #FF6F69",
"C. c #FF7266",
"Z. c #FF746B",
"A. c #FF7A6D",
"S. c #FF7D72",
"D. c #FF7B75",
"F. c #FF8375",
"G. c #FF8B75",
"H. c #FF847A",
"J. c #FF8B7B",
"K. c #FF927B",
"L. c #FF9C7E",
"P. c #FF8C83",
"I. c #FF9484",
"U. c #FF9C84",
"Y. c #FF9589",
"T. c #FF9C8C",
"R. c #FF9D91",
"E. c #FFA283",
"W. c #FFA58C",
"Q. c #FFAD8B",
"!. c #FFB28D",
"~. c #FFA594",
"^. c #FFAB93",
"/. c #FFAB9B",
"(. c #FFA698",
"). c #FFB39C",
"_. c #FFBD99",
"`. c #FFB792",
"'. c #FFAEA0",
"]. c #FFB4A2",
"[. c #FFBCA6",
"{. c #FFBCAA",
"}. c #FFC2A5",
"|. c #FFC3AC",
" X c #FFCAAC",
".X c #FFCAA3",
"XX c #FFD2A5",
"oX c #FFC6B0",
"OX c #FFCBB3",
"+X c #FFD5B7",
"@X c #FFD4BB",
"#X c #FFDCBA",
"$X c #FFDAB7",
"%X c #FFE1B7",
"&X c #FFE3BE",
"*X c #FFDBC2",
"=X c #FFE3C3",
"-X c #FFEBC3",
";X c #FFE3C9",
":X c #FFECCC",
">X c #FFF5CC",
",X c #FFF7CA",
"<X c #FFEFD3",
"1X c #FFFCD4",
"2X c #FFF4DA",
"3X c #FFFDDD",
"4X c #FFF7D3",
"5X c #FFFDE5",
"6X c #FFFEEB",
"7X c #FFFFF4",
"8X c #FFFFFE",
/* pixels */
"                                                                                                                                ",
"                                                                                                                                ",
"                                                                                                                                ",
"                                                                                                                                ",
"                                                                                                                                ",
"                                                                                                                                ",
"                                                                                                                                ",
"                                                                                                                                ",
"                                                                                                                                ",
"                                                                                                                                ",
"                                                                                                                                ",
"                                                      X X # i * X X                                                             ",
"                                                        X X % X X X X 1                                                         ",
"                                          . . . . . . . & $ X X X 7 l b 8 X                                                     ",
"                                      . . . . . . . . . 1 6 & : # l l 1 # X X                                                   ",
"                                    . . . . . X X . . X # # p s $ # # X # # # X     X $ 6   X                                   ",
"                                . . . . . . X l 1 X # # $ 4 s s : # # # z # # # X X X X X . X X                                 ",
"                              . . . . . . . . X # $ # $ t h k j m 1 7 z c X X # X 2 $ X X . X X                                 ",
"                            . . . . . . . X X X 2 V 6 A D K {  .3.! ! ~ C 8 6 # # # X X X 2 # X                                 ",
"                            . . . . . . X # $ l l ! P 2.q.d.a.i.t.;.;.=.&.O.o.T V 1 X X X l 1 # X                               ",
"                          . . . . . . X X 7 T #.! O.=.9.g.j.h.h.i.9.;.;.;.;.=.&.^ V $ % # X $ 1 X                               ",
"                          . . . . . # $ 1 c #.$.-.9.9.t.h.k.k.x.g.i.t.t.8.9.;.;.@.o.V L z X # # X                               ",
"                          # . . . X $ 2 7 V &.;.9.i.t.t.j.m.N.N.N.v.j.i.i.t.9.7.;.*.$.o.z X # X X                               ",
"                        X $ X . # $ 1 6 Y O.;.8.t.t.i.g.j.B.V.Z.D.Z.V.v.x.k.j.a.9.9.;.O.L # # & &                               ",
"                      o . . . . # $ z N ~ ;.7.9.t.i.g.x.N.Z.Z.D.D.D.D.V.v.v.N.N.x.h.8.=.O.z 7 $ $ X                             ",
"                      . . . . X $ $ b %.;.;.9.t.i.g.x.x.Z.D.D.P.P.P.P.P.D.Z.S.Z.B.k.u.9.7.( c 3 # X . 2                         ",
"                      . . . X # $ 2 B &.=.;.9.t.g.g.x.N.S.J.P.P.R.R.R.(.T.P.D.D.Z.M.n.n.h.1.Y 8 X % ; n                         ",
"                      . . X # $ $ 6 Y =.;.9.i.g.j.x.v.V.H.I.Y.Y.(.R.(.'.(.Y.P.I.~.Y.H.C.n.i._ x $ & % u                         ",
"                      . . X # $ 1 l %.=.7.t.g.j.v.N.B.C.H.Y.Y.T.).[.|.@XoX].].]./.~.G.Z.m.l.y.` 0 X $                           ",
"                -     o o o = 4 3 Z *.;.e.g.j.x.v.Z.S.S.U.~.).[.+X:X2X4X=X$X#X+X/.~.P.Z.B.l.y.' 0 X X                           ",
"                    . . + * : e r A -.7.t.a.j.v.B.S.H.K.W.}.-X2X6X6X6X5X1X4X4X>X$X[.Y.J.G.Z.l.5.A 5 % o                         ",
"                    X . . + e e 9 W <.8.t.a.c.Z.H.I.U.^._.=X5X8X8X8X8X8X6X3X1X>X&X}.U.F.A.C.l.d.4.{ 0 @ & 7 1                   ",
"                  . . . X % 4 y x A >.e.a.c.C.G.K.W.^._.#X6X7X8X8X8X8X8X7X6X3X,X>X}.Y.F.B.m.k.p...J w o o 1 $                   ",
"                  . . . . X * w d n ] u.h.b.A.K.E.W.!.XX>X6X7X8X8X8X8X8X8X8X5X,X>X}.Y.F.M.v.c.p...J k , + 0 g     o o           ",
"                . . . . . X * u m n ] e.s.l.M.G.L.!._.-X6X6X8X8X8X8X8X8X8X8X6X-X|./.T.J.m.k.k.a.w.| H , @ o O     o             ",
"                . . . . + e a y d D ] 8.d.l.B.G.L.!..X1X5X6X8X8X8X8X8X8X8X8X6X-X X/.Y.H.m.g.i.p.W v & O @ .                     ",
"                - +   o ; > < y d F W 1.e.h.m.A.L._.%X1X3X6X8X8X8X8X8X8X8X8X7X2X+X].F.B.V.j.t.-.I l $ . O .                     ",
"                      . . o ; p d F ] ,.e.a.c.Z.K._.%X,X1X6X8X8X8X8X8X8X8X7X6X;X{.R.A.N.j.i.9.6.I 7 $ 1 1 .                     ",
"                      . . . + y d m M E %.9.i.m.K.^.XX+X=X3X6X8X8X8X8X8X8X5X:XOX~.I.S.C.x.i.9._ N 6 $ X % .                     ",
"                        . . . . w n v T @.:.8.k.A.J.^.|.OX:X5X7X8X8X7X8X7X5X@XOX].Y.A.Z.m.l.e./ N 2 X # $ .                     ",
"                        . . . . O 2 N ) O.:.1.b.A.F.E.].OX=X2X6X2X5X5X8X6X2X=X+X|.Y.C.B.x.c.7.U b 1 # . $ X                     ",
"                        . . . . . $ l R ! ^ :.h.M.G.I.^.[.OX;X*XOX*X<X<X2X:X+X).R.Y.F.m.l.k.+.B z $ X . $ #                     ",
"                        . . . . O 1 l Q Y Y %.s.n.A.G.I.(.].oX|.{.{.oX:X*X|.^.T.T.T.G.Z.c.0.o.V 3 X . . .                       ",
"                          . . . X 2 v Q Y L ) y.z.M.C.F.I.P.R./.'.{.'.oX[.~.T.J.F.G.F.B.c.6.Z l X . # # .                       ",
"                          . X X . 7 2 2 c C W 3.s.z.b.c.c.j.m.D.Y.(.^.T.T.J.U.G.S.M.M.h.s.4.E l . . $ $ X                       ",
"                          . X X . z 7 # 7 A } 4.a.a.s.u.;.8.t.h.x.B.C.F.F.M.A.M.k.l.z.e.q.K r # . X . . X                       ",
"                          .   . X X # # 9 G [ | X.6.8.;.=.7.:.8.g.k.l.M.B.n.h.h.a.s.y.| E a o + > X . .                         ",
"                              . X X X % : j F G ` 2.0.$.=.;.$.7.u.i.k.n.M.z.d.u.t.r.2.S h ; . . - + .                           ",
"                              X . o * < i g , D G A ( O.&.&.$.*.e.u.f.b.z.s.e.7.( [ m a u - . . . .                             ",
"                              .     X % < + o > + # V U P ^ @.%.w.6.3.z.q.2. .C 3 5 X X ; , . .                                 ",
"                                      X . . . . . X 7 7 1 l T E ` ` x S K b z % . $ 7 X . .                                     ",
"                                    < o . . . . . . 2 $ 7 l 1 $ 8 F # : h & 6 X . # 0 , = $   >                                 ",
"                                    g   X X . . . . X o 1 c # X 8 3 X X 8 e X l 3 $ . *         ,                               ",
"                                          X   . . . . + . X X X $ # X X # & X $                                                 ",
"                                                . . . . . . . . X ; X X X * $ #                                                 ",
"                                                    ; . . . . o - g . . o g = X                                                 ",
"                                                              ,                                                                 ",
"                                                                                                                                ",
"                                                                                                                                ",
"                                                                                                                                ",
"                                                                                                                                ",
"                                                                                                                                ",
"                                                                                                                                ",
"                                                                                                                                "
};
