/* XPM */
static char *door21703585267[] = {
/* columns rows colors chars-per-pixel */
"64 64 208 2 ",
"   c None",
".  c #020100",
"X  c #0B0101",
"o  c #070806",
"O  c #0B0907",
"+  c #0D0C0A",
"@  c #130101",
"#  c #1C0202",
"$  c #130907",
"%  c #1C0807",
"&  c #140E0B",
"*  c #1C0B09",
"=  c #0F100D",
"-  c #11120F",
";  c #1A100D",
":  c #1C1410",
">  c #1B1A15",
",  c #181A14",
"<  c #220202",
"1  c #2D0202",
"2  c #220C0A",
"3  c #2B0B09",
"4  c #330202",
"5  c #3C0404",
"6  c #330908",
"7  c #340907",
"8  c #28110D",
"9  c #36100D",
"0  c #2A1A16",
"q  c #251813",
"w  c #341C16",
"e  c #391813",
"r  c #1D201A",
"t  c #2D221B",
"y  c #23241D",
"u  c #38231C",
"i  c #2D2D24",
"p  c #373026",
"a  c #440404",
"s  c #4C0504",
"d  c #4D0B0A",
"f  c #440F0B",
"g  c #530404",
"h  c #5A0505",
"j  c #540A09",
"k  c #5B0C0A",
"l  c #5E0807",
"z  c #57100E",
"x  c #4A1613",
"c  c #471B16",
"v  c #561511",
"b  c #630505",
"n  c #6C0404",
"m  c #6E0807",
"M  c #630B0A",
"N  c #7B0607",
"B  c #790A09",
"V  c #70140F",
"C  c #661814",
"Z  c #761A16",
"A  c #5B231D",
"S  c #48241D",
"D  c #65261E",
"F  c #72221C",
"G  c #7B211C",
"H  c #5C2E24",
"J  c #422921",
"K  c #6C3027",
"L  c #7E4538",
"P  c #860807",
"I  c #940707",
"U  c #990303",
"Y  c #940808",
"T  c #9C0B0A",
"R  c #9D0807",
"E  c #861A16",
"W  c #961915",
"Q  c #A50C0B",
"!  c #AA0A08",
"~  c #B90E0D",
"^  c #A4100E",
"/  c #AB1814",
"(  c #BA1614",
")  c #8D251F",
"_  c #99231D",
"`  c #AF221D",
"'  c #892B23",
"]  c #972922",
"[  c #8A382E",
"{  c #A82922",
"}  c #B03C32",
"|  c #BA3028",
" . c #CB0C0C",
".. c #C50D0C",
"X. c #D50B0B",
"o. c #DA0E0D",
"O. c #C51311",
"+. c #C81715",
"@. c #DB1B18",
"#. c #D61816",
"$. c #EB0E0E",
"%. c #FF0202",
"&. c #E8100F",
"*. c #F9100F",
"=. c #EC1513",
"-. c #E91B19",
";. c #E31816",
":. c #F41513",
">. c #FD1515",
",. c #FF1C1B",
"<. c #F31918",
"1. c #C9221E",
"2. c #FD211E",
"3. c #C52923",
"4. c #DC2C25",
"5. c #D72722",
"6. c #D8342B",
"7. c #E42C25",
"8. c #EB2A23",
"9. c #FF2423",
"0. c #FE2B26",
"q. c #F32F29",
"w. c #FF2C2B",
"e. c #F42823",
"r. c #F3332B",
"t. c #FE332D",
"y. c #FF3533",
"u. c #FE3C34",
"i. c #FF3C3A",
"p. c #F43E34",
"a. c #E7322B",
"s. c #FF433B",
"d. c #FF493F",
"f. c #F74339",
"g. c #E54439",
"h. c #FF4541",
"j. c #FF4C44",
"k. c #FF4D4C",
"l. c #FF5146",
"z. c #FF544B",
"x. c #FF594E",
"c. c #FA5546",
"v. c #FF5452",
"b. c #FF5C53",
"n. c #FF5B5A",
"m. c #FF6154",
"M. c #FF655B",
"N. c #FF6C5E",
"B. c #FF6462",
"V. c #FF6B65",
"C. c #FF6E6C",
"Z. c #FF7365",
"A. c #FF7A66",
"S. c #FF756B",
"D. c #FF7C6D",
"F. c #FF7C74",
"G. c #FF7A75",
"H. c #FF816F",
"J. c #FF8474",
"K. c #FF857B",
"L. c #FF8C7D",
"P. c #FF8C77",
"I. c #FF927E",
"U. c #FF8C82",
"Y. c #FF9485",
"T. c #FF9A84",
"R. c #FF9489",
"E. c #FF9B8B",
"W. c #FF9D92",
"Q. c #FFA28D",
"!. c #FFAA8F",
"~. c #FFA393",
"^. c #FFAA92",
"/. c #FFAD9C",
"(. c #FFB397",
"). c #FFB49C",
"_. c #FFBA9E",
"`. c #FFAEA1",
"'. c #FFB4A3",
"]. c #FFBCA3",
"[. c #FFBFA8",
"{. c #FFC3A6",
"}. c #FFC5AB",
"|. c #FFCCAB",
" X c #FFCAA7",
".X c #FFD0AE",
"XX c #FFCCB1",
"oX c #FFC9B4",
"OX c #FFD4B3",
"+X c #FFDAB4",
"@X c #FFDABC",
"#X c #FFE6BE",
"$X c #FFDBC1",
"%X c #FFE5C3",
"&X c #FFEAC4",
"*X c #FFEFCD",
"=X c #FFF1C6",
"-X c #FFF2CB",
";X c #FFFBCC",
":X c #FFEAD3",
">X c #FFF5D3",
",X c #FFFCD6",
"<X c #FFFDDB",
"1X c #FFF7DD",
"2X c #FFFDE2",
"3X c #FFFFEB",
"4X c #FFFFF3",
"5X c #FFFFFE",
/* pixels */
"                                                                                                                                ",
"                                                                                                                                ",
"                                                                                                                                ",
"                                                                                                                                ",
"                                                                                                                                ",
"                                                                                                                                ",
"                                                                                                                                ",
"                                                                                                                                ",
"                                                                                                                                ",
"                                                                                                                                ",
"                                                                                                                                ",
"                                                  . .                                                                           ",
"                                                  . . . . X > & o   o       X X o                                               ",
"                                          . . . . . . . . X y 2 @ j x o o o o . . .                                             ",
"                                    . . . . . . . . X 1 # X O a s C A * X X . . . X #                                           ",
"                                    . . . . . . . . X < # 1 @ : 8 q w % @ X X X . # 5 X X #                                     ",
"                                    . . . . . . . . . . X # 8 J e x v 8 @ < X X X X X . . X . .                                 ",
"                                X . . . . @ 4 X . . . # 1 b W } _ ` E M g n a < X X X X . . X . . . X                           ",
"                              X X . . . . X @ @ @ 5 < m O.+.p.f.r.8.#./ R P P n a X X # # @ # X . . X .                         ",
"                              X . . . . . . X l I ..O.@.q.u.h.l.s.9.,.,.:.o.X.Q N s 1 4 # @ < @ . X X X                         ",
"                              . . . . . X X 4 ~ >.,.9.y.s.h.j.b.z.i.t.w.9.>.>.#.~ X.U s @ X @ @ X X X X .                       ",
"                              . . . . @ g b U <.,.9.9.i.z.z.M.V.M.v.j.s.y.w.9.>.:.$.! s # @ < s 1 X X X X                       ",
"                            . . . X X 4 I o.>.9.9.w.y.j.B.Z.K.U.S.B.n.n.v.i.y.w.w.2.=.! s @ g %.U X X X X .                     ",
"                            . . X X 5 h m -.0.w.y.i.i.v.S.F.R.R.U.G.S.V.B.k.i.y.y.w.9.=.n 4 b ! 1 X X X X . . o o               ",
"                          6 @ X X X 5 n ^ 9.w.y.i.k.k.n.F.R.W.W.W.W.U.F.F.V.z.k.k.y.w.9.#.O.V 2 % % b < X . . o                 ",
"                        . 1 @ X @ @ N $.,.w.y.y.i.k.n.B.G.W.`.'.`.`.'.E.L.F.N.M.b.s.u.y.0.-.k % $ + j 6 O X                     ",
"                        . @ @ X < m O.>.9.y.i.i.v.n.B.C.F.W.`.'.`.'.[.W.Y.I.D.N.M.b.b.j.y.9.W f 2 $ * o X .                     ",
"                        X X X X 1 N $.,.w.y.y.h.n.B.G.C.U.~.'.].'.}.oX'.Q.T.T.J.D.A.D.b.i.i.,.W 8 & * X X X                     ",
"                        . . . X h U :.w.y.y.i.v.B.C.G.K.W./.[.}.{..X+X.X{.!.!.I.J.H.Z.N.z.s.t.^ $ * + X X .                     ",
"                      + . . + - v ( ,.y.y.h.v.G.K.U.U.W.).[.@X-X&X,X;X-X#X.X(.!.E.D.Z.Z.M.z.s.5.x - - @ X X                     ",
"                      - o - r t ' 7.0.y.i.n.V.F.U.R.W.`..X#X2X<X2X2X3X4X2X;X=X+X|.^.^.E.K.J.Z.d.] q : & % 4 1                   ",
"                      . @ . + 0 ] q.y.s.j.M.F.R.W.`.[.@X&X<X4X5X5X5X5X5X3X,X;X&X@X{.(.~.T.P.J.m.6.H t 2 d 3       >             ",
"                      . . . @ u ] r.u.j.b.S.R.E./.]. X.X&X4X5X5X5X5X5X5X4X2X,X=X.X_.^.Q.L.J.J.N.f.K i e 6 + o                   ",
"                      . . . o q ' a.u.j.b.L.E.~./._. X+X1X5X5X5X5X5X5X5X5X4X<X=X+X_.~.E.P.J.A.m.c.L p t i y   >                 ",
"                    . . . . . % [ g.d.l.M.L.E.~.).].OX*X3X5X5X5X5X5X5X5X5X5X3X&X.X(.Q.J.F.Z.b.z.j.[ u > , o                     ",
"                    . . . o > 0 S | s.j.M.S.E.^.}.}.#X,X4X5X5X5X5X5X5X5X5X4X3X=X.X_.Q.S.M.b.s.w.@.k < $ . . o                   ",
"                  + , + . o 0 u D 5.u.h.j.V.J.K.E.).+X,X3X5X5X5X5X5X5X5X5X4X2X<X.X(.L.Z.v.y.w.,. .5 @ X X .                     ",
"                          . @ % F 5.t.s.j.n.G.K.U.(..X=X1X4X5X5X5X5X5X4X4X2X>XOX(.P.V.x.i.u.w.,...5 5 # @ @ X X                 ",
"                          . X X x { 7.t.s.l.M.F.J.Q. X%X&X2X4X4X5X5X4X<X,X%XOXOX^.D.n.j.s.i.9.<.~ 4 < < a 1 X                   ",
"                    X     . X X @ 3 E -.0.y.u.b.S.Y.(.}.}.&X2X3X4X3X3X<X>XOX}.].T.C.b.j.y.t.0.=.P # X # a @                     ",
"                            . X X @ j o.>.,.0.h.D.Q.!._.{.OX>X1X:X:X1X-X%X}.~.E.Y.A.M.z.u.9.,.*.N @ X X X o                     ",
"                            X X X O < I &.,.9.w.x.H.!._.{. X$X%X$XoX$X$XXX).Q.P.J.D.V.z.0.,.*.o.b X < 4 . .                     ",
"                            X X X X X h ! :.>.9.u.x.P.!.].).'.~.}.oX'.`.]./.T.A.A.Z.m.x.t.:. .b < X 1 4 .                       ",
"                            X X X @ < # j  .<.2.s.c.H.I.T.A.S.F.W.~.R.W.~.U.S.j.z.m.j.d.u.+.Y 1 X . . . .                       ",
"                            . X X X @ @ 4 N / t.s.s.m.A.Z.m.v.N.G.G.Z.L.S.b.m.s.j.j.s.t.r.@.m # . . . . .                       ",
"                            . X @ # @ @ @ 7 ) 4.4.r.f.c.l.s.h.z.M.b.b.M.m.s.s.0.s.s.r.a.` B d $ . . . . .                       ",
"                            - X X X O @ @ e H ' { 4.q.t.e.u.s.y.u.t.u.l.s.t.0.2.2.8.4.3.V O X X . . . .                         ",
"                            @ # . . o X O u u u A ' +.@.( 5.8.w.0.0.t.d.t.0.-.;.+.~ W F c o . . . . .                           ",
"                                  @ . . . : % % % < k ` ) 3.( 5.@.3./ 6.4.#.T T Q B a * & . . . .                               ",
"                                  < X o . . X X @ # 2 A F _ G Z T Z g Z _ P M a s k 2 a X . o X                                 ",
"                                      i = . . X X X 8 c F F G v M v d d v g a # < g * & X   y                                   ",
"                                          . . . . o : w c w 9 j h 5 5 < < 4 g @ a N %       $                                   ",
"                                            < # o . & : $ + X 1 1 ; @ X + $ < X X                                               ",
"                                              @ o . - + @ . . . o , . .       1 5                                               ",
"                                                      . . . . : 6                                                               ",
"                                                                                                                                ",
"                                                                                                                                ",
"                                                                                                                                ",
"                                                                                                                                ",
"                                                                                                                                ",
"                                                                                                                                ",
"                                                                                                                                ",
"                                                                                                                                ",
"                                                                                                                                "
};
