/* XPM */
static char *door551703585275[] = {
/* columns rows colors chars-per-pixel */
"64 64 215 2 ",
"   c None",
".  c #020000",
"X  c #0B0201",
"o  c #0B0907",
"O  c #0D0C09",
"+  c #060806",
"@  c #130101",
"#  c #1B0202",
"$  c #1E0806",
"%  c #130C0A",
"&  c #170A08",
"*  c #0F100D",
"=  c #13110E",
"-  c #1C110D",
";  c #141511",
":  c #1D1E18",
">  c #1A1713",
",  c #230202",
"<  c #2B0202",
"1  c #220D0A",
"2  c #2C0D0A",
"3  c #240907",
"4  c #330202",
"5  c #3B0302",
"6  c #390A08",
"7  c #21110D",
"8  c #31110E",
"9  c #3A100D",
"0  c #221E18",
"q  c #261814",
"w  c #371915",
"e  c #1F211A",
"r  c #25251E",
"t  c #38241D",
"y  c #3F3C30",
"u  c #2D2C23",
"i  c #430404",
"p  c #4C0303",
"a  c #430D0B",
"s  c #4D0B0A",
"d  c #540404",
"f  c #5A0404",
"g  c #590807",
"h  c #550A09",
"j  c #5D120F",
"k  c #481713",
"l  c #5B1B16",
"z  c #620404",
"x  c #6D0404",
"c  c #6B0C09",
"v  c #670C0A",
"b  c #7B0505",
"n  c #7A0807",
"m  c #730A0A",
"M  c #780B0B",
"N  c #6E110F",
"B  c #70120F",
"V  c #771D18",
"C  c #601D19",
"Z  c #54211B",
"A  c #5C2019",
"S  c #6C221C",
"D  c #5B2E25",
"F  c #742620",
"G  c #753329",
"H  c #614A3C",
"J  c #605040",
"K  c #8B0606",
"L  c #880707",
"P  c #940A09",
"I  c #990808",
"U  c #970606",
"Y  c #831915",
"T  c #9A1613",
"R  c #A40A09",
"E  c #AB0B0A",
"W  c #A80706",
"Q  c #B40D0B",
"!  c #BB0B0B",
"~  c #BC0000",
"^  c #AB1A17",
"/  c #B61815",
"(  c #82201A",
")  c #B5231E",
"_  c #A9211B",
"`  c #872821",
"'  c #902720",
"]  c #933C2F",
"[  c #B83B31",
"{  c #AF2C25",
"}  c #C20C0C",
"|  c #CC0C0C",
" . c #D30E0E",
".. c #DE0C0C",
"X. c #D50000",
"o. c #DB100F",
"O. c #CC1110",
"+. c #D61714",
"@. c #E70E0E",
"#. c #F80908",
"$. c #F3100F",
"%. c #E51414",
"&. c #EC1212",
"*. c #EE1A18",
"=. c #F41414",
"-. c #FE1413",
";. c #FF1916",
":. c #FE1C1B",
">. c #F71C1A",
",. c #E8110F",
"<. c #E2201C",
"1. c #FF221E",
"2. c #F7201A",
"3. c #CA2923",
"4. c #D82721",
"5. c #CD372F",
"6. c #E12B25",
"7. c #EC2D27",
"8. c #FF2423",
"9. c #FD2A26",
"0. c #FF2C2A",
"q. c #F72F29",
"w. c #E5332C",
"e. c #FF322C",
"r. c #F9362D",
"t. c #FF3531",
"y. c #FF3B34",
"u. c #FF3D3A",
"i. c #F53D32",
"p. c #834437",
"a. c #BE4136",
"s. c #FF433D",
"d. c #FF493D",
"f. c #E94439",
"g. c #8F5C4A",
"h. c #D25445",
"j. c #FF4540",
"k. c #FF4B44",
"l. c #FF4E4A",
"z. c #FE5145",
"x. c #FF534C",
"c. c #FF594D",
"v. c #F0594A",
"b. c #FF5452",
"n. c #FF5B54",
"m. c #FF5D59",
"M. c #DD6452",
"N. c #EE6150",
"B. c #FF6155",
"V. c #FF645B",
"C. c #FF6B5D",
"Z. c #FF705D",
"A. c #FF6662",
"S. c #FF6C62",
"D. c #FF6E69",
"F. c #FF7465",
"G. c #FF736B",
"H. c #FF7C6C",
"J. c #FF7D73",
"K. c #FF7B76",
"L. c #FF8573",
"P. c #FF8976",
"I. c #FF847B",
"U. c #FF8B7A",
"Y. c #FF947D",
"T. c #FF8B82",
"R. c #FF8580",
"E. c #FF9383",
"W. c #FF9C85",
"Q. c #FF938A",
"!. c #FF9D8A",
"~. c #FF9E91",
"^. c #FFA38E",
"/. c #FFA589",
"(. c #FFA494",
"). c #FFAB93",
"_. c #FFA598",
"`. c #FFAC9A",
"'. c #FFB296",
"]. c #FFB39A",
"[. c #FFBD9E",
"{. c #FFAEA0",
"}. c #FFB1A2",
"|. c #FFBCA4",
" X c #FFB9AA",
".X c #FFC19D",
"XX c #FFC3A4",
"oX c #FFC3AE",
"OX c #FFC9AB",
"+X c #FFCAA4",
"@X c #FFD9AE",
"#X c #FFC6B1",
"$X c #FFCAB4",
"%X c #FFCEBA",
"&X c #FFD4B7",
"*X c #FFDCB5",
"=X c #FFD6BD",
"-X c #FFDCBE",
";X c #FFD5C0",
":X c #FFDBC3",
">X c #FFDEC8",
",X c #FFE3C3",
"<X c #FFEEC4",
"1X c #FFE4CB",
"2X c #FFE9CA",
"3X c #FFF8CA",
"4X c #FFEDD2",
"5X c #FFF4D4",
"6X c #FFFBD3",
"7X c #FFF3DB",
"8X c #FFFBDB",
"9X c #FFFEE4",
"0X c #FFFEEB",
"qX c #FFFFF4",
"wX c #FFFFFE",
/* pixels */
"                                                                                                                                ",
"                                                                                                                                ",
"                                                                                                                                ",
"                                                                                                                                ",
"                                                                                                                                ",
"                                                                                                                                ",
"                                                                                                                                ",
"                                                                                                                                ",
"                                                                                                                                ",
"                                                                                                                                ",
"                                                                                                                                ",
"                                                            . . . . .         r                                                 ",
"                                              . . @ @ . p < . . . . . $ s   # >         X                                       ",
"                                        o . . . # # . d #.b . . . + = . . .     . .     X .                                     ",
"                                        , # . . X @ . f ~ f @ . . @ % . . X 6 X . @ . . . + 0 :                                 ",
"                                    X . @ . . X . . X # , # < # . @ @ X x T A X 3 W K z W j = O                                 ",
"                              %   . # # . X . % # X @ @ , , # i f 6 a l $.4.w O , #.X.z #.Y . %                                 ",
"                              + + . . . . . @ @ 3 @ @ , P n s R @.4.5.) _ V Z 8 - v s % A 8 . . .   @                           ",
"                        + +   . = r + . @ @ # @ $ , i L &.%.%.8.9.u.z.s.7.6.3.S D u u y r O X X . .                             ",
"                                O r > = 1 9 4 4 i } o.$.:.0.u.b.k.C.Z.z.s.s.k.v.h.p.H H 0 O + X # X + +                         ",
"                              ; ; + = 9 k B c c } :.8.8.0.u.n.V.V.L.J.V.l.x.G.H.C.M.g.H k @ @ # X . . .                         ",
"                              1 : - w C ` ' / %.8.8.t.t.j.x.V.G.H.I.J.S.x.F.P.L.L.C.N.7.z @ X @ X . . . .                       ",
"                            # p $ k A F [ i.r.t.t.t.u.l.b.D.I.I.Q.`.Q.J.Q.W.Y.P.U.C.c.8.I d @ # X . . . .                       ",
"                            . # 6 j S a.z.z.l.c.l.b.A.D.D.T.(.Q._.}.Q.~.#X$X|.!.P.c.z.1.=.R < @ X . . . . .                     ",
"                            @ 4 i B T v.Z.F.F.F.V.A.K.I.K.Q.`.}.oX}.}.%X=X;X=X).G.V.u.0.0.%.V 2 # . X . = ;                     ",
"                            p 5 < M +.e.F.L.Y.Y.J.I.Q.{._.(.{. XoX%X4X7X1X4X=X`.I.G.k.d.k.y.w.B 3 1 2 . ; o O                   ",
"                            @ # s E =.t.C.P.W.!.`. X$X;X$X>X;X$X%X7X9X9X7X>X,X$X`.U.S.l.z.s.y.3.k t ; @ . . o                   ",
"                          . X , p  .;.t.n.U.(.|.$X;X1X7X1X7X0X1X7X0X0X0X9X9X7X,X>X^.S.m.n.y.q.{ A 8 < f . .                     ",
"                        # p 4 < n %.-.9.l.G.`.#X%X;X1X>X1X0XwXqXwXwXqXqXwX0X9X5X=XQ.H.V.c.d.y.7.T i , 4 X X                     ",
"                        . , @ d | -.-.8.u.S.T. X;X;X1X4X5XwXwXwXwXwXwXwXwXqX0X0X;X).U.V.c.c.y.q.) v X X @ @ . @                 ",
"                        @ - 1 m ..-.:.e.s.m.K._.;X>X4X8X9XwXwXwXwXwXwXwXwXwXwXqX2X*X|.E.H.c.u.7.` l , X . X X                   ",
"                      . @ # & m %.8.0.u.x.m.G.R. X1X8X0XqXwXwXwXwXwXwXwXwXwXwX5X<X&XOX].H.V.l.6.` l w q X . = :                 ",
"                      . . . # x o.-.8.u.b.m.G.R._.=X6X9XqXwXwXwXwXwXwXwXwXwX0X2X&XOX|.!.F.V.k.{ ` D w r O . +                   ",
"                    . X X . , K $.;.0.u.l.m.G.Q.~.|.,X5X0XwXwXwXwXwXwXwXwXqX5X:X=X|.(.E.H.B.d.[ ] ` a $ % . .                   ",
"                    . . . . < b  .-.8.u.k.A.G.Q.~._.[.*X9XwXwXwXwXwXwXwXqX8X3X-XoX!.I.I.C.k.y.4.( g , 4 , . .                   ",
"                  . . . . X , p E *.0.t.j.m.D.K.E.^.).XX5X9XwXwXwXwXwXwXqX6X<XoX_.K.J.D.k.8.-...m d @ 4 # .                     ",
"                    #   . + & 6 L %.8.0.u.k.m.G.J.U.).[.*X3X9XqXqXqXwXqX5X,X+X].E.G.A.l.9.;.-.Q B g X . . .                     ",
"                        . . X 5 U &.8.0.t.u.b.A.G.J.Y.'.+X@X<X6X6X8X5X<X[.^.W.E.S.m.k.t.8.-.-.&.P f , , . .                     ",
"                      X , . < < L  .:.8.8.u.b.V.S.F.L./..X.X+X@X*X*XOX'.W.P.L.L.S.b.u.9.;.:.:. .z 4 z p X o                     ",
"                    @ X X . @ @ p I =.:.:.8.u.x.l.m.C.Y./.).).'.'.'.'.'.Y.L.L.F.V.l.u.8.-.-.| z 5 4 < . . .                     ",
"                      . X X . @ # z | :.:.8.0.u.l.b.V.P./.W.W.W.!.E.W.Y.Y.H.B.c.d.s.y.:.-.-.U 4 i x @ . . .                     ",
"                        @ # . . # < n =.:.8.8.e.j.V.V.V.L.P.P.U.E.U.L.F.L.C.c.d.s.y.0.;.-.! K p < @ . . . .                     ",
"                        . . . . X # i K %.8.8.8.y.j.k.c.C.F.H.G.H.H.C.n.z.z.d.s.y.9.:.-.,.d p 5 X . . . . .                     ",
"                        . . . . , < < f !  .>.8.t.y.s.j.x.n.V.m.F.C.c.d.y.y.y.e.8.1.-.R b 5 @ . . . . . . .                     ",
"                        . . . . @ < # 4 d L ..>.e.e.t.y.s.x.x.c.n.c.y.s.e.8.1.1.:.+.P 5 # X . . . . . . .                       ",
"                        . . . . . . . @ # f P Q >.;.8.0.u.s.s.s.d.e.1.e.1.>.-.$.E c & . . . . . . . . .                         ",
"                        . .   . . . X X # # , i b ! &.>.t.y.e.e.e.1.;.-.;.! E R 4 $ . . . . X . . . .                           ",
"                        .       . . . . X # $ < 5 p z ^ 6.6.r.0.>.-.-.$.! d x b X # . . o + . , . .                             ",
"                                  . . . X @ X 4 4 # # a V l ^ / L ! Q W g . @ @ . X . # @ . @ < .                               ",
"                                    . . < , X , @ . X 7 w @ d 4 . # X 5 c @ . . X . @ X . . .                                   ",
"                                      . # 4 . . + . @ + + . X # X + . X 3 . . . . X d @ .                                       ",
"                                        . . X . . . . . . . X X . . . . . . . . . X @ . .                                       ",
"                                            # . . . 6 8 . . X . . . . . . . . . . . . . .                                       ",
"                                                    3 7 . . . . .     5                                                         ",
"                                                                                                                                ",
"                                                                                                                                ",
"                                                                                                                                ",
"                                                                                                                                ",
"                                                                                                                                ",
"                                                                                                                                ",
"                                                                                                                                ",
"                                                                                                                                ",
"                                                                                                                                ",
"                                                                                                                                "
};
