/* XPM */
static char *door101703585268[] = {
/* columns rows colors chars-per-pixel */
"64 64 216 2 ",
"   c None",
".  c #020100",
"X  c #0B0101",
"o  c #070907",
"O  c #0B0907",
"+  c #0C0C09",
"@  c #130202",
"#  c #1B0202",
"$  c #130C0A",
"%  c #1B0C0A",
"&  c #120907",
"*  c #0F100D",
"=  c #11120E",
"-  c #19110E",
";  c #141511",
":  c #191511",
">  c #1C1B16",
",  c #181A15",
"<  c #230202",
"1  c #2B0202",
"2  c #210806",
"3  c #250C0A",
"4  c #2D0A08",
"5  c #330303",
"6  c #3A0303",
"7  c #380B09",
"8  c #2B130E",
"9  c #3C120F",
"0  c #221511",
"q  c #231E18",
"w  c #2A1A15",
"e  c #371A15",
"r  c #24231C",
"t  c #2C221C",
"y  c #32241D",
"u  c #312A22",
"i  c #430303",
"p  c #4C0404",
"a  c #440C0A",
"s  c #4B0B09",
"d  c #540404",
"f  c #5C0505",
"g  c #520908",
"h  c #43100E",
"j  c #431814",
"k  c #491713",
"l  c #571B16",
"z  c #640404",
"x  c #6B0606",
"c  c #690B09",
"v  c #750606",
"b  c #7D0506",
"n  c #760B09",
"m  c #6F110F",
"M  c #691814",
"N  c #761512",
"B  c #72130B",
"V  c #43261E",
"C  c #58231D",
"Z  c #76231D",
"A  c #63251E",
"S  c #4C2E25",
"D  c #612F25",
"F  c #6E392E",
"G  c #850707",
"H  c #840908",
"J  c #8C0A09",
"K  c #8C0707",
"L  c #940909",
"P  c #9C0908",
"I  c #970707",
"U  c #9E100E",
"Y  c #8A1916",
"T  c #991311",
"R  c #AB0D09",
"E  c #AB0707",
"W  c #B80A0A",
"Q  c #B2100C",
"!  c #B81B17",
"~  c #A61512",
"^  c #86231D",
"/  c #99241E",
"(  c #A2201B",
")  c #AE221D",
"_  c #862922",
"`  c #982A23",
"'  c #8C382E",
"]  c #AB342A",
"[  c #C30C0C",
"{  c #CA0E0C",
"}  c #C20202",
"|  c #D30D0C",
" . c #DD0B0A",
".. c #CD100E",
"X. c #DA140F",
"o. c #CA1412",
"O. c #C81917",
"+. c #D61513",
"@. c #E20D0D",
"#. c #E90C0B",
"$. c #FC0D0D",
"%. c #F40F0F",
"&. c #E3110F",
"*. c #ED1514",
"=. c #E21814",
"-. c #FD1514",
";. c #FD1917",
":. c #FE1B1B",
">. c #F31715",
",. c #D3211D",
"<. c #FE221E",
"1. c #E8231F",
"2. c #C8332A",
"3. c #D52B26",
"4. c #EA2A25",
"5. c #FF2422",
"6. c #FF2923",
"7. c #FF2C2A",
"8. c #F32B26",
"9. c #E9322C",
"0. c #FF322D",
"q. c #F4332B",
"w. c #FF3432",
"e. c #FE3A34",
"r. c #FF3D3A",
"t. c #F43A35",
"y. c #BC4C3D",
"u. c #AA4639",
"i. c #D34237",
"p. c #FF433C",
"a. c #FE4A3D",
"s. c #FF4637",
"d. c #C65141",
"f. c #FF4442",
"g. c #FF4B44",
"h. c #FF4D49",
"j. c #FE5146",
"k. c #FF524B",
"l. c #FF5B4B",
"z. c #F25646",
"x. c #FF5752",
"c. c #FF5B53",
"v. c #FF5E5A",
"b. c #E05849",
"n. c #FF664E",
"m. c #FF6254",
"M. c #FF635B",
"N. c #FF6A5D",
"B. c #FF6857",
"V. c #FF6662",
"C. c #FF6C64",
"Z. c #FF6D69",
"A. c #FF7265",
"S. c #FF7B63",
"D. c #FF746B",
"F. c #FF7A6D",
"G. c #FF7D73",
"H. c #FF7773",
"J. c #FF806E",
"K. c #FF8475",
"L. c #FF857B",
"P. c #FF8A7D",
"I. c #FF8E73",
"U. c #FF947B",
"Y. c #FF9175",
"T. c #FF8C82",
"R. c #FF9384",
"E. c #FF9A85",
"W. c #FF958A",
"Q. c #FF9B8C",
"!. c #FF9D91",
"~. c #FFA08D",
"^. c #FFAC8C",
"/. c #FFA181",
"(. c #FFA394",
"). c #FFA699",
"_. c #FFAC9A",
"`. c #FFA997",
"'. c #FFB39C",
"]. c #FFB996",
"[. c #FFAFA0",
"{. c #FFB4A3",
"}. c #FFBBA7",
"|. c #FFBDAA",
" X c #FFC69B",
".X c #FFC1A6",
"XX c #FFCDA5",
"oX c #FFC3AC",
"OX c #FFCBAC",
"+X c #FFDEAB",
"@X c #FFD6AA",
"#X c #FFC5B2",
"$X c #FFCBB2",
"%X c #FFCAB8",
"&X c #FFD4BB",
"*X c #FFDBBC",
"=X c #FFD8B4",
"-X c #FFE7B9",
";X c #FFDEC3",
":X c #FFDAC4",
">X c #FFE2C4",
",X c #FFE1C9",
"<X c #FFEBCA",
"1X c #FFF6CC",
"2X c #FFFBCB",
"3X c #FFF4C3",
"4X c #FFEAD3",
"5X c #FFF3D4",
"6X c #FFFDD4",
"7X c #FFFBDB",
"8X c #FFF5DB",
"9X c #FFFEE4",
"0X c #FFFDEC",
"qX c #FFF7E8",
"wX c #FFFFF4",
"eX c #FFFFFE",
/* pixels */
"                                                                                                                                ",
"                                                                                                                                ",
"                                                                                                                                ",
"                                                                                                                                ",
"                                                                                                                                ",
"                                                                                                                                ",
"                                                                                                                                ",
"                                                                                                                                ",
"                                                                                                                                ",
"                                                            ;                                                                   ",
"                                                                                                                                ",
"                                                                                                                                ",
"                                                            3 @ .         i                                                     ",
"                                                          . 9 % . . . 5 # 1                                                     ",
"                                                    <     & $ % # X . i 1 X <                                                   ",
"                                              . 1 5 # 6 a 3 $ 8 4 @ X . . @ # X         . X                                     ",
"                                            . . . # @ 4 h 9 9 k 9 7 # # 1 # @ # @       . .                                     ",
"                                        X . X . < < 1 s m Y M N m f p 6 p d i p < @ . . . .                                     ",
"                                  . . . . X @ d } G v o.T O.! O.=...[ L K W G p 1 @ # X . + .                                   ",
"                                . . X . @ 1 d | $.#.&.:.8.7.7.0.5.5.5.:.>.:.| H x d 5 @ & + X                                   ",
"                            . X . X . X 1 d G  .-.*.:.5.7.w.w.w.w.r.w.7.5.:.:.;.[ G 6 @ 1 . @ d                                 ",
"                        . X . . . . X 1 z x I | :.5.5.5.w.e.f.f.f.f.r.w.7.7.5.5.<.=.U g z 5 X o                                 ",
"                        . . . . X . # d v L  .;.:.5.7.7.r.f.h.h.h.v.x.f.f.g.f.p.r.0.4.N K z @ .   r                             ",
"                          . . X . @ p H Q { :.:.5.7.w.w.h.h.c.c.v.V.Z.v.v.C.C.m.j.k.h.3.+.H g # X X                             ",
"                          . . 1 # X p v | -.:.:.5.e.f.f.x.v.V.V.V.Z.Z.Z.H.Z.V.Z.A.K.m.p.8.( ( 7 X . X                           ",
"                        . . # 6 1 1 z G | -.:.<.7.f.f.x.M.V.Z.H.H.H.T.W.W.W.W.R.G.A.B.k.j.b._ a @ # X                           ",
"                        . . X @ 5 d b [ -.:.:.0.f.h.h.x.v.Z.G.P.L.T.W.!.!.(._.R.T.P.R.P.F.B.i.D 2 6 # r V                       ",
"                        . . . X x b P %.-.-.5.r.h.h.x.v.Z.G.P.Q.!.[.|.|.#XOX%X|..X_.'.E.J.m.b.y.F l 4 . $ h                     ",
"                      . . . . X p b W $.-.:.7.f.k.x.B.D.K.R.Q.Q.'..X&X,X5X6X5X<X;X}.{.E.A.n.m.i.D y & o                         ",
"                      . . . X @ 6 H [ $.:.5.r.k.c.v.A.F.P.R.~.'.=X4XqX0X0X0X9X7X<X$X'.E.F.m.j.] M e @ @ i                       ",
"                    . . . . 1 1 x W  .$.:.7.r.h.c.A.F.P.E.^.XX1X0XeXeXeXwXwXwXwX7X<X$X~.m.j.s.4./ C 3 1 f                       ",
"                    . . . . . # x W $.-.:.7.r.h.N.H.K.U.].+X5XwXeXeXeXeXeXeXeXwX9X1X$X~.N.a.0.6.! k w 8                         ",
"                  . . . . @ # 3 B R  .X.6.e.a.n.S.I.U.^.+X2XwXeXeXeXeXeXeXeXeXwX8X>XoXT.V.h.7.<.,.M e w o     .                 ",
"                  . . . . 5 1 # s P E { <.s.l.B.F.U.^.+X1X0XeXeXeXeXeXeXeXeXeXqX8X&X(.P.C.h.7.5.1.Y k 0 = + . o =               ",
"                  . . . . . # # 6 P R &.<.a.n.S.I.U. X-X7XeXeXeXeXeXeXeXeXeXwXqX:X}.).!.F.h.5.:.! l j 9 = O @                   ",
"                  . . . . . @ % s J R X.<.s.n.S.Y.^.-X2X6XwXeXeXeXeXeXeXeXeXeX4X#X).W.T.H.M.6.>.L a % % . o X                   ",
"                  . . . . . X # 7 n Q  .>.0.l.S.U. X3X6X6X0XeXeXeXeXeXeXeXwX5X$X}._.W.G.D.c.0.;.E 6 X . . O o                   ",
"                  . . . . . @ 1 5 z E @.>.6.h.m.U.@X-X2X2X0XeXeXeXeXeXeX9X7X<X*X|.}.!.Z.x.g.:.$.K 1 # X . X X                   ",
"                    . . . . @ # < 6 K @.*.5.f.l.R.XX-X=X>X7XwXeXeXeXwXwX9X1X,X>X{.).W.K.M.p.<.&.v 6 5 # . . .                   ",
"                    . . . 1 # @ @ # H  .@.>.0.h.F.].OX=X*X6X9XwXwX7X7X9X4X;X;X&X_.T.K.G.C.r.6.O.d i < . . .                     ",
"                      . . . . @ # # p { X.<.6.p.N.Q..XOX=X<X7X5X4X,X8X5X5X;X$X|.).P.D.Z.c.p.6.T p 7 $ . . #                     ",
"                        . . . X # < f P ,.=.6.r.c.P._.'..X>X4X;X|.:X:X:X:X;X$X}._.K.C.M.j.e.8.n # X + . . .                     ",
"                          . . X # 1 5 s R ..4.r.m.K.E.Q.(.{.{.}.{.%X%X#XoX}.OX_.Q.L.V.c.g.0.2.h 5 . . . X @                     ",
"                          . . & c a # < b +.q.a.m.S.J.R.P.L.T.(.[.!.[.|.[.W.Q.G.D.F.C.h.e.w._ 2 X X . . X X                     ",
"                            . X c c 1 6 f ) 2.l.m.B.A.F.V.V.Z.G.T.T.R.(.R.G.F.C.C.c.k.s.9.` e # . . X . . .                     ",
"                            . . X & X & 4 C ] z.l.l.m.g.r.f.V.V.K.H.H.F.C.N.C.M.B.j.p.4.^ V t % @ @ X @ .                       ",
"                              X @ . . . w S F u.i.p.e.5.7.7.h.g.M.D.F.F.A.M.M.c.k.e.9.Z % : > - X X # @                         ",
"                                . . . . : 9 w y j o.-.-.-.:.6.w.g.x.v.M.M.h.g.p.9.` ` j o . . . . $ &                           ",
"                                . . + o + + o & 7 n L I @.;.;.:.q.t.g.j.g.t.3.) Z t t O X . . . . >                             ",
"                                  + r ; > + o o 2 6 5 @ d J K Q / Z _ ' ] ^ e h 9 r y O @ # . .                                 ",
"                                  ; * + * o o O 1 X . . O # @ @ e e C S S > > - @ $ q + X @                                     ",
"                                    . . . . . . 5 @ < # X X # & > r w u w , - % X X o .                                         ",
"                                    . . . . . . . . . f 1 . 6 3 : q X $ ; = # @ # < .                                           ",
"                                o o   .     . . . @ . X X X . . + : 1 i $ - # X X .                                             ",
"                                      .       . . . . . . X . . . o O X o O 1 . . @                                             ",
"                                                . . o o . . . . X X . . . . .                                                   ",
"                                                    . . . . . . + : o . . + =                                                   ",
"                                                    =       . . + >       , ;                                                   ",
"                                                                & &                                                             ",
"                                                                                                                                ",
"                                                                                                                                ",
"                                                                                                                                ",
"                                                                                                                                ",
"                                                                                                                                "
};
