/* XPM */
static char *door301703585271[] = {
/* columns rows colors chars-per-pixel */
"64 64 207 2 ",
"   c None",
".  c #020100",
"X  c #0B0101",
"o  c #0B0907",
"O  c #0B0B09",
"+  c #070807",
"@  c #130101",
"#  c #1B0202",
"$  c #130C0A",
"%  c #1A0B0A",
"&  c #1B0907",
"*  c #0F100D",
"=  c #12110E",
"-  c #1A110E",
";  c #1B1511",
":  c #191913",
">  c #1D1E18",
",  c #141612",
"<  c #240202",
"1  c #2B0303",
"2  c #2A0907",
"3  c #240D0B",
"4  c #2B0C09",
"5  c #330303",
"6  c #3C0303",
"7  c #3C0C09",
"8  c #330B09",
"9  c #2D130F",
"0  c #34120E",
"q  c #3E110E",
"w  c #211410",
"e  c #291914",
"r  c #321612",
"t  c #361814",
"y  c #27231D",
"u  c #3A251E",
"i  c #430404",
"p  c #4A0404",
"a  c #430B09",
"s  c #4C0B0A",
"d  c #530404",
"f  c #5B0505",
"g  c #5A0B09",
"h  c #49110E",
"j  c #5A100D",
"k  c #421A15",
"l  c #491814",
"z  c #501915",
"x  c #5C1915",
"c  c #541714",
"v  c #6B0505",
"b  c #670908",
"n  c #7E0606",
"m  c #780A09",
"M  c #691814",
"N  c #771D18",
"B  c #4E241E",
"V  c #5B221C",
"C  c #53231D",
"Z  c #63251D",
"A  c #6B241D",
"S  c #79231D",
"D  c #512E25",
"F  c #6B2C22",
"G  c #7F2921",
"H  c #8B0909",
"J  c #870808",
"K  c #9B0B0A",
"L  c #930808",
"P  c #801311",
"I  c #8A1210",
"U  c #9D1211",
"Y  c #951714",
"T  c #A10A0A",
"R  c #AD0C0B",
"E  c #B40A0A",
"W  c #BF0F0F",
"Q  c #A71815",
"!  c #BB1E1A",
"~  c #84241E",
"^  c #8A201A",
"/  c #9C201B",
"(  c #A3261F",
")  c #802D25",
"_  c #932821",
"`  c #9D2D25",
"'  c #8D372B",
"]  c #B72922",
"[  c #B6362E",
"{  c #CA0C0C",
"}  c #C20909",
"|  c #D50C0C",
" . c #DC0C0C",
".. c #D9100F",
"X. c #DB1414",
"o. c #D81817",
"O. c #C71F1B",
"+. c #E40E0E",
"@. c #EE0F0F",
"#. c #E7110F",
"$. c #EC1111",
"%. c #E81917",
"&. c #F31615",
"*. c #FD1515",
"=. c #FD1A17",
"-. c #FE1D1C",
";. c #F11C1A",
":. c #E0251F",
">. c #FE221E",
",. c #D32F28",
"<. c #D02B25",
"1. c #D7352C",
"2. c #C73029",
"3. c #E22D26",
"4. c #EA2723",
"5. c #FE2523",
"6. c #F42A24",
"7. c #FE2A26",
"8. c #FF2B29",
"9. c #F42623",
"0. c #FF332D",
"q. c #FF3532",
"w. c #FF3A34",
"e. c #FF3D3B",
"r. c #E53028",
"t. c #B24032",
"y. c #AB4336",
"u. c #D1463A",
"i. c #FF4137",
"p. c #FF423C",
"a. c #FF4C3E",
"s. c #EA493D",
"d. c #CF5445",
"f. c #DD5344",
"g. c #FF4542",
"h. c #FE4B43",
"j. c #FF4C4B",
"k. c #E35142",
"l. c #FF5247",
"z. c #FF544C",
"x. c #FF594B",
"c. c #F0594A",
"v. c #FF5553",
"b. c #FF5B53",
"n. c #FF5C5B",
"m. c #FF614E",
"M. c #FF6253",
"N. c #FF655C",
"B. c #FF6B5D",
"V. c #FF6461",
"C. c #FF6D64",
"Z. c #FF6C68",
"A. c #FE7366",
"S. c #FF736C",
"D. c #FF7A6C",
"F. c #FF7863",
"G. c #FF7C72",
"H. c #FF836C",
"J. c #FF8275",
"K. c #FF8D76",
"L. c #FF847B",
"P. c #FF8B7D",
"I. c #FF927D",
"U. c #FF987F",
"Y. c #FF8D82",
"T. c #FF9382",
"R. c #FF9B85",
"E. c #FF968B",
"W. c #FF9C8B",
"Q. c #FF9D91",
"!. c #FFA38C",
"~. c #FFAD8D",
"^. c #FFA494",
"/. c #FFAA95",
"(. c #FFAD9A",
"). c #FFB095",
"_. c #FFBB95",
"`. c #FFB49C",
"'. c #FFBB9D",
"]. c #FFB6A2",
"[. c #FFBCA3",
"{. c #FFBDA8",
"}. c #FFC4A4",
"|. c #FFC6AD",
" X c #FFCDAF",
".X c #FFD6AB",
"XX c #FFCCB3",
"oX c #FFD4B6",
"OX c #FFDCB6",
"+X c #FFDCBC",
"@X c #FFE5BB",
"#X c #FFE2B4",
"$X c #FFDCC3",
"%X c #FFE3C4",
"&X c #FFEBC3",
"*X c #FFECCB",
"=X c #FFF4CC",
"-X c #FFF1C0",
";X c #FFEED3",
":X c #FFF4D4",
">X c #FFFCD3",
",X c #FFF5DA",
"<X c #FFFDDD",
"1X c #FFFDE3",
"2X c #FFFEEA",
"3X c #FFFFF4",
"4X c #FFFFFE",
/* pixels */
"                                                                                                                                ",
"                                                                                                                                ",
"                                                                                                                                ",
"                                                                                                                                ",
"                                                                                                                                ",
"                                                                                                                                ",
"                                                                                                                                ",
"                                                                                                                                ",
"                                                                                                                                ",
"                                                                                                                                ",
"                                                                                                                                ",
"                                                                                                                                ",
"                                                      . .     @ .       .                                                       ",
"                                            X X . < i @ X X 5 # . @ v 5 . .       1   .                                         ",
"                                              . . X @ X X X . X . . @ # . X i         .                                         ",
"                                                X X X . X . X X X . . # # X 5 X .     . .                                       ",
"                                                . X @ . @ # o # @ X . @ # . . . . . . . . .                                     ",
"                                              . X @ p X < i 2 v d 6 1 p d 1 @ . . . . . . . $                                   ",
"                                        X X @ # X # K v H U K X.| | { | } E K 1 @ . X . . X X                                   ",
"                                      @ @ X 1 i p T &.-.5.8.8.8.5.5.-.*.@.@.@.R K m 7 @ $ $ X X                                 ",
"                                  @ X X # 1 p J E $.5.8.8.8.q.p.q.p.e.p.q.5.-.9.0.0.~ k u 3 @ . .                               ",
"                                @ @ X X 1 f d { -.5.8.8.q.q.g.v.j.j.j.j.g.g.g.g.p.w.2.G A 2 @ X X 8 D $                         ",
"                              X X X . @ i J T &.5.8.8.q.g.j.v.N.v.v.v.v.v.V.C.C.z.l.h.[ S s 5 @ @ $ = +                         ",
"                              X X X < i v R &.5.8.q.g.j.v.V.N.V.V.N.n.n.n.S.D.J.B.B.C.l.,.U j $ X X . .                         ",
"                            X X . @ p f L $.5.8.q.g.v.n.V.Z.Z.S.Z.S.Z.Z.S.G.G.Q.P.D.N.z.h.1.Z e # < d #                         ",
"                          . X X X 1 p m R &.5.q.g.v.n.V.Z.S.S.S.G.L.L.E.E.Q.E.(.^.G.C.B.B.c.G M a 6 6 3 ;                       ",
"                          . X . X # d J ..-.8.g.v.n.n.V.S.G.G.D.J.K.E.^.XX{.(.^.].`.R.R.K.A._ m b 2 @ : 9                       ",
"                      X X X X X @ i f v X.5.q.j.n.V.Z.Z.G.G.K.K.I.!.(.{.$XXXXX|.$XoX^.T.P.D.h.1.[ M 4 = O                       ",
"                      . X X # . < d b H =.8.j.n.Z.Z.S.S.G.L.R.!.~.}.oX*X,X:X;X;X;X$X^.^.L.I.D.d.F k ; + .                       ",
"                      . . 1 5 X 8 b m } -.e.n.n.Z.S.G.J.L.I.!._.OX,X2X2X3X3X2X2X1X$X{.W.I.L.F.u.M r ; $ $ O     =               ",
"                    X + + @ # & 6 b J X.5.g.V.Z.S.G.Y.Y.!.~._.@X2X4X4X3X4X4X3X2X1X*XXXR.A.B.z.q.O.M t k z $                     ",
"              + +   X o o o O & a b U :.8.v.S.G.L.Y.E./.}..X@X2X4X4X4X4X4X4X4X2X1X%X^.G.B.v.g.9.! N M r # X .                   ",
"                  . . . X + O & a P Y 4.w.N.G.G.J.I.).'.#X<X3X4X4X4X4X4X4X4X4X2X,XoX(.J.V.N.p.6.P q & . . . .                   ",
"                  . . + . o + & h I o.6.w.v.D.J.P.!.'.OX<X4X4X4X4X4X4X4X4X4X4X4X1XXXY.G.C.x.w.>.K < $ X X @ @ .                 ",
"                  . . . + * = w x U >.8.w.v.D.I.!.(.}.,X3X4X4X4X4X4X4X4X4X4X4X2X$X].W.Y.N.e.8.=.T @ @ @ . X 1 X                 ",
"              + + . . O O * ; e t ^ 7.7.w.l.A.!./.'.OX2X3X4X4X4X4X4X4X4X4X4X2X*X].Q.Q.Y.C.h.8.-.T # X @ # . X o .               ",
"              O + . . + + O - - t Y 5.>.8.l.D.R.!.}.=X<X3X4X4X4X4X4X4X4X4X2X>XoX(.E.L.G.S.l.i.q.! 2 . @ < X . X X               ",
"                  . . . . O - - r Y -.>.7.g.A.K.W.oX&X>X>X2X3X4X4X4X4X4X2X1X=X|.(.Q.Y.S.z.h.w.w.` 2 # # . X X X .               ",
"                  . . . . + O % q Q =.-.>.i.b.A.T.+X+X%X=X=X<X2X3X3X2X2X1X:X=X*XXX/.E.D.x.p.q.,.B k < @ X X X .                 ",
"                    . . . . X 1 g H  .=.7.8.g.l.J.`.XX%X@X=X>X>X2X%X@X*X*X*X*X%XXX!.P.N.p.w.0.1.B ; # 5 X . . .                 ",
"                    @ . . . X @ @ p Y ;.*.7.p.g.D.!.}.oX@X+X@X@X+X}..XXX+XoX|.(.`.R.B.g.i.i.0.<.A y c i X X . .                 ",
"                      . . . . @ X q ( 0.7.0.w.i.M.U.).}.}.[.}.'.W.(.[.`.].W.I.J.I.D.h.i.q.7.X.N 9 0 w X . . .                   ",
"                        . . . . w V _ r.8.0.i.x.m.H.K.!.(.U.K.S.P.P.T.E.P.G.J.D.D.B.l.w.>. .H 5 # X . X . = O                   ",
"                          . . O y V ~ ( r.0.a.B.m.m.F.I.U.N.M.z.C.N.A.G.D.A.A.M.M.x.g.q.7.R p 1 1 . X . . .                     ",
"                            X - = = V G ] r.s.m.x.m.m.B.x.p.e.g.b.h.z.N.C.b.b.x.h.h.a.7.>.I < X # X . . . + O                   ",
"                          , # & . X 7 a c / y.u.M.x.x.i.5.5.8.w.g.e.p.p.g.l.g.w.i.0.6.>.Q a @ $ @ . . . .                       ",
"                              o + . + # 0 Z ' t.k.h.q.>.-.-.5.8.w.w.w.w.7.5.5.5.w.7.4.( z @ X * O . . X                         ",
"                                . . . $ % B F Z G ] :.+.X.$.*.-.5.7.5.7.-.=.*.=.3.] ` V e . . . . . . #                         ",
"                                  . + = O r 7 7 l d m R R { } +.@.=.*.*.@.+.| &.Q / V r 4 . . . . .                             ",
"                                  + y * . . X X @ < 6 d b J L T J T R E J H n K g z u 9 # . . .                                 ",
"                                  @   : . . . . . # @ # < i f g d 6 i b 6 6 i 5 < @ e y + . .                                   ",
"                                          . . . . < & . # @ 1 i 6 8 1 5 2 2 # @ X . X $ + .                                     ",
"                                          @ . . . . X . . . 5 p < % . X + X X d p o X . .                                       ",
"                                              . . . . . . . . X . . . + . . . i d X       >                                     ",
"                                                . . . . . . . . . . . . . . . .           >                                     ",
"                                                    . . . . . # # . . . . . . O                                                 ",
"                                                        . . . . .                                                               ",
"                                                            .                                                                   ",
"                                                                                                                                ",
"                                                                                                                                ",
"                                                                                                                                ",
"                                                                                                                                ",
"                                                                                                                                ",
"                                                                                                                                "
};
