/* XPM */
static char *door171703585269[] = {
/* columns rows colors chars-per-pixel */
"64 64 201 2 ",
"   c None",
".  c #020000",
"X  c #0B0101",
"o  c #070806",
"O  c #0C0807",
"+  c #0C0C0A",
"@  c #140101",
"#  c #1A0202",
"$  c #120C0A",
"%  c #1D0E0C",
"&  c #170907",
"*  c #0F100D",
"=  c #13120E",
"-  c #1B110E",
";  c #1B1511",
":  c #1B1A14",
">  c #171914",
",  c #230202",
"<  c #2C0202",
"1  c #270807",
"2  c #2D0C0A",
"3  c #230E0C",
"4  c #330303",
"5  c #3B0303",
"6  c #3A0A08",
"7  c #27110E",
"8  c #231511",
"9  c #251C17",
"0  c #2D1F1A",
"q  c #281C17",
"w  c #341B16",
"e  c #371915",
"r  c #26231B",
"t  c #2C231B",
"y  c #35251D",
"u  c #2F2920",
"i  c #3C2B23",
"p  c #352C23",
"a  c #2D3025",
"s  c #430404",
"d  c #4C0404",
"f  c #430E0C",
"g  c #530404",
"h  c #5A0505",
"j  c #560807",
"k  c #411511",
"l  c #591E18",
"z  c #650505",
"x  c #6D0606",
"c  c #740606",
"v  c #7B0606",
"b  c #7B0C0C",
"n  c #770808",
"m  c #681E19",
"M  c #751915",
"N  c #47231C",
"B  c #52271F",
"V  c #5B241E",
"C  c #63251E",
"Z  c #79231D",
"A  c #402A21",
"S  c #4E3127",
"D  c #5D3227",
"F  c #793329",
"G  c #712F26",
"H  c #840505",
"J  c #8D0707",
"K  c #8C0908",
"L  c #930909",
"P  c #9A0707",
"I  c #85120F",
"U  c #8D1311",
"Y  c #A60A0A",
"T  c #AF0A0A",
"R  c #B40A0A",
"E  c #BD0C0C",
"W  c #BF0404",
"Q  c #A6110F",
"!  c #92221D",
"~  c #84261E",
"^  c #8D2D24",
"/  c #9E2721",
"(  c #993026",
")  c #AB2A24",
"_  c #AA3027",
"`  c #B5352B",
"'  c #C40C0C",
"]  c #CD0D0D",
"[  c #D30D0D",
"{  c #DC0D0D",
"}  c #C3110F",
"|  c #C31111",
" . c #D41312",
".. c #E40E0E",
"X. c #E20505",
"o. c #F60F0F",
"O. c #F80202",
"+. c #EA1313",
"@. c #E71918",
"#. c #F31313",
"$. c #FD1414",
"%. c #FF1A17",
"&. c #FF1C1B",
"*. c #EB201B",
"=. c #FF211E",
"-. c #C92D26",
";. c #D32C25",
":. c #D62721",
">. c #C5362C",
",. c #D43F34",
"<. c #D93B32",
"1. c #DB362D",
"2. c #FF2423",
"3. c #FF2925",
"4. c #FF2C2A",
"5. c #F62A25",
"6. c #EB332C",
"7. c #FE332E",
"8. c #F5342C",
"9. c #EF3830",
"0. c #FF3432",
"q. c #FE3C35",
"w. c #FF3C39",
"e. c #F03A32",
"r. c #E12D27",
"t. c #DD473B",
"y. c #FF4136",
"u. c #FF443C",
"i. c #FF493E",
"p. c #FF4442",
"a. c #FF4B44",
"s. c #FF4C4A",
"d. c #FF5244",
"f. c #FF544A",
"g. c #FF5A4D",
"h. c #FF5553",
"j. c #FF5B53",
"k. c #FF5B5A",
"l. c #FF6356",
"z. c #FF645B",
"x. c #FF6B5D",
"c. c #FF6A56",
"v. c #FF6463",
"b. c #FF6B64",
"n. c #FF6D6A",
"m. c #FF7266",
"M. c #FF736B",
"N. c #FF7C6C",
"B. c #FF7572",
"V. c #FF7B72",
"C. c #FF7F79",
"Z. c #FF826E",
"A. c #FF8276",
"S. c #FF847A",
"D. c #FF8A7C",
"F. c #FF907E",
"G. c #FF8E81",
"H. c #FF9384",
"J. c #FF9985",
"K. c #FF9689",
"L. c #FF9C8B",
"P. c #FF9F90",
"I. c #FFA18D",
"U. c #FFA492",
"Y. c #FFAD96",
"T. c #FFAE9B",
"R. c #FFB096",
"E. c #FFB49C",
"W. c #FFBB9D",
"Q. c #FFB6A1",
"!. c #FFBCA3",
"~. c #FFBAA8",
"^. c #FFC09D",
"/. c #FFC1A2",
"(. c #FFC3AA",
"). c #FFCBAC",
"_. c #FFD7AB",
"`. c #FFCEB3",
"'. c #FFC6B1",
"]. c #FFD3B2",
"[. c #FFDDB4",
"{. c #FFD4BA",
"}. c #FFDAB9",
"|. c #FFE2BA",
" X c #FFEABE",
".X c #FFE8B7",
"XX c #FFDEC2",
"oX c #FFE5C3",
"OX c #FFEAC3",
"+X c #FFEBCB",
"@X c #FFE4C8",
"#X c #FFF2C9",
"$X c #FFEED3",
"%X c #FFF5D3",
"&X c #FFF8D5",
"*X c #FFFBDD",
"=X c #FFF3DA",
"-X c #FFFDE3",
";X c #FFFFEB",
":X c #FFFFF3",
">X c #FFFFFE",
/* pixels */
"                                                                                                                                ",
"                                                                                                                                ",
"                                                                                                                                ",
"                                                                                                                                ",
"                                                                                                                                ",
"                                                                                                                                ",
"                                                                                                                                ",
"                                                                                                                                ",
"                                                                                                                                ",
"                                                                                                                                ",
"                                                                                                                                ",
"                                                                  ,                                                             ",
"                                              . X . # < X       X #       . . .                                                 ",
"                                              X . X X X . X X . @ , # , X . X ,                                                 ",
"                                                . . . X @ X X @ # @ @ d 4 @ . X .   X                                           ",
"                                                . d P , d < < 4 4 4 , , < 4 # . . . . X                                         ",
"                                            . . X H O.c s s d h v g c d 5 5 4 4 X X X .                                         ",
"                                          s # X & d v d h c E [ ] L { L x s 5 < # @ @ X @                                       ",
"                                          5 5 4 5 s Y R ] #.$.$.$.#.%.#...R P d 4 , # @ d X                                     ",
"                                        . X h g g n { $.$.$.&.&.2.&.&.&.&.%.#.P b m e & 2 8                                     ",
"                                    . X 4 4 x ' ] $.$.$.&.2.2.3.4.4.2.4.2.2.&.4.0.-.V N 0 w @     .                             ",
"                                  > * @ z J R $.&.&.2.2.2.4.4.0.0.w.0.4.4.3.w.p.q.e.-.( V - 3 & X , 5                           ",
"                                . . # s J { #.&.&.2.4.4.0.w.w.p.p.s.p.p.w.u.a.a.a.q.i.i._ w w % $ 7                             ",
"                              . . # v E @.&.&.&.2.4.w.p.s.h.k.h.k.v.v.k.v.x.k.s.d.d.s.u.:.Z q : : >                             ",
"                            . . X < J ..%.4.7.7.7.w.s.h.v.n.B.B.n.B.n.n.G.S.V.m.c.j.a.q.4.>.F i : % +         :                 ",
"                          + o @ < g Y o.$.7.q.p.a.p.k.v.M.B.V.C.C.C.A.D.G.L.I.P.F.b.u.w.i.i.t.G t 9 $ + $     = o               ",
"                        @ # 5 # h [ ..$.3.q.i.j.k.h.v.B.S.A.A.A.C.S.P.U.I.!.!.E.L.S.g.f.u.q.6.Z k : : > + o                     ",
"                        . . X @ x ..$.$.4.u.s.z.n.v.C.K.L.L.F.S.S.L.E.).^.].).(.!.R.N.c.f.d.q.) V u : + o o                     ",
"                      . . . < < n ..$.$.2.a.h.b.M.C.K.U.P.Y.Y.J.U.^._..X X#XOX+X}.).I.D.m.c.d.<.Z w $ 6 O . . .                 ",
"                      . # 2 < x E o.$.&.4.s.k.n.B.K.P.Q.!.~.!.W.[.+X&X*X-X-X*X*X%X}.E.J.Z.g.q.6.b f % 1 ; $ o .                 ",
"                    X @ 4 6 # d { $.$.2.4.w.f.b.G.T.'.`.+X%X&X-X;X;X>X:X:X;X-X*XoX).W.I.Z.c.p.q.) A ; . o o . .                 ",
"                    . . = & 1 g  .&.3.d.s.j.h.n.U.{.$X=X;X:X>X>X>X>X>X>X>X:X-X*XoX/.E.F.m.x.a.4.) e . o . . . .                 ",
"                  . . . = > 2 W =.q.i.f.z.m.n.G.~.$X*X;X>X>X>X>X>X>X>X>X>X>X:X-X{.~.I.A.j.s.y.+.K g X . . # X .                 ",
"                  . . . . . s X.o.=.y.c.m.D.D.U.~.@X;X>X>X>X>X>X>X>X>X>X>X>X;X*X@X(.G.j.w.2.4.#.T h 1 @ . @ # .                 ",
"                  . . . . o X d } =.g.A.H.H.L.Q.XX+X;X>X>X>X>X>X>X>X>X>X>X:X-X+X{.(.H.g.7.%.&.%.} d < 5 @ . X .                 ",
"                  . . o + . o 7 ! e.g.N.J.U.T.`.+X-X;X>X>X>X>X>X>X>X>X>X>X:X%X`.R.I.D.c.a.7.2.&.R n 4 X . . . .                 ",
"                  . . o * o o . M =.y.f.N.D.E.{.{.=X>X>X>X>X>X>X>X>X>X:X;X*XOXY.I.J.N.l.i.q.q.r.U h # . o . . . .               ",
"                  . . . . . . . z { 7.i.j.m.H.E.~.+X-X:X:X>X>X>X:X*X%X#XoXoX|.Q.H.H.M.l.i.q.q.;.Z # X . . . . . .               ",
"                    . . . . . X j ' =.0.s.z.D.E.).XXoX+X=X&X*X;X=X_.`.}.[.].).!.U.A.x.i.i.y.7.-.C $ . . . . . .                 ",
"                    . . . , # . # K { =.7.u.M.L.Q.).{. X X.X|.{.(.T.Y.E.).~.(.!.L.m.g.7.y.q.7.-.~ < . . . . . .                 ",
"                      . . 4 # X @ , Q 7.y.g.N.I.W.!.].|.[.).E.R.I.U.U.P.U.Y.P.L.H.b.w.2.=.%.:.B y t + . . . . .                 ",
"                          4 5 . @ O N >.u.g.m.I.Y.E.^./.Y.Y.L.G.C.G.K.K.K.L.H.A.N.l.0.&.#.] b % r > + . o + . .                 ",
"                          X d # X : y G 6.i.c.F.L.I.J.H.J.I.H.M.v.b.B.D.D.S.V.N.x.g.y.*.' x s . O . . . * : +                   ",
"                            . . + r 9 t ^ 6.d.m.N.Z.A.A.H.A.m.b.v.k.k.n.V.z.l.z.f.i.1.I d X X . . . . . . . .                   ",
"                              . . O . O r Z 8.i.j.b.b.b.k.k.h.v.h.h.h.s.s.p.w.d.u.u.` M 4 X . . X X . . . o                     ",
"                            a   . . X X $ 8 _ u.f.v.z.j.p.p.s.p.p.p.p.w.0.4.4.w.y.8.^ k g . . . . X @ . .                       ",
"                                @ . X = : t F t.>.,.s.w.w.w.w.0.0.w.0.4.2.2.&.4.-.V t % X . . . . . . .                         ",
"                                  X $ = : y S D i V -.@.2.4.3.2.2.4.2.&.2.#. .E V r ; X X . . . o o .                           ",
"                                    ; $ t p i i y 8 1 s P |  .@.#.%.+.] +.z d 5 X r r @ 5 @ . . .                               ",
"                                    + $ q ; & 9 % . X 4 < 4 h n K R c s K < < X . o = . . . . .                                 ",
"                                      . # , # < . . . # # # , , < 5 # X # # # @ . . . . . . .                                   ",
"                                        X @ @ 4 . . @ # . X X . . . . . @ , # < . . . + :                                       ",
"                                          . . @ < . @ h @ . . X . . X . , 4 @ # . . . .                                         ",
"                                              . X . . X . . . . . X . X . X X . . . .                                           ",
"                                                . . . . . . . X @ . . X . X @ @ . .                                             ",
"                                                    . . . . . . @ . . . . . X X .                                               ",
"                                                        . . . . . . . . . . .                                                   ",
"                                                              . . .                                                             ",
"                                                                                                                                ",
"                                                                                                                                ",
"                                                                                                                                ",
"                                                                                                                                ",
"                                                                                                                                ",
"                                                                                                                                "
};
