/* XPM */
static char *door281703585271[] = {
/* columns rows colors chars-per-pixel */
"64 64 203 2 ",
"   c None",
".  c #020100",
"X  c #0B0101",
"o  c #0A0907",
"O  c #0B0C09",
"+  c #130202",
"@  c #1B0202",
"#  c #130907",
"$  c #140C0A",
"%  c #1A0D0A",
"&  c #13120E",
"*  c #1A100D",
"=  c #141510",
"-  c #1D1511",
";  c #191914",
":  c #230302",
">  c #2B0202",
",  c #240907",
"<  c #220E0B",
"1  c #2B0C0A",
"2  c #320302",
"3  c #3C0404",
"4  c #320C0A",
"5  c #3B0B0A",
"6  c #3D0807",
"7  c #21130F",
"8  c #3B100E",
"9  c #32100D",
"0  c #231611",
"q  c #221C16",
"w  c #2A1E18",
"e  c #361A15",
"r  c #361A16",
"t  c #2B221C",
"y  c #34241D",
"u  c #38201A",
"i  c #2D2B23",
"p  c #3A2B23",
"a  c #440303",
"s  c #4C0504",
"d  c #450B09",
"f  c #4A0908",
"g  c #540505",
"h  c #5E0505",
"j  c #540A06",
"k  c #560B09",
"l  c #47100D",
"z  c #54120E",
"x  c #491A16",
"c  c #531A16",
"v  c #5C1E19",
"b  c #551814",
"n  c #650505",
"m  c #6B0505",
"M  c #610B09",
"N  c #7C0405",
"B  c #780908",
"V  c #661A15",
"C  c #761714",
"Z  c #4C211C",
"A  c #57241D",
"S  c #78231D",
"D  c #502E26",
"F  c #70352C",
"G  c #722A23",
"H  c #850707",
"J  c #880B09",
"K  c #920707",
"L  c #930C0B",
"P  c #9B0A0A",
"I  c #891613",
"U  c #961713",
"Y  c #AD0A0A",
"T  c #A40A0A",
"R  c #B30C0B",
"E  c #B90707",
"W  c #A4100F",
"Q  c #A61412",
"!  c #BA1714",
"~  c #98221C",
"^  c #A1251F",
"/  c #B7231E",
"(  c #842921",
")  c #9B2923",
"_  c #992821",
"`  c #873B31",
"'  c #AA2D23",
"]  c #B62721",
"[  c #A9342C",
"{  c #CD0C0C",
"}  c #C70F0F",
"|  c #D40B0C",
" . c #D80E0E",
".. c #CF110E",
"X. c #D1100F",
"o. c #C41512",
"O. c #CF1B18",
"+. c #DD1D1A",
"@. c #E50E0E",
"#. c #F80707",
"$. c #EB1514",
"%. c #E91A18",
"&. c #FD1413",
"*. c #FE1917",
"=. c #F31C1B",
"-. c #FE1C1B",
";. c #F51615",
":. c #D6221E",
">. c #FF221E",
",. c #C32720",
"<. c #CA2D26",
"1. c #D9312A",
"2. c #CD2F27",
"3. c #E72D26",
"4. c #FE2423",
"5. c #FE2A25",
"6. c #FF2C2A",
"7. c #F62C26",
"8. c #ED342C",
"9. c #E7362E",
"0. c #FD332D",
"q. c #FF382D",
"w. c #FF3432",
"e. c #FF3A33",
"r. c #FF3D3A",
"t. c #F63F33",
"y. c #E93A32",
"u. c #FF4037",
"i. c #FF433C",
"p. c #FF493D",
"a. c #FF4442",
"s. c #FF4B43",
"d. c #FF4C4B",
"f. c #FF5244",
"g. c #FF544B",
"h. c #FF594D",
"j. c #F65345",
"k. c #FF5553",
"l. c #FF5D54",
"z. c #FF5D5A",
"x. c #FF614F",
"c. c #FF6457",
"v. c #FF635B",
"b. c #FF695C",
"n. c #FF6662",
"m. c #FF6C64",
"M. c #FF6D6A",
"N. c #FF7366",
"B. c #FF746B",
"V. c #FF796B",
"C. c #FF7671",
"Z. c #FF7C74",
"A. c #FF806C",
"S. c #FF8274",
"D. c #FF8976",
"F. c #FF847B",
"G. c #FF8A7C",
"H. c #FF927E",
"J. c #FF8B82",
"K. c #FF8580",
"L. c #FF9584",
"P. c #FF9B84",
"I. c #FF938A",
"U. c #FF9C8C",
"Y. c #FF9C91",
"T. c #FFA38B",
"R. c #FFAA8F",
"E. c #FFA494",
"W. c #FFAB96",
"Q. c #FFAC9A",
"!. c #FFB39C",
"~. c #FFBA9E",
"^. c #FFB696",
"/. c #FFAEA1",
"(. c #FFB3A2",
"). c #FFBCA4",
"_. c #FFBCA9",
"`. c #FFC3A5",
"'. c #FFC3AC",
"]. c #FFCBAB",
"[. c #FFC9A5",
"{. c #FFCDB1",
"}. c #FFD4B4",
"|. c #FFDBB3",
" X c #FFDCB9",
".X c #FFE2AD",
"XX c #FFE3BD",
"oX c #FFDCC0",
"OX c #FFE3C2",
"+X c #FFE4C9",
"@X c #FFEDCB",
"#X c #FFEBC5",
"$X c #FFF5CD",
"%X c #FFEDD1",
"&X c #FFF3D4",
"*X c #FFFBD5",
"=X c #FFF3D9",
"-X c #FFFDDB",
";X c #FFFCE4",
":X c #FFFEEC",
">X c #FFF7E0",
",X c #FFFFF5",
"<X c #FFFFFE",
/* pixels */
"                                                                                                                                ",
"                                                                                                                                ",
"                                                                                                                                ",
"                                                                                                                                ",
"                                                                                                                                ",
"                                                                                                                                ",
"                                                                                                                                ",
"                                                                                                                                ",
"                                                                                                                                ",
"                                                                                                                                ",
"                                                                                                                                ",
"                                                                                                                                ",
"                                                              .                                                                 ",
"                                                    . . . a a . . Y h .   X X     : . .                                         ",
"                                                  g @ . . X + . . g f X . @ > + + X . .                                         ",
"                                                    X . . . . . . . X : @ 2 > X X X . . .                                       ",
"                                      +     . X X X X @ X + + : @ X + 2 : > @ X X X : . .                                       ",
"                            O         a : . X X X @ X a a s n J H g m m m n 3 + X + @ # X .                                     ",
"                            o     . N #.N X @ X : m g Y { R } X.| Y  .T R Y m s a s : + X X &                                   ",
"                              . # # : E m @ 2 2 H =.$.;.4.4.6.5.4.4.-.=.;.&.$.} K N > 2 @ X X                                   ",
"                              . O * # , : 2 n K | 4.6.6.w.w.a.d.d.d.a.r.6.5.5.4.7.O.z b b @ X . > s                             ",
"                                . O $ 8 f a R ;.=.6.6.w.a.d.d.k.k.k.k.k.d.r.a.s.s.i.2.( v 3 : # X 6 o                           ",
"                              . o % < 5 C P $.4.6.6.a.d.d.k.z.v.z.z.k.k.z.k.c.k.g.g.a.1.! n > + # ; o                           ",
"                            . . o - 1 z U =.5.w.a.d.d.z.z.M.M.M.n.z.M.n.M.S.Z.l.g.c.b.i.;.K s > X > X X                         ",
"                      X . . . . X 1 z I %.6.w.r.d.n.n.M.M.C.C.B.Z.Z.B.M.Z.K.J.C.N.N.b.l.w./ b 4 > a a @                         ",
"                      X X . . . + 5 b ! 4.0.i.k.v.M.C.C.Z.Z.C.C.K.K.I.I.J.J.I.U.Z.l.z.v.l.y.I f a @ : , @     X                 ",
"                        . . . . @ a M O.5.w.d.z.n.C.C.Z.F.F.S.F.G.G.E.(.E.Y.Q.Q.W.F.V.V.N.r.=.W 6 : 0 9 3   X X                 ",
"                      . . X X X 2 s B =.6.r.k.M.M.C.Z.I.G.L.L.T.L.E._.'._.'._.'.'.E.F.V.N.g.q.,.V 4 7 % # X X .                 ",
"                      . . . . X 3 h R *.4.a.z.M.C.J.J.K.I.L.T.P.T.].oX+X+XoX%X%X XQ.L.S.S.V.c.j.( r # # X X X #                 ",
"                    o . . . X + a B o.-.6.z.C.F.J.Y.Y.U.E.E.^.[.OX&X:X;X;X;X:X;X%XE.U.L.D.V.l.i.2.A % x , X % q                 ",
"                  # . o o 8 8 8 B R %.5.a.m.Z.J.Y.(./.'.[..X.X*X,X<X<X,X,X,X:X:X=X).G.S.N.g.i.0.' A u V < X X X                 ",
"              O = O . $ ; x w y S U :.6.s.C.J.U.(.'.'.}.XX*X;X,X<X<X<X<X<X,X,X:X@X`.L.V.c.a.6.0.] r < % : + X X                 ",
"                  . . . & - t u ( ~ 2.e.k.G.U.T.Q.].].OX&X,X<X<X<X<X<X<X<X<X<X:X#X!.D.N.c.s.4.4.%.k + > 1 + + .                 ",
"                  . . . . - q Z ( ^ 1.r.l.F.I.U.!.`.}.$X,X<X<X<X<X<X<X<X<X<X,X;X$X~.L.V.c.g.q.&...k 2 X X : > .                 ",
"                  . . . X - i D ` ' 8.i.c.Z.L.E.`.|.XX=X<X<X<X<X<X<X<X<X<X<X,X>X{.(.T.N.g.0.*.*.{ 3 + > : : X X +               ",
"                . o . . & - t D F [ p.f.l.N.H.Q.{.XX#X:X<X<X<X<X<X<X<X<X<X<X;X}.!.Q.G.N.l.a.6.-.| m X 2 : . . .                 ",
"                & & . . $ % ; t x ) 0.w.i.h.H.(.].#X-X:X,X<X<X<X<X<X<X<X,X,X@X].W.U.Z.m.l.g.u.5.$.g . X X . . .                 ",
"                  . X . X X * q x ' 5.5.0.a.Z.U.Q.{.&X=X;X:X,X<X<X<X<X:X-X*X$X].W.U.S.n.g.p.u.e.,.3 2 . . . . .                 ",
"                  . @ X X X o * r ) 6.5.6.r.m.Z.I.'. XoX#X@X-X,X,X:X-X*X$XOX X}.~.G.V.b.g.r.e.7.~ @ X + . . . .                 ",
"                    @ . $ . X . j L ;.&.*.4.e.k.Z.E._.}.OXOX#X$X-X X|. XXX X}.].!.S.l.u.u.u.e.3.~ : 2 3 . . . .                 ",
"                      + . . o + 2 3 o.5.5.5.e.g.b.U.).]. X}.`.[. X'.~.~.~.W.T.T.P.m.i.0.0.e.3.) A e : . . . . .                 ",
"                        . . . o . # C 8.q.0.u.s.h.V.P.`.).^.R.P.U.T.R.W.U.H.D.A.V.g.w.4.-.X.P H l 0 . . O o . .                 ",
"                          . . . o w _ 9.q.0.r.h.x.c.A.H.T.L.S.N.N.H.H.L.G.D.V.N.c.c.p.4.*.R N s @ . . . = ; . .                 ",
"                          . . . - y c ] 7.7.u.f.x.x.b.V.D.N.g.l.l.b.b.S.S.V.b.h.h.h.r.7.:.X.n > + o . . . . .                   ",
"                            O . O # 3 c ' 7.0.p.f.h.h.h.a.w.r.a.s.g.g.c.c.h.a.s.p.s.u.<.Q K j @ + X . . . . .                   ",
"                          i = . o . + + d V ' u.p.j.p.q.4.-.4.w.u.a.i.u.q.0.4.6.i.8.<.' L h 5 # X X X X . .                     ",
"                              X @ . X + + 7 Z ' 0.0.0.>.*.*.*.>.5.5.5.5.4.-.*.7.9.<._ _ f + X X X X . . .                       ",
"                                . . o o # 0 y z L Q %.&.&.&.&.*.-.>.-.*.*.#.@. ./ _ S Z , + X . . . . .                         ",
"                                  . . & o # + @ : 2 g H Y R T R R o.+.R R K K B U G A < > + . . . . &                           ",
"                                  @ & o . . X X + @ @ 2 3 > 2 g 2 2 g s s f 3 3 3 e p & . . . . .                               ",
"                                    X - % . . . X @ @ @ : : , 3 : % @ > d + X @ X # = o . . .                                   ",
"                                    . o X . . . . . @ @ + + : 2 @ # X # : X X : k 1 . . .                                       ",
"                                      .     + . . . . + X . X > + X . . . . . @ n 2 .   ;                                       ",
"                                      .         . . . X . . . . . . . . . . . .                                                 ",
"                                                  . . . . . . . > + . . . . . . X                                               ",
"                                                      . . . . . + . . .         >                                               ",
"                                                          . . .                                                                 ",
"                                                                                                                                ",
"                                                                                                                                ",
"                                                                                                                                ",
"                                                                                                                                ",
"                                                                                                                                ",
"                                                                                                                                ",
"                                                                                                                                "
};
