/* XPM */
static char *door351703585272[] = {
/* columns rows colors chars-per-pixel */
"64 64 208 2 ",
"   c None",
".  c #020000",
"X  c #0B0202",
"o  c #0C0807",
"O  c #0D0D0A",
"+  c #070A08",
"@  c #130202",
"#  c #1B0202",
"$  c #1A0907",
"%  c #130D0A",
"&  c #1C0C09",
"*  c #13120E",
"=  c #1A100D",
"-  c #151511",
";  c #1B1511",
":  c #171914",
">  c #1B1A15",
",  c #1C1E18",
"<  c #230302",
"1  c #2C0303",
"2  c #2C0907",
"3  c #210B09",
"4  c #2B0A09",
"5  c #270907",
"6  c #330303",
"7  c #3B0303",
"8  c #320A09",
"9  c #370B09",
"0  c #2F110E",
"q  c #39110E",
"w  c #221B16",
"e  c #2C1B15",
"r  c #261813",
"t  c #301713",
"y  c #341E18",
"u  c #371C16",
"i  c #2A221C",
"p  c #21221B",
"a  c #332D24",
"s  c #440505",
"d  c #4A0504",
"f  c #440B09",
"g  c #4C0D0B",
"h  c #450906",
"j  c #540404",
"k  c #5C0504",
"l  c #5B0906",
"z  c #47100D",
"x  c #55110E",
"c  c #481D18",
"v  c #5E1B14",
"b  c #640505",
"n  c #6A0606",
"m  c #650907",
"M  c #660B0A",
"N  c #770908",
"B  c #73100E",
"V  c #781915",
"C  c #671C17",
"Z  c #49241D",
"A  c #44261E",
"S  c #54241D",
"D  c #72211C",
"F  c #55352B",
"G  c #532F26",
"H  c #703129",
"J  c #6B4134",
"K  c #890908",
"L  c #940A09",
"P  c #9B0A09",
"I  c #8E100F",
"U  c #861915",
"Y  c #921210",
"T  c #A20D0B",
"R  c #AC0B0A",
"E  c #BB0B0A",
"W  c #B60C0B",
"Q  c #A91916",
"!  c #B81312",
"~  c #8F231D",
"^  c #90211C",
"/  c #903028",
"(  c #A72C25",
")  c #BB2C26",
"_  c #BB3229",
"`  c #A8362D",
"'  c #C10B0B",
"]  c #CC0C0C",
"[  c #D50E0E",
"{  c #DC0E0C",
"}  c #C41A17",
"|  c #D71514",
" . c #E30D0D",
".. c #EC0E0D",
"X. c #FA0E0E",
"o. c #EE100F",
"O. c #F6100F",
"+. c #ED1212",
"@. c #E51917",
"#. c #E61615",
"$. c #F51312",
"%. c #FE1414",
"&. c #FC1817",
"*. c #FE1C1B",
"=. c #F81919",
"-. c #DC221C",
";. c #FF211E",
":. c #DB2A24",
">. c #D4362E",
",. c #E92E27",
"<. c #FF2523",
"1. c #FE2926",
"2. c #FF2D2A",
"3. c #F32A26",
"4. c #FF322D",
"5. c #F7362E",
"6. c #ED3B33",
"7. c #FF3432",
"8. c #FF3A35",
"9. c #FF3D3A",
"0. c #F43A32",
"q. c #974539",
"w. c #AB4639",
"e. c #DB493C",
"r. c #FF433D",
"t. c #EF453A",
"y. c #D54C40",
"u. c #C75143",
"i. c #FF4641",
"p. c #FF4B44",
"a. c #FF4E4B",
"s. c #F44C42",
"d. c #E65042",
"f. c #FF5246",
"g. c #FF534C",
"h. c #FF594E",
"j. c #FF5652",
"k. c #FF5C54",
"l. c #FF5E5A",
"z. c #FF6255",
"x. c #FF645B",
"c. c #FF6A5D",
"v. c #FF6C63",
"b. c #FF6C69",
"n. c #FF6360",
"m. c #FF7365",
"M. c #FF7A66",
"N. c #FF746A",
"B. c #FF7B6E",
"V. c #FF7D72",
"C. c #FF7B76",
"Z. c #FF8373",
"A. c #FF857A",
"S. c #FF8C7D",
"D. c #FF8977",
"F. c #FF967E",
"G. c #FF8D81",
"H. c #FF9484",
"J. c #FF9A85",
"K. c #FF9589",
"L. c #FF9B8B",
"P. c #FF9D91",
"I. c #FFA386",
"U. c #FFA28D",
"Y. c #FFA98C",
"T. c #FFB38E",
"R. c #FFA594",
"E. c #FFAA93",
"W. c #FFAD9C",
"Q. c #FFB493",
"!. c #FFB39D",
"~. c #FFBA9D",
"^. c #FFBB97",
"/. c #FFB5A2",
"(. c #FFBBA5",
"). c #FFBDA9",
"_. c #FFC99E",
"`. c #FFCCA3",
"'. c #FFC4AC",
"]. c #FFCBAA",
"[. c #FFC1A7",
"{. c #FFD9AA",
"}. c #FFCCB4",
"|. c #FFCFB8",
" X c #FFD4B4",
".X c #FFDDB5",
"XX c #FFD3BB",
"oX c #FFDBBE",
"OX c #FFE4BA",
"+X c #FFF4BD",
"@X c #FFDEC4",
"#X c #FFE5C6",
"$X c #FFEDC4",
"%X c #FFE5CA",
"&X c #FFECCC",
"*X c #FFF3C2",
"=X c LemonChiffon",
"-X c #FFF9C7",
";X c #FFEDD3",
":X c #FFF4D3",
">X c #FFF5DB",
",X c #FFFCDB",
"<X c #FFFAD3",
"1X c #FFFDE2",
"2X c #FFFEEC",
"3X c #FFF6E2",
"4X c #FFFFF3",
"5X c #FFFFFE",
/* pixels */
"                                                                                                                                ",
"                                                                                                                                ",
"                                                                                                                                ",
"                                                                                                                                ",
"                                                                                                                                ",
"                                                                                                                                ",
"                                                                                                                                ",
"                                                                                                                                ",
"                                                                                                                                ",
"                                                                                                                                ",
"                                                                                                                                ",
"                                                  . X @         1 # .       .                                                   ",
"                                                  . X @ @ . .   $   . . < 6 .                                                   ",
"                                                    . . . . X X o . . . @ # . .                                                 ",
"                                                    . X X X * o . . X X . X X . #   .                                           ",
"                                                . . # 1 X . o X . X X . X @ 6 X d 7 .           O                               ",
"                                              . . . X @ @ . X . X + @ 1 X . X . X . . .                                         ",
"                                        . . X . . X . # K 6 f I 7 j b d < X X X X . . . .   o                                   ",
"                                    . . . X . X X < 1 < ] ' ! 1.}  .o.R P s s @ . % O O O O % X                                 ",
"                                  . X @ X . X X 1 R E E +.*.2.7.<.;.&.&.=. .E N 2 = * O O * % o <                               ",
"                              . . . X < # X 6 b K ] o.%.<.8.8.8.7.<.<.<.<.*.&.*.} q = = = * X X X @                             ",
"                              X X X < 7 # < b E ..%.;.<.8.9.9.r.8.2.2.2.7.1.1.2.4.-.U Y t * % o X .                             ",
"                            . . . X X 6 j k L { %.%.<.7.r.i.i.p.i.9.9.9.8.8.4.8.r.8.1.Q y w w % % %                             ",
"                          X X . . X @ s N T  .X.&.<.2.7.p.g.l.c.j.j.j.a.j.l.h.r.8.f.r.>.^ e i , w ; .                           ",
"                        . X . X @ 7 j n R  .o.&.<.7.8.9.j.v.B.C.B.c.z.z.v.b.m.c.j.l.g.i.,.~ G i = $ o                           ",
"                      . X . . . 1 n b N {  .%.<.8.p.a.a.N.C.G.G.A.B.M.M.m.B.S.C.m.v.j.f.h.u.q.F = 1 X 1                         ",
"                      .   @ X @ 7 n b L X.%.;.7.p.j.l.n.N.A.J.J.J.I.F.Z.Z.J.J.A.G.Z.Z.B.m.z.e.F e w r q s                       ",
"                          b j 7 j b L  .%.&.1.p.c.c.b.C.C.H.K.L.Y.T.^.Y.I.~.'./././.).K.M.z.y.w.F a A q . .                     ",
"                          # # < b L E o.&.*.7.j.v.M.Z.Z.G.K.U.Q.^.Q.]. X X#X&XXX}.'./.E.D.z.f.e.J a w X . .                     ",
"                        . . . 1 P E E #.*.<.8.k.M.V.A.D.U.U.^._._.{.:X2X<X$X%X%X}.'./.W.S.z.r.t./ = o . . +                     ",
"                        . . # M T ' [ =.<.2.r.l.M.Z.D.I.~.`.$X-X=X,X4X5X4X,X>X,X$XoXoX'.J.m.i.<.L 1 @ . @ X                     ",
"                      . . . < N W [ %.<.2.9.p.x.m.A.I.Q.`.+X=X1X4X5X5X5X4X1X1X,X:X&X@X'.G.z.r.@.k # X X . o :                   ",
"                    . . . . # K ' [ &.<.2.9.j.c.B.F.T.Q.{.,X2X4X5X5X5X5X5X4X1X,X>X%XXX(.Z.l.r.3.N 6 X . . z %                   ",
"                    . . . . # K ' +.*.<.4.r.a.k.B.H.Q._.OX4X5X5X5X5X5X5X5X5X2X1X3X@X).K.B.x.f.7.:.v @ . * r +                   ",
"                  . . . . . # K ' o.&.<.7.p.j.l.B.H.U.OX<X4X5X5X5X5X5X5X5X5X4X3X@X).K.b.V.x.p.5.U f @ . . . .                   ",
"                  . . . . . 5 P E +.;.1.4.r.j.x.Z.U.].=X2X5X5X5X5X5X5X5X5X5X4X;X|.K.C.b.k.g.9.@.f 6 # X . . .                   ",
"                  . . . . . $ M [ &.*.;.2.8.p.x.F.!. X=X,X5X5X5X5X5X5X5X5X4X2XXX/.K.b.l.a.a.2.W 2 @ X . . . . .                 ",
"                  . . . . . X s W X.&.*.2.7.a.l.H.!. X*X:X4X5X5X5X5X5X5X5X1X;X}.W.P.b.n.a.9.2.U g 5 X X # . . .                 ",
"                  . . . . . . @ k { %.&.1.7.i.c.J.!.]..X*X2X5X5X5X5X5X5X4X;XXXXX/.K.C.N.a.7.;.B 8 % o 5 s X . .                 ",
"                  . . . . . . @ n ] %.;.*.<.7.v.H.L.W.]..X:X2X4X4X4X5X4X4X;XXXoX(.L.P.C.l.2.Q 8 2 $ o @ X . . .                 ",
"                    . . . . . @ 6 ' %.&.&.*.2.x.A.K.W.(.'.$X,X1X>X>X4X4X3X@XXX'.R.L.G.b.h.0.x 4 3 $ o X . . . .                 ",
"                    . . . . . . # k [ X.%.*.7.j.V.K.R.!./.XX&XoXXX#X:X;X%X}.).).!.L.B.k.r.5.V < @ o o o + . .                   ",
"                    . . . . . . X 1 b  .%.%.<.i.M.S.L.R./.'.}.~.).}.@XXX(./.(.R.U.B.x.p.t./ U 7 . X 2 s o .                     ",
"                      . . . . . @ < d T  .;.4.g.m.B.S.H.U.L.K.L.R.R.W./.R.K.S.M.M.z.h.r._ S 0 @ # @ < @ . .   + +               ",
"                        . . . . < 7 # 2 B :.4.i.c.m.Z.B.m.v.m.M.Z.H.A.G.A.B.Z.z.k.h.t.( G Z r X @ @ . . .                       ",
"                          . . . . 6 6 $ u H 6.g.z.z.m.h.i.p.r.9.a.z.M.B.c.k.c.g.r.r.e.C 0 c y o . X . .                         ",
"                            . . X . . O p F q.e.s.g.8.2.4.7.7.7.i.g.k.c.c.f.h.r.r.` D x < # o . . . . .                         ",
"                            . . X . + , a a F H / _ =.&.7.2.<.7.i.g.z.c.g.i.8.2._ Z f 1 $ . . . o >                             ",
"                              . . . . : p p i y c D P +.=.%.*.;.8.r.f.h.r.2.@.Y Z A 3 < 2 . . .                                 ",
"                                . + . O > : * t 4 8 7 B I ' O.$.2.5.:.>.) ! k 1 5 0 % X @ . .                                   ",
"                                * , . + + . $ g . . # @ s n N P | ( f g S 6 1 # 7 1 7 + +                                       ",
"                                  O   . . . . X . . @ @ 5 7 @ 1 B A 5 < 5 # 6 3 # 7 1 > :                                       ",
"                                  O O     . . . . . . 2 6 X o @ # @ X . X X . . . . .                                           ",
"                                  -         . . . . . o < . . X X . . . . ; @ # . .                                             ",
"                                                . . + . @ . . X & > . . . u 7 6                                                 ",
"                                                      . . . . * + O . . . +                                                     ",
"                                                          . . O . . . . . .                                                     ",
"                                                                                                                                ",
"                                                                                                                                ",
"                                                                                                                                ",
"                                                                                                                                ",
"                                                                                                                                ",
"                                                                                                                                ",
"                                                                                                                                "
};
