/* XPM */
static char *door261703585270[] = {
/* columns rows colors chars-per-pixel */
"64 64 214 2 ",
"   c None",
".  c #020100",
"X  c #0B0202",
"o  c #0A0907",
"O  c #0C0C09",
"+  c #060907",
"@  c #130201",
"#  c #1B0101",
"$  c #140907",
"%  c #130D0B",
"&  c #1A0C0A",
"*  c #14110E",
"=  c #1F100D",
"-  c #151612",
";  c #1A1A15",
":  c #1A1511",
">  c #230202",
",  c #2C0302",
"<  c #270C0A",
"1  c #2A0D0B",
"2  c #250B06",
"3  c #340303",
"4  c #3B0403",
"5  c #3A0907",
"6  c #370908",
"7  c #32100D",
"8  c #2B1512",
"9  c #271B16",
"0  c #381914",
"q  c #24211B",
"w  c #2A231C",
"e  c #36221C",
"r  c #352D25",
"t  c #36342A",
"y  c #292C22",
"u  c #440303",
"i  c #4B0404",
"p  c #440A08",
"a  c #540505",
"s  c #5B0606",
"d  c #5C0C0A",
"f  c #49110E",
"g  c #56110E",
"h  c #461915",
"j  c #591914",
"k  c #650505",
"l  c #6A0B0A",
"z  c #690A09",
"x  c #7B0606",
"c  c #770C0A",
"v  c #61120F",
"b  c #651A16",
"n  c #771D18",
"m  c #45251D",
"M  c #4F231D",
"N  c #5B251D",
"B  c #69231D",
"V  c #4F3A2F",
"C  c #56332A",
"Z  c #422D24",
"A  c #632B23",
"S  c #7D2A22",
"D  c #702920",
"F  c #693329",
"G  c #77352C",
"H  c #57483A",
"J  c #755D4B",
"K  c #8C0505",
"L  c #860909",
"P  c #8B0A09",
"I  c #840505",
"U  c #940707",
"Y  c #9A0A09",
"T  c #970B0A",
"R  c #8C1311",
"E  c #A30A09",
"W  c #AA0A09",
"Q  c #AC0605",
"!  c #BB0E0D",
"~  c #B20A0A",
"^  c #A0100E",
"/  c #B21815",
"(  c #97241E",
")  c #A5241D",
"_  c #AB241E",
"`  c #B7231D",
"'  c #9D2D24",
"]  c #8E3A30",
"[  c #AE2620",
"{  c #B92B24",
"}  c #A9372E",
"|  c #B1362D",
" . c #CA0C0C",
".. c #C50F0F",
"X. c #D30E0E",
"o. c #D90E0E",
"O. c #DC1111",
"+. c #D51715",
"@. c #CB1712",
"#. c #EB0E0E",
"$. c #E00E0E",
"%. c #F70B0B",
"&. c #E3100F",
"*. c #E91816",
"=. c #F41212",
"-. c #FD1413",
";. c #F31A19",
":. c #FD1C1B",
">. c #F91916",
",. c #DA221D",
"<. c #FE221E",
"1. c #F7201D",
"2. c #E4201C",
"3. c #CB352D",
"4. c #D22923",
"5. c #FE2422",
"6. c #FE2B25",
"7. c #F42A29",
"8. c #FE2B2A",
"9. c #F22722",
"0. c #E8312A",
"q. c #FF332D",
"w. c #F9352C",
"e. c #FF3431",
"r. c #F23A30",
"t. c #FE3C34",
"y. c #FF3D3B",
"u. c #E83029",
"i. c #C64438",
"p. c #FF4137",
"a. c #FF433B",
"s. c #FF493E",
"d. c #F04037",
"f. c #E6463A",
"g. c #9A5B4A",
"h. c #FF4543",
"j. c #FF4B43",
"k. c #FF4C4A",
"l. c #FF5246",
"z. c #FF544B",
"x. c #FF5A4C",
"c. c #F45344",
"v. c #FF5352",
"b. c #FF5C54",
"n. c #FF5D5B",
"m. c #C16351",
"M. c #FF6255",
"N. c #FF635B",
"B. c #FF6A5C",
"V. c #E26553",
"C. c #FF6663",
"Z. c #FF6C63",
"A. c #FF6C69",
"S. c #FF7364",
"D. c #FF736C",
"F. c #FF7A6B",
"G. c #FF7965",
"H. c #FF7572",
"J. c #FF7C74",
"K. c #FF7E79",
"L. c #FF816D",
"P. c #FF8474",
"I. c #FF8B77",
"U. c #FF857C",
"Y. c #FF8B7B",
"T. c #FF927C",
"R. c #FF8680",
"E. c #FF8A83",
"W. c #FF9484",
"Q. c #FF9A84",
"!. c #FF958B",
"~. c #FF9C8A",
"^. c #FF9C91",
"/. c #FFA38F",
"(. c #FFA88C",
"). c #FFA494",
"_. c #FFAB94",
"`. c #FFAD9C",
"'. c #FFB397",
"]. c #FFB39D",
"[. c #FFBA9B",
"{. c #FFAFA2",
"}. c #FFB5A3",
"|. c #FFBBA4",
" X c #FFBDA9",
".X c #FFC3A3",
"XX c #FFC4AC",
"oX c #FFCDAD",
"OX c #FFD2AD",
"+X c #FFDAAE",
"@X c #FFC6B4",
"#X c #FFCBB3",
"$X c #FFCEB9",
"%X c #FFD2B4",
"&X c #FFD3B9",
"*X c #FFDABC",
"=X c #FFDCB5",
"-X c #FFE4B9",
";X c #FFEABF",
":X c #FFDEC3",
">X c #FFE2C4",
",X c #FFEBCB",
"<X c #FFEDC3",
"1X c #FFF3CB",
"2X c #FFFAC8",
"3X c #FFEED3",
"4X c #FFF3D3",
"5X c #FFF3D9",
"6X c #FFFBDC",
"7X c #FFF8D0",
"8X c #FFFDE4",
"9X c #FFFFEC",
"0X c #FFFFF4",
"qX c #FFFFFE",
/* pixels */
"                                                                                                                                ",
"                                                                                                                                ",
"                                                                                                                                ",
"                                                                                                                                ",
"                                                                                                                                ",
"                                                                                                                                ",
"                                                                                                                                ",
"                                                                                                                                ",
"                                                                                                                                ",
"                                                                                                                                ",
"                                                                                                                                ",
"                                                                                                                                ",
"                                                                                                                                ",
"                                                  .         . # I 4 . . . .       . .                                           ",
"                                                  , . . > 4 . X u u . . # @ @ @ X . .                                           ",
"                                                u 4 . . . . X . . X > @ 3 # @ . X . . .                                         ",
"                                      , , # > > > # > > # > 3 > 3 4 4 , 4 , @ X X . . .                                         ",
"                                      # > > # @ # o 3 a 4 u k s a k a a a i , @ # 4 # X .                                       ",
"                            ;         K K > . @ a i x T x T E Y L O.O...o.W T s a > @ $ X ;                                     ",
"                                  X X Q %.u @ a X.X.X.;.;.5.8.7.7.5.5.5.1.:.:.O.Q u , @ X X X                                   ",
"                              . . * % 6 I k x U &.5.8.e.y.h.h.h.h.y.e.8.5.8.8.5.:.O.P p & @ # # s                               ",
"                            . . X % 9 9 2 Q =.*.1.e.y.h.k.k.v.v.v.v.v.h.q.8.q.y.a.e.9.[ k # @ X @ .                             ",
"                            . . . o 9 0 h +.:.8.e.h.k.v.v.n.n.C.n.n.n.n.k.k.j.k.k.j.y.6.! 3 X X % O                             ",
"                          . . . @ 0 h n 4.7.8.e.h.v.v.n.C.A.A.D.H.A.A.C.A.A.b.z.x.b.k.q.=.U > @ f 5                             ",
"                        . . . . 3 f j 4.q.y.y.k.n.A.H.H.A.D.H.J.H.K.K.D.K.E.J.C.D.S.N.t.:.*.L # , # +       .                   ",
"                      X # . . # 3 , n ,.e.j.v.B.A.K.E.R.J.P.U.U.E.K.U.E.!.!.~.E.S.b.N.j.e.8.=.c # @ . . . . X                   ",
"                    X X X . X , , , R 7.p.k.N.A.J.U.E.E.W.!.E.Y.E.U.^.).^.).).).J.N.N.b.j.<.=.c > < & X X . X                   ",
"                    . . X @ , 4 # 3  .8.j.b.C.A.K.R.E.E.!./.~.T.!.^.`.}.{.`.}.}.~.J.S.S.z.t.7.( g 8 & @ X X .                   ",
"                    . . . @ 3 , 2 l =.5.a.v.A.H.R.!.!.!.).).'.'.'..XoX@X#X&X:X$X}.U.P.I.S.b.z.d.{ j % p o . $                   ",
"                  O . o . @ # 3 4 ..>.8.h.N.R.!.{.@X X}..X.XOX=X,X6X6X4X3X6X6X4XXX).Q.U.P.B.s.t.3.M 9 7 X % 9     +             ",
"                O * . . @ 1 1 0 b ~ :.8.v.J.W.}.@X:X4X>X,X1X6X0XqX0X0X0X9X8X8X6X%X].W.I.G.z.a.t.3.F r ; o o o                   ",
"                ; q O + e A A F } u.6.t.B.W.`.$X3X4X6X8X9X0XqXqXqXqXqXqX0X9X9X6X;X).P.Z.Z.z.y.t.r.' 8 O X @ .                   ",
"                . + + . ; e Z C ] p.p.M.P.].XX&X3X4X6X9X0XqXqXqXqXqXqXqXqXqX0X8XoXQ.I.B.k.p.5.*.,.^ u X @ 3 .                   ",
"                . . . . . $ w V ] f.z.G.~.`.XX#X*X>X8X0XqXqXqXqXqXqXqXqXqXqX0X6X=X~.I.F.z.t.<.=.@.Y , # # # .                   ",
"                . . . . . * r J m.M.M.S.W.].|.$X:X7X8X0XqXqXqXqXqXqXqXqXqXqX8X<XoX_.Q.P.j.5.:.X.~ P , 3 > . . #                 ",
"              + + + o O * w t H g.V.B.G.T.].|.&X4X6X0XqXqXqXqXqXqXqXqXqXqX0X6X%X|.).U.Z.l.y.5.&.! K > X . . . . X               ",
"              o o * O . o : w r G i.c.x.b.J.`.*X6X6X0X0X0X0X0XqXqXqXqX0X9X8X7XoX].Q.S.N.k.s.t.;.Q k X . . . . .                 ",
"                  . + . . O % q C } s.s.j.B.U.}.$X*X4X8X5X8X8X0XqX0X0X6X7X<X-X%X~.Y.D.z.a.j.s.u.P a # # . . . .                 ",
"                    @ @ X X $ = m | p.t.e.l.J.'.).XX@X&X&X:X1X8X8X6X1X2X<X-XOX[.I.B.M.l.p.t.t.+.L i 3 3 . . .                   ",
"                    X # X . @ 5 2 v 2.<.5.8.l.A.J.W.`.|.XXXXoXoX;X-X+X+X.X[.'.[.Q.N.j.a.t.t.w.) v 5 X . . . .                   ",
"                      . . . . . X s @.q.t.t.j.x.F.Y.).].XX|.(._..X[.'.(.Q.(.I.T.I.s.t.t.q.1.` S B 1 . . . . .                   ",
"                        . . . . $ g ( r.a.s.t.l.M.S.T.~.Q.Q.Q.Y.F.Q.(.T.T.T.L.L.S.x.t.6.:. .c n p @ . - - . .                   ",
"                          . . . . ; m { r.p.t.x.B.B.S.S.P.~.P.A.Z.F.I.Y.I.I.G.M.M.j.p.<.=.X.P u > X . + O . .                   ",
"                          . . . + * h ` 4.q.t.s.z.l.M.B.B.A.b.b.M.b.G.L.L.S.x.s.l.a.p.6.L v T u X X . . . . .                   ",
"                            O X . . X l _ ` 7.p.t.p.s.l.j.h.y.h.z.b.M.x.s.q.t.s.s.p.d.` s g d u X . X . . .                     ",
"                            y + @ @ . X 5 c _ u.6.q.t.t.5.5.5.5.t.q.q.6.5.:.5.p.r.0.' n z a 5 $ . > X . . .                     ",
"                                X X . . # 4 b ) *.1.<.:.-.-.>.>.:.<.:.:.:.-.=.9.{ S D j s 3 @ O X X . . .                       ",
"                                . . . . o + % i K E O.=.#.#.=.:.-.-.>.-.=.#.~ L ) S N 5 4 # X . . . .                           ",
"                                  . . X + . . X 3 u z P ~ W E Q ..W T W k 4 4 5 h A m # X . . . . .                             ",
"                                    * O - + . . . X @ # i 3 > 3 p , > , 2 > , # 2 1 9 X . . . .                                 ",
"                                  @ # # + . . . . . . . X . X . @ + . . X # X . @ > . . . . .                                   ",
"                                      . . . . . . . . @ # . . . . X . . . X . X 4 c @ . ;                                       ",
"                                        . . # # . . . . # . . . # X . . . . . + X X .   t                                       ",
"                                        .   @ X . . . . . . . . . @ . . . . . . .                                               ",
"                                                . . . . . . . . . , X . . . . # #                                               ",
"                                                  . . . . . . . . . . . . .                                                     ",
"                                                    . . . . . . . . .                                                           ",
"                                                        . .                                                                     ",
"                                                                                                                                ",
"                                                                                                                                ",
"                                                                                                                                ",
"                                                                                                                                ",
"                                                                                                                                ",
"                                                                                                                                "
};
