/* XPM */
static char *door471703585273[] = {
/* columns rows colors chars-per-pixel */
"64 64 201 2 ",
"   c None",
".  c #020101",
"X  c #0C0101",
"o  c #0A0807",
"O  c #0B0C09",
"+  c #130201",
"@  c #1B0202",
"#  c #1B0807",
"$  c #140C09",
"%  c #1B0D0A",
"&  c #130807",
"*  c #0F100D",
"=  c #13120E",
"-  c #1C110D",
";  c #151410",
":  c #1B1411",
">  c #171814",
",  c #1C1B15",
"<  c #240202",
"1  c #2B0303",
"2  c #230B09",
"3  c #2D0A08",
"4  c #340303",
"5  c #3B0303",
"6  c #390B0A",
"7  c #340807",
"8  c #22120E",
"9  c #2E110E",
"0  c #35100D",
"q  c #211511",
"w  c #2A1A15",
"e  c #321612",
"r  c #341A15",
"t  c #3B1B16",
"y  c #2A221B",
"u  c #3E241D",
"i  c #322A21",
"p  c #430303",
"a  c #4C0404",
"s  c #440C0B",
"d  c #4C0C0A",
"f  c #530404",
"g  c #570908",
"h  c #42110E",
"j  c #4A110E",
"k  c #51120F",
"l  c #471813",
"z  c #591A16",
"x  c #640606",
"c  c #630B0A",
"v  c #6B0606",
"b  c #720606",
"n  c #730B0A",
"m  c #7F0909",
"M  c #7A0606",
"N  c #651814",
"B  c #761B16",
"V  c #7C110C",
"C  c #4B221B",
"Z  c #57211A",
"A  c #67251E",
"S  c #73241D",
"D  c #79261E",
"F  c #792C22",
"G  c #840707",
"H  c #8B0A09",
"J  c #890B0A",
"K  c #940606",
"L  c #82100E",
"P  c #92110F",
"I  c #8A1B17",
"U  c #9C1B17",
"Y  c #A50A0A",
"T  c #AB0909",
"R  c #BA0B0B",
"E  c #B80707",
"W  c #A6100D",
"Q  c #B2100F",
"!  c #A81714",
"~  c #B91310",
"^  c #B61C19",
"/  c #98241E",
"(  c #A2221D",
")  c #9E2A23",
"_  c #943328",
"`  c #882D25",
"'  c #A82821",
"]  c #BB2921",
"[  c #B63229",
"{  c #CA0B0A",
"}  c #C70909",
"|  c #D30D0D",
" . c #DC0C0C",
".. c #C51815",
"X. c #DB1312",
"o. c #D41816",
"O. c #E50B0A",
"+. c #FD0909",
"@. c #F30F0F",
"#. c #EE100F",
"$. c #FE100F",
"%. c #E81917",
"&. c #F51313",
"*. c #FE1313",
"=. c #FA1817",
"-. c #F31D1B",
";. c #FE1C1B",
":. c #E5211D",
">. c #FF201E",
",. c #CA2A23",
"<. c #D62A24",
"1. c #D33228",
"2. c #DA3129",
"3. c #CD3127",
"4. c #E92925",
"5. c #FE2422",
"6. c #FF2A26",
"7. c #F52D28",
"8. c #FF2C2A",
"9. c #F22521",
"0. c #E7352C",
"q. c #F3332C",
"w. c #FF322D",
"e. c #F3392F",
"r. c #FF3532",
"t. c #FD3B35",
"y. c #FF3C3A",
"u. c #F53A32",
"i. c #FE423C",
"p. c #FA453A",
"a. c #FF4542",
"s. c #FF4C44",
"d. c #FF4D4A",
"f. c #FF5347",
"g. c #FF534B",
"h. c #FF5A4E",
"j. c #FF5651",
"k. c #FF5B54",
"l. c #FF5E5A",
"z. c #FF6456",
"x. c #FF635C",
"c. c #FF6A5C",
"v. c #FF6661",
"b. c #FF6B64",
"n. c #FF6D69",
"m. c #FF7265",
"M. c #FF756C",
"N. c #FF7B6C",
"B. c #FF7770",
"V. c #FF7C73",
"C. c #FF7F79",
"Z. c #FF816E",
"A. c #FF8274",
"S. c #FF8977",
"D. c #FF857B",
"F. c #FF8C7D",
"G. c #FF947E",
"H. c #FF8B82",
"J. c #FF9384",
"K. c #FF9986",
"L. c #FF9B8B",
"P. c #FF958B",
"I. c #FF9F92",
"U. c #FFA18E",
"Y. c #FFA594",
"T. c #FFAB94",
"R. c #FFAB99",
"E. c #FFB196",
"W. c #FFB39B",
"Q. c #FFBA9D",
"!. c #FFB6A1",
"~. c #FFBCA4",
"^. c #FFC09F",
"/. c #FFC3A4",
"(. c #FFC6AB",
"). c #FFCBAA",
"_. c #FFCBA7",
"`. c #FFD0AF",
"'. c #FFCBB3",
"]. c #FFD5B4",
"[. c #FFDBB3",
"{. c #FFD4B9",
"}. c #FFDBBB",
"|. c #FFE3BD",
" X c #FFECBD",
".X c #FFE2B4",
"XX c #FFDDC3",
"oX c #FFECC4",
"OX c #FFECCA",
"+X c #FFE3C7",
"@X c #FFF2CC",
"#X c #FFF6C4",
"$X c #FFEDD3",
"%X c #FFF5D5",
"&X c #FFF4DA",
"*X c #FFFDDB",
"=X c #FFFAD4",
"-X c #FFFDE4",
";X c #FFFEEA",
":X c #FFFFF4",
">X c #FFFFFE",
/* pixels */
"                                                                                                                                ",
"                                                                                                                                ",
"                                                                                                                                ",
"                                                                                                                                ",
"                                                                                                                                ",
"                                                                                                                                ",
"                                                                                                                                ",
"                                                                                                                                ",
"                                                            O                                                                   ",
"                                                            .                                                                   ",
"                                                        .               + X                                                     ",
"                                                    . . . . . . . . , % & + X                                                   ",
"                                            . . . . . . . . o . . o y & X X + + +                                               ",
"                                          . . . . . . . . . . O x d o X X X X @ + X                                             ",
"                                      . . . . . . . . . o X & & 1 < + + + 1 @ X + X X                                           ",
"                                    . . o . @ p + . X X # < 2 1 3 7 j f 1 g s + + X X < 4 . .                                   ",
"                                  . . + . + f < @ @ < v 6 d d z c B S V a c x < @ X X + q . .                                   ",
"                                . . . X X 2 p 5 @ 1 p +...J P ' ( [ ] W } Y v p 1 1 1 % i o .                                   ",
"                              . . o . X X @ 4 a 7 b H @.-.o.<.2.1.0.7.X.$.%.G K K g a d # + . .                                 ",
"                            . . . = - $ + f a x R %.&.=.;.8.y.a.p.p.i.8.w.9.#.+.O.x ~ O.f @ . . .                               ",
"                            . O $ + + < 1 c H R &.5.5.>.6.8.f.k.f.h.h.t.t.w.6.6.X.[ 0.{ f @ X . + .                             ",
"                          X X 6 - . . j A c { *.>.8.r.y.y.d.x.c.N.Z.z.p.s.z.f.s.p.s.1.L f 1 < 4 + . . . X                       ",
"                          X X @ . . = l ` ' 7.8.r.r.a.d.g.l.m.A.U.U.A.m.A.Z.z.z.z.f.;.T a f p @ . . . X X                       ",
"                          . . . . X y F [ p.k.j.y.y.a.d.j.n.S.K.T.T.T.U.T.K.N.m.z.s.;.X.Y b 4 + X . X X X                       ",
"                          . . . X < c 3.f.m.m.c.f.d.l.j.k.x.F.T.E.E.~.XX'.I.J.N.z.i.;.;.&.Y x 1 1 < + X X                       ",
"                          . @ @ + 5 ! e.c.N.Z.m.N.z.M.D.n.V.Y.)./.].XX$X{.R.I.M.s.r.6.;.$.|  .v @ # + X X                       ",
"                          . 1 1 @ p ! t.z.N.G.J.S.J.Y.Y.R.~.(.}.].%X;X-X+X~.I.B.x.d.r.6.>.*.+.E 1 # + X .                       ",
"                        o o . X p p P e.f.N.K.T.E.~.~.!.}.OX%X%X;X:X-X;X&X{.~.L.n.j.i.w.8.5.$.E a @ X X .                       ",
"                        # @ . 4 5 a ^ w.g.M.T.Q./.{.'.'.|.-X:X:X>X:X:X:X:XOX'.I.n.b.g.s.w.8.*.O.c 7 X X .                       ",
"                        o * $ w j I 5.8.j.S.T.).{.OXOX@X@X;X>X>X>X>X:X>X>X&X{.R.H.C.n.x.i.5.*.#.n < X X .                       ",
"                        o > , C S / 7.w.k.M.S.R.}.*X%X-X;X>X>X>X>X>X>X>X>X:X&X(.W.Y.N.k.f.p.w.6...3 X + X                       ",
"                      @ X o 8 r D ] e.s.M.M.D.T.}.*X-X;X:X>X>X>X>X>X>X>X>X:X&X].W.Y.F.b.z.f.i.r.1.A 9 % o   @                   ",
"                        . + h t Z ] w.g.N.H.K.Q.].@X-X:X:X>X>X>X>X>X>X>X>X:X@X].!.Y.D.m.z.f.p.p.) S r * o   @                   ",
"                        . X 2 t z ( e.k.C.K.L.(._.].%X:X>X>X>X>X>X>X>X>X>X;X X].W.Y.S.N.c.p.p.p.1.F y > > . * ,                 ",
"                        . . + 0 Z ) t.x.M.F.U.Q._./.].%X>X>X>X>X>X>X>X>X:X#X[.~.Y.K.A.b.h.w.8.w.4./ r - O . . >                 ",
"                        o : q u I ,.0.g.c.N.J.Y.E./.`.OX;X:X:X>X:X>X>X:X-XoX'.R.P.H.B.l.y.8.>.>.U z 2 . . . .                   ",
"                        O q r r z / e.y.d.v.B.D.G.E.[.[.@X;X*X-X-X:X>X-XoX[.(.R.H.V.n.j.8.>.;.&.b + . . o .                     ",
"                      . . X % w r A e.i.d.l.B.C.F.U.T.~.}.[.#X*X-X*X*X.X_.^.W.Y.H.n.d.y.5.;.;.| f X X @ X .                     ",
"                      . . + X 8 w / 7.r.y.d.v.V.D.J.K.R.~.~.).oX@X X.XQ.J.J.J.J.B.l.d.t.5.;.&.T f 1 . . +     <                 ",
"                      . @ 5 X X $ B %.5.w.y.a.l.B.B.B.J.Y.W.~._._._.~.K.J.H.D.D.B.l.a.8.;.>.=.K + X . . .                       ",
"                      . X < @ X & @ H =.5.w.y.j.v.n.M.K.I.Y.E.~.W.~.W.J.H.C.D.B.v.j.i.5.;.;.Q a . . . . .                       ",
"                      . . 4 f < < 1 c X.>.8.y.d.j.l.M.L.I.Y.T.Q.W.T.Y.D.C.V.B.n.l.d.t.5.*.&.b @ . . . . .                       ",
"                      . . @ + X + + 4 m -.5.r.y.a.d.c.H.J.L.U.L.K.K.V.N.C.n.v.l.s.y.8.8.;.Y < . . . . .                         ",
"                        . X . X 1 . < p Y ;.r.a.s.a.j.N.D.J.H.F.H.C.l.n.B.l.d.a.r.8.6.5.:.j . . < + . .                         ",
"                          . . X 5 . < p M X.9.a.i.i.a.j.b.m.N.C.M.k.j.d.a.y.y.y.8.8.w.:.^ l & & 5 + . .                         ",
"                          . . . . . X < p x Q 8.w.t.y.i.f.z.x.z.j.i.t.8.w.8.5.>.>.>.9.o.z e - X . . . .                         ",
"                            . . . . . X 7 k ..%.9.8.6.6.y.f.s.f.a.8.8.6.5.;.$.*.&.| ! N e q - . . . .                           ",
"                            . X X . . o 2 3 k B ! :.-.8.t.i.y.i.r.>.8.;.=.*.$.@.E 4 0 r t 3 o . . .                             ",
"                            . . . + X o O % % j N L L 3.u.u.2.q.%.{ | O. .X.} H f X o ; : = X + .                               ",
"                              .   < X o * % - 9 s 1 d S _ _ ` / m G R G g v p 1 @ . . o O > 6 <                                 ",
"                                    o O . o $ < 1 < - C C l l 6 1 5 b p @ + + X . . . . . o $                                   ",
"                                      . .     X < @ $ y $ X + . . X + X X X . . . . + . . . .                                   ",
"                                      . .   1   X X + - + . 4 < . . . . . . . . . . X           >                               ",
"                                  =     .         X X X + . . X                                                                 ",
"                                                    : X + X                                                                     ",
"                                                          .                 @                                                   ",
"                                                                                                                                ",
"                                                                                                                                ",
"                                                                                                                                ",
"                                                                                                                                ",
"                                                                                                                                ",
"                                                                                                                                ",
"                                                                                                                                ",
"                                                                                                                                "
};
