/* XPM */
static char *door341703585272[] = {
/* columns rows colors chars-per-pixel */
"64 64 208 2 ",
"   c None",
".  c #030000",
"X  c #0B0201",
"o  c #070807",
"O  c #0C0907",
"+  c #0C0C0A",
"@  c #130202",
"#  c #1B0302",
"$  c #120C0A",
"%  c #1B0C0A",
"&  c #190807",
"*  c #0F100D",
"=  c #13120E",
"-  c #1B100D",
";  c #141511",
":  c #1C1612",
">  c #1B1914",
",  c #171914",
"<  c #220302",
"1  c #2C0303",
"2  c #2C0A09",
"3  c #240B09",
"4  c #330303",
"5  c #3B0403",
"6  c #350C0A",
"7  c #3C0D0B",
"8  c #28120E",
"9  c #35120F",
"0  c #2C1814",
"q  c #241C17",
"w  c #3A1915",
"e  c #1D211A",
"r  c #23231C",
"t  c #2B231C",
"y  c #34211B",
"u  c #2A2A22",
"i  c #382B23",
"p  c #323127",
"a  c #4C0505",
"s  c #470807",
"d  c #540505",
"f  c #590505",
"g  c #510807",
"h  c #49120F",
"j  c #4C1915",
"k  c #5E1D18",
"l  c #630505",
"z  c #620B0A",
"x  c #6D0706",
"c  c #710606",
"v  c #7E0908",
"b  c #78110C",
"n  c #681713",
"m  c #49251D",
"M  c #57231D",
"N  c #76251E",
"B  c #59372D",
"V  c #41372D",
"C  c #612921",
"Z  c #653E32",
"A  c #764538",
"S  c #820707",
"D  c #8C0909",
"F  c #840B0A",
"G  c #930B09",
"H  c #9A0A0A",
"J  c #9B0707",
"K  c #861A16",
"L  c #991513",
"P  c #A30C0B",
"I  c #AB0D0C",
"U  c #B50B09",
"Y  c #BE0C0B",
"T  c #B8110F",
"R  c #A81C18",
"E  c #B31916",
"W  c #87241E",
"Q  c #98251F",
"!  c #9F342B",
"~  c #942A23",
"^  c #AD2C24",
"/  c #C40B0A",
"(  c #CB0C0B",
")  c #D50D0D",
"_  c #DC0D0D",
"`  c #C0100E",
"'  c #C21715",
"]  c #D11413",
"[  c #D91817",
"{  c #DC1413",
"}  c #E50C0C",
"|  c #EA0F0F",
" . c #F90E0E",
".. c #E3100E",
"X. c #F3130F",
"o. c #E31512",
"O. c #EA1C1A",
"+. c #E81917",
"@. c #F41312",
"#. c #FE1313",
"$. c #FE1917",
"%. c #FE1C1B",
"&. c #F41D1B",
"*. c #D7221E",
"=. c #C8241D",
"-. c #E4201D",
";. c #FF201F",
":. c #CA2B24",
">. c #D32D26",
",. c #FF2423",
"<. c #FD2B27",
"1. c #FF2C2A",
"2. c #F32825",
"3. c #E8322B",
"4. c #FE322E",
"5. c #F2312B",
"6. c #FF3433",
"7. c #FF3A35",
"8. c #FF3D39",
"9. c #F63B34",
"0. c #E32922",
"q. c #9B4236",
"w. c #BA4E3F",
"e. c #D34D3F",
"r. c #CA463A",
"t. c #FF4137",
"y. c #FF433D",
"u. c #FF493E",
"i. c #A75243",
"p. c #B96452",
"a. c #FF4542",
"s. c #FF4B43",
"d. c #FF4E4A",
"f. c #FF5447",
"g. c #FF534B",
"h. c #FE594D",
"j. c #FF5653",
"k. c #FF5B54",
"l. c #FF5C5A",
"z. c #E35446",
"x. c #FF6154",
"c. c #FF635B",
"v. c #FF6A5D",
"b. c #F36554",
"n. c #FF6561",
"m. c #FF6D63",
"M. c #FF6E6A",
"N. c #FF7365",
"B. c #FF756B",
"V. c #FF7A6D",
"C. c #FF7671",
"Z. c #FF7C73",
"A. c #FF816D",
"S. c #FF8476",
"D. c #FF8C77",
"F. c #FF867A",
"G. c #FF8C7B",
"H. c #FF917B",
"J. c #FF8D82",
"K. c #FF9383",
"L. c #FF9A84",
"P. c #FF9689",
"I. c #FF9C8B",
"U. c #FF9E90",
"Y. c #FFA38B",
"T. c #FFAA89",
"R. c #FFA494",
"E. c #FFAC95",
"W. c #FFAC9A",
"Q. c #FFA798",
"!. c #FFB293",
"~. c #FFB49B",
"^. c #FFBA99",
"/. c #FFB3A1",
"(. c #FFBCA3",
"). c #FFBDA9",
"_. c #FFC39A",
"`. c #FFC3AC",
"'. c #FFCDA1",
"]. c #FFD9A9",
"[. c #FFC5B0",
"{. c #FFCCB3",
"}. c #FFD3B5",
"|. c #FFD9B5",
" X c #FFD5BC",
".X c #FFDDBA",
"XX c #FFE2BE",
"oX c #FFE7B5",
"OX c #FFF5BE",
"+X c #FFE5AB",
"@X c #FFDCC2",
"#X c #FFD5C1",
"$X c #FFE2C9",
"%X c #FFECCC",
"&X c #FFE7C7",
"*X c #FFF6CF",
"=X c #FFF8C6",
"-X c #FFECD2",
";X c #FFE7D0",
":X c #FFF3D2",
">X c #FFF5DB",
",X c #FFFCDC",
"<X c #FFFFD7",
"1X c #FFFDE5",
"2X c #FFFEEA",
"3X c #FFF7E1",
"4X c #FFFFF4",
"5X c #FFFFFE",
/* pixels */
"                                                                                                                                ",
"                                                                                                                                ",
"                                                                                                                                ",
"                                                                                                                                ",
"                                                                                                                                ",
"                                                                                                                                ",
"                                                                                                                                ",
"                                                                                                                                ",
"                                                                                                                                ",
"                                                                                                                                ",
"                                                        .   .                                                                   ",
"                                                        O . . . # X .                                                           ",
"                                                      < X . . X # X . # d X .                                                   ",
"                                                          . . . X . . @ 4 X . .                                                 ",
"                                                        . . O O . X . . . # @ @ <                                               ",
"                                              . . . < # . . $ O . . . . X 1 # < f X .           ,                               ",
"                                        . . . X . . @ @ . . X @ . . . . . X X X X . . .                                         ",
"                                    . . X . X . X . X < a @ f f < a 4 a X X . . . . . . .                                       ",
"                                  X . . . . X X @ 5 5 v ) J ] +.Y o.I P F 1 # . X X + $ o * *                                   ",
"                                . . . X X X X X a U / ) #.$.1.4.1.,.&.%.,.[ ` G h 8 : : = = * .                                 ",
"                            . . . . @ # . . 4 l J | #.$.,.1.6.6.4.<.,.,.;.;.$.&.K j j w = = . . . X @                           ",
"                            X . . . 1 1 . # l U } $.;.,.4.8.8.8.7.4.1.1.1.1.1.8.5.0.*.W r 8 + . X X X q                         ",
"                              . . X # 5 4 f P _ #.%.1.4.8.8.y.a.d.a.a.d.a.7.6.u.u.4.<.! C m , X X = . @ @                       ",
"                                . . # a x J ( | %.<.4.6.a.d.k.c.l.j.j.j.l.l.c.c.g.f.7.7.Q M t q q + . .                         ",
"                              . # 4 5 x Y / @.$.<.1.6.a.j.n.V.B.m.c.v.c.N.C.Z.n.n.C.v.y.3.~ m r % @ O o                         ",
"                          . . . 1 f d D Y _ #.%.6.a.d.l.M.C.F.F.Z.N.N.B.F.K.I.Z.Z.Z.B.h.h.b.i.p 2 # . 1 < e                     ",
"                          . . X 4 d a G }  .%.6.d.l.l.l.M.J.P.G.G.H.H.D.K.E.Y.J.J.K.E.G.N.N.p.A t 0 j s 7 u                     ",
"                          f 5 5 a d S } #.$.1.d.k.n.M.M.Z.J.K.L.Y.E.!.^.!.{.).).[.{.).E.G.m.z.w.B p w & + ;                     ",
"                          < 4 1 a x /  .#.%.6.j.m.B.V.V.S.K.L.Y.!.^.|.}..X%X%X$X#X X).~.H.N.h.e.A u O . . .                     ",
"                        . . . 5 x D / #.#.,.8.j.N.B.S.S.J.P.!._._.XX:X4X,X:X>X:X.X X`.Q.S.c.f.s.=.6 X X . . .                   ",
"                        . . # g D G Y #.%.1.a.j.N.V.D.T.^.^.oXOX=X2X5X5X4X2X1X,X%X$X@X~.B.c.y.O.H a < # < . . .                 ",
"                      . . . 4 z G J } ,.1.7.d.c.B.A.H.T.'.oX=X<X1X5X5X5X5X2X2X2X:X%X.XW.N.c.y.O.H 4 4 1 X < . .                 ",
"                    . . . . 1 x G Y $.,.1.8.j.c.B.D.T.!.+X,X2X2X5X5X5X5X5X4X2X1X>X&X}.R.V.k.y.;.T 1 X X 1 4 . .                 ",
"                    . . . . 1 D G Y ;.%.1.u.d.x.B.H.T._.OX4X5X5X5X5X5X5X5X5X4X1X>X%X{.L.B.x.s.1.:.x 1 + + . . .                 ",
"                  . . . . . 1 S G _ $.;.1.s.k.c.A.L.E.+X<X5X5X5X5X5X5X5X5X5X5X>X#X[.P.S.N.l.u.2.n < X X . . . .                 ",
"                  . . . . . 1 F G ) %.,.<.u.k.v.A.Y.|.*X1X4X5X5X5X5X5X5X5X5X4X%X/.P.C.M.c.k.4.O.a @ . . . . . .                 ",
"                  . . . . . # b I | $.;.,.y.h.c.L.^..X*X,X5X5X5X5X5X5X5X5X5X,X X).U.C.n.l.g.6.R 2 & X . . . . .                 ",
"                  . . . . . @ a )  .#.$.,.y.h.c.K.`.XX=X,X5X5X5X5X5X5X5X5X1X%X`./.U.C.n.k.k.1.O.n % + @ < . . .                 ",
"                    . . . . . < G _ X.%.1.4.s.m.L.`.}.|.*X1X4X5X5X5X5X5X4X,X$X#X(.R.K.Z.j.8.2.R 9 - = 1 4 . .                   ",
"                    . . . . . # D } @.$.,.1.6.k.Y.W.~.`.XX:X1X5X5X5X5X4X2X3X%X XW.R.U.J.c.8.E w 8 3 $ % # . .                   ",
"                  . . . . . X @ d Y @.%.;.,.1.k.P.R.Q.).`.&X,X1X;X,X>X3X3X@X@X X).R.K.V.h.7.n 3 8 % $ $ . . .                   ",
"                    . . . . . X 1 J o.$.%.,.1.j.S.Y.Q.~./.}.%X X[. X@X#X#X{.)./.Q.K.m.k.f.3.R 6 % $ 8 9 . . .                   ",
"                      . . . . . & 6 G O.%.%.;.s.N.H.I.Y.E./.(.W./.).).).W.Q.I.G.S.N.v.s.t.! k 1 X @ 4 7 O . .                   ",
"                        . . . o O 2 b { #.$.,.u.m.B.D.G.G.Z.Z.G.J.U.P.W.P.Z.B.v.c.v.x.t.:.M % X 1 1 X . . . O +                 ",
"                          . + * 2 f s h L 5.y.g.v.N.V.A.n.c.h.m.c.Z.B.Z.N.c.N.h.f.f.u.:.N m & . X @ X . . .                     ",
"                          . o . * % 6 & 0 ! t.f.h.x.x.u.y.y.7.8.a.j.m.v.v.k.k.s.u.s.4.E 9 q q . . . @ X                         ",
"                      o   # X . O & & $ t Z r.u.f.f.7.,.<.4.1.1.s.s.g.c.x.s.y.y.7.3.b 9 & X X . X . .                           ",
"                              . X . . = u p B q.! :.;.%.;.,.,.4.y.u.d.x.h.y.4.<.3.W 2 # & X o . ; r                             ",
"                                . . o o , r i y w n P ) o.-.$.<.7.7.7.u.7.%.{ H 7 y & 1 & . . .                                 ",
"                                  O o o , + - 0 $ 6 f v G / ( +.,.2.[ =.>.] c # @ O & @ X .                                     ",
"                                  r = . o . . 4 @ X X # s S S G ' :.z a h d 5 & 3 1 f & .                                       ",
"                                        . . . . X . . . X % < 1 5 7 # # @ X @ . X # 3 r                                         ",
"                                  = ;     . . . . . . O 5 # . . X O X X + : . X . .                                             ",
"                                              . X @ . . < X . . @ + . . + t 4 #                                                 ",
"                                                  . . . . . . O + , . . . & 5 4                                                 ",
"                                                        . . . = o . . . . .                                                     ",
"                                                          . X           . .                                                     ",
"                                                                                                                                ",
"                                                                                                                                ",
"                                                                                                                                ",
"                                                                                                                                ",
"                                                                                                                                ",
"                                                                                                                                ",
"                                                                                                                                "
};
