/* XPM */
static char *door51703585267[] = {
/* columns rows colors chars-per-pixel */
"64 64 207 2 ",
"   c None",
".  c #020000",
"X  c #0B0101",
"o  c #070806",
"O  c #0C0807",
"+  c #0C0C0A",
"@  c #130202",
"#  c #1C0202",
"$  c #110907",
"%  c #130C0A",
"&  c #1C0D0B",
"*  c #180807",
"=  c #12120E",
"-  c #1B120F",
";  c #1E1511",
":  c #171914",
">  c #1B1B16",
",  c #1A1A14",
"<  c #230302",
"1  c #2B0404",
"2  c #220D0A",
"3  c #2B0C0B",
"4  c #290907",
"5  c #330403",
"6  c #3C0404",
"7  c #350907",
"8  c #3D0806",
"9  c #350C0A",
"0  c #25110E",
"q  c #231612",
"w  c #221A15",
"e  c #2B1B16",
"r  c #2A1B16",
"t  c #341C17",
"y  c #3A1A15",
"u  c #3A1B16",
"i  c #1E2019",
"p  c #23221B",
"a  c #2D201A",
"s  c #3A221C",
"d  c #312921",
"f  c #430404",
"g  c #4B0504",
"h  c #4A0C0B",
"j  c #490906",
"k  c #5B0505",
"l  c #550D0B",
"z  c #530404",
"x  c #471C17",
"c  c #451B17",
"v  c #5E1B16",
"b  c #551B16",
"n  c #690706",
"m  c #730707",
"M  c #7A0A0A",
"N  c #790807",
"B  c #69110F",
"V  c #7B110F",
"C  c #6B1C17",
"Z  c #7B1713",
"A  c #4C211C",
"S  c #55231B",
"D  c #63211B",
"F  c #75231C",
"G  c #7E231D",
"H  c #482D23",
"J  c #6C2D24",
"K  c #792720",
"L  c #64352A",
"P  c #830707",
"I  c #830D0C",
"U  c #8C0909",
"Y  c #8C0202",
"T  c #910C0B",
"R  c #9C0E0D",
"E  c #83100C",
"W  c #851B17",
"Q  c #971E1A",
"!  c #AC0909",
"~  c #A20808",
"^  c #B10A0A",
"/  c #BB0B0B",
"(  c #A6100E",
")  c #A31513",
"_  c #AB1A16",
"`  c #BB1211",
"'  c #B51916",
"]  c #AD201A",
"[  c #B0221E",
"{  c #9A2B25",
"}  c #912821",
"|  c #9D3028",
" . c #8D2A23",
".. c #A82822",
"X. c #B22620",
"o. c #A33A2F",
"O. c #AE3B30",
"+. c #CB0C0B",
"@. c #C20C0C",
"#. c #D60D0D",
"$. c #C1100F",
"%. c #CB1614",
"&. c #D31212",
"*. c #D91916",
"=. c #EA0F0E",
"-. c #FC0D0D",
";. c #E51413",
":. c #EB1313",
">. c #FD1414",
",. c #F31C1A",
"<. c #FE1C1B",
"1. c #F41515",
"2. c #E5241F",
"3. c #FF221F",
"4. c #CC2F27",
"5. c #C72722",
"6. c #D72821",
"7. c #C5362D",
"8. c #D1362E",
"9. c #DF382E",
"0. c #E92C25",
"q. c #E52E27",
"w. c #FE2422",
"e. c #FE2925",
"r. c #FF2C2A",
"t. c #E7332A",
"y. c #FE322D",
"u. c #F9332A",
"i. c #FF3433",
"p. c #FF3A34",
"a. c #FF3C3B",
"s. c #E93D33",
"d. c #F6443A",
"f. c #FF423C",
"g. c #FE493E",
"h. c #E14639",
"j. c #FF4342",
"k. c #FF4B44",
"l. c #FF4E4A",
"z. c #F74B40",
"x. c #FF5246",
"c. c #FF534B",
"v. c #FF5B4C",
"b. c #FF5551",
"n. c #FF5B54",
"m. c #FF5D5A",
"M. c #FF6255",
"N. c #FF645B",
"B. c #FF695E",
"V. c #FF705F",
"C. c #FF6763",
"Z. c #FF6B63",
"A. c #FF6F69",
"S. c #FF7366",
"D. c #FF756B",
"F. c #FF7A6C",
"G. c #FF7770",
"H. c #FF7C73",
"J. c #FF8374",
"K. c #FF847B",
"L. c #FF8B7B",
"P. c #FF947E",
"I. c #FF8B82",
"U. c #FF9383",
"Y. c #FF9B85",
"T. c #FF948A",
"R. c #FF9B8C",
"E. c #FF9C91",
"W. c #FFA28C",
"Q. c #FFAF8F",
"!. c #FFA494",
"~. c #FFAB94",
"^. c #FFAA9A",
"/. c #FFB294",
"(. c #FFB29B",
"). c #FFBC98",
"_. c #FFB3A2",
"`. c #FFBAA3",
"'. c #FFBCA9",
"]. c #FFC2A4",
"[. c #FFC2AB",
"{. c #FFCCAC",
"}. c #FFCAA3",
"|. c #FFD2AA",
" X c #FFD0A6",
".X c #FFC4B2",
"XX c #FFCDB8",
"oX c #FFCCB3",
"OX c #FFD4B4",
"+X c #FFD3BB",
"@X c #FFD8B6",
"#X c #FFE5BB",
"$X c #FFE4C4",
"%X c #FFEBC4",
"&X c #FFECCD",
"*X c #FFF1C5",
"=X c #FFF1CA",
"-X c #FFFBCB",
";X c #FFEED4",
":X c #FFECDA",
">X c #FFF4D3",
",X c #FFFDD2",
"<X c #FFFCDB",
"1X c #FFFDE4",
"2X c #FFFEEB",
"3X c #FFFFF4",
"4X c #FFFFFE",
/* pixels */
"                                                                                                                                ",
"                                                                                                                                ",
"                                                                                                                                ",
"                                                                                                                                ",
"                                                                                                                                ",
"                                                                                                                                ",
"                                                                                                                                ",
"                                                                                                                                ",
"                                                                                                                                ",
"                                                                                                                                ",
"                                                                                                                                ",
"                                                                                                                                ",
"                                                            r %   .               .                                             ",
"                                            X . . . . . * X . . < g f k           . .                                           ",
"                                        . . . . . . . X g 1 X o X g 6 < X .       . .                                           ",
"                                    . . . . . X . . . . . X % > X # # . . . X   . . . @   . X .                                 ",
"                                  . . . . . @ 6 . . . . . X w w X . X < . . . X . . . . . . . X .                               ",
"                              . . . . . . . X @ X . X . $ w p S v 1 f g X @ X . . X . . . . . . X                               ",
"                              . . . . . . . . . 6 5 6 1 u  .{ 4.q.' #.~ U m 5 X X . . . @ # . X X .                             ",
"                            . . . . . . . . . . z ! N 5.8.d.g.p.p.<.>.>.-.=.! P k 1 X . X < X . . .                             ",
"                            . . . . . . . # m Y ^ >.<.i.k.k.l.k.y.<.<.<.<.>.:.#.^ n < 8 1 . X . . X                             ",
"                            . . . . . X X m -.-.<.r.r.a.k.c.n.n.k.a.i.i.r.r.<.<.=.+.+.R 5 X X X . . .                           ",
"                          . . . . . X @ 1 T 1.<.i.i.i.j.b.N.C.C.C.m.l.a.a.i.r.w.<.>.-.N < X X X X . X                           ",
"                          < X . X X @ 5 P / <.r.i.i.a.j.b.D.A.G.G.G.C.b.l.j.a.p.r.w.<.:.N # $ * 1 . .                           ",
"                        . X . . X @ # g :.<.r.r.i.a.j.l.C.G.H.I.I.H.H.C.C.m.m.b.k.p.w.<.&.6 f 1 X X .                           ",
"                      X X . . . X # m *.3.w.i.i.a.a.l.m.H.H.I.I.E.T.T.I.G.A.A.A.m.k.i.r.w.+.P 5 . . X g                         ",
"                        O . X X X # P :.<.w.i.a.j.l.C.C.H.I.I.T.E.E.E.E.K.H.G.D.Z.N.n.x.p.>.P < X $ X 9                         ",
"                        . . X X @ 6 +.>.<.i.i.j.l.m.C.H.I.T.T.R.E.E.^.E.R.I.K.I.I.J.D.S.c.r.) g 1 * u                           ",
"                      . . . X @ X N 1.>.r.i.a.l.C.A.D.A.I.R.R.!.^.`.[.oX`.!.^.!.!.I.J.S.N.c.u.5.l . 9 7                         ",
"                : :   X % % - & 0 ) <.<.p.k.l.m.C.G.H.K.T.~.(.`.@X%X=X&X@X{.OX!.W.R.H.Z.N.x.u.) 7 $ X .                         ",
"                    o . % ; ; q t [ <.w.f.k.c.C.G.K.I.Y./.@X$X<X1X1X1X1X,X=X%XOX{.).U.L.F.S.c.s.F 0 $ @ 1                       ",
"                    X X . $ q q q _ w.y.a.l.N.K.I.R.W.(. X&X3X3X3X4X4X4X1X,X-X#XOX~.Y.P.J.S.M.g.7.W 2 & 8 < @                   ",
"                    . . . $ q q c Q e.u.c.N.H.U.W.~./.].*X2X4X3X4X4X4X4X4X1X,X-X#X(.Y.J.F.Z.M.d.o.S 0 = O f #                   ",
"                  . . . . . % q y D 6.p.v.B.J.Y.W.Q.).|.=X3X4X4X4X4X4X4X4X3X<X-X%X{.U.J.S.S.N.g.O.L d p % 0 > ,   =             ",
"                  . . . . . % q 0 x [ f.c.B.F.Y.Q.Q.}.-X1X4X4X4X4X4X4X4X4X4X1X=X{.~.Y.J.N.n.n.k.8.J H ; = O O     +             ",
"                . . . . o ; t r t S t.y.f.N.H.P.W.).|.,X2X3X4X4X4X4X4X4X4X4X1X=X{.~.Y.F.b.k.f.i._ h 9 O X . .                   ",
"                = = o . = , a r e S 6.e.a.x.Z.L.W.).#X-X<X4X4X4X4X4X4X4X4X4X2X>XOX(.W.S.c.j.i.,.U g # $ . .                     ",
"                  $   . . . % r u S [ 0.p.x.N.D.L.Q.#X-X,X2X4X4X4X4X4X4X4X4X1X=X@X(.P.N.j.a.i.,.n 6 # 4 X . .                   ",
"                        . . . q t A F [ w.y.c.Z.U.(.}.@X$X>X2X4X4X4X4X4X3X1X&X@X`.Y.S.F.b.j.i.,.k < @ O . . X #                 ",
"                        . . . X * y F %.<.3.i.x.J.U.~.`.XX&X2X4X4X4X4X4X4X>X$XoX`.I.Z.B.n.k.r.*.j 1 X . X . . X                 ",
"                        . . . . $ < 8 ) ;.<.e.x.J.L.Y.`.oX$X1X1X:X1X3X2X2X&X$X[.[.Y.C.N.n.f.<.R 8 < X . < @ . o                 ",
"                          . . . . X f M U $.>.f.S.P.W.(.'.XX;X;XXX;X1X;X>X$X[.(.W.T.F.Z.x.r.>.P 5 # . . . . .                   ",
"                          . . . . X 7 E ( U *.r.v.S.P.W.^._.[.XX'..X+X&X+X[.(.W.L.P.J.S.n.<.@.j < X X . . . .                   ",
"                          . . . X X 1 n T P %.p.g.M.S.L.E.T.I._..X'._.'.`.!.R.P.H.L.J.B.v.t.I 9 * . < # . . .                   ",
"                          . . @ X < 1 8 n N Q 4.d.v.M.V.N.b.C.D.T.E.Y.R.R.I.P.J.J.Z.B.g.f.7.V 1 X . X . . .                     ",
"                          . . . . @ 5 X < B | 7.9.f.x.k.y.i.a.a.m.C.Z.F.F.n.B.M.k.k.g.u.t.G 4 # . X . . . .                     ",
"                          .   . X @ # X < S { { ..t.y.w.3.w.<.e.l.k.c.B.N.k.x.g.f.y.u.[ D y X + + . . . .                       ",
"                              . @ . O O * s J F K 4.*.;.e.<.w.r.p.p.x.v.x.g.p.e.y.u.2.F u % . . o . . .                         ",
"                              X . . X % > p , A x C T / %.;.1.<.p.y.g.v.k.p.0.:.$.W l & w = . . . .                             ",
"                                X . . . O o . % X @ f U R $.&.&.2.2.h.h.u.1.' M 7 < < . o = o .                                 ",
"                                    . . . . . . . . 3 l h l R R _ [ B C } M g 4 o @ k - X #                                     ",
"                                    p   . . . . . . 3 h 2 9 9 7 h S # % t 4 < @ # @ 9 p -     >                                 ",
"                                          X . . . . O O % 9 9 . @ # X . # 1 . & g #                                             ",
"                                          @ X . . . o + o o . . . o . . . o . 4                                                 ",
"                                                . o = o . . o + o i . . . i # 6                                                 ",
"                                                    X . . . . > = i                                                             ",
"                                                                                                                                ",
"                                                  o                                                                             ",
"                                                  o                                                                             ",
"                                                                                                                                ",
"                                                                                                                                ",
"                                                                                                                                ",
"                                                                                                                                ",
"                                                                                                                                "
};
