/* XPM */
static char *door461703585273[] = {
/* columns rows colors chars-per-pixel */
"64 64 204 2 ",
"   c None",
".  c #020000",
"X  c #0B0101",
"o  c #070907",
"O  c #0C0807",
"+  c #0C0C0A",
"@  c #140101",
"#  c #1B0302",
"$  c #1D0907",
"%  c #130C0A",
"&  c #1A0D0B",
"*  c #0F100D",
"=  c #13110E",
"-  c #1B110E",
";  c #151612",
":  c #1B1511",
">  c #1B1A15",
",  c #1E1E19",
"<  c #171814",
"1  c #240303",
"2  c #2C0303",
"3  c #240C0A",
"4  c #2C0C0A",
"5  c #270907",
"6  c #330403",
"7  c #3A0303",
"8  c #350D0A",
"9  c #3E0D0B",
"0  c #26100E",
"q  c #2A110E",
"w  c #3C110E",
"e  c #34120D",
"r  c #221B15",
"t  c #2C1A15",
"y  c #3C1713",
"u  c #341A15",
"i  c #361814",
"p  c #1E201A",
"a  c #3D221C",
"s  c #24201A",
"d  c #440404",
"f  c #4C0404",
"g  c #4D0807",
"h  c #4B0D0B",
"j  c #430B0A",
"k  c #540606",
"l  c #5B0505",
"z  c #580908",
"x  c #50120F",
"c  c #431D17",
"v  c #471613",
"b  c #581A15",
"n  c #650606",
"m  c #670707",
"M  c #740606",
"N  c #7B0606",
"B  c #740B0A",
"V  c #7F0D0B",
"C  c #661310",
"Z  c #761814",
"A  c #66100C",
"S  c #43221C",
"D  c #4D201B",
"F  c #5C221B",
"G  c #62231D",
"H  c #64291F",
"J  c #79221C",
"K  c #592922",
"L  c #6D2820",
"P  c #7F2F25",
"I  c #702B24",
"U  c #840A0A",
"Y  c #8A0909",
"T  c #860707",
"R  c #920707",
"E  c #960B0B",
"W  c #831C18",
"Q  c #9B1915",
"!  c #931613",
"~  c #AB0A0A",
"^  c #A60B0A",
"/  c #B30C0C",
"(  c #BB0C0C",
")  c #AF1F1B",
"_  c #B41412",
"`  c #BB1715",
"'  c #8A221C",
"]  c #9D201B",
"[  c #A6241E",
"{  c #BD251F",
"}  c #952C24",
"|  c #812C23",
" . c #AA2A23",
".. c #A32822",
"X. c #AE3028",
"o. c #C50D0B",
"O. c #C80B0B",
"+. c #DD0D0D",
"@. c #D50C0C",
"#. c #C71312",
"$. c #D81615",
"%. c #E20E0D",
"&. c #EC0E0E",
"*. c #F70C0C",
"=. c #FA0A0A",
"-. c #E61413",
";. c #EC1A17",
":. c #FE1414",
">. c #FF1A17",
",. c #FF1C1B",
"<. c #F31716",
"1. c #CE221E",
"2. c #D8211D",
"3. c #FE221E",
"4. c #F5211E",
"5. c #E5231F",
"6. c #C72A23",
"7. c #D82924",
"8. c #C5352C",
"9. c #DA362B",
"0. c #DD3B34",
"q. c #E52924",
"w. c #FF2422",
"e. c #FF2926",
"r. c #FF2D2A",
"t. c #F62B25",
"y. c #FE332D",
"u. c #FF3432",
"i. c #F63C34",
"p. c #FE3B34",
"a. c #FF3C3A",
"s. c #E5392F",
"d. c #ED4438",
"f. c #FF443C",
"g. c #FF493E",
"h. c #FF4036",
"j. c #FF4442",
"k. c #FF4A44",
"l. c #FF4D4A",
"z. c #FF5144",
"x. c #FF534C",
"c. c #FF5A4E",
"v. c #FF5753",
"b. c #FF5B54",
"n. c #FF5E5A",
"m. c #FF6355",
"M. c #FF645C",
"N. c #FF6A5D",
"B. c #FF6660",
"V. c #FF6B64",
"C. c #FF6E69",
"Z. c #FF7264",
"A. c #FF746B",
"S. c #FF7B6D",
"D. c #FF7B67",
"F. c #FF7771",
"G. c #FF7B74",
"H. c #FF7F78",
"J. c #FF8476",
"K. c #FF847B",
"L. c #FF8B7B",
"P. c #FF8A77",
"I. c #FF917E",
"U. c #FF8C81",
"Y. c #FF9384",
"T. c #FF9985",
"R. c #FF9489",
"E. c #FF9C8B",
"W. c #FF9C90",
"Q. c #FFA38E",
"!. c #FFA493",
"~. c #FFAC95",
"^. c #FFAD99",
"/. c #FFB49C",
"(. c #FFBB9E",
"). c #FFB096",
"_. c #FFB7A1",
"`. c #FFBCA3",
"'. c #FFC3A4",
"]. c #FFC4AB",
"[. c #FFCBAC",
"{. c #FFD4AE",
"}. c #FFCDB3",
"|. c #FFC6B0",
" X c #FFD3B5",
".X c #FFDAB5",
"XX c #FFD7BA",
"oX c #FFDEBC",
"OX c #FFE4BD",
"+X c #FFECBB",
"@X c #FFE7C5",
"#X c #FFEBC5",
"$X c #FFEBCB",
"%X c #FFF3CC",
"&X c #FFF7C9",
"*X c PapayaWhip",
"=X c #FFF4D2",
"-X c #FFF4D9",
";X c #FFFCDC",
":X c #FFF8D7",
">X c #FFFDE4",
",X c #FFFFEB",
"<X c #FFFFF3",
"1X c #FFFFFE",
/* pixels */
"                                                                                                                                ",
"                                                                                                                                ",
"                                                                                                                                ",
"                                                                                                                                ",
"                                                                                                                                ",
"                                                                                                                                ",
"                                                                                                                                ",
"                                                                                                                                ",
"                                                                                                                                ",
"                                                            +                                                                   ",
"                                                            o                                                                   ",
"                                                      . X . . . . X                                                             ",
"                                            @ . . X . X . . O X . o r $                                                         ",
"                                          . . . X . X . X . % h M $ = . . .                                                     ",
"                                        . . . . X . . X . O = j 6 X X X # # X       X                                           ",
"                                      . . X 1 @ . X . X % & - - $ 3 8 1 7 9 5 # &   @ d @ . @                                   ",
"                                  . . # . @ l @ X X . 5 w w x x j D J j 7 g j 1 # X X @ . .                                     ",
"                                . . . X X 1 f . # X 7 o.Z C Z } J [ [ U N M l 2 1 2 # : , . .                                   ",
"                              . . . . . . # # X 6 k ~ :.` ` 6.X.{ 9.q.;.*._ n f f 6 1 u - O .                                   ",
"                            . . . ; * o X g 6 m $.+.-.,.3.r.u.f.d.h.p.y.3.;.+.%.R 7 A o.d X . .                                 ",
"                          . . o + . & # 1 g E @.,.w.,.w.r.p.c.b.c.z.c.p.e.3.3.>.%.) 5.=.f X . . 2                               ",
"                          @ . $ < o X 1 8 B <.>.,.r.u.r.p.j.N.Z.N.J.m.h.h.f.g.h.p.i.{ T l 3 1 # X .                             ",
"                          X # f X . $ 4 F  .y.e.u.u.j.l.x.n.Z.S.I.T.D.c.D.N.z.g.z.g.5.U n k 7 # X . .                           ",
"                          o X X . @ e H J 0.l.k.a.a.j.k.v.M.P.I.Q.Q.I.I.I.P.N.m.m.p.>.+./ N 6 . O . . .                         ",
"                          o . . @ 1 k 6.d.m.N.M.x.l.v.l.n.B.Y.!.Q.).`. X`.Y.L.Z.c.e.>.>.%.~ m 2 1 @ . .                         ",
"                          . # X # f Y 2.c.Z.S.D.N.b.v.V.V.A.!.[./. X@X$X|.!.T.S.j.e.w.>.:.%.~ m X . . X 1                       ",
"                          . 6 6 1 z _ q.c.D.J.I.P.Y.R.^.E.^.XX@X X:X:X:X X^.R.C.b.j.y.w.,.:.=.N 4 O . .                         ",
"                          . X @ 1 6 ~ u.k.Z.I.Q.~._.^._. X=X;X$X-X,X>X>X$X].!.G.C.v.p.e.e.,.:./ f # . . .                       ",
"                        . X X # 1 d #.r.x.V.E.(.`.].].[.XX:X,X<X<X,X,X,X*X|._.U.C.b.j.p.y.t.:.@.g 1 . . .                       ",
"                        . # : q w ! w.y.j.Z.!.[.XX@X@X$X$X>X1X1X1X1X<X<X,XXX].^.G.C.M.b.y.3.>.;.M X . . .                       ",
"                        X : r S K  .r.y.l.J.R.^.oX:X%X:X>X<X1X1X1X1X1X1X<X>X=X X/.T.S.M.k.h.u.p.7.j O 7 @                       ",
"                        # . % c I  .h.l.n.G.J.^.%X;X>X<X<X1X1X1X1X1X1X1X1X,X:X X(.Q.I.Z.M.z.g.a.0.G 0 - X                       ",
"                      . X . 3 S F 6.p.x.A.U.T./. X=X,X,X<X1X1X1X1X1X1X1X1X,X#X.X/.!.J.Z.M.c.k.g.8.K 0 * o                       ",
"                      . . X # u S ..p.v.J.U.E._.}.oX*X<X1X1X1X1X1X1X1X1X<X>XOX[./.W.P.S.m.k.g.f.s.P a , + + p >   o             ",
"                      . . . . 3 a X.f.b.G.W.!.[..X]. X>X<X1X1X1X1X1X1X1X<X&X.X'.!.W.U.B.g.e.p.p.8.} D > o o ;                   ",
"                      . X + > u F ..i.b.S.K.E./.'.'..X%X<X1X1X1X1X1X1X1X>X&XoX_.W.R.H.B.f.y.e.y.] v # O . . .                   ",
"                  , ; . o < , D L [ s.l.b.C.U.U.Q./.oXOX>X<X,X,X,X1X1X>X&XOX.X].R.U.C.l.p.r.,.<.Y @ X O . .                     ",
"                      . . . o r a G 7.f.v.B.H.U.T.!.'.XX@X#X&X;X;X,X>X+X{.'.[./.U.B.v.j.w.3.>.&.Y # # @ . X                     ",
"                      . . . . ; a F 7.i.j.l.F.U.R.U.W./.[.[.@X=X=X+X+X/.E.E.~.U.H.B.j.a.w.>.>.-.l 2 @ . @                       ",
"                      . X 1 . . o Z $.,.r.j.l.n.F.G.K.!.^./._.{.{.{.{.Q.Y.Y.U.U.G.B.j.r.,.,.<./ j X X .                         ",
"                      . . 2 X . . 2 R <.w.u.a.v.F.F.G.!._./.(.(.).(.(.Y.U.U.U.K.C.n.a.3.>.w._ g 2 . . .                         ",
"                    . . . @ f 2 . # z #.e.e.a.v.B.C.H.W.!.^./.).~.Q.~.Y.H.K.H.F.n.l.a.e.>.-.U f @ . . .                         ",
"                    . . . @ 6 # X 1 7 m $.e.p.k.l.n.A.R.R.^.^.Q.E.T.S.K.U.F.C.n.l.f.p.u.3.( d # . . . .                         ",
"                      . . . . . 1 X @ 2 M ;.u.l.k.l.n.F.U.W.E.Y.Y.K.n.A.H.B.n.k.f.p.r.t.q.! 1 . # @ . .   X                     ",
"                      . . . . . d 1 # 2 f / w.u.j.k.l.b.A.S.K.P.G.M.n.l.l.k.j.a.e.w.w.7.[ Z & . X . . .                         ",
"                        . . . . . . % 2 7 B _ t.p.f.f.f.f.m.V.N.b.k.a.p.u.u.r.w.>.,.t.7.' c O . . . .                           ",
"                          . . . X . X @ 2 h Z q.q.p.a.p.k.z.k.z.l.p.r.u.u.e.:.:.:.$.[ W c > O . . . .                           ",
"                            . . X X . . 0 v b W Z $.w.y.f.f.f.g.p.>.,.w.,.:.*.*.%.M i u u q . . . .                             ",
"                              . . O @ O - : r i b ) E 6.d.h.y.y.4.%.O.@.+.@.O.R T 2 o * < = # # .                               ",
"                              . . # 1 + - % - y g 7 j H | | } Q Y m Y R f d l 1 1 . . . * ; @ @                                 ",
"                                    . + O . O 4 @ 1 3 S c 4 4 # 2 8 k 7 . . X . . . . . . . .                                   ",
"                                      . . X   . @ @ O r $ X X X . X @ @ . X X . . . @ . . . . ;                                 ",
"                                        O .   1 . . . . . . @ 6 X . . . . X . X .   #                                           ",
"                                  <     X .           . . . . X X X . X X X X . .                                               ",
"                                                            . . . . . X . . # @ X                                               ",
"                                                                  . . . .                                                       ",
"                                                                      . . .                                                     ",
"                                                                                                                                ",
"                                                                                                                                ",
"                                                                                                                                ",
"                                                                                                                                ",
"                                                                                                                                ",
"                                                                                                                                ",
"                                                                                                                                "
};
