/* XPM */
static char *door91703585268[] = {
/* columns rows colors chars-per-pixel */
"64 64 218 2 ",
"   c None",
".  c #010000",
"X  c #0B0101",
"o  c #070807",
"O  c #090907",
"+  c #0B0C0A",
"@  c #140101",
"#  c #1C0101",
"$  c #190807",
"%  c #130C0A",
"&  c #1C0C0A",
"*  c #110806",
"=  c #0F100D",
"-  c #12120E",
";  c #1E100D",
":  c #141511",
">  c #191612",
",  c #1B1C16",
"<  c #230101",
"1  c #2B0202",
"2  c #240807",
"3  c #2B0C0A",
"4  c #290A09",
"5  c #330302",
"6  c #3B0303",
"7  c #3C0B09",
"8  c #25110E",
"9  c #38120E",
"0  c #2B1A15",
"q  c #241914",
"w  c #3C1410",
"e  c #3A1E18",
"r  c #321815",
"t  c #29221B",
"y  c #3B211A",
"u  c #450303",
"i  c #4B0403",
"p  c #480A08",
"a  c #540403",
"s  c #5C0504",
"d  c #5C0A07",
"f  c #5D0D08",
"g  c #47110E",
"h  c #57110E",
"j  c #4D1B16",
"k  c #451915",
"l  c #541611",
"z  c #531B16",
"x  c #5B1D18",
"c  c #640505",
"v  c #6A0605",
"b  c #650A07",
"n  c #670A08",
"m  c #740606",
"M  c #7D0606",
"N  c #720C09",
"B  c #641915",
"V  c #6B1A16",
"C  c #6D1612",
"Z  c #771814",
"A  c #6C110C",
"S  c #47201A",
"D  c #58251E",
"F  c #69241D",
"G  c #76231E",
"H  c #492A21",
"J  c #592C23",
"K  c #692A22",
"L  c #72342A",
"P  c #840606",
"I  c #850908",
"U  c #8A0B09",
"Y  c #880807",
"T  c #930707",
"R  c #930909",
"E  c #990A08",
"W  c #971613",
"Q  c #AE0A09",
"!  c #A60A08",
"~  c #B30B0A",
"^  c #BD0B0A",
"/  c #B40707",
"(  c #BA120F",
")  c #AA1C18",
"_  c #B81E1A",
"`  c #AC231D",
"'  c #A3221D",
"]  c #B4241F",
"[  c #8B2B24",
"{  c #AE2922",
"}  c #B53F34",
"|  c #AE372D",
" . c #C30D0C",
".. c #CA0C0C",
"X. c #D30C0C",
"o. c #D60A0A",
"O. c #C2100F",
"+. c #D5110F",
"@. c #CD1513",
"#. c #C11211",
"$. c #DB1913",
"%. c #E40D0D",
"&. c #F80707",
"*. c #E6110F",
"=. c #E51413",
"-. c #EA1111",
";. c #E91917",
":. c #F51414",
">. c #FD1413",
",. c #FF1817",
"<. c #F31C1A",
"1. c #FF1C1C",
"2. c #F11817",
"3. c #CE201D",
"4. c #FF221F",
"5. c #CF2923",
"6. c #D92C26",
"7. c #C2342C",
"8. c #DA3D32",
"9. c #D2342B",
"0. c #ED2B26",
"q. c #FF2422",
"w. c #F12A26",
"e. c #FF2A26",
"r. c #FF2C2A",
"t. c #F02620",
"y. c #EC352D",
"u. c #E6332C",
"i. c #FE312E",
"p. c #FF3532",
"a. c #FF3B35",
"s. c #FF3D3A",
"d. c #EB3931",
"f. c #B74A3D",
"g. c #EA4239",
"h. c #FF4135",
"j. c #FF423C",
"k. c #FF4A3D",
"l. c #FF4441",
"z. c #FF4B44",
"x. c #FF4E49",
"c. c #F74D40",
"v. c #FD5146",
"b. c #FF534B",
"n. c #FF5B4C",
"m. c #FF5552",
"M. c #FF5C54",
"N. c #FF5C59",
"B. c #E95647",
"V. c #FF614C",
"C. c #FF6354",
"Z. c #FF635B",
"A. c #FF6A5B",
"S. c #FF745C",
"D. c #FF6663",
"F. c #FF6C64",
"G. c #FF6D69",
"H. c #FF7365",
"J. c #FF7B67",
"K. c #FF756B",
"L. c #FF796C",
"P. c #FF7771",
"I. c #FF7D73",
"U. c #FF8274",
"Y. c #FF8D74",
"T. c #FF857D",
"R. c #FF8B7E",
"E. c #FF927C",
"W. c #FF9C7D",
"Q. c #FF9076",
"!. c #FF8D81",
"~. c #FF8781",
"^. c #FF9485",
"/. c #FF9986",
"(. c #FF9689",
"). c #FF9A8D",
"_. c #FF9C90",
"`. c #FFAC8A",
"'. c #FFA58A",
"]. c #FFB68D",
"[. c #FFA393",
"{. c #FFAC96",
"}. c #FFAC9B",
"|. c #FFA699",
" X c #FFB39E",
".X c #FFB898",
"XX c #FFB4A2",
"oX c #FFBAA4",
"OX c #FFBEAA",
"+X c #FFC59C",
"@X c #FFCBA4",
"#X c #FFC4AD",
"$X c #FFC0A6",
"%X c #FFDEAA",
"&X c #FFCAB4",
"*X c #FFC8B7",
"=X c #FFD2BA",
"-X c #FFDBBD",
";X c #FFD8B4",
":X c #FFEDB9",
">X c #FFF0BE",
",X c #FFDAC2",
"<X c #FFD6C2",
"1X c #FFE4C4",
"2X c #FFE2CB",
"3X c #FFEACB",
"4X c #FFE8C5",
"5X c #FFF9C9",
"6X c #FFECD3",
"7X c #FFEBD7",
"8X c #FFF5D4",
"9X c #FFFDDB",
"0X c #FFF9D5",
"qX c #FFFCE3",
"wX c #FFFEEB",
"eX c #FFF3E3",
"rX c #FFFFF4",
"tX c #FFFFFE",
/* pixels */
"                                                                                                                                ",
"                                                                                                                                ",
"                                                                                                                                ",
"                                                                                                                                ",
"                                                                                                                                ",
"                                                                                                                                ",
"                                                                                                                                ",
"                                                                                                                                ",
"                                                                                                                                ",
"                                                                                                                                ",
"                                                                                                                                ",
"                                                      # #                                                                       ",
"                                                        # < 5 # #     <                                                         ",
"                                                          1 A 3 # # 1 5 <       X X                                             ",
"                                                          < 9 w 1 # < i 1       X X .   .                                       ",
"                                            . . c 1 . @ $ 3 w l p < < < 5 # X   X X X X . @                                     ",
"                                          . X X < < 1 5 l l B B l u u 5 6 1 1 < @ X X X .                                       ",
"                                  . . X @ # < < 1 5 i b W Z V Z C n i 6 u c u 6 # @ X X X .                                     ",
"                                . X @ # # 1 5 a P a Q W 3.5.) 3.O. .~ v I E u i 5 # < @ X X .                                   ",
"                              . @ # # # < @ i o.&./ o.<.0.r.r.i.1.1.1.;.:.;.E M v s < . & O 1 s                                 ",
"                            X # # # < # @ < v o.>.=.1.q.p.s.s.s.p.s.i.q.4.1.,.=. .! a @ X X <   @                               ",
"                          @ # # # # < i a s T :.1.q.q.i.s.l.l.x.l.l.s.i.r.4.1.1.1.>.^ c 1 < X X # 7                             ",
"                        . # # # < < 5 s Y ^ *.,.1.q.r.r.l.x.b.m.m.N.m.l.l.s.p.i.e.4.;.U / s X # 2 k                             ",
"                        # # # # # 6 c R ~ X.1.1.q.r.p.s.b.m.N.Z.D.G.D.N.m.N.m.b.z.j.i.2.o.v a 5 < #                             ",
"                        X X . @ # 5 c E *.>.1.q.q.s.l.l.N.Z.G.G.G.P.G.G.D.D.D.D.L.M.j.i.<.) W a < < #                           ",
"                      . . . . X < i M T ..,.1.q.p.l.l.m.Z.G.G.P.P.T.~.~.~.~.T.I.K.C.b.z.k.y.Z u 1 5 #                           ",
"                      . . . . X i v T ^ 2.1.1.p.l.l.l.m.D.P.I.!.~.~._._._._.).!.R.I.U.U.H.v.{ B 5 < 4 0 y                       ",
"                      . . . . # m P  .:.,.1.q.l.x.x.m.m.L.I.!.^.(._.}.OXXXOXXX}.|..X{.^.J.C.c.f.J 7 < * e                       ",
"                      . . . . < s M / :.>.4.p.l.x.m.C.H.U.^./.[.|.XX#X1X7X3X3X,X&X}. XR.H.n.n.f.K k # X                         ",
"                    . . . . . 1 c m U *.,.r.s.x.m.Z.H.Y.E.^.}..X,X7XeXwX9X9XqX0X3X#X X/.H.n.k.9.g 5 1 i c                       ",
"                    . . . . @ c P T ..>.1.r.s.x.M.H.U.Y.E.{.%X0XwXtXtXrXwXrXrXwXqX1X.XR.H.n.k.y.F l 7 6                         ",
"                    . . . . . 5 M ! &.>.1.r.l.x.C.F.U.W.].%X0XrXtXtXtXtXtXtXrXwX9X1XoX^.L.n.h.e.` x z 5                         ",
"                  . . . . . X 1 A A E  .4.p.k.V.J.Y.Q.`.%X0XrXtXtXtXtXtXtXtXrXwX0X1X$X^.D.z.p.w.` x z 9 . . . .                 ",
"                  . . . . < # 1 b b N ~ 4.k.V.A.J.Q.`.+X5XwXtXtXtXtXtXtXtXtXrXqX4X=X}.I.F.x.i.w.' x z r : O . O                 ",
"                  . . . . # # 1 s s b +.4.h.V.S.Y.W.].:X0XrXtXtXtXtXtXtXtXtXtXwX<X|.}.T.I.x.q.4.] k B r : X #                   ",
"                  . . . . . @ 5 f f A ( 4.h.V.S.Y.`.@X5X9XwXtXtXtXtXtXtXtXtXwX6X*X_.).T.U.N.r.1.#.p 7 @ . X .                   ",
"                  . . . . . X 1 p d I ..:.r.z.S.Y.].:X5X9XrXtXtXtXtXtXtXtXtXwX&X#X|.!.I.F.M.e.>.~ i < . . o                     ",
"                    . . . . @ 2 i Y / o.:.r.v.A.Y.+X:X5X0XwXtXtXtXtXtXtXwXqX8X1X#XXXT.Z.M.a.1.*.I i 1 . . X                     ",
"                    . . . . # # u m Q X.-.1.j.n.E.@X;X:X1X0XtXtXtXtXtXtXwX8X1X1XXX_.T.L.M.l.4.%.I 6 @ . . .                     ",
"                      . . . X # < < I X.o.-.r.b.I.{.#X&X-X8XwXrXrXrXrXwXwX8X-X&X}.!.I.L.F.s.e.#.s 5 @ . . .                     ",
"                      . . . . @ < a n X.=.;.e.k.Z.). X&X=X4XqXwXeX7XqXwXqX8X-X#X}.R.L.F.K.z.4.~ a 6 < . . .                     ",
"                        . . . X < 1 p Q @.$.q.a.z.U.'.OX#X2X7X<X<X2X2X6X7X3X1X#XoX/.K.L.C.a.4.U 5 # 2 @ @ # X                   ",
"                        . . . o < p m R O...0.v.A.U.^.|.}.*X#XXX*X<X=X,X*X#X-X X'.T.K.F.b.a.5.i < # # # 1 1                     ",
"                          . . . 5 h i u R @.0.z.A.S.U.^./.).).|.OX}.XX*X#X}.).R.I.H.K.C.j.y.) 5 < # # # #                       ",
"                          . . . 1 n 6 # u W 8.n.C.C.H.H.F.F.P.!.(.(.^.).!.U.L.H.K.F.C.v.y.| z < 5 # < # .                       ",
"                          . . . @ < X X 3 [ f.B.n.C.C.n.j.z.D.P.I.I.U.I.F.N.F.H.H.C.z.5.Z J t 2 6 # < #                         ",
"                            . X 1 . . . q J G f.g.v.h.q.q.r.s.s.m.G.I.T.H.M.H.Z.b.g.y.' 4 & 4 $ @ @ @                           ",
"                            . . . . . o q > 9 9 j ) q.>.>.,.q.q.s.x.C.Z.Z.x.l.z.p.| [ Z 4 2 2 @ * > $                           ",
"                            . X . . O + : : % 9 ; g ~ =.>.>.>.>.p.a.v.M.v.j.9.{ ] K H 2 4 $ o . . t                             ",
"                                  o , : , : - 8 % 4 6 p W +.....6.{ 7.f.8.7.F w p q t X $ * o                                   ",
"                                    o + o . O o # . . . X u s s G D G L K S 0 X X % = O o o +                                   ",
"                                    . . . . . . # < @ 1 @ @ @ 3 e r w S S 0 O X & @ . O                                         ",
"                                  O   . . . . . . X X 2 i . X 1 8 r # 4 k q X < 5 6 .   q       o                               ",
"                                  +   . .   . . . . . . @ @ . . O > @ a h 3 6 5 .                                               ",
"                                        .     . . . . O . . . . X X . . . @ $ @                                                 ",
"                                                  . . . . . . . X * . . . O o                                                   ",
"                                                .   = . . . . . + , o     q :                                                   ",
"                                                              + ; >                                                             ",
"                                                                                                                                ",
"                                                                                                                                ",
"                                                                                                                                ",
"                                                                                                                                ",
"                                                                                                                                ",
"                                                                                                                                "
};
