/* XPM */
static char *door401703585273[] = {
/* columns rows colors chars-per-pixel */
"64 64 216 2 ",
"   c None",
".  c #020101",
"X  c #0B0201",
"o  c #090907",
"O  c #0C0C0A",
"+  c #070908",
"@  c #130101",
"#  c #1B0101",
"$  c #120D0A",
"%  c #190B08",
"&  c #0E100D",
"*  c #13110E",
"=  c #1A110E",
"-  c #141511",
";  c #1B1B15",
":  c #240101",
">  c #2A0202",
",  c #240907",
"<  c #2B0807",
"1  c #2C0B09",
"2  c #250C0A",
"3  c #330302",
"4  c #3C0202",
"5  c #320807",
"6  c #330D0A",
"7  c #3C0A08",
"8  c #28120E",
"9  c #3A110E",
"0  c #34120F",
"q  c #2B1A16",
"w  c #3A1E18",
"e  c #3A1814",
"r  c #28251D",
"t  c #3A211B",
"y  c #440303",
"u  c #4C0303",
"i  c #470807",
"p  c #4B0B09",
"a  c #460B08",
"s  c #530403",
"d  c #5B0404",
"f  c #540A09",
"g  c #520806",
"h  c #411A15",
"j  c #4C1A15",
"k  c #481612",
"l  c #531713",
"z  c #541914",
"x  c #5B1C17",
"c  c #51130F",
"v  c #630504",
"b  c #6C0605",
"n  c #680908",
"m  c #720505",
"M  c #790606",
"N  c #740D0C",
"B  c #7D0E0B",
"V  c #65100D",
"C  c #681A15",
"Z  c #721713",
"A  c #5A261E",
"S  c #46231B",
"D  c #79231D",
"F  c #69221D",
"G  c #692721",
"H  c #782C24",
"J  c #71342B",
"K  c #840606",
"L  c #8C0C0B",
"P  c #840A09",
"I  c #900808",
"U  c #9B0808",
"Y  c #861814",
"T  c #9A1E19",
"R  c #8B120C",
"E  c #A50B0B",
"W  c #A90908",
"Q  c #A00707",
"!  c #BA0909",
"~  c #B40808",
"^  c #A7120E",
"/  c #AB1613",
"(  c #B21915",
")  c #82241D",
"_  c #A5251F",
"`  c #822C23",
"'  c #9A2821",
"]  c #913E32",
"[  c #B72A23",
"{  c #AF3027",
"}  c #CC0C0B",
"|  c #C30B0B",
" . c #D20E0D",
".. c #DB0E0E",
"X. c #C8100E",
"o. c #DF100F",
"O. c #CD1413",
"+. c #C71614",
"@. c #D91111",
"#. c #E20D0D",
"$. c #E90E0E",
"%. c #F90E0D",
"&. c #EB1816",
"*. c #FE1413",
"=. c #FD1916",
"-. c #F51D1B",
";. c #FF1C1B",
":. c #F51A17",
">. c #D6221D",
",. c #FE221E",
"<. c #F4201E",
"1. c #C52721",
"2. c #D72922",
"3. c #D5352D",
"4. c #D8352C",
"5. c #E32B25",
"6. c #EE2722",
"7. c #FF2422",
"8. c #FF2925",
"9. c #FF2D2A",
"0. c #F32E28",
"q. c #E5342A",
"w. c #FE332D",
"e. c #F9322A",
"r. c #FF3633",
"t. c #FF3A35",
"y. c #FF3E3A",
"u. c #F53F36",
"i. c #A94236",
"p. c #DB4236",
"a. c #EA473C",
"s. c #FF443C",
"d. c #FD4A3F",
"f. c #F3473C",
"g. c #FF4642",
"h. c #FF4B44",
"j. c #FF4E4A",
"k. c #FF5145",
"l. c #FF544B",
"z. c #FF594D",
"x. c #FF5554",
"c. c #FF5B53",
"v. c #FF5D5A",
"b. c #FF614E",
"n. c #FF6355",
"m. c #FF645B",
"M. c #FF695D",
"N. c #FF725D",
"B. c #FF6663",
"V. c #FF6B62",
"C. c #FF6E68",
"Z. c #FF7366",
"A. c #FF7966",
"S. c #FF746A",
"D. c #FF7C6E",
"F. c #FF7C73",
"G. c #FF7770",
"H. c #FF836D",
"J. c #FF8274",
"K. c #FF8973",
"L. c #FF847A",
"P. c #FF897B",
"I. c #FF917C",
"U. c #FF9C7E",
"Y. c #FF8C82",
"T. c #FF9385",
"R. c #FF9B83",
"E. c #FF9489",
"W. c #FF9B8C",
"Q. c #FF9C90",
"!. c #FFA18C",
"~. c #FFAA8D",
"^. c #FFA386",
"/. c #FFB18C",
"(. c #FFA293",
"). c #FFAD95",
"_. c #FFA598",
"`. c #FFAC9C",
"'. c #FFB29C",
"]. c #FFB89A",
"[. c #FFB4A3",
"{. c #FFBCA4",
"}. c #FFBDAA",
"|. c #FFC29F",
" X c #FFC4A4",
".X c #FFC3AD",
"XX c #FFCBAB",
"oX c #FFCDA5",
"OX c #FFD5AD",
"+X c #FFD6A9",
"@X c #FFC5B3",
"#X c #FFCBB4",
"$X c #FFCDBA",
"%X c #FFD3B4",
"&X c #FFDBB4",
"*X c #FFDBBC",
"=X c #FFE4B4",
"-X c #FFE3BD",
";X c #FFECBC",
":X c #FFF1BF",
">X c #FFD8C3",
",X c #FFE5C5",
"<X c #FFEAC2",
"1X c #FFE3CA",
"2X c #FFECCC",
"3X c #FFF3C3",
"4X c #FFF0CF",
"5X c #FFEBD6",
"6X c #FFF4D3",
"7X c #FFFBD6",
"8X c #FFFCDC",
"9X c #FFF4DA",
"0X c #FFFCE3",
"qX c #FFFEEB",
"wX c #FFFFF4",
"eX c #FFFFFE",
/* pixels */
"                                                                                                                                ",
"                                                                                                                                ",
"                                                                                                                                ",
"                                                                                                                                ",
"                                                                                                                                ",
"                                                                                                                                ",
"                                                                                                                                ",
"                                                                                                                                ",
"                                                                                                                                ",
"                                                                                                                                ",
"                                                                                                                                ",
"                                                                                                                                ",
"                                                : : : : # @ r = . . .         #                                                 ",
"                                              @ : : : : : > < > # @ . . .                                                       ",
"                                                @ : : : > v y # : > > # X . .         3                                         ",
"                                            . . X : > : > d i $ X , 7 4 # @ . X d > @ d : .                                     ",
"                                        . . . . X : 3 : : : c S O . # : 3 : # @ X X @ > : X                                     ",
"                                      . X @ . . > 3 3 3 > 5 ) H = g 4 3 s s y > @ # : : : @ .                                   ",
"                                    . . # 3 X # y 4 3 y j D ' 2.T O.E n B P I s y 4 > : : : X                                   ",
"                                  . . X : > 4 4 u d v / 2.q.q.w.8.=.:.#. .! ! K m b V y : : # .                                 ",
"                                . . X @ 3 M v d I E $.7.w.t.w.w.8.,.=.%.%.$...~ U ^ R v y 3 # X .                               ",
"                              . . . . 7 p U } } %.=.=.7.s.s.s.s.8.8.,.=.=.,.=. . .} I M s u 4 @ .                               ",
"                          . . . . X > y s Q %.%.*.;.,.8.s.k.c.m.z.s.t.w.,.,.=.,.=.*.%.W m b y # . .                             ",
"                          . . . X : g I | #.*.=.8.7.8.y.z.M.Z.Z.Z.A.M.d.s.s.8.e.,.*.*... .Q u > . .                             ",
"                          4 > 7 : y d } $.*.,.8.8.9.r.j.x.F.P.K.H.K.K.N.b.k.d.d.9.7.;.;.$.I d y , @ .                           ",
"                            v y 4 u M ..=.8.8.s.s.g.j.x.C.L.T.T.^.~./.U.N.n.b.b.y.9.;.;.*.O.N V 9 2 o                           ",
"                              # d U $.=.;.8.r.j.c.n.B.x.F.P.!.).].oXoX^.H.H.H.z.g.r.9.7.8.;.( Y c 8 O .                         ",
"                            @ 3 d ~ *.;.;.8.y.k.M.A.S.B.P.W.).'.|.=X+X|.U.U.K.M.Z.v.g.r.r.8.>.( Z 6 $ & *                       ",
"                            > y K W *.;.7.r.h.l.M.A.K.L.). XXXoXOX=XOXOX/.^.K.S.H.Z.n.s.r.w.,.O.Z 0 * O <                       ",
"                          # u y K  .;.7.7.y.l.c.S.I.^.).).%X<X3X3X:X:X=X|.~.R.R.P.D.m.j.s.w.w.O.m , + . i > . .                 ",
"                        w 0 6 3 L ;.9.t.w.r.j.v.I.]. XoX%X8X0XqXqX0X8X7X6X;XOX].).).I.D.Z.n.h.0.( 5 @ . X . X                   ",
"                        > : : b +.w.y.s.g.j.j.G.!. X-X-X6XqXeXeXeXeXeXwX8X3X*X#X.X X'.T.J.D.c.r.4.C : X . . o                   ",
"                        @ $ X 4 W -.y.s.g.j.B.T.). X&X3X8XwXeXeXeXeXeXeXqX<X$XXX{.{.).W.I.A.c.s.q.A @ . . .                     ",
"                        X . . : W -.s.g.s.c.S.(.`.[.&X3X0XeXeXeXeXeXeXeXwX5X#XXX.X{.).W.H.M.n.k.p.J t ; O O                     ",
"                        X . . u #.7.k.k.n.M.Y.(.[.[.%X7XwXeXeXeXeXeXeXeXwXqX1X#X}.`.Y.Y.M.j.k.s.3.A q - X X                     ",
"                        o . . < T 5.s.k.c.C.Y.Q.'.{.-X8XeXeXeXeXeXeXeXeXeXwX0X1X$X[.F.F.z.r.9.9.&.R y , #                       ",
"                        r & . + k >.y.s.g.v.F.E.(..X1X6X0XeXeXeXeXeXeXeXeXwX0X4X}.Q.F.v.g.w.7.;.O.n y 3 % . .                   ",
"                        + . . . : O.t.g.g.m.F.P.E.[.#X2X7XqXeXeXeXeXeXeXqX0X0X%X[.F.B.x.g.7.7.6.E u y > X . .                   ",
"                        . X : . 4 | 7.t.g.c.G.F.L.[.@XXX<X6XqXeXeXeXeXwX0X6X,X$X_.F.C.x.r.7.,.E g u 3 y # .                     ",
"                        . . X @ > I ..7.r.g.x.v.Y.W._._..X,X0XqXeXeXeXwX0X6X1X@X`.E.F.j.r.9.=.I 4 4 > @ X                       ",
"                        . . . . . s ! -.8.9.j.v.Y.Q._.`.}.1X7X8X0X0XwXqXqX5X>X}.}.W.F.j.y.t.&.M 4 4 # . #                       ",
"                        . . X X . i M E ..7.g.x.F.Y.E.Q.`.>X2X4X1X2X4X0X0X1X@X}.[.Y.Z.z.r.e.D p u 4 X . :                       ",
"                        . . . > X y d M E 7.r.j.v.F.E.E.Q.}.}.@X>X>X>X>X1X@X@X_.!.J.m.z.g.1.l l i @ . . .                       ",
"                          . . @ d > s u M ! 9.g.m.C.L.Y.Y.Y.E.[.>X@X}.$X}._._.P.P.D.n.k.f.Y l l 1 . . . .                       ",
"                          . . X d , u v d b >.j.n.Z.F.F.F.L.E.Q.`.[._.[.!.P.F.c.c.n.b.p.{ C x j $ . X X                         ",
"                            . . X X y y i V ' u.h.z.m.n.m.B.L.T.E.E.P.L.J.S.z.y.s.h.h.i.x z x h 5 . @ X                         ",
"                            - # . . < 5 1 C ` { s.s.s.j.g.z.V.m.V.V.D.P.S.x.d.t.0.4.i.] z 0 q l 6 . X .                         ",
"                            . # X . = 1 1 G ` 1.3.e.8.9.r.s.y.y.j.j.x.M.z.t.t.e.>._ H J 0 X o o & . X .                         ",
"                                . + + > < e 9 f n ..@.&.8.8.7.;.9.w.g.z.s.0.5.[ T D C w @ o . . . . +                           ",
"                                . . + $ f p 5 : > v g P O. .$.-.6.1.3.d.4.[ ' V N h q = . = - . .   O *                         ",
"                                  + . ; 7 s u @ . X # y V s M ^ _ D D ] J C l 4 : - ; O . X * .                                 ",
"                                    * & @ : @ . . . . , : > : 5 w t j A H h > 3 X o O O X #                                     ",
"                              +         . # X . . @ # * X : : < k h > 6 e e > y p , X .   o                                     ",
"                                          X X . . X X + X @ X X 6 j : : < > : > 4 >                                             ",
"                                            . . . . . . . . . . . % @ # : : : # : >                                             ",
"                                              X . . . o . . . . . . . X @ ; $ X X                                               ",
"                                                    . . . . . . o - . . X ; ;                                                   ",
"                                                    *     . . . O ; .                                                           ",
"                                                                  O                                                             ",
"                                                                                                                                ",
"                                                                                                                                ",
"                                                                                                                                ",
"                                                                                                                                ",
"                                                                                                                                "
};
