/* XPM */
static char *ezgif_com_crop__26_1703342475[] = {
/* columns rows colors chars-per-pixel */
"64 64 18 1 ",
"  c None",
". c #331A19",
"X c #341A25",
"o c #3C1E2B",
"O c #4D2D2C",
"+ c #452432",
"@ c #4F2A3A",
"# c #5C3747",
"$ c #442B61",
"% c #745663",
"& c #7C5969",
"* c #CE2038",
"= c #8A0B41",
"- c #331685",
"; c #9E7688",
": c #97828A",
"> c #97828B",
", c #BEACB3",
/* pixels */
"                                                                ",
"                                                                ",
"                                                                ",
"                                                                ",
"                                                                ",
"                                                                ",
"                                                                ",
"                                                                ",
"                                                                ",
"                                                                ",
"                            @++++                               ",
"                           @@++++++++                           ",
"                           @@@++++++++                          ",
"                           @@@@+++++++++                        ",
"                            @@@@+++++++++                       ",
"                             @@@@+++++++++                      ",
"                              @@@@+++++++++                     ",
"                               @@@@+++++++++                    ",
"                                @@@@+++++++++                   ",
"                                 @ooo+++++++++                  ",
"                                  ooooo+++++++                  ",
"                                  oooooo++++++                  ",
"                               **=o,oooooo+++++                 ",
"                            *****=oo,:ooooooooo                 ",
"                           ******===o==** oooo                  ",
"                           *==========****                      ",
"                          *==ooo:::.:====**                     ",
"                          =ooooo:::.:::::=**                    ",
"                          =oooo::::.:::::X**                    ",
"                          oooo:::::.:::::XXX                    ",
"                          oooo::,,,.:::::XX#                    ",
"                          oooo::,,,.:::::XX#                    ",
"                          ooo#:::,,.:::::XX##                   ",
"                         ooo###:::,.:::::X###                   ",
"                         oo#####::,.:::::X###                   ",
"                         oo#####:::.:::::X###                   ",
"                         oo#####:::.:::::X####                  ",
"                         ooo####:::.:::::X####                  ",
"                         oooo###........XX####                  ",
"                         oooooo.........XXXX##                  ",
"                         ooooooo........XXXXX#                  ",
"                           oooo&,,:.::::XXXXXX                  ",
"                           ooo&&:::...:::X&&X                   ",
"                            ,o&&:::.....::&&X                   ",
"                            ,,&&:::.OO...&:&;:                  ",
"                            ,,&%%::.OOOO.....OO                 ",
"                           ,,,&&&,:.OOOO...OOOOO                ",
"                      ::::,,,,&&&,:..OOOO...OOOO                ",
"                    :::::::,,,,,,::..OOOO....O..                ",
"                   :::::::::,,,,:::...OOO.......                ",
"                  :::::::::::::::::.............                ",
"                  ::::::::::::::::OO............                ",
"                  ::::::::::......OO............                ",
"$$$$$$$$$$$$$$$$$$$$$$$$$$$-------.....:O......                 ",
"                                                                ",
"                                                                ",
"                                                                ",
"                                                                ",
"                                                                ",
"                                                                ",
"                                                                ",
"                                                                ",
"                                                                ",
"                                                                "
};
