/* XPM */
static char *ezgif_com_crop__25_1703342475[] = {
/* columns rows colors chars-per-pixel */
"64 64 17 1 ",
"  c None",
". c #331A19",
"X c #341A25",
"o c #3C1E2B",
"O c #4D2D2C",
"+ c #452432",
"@ c #4F2A3A",
"# c #5C3747",
"$ c #442B61",
"% c #745663",
"& c #7C5969",
"* c #CE2038",
"= c #8A0B41",
"- c #331685",
"; c #97828A",
": c #97828B",
"> c #BEACB3",
/* pixels */
"                                                                ",
"                                                                ",
"                                                                ",
"                                                                ",
"                                                                ",
"                                                                ",
"                                                                ",
"                                                                ",
"                                                                ",
"                                                                ",
"                                                                ",
"                                                                ",
"                            @++++                               ",
"                           @@++++++++                           ",
"                           @@@++++++++                          ",
"                           @@@@+++++++++                        ",
"                            @@@@+++++++++                       ",
"                             @@@@+++++++++                      ",
"                              @@@@+++++++++                     ",
"                               @@@@+++++++++                    ",
"                                @@@@+++++++++                   ",
"                                 @ooo+++++++++                  ",
"                                  ooooo+++++++                  ",
"                                  oooooo++++++                  ",
"                               **=o>oooooo+++++                 ",
"                            *****=oo>;  ooooooo                 ",
"                           ******===o==** oooo                  ",
"                          **==========****                      ",
"                          ooo;;;;;.;;;;;XX                      ",
"                          ooo;;>>>.;;;;;XX                      ",
"                          ooo;;>>>.;;;;;XXX                     ",
"                          ooo;;;>>.;;;;;XX#                     ",
"                         oooo;;;;>.;;;;;XX#                     ",
"                         ooo#;;;;>.;;;;;XX##                    ",
"                        ooo##;;;;;.;;;;;X###                    ",
"                        oo###;;;;;.;;;;;X###                    ",
"                        oo###;;;;;.;;;;;X###                    ",
"                        oo####..........X####                   ",
"                        ooo####.........X####                   ",
"                       =oooo###........XX####                   ",
"                     **=ooooooo>>>;;;;>XXXX##                   ",
"                   **===ooooooo>>;..;;;XXXXX#                   ",
"                    ======oooo&;;;....;XXXXXX                   ",
"                     =====ooo&&;;;......X&&X;>                  ",
"                          >>o&&%;;..OOOO.&&X..OOO               ",
"                         >>>>&&>>;..OOOO..&.OOOOOO              ",
"                   ;;;;;>>>>>&>>>;...OOOOO...OOOOO              ",
"                ;;;;;;;;;>>>>&&&;;...OOOOO....OO..              ",
"               ;;;;;;;;;;;>>>&&&;;....OOOO........              ",
"              ;;;;;;;;;;;;;;;;;;;;................              ",
"              ;;;;;;;;;;;;;;;;;;;OOO..............              ",
"              ;;;;;;;;;;;;.......OOO..............              ",
"$$$$$$$$$$$$$$$$$$$$$$$$$$-------......;OO.......               ",
"                                                                ",
"                                                                ",
"                                                                ",
"                                                                ",
"                                                                ",
"                                                                ",
"                                                                ",
"                                                                ",
"                                                                ",
"                                                                ",
"                                                                "
};
