/* XPM */
static char *ezgif_com_crop__7_1703260583[] = {
/* columns rows colors chars-per-pixel */
"64 64 23 1 ",
"  c None",
". c #331A19",
"X c #341A25",
"o c #3C1E2B",
"O c #4D2D2C",
"+ c #452432",
"@ c #4F2A3A",
"# c #5C3747",
"$ c #442B61",
"% c #745663",
"& c #7C5969",
"* c red",
"= c #CE2038",
"- c #8A0B41",
"; c #8A767E",
": c #331685",
"> c #432792",
", c #5F4181",
"< c #9A7686",
"1 c #9E7688",
"2 c #97828A",
"3 c #97828B",
"4 c #BEACB3",
/* pixels */
"                                                                ",
"                                                                ",
"                                                                ",
"                                   ++@                          ",
"                                 ++++@@                         ",
"                                ++++@@@                         ",
"                              +++++@@@@                         ",
"                            ++++++@@@@                          ",
"                           ++++++@@@@                           ",
"                          ++++++@@@@                            ",
"                        +++++++@@@@                             ",
"                       +++++++@@@@                              ",
"                      +++++++ooo@                               ",
"                     ++++++ooo;o                                ",
"                    ++++++ooo;*o                                ",
"                   +++++oooo;34o                                ",
"                   ooooooo  24oo-==                             ",
"                    oooo  =--o---=====                          ",
"                         ====--=========                        ",
"                        =====--==========                       ",
"                       =====-----------==                       ",
"                      ====-----2222oo##---                      ",
"                      =---2222.22222oo####                      ",
"                      X###2224.44442oooo###                     ",
"                      X###2224.44444o#o#####                    ",
"                      X###22244.4442ooo#####                    ",
"                     XX###22224.442ooo#####o                    ",
"                     X#####2224.422o######oo                    ",
"                     X##XX#2224.222oo####ooo                    ",
"                     XXXXXX2224.22=ooooooooo                    ",
"                     XXXXX%%<2....1&ooooooo                     ",
"                      XXX%%><<...21&&ooooo                      ",
"                         %%:%<<4411&&&ooo                       ",
"                        444%%<<441&&&oo                         ",
"                       44442%%>111&&2=                          ",
"                       44422%%:&&&2222                          ",
"                      4442222..$$$,444                          ",
"                     4442222...2$$,,,44                         ",
"                     44222..OO.224$,,,,                         ",
"                    44222.OOOO..244$$,,,                        ",
"                   4222..OOOOO..22444$$,,,                      ",
"                   22...OOO..OO..224444$$,,,                    ",
"                   ..OOOOO...OO..2244444 $$,,,                  ",
"                  OOOOOOO.O.O.OO..22444    $$,,,                ",
"                  OOOOO...O....OOO.24444     $$,,               ",
"                  OOOOO.O......OOO..22444      $,,,             ",
"                  .............OOOO..2444       $$,,,           ",
"                  ............OO..OO.22444        $$,,,         ",
"                  ...........O.....O..2244          $$$         ",
"                   ...................22244                     ",
"                   .O.OO...............2224                     ",
"                   ....OO.............O..224                    ",
"                   .442.OO...........O..44.2                    ",
"                   4222................2222.                    ",
"                                                                ",
"                                                                ",
"                                                                ",
"                                                                ",
"                                                                ",
"                                                                ",
"                                                                ",
"                                                                ",
"                                                                ",
"                                                                "
};
