/* XPM */
static char *ab2fa802c7b74838a95da313324d5bd1WCdUvZywzSIFErBo[] = {
/* columns rows colors chars-per-pixel */
"64 64 15 1 ",
"  c black",
". c #1A1A18",
"X c #3D241E",
"o c #342C28",
"O c #49383D",
"+ c #495254",
"@ c #5B6567",
"# c #801F2D",
"$ c #9E2F35",
"% c #B32423",
"& c #D32C00",
"* c #C7310E",
"= c #894948",
"- c #6D8084",
"; c #809EA5",
/* pixels */
"@++++++@+@@@@@@@@@@@@@@@@@@@@@@@@@@@@@@@@@@@@@@@@@@@@@@@@@@@@@@O",
"@++++++@+@@@@@@@@@@@@@@@@@@@@@@@@@@@@@@@@@@@@@@@@@@@@@@@@@@@@@@O",
"+++++++@+@@@@@@@@@@@@@@@@@@@@@@@@@@@@@@@@@@@@@@@@@@@@@@@@@@@@@@O",
"@++++@@-@-;-;;;;;;@@@@@---;-;;;;-;;;;;;;;;@@@@@---;-;;;;;;;;@@@O",
"+++++++@+@@@@@@@@-;@@@@@@@@@@@@@@@@@@@@@@-;@@@@@@@@@@@@@@@@-;@@O",
"@++O+++@+@@@@@@@@@;@@+@@@@@@@@@@@@@@@@@@@@;@@+@@@@@@@@@@@@@@;@@X",
"@++O+++@+@@@@@@@@@;@@+@@@@@@@@@@@@@@@@@@@@;@@+@@@@@@@@@@@@@@;@@O",
"@++X+++@+@@@@@@@@@;@@+@@@@@@@@@@@@@@@@@@@@;@@+@@@@@@@@@@@@@@;@@X",
"@++X+++@+@@@@@@@@@;@@+@@@@@@@@@@@@@@@@@@@@;@@+@@@@@@@@@@@@@@;@@O",
"@++X+++@+@@@@@@@@@;@@O@@@@@@@@@@@@@@@@@@@@-@@O@@@@@@@@@@@@@@;@@X",
"@++O+++@+@@@@@@@@@;@@O@@@@@@@@@@@@@@@@@@@@-@@O@@@@@@@@@@@@@@;@@X",
"@++O+++@+@@@@@@@@@-@@O@@@@@@@@@@@@@@@@@@@@-@@O@@@@@@@@@@@@@@;@@X",
"@++O+++@+@@@@@@@@-@@@O@@@@@@@@@@@@@@@@@@@@@@@@O@@@@@@@@@@@@@;@@X",
"@++O+++@+@@@@@@@-@@@@@OOOOOOOO+O+O+++++++@@@@@@O@@@@@@@@@@@@;@@X",
"@++X+++@+@@@@@@-@@@@@@@@@@@@@@@@@@@@@@@@@@@@@@@@O@@@@@@@@@@@;@@X",
"@++O+++@+@@@@@-@@@@@@@@@@@@@@@@@@@@@@@@@@@@@@@@@@O@@@@@@@@@@;@@O",
"@++X+++@+@@@@-@@@=%%%%%%%%%%%%%%%%%%%%%%%%%%%%=@@@+@@@@@@@@@;@@X",
"@++X+++@+@@@-@@@%%%%%%%%%%%%%%%%%%%%%%%%%%%%%%%%@@@+@@@@@@@@;@@O",
"@++X+++@+@@@;@@=%%%%%%%%%%%%%%%%%%%%%%%%%%%%%%%%=@@+@@@@@@@@;@@X",
"@++X+++@+@@@;@@%%%%%%*&&&&&&&*&********%*%*%%%%%%@@+@@@@@@@@;@@O",
"@++X+++@+@@@;@@%%%%$          .o.o.ooooooooo$%%%%@@+@@@@@@@@-@@O",
"@++X+++@+@@@;@@%%%% ............o.o.o.o.o.ooo%%%%@@+@@@@@@@@;@@X",
"@++X+++@+@@@-@@%%%%..#%$%$$$$$$$$$$$%$%$%%#oo%%%%@@+@@@@@@@@-@@O",
"@++X+++@+@@@;@@%%%*..%%%%%%%%%%%%%%%%%%%%%%oo%%%%@@O@@@@@@@@;@@X",
"@++X+++@+@@@-@@%%%%.o%%%%%%%%%%%%%%%%%%%%%%.o%%%%@@+@@@@@@@@;@@O",
"@++X+++@+@@@-@@%%%*o.%%%%%%%%%%%%%%%%%%%%%*o.%%%%@@O@@@@@@@@;@@O",
"@++X+++@+@@@-@@%%%%.o%%%%@@@@@@@@@@@@@@%%%%.o%%%%@@O@@@@@@@@;@@O",
"@++XO++@+@@@@@@%%%*o.%%%%@@@@@@@@@@@@@@%%%*o.%%%%@@O@@@@@@@@;@@O",
"@+++XXXOX++@@@@%%%*oo%%%%@@@@----;;;@@@%%%%.o%%%%@@O@@@@@@@@-@@O",
"@++++++@+@@@@@@%%%*oo%%%%@@@@@@@@@@-;@@%%%*o.%%%%@@O@@@@@@@@-@@O",
"@++++++@+@@@@@@%%%*oo%%%%@@+@@@@@@@@;@@%%%*.o%%%%@@O@@@@@@@@-@@O",
"%$$$$$$%$%%%%%%%%%*oo%%%%@@+@@@@@@@@;@@%%%*o.%%%%@@O@@@@@@@@-@@O",
"%$$$$$$%$%%%%%%%%%*oo%%%%@@+@@@@@@@@;@@%%%*.o%%%%@@O@@@@@@@@-@@O",
"%$$$$$$%$%%%%%%%%%*oo%%%%@@O@@@@@@@@;@@%%%*o.%%%%@@O@@@@@@@@-@@O",
"%%%%%%%&%&&&&&&*&**oo%%%%@@O@@@@@@@@;@@%%%*.o%%%%@@O+@@@@@@@@@@.",
"       . .  .......oo%%%%@@O@@@@@@@@;@@%%%*o.%%%%@@@OOOO+++@@@@O",
".......o.o..ooo.o.oo$%%%%@@O@@@@@@@@;@@%%%*oo%%%%@@@@@@@@@@@@@@.",
"$$#$###$#$$$$$$$$%$%%%%%%@@O@@@@@@@@;@@%%%*oo%%%%@@@@@@@@@@@@@@.",
"$$$$$$$%$%%%%%%%%%%%%%%%=@@O@@@@@@@@;@@%%%*oo%%%%%%%%%%%%%%%%%%.",
"$$$$$$$%$%%%%%%%%%%%%%%%@@@+@@@@@@@@;@@%%%*oo%%%%%%%%%%%%%%%%%%.",
"%$$$$$$%$%%%%%%%%%%%%%=@@@-@@@@@@@@@;@@%%%*oo%%%%%%%%%%%%%%%%%%X",
"+++++++@+@@@@@@@@@@@@@@@@-@@@@@@@@@@;@@%%%%..%%*%*&&&*&%*%%%%%%.",
"@++++++@+@@@@@@@@@@@@@@@;@@@@@@@@@@@;@@%%%%.       . . .......o.",
"@++++@@-@-;-;;;;;;@@@@@-@@@@@@@@@@@@;@@%%%%$.......o.o.ooo.o.oo.",
"@++++++@+@@@@@@@@-;@@@@@@@@@@@@@@@@@;@@%%%%%%%$%$$$$$$$#$######.",
"@++O+++@+@@@@@@@@@;@@+@@@@@@@@@@@@@@;@@=%%%%%%%%%%%%%%%%%%%%%%%X",
"+++O+++@+@@@@@@@@@;@@+@@@@@@@@@@@@@@;@@@%%%%%%%%%%%%%%%%%%%%%%%X",
"@++O+++@+@@@@@@@@@;@@+@@@@@@@@@@@@@@@;@@@=%%%%%%%%%%%%%%%%%%%%%X",
"@++O+++@+@@@@@@@@@;@@+@@@@@@@@@@@@@@@@;@@@@@@@@@@@@@@@@@@@@@@@@O",
"@++O+++@+@@@@@@@@@;@@+@@@@@@@@@@@@@@@@@;@@@@@@@@@@@@@@@@@@@@@@@O",
"@++O+++@+@@@@@@@@@-@@+@@@@@@@@@@@@@@@@@@;@@@@@@---;;;;;-;;;;@@@O",
"@++O+++@+@@@@@@@@@;@@+@@@@@@@@@@@@@@@@@@@;@@@@@@@@@@@@@@@@@-;@@O",
"@++X+++@+@@@@@@@@@-@@O@@@@@@@@@@@@@@@@@@@@;@@+@@@@@@@@@@@@@@;@@O",
"@++O+++@+@@@@@@@@@;@@+@@@@@@@@@@@@@@@@@@@@;@@+@@@@@@@@@@@@@@;@@X",
"@++X+++@+@@@@@@@@@-@@O@@@@@@@@@@@@@@@@@@@@;@@+@@@@@@@@@@@@@@;@@O",
"@++X+++@+@@@@@@@@@-@@O@@@@@@@@@@@@@@@@@@@@;@@+@@@@@@@@@@@@@@-@@X",
"@++X+++@+@@@@@@@@@-@@O@@@@@@@@@@@@@@@@@@@@;@@O@@@@@@@@@@@@@@-@@O",
"@++X+++@+@@@@@@@@@-@@O@@@@@@@@@@@@@@@@@@@@-@@O@@@@@@@@@@@@@@-@@X",
"@++X+++@+@@@@@@@@@-@@O@@@@@@@@@@@@@@@@@@@@-@@O@@@@@@@@@@@@@@-@@X",
"@++XO++@+@@@@@@@@@@@@O+@@@@@@@@@@@@@@@@@@@@@@O+@@@@@@@@@@@@@@@@X",
"@+++XXXOXOOOOOO++@@@@@OOOO+O+O+OOOOOO+O++@@@@@OOOO+O+++O+++@@@@X",
"@++++++@+@@@@@@@@@@@@@@@@@@@@@@@@@@@@@@@@@@@@@@@@@@@@@@@@@@@@@@X",
"@++++++@+@@@@@@@@@@@@@@@@@@@@@@@@@@@@@@@@@@@@@@@@@@@@@@@@@@@@@@X",
"@++++++@+@@@@@@@@@@@@@@@@@@@@@@@@@@@@@@@@@@@@@@@@@@@@@@@@@@@@@@O"
};
