/* XPM */
static char *idhaimy__1_1702975996[] = {
/* columns rows colors chars-per-pixel */
"64 64 232 2 ",
"   c #020304",
".  c #050B0A",
"X  c #0C0B0C",
"o  c #090506",
"O  c #140101",
"+  c #170A08",
"@  c #08100E",
"#  c #18110D",
"$  c #0C0E11",
"%  c #130E13",
"&  c #0D1313",
"*  c #0B1614",
"=  c #131314",
"-  c #1A1414",
";  c #1A161A",
":  c #151A1A",
">  c #1B1B1C",
",  c #151718",
"<  c #230A07",
"1  c #26120C",
"2  c #231511",
"3  c #231C1C",
"4  c #281918",
"5  c #351A18",
"6  c #2C1112",
"7  c #1B201F",
"8  c #25211E",
"9  c #37231D",
"0  c #1C1E21",
"q  c #161E20",
"w  c #221E22",
"e  c #2B1D21",
"r  c #331F25",
"t  c #1E2223",
"y  c #232425",
"u  c #2B2323",
"i  c #242629",
"p  c #252A2A",
"a  c #2A2C2C",
"s  c #282728",
"d  c #362929",
"f  c #2A302E",
"g  c #37312E",
"h  c #2C2E31",
"j  c #352E31",
"k  c #2E3233",
"l  c #333434",
"z  c #333539",
"x  c #363A3C",
"c  c #3B3C3D",
"v  c #373637",
"b  c #43251B",
"n  c #5C2217",
"m  c #442A28",
"M  c #433C3B",
"N  c #493537",
"B  c #583B37",
"V  c #4B302E",
"C  c #74382A",
"Z  c #4C1810",
"A  c #3B413E",
"S  c #4E423C",
"D  c #754337",
"F  c #3B3E41",
"G  c #443E42",
"H  c #5A3F47",
"J  c #7D3A43",
"K  c #3E4243",
"L  c #384248",
"P  c #434445",
"I  c #434649",
"U  c #454A4B",
"Y  c #4A4C4D",
"T  c #494647",
"R  c #554949",
"E  c #4B514F",
"W  c #4B4E51",
"Q  c #444C51",
"!  c #4D5253",
"~  c #4F5559",
"^  c #525355",
"/  c #535659",
"(  c #555A5B",
")  c #5A5B5D",
"_  c #555757",
"`  c #534F4F",
"'  c #6A4948",
"]  c #645B5B",
"[  c #785855",
"{  c #714F4C",
"}  c #5B605F",
"|  c #65615E",
" . c #5B5E61",
".. c #555A62",
"X. c #4F5762",
"o. c #6A5C62",
"O. c #5D6263",
"+. c #5B6667",
"@. c #596772",
"#. c #616465",
"$. c #646669",
"%. c #656A6B",
"&. c #6B6C6D",
"*. c #676767",
"=. c #6A706E",
"-. c #6B6E71",
";. c #736E70",
":. c #6E7273",
">. c #717575",
",. c #737679",
"<. c #757B7B",
"1. c #797B7B",
"2. c #746A6C",
"3. c #86493C",
"4. c #895449",
"5. c #96594B",
"6. c #8A4A54",
"7. c #96575A",
"8. c #8A5052",
"9. c #A45C52",
"0. c #9B6556",
"q. c #906251",
"w. c #A66858",
"e. c #B06E56",
"r. c #9B5B64",
"t. c #995763",
"y. c #865C62",
"u. c #A45E68",
"i. c #896866",
"p. c #996968",
"a. c #99746A",
"s. c #85797A",
"d. c #9A7678",
"f. c #946D72",
"g. c #A66769",
"h. c #A97667",
"j. c #B77969",
"k. c #AB6C74",
"l. c #A66972",
"z. c #B36D78",
"x. c #A97579",
"c. c #B3737C",
"v. c #B77777",
"b. c #B26D64",
"n. c #C47C6F",
"m. c #7A807E",
"M. c #AA8479",
"N. c #BA8477",
"B. c #BD8169",
"V. c #91827D",
"C. c #C3857B",
"Z. c #CB8C7B",
"A. c #C58877",
"S. c #CC917C",
"D. c #CE8C76",
"F. c #7B7E81",
"G. c #BB7C83",
"H. c #B87883",
"J. c #A87D82",
"K. c #8F7F84",
"L. c #C17C87",
"P. c #7D8284",
"I. c #7A838B",
"U. c #858A8B",
"Y. c #87888A",
"T. c #8A908E",
"R. c #8D9293",
"E. c #949999",
"W. c #91898B",
"Q. c #A98789",
"!. c #BB8588",
"~. c #B99186",
"^. c #BC8D94",
"/. c #B99498",
"(. c #AC8C8F",
"). c #9BA09F",
"_. c #9DA2A3",
"`. c #99A5B1",
"'. c #A5A9A8",
"]. c #B4B9B9",
"[. c #ACB1B2",
"{. c #C3838C",
"}. c #C88888",
"|. c #C99588",
" X c #D69989",
".X c #CB8692",
"XX c #CB8B95",
"oX c #CD8D99",
"OX c #C68792",
"+X c #D28E9A",
"@X c #D18C95",
"#X c #CD919A",
"$X c #C79A95",
"%X c #D3939D",
"&X c #D89898",
"*X c #D18D88",
"=X c #E29E90",
"-X c #DDA38B",
";X c #CBA39A",
":X c #DCA394",
">X c #D7A598",
",X c #E3A58B",
"<X c #E2A394",
"1X c #E4AA9C",
"2X c #E7A998",
"3X c #F2AE97",
"4X c #EBB09E",
"5X c #F7B59E",
"6X c #C99AA4",
"7X c #D595A0",
"8X c #DA95A2",
"9X c #DB9AA4",
"0X c #DD9BA9",
"qX c #D49BA4",
"wX c #E29DAB",
"eX c #E19BA6",
"rX c #CCA7A9",
"tX c #D9A4A9",
"yX c #D7AAB3",
"uX c #D7B2B5",
"iX c #E4A3AC",
"pX c #EAACA2",
"aX c #ECB4A7",
"sX c #F5B7A9",
"dX c #E7A6B3",
"fX c #EFB8B6",
"gX c #BAC0BE",
"hX c #F5C3B8",
"jX c #EBBAC4",
"kX c #BEC3C2",
"lX c #CBD0D0",
"zX c #F9CDCB",
/* pixels */
"[.k v >.A * } E.=.+.P.m.m.+.+.).<.E.P.+.k p p >.:.T.v t P ; y > # )._ S [.f E A / '.X.F ..,...h X...$.:.U.$.~ Q z ..lXY.F Q z Y.",
"P.7 k E E p m.).T.).m.m.m.E E '.I.E.R.m.A t : ) m.T.A g Y = y y 7 V.1.*.'.g S A -.K.O./ I -.W F -.-.%.-.,.O.O.+.F W Y.I F ~ F ,.",
"A p A } f . A V.[.gXm.S m.E _ '.].1.I P t t K T.*.1.A s F % 0 w & v '.'.=.t E _  . .W ../ F.X.h ,.F.F.-./ I W W x ~ ,.z F I z %.",
"m.l : 7 A * f =.].).kXA f U ( '.Y.#.^ *.k t k =.^ 2.A , e ; i ; > l , } &.: } A F._.W Y / -.$.z -.,.....I U L F F #.[...U F L R.",
"=.p . @ U p A m.gXm.lXE f p A ).2.T c ` s s ; a ) | G ; e w i ; q : ; ..^ t I x -._...I G  ...z F.:.L P P ~ W F F ~ ]. .F I W _.",
"q 7 * p 7 @ : E gX'.[.A E p A T.2._ ] >.v 8 u *.T v j ; w ; ; ;   z = Q %.p h x W ..~ / W ;...z :.,.W G I U F F G I [. .k Q F F.",
"} 7 * @ A * 7 : m.gXV.A E E E E.'.*.T _ j w 7 ) w X ; % ; $ % ; ,   q w t i z L K.F./ / ~ ,...G F  ...W O.I F Q I ..[.@.F W F F.",
"m.A t A A y 7 A f ).m.( E E ( ).R.>.T c > a # 7 % . w % % % % % % $ q z p t W l W.]...W ] ..G z ~ %...^ F.~ F F F  .F.I F W F T.",
"( 7 p f f * * f } m.E m.( f A ).m.p E =.l p : 7 = = = = = - # & , 0 w ; = = . = #.K.+.T ^ ..Y F I W ....F.E.F z F L U.~ F F F  .",
"m.7 @ * f * f U m.E A U m.f f E } A p A 7 : # . : 3 : o   X X o % 0 w % % : % = u Y ^ ( Y z G z P I F Q R.U.-.z P -.[.F.F F 0 Q ",
").A @ A A p f m.m.lXm.A m.m.f A +.m.U f y 8 7 @ 8 - % X # # 1 # # 3 3 + # 8 # # ; a  .*.~ / W F P .. .:.[.R.P.z p -.].F.z X.k F.",
"E.E * m.f 7 E ).m.lXm.U U m.E f E T.=.t . * * # # X + # 2 # + + 4 2 - + # 8 8 8 3 = ;.) G ,.Q i F.-.+. .I.R.-.x i X.R.W z %.F F.",
"p A 7 E f * E m.m.'.} f E m.A A } m.m.s X 7 # 8 2 2 2 2 # + < 1 1 + + + 1 4 # 8 u - ;.) x >.~ k /  .#. .Y I W  .h F F.t I -.h I ",
"A 7 * E E 7 A E A lXm.* E m.* m.} E Y & # 7 # - 2 4 + + 1 S V 9 5 < 1 # 1 # + 2 8 # g T c W W t ~ U F O.I.~ W P i W U.z U ..z W ",
"E.E @ A U * A E E [.m.A A m.A f Y ` P @ # 8 # 1 < 1 1 b D s.i.{ D S S m 9 1 + 1 d 8 8 T ^ W ~ w / ..Q #.F.-.X.~ h -._.%.F X.h O.",
"} m.7 } 7 * f A f U m.U m.m.E f u =.} # - # 1 < 5 V [ N.;X~.N.N.N.M.M.q.S b 1 1 2 8 M P G P F 0 W #./ ~ / E.I L q -.P.F.F F.h / ",
"m._ 8 S E 7 : f U R.V.} T.m.A m.A E =.* . u + 6 D M.S.,XS.,X-X;X-X|.S.N.M.[ b + 5 3 d T F / ~ q ,.$.+.! :.E.K x 0 ! E.F z E f <.",
"m.U * A p * A S g E.T.K =.R.A U +.m.E @ y ; 2 n N.S.3X3X,X,X2X,XS.-X-XS.B.N.4.5 1 5 s G G ..I t / I K / <.U.Y t k a a k k ! h R.",
"_ A . f t : A E >.'.lX} } '.K f A =.} : > + < y.>X4X5X5X3X3X5X2X5X4X,XN.N.|.M.V 5 d M j F ..z 0 ! ) I Y k k U K q Y U.a h / k :.",
"7 p . y A 7 p K [.=.gX>.+.m._ %.A A } * ; 8 < a.-X,X5X5X5X,X4X2X-XS.;XS.~.S.~.V.5 9 N j j o.P y ! O.K K l x P K 0 :.].&.F >.t :.",
"& 8 o : A : 8 _ ].O.[.} E ~ K '.'._ E , - 5 m M.;X,XsX5X5X2X4X4X4X:X4X:X XN.uXhX[ b m S v 2.E > ( $.K k ( :.P k & :.T.-.k K t ,.",
"> = @ , 7 7 A _ U.'.].l p =.A E.gXY.| u O 4 a.$X>X4XhXhX5XaXaX1X1X-XN.0.3.{ M.aXrXS d R T | T = ^ $.K t ^ P.K K a I '.x k O.y T.",
"> = = , f 8 A A K E.R.t t m.K :.>.m.] 3 + S ;X~.|.S.D.A.S.2XaX1X:XN.4.C D 4.a.;XhX[ m R S _ U 8 Y Y a t  .T.! c > z p k A ( z :.",
"= 7 & . K p 7 A K K ( A U E t ( f ` *.9 1 { $X~.h.5.C C 3.N.1XaX:XN.3.5.j.M.h./.hXM.S S d S A - &.( a t ! ,.! x y i +.t K } p ,.",
") c . ^ w $ w 0 F F  .z +.U.t U.U.v ;.9 1 D $XN.N.|.N.q.w.j.1XsX:Xh.D n n 5.p.|.hX(.R { A 8 g 7 Y ! A K t p h t t ( E.! A ) k _.",
"x *.j ) F 0 q h t E.R.z W I.i P._.=.| 1 1 D ;XS.N.0.D n 4.A.:X1X:Xv.5.C D 0.g.M.aX;Xa.2.g 9 f * ( ( ( ( k k U l & :.%.,.x ( t ].",
"I #.$ h F h q F E.E._...Q :.k F.m.U.m.N [ {  X;XN.j.B.w.j.*X*X2X:X:XC.b.v.j.N.}.;XrXM.i.g | E 7 ) ! z K :.P.O.a i Y E.z k $.p $.",
"h h . F 0 $ h X.].I '.>...%.h +.L } 2.S /.q.$X>XfX>XpX X&X<X X3X XpX1X}.|.C.|.|.aX;XV.{ 9 | S @ t i ! $.$.$.,.l : t F t k ! a $.",
"$ % w $.z $ F X.U.U.lXQ W F.h %.I.~ T 2 ~.h.S.pXsXsXsXfXfXsX<X<X&X<XpXC.S. X*X1XhX$XV.S g T z : f K E ! <.:. .l t x 0 t E $.f kX",
"% 0 q L F w q F ..[.`.F h $.F I.`.X.l 2 [ ~.N.1XsXzXhXsX=X X3XhXsX=X<Xn.A.<X<XsXaX;Xd.m N ) U q K I ( ( K K / k $ U E.t k K a ].",
"% t $ q 0 % , h i F F i i Q i F.@.L P 5 9 N.|.:X1XsXhXsX2X=XA.D.=XC.n.n.b.Z.&X2X:XtXi.1 d ( x   k A z k t 0 i i & t ! i t a p U ",
"$ : $ i i & : i F i h * k Q q @.@.X.&.u O h.>X|.pXpXsXpX=X2Xn.n.n.j.n.Z.9.j. X&X$X;X{ 5 u v y t x v h A y i a > t a 1.l p c 0 +.",
"* i $ F F i i ..W F G w W  .k +.U.=.E 8 X g (.$X&X=X3X3X3X2X|.N.*Xb.b.n.5.9.*X&XrX' m N e M j % G M d ^ _ ;.S u - c T i G %.i E.",
"$ q $ , 0 q % F i w X.F z Q F o.V.| }   s 7 9 a.&XpX=XD.D.A.N.B.z.9.9.3.C 5.|.>X;XS d u j T j e T c P ] R R s.a 3 w s % w i h Y.",
"i 0 $ , ; % ; $.$.h W / G F h F.%.l } @ 7 # + q.&X4X=Xn.e.w.0.w.9.5.9.n.j.h.|.$X(.V M 8 d ^ N X v ` 8 3 1.] ` 7 o G o.G ; $ h ^ ",
"F F $ F h , i F.F.G G G ..Q 0 F.E.E A 7 @ 8 1 b v.<X*XD.Z.C.v.N.v.b.z. X XN.|.$X{ 2 d g w / I X Y T y : f P S S - ^ &.*.> % v Y.",
"F H $ X.G 0 % F w F ` i G W e W E.U.K * * 8 1 1 a.|.A. X-X-XC.N.0.w.b.N.A.}.$X~.S m 8 g p K A & v s A _ # 8 v 8 3 Y o.W = 0 h ).",
"j Q % G w . ; $.F 0 G F j c i o.} <.+.* * # # b a.|.A. X-X2X XN.g.b.v. X X X;XM.{ V.A 7 f } k @ S U f A A 7 A v ; v ^ w ; w , o.",
"$ w 0 G j % ; #.;.0 e F s 0 0 Y.m.~ A * = > 1 < 0.>XD.D.A.2XhX1X:X|. X:XN.B.|.~.S V.S 7 t +.L * A A S E S 7 S f j % y = w w 0 K.",
"$ % ; . 0 0 $ F G h i $ 0 i , K.E.} * 7 & # 1 < i.:X*Xj.5.A.4X|.N.C.|.B.0.M.;XM.9 4 f k * f p & f k f p f p t 7 j y w i ; F F Y.",
"% ; * $   : : q * t z : q 0 ; %.T.+.s % ; 2 6 < V.4XS.S.q.C 9.e.5.4.3.C 3.N.>XM.S [ > 8 ; F a X l g 8 : g s y a W ; y - y T W ;.",
". q $ @ * $ @ L %.. t f 0 h e _ #.*.G 3 O O 5 Z N.-X-X,XS.5.D 5 n Z C w.A.S.|.M.S q.g 8 w R M ; s a , 8 S s u w a = y , > j s $.",
"% t $ $ @ . . L ( p k h l u ; 2.V.] d + 5 B y.p.;X-X-X-X-X-XS.B.4.5.B. XD.e.D.,X[ a.V 1 6 G d + ` R 3 3 k > s > s : s ; = % w W.",
"  & * h * * @ q 0 h % N ] d e 2.W.' m ' f.!.!.N.;X-X-X-XS.S.S.S.S.j.B.N.j.n.D.,Xp.d.i.' m 6 5 < 8 c l R P d w ; ` > ; > w i e Y.",
". , X a . . & s s o 0 ;.o.e r G f.f.d.OXoXH.^.C.-X X,X,X-X,XS.D.w.4.e.B.e.B.D.D.h.q.f.f.[ B V < 5 5 3 R M ] u u l % ; > % s ; F ",
"# a o s *   = &.W   r R G H H H J.^.6X%XH.H.*X}.5X3X-XS.S.-XS.D.0.h.B.B.e.e.n.D.7.4.t.p.y.t.y.m 6 u V ] M 2.j c 3 % i > % W w - ",
"  u # Y g @ & ] H w w e H H.^.6X6X6X%X%XL..X&Xn.,X3X3X5X,X,XS.S.B.B.e.9.e.B.D.9.3.w.L.k.6.7.l.x.f.H r j H ;._ T G y ; % z K.I j ",
"X > X P - O - N < G o.J.6X6X6X6XqXOX+XeX.XL.&X}.S.3XS.S.S.S.D.A.B.5.w.B.e.e.9.3.5.z.v.z.r.r.7.J.d.J.K.[ V r N R d u ; % i / j / ",
". q % 3 e O < [ f.^.tX6XtX7X0X#XeXeXdX@XL.eXL.wXz.@X3X=X*XD.D.j.e.3.e.b.9.5.9.9.7.L.@Xr.8.L.g.k.J.l.u.f.l.f.' 5 5 + 3 + s *.j v ",
"@ * o j % r l.^.^.0X0X7XqX+X8X8X+XeXwX+XL.eX+X8X8Xn.@XpX=XZ.D.e.e.A.j.e.b.j.g.8.z.L.&Xz.J c.v.z.H.H.z.l.g.x.J.d.H 9 2 % j *.R % ",
"$ % 4 G o./.6XqX0XwX7X0X8X8X0XwXeX%XeX8XL.0XwX8XiXn.z.=XsX=Xn.A.D.S.Z.A.C.v.g.k.L.}..X{.6.z.}.c.H.H.G.H.l.k.!.~.!.[ d O j  .z e ",
"$ % + N 6XjXG.6XqXyX7XyX7X8XwXwXwXeX%XeX8X8XdX+X%XeXL.L.pX4X X4X5X5X=X XA.g.b.XXL.}.L..X7.z.{.{.H.c.H.G.c.x.l.l.^.(.Q.d O H w ^ ",
"o - % K.jX6XjX0X%XiX0XdXoX+X8X8XwXwX+X8X8X8XdX8X.X%X&X@X}.<XaX4XhXaX2XA.g.v.}.L.{.L.c.XXu.g.{.}.XXG.H.G.H.c.z.l.x.(.uXf.+ ] c r ",
"+ < H zXuXjXdXwX8XtXyXiX.XXX0X8XdXwX+X@X0X8XdX0X@X+X%X@X}.}.*X}. XZ.C.g.g.@XiXc.%Xz.v.9Xr.t.XX{.#X!.!.G.G.v.L.z.l.H./.[.o.o.j $ ",
"% 6 J.uXyXjX+XwX7X%X0XiXoXL.0X0XwXwX7XL.0X+X0X0X8X8X@X@XeX@Xv.}.v.z.g.z.OX9X8XL.OXu.{.wXk.7.{.OX{.!.OX{.G.L.c.k.r.H.H.yX/.H w c ",
"O 5 uXyXyX0XjX8XwX#X0XdX7XH.8X8XdXwX8XL.0X+XL.7XwXL.+XwX+X+X@XL.N.}.v.}.0X8XXXL.l.r..X9X.X6.g.+XOXOXOX!.L.{.L.z.k.t.J./.rXs.G M ",
"O H yXyXwX8XdXeX&X@XoX9X9XH.oX0XdXeX@XOX%XiX0XXX0X+X.X7X9X7X@X@XXX%X#XoX%XtX.Xl.t.G.oX7XoXl.6.XXXXXXG.!.H.8Xu.r.l.t.l.J.rX(.e ^ ",
"O { yXqXwXeXwXeX%X%XoX&X%Xz.7X0XdX9XoXXX&XwX0X+X.X7X+XoX7X0X9XoXoX%XoXoX7XoXz.r.l.oXoX7XoXx.6.G.XX!.G.{.G.G.7.z.u.l.u.H.rXK.3 M ",
"O y.yXqXwX8XwXL.+X9X{.@X.Xz.0X0XiX7X.XoX9X0X9X7XOXoXoXoX+X9X9X+X%X#XoX%X%XH.t.r.!.%XOX7X+XH.6.x.+XG.H.!.{.l.7.z.t.L.u.k././.d d ",
"O d.yXoX0X8XwXL.@XeXL.{.L.H.wXwXdX%X.XoX9X9X9X9X7X.X.XoX7X7X7XqX%X%XoX%XOXu.t.J.oX#XOX#X7XG.6.u.+XL.H.!.{.p.7.g.z.z.t.u.#XyXm d ",
"O J.yX$XwX8X8XeXL.L.H.H.G.H.dXdXdX#XXXoXqX7X%X&X0XXX^..X#X#X&X9X7X#X#XXXH.r.p.OXoXOXoX#X8XL.6.t.@XH.H.H.!.8.p.p.L.t.6.l.^.rXm N ",
"O J.rX6XwXwXL.L.L.L.H.H.G.L.dXwX0X7XXX7X7X%X%X%X7X7XXXG.OX%X9X7X7X#XXX{.l.r.J.7XoXoX#XOX+XL.6.t.@XH.z.G.k.' l.!.t.6.t.u.J.uX' N ",
"< J.6X6XwXL.L.L.L.L.H.t.L.L.wXwX9XoX#X%X&X7X%X#X%X7XoX{.{.OX#X%X#XXXXXJ.t.l.L.+XoXOX6XoXoX7X6.6.L.z.u.^.p.' x.k.J 7.t.t.x.uXQ.N ",
"< J.rXqXL.L.L.L.H.H.J.J.L.7X0XdX7X#XoX#X%X%X%X#X7X%X+XoX{.H.{.#X#XOXOXc.t.H.7XOXoXOXoXL.L.7Xt.6.L.u.t.J.7.[ Q.4.8.6.J t.J.$X(.N "
};
