/* XPM */
static char *_09b0e62fd794efbee99d7613b4c3416g31Cdxv0JzTISbYR[] = {
/* columns rows colors chars-per-pixel */
"64 64 18 1 ",
"  c black",
". c #1E0707",
"X c #3C2C24",
"o c #342C28",
"O c #4D352B",
"+ c #5B402F",
"@ c #495254",
"# c #67635E",
"$ c #77746B",
"% c #878078",
"& c #9E977B",
"* c #868B80",
"= c #999183",
"- c #A7A18B",
"; c #B4B6AF",
": c #BDBDAF",
"> c #AEB4B0",
", c #BEC3BF",
/* pixels */
"XXXXXXOO++OO+O+OOOOOXOO++O+OOOOXXXXOXOO+++++O+OXXXXXOXO+++O+OOOO",
"&&&&&%$%O++++OOO$--&%$#X+;,>--&&&&&&&%$$$$%--------&%$#O+;,>--&&",
"*%%%**%$&&---&&--*%%$%$oO:*%%%%&&&*%%%%#%%*%%%%&-%%%$%$oO:*%%%&*",
"%%%**%%%%%*%%%&**%%%%$%@O-%%%%****%%%%%%%*%%%*&%%%%%%$%@X-%%%&*%",
"%***%%%#%%%%%&*%%%%%%%%oO-%%%--%*%%%%%%%%&%%--%%%%%%%%%oX-%%-%%*",
"**%%%%%#%%%%-%%%%%%%%%$oX-%*&%%*%*%%%$%%%&%&%%%%%%%%%%$oO-%*-%*%",
"%%%%%%#%%%%*-%*%%%%%=#@oO-%&*%*%**%%$%%%%%&*%%%%%%%%=#@oX-%&%%%*",
"%%%$%$%%%%&*%*%*%%%%##@@X-&%%%%*%%%$%$%%&&**%*%*%%%%##@@O-&%%%*%",
"%%%#%%%%%%&**%*%%%%=##@oX$-%%%%%%%$%$%%%%*%**%*%%%%=##@oX$-%%%%%",
"%%##%%%%%%&*%**%%%=#$#@@X$%%%%%%%%%$%%%%*%**%**%%%=#$#@@O$%%%%%%",
"%=#$%$%%%%*%%%%%$%#$%$#@O#%%%%%%%=#$%%%#%*%%%%%%$%#$%$#@O#%%%%%%",
"=#$%$%%%%%%%%%%$%$$%%%#@X##%%%%%=#$%%%%%*%%%%%%$%$$%%%#@O@#%%%%%",
"$%$%%%%%%%%%%$%$%%%%%%%oO#$%%%=##$%%%%%%%%%%%$%$%%%%%%%oO#$%%%=#",
"%%%%%%%$%$%%%%%%%%%%%%$oO$%%%%####$%%%%%%$%%%%%%%%%%%%$oO$%%=###",
"%%##$%%#%$###%%%%%##%%#oO$##%$@@@@##%%$#%$###%%%%%##%%# O$#####$",
"@@@@o@o  oooo@o@@@@@@ooO+Xooooo@o@@@@ooo  ooo@o@@@@@@o O+ ooo@o@",
"+OXXXXOXOXXXXOOXOOXXOXO+++XOXXOXOOXOXXXXXXOXOOXOXXXXO++++XOXOXO+",
"&&%$#++O-*&&***#@XOX--*-*;;-;---$###$$O++;----#@##$$$###%%%*&&&&",
"*%*%$o+;*%%-*%*%*@X-**%%%%*%%%%&-%#$$%oO-*%%%%%#@$%%%%$#%%%%%%&*",
"%%%%%@X-%%-*%*%**@##-%%%%%%%%*&%%%%$%$o+-%%&%%%$#%%%%$%$%%%%%&*%",
"***%#oO-%-%%*%%%%%-;;%%%%%%%--%%%%%%$$oO-%&%%%%%#%%%%%$%%%%%-%%*",
"*%%%#@X-%%%%%%%%%%%%%%%#%%%&%%%%%%%$%$@X-&*%%%%$%#%%%%%$%%%%-%**",
"%*%#%@X#%%%%%%$%%%%%%%%%%%&*%%%%%%%%$#oO;*%*%%%%$#%%%%%%%%%%%%%*",
"%%$%%@X@#$%$%$%%%%$%%%%%%%*%%%%%%%%=##@X-%*%%%%%%#%$%%%%%%%%%%*%",
"%%%%%@X#@##%$%$%$$%$%%%%%%*%%*%*%%%=#%@X&**%%%%%$$#%%%%%%%%%%%%%",
"%%%%$@X#$%%###$#$%%%%%%%%%%%***%%%%#$#@O%%%%%%%%$%%$%%%%%%%%%%%%",
"%%%$$@X$%%%%%$$%#%%%%%%%%%%%**%%%%%##%@X#%%%%%%$%%%%%%%%%#%%%%%%",
"%%###@X$%%%%%%%$%$%%=%%%%%%**%*%%%%#%#@O#%%-%%%%$%%%==$#%##%%%%%",
"##$%$oX#%$%%%%%%%%%=$%%%%%*%*%%$%%#$%$@O-*%%%%%%%%%%$%$%%%$$%$%#",
"#%%$$oO#$%$%$%%%%%=$%$$%%$%%%%#%%$#%$%oO$%%%%%%%%%%%%%$%%%$%$%$$",
"%#$%#oX##$%$%$%%%=##$$@%%#$%##%%%$#$$#oO#$%###%%%%%%$%%%%$%$$$##",
"@@@ooXOXooo@@@o@@@@@o@oo oo@o@@@@@@oo X+Oo@o@@@@@@@oo o  oooo@o@",
"XXXXXXOOXXOOXOXOXOOOOOXOXXXXOOOOOXXOXOX+++++O+OXXXXOXOXX+O+OOOOO",
"--&*%%&%&&&+++O+OO$--&%$#XOX,>;;&&&&&%$%---*&&&&&&&%$#X+OO,:----",
"&&*%%%%#%%*--&&----*%%$%$oX:*%%%&*%%**%$%%%%%%=*%%%*%$oO+;*%%%&&",
"**%%%%%%%**%%%&****%%%%$%@O-%%%&*%%**%%%%%%%%=*%%%*%%%@+O-%%%***",
"*%%%%%%%*%*%%&*%*%%%%%%%%oX-%%-%%***%%%#%%%%=%%%****%#oOO-%%--%%",
"%*%%%$%%%%%%-%%*%%%%%%%%$oX-%*-%*%*%%%%%%%%-==****%%%#@OX&%&%%**",
"**%%$%%%%%%*-%*%%%%%%%=#@oX-%&%%%*%%%%#%%%-$$$%%*%*%#%@OO&&*%*%%",
"%%%$%$%%%%%*%*%*%%%%%%##@@X-&%%%*%%$%$%%-=$%$%$*%%%$%%@OX-*%%%**",
"%%$%$%%%%%%**%*%%%%%%=##@oX$-%%%%%%#%%%*$$%$%$%%%%%%%%@X$-*%%%%%",
"%%%$%%%%%%%*%**%%$%%=#$#@@O$%%%%%%##%%*%%%$%%%%%%%%%%$@O-*%%%%%%",
"%=#$%%%#%%%%%%%%$$$%#$%$#@X#%%%%%=#$%$%%%#%$%%%%%%%%$$@X-%%%%%%%",
"=#$%%%%%%%%%%%%$%$%$$%%%#@O##%%%%#$%$%%%$%%%%%%%%%%###@O&%%%%%%%",
"#$%%%%%%%%%%%$$%$%$%%%%%%oX#$%%%#%$%%%%%%#$$%$%=###$%$oX%$%%%=##",
"##$%%%%%%$%%%%%$%%%%%%%%$oO$%%=##%%%%%%%%$$%$%$#$#%%$$oX$%$%%###",
"@@##%%$#%$###%%%%%%%##%%#oO$####$%##$%%#%$%$$$#%#%#$%#oX#$%%$@@@",
"o@@@@ooo   ooo oo@  o@@ooX+Oooo@@@@@o@oo oooo@o@@@@@ooXXoo@ooo@@",
"OXXXXXOXOOXXOXOOOOXOXXOXOO++OO+O+OOOOOXOOOOOOOOOOXXXXOXOX+++++O+",
"&&&&&&%$#OOX,::---$$#XXX;-------$X$$###$$+++OOOOOOOXO---$#o;-*&&",
"&**%%%*%$oX;&&&%%&-%%#-;$$$%*%%$@&-%%#$%#o+O,;-------%**%$%%*%%%",
"*%%%%*%%%@O&%&%*&%%%%$$$%$%%%%%@:%%%%%%%#oO;%%-*%**%%%%%%%%%%%%&",
"%%%****%#oX%&%--%%%%%%%%$$%%%$-#&%%%%%%=#o+-%-%%*%%%%%%%%#%%%%-%",
"%%***%%%#@X&%&%%%%%%%%%$%$#%%&#%*%%%%%%#@@O-%%%%%%%%%%%%%#%%%*-%",
"%%%*%*%#%@X%&*%%%%%%%%$%$#%%%$%%%*%%%%=@#oO#%%%%%%%%%%%%%%%%%&%%",
"%%*%%%$%%@X&*%%%%%%%%%%=%%#$%%%%%%%%%%##$@O@#$%$%%%%$%%%%%%%&%%%",
"%%%%%%%%%@X&*%%*%*%%%%%%%$%#%%%%%%%%%$%%%@X#@##%$%$$%$%%%%%%-%%%",
"%%%%%%%%$@O&%%***%%%%%=%$$$#%%%%%%%%=%%%%@O#$%%###$%%%%%%%%%%%%%",
"%%%%%%%$$@X&%%**%%%%%%=$#$$%%%%%%%%##$$%#@X$%%%%%%#%%%%%%%%%%%%%",
"%%%%%%###@O&%**%*%%%%%$#%%%%%%%#%$##$%%%#@X$%%%%%$%$%%=%%%%%#%%%",
"%==###$%$oO&**%*%%%%%$#%#%%%#*#%%%%%%$%%$oX#%$%%%%%%%=$%%%%#$$%$",
"$##$#%%$$o+%*%*%%$%%%#%$%%%%%#%#%%%%$%%%%@X#$%$%%%%%=$%$%%%$$%$%",
"##%#%#$%#oO$%%%%#%%%$#$@o##$#%###%%%%%%%%oX##$%$%%%=##$$%%%$%$$$",
"o@@@@@@ooO+Oo@o@@o@ooo ooo oo@o@@@@.@@oo XXXooo@o@@@@@o@oo oooo@"
};
