/* XPM */
static char *ca94b7f1b38b4ae7d8cd54d9121ffd98Rw6e52nGbETgSGUc[] = {
/* columns rows colors chars-per-pixel */
"64 64 8 1 ",
"  c #1A1A18",
". c #1F1F1E",
"X c #242423",
"o c #2B2826",
"O c #342C28",
"+ c #3C312C",
"@ c #493B34",
"# c #55443C",
/* pixels */
" ...XXXXXX oO+OOOOOO+OOoXXXXXOO+O       .........OOXXXXX.... OOO",
"...XXXXXX.   O+@++OOO  XXXXXXXOOO      .........oOO.XXXX.... OOO",
".XXXXXXXX.   oO@OOo   .XXXXXXX OO     .........oOOo..XXXX... O+O",
"XXXXXXXXX..   O+O     XXXXXXXX oOo   ..........OOO....XXXX. OOOO",
"XXXXXXXXX.....OOo    XXXXXXXXX  OO   ..........O+O.....XXXXO+@Oo",
"XXXXXXXXX.....OO..  .XXXXXXXXX  OOo  .........oO@O......XXXO@OoX",
"XXXXXXXXXX...oOO... XXX.  .XXX. O+OOo........oOO@O..... XXoO@OXX",
"XXXXXXXXXXX..O+O...XXX      XXX.O@+OOOXXX..oOOO+@Oo     XXOOOoXX",
"   ..XXXXXXXOO@O..XXX.       XXXO@@@@+OOOOOOOO+@@OO     XoO+O   ",
"   ...XXXXXoO+@+OXXXX        .Xo+OOOOOOOO+@@@@@@@+OOo   oOO@O   ",
"   ....XXoOOOOO@OoXXX        oOOOoXXXXXoOOO@###@@@@+OOOOOO+@O   ",
"   ....XOOOoXXoO+OoX.       oOOOXXXXXXXXXoO+@#@+OOOOOOOO+@@@Oo  ",
"    ...O+OXXXXXXOOOo    oOOOOOo XXXXXXXXXXOO@@+OOOo     OOOO+O  ",
"     .O+OoXXXXXXXO+OOOOOOOOOo...XXXXX.  .XoO@+OOo   ...XXXoOOOo ",
"     oO@O... .XXXoO@+OO+OOo.....XXXX      XO@+Oo   ....XXX  oOOo",
"OOOOOO+@O     .XXXO+##@Oo ......XXX..     .O@OO   .....XXX.. O+O",
"@@@@@@@#O      XXXOO@#OO  .....XXXX..      O@Oo   ....XXXX...oO+",
"OOOOOO+@O      XXXoO+@Oo  .....XXX...      O+O    ....XXXX....O@",
"Oo   oO+Oo ....XXXXOO@O   ....XXX.....     O+O    ....XXXX....O+",
"o      O+O.....XXXXoO@O   ...XXXX.....     OOo.    ...XXXX....OO",
"       oOO....XXXXXXO+OXXXXXXXXXX.....    OOOXX     .XXXXXX...OO",
"        OO...XXXXXXXoOOXXXXXXXXXX...oo..oOOOoXXX.  .XXXXXXXX..OO",
"        OOXXXXXXXXXXXOO   ..XXXXX..oOOOOOOO  XXXXXXXXXXXXXXXX.OO",
"     .XXOOoXX....... oOo   ...XXXOOOO+OOOo.   XXXXXXXXXXXXXXXoOO",
"XXXXXXXXO+OX........  OO    ..OOOO+@@Oo....   XXXXXXX......XXOOX",
"XXXXXXXXO@O.........  O+Oo  .O++@@@#OO.....   XXXXX.........XOOX",
"XXXXXXXXO@O........   O+@OOOOOOOOO+@Oo.....  .XXXX..........oOoX",
"XXXXXXXoO+O.......    oO@@++O ..XoO@OX....   XXXX...........OOXX",
"XXXXXXXO+Oo            OO@OO ...XXo+OXX... .XXXXX..........oOO.X",
"XXXXXXXOOo             oO+O ....XXXOOXXXXXXXXXXXX.........oO+O.X",
"XXXXXXXOOX              OO ....XXXXoOoXXXXXXXXXXX ........OO@O.X",
"XXXXXXXOOXX           .XOO ...XXXXXXOOXXXXXXXXXXX. .... .oOO@O.X",
"XXXXXXXOOXXX        .XXXOOXXXXXXXXXXOOoXXXXXXXXXXX      OOO+@OXX",
"XX.   oOO XXXXXXXXXXXXXXOoXXXXXXXXXXO+OoXXX.   .XXX   OOO+@@@OoX",
"X    .OOO  XXXXXXXXXXXXoOXXXXXXXXXXXO@@OOOo     .XXX.O+@@@@#@OOX",
"    oOO+O...XXXXXXXXX. OO.X.....XXXoO@@@++OOOOOOOOOOO+OOOOOOO+Oo",
"OOOO++@@O...XXXXXXXX   OO  ......XXO+OOOOOO++@@@@#@+OOo    oOO+O",
"+OOOOO+@Oo....XXXXX.   OOo  ......oOOOo   oOOOO+@##OO       .OO+",
"Oo...oO@OO.....XXXX    OOO   .....OOO.       oOOO+@Oo.      XXXO",
"  .....O@@Oo... XXX   oO@Oo   ....OO.          oOO@OXX.   .XXXX ",
"  .....oO#@OOOOOOOOOOOO+@OO    ..OOO            OO+OXXXXXXXXXXX ",
"  ......O##@++OOOOO++@@@@+OOo   OO@O      ..... XoOOXXXXXXXXXXX ",
"  ......O@@OOOo XXXOOO+@#@@+OOOO+@#O     ......XXXOOoXXXXXXXXXX ",
"  ......O@Oo...  XXX OOOOOOOOOO+@#@O    .......XXXO@OXXXXXXXXXX ",
"   .....O+O...   .XXX        oOOOO+Oo   ......XXX O@O ...XXXXXXX",
"X.  ....OOo...    XXXX      .....OO+O  ......XXX. O+O.....XXXXXX",
"XXXXXX .OO...     XXXXX    ......oOOO  .....XXX..oOO ......XXXXX",
"XXXXXXXOOo..      XXXXXXX  .....XXXOOo......XX..oO+o .......XXXX",
"XXXXXoOOo        .XXXXXXXXXXXXXXXXXXOO......X.. O+O  .......XXXX",
"XXXXXO+O         XXXXXXXXXXXXXXXXXXXoOo....XX..oOOo   ......XXXX",
"XXXXoO+OX       XXXXXXX.   .XXXXXXXXXOO...XXX..O+O    .......XXX",
" XXXOO@OXX.   .XXXXXXX      .XXXXXXXXOOXXXXXX..O@O     ......   ",
"  XXO+@OXXXXXXXXXXXXX.       .XXXX...OOoXXXXX.oO@Oo     ....    ",
"   OO@@OXXXXXXXXX.            XXX...oOOOOoXXXoOOO+O             ",
"  oOO@#OXXXXXXXX              XX ...OOOOOOOOOo  oOOOo           ",
" oOO+++OOXXXXXX.              XX  .OOOOOOOOoXXX   O+OOOOOo      ",
"OO++OOO+OXXXXXX               XX  oOOOo XXXXXXXX  oO@+OOOOOOOOOO",
"+OOOOOO+OXXXX                 XX oOOO   XXXXXXXXXX OO@@@@@@@#@+@",
"Oo   XoO+OXX .......         XXoOOOo   .XXXXXXXXXXXOO+OOOOO+@#@+",
"o    XXoO@O..........       oOOO+Oo    XXXXXXXXXXXXOOOo   oOO@@O",
"   ..XXXO@Oo...........    oOOO+OO   .XX.    .XXXXoOOo      O+@O",
"  ...XXXOO@O............oOOOO+@OOXXXXXX        XXXO+OXX     oO+O",
" ....XXXoO+Oo.........oOO++@@@#OOXXX.           .XOOoXXX     O+O",
" ....XXXXoOOOo.....oOOO+OOOOO+@OOXX               OOXXXX     OOO"
};
