/* XPM */
static char *pixel_art_A_highly_stylized_wa__1_1702920119[] = {
/* columns rows colors chars-per-pixel */
"64 64 172 2 ",
"   c #272C34",
".  c #2B2D36",
"X  c #2C2E3A",
"o  c #312F3D",
"O  c #2D3136",
"+  c #2D323C",
"@  c #2E393F",
"#  c #313036",
"$  c #31333D",
"%  c #34383E",
"&  c #2C2E41",
"*  c #332E44",
"=  c #2E3441",
"-  c #2E3941",
";  c #2F3448",
":  c #333542",
">  c #383645",
",  c #353944",
"<  c #393A46",
"1  c #343549",
"2  c #3A364B",
"3  c #363A4B",
"4  c #3B3C4B",
"5  c #363650",
"6  c #373C52",
"7  c #3D3D52",
"8  c #413E4C",
"9  c #413750",
"0  c #423D53",
"q  c #413E5A",
"w  c #3D404E",
"e  c #3E4253",
"r  c #3B4956",
"t  c #3F4559",
"y  c #3B4A5A",
"u  c #3E5463",
"i  c #3D5967",
"p  c #42414E",
"a  c #434354",
"s  c #4A4555",
"d  c #454956",
"f  c #4A4956",
"g  c #44455A",
"h  c #4A465B",
"j  c #454A5C",
"k  c #4B4B5D",
"l  c #51435B",
"z  c #524C5D",
"x  c #42505D",
"c  c #4D505E",
"v  c #53515F",
"b  c #4A4660",
"n  c #464D61",
"m  c #4C4C62",
"M  c #534761",
"N  c #524E63",
"B  c #584E67",
"V  c #524F6A",
"C  c #455463",
"Z  c #4D5164",
"A  c #465866",
"S  c #4D546A",
"D  c #435F6B",
"F  c #4C5B6A",
"G  c #545264",
"H  c #5A5565",
"J  c #555967",
"K  c #5C5867",
"L  c #54556A",
"P  c #5A566B",
"I  c #55596C",
"U  c #5B5B6D",
"Y  c #4E5D72",
"T  c #575771",
"R  c #5A5671",
"E  c #555D72",
"W  c #5C5D72",
"Q  c #615966",
"!  c #62556E",
"~  c #635C6C",
"^  c #655570",
"/  c #635D73",
"(  c #695D76",
")  c #655E78",
"_  c #6B5E7A",
"`  c #4C616C",
"'  c #5C616F",
"]  c #4E6370",
"[  c #546473",
"{  c #5D6274",
"}  c #546977",
"|  c #5C6A77",
" . c #576278",
".. c #5D6478",
"X. c #5C6C7B",
"o. c #63616F",
"O. c #6B606E",
"+. c #636275",
"@. c #6A6475",
"#. c #656877",
"$. c #6C6977",
"%. c #65647A",
"&. c #6B657B",
"*. c #666A7B",
"=. c #6C6B7D",
"-. c #736876",
";. c #71647C",
":. c #726B7C",
">. c #6C707F",
",. c #73717F",
"<. c #6B6780",
"1. c #656C80",
"2. c #6D6C82",
"3. c #726681",
"4. c #796781",
"5. c #736D83",
"6. c #7A6C83",
"7. c #756F89",
"8. c #7A6E89",
"9. c #6D7284",
"0. c #65778B",
"q. c #737384",
"w. c #7A7385",
"e. c #767887",
"r. c #797886",
"t. c #757489",
"y. c #7A758A",
"u. c #777B8A",
"i. c #7B7A8C",
"p. c #7C7690",
"a. c #747E91",
"s. c #7E7D92",
"d. c #827787",
"f. c #817986",
"g. c #81758B",
"h. c #837C8C",
"j. c #8A7F8D",
"k. c #827D91",
"l. c #7D808F",
"z. c #638591",
"x. c #6A8694",
"c. c #718697",
"v. c #7F8699",
"b. c #78899B",
"n. c #7D93A0",
"m. c #8D818F",
"M. c #838293",
"N. c #8C8493",
"B. c #8C8897",
"V. c #868399",
"C. c #8A859A",
"Z. c #8D889A",
"A. c #958A97",
"S. c #9D919F",
"D. c #9187A0",
"F. c #8799A7",
"G. c #8798AA",
"H. c #8B9CAC",
"J. c #9A94A5",
"K. c #9193AA",
"L. c #9199AE",
"P. c #91A1B1",
"I. c #9FA7BC",
"U. c #9DAABD",
"Y. c #98B2C1",
"T. c #A8ADC3",
"R. c #A2B9C9",
"E. c #ADBCCC",
"W. c #B4C9DA",
"Q. c #BBD5E4",
"!. c #C6D9E8",
"~. c #CAE7F5",
/* pixels */
". $ % O + : : - - X + + + @ @ O : = + : : + X o , $ . $ # % % # % > : X : @ + + - - = + = @ : $ : @ + - $ + $ O O : $ X O < , $ ",
"O # % % $ + + - = + - - + + - O + = + + X X   @ O O $ % $ $ % # . o $ X + X O - +   + + + X $ X + X + @ = $ $ $ X + $ X X     O ",
"O O O , : X + 1 = X = 1 + + : O + + @ - + X + 1 X o % o $ # o o % > o : + = = - = @ + - = : : : + + + X X $ o o $ o $ > : @ @ $ ",
"O O O @ - = + X X X & X X X + X X X + O + X X + : $ > o : o $ o > o . o X - & X = X - + = = X X = 1 = X o : $ : X . . X + $ @ + ",
"+ , + X : a a < 7 2 2 2 > 2 8 > p w , , 4 4 , > 2 > > : k a 4 > $ % , f - w - , , , , , < < 4 > + 3 1 1 > > > > < s a $ X + = X ",
"  , : = a %.2./ U G P ^ / @.:.@.v d w w w w 4 4 < < 0 7 %.L h 2 < d ' >.d e w e w w w w w w p e { t.t.=.=.%.~ / +.r.:.f + + , , ",
"  - : X e @.i.p.2.( &.5.y.k.k.5.a < , , 4 w 7 e 0 7 a 0 5.U m 7 4 k U q.w 4 , w 4 w w w a w > , J t.a.q.q.&./ &.6.q.%.a X X - = ",
"+ - X   : k +.3.5.( ( ;.3.:.( B 4 w d c G G G G h 0 0 * %.N h 9 g g k *.w d d j G J K J J c a e 1 W <.&.5.&.&.5.w.@.h * X = = X ",
"+ O X : 2 k ) &.&._ _ 8.) 9 q 9 p p J =.q.r.q.K L h q g ) R M 0 < k m =.h a 0 k G =.i.i.q.I g e t n y g m N &.&.;./ z 8 > * : X ",
"- + + : > s ! / ^ 3.4.8.B * q h a d ' r.M.M.q.U P k h h +.R h 2 0 k f %.a a k L K 9.M.M.t.U g a t S W E b N &.&.) ~ v 8 . . = + ",
"+ + + : > k ! ( 3.4.<._ b q h 0 Z k U q.i.i.:.U ~ N l h &.P h 2 0 g j *.a h N / U 2.y.y.9.W m S S Y a.H.y.m P / ( ~ H > X X - $ ",
"@ O $ $ > k ( &.p._ B V q h M h K G G K U U U K / P N 0 &.L h 8 7 a j 2.g h V / / %.+.W W U L E u 0.G.U.v.b a P &.@.z > o , : X ",
"O @ O @ > z $.5.3.B h h 0 a m W G G N k k k z G =.=.~ g -.v f a 7 t b 9.g m R +.2.) B b S N m n c.Q.W.b.I 6 1 k :.:.H % $ : $   ",
"O O O O < K 6.g.^ 9 2 a m L I { m J G G K k k H M.h.q.f ,.v s s g 7 k 2.h m &.5.2./ b g m m g y Y.~.Y.1.Z r 1 4 :.h.-.8 o # . # ",
"  O O % 8 K 6.g.m * 0 b W 2. .I W U G N K G v / f.h.,.f 6.z s 8 a 7 g 7.q N &.5.8.&.B h m N m C x.z.i i F Z a p O.h.-.8 $ # O % ",
"O O @ O $ z / / 9 2 P W +.9.+.W t.%.h a k N H :.$.,.-.s ,.z s 0 a 5 j t.h k / ) C.i./ m m m m I u i u D C C k > G =.K o # $ O $ ",
"O O @ : > 2 p a 2 b ( 8.6.@.;.w.t.V q N N z Q -.m.m.d.l f.H l * a > f r.z G =.&.q.k.U 0 h P 2.%.E n y n m S G 4 4 w : $ : > + + ",
"@ O + - 1 , 4 4 2 0 K 5.g.w.d.g.R q q N Q ! O.-.A.S.A.l ;.s 0 0 < > f w.a s K +.i.k.&.L b b +.5.R b b L m G J k 4 4 1 X $ X X $ ",
"O + + + 1 , 2 4 h N K ;.g.d.:.O.h q b R ( ~ ~ ~ m.N.-.8 :.l 0 h p < f q.f g G G i.i.=.+.L g m W Z a g J Z k G I w 4 , @ X   X : ",
"  @ + @ , 4 0 a M N H ! ! ~ z 9 q b R 7.w.( Q Q -.-.Q 8 w.B 4 a a w a >.k f k k %.+.K { &.L k k g g n L L L I E k a 4 : * X : : ",
"+ O X @ 2 w g h &.5.w.&.! Q v h b V ) i.N.q.-.d.@.$.K f q.k 1 e 8 3 7 =.Z j d j d g b I 1.<.I Z V T I L W t.t.2.I e < < + = $ X ",
"+ + + : , w a g q.s.k.&.z s l k L R P &.h.i.q.N.$.o.v c =.d 1 6 4 e g 9.Z b j Z a g m n T +.T W +.*.I m { s.V.s.W e < , X : : . ",
"+ + O : , 4 a g t.k.k.:.B s z ~ / &.U U r.i.=.+.' d a c *.j 3 3 6 r r 2.T I n S n n n y n S Z { %.%.Z g W u.p.u.U 4 , 2 X X :   ",
"+ + @ : > w g f / &.:.~ z l H $.%.w.%.K u.M.o.p f w c { +.r 6 t j e ; %.{ ..n g L t a 6 n S n U ../ m g W <.*.2.I 4 > 4 X X > X ",
"  + + + , 4 7 a G U / U v k H @.i.p.=.L %.u.#.p d x ' #.j 3 r j e 6 6 y E %.E g J n g t g C I  .Z L W U W W E Z b a 4 : + X   $ ",
"O + + : 1 < 3 3 g b G P v h s z i.t./ k c J d w d ' o.x 3 ; 3 S I 5 & 1 n ..1.E g r t g n b j Z a g j m n g g b g e 1 1 $ $ $ $ ",
"O X + : 3 4 2 1 2 7 g G K G v v G v g a d d f Z I { d = 6 3 e  ...g t 7 ; j %.1.J S I E E [ I L K I W W L b b b g g e > $ % $   ",
": @ X + = < < = 2 4 g K $.,.,.,.>.q.,.q.u.>.>.u.#.C X = g a k <.1.E S t ; ; Z *.0.t.9.9.9.e.e.9.q.e.q.2.{ m 7 6 1 6 7 = X # % O ",
"+   X : a J U U W L Z h k v z f d f c f c d r d C 1 1 e a a H <.%.W j 3 6 3 6 Z Z j d d d d c f d k k d b I T S m L J 4 O $ % O ",
"  O + , d U =.=.t.2./ k p 4 4 4 > p 4 , w e e t 1 = 6 a g P +.P b L Z j m 3 X < e 4 4 4 w 4 w 4 < e 7 7 b <.t.2.W *.W a : O # . ",
": , $ O : 2 e e 7 7 4 1 : , 4 , , < : + - - ; 1 4 j j g P +./ M m Z W W Z d g 7 , < , , , , , : < 4 1 X ; 6 7 5 7 g 7 : X # % % ",
"  $ $ + : a h d a k b d g a w : % : - , 3 - ; r L *.{ U / V q P q.m G U m *.l.{ w 4 > : 1 , , 4 1 4 a g b b b g b g a , $ % # O ",
". o % o > s z h B M h k h 4 > < - @ @ @ - - w e U *.W m V V P <.2.<.Z T W Z | #.r , - 1 , > > > 0 a h b l l z B l z s > $ $ % O ",
"% % o # > 0 s 9 2 0 0 0 4 a w < - @ @ , - - - 4 g a 1 a +.<.T V T L Y %.S e r , w 1 = 1 > > 1 2 > 2 0 0 0 0 0 0 s s 8 % . $ $ $ ",
"# # # > s ( 5.;.g.8.~ 0 > 2 4 < : : % : = : + > & 1 a j g g Z %.b T V b j t r : + - = , 1 1 1 4 7 5 2 7 s P -.:.-.-.Q s , $ O X ",
". # o % p z P K B P / +.%.=.*.#.#.#.@.+.+.#.+.#.Z 4 6 7 7 g I +...1.b ; j e = a *.#.=.*.=.=.=.&.q.q.9.5.=./ G k z v k p : $ $ : ",
"$ $ $ # X : > 2 * 2 g P { U K U ~ ~ ~ ~ ~ / +.O.=.h 1 4 a S I R 9.n e m j = 1 { #.' J v N G N N j k m Z J h < * o % > $ o o $ : ",
"  O $ $ : > 8 g g 0 h L U ' ..=.@.$.$.-.@.@.@.%.=.U m e 1 1 g ..T 1 b b & r | #.U c w , 4 h L L T Z g e d d a a 8 8 < > % $ O $ ",
"+ X O @ : , w g k m L L L Z g e k G z s d h h g <.9.W g 7 1 6 m L n Z 3 = ' >.U #.U L m P =.t.p.I Z k Z I I Z a 8 2 : : $ : % $ ",
"@ O X + % w a d I U K Z Z S I Z I I J c d d d d Z 2.q.{ V 7 * 0 b 7 & & *.l.J *.J G P G L +.2.7.9. .Z j J U K J c p > $ : $ $ X ",
"@   + - - , e d #.#.>.' j Z E F | ` C C x r d F n Z +.2.q.h 2 2 t 1 6 <.t.U +.v w > +.=.+.<.) 2.2.I j m ..e.e.>.J < w % O + X $ ",
"- +   & , w a c q.u.i.*.j Z { | ` ` ` ` x r x L m Z W &.5.m 9 0 7 t e 2.{ K J a 2 J i.q.W ) W W J L L G #.l.M.u.v w , : + $ . $ ",
"    - - % w p f e.i.l.*.Z Z | 1.] ] } X.] C y j n g N L &.M 9 h e b e 9.h c z 8 z :.y.t.2.%.R V b h 0 k %.M.M.q.c w w % $ $ o $ ",
"- & + - $ < w d $.,.q.+.Z S W  .A A ` } X.| A t m a 0 0 +.h 9 q 7 j d 9.p a N k %.q.&.q.s.+.P M m 0 a G %.q.>.=.c w w @ X : O $ ",
"+ + + : O > < 8 ' o.U K I S S n g g h B { *.%.{ L b h 0 2.h 0 0 t e d 9.a 4 +.:.~ =./ 5.5.M b b M ^ &.( K P U U d w w : + : O : ",
"+ = : o $ , < < v H v J L S b g m B B M N ) i.C.W L N 4 5.h 2 2 j 7 d q.s h r.B.~ +.P / R m q 5 ! 6.g.( B H G a d w w : + : O + ",
"& = $ $ % % 8 8 f v G G L m g Z ( 3.;.M q ^ p.D.( ^ B 4 5.g 2 1 r r g i.a G N.J.r.K N N V V b b 6.4.;.( ( ~ k > d w w @ X : $ $ ",
"X = > o % % p 8 < v G m n n b R ;.;.^ M q ^ 8.k.5.) W 0 t.h 6 2 7 d g k.> +.B.J.A.K P P g 2 m s.p._ ^ 3.:.N a f d % 4 : X $ + + ",
"  % % O : H $.~ 2 w I A C A y F P N N h h P y.C.2./ H g =.k 7 7 g r h =.f ~ f.m.A.~ z H h m 1.9...%.1.%.P q 7 8 N :.K $ O : $ O ",
"O % # O p $.i.q.7 4 7 F F ] n.G.J N N k a M =.M.=./ P s &.h 4 4 g a h =.f Q j.A.m.Q z H k b T E  .E S S g 7 2 9 ;.M.:.p $ @ + $ ",
"% O O O 8 ~ y.i.1 1 1 n [ H.!.E.Z z N h 8 h / 5.%.U L s @.h 4 2 e e k q.s H d.m.j.Q z v N Z L I S S S n g 0 s h 6.h.%.p $ + O : ",
"O $ $ $ : k &.w.m * e S a.E.P.9.G m z m h N K ~ K P G h &.h 0 7 6 a N w.s z ~ O.O.z h z h k S n S S S b h q P &.=.@.f > : $ + @ ",
"O O % : : s %.5._ 5 7 2.T.T.Y j J m B / =.2.&.G U P H h &.b 0 7 a t m 7.s z H H Q Q -.:.W L P T S b q q h B &.g.:.~ f > : : O + ",
"% O X : > N / ) <.) 5 W K.s.#.E M m W t.V.C.5.L U P N g &.k 0 7 b t m 5.a z Q ~ ~ ,.B.Z.i./ L T b 6 9 q / ;.:.$./ K z 8 $ O @ - ",
"@ + + X 2 N / P _ p.P 7 b Z I g h g P 5.i.s.2.P P m m 0 %.m 0 7 g g m 2.0 s H K H =.r.y.2.L g g q 7 0 P 5.8.&.! ! K z 4 + O $ : ",
"  $ , : > N &.&.) <.7.N 0 V g 7 g a N W +.+.+.L N k g 7 %.m g a 6 g m 5.2 > a s H +.$.%.R S g a g q h P ( &.( ( :.~ z < + $ :   ",
": > *   > N +.5.8.) &.t.5.5.&.m 2 4 a a d h f g 4 s 4 a H J a a 7 7 K W 7 o 4 0 s h h h h g e 7 h / 5.6.-.$.:.q.w.,.v $ O > ,   ",
"  $ $ o a &.p.y.%.B +.5.5.i.p.=.a a a a a a a a 7 a 2 a %.+.g 4 e 0 I ' a & 2 < 8 8 e 8 7 w 7 7 5.k.N.y.( ! H H -.i.$.d $ . $ $ ",
"  : : X a +.=./ M g N H L ~ &.~ g p w 4 4 < w w 4 4 : w U ' e , 7 4 Z U a 2 < < 4 < 2 2 4 4 e a G / / K N z G v J @.o.p o X X : ",
"$ : $ . : s a 2 7 1 2 2 : , 4 > > , > : : , > < , < : % p p 1 > , > a d 8 2 8 < w 4 > > , , 4 4 > 2 > 2 2 < 4 4 > s p $ o : $ + ",
"$ $ o $ : : : X 1 : : $ o X $ X $ $ $ $ $ $ : : $ , : O $ O O > + X : > $ $ 1 $ > : : : : : : $ 1 : : : $ + o O $ 4 > # $ : o X ",
"# # # > > $ X 1 X X : = $ $ $ : O O + $ $ $ $ O $ O O $ $ $ $ O : $ + = + $ + $ X X + + + $ X o X X & = : 1 > 1 $ 4 < o $ o o > ",
"# # $ $ $ X X : X = + + : O O O $ $ $ $ O $ O O $ O $ $ # % $ O $ > $ O $ $ + : X + $ $ $ $ $ $ - & X - = + X + X : > o o o # > ",
"# # $ # O : : $ X = + X + + O $ O O O O O O $ O O O % $   O $ $ . # O X $ + X + : + O + + O $ $ X X   = = + X = + : o . $ o o . "
};
