/* XPM */
static char *ezgif_com_crop__1_1703245904[] = {
/* columns rows colors chars-per-pixel */
"64 64 23 1 ",
"  c None",
". c #331A19",
"X c #341A25",
"o c #3C1E2B",
"O c #4D2D2C",
"+ c #452432",
"@ c #4F2A3A",
"# c #5C3747",
"$ c #442B61",
"% c #745663",
"& c #7C5969",
"* c red",
"= c #CE2038",
"- c #8A0B41",
"; c #8A767E",
": c #331685",
"> c #432792",
", c #5F4181",
"< c #9A7686",
"1 c #9E7688",
"2 c #97828A",
"3 c #97828B",
"4 c #BEACB3",
/* pixels */
"                                                                ",
"                                                                ",
"                                                                ",
"                                                                ",
"                                                                ",
"                         @++                                    ",
"                        @@++++                                  ",
"                        @@@++++                                 ",
"                        @@@@+++++                               ",
"                         @@@@++++++                             ",
"                          @@@@++++++                            ",
"                           @@@@++++++                           ",
"                            @@@@+++++++                         ",
"                             @@@@+++++++                        ",
"                              @ooo+++++++                       ",
"                               o;ooo++++++                      ",
"                               o*;ooo++++++                     ",
"                               o43;oooo+++++                    ",
"                            ==-oo42  ooooooo                    ",
"                         =====---o--=  oooo                     ",
"                       ===-==-==--====                          ",
"                      =-------------===                         ",
"                      --##ooo222------==                        ",
"                      -###oo2222.22222-==                       ",
"                     ####oo22222.2222###X                       ",
"                   =###oooo24444.4222###X                       ",
"                  =#####o#o44444.4222##XX                       ",
"                 ==o#####oo2444.44222###XX                      ",
"                ===oo######o244.42222####X                      ",
"              ===--ooo####oo224.4222#XX##X                      ",
"             ==----ooooooooo222.4222XXXXXX                      ",
"                 ---ooooooo&122.42<%%XXXXX                      ",
"                 ==- ooooo&&1....<<%%%XXX                       ",
"                ==-   ooo&&&11...<%>%%                          ",
"                        oo&&&144<<%:44                          ",
"                          2&&111<%%4444                         ",
"                          222&&&>%%24444                        ",
"                         2222&&&:.222444                        ",
"                         444,$$$..2222444                       ",
"                        44,,,$$2...2222444                      ",
"                        ,,,,$422.OO..22244                      ",
"                       ,,,$$442..OOOO.22244                     ",
"                     ,,,$$44422..OOOOO..2224                    ",
"                   ,,,$$444422..OO..OOO...22                    ",
"                 ,,,$$  444422..OO...OOOOO..                    ",
"               ,,,$$   4444222.OO.O.O.OOOOOOO                   ",
"              ,,$$     444422.OO....O...OOOOO                   ",
"            ,,,$       44422.OOO.OOO..O.OOOOO                   ",
"          ,,,$$       44422.OOOO.....OO...OO.                   ",
"        ,,,$$         4442..OOO.....OO.......                   ",
"        $$$          44422.OO..OO............                   ",
"                     4422..O.....O...........                   ",
"                    44222...................                    ",
"                    4222...............OO.O.                    ",
"                   422..O.............OO....                    ",
"                   2.44..O...........OO.244.                    ",
"                   .2222................2224                    ",
"                                                                ",
"                                                                ",
"                                                                ",
"                                                                ",
"                                                                ",
"                                                                ",
"                                                                "
};
