/* XPM */
static char *ezgif_com_crop__39_1703536159[] = {
/* columns rows colors chars-per-pixel */
"64 64 25 1 ",
"  c None",
". c #331A19",
"X c #341A25",
"o c #3C1E2B",
"O c #4D2D2C",
"+ c #452432",
"@ c #4F2A3A",
"# c #5C3747",
"$ c #442B61",
"% c #745663",
"& c #7C5969",
"* c red",
"= c #CE2038",
"- c #8A0B41",
"; c #8A767E",
": c #331685",
"> c #432792",
", c #5F4181",
"< c #9A7686",
"1 c #9E7688",
"2 c #97828A",
"3 c #97828B",
"4 c #BEACB3",
"5 c #C1C1C1",
"6 c #DADADA",
/* pixels */
"                                                                ",
"                                                                ",
"                                    ++@                         ",
"                                  ++++@@                        ",
"                                 ++++@@@                        ",
"                               +++++@@@@                        ",
"                             ++++++@@@@                         ",
"                            ++++++@@@@                          ",
"                           ++++++@@@@                           ",
"                         +++++++@@@@                            ",
"                        +++++++@@@@                             ",
"                       +++++++ooo@                              ",
"                      ++++++ooo;o                               ",
"                     ++++++ooo;*o                               ",
"                    +++++oooo;24o                               ",
"                    ooooooo--34oo-==                            ",
"                     oooo---=-o---=====                         ",
"                        -------------====                       ",
"                       XXX22-------------=                      ",
"                  #####XXXX222--.22ooo##--                      ",
"                 ######XXXX22222.222oo###-                      ",
"                 #####XXXXX22222.2222oo####                     ",
"                 #XXXXXXXX222244.4442oooo###                    ",
"                 XXXXXXXXX222244.4444o#o#####                   ",
"                 XXXXXXXX--22244.4442oo#####o                   ",
"                -XXXXX%%<--22224.442o######oo                   ",
"              ----XXX%%%<<  2224.422oo####ooo                   ",
"              -------%%%%<  2224.222ooooooooo                   ",
"             =-==-----:%%<< 2224.221&ooooooo                    ",
"              =-----== :%%<>>......1&&ooooo                     ",
"               --===    %%:::64...11&&&ooo                      ",
"              ===         :55664441&&&oo                        ",
"              ==         422266>111&&2                          ",
"                        4222226:&&&222                          ",
"                       422222222&&&,22                          ",
"                      42222....22$$,,,                          ",
"                     4222..OOOO.244$,,,,                        ",
"                   44222.OOOOOO.2244$$,,,                       ",
"                  4222..OOOOOOO.222444$$,,,                     ",
"                  22...OOOOOOOO.222444  $$,,,                   ",
"                  ..OOOOOOOOOOO.222444    $$,,,                 ",
"                  OOOOOO....OOO.222444      $$,,,               ",
"                  OOOOO.....OOO.222444        $$,,              ",
"                  OOOO......OOO.222444          $,,,            ",
"                 OOOO.......OOOO222444           $$,,,          ",
"                 OOO...OOO...OOO.22244             $$,,,        ",
"                OOO..........OOO.22224               $$$        ",
"                OO..OO.......OOO.22224                          ",
"               OOO...........OOO.22222                          ",
"               OO........O....OO..2222                          ",
"              OO........O.........2222                          ",
"              OOOO................2222                          ",
"             OO..OO.............O..222                          ",
"             O442.OO...........O..44.2                          ",
"             4222................2222.                          ",
"                                                                ",
"                                                                ",
"                                                                ",
"                                                                ",
"                                                                ",
"                                                                ",
"                                                                ",
"                                                                ",
"                                                                "
};
