/* XPM */
static char *ezgif_com_crop__41_1703536159[] = {
/* columns rows colors chars-per-pixel */
"64 64 25 1 ",
"  c None",
". c #331A19",
"X c #341A25",
"o c #3C1E2B",
"O c #4D2D2C",
"+ c #452432",
"@ c #4F2A3A",
"# c #5C3747",
"$ c #442B61",
"% c #745663",
"& c #7C5969",
"* c red",
"= c #CE2038",
"- c #8A0B41",
"; c #8A767E",
": c #331685",
"> c #432792",
", c #5F4181",
"< c #9A7686",
"1 c #9E7688",
"2 c #97828A",
"3 c #97828B",
"4 c #BEACB3",
"5 c #C1C1C1",
"6 c #DADADA",
/* pixels */
"                                                                ",
"                                                                ",
"                                                                ",
"                                                                ",
"                                    ++@                         ",
"                                  ++++@@                        ",
"                                 ++++@@@                        ",
"                               +++++@@@@                        ",
"                             ++++++@@@@                         ",
"                            ++++++@@@@                          ",
"                           ++++++@@@@                           ",
"                         +++++++@@@@                            ",
"                        +++++++@@@@                             ",
"                       +++++++ooo@                              ",
"                      ++++++ooo;o                               ",
"                     ++++++ooo;*o                               ",
"                    +++++oooo;34o                               ",
"                    ooooooo--24oo-==                            ",
"                     oooo---=-o---=====                         ",
"                        -------------====                       ",
"                       ##X22-------------=                      ",
"                ########XXX222--222ooo##--                      ",
"               #####XXXXXXX2222.2222oo###-                      ",
"               #XXXXXXXXXXX2222.22222oo####                     ",
"               XXX%%<XXXXX22224.44442oooo###                    ",
"               XX%%%<<   222224.44444o#o#####                   ",
"                X%%%%<     22244.4442oo#####o                   ",
"                   %%<<>    2224.442o######oo                   ",
"                   :%%:>>6  2224.422oo####ooo                   ",
"                      ::566 2224.222ooooooooo                   ",
"                         5666 24.221&ooooooo                    ",
"                          5666-....1&&ooooo                     ",
"                           55666..11&&&ooo                      ",
"                           42566641&&&oo                        ",
"                          4222566>1&&22                         ",
"                         42222255:&,222                         ",
"                        4222222.&&$,,,2                         ",
"                       42222.OO..22$,,,,                        ",
"                      4222..OOO..224$$,,,                       ",
"                    44222.OOOOO..22444$$,,,                     ",
"                   4222..OOOOOO..224444 $$,,,                   ",
"                   22...OOOOOOOO.222444   $$,,,                 ",
"                   ..OOOOOO.OOOO.222444     $$,,,               ",
"                   OOOOOO....OOO.222444       $$,,              ",
"                   OOOOO.....OOO.222244         $,,,            ",
"                    OOO......OOOO.22244          $$,,,          ",
"                    OOO........OO.222224           $$,,,        ",
"                   OOOO.OOO....OO.222224             $$$        ",
"                   OO...........O..222224                       ",
"                   O...O........O..222224                       ",
"                  OO.......O....OO.222222                       ",
"                  O.......O......O..22222                       ",
"                 ...................222222                      ",
"                 ...OO...............22222                      ",
"                 ....OO.............O..222                      ",
"                 .442.OO...........O..44.2                      ",
"                 4222................2222.                      ",
"                                                                ",
"                                                                ",
"                                                                ",
"                                                                ",
"                                                                ",
"                                                                ",
"                                                                "
};
