/* XPM */
static char *ezgif_com_crop__42_1703536159[] = {
/* columns rows colors chars-per-pixel */
"114 64 21 1 ",
"  c None",
". c #331A19",
"X c #3C1E2B",
"o c #4D2D2C",
"O c #452432",
"+ c #4F2A3A",
"@ c #5C3747",
"# c #442B61",
"$ c #7C5969",
"% c #CE2038",
"& c #8A0B41",
"* c #331685",
"= c #432792",
"- c #5F4181",
"; c #9E7688",
": c #97828A",
"> c #97828B",
", c #BEACB3",
"< c #C1C1C1",
"1 c #DADADA",
"2 c white",
/* pixels */
"                                                                                                                  ",
"                                                              22222222222222222222222222                          ",
"                                                     22222222222222222222222222222222222222222222                 ",
"                                               22222222222222222222222222222222222222222222222222222222           ",
"                                          222222222222222222222222222222222222222222222222222222222222222222      ",
"                                      222222222222222222222222222222222222222222222222222222222222222222222222    ",
"                                   22222222222222222222222222222222222222222222222222222222222222222222222222     ",
"                                2222222222222222222222222222222222222222222222222222222222222222222222222222      ",
"                             222222222222222222222222222222222222222222222222222222222222222222222222222222       ",
"                          22222222222222222222222222222222222222222222222222222222222222222222222222222222        ",
"                        222222222222222222222222222222222222222222222222222222222222222222222222222222222         ",
"                      2222222222222222222222222222222222222222222222222222222222222222222222222222222222          ",
"                    22222222222222222222222222222222222222222222222222222222222222222222222222222222222           ",
"                  222222222222222222222222222222222222222222222222222222222222222222222222222222222222            ",
"                 222222222222222222222222222222222222222222222222222222222222222222222222222222222222             ",
"               2222222222222222222222222222222222222222222222222222222222222222222222222222222222222              ",
"              2222222222222222222222222222222222222222222222222222222222222222222222222222222222222               ",
"            22222222222222222222222222222222222222222222222222222222222222222222222222222222222222                ",
"           22222222222222222222222222222222222222222222222222222222222222222222222222222222222222                 ",
"          22222222222222222222222222222222222222222222222222222222222222222222222222222222222222                  ",
"         22222222222222222222222222222222222222222222222222222222222222222222222222222222222222                   ",
"        222222222222222222222222222222222222222222222222222222222222222222  OO+            222                    ",
"       222222222222222222222222222222222222222222222222222222222          OOOO++          =1<                     ",
"       222222222222222222222222222222222222222222222222222222            OOOO+++         ==*                      ",
"      22222222222222222222222222222222222222222222222222               OOOOO++++        ;;*                       ",
"     2222222222222222222222222222222222222222222222222               OOOOOO++++        ;;;;                       ",
"     222222222222222222222222222222222222222222222                  OOOOOO++++       ;;;;$$                       ",
"    222222222222222222222222222222222222222222222                  OOOOOO++++       ;;;;$$$                       ",
"    222222222222222222222222222222222222222222                   OOOOOOO++++      @@@;;$$                         ",
"    22222222222222222222222222222222222222222                   OOOOOOO++++      @@@@@$$$                         ",
"   2222222222222222222222222222222222222222                    OOOOOOOX+++      @@@XXXX$                          ",
"   222222222222222222222222222222222222222                    OOOOOOXXX++      @@@XXXXX                           ",
"   22222222222222222222222222222222222222                    OOOOOOXXXXXX   %%%%%%%%%%%%%%%%%%%%%%                ",
"   2222222222222222222222222222222222222                    OOOOOXXXXXXXX &&&%%%%%%%%%%%%%%%%%%%%%%%%%%%%%%%      ",
"   222222222222222222222222222222222222                     XXXXXXXX :XXX&&&&&&&%%%%%%%%%%%%%%%%%%%%%%%%%%%       ",
"   22222222222222222222222222222222222                       XXXX    :&&&&&&&&&&&&&%%%%%&&&&&%%%%%%&&&&&&&        ",
"   22222222222222222222222222222222222                               ,,&&&XX@@@@&&&&&&&&&&&&&&&&&&&&%%%%%%%       ",
"    22222222222222222222222222222222                                 :,:&&&XX@@@@@&&&&&&&&&&&&&&&&&&&&&&&&&       ",
"    22222222222222222222222222222222                                  ,,,:.:XX@X@@@@&&&&&&&&&&&&&&&&&&&           ",
"    22222222222222222222222222222222                                  :,,:..XXX@@@@@                              ",
"     2222222222222222222222222222222                                  ::,,:.X@@@@@@@X                             ",
"     222222222222222222222222222222                                    ::,,..XX@@@@XX                             ",
"      22222222222222222222222222222                                     ::,,X@@@@@XXX                             ",
"       2222222222222222222222222222                                      ::,XX@XXXXX                              ",
"       2222222222222222222222222222                                      :::XXXXXXXX                              ",
"        2222222222222222222222222222                                       :;$XXXXXX                              ",
"         222222222222222222222222222                                        ;$$XXXX:                              ",
"          22222222222222222222222222                                       ;;$$$X:,::                             ",
"           2222222222222222222222222                                       ;$$$X:,,,::                            ",
"            22222222222222222222222222                                     ;$$$,::,,,:                            ",
"              222222222222222222222222                                    ;;$:::.::,,::                           ",
"               222222222222222222222222                                  #$$$###----##########--------            ",
"                 22222222222222222222222                                 #$$###########################           ",
"                  22222222222222222222222                                .ooooo..::,,,,,                          ",
"                    2222222222222222222222                              .oooooo..:::,,,,,                         ",
"                      222222222222222222222                            oooooo.oo.::::,,,,,                        ",
"                        222222222222222222222                          oooo....o.:::::,,,,,                       ",
"                          22222222222222222222                         oooo.....o.:::::,,,,,                      ",
"                             22222222222222222222                      ooo.......o.:::::,,,,,                     ",
"                                222222222222222222                     oo...........:::::,,,,,                    ",
"                                   2222222222222222222                 o.............:::::,,,,,                   ",
"                                      222222222222222222               o............o.:::::,,,,,                  ",
"                                          2222222222222222222           ...o.........o.:::::,,,,,                 ",
"                                               22222222222222222          ............o..:::::,,,,                "
};
